<svg xmlns="http://www.w3.org/2000/svg" xmlns:xlink="http://www.w3.org/1999/xlink" width="600" height="400" viewBox="0 0 2400 1600">
<defs>
  <clipPath id="clip080">
    <rect x="0" y="0" width="2400" height="1600"></rect>
  </clipPath>
</defs>
<path clip-path="url(#clip080)" d="M0 1600 L2400 1600 L2400 0 L0 0  Z" fill="#ffffff" fill-rule="evenodd" fill-opacity="1"></path>
<defs>
  <clipPath id="clip081">
    <rect x="480" y="0" width="1681" height="1600"></rect>
  </clipPath>
</defs>
<path clip-path="url(#clip080)" d="M112.177 1486.45 L2352.76 1486.45 L2352.76 47.2441 L112.177 47.2441  Z" fill="#ffffff" fill-rule="evenodd" fill-opacity="1"></path>
<defs>
  <clipPath id="clip082">
    <rect x="112" y="47" width="2242" height="1440"></rect>
  </clipPath>
</defs>
<polyline clip-path="url(#clip082)" style="stroke:#000000; stroke-linecap:round; stroke-linejoin:round; stroke-width:2; stroke-opacity:0.1; fill:none" points="521.917,1486.45 521.917,47.2441 "></polyline>
<polyline clip-path="url(#clip082)" style="stroke:#000000; stroke-linecap:round; stroke-linejoin:round; stroke-width:2; stroke-opacity:0.1; fill:none" points="996.651,1486.45 996.651,47.2441 "></polyline>
<polyline clip-path="url(#clip082)" style="stroke:#000000; stroke-linecap:round; stroke-linejoin:round; stroke-width:2; stroke-opacity:0.1; fill:none" points="1471.38,1486.45 1471.38,47.2441 "></polyline>
<polyline clip-path="url(#clip082)" style="stroke:#000000; stroke-linecap:round; stroke-linejoin:round; stroke-width:2; stroke-opacity:0.1; fill:none" points="1946.12,1486.45 1946.12,47.2441 "></polyline>
<polyline clip-path="url(#clip080)" style="stroke:#000000; stroke-linecap:round; stroke-linejoin:round; stroke-width:4; stroke-opacity:1; fill:none" points="112.177,1486.45 2352.76,1486.45 "></polyline>
<polyline clip-path="url(#clip080)" style="stroke:#000000; stroke-linecap:round; stroke-linejoin:round; stroke-width:4; stroke-opacity:1; fill:none" points="521.917,1486.45 521.917,1467.55 "></polyline>
<polyline clip-path="url(#clip080)" style="stroke:#000000; stroke-linecap:round; stroke-linejoin:round; stroke-width:4; stroke-opacity:1; fill:none" points="996.651,1486.45 996.651,1467.55 "></polyline>
<polyline clip-path="url(#clip080)" style="stroke:#000000; stroke-linecap:round; stroke-linejoin:round; stroke-width:4; stroke-opacity:1; fill:none" points="1471.38,1486.45 1471.38,1467.55 "></polyline>
<polyline clip-path="url(#clip080)" style="stroke:#000000; stroke-linecap:round; stroke-linejoin:round; stroke-width:4; stroke-opacity:1; fill:none" points="1946.12,1486.45 1946.12,1467.55 "></polyline>
<path clip-path="url(#clip080)" d="M500.1 1517.37 Q496.489 1517.37 494.661 1520.93 Q492.855 1524.47 492.855 1531.6 Q492.855 1538.71 494.661 1542.27 Q496.489 1545.82 500.1 1545.82 Q503.735 1545.82 505.54 1542.27 Q507.369 1538.71 507.369 1531.6 Q507.369 1524.47 505.54 1520.93 Q503.735 1517.37 500.1 1517.37 M500.1 1513.66 Q505.911 1513.66 508.966 1518.27 Q512.045 1522.85 512.045 1531.6 Q512.045 1540.33 508.966 1544.94 Q505.911 1549.52 500.1 1549.52 Q494.29 1549.52 491.212 1544.94 Q488.156 1540.33 488.156 1531.6 Q488.156 1522.85 491.212 1518.27 Q494.29 1513.66 500.1 1513.66 Z" fill="#000000" fill-rule="nonzero" fill-opacity="1"></path><path clip-path="url(#clip080)" d="M520.262 1542.97 L525.147 1542.97 L525.147 1548.85 L520.262 1548.85 L520.262 1542.97 Z" fill="#000000" fill-rule="nonzero" fill-opacity="1"></path><path clip-path="url(#clip080)" d="M539.36 1544.91 L555.679 1544.91 L555.679 1548.85 L533.735 1548.85 L533.735 1544.91 Q536.397 1542.16 540.98 1537.53 Q545.586 1532.88 546.767 1531.53 Q549.012 1529.01 549.892 1527.27 Q550.795 1525.51 550.795 1523.82 Q550.795 1521.07 548.85 1519.33 Q546.929 1517.6 543.827 1517.6 Q541.628 1517.6 539.174 1518.36 Q536.744 1519.13 533.966 1520.68 L533.966 1515.95 Q536.79 1514.82 539.244 1514.24 Q541.697 1513.66 543.734 1513.66 Q549.105 1513.66 552.299 1516.35 Q555.494 1519.03 555.494 1523.52 Q555.494 1525.65 554.683 1527.57 Q553.896 1529.47 551.79 1532.07 Q551.211 1532.74 548.109 1535.95 Q545.008 1539.15 539.36 1544.91 Z" fill="#000000" fill-rule="nonzero" fill-opacity="1"></path><path clip-path="url(#clip080)" d="M973.792 1517.37 Q970.181 1517.37 968.353 1520.93 Q966.547 1524.47 966.547 1531.6 Q966.547 1538.71 968.353 1542.27 Q970.181 1545.82 973.792 1545.82 Q977.427 1545.82 979.232 1542.27 Q981.061 1538.71 981.061 1531.6 Q981.061 1524.47 979.232 1520.93 Q977.427 1517.37 973.792 1517.37 M973.792 1513.66 Q979.602 1513.66 982.658 1518.27 Q985.737 1522.85 985.737 1531.6 Q985.737 1540.33 982.658 1544.94 Q979.602 1549.52 973.792 1549.52 Q967.982 1549.52 964.903 1544.94 Q961.848 1540.33 961.848 1531.6 Q961.848 1522.85 964.903 1518.27 Q967.982 1513.66 973.792 1513.66 Z" fill="#000000" fill-rule="nonzero" fill-opacity="1"></path><path clip-path="url(#clip080)" d="M993.954 1542.97 L998.838 1542.97 L998.838 1548.85 L993.954 1548.85 L993.954 1542.97 Z" fill="#000000" fill-rule="nonzero" fill-opacity="1"></path><path clip-path="url(#clip080)" d="M1021.87 1518.36 L1010.07 1536.81 L1021.87 1536.81 L1021.87 1518.36 M1020.64 1514.29 L1026.52 1514.29 L1026.52 1536.81 L1031.45 1536.81 L1031.45 1540.7 L1026.52 1540.7 L1026.52 1548.85 L1021.87 1548.85 L1021.87 1540.7 L1006.27 1540.7 L1006.27 1536.19 L1020.64 1514.29 Z" fill="#000000" fill-rule="nonzero" fill-opacity="1"></path><path clip-path="url(#clip080)" d="M1448.69 1517.37 Q1445.08 1517.37 1443.25 1520.93 Q1441.44 1524.47 1441.44 1531.6 Q1441.44 1538.71 1443.25 1542.27 Q1445.08 1545.82 1448.69 1545.82 Q1452.32 1545.82 1454.13 1542.27 Q1455.96 1538.71 1455.96 1531.6 Q1455.96 1524.47 1454.13 1520.93 Q1452.32 1517.37 1448.69 1517.37 M1448.69 1513.66 Q1454.5 1513.66 1457.55 1518.27 Q1460.63 1522.85 1460.63 1531.6 Q1460.63 1540.33 1457.55 1544.94 Q1454.5 1549.52 1448.69 1549.52 Q1442.88 1549.52 1439.8 1544.94 Q1436.74 1540.33 1436.74 1531.6 Q1436.74 1522.85 1439.8 1518.27 Q1442.88 1513.66 1448.69 1513.66 Z" fill="#000000" fill-rule="nonzero" fill-opacity="1"></path><path clip-path="url(#clip080)" d="M1468.85 1542.97 L1473.73 1542.97 L1473.73 1548.85 L1468.85 1548.85 L1468.85 1542.97 Z" fill="#000000" fill-rule="nonzero" fill-opacity="1"></path><path clip-path="url(#clip080)" d="M1494.5 1529.7 Q1491.35 1529.7 1489.5 1531.86 Q1487.67 1534.01 1487.67 1537.76 Q1487.67 1541.49 1489.5 1543.66 Q1491.35 1545.82 1494.5 1545.82 Q1497.65 1545.82 1499.47 1543.66 Q1501.33 1541.49 1501.33 1537.76 Q1501.33 1534.01 1499.47 1531.86 Q1497.65 1529.7 1494.5 1529.7 M1503.78 1515.05 L1503.78 1519.31 Q1502.02 1518.48 1500.22 1518.04 Q1498.43 1517.6 1496.67 1517.6 Q1492.04 1517.6 1489.59 1520.72 Q1487.16 1523.85 1486.81 1530.17 Q1488.18 1528.15 1490.24 1527.09 Q1492.3 1526 1494.78 1526 Q1499.98 1526 1502.99 1529.17 Q1506.03 1532.32 1506.03 1537.76 Q1506.03 1543.08 1502.88 1546.3 Q1499.73 1549.52 1494.5 1549.52 Q1488.5 1549.52 1485.33 1544.94 Q1482.16 1540.33 1482.16 1531.6 Q1482.16 1523.41 1486.05 1518.55 Q1489.94 1513.66 1496.49 1513.66 Q1498.25 1513.66 1500.03 1514.01 Q1501.84 1514.36 1503.78 1515.05 Z" fill="#000000" fill-rule="nonzero" fill-opacity="1"></path><path clip-path="url(#clip080)" d="M1923.55 1517.37 Q1919.94 1517.37 1918.11 1520.93 Q1916.3 1524.47 1916.3 1531.6 Q1916.3 1538.71 1918.11 1542.27 Q1919.94 1545.82 1923.55 1545.82 Q1927.18 1545.82 1928.99 1542.27 Q1930.82 1538.71 1930.82 1531.6 Q1930.82 1524.47 1928.99 1520.93 Q1927.18 1517.37 1923.55 1517.37 M1923.55 1513.66 Q1929.36 1513.66 1932.41 1518.27 Q1935.49 1522.85 1935.49 1531.6 Q1935.49 1540.33 1932.41 1544.94 Q1929.36 1549.52 1923.55 1549.52 Q1917.74 1549.52 1914.66 1544.94 Q1911.6 1540.33 1911.6 1531.6 Q1911.6 1522.85 1914.66 1518.27 Q1917.74 1513.66 1923.55 1513.66 Z" fill="#000000" fill-rule="nonzero" fill-opacity="1"></path><path clip-path="url(#clip080)" d="M1943.71 1542.97 L1948.59 1542.97 L1948.59 1548.85 L1943.71 1548.85 L1943.71 1542.97 Z" fill="#000000" fill-rule="nonzero" fill-opacity="1"></path><path clip-path="url(#clip080)" d="M1968.78 1532.44 Q1965.45 1532.44 1963.53 1534.22 Q1961.63 1536 1961.63 1539.13 Q1961.63 1542.25 1963.53 1544.03 Q1965.45 1545.82 1968.78 1545.82 Q1972.11 1545.82 1974.03 1544.03 Q1975.96 1542.23 1975.96 1539.13 Q1975.96 1536 1974.03 1534.22 Q1972.14 1532.44 1968.78 1532.44 M1964.1 1530.45 Q1961.09 1529.7 1959.4 1527.64 Q1957.74 1525.58 1957.74 1522.62 Q1957.74 1518.48 1960.68 1516.07 Q1963.64 1513.66 1968.78 1513.66 Q1973.94 1513.66 1976.88 1516.07 Q1979.82 1518.48 1979.82 1522.62 Q1979.82 1525.58 1978.13 1527.64 Q1976.47 1529.7 1973.48 1530.45 Q1976.86 1531.23 1978.73 1533.52 Q1980.63 1535.82 1980.63 1539.13 Q1980.63 1544.15 1977.55 1546.83 Q1974.5 1549.52 1968.78 1549.52 Q1963.06 1549.52 1959.98 1546.83 Q1956.93 1544.15 1956.93 1539.13 Q1956.93 1535.82 1958.83 1533.52 Q1960.72 1531.23 1964.1 1530.45 M1962.39 1523.06 Q1962.39 1525.75 1964.06 1527.25 Q1965.75 1528.76 1968.78 1528.76 Q1971.79 1528.76 1973.48 1527.25 Q1975.19 1525.75 1975.19 1523.06 Q1975.19 1520.38 1973.48 1518.87 Q1971.79 1517.37 1968.78 1517.37 Q1965.75 1517.37 1964.06 1518.87 Q1962.39 1520.38 1962.39 1523.06 Z" fill="#000000" fill-rule="nonzero" fill-opacity="1"></path><polyline clip-path="url(#clip082)" style="stroke:#000000; stroke-linecap:round; stroke-linejoin:round; stroke-width:2; stroke-opacity:0.1; fill:none" points="112.177,1445.72 2352.76,1445.72 "></polyline>
<polyline clip-path="url(#clip082)" style="stroke:#000000; stroke-linecap:round; stroke-linejoin:round; stroke-width:2; stroke-opacity:0.1; fill:none" points="112.177,1152.27 2352.76,1152.27 "></polyline>
<polyline clip-path="url(#clip082)" style="stroke:#000000; stroke-linecap:round; stroke-linejoin:round; stroke-width:2; stroke-opacity:0.1; fill:none" points="112.177,858.832 2352.76,858.832 "></polyline>
<polyline clip-path="url(#clip082)" style="stroke:#000000; stroke-linecap:round; stroke-linejoin:round; stroke-width:2; stroke-opacity:0.1; fill:none" points="112.177,565.39 2352.76,565.39 "></polyline>
<polyline clip-path="url(#clip082)" style="stroke:#000000; stroke-linecap:round; stroke-linejoin:round; stroke-width:2; stroke-opacity:0.1; fill:none" points="112.177,271.948 2352.76,271.948 "></polyline>
<polyline clip-path="url(#clip080)" style="stroke:#000000; stroke-linecap:round; stroke-linejoin:round; stroke-width:4; stroke-opacity:1; fill:none" points="112.177,1486.45 112.177,47.2441 "></polyline>
<polyline clip-path="url(#clip080)" style="stroke:#000000; stroke-linecap:round; stroke-linejoin:round; stroke-width:4; stroke-opacity:1; fill:none" points="112.177,1445.72 131.075,1445.72 "></polyline>
<polyline clip-path="url(#clip080)" style="stroke:#000000; stroke-linecap:round; stroke-linejoin:round; stroke-width:4; stroke-opacity:1; fill:none" points="112.177,1152.27 131.075,1152.27 "></polyline>
<polyline clip-path="url(#clip080)" style="stroke:#000000; stroke-linecap:round; stroke-linejoin:round; stroke-width:4; stroke-opacity:1; fill:none" points="112.177,858.832 131.075,858.832 "></polyline>
<polyline clip-path="url(#clip080)" style="stroke:#000000; stroke-linecap:round; stroke-linejoin:round; stroke-width:4; stroke-opacity:1; fill:none" points="112.177,565.39 131.075,565.39 "></polyline>
<polyline clip-path="url(#clip080)" style="stroke:#000000; stroke-linecap:round; stroke-linejoin:round; stroke-width:4; stroke-opacity:1; fill:none" points="112.177,271.948 131.075,271.948 "></polyline>
<path clip-path="url(#clip080)" d="M64.2328 1431.51 Q60.6217 1431.51 58.793 1435.08 Q56.9875 1438.62 56.9875 1445.75 Q56.9875 1452.86 58.793 1456.42 Q60.6217 1459.96 64.2328 1459.96 Q67.867 1459.96 69.6726 1456.42 Q71.5013 1452.86 71.5013 1445.75 Q71.5013 1438.62 69.6726 1435.08 Q67.867 1431.51 64.2328 1431.51 M64.2328 1427.81 Q70.0429 1427.81 73.0985 1432.42 Q76.1772 1437 76.1772 1445.75 Q76.1772 1454.48 73.0985 1459.08 Q70.0429 1463.67 64.2328 1463.67 Q58.4226 1463.67 55.344 1459.08 Q52.2884 1454.48 52.2884 1445.75 Q52.2884 1437 55.344 1432.42 Q58.4226 1427.81 64.2328 1427.81 Z" fill="#000000" fill-rule="nonzero" fill-opacity="1"></path><path clip-path="url(#clip080)" d="M59.8578 1165.62 L76.1772 1165.62 L76.1772 1169.55 L54.2328 1169.55 L54.2328 1165.62 Q56.8949 1162.86 61.4782 1158.23 Q66.0846 1153.58 67.2652 1152.24 Q69.5105 1149.72 70.3902 1147.98 Q71.2929 1146.22 71.2929 1144.53 Q71.2929 1141.78 69.3485 1140.04 Q67.4272 1138.3 64.3254 1138.3 Q62.1263 1138.3 59.6726 1139.07 Q57.2421 1139.83 54.4643 1141.38 L54.4643 1136.66 Q57.2884 1135.53 59.7421 1134.95 Q62.1958 1134.37 64.2328 1134.37 Q69.6031 1134.37 72.7976 1137.05 Q75.992 1139.74 75.992 1144.23 Q75.992 1146.36 75.1818 1148.28 Q74.3948 1150.18 72.2883 1152.77 Q71.7096 1153.44 68.6078 1156.66 Q65.5059 1159.85 59.8578 1165.62 Z" fill="#000000" fill-rule="nonzero" fill-opacity="1"></path><path clip-path="url(#clip080)" d="M66.5939 845.626 L54.7884 864.075 L66.5939 864.075 L66.5939 845.626 M65.367 841.552 L71.2466 841.552 L71.2466 864.075 L76.1772 864.075 L76.1772 867.964 L71.2466 867.964 L71.2466 876.112 L66.5939 876.112 L66.5939 867.964 L50.9921 867.964 L50.9921 863.45 L65.367 841.552 Z" fill="#000000" fill-rule="nonzero" fill-opacity="1"></path><path clip-path="url(#clip080)" d="M64.6495 563.526 Q61.5013 563.526 59.6495 565.679 Q57.8208 567.832 57.8208 571.582 Q57.8208 575.309 59.6495 577.485 Q61.5013 579.637 64.6495 579.637 Q67.7976 579.637 69.6263 577.485 Q71.4781 575.309 71.4781 571.582 Q71.4781 567.832 69.6263 565.679 Q67.7976 563.526 64.6495 563.526 M73.9318 548.874 L73.9318 553.133 Q72.1726 552.3 70.367 551.86 Q68.5846 551.42 66.8254 551.42 Q62.1958 551.42 59.7421 554.545 Q57.3115 557.67 56.9643 563.989 Q58.33 561.976 60.3902 560.911 Q62.4504 559.823 64.9272 559.823 Q70.1355 559.823 73.1448 562.994 Q76.1772 566.142 76.1772 571.582 Q76.1772 576.906 73.029 580.124 Q69.8809 583.341 64.6495 583.341 Q58.6541 583.341 55.4828 578.758 Q52.3116 574.151 52.3116 565.425 Q52.3116 557.23 56.2004 552.369 Q60.0893 547.485 66.6402 547.485 Q68.3994 547.485 70.1818 547.832 Q71.9874 548.179 73.9318 548.874 Z" fill="#000000" fill-rule="nonzero" fill-opacity="1"></path><path clip-path="url(#clip080)" d="M64.3254 272.816 Q60.9921 272.816 59.0708 274.598 Q57.1726 276.381 57.1726 279.506 Q57.1726 282.631 59.0708 284.413 Q60.9921 286.196 64.3254 286.196 Q67.6587 286.196 69.58 284.413 Q71.5013 282.608 71.5013 279.506 Q71.5013 276.381 69.58 274.598 Q67.6819 272.816 64.3254 272.816 M59.6495 270.825 Q56.6402 270.084 54.9504 268.024 Q53.2838 265.964 53.2838 263.001 Q53.2838 258.858 56.2236 256.45 Q59.1865 254.043 64.3254 254.043 Q69.4874 254.043 72.4272 256.45 Q75.367 258.858 75.367 263.001 Q75.367 265.964 73.6772 268.024 Q72.0105 270.084 69.0244 270.825 Q72.404 271.612 74.279 273.904 Q76.1772 276.196 76.1772 279.506 Q76.1772 284.529 73.0985 287.214 Q70.0429 289.899 64.3254 289.899 Q58.6078 289.899 55.5291 287.214 Q52.4736 284.529 52.4736 279.506 Q52.4736 276.196 54.3717 273.904 Q56.2699 271.612 59.6495 270.825 M57.9365 263.441 Q57.9365 266.126 59.6032 267.631 Q61.293 269.135 64.3254 269.135 Q67.3346 269.135 69.0244 267.631 Q70.7374 266.126 70.7374 263.441 Q70.7374 260.756 69.0244 259.251 Q67.3346 257.747 64.3254 257.747 Q61.293 257.747 59.6032 259.251 Q57.9365 260.756 57.9365 263.441 Z" fill="#000000" fill-rule="nonzero" fill-opacity="1"></path><polyline clip-path="url(#clip082)" style="stroke:#ff6347; stroke-linecap:round; stroke-linejoin:round; stroke-width:4; stroke-opacity:1; fill:none" points="175.59,1445.72 262.919,1445.72 350.212,1445.72 437.693,1445.72 524.679,1445.72 610.235,91.1735 692.61,90.6068 772.642,89.9821 850.946,91.2145 927.838,89.3121 1004.09,92.184 1080.67,87.9763 1156.91,92.9236 1233.15,88.0136 1309.1,92.8465 1385.03,87.9873 1461.46,92.3697 1537.53,88.9521 1615.02,91.6007 1693.28,89.7309 1773.29,90.7074 1855.48,91.1848 1940.79,1445.72 2027.57,1445.72 2114.89,1445.72 2202.09,1445.72 2289.34,1445.72 "></polyline>
<circle clip-path="url(#clip082)" cx="175.59" cy="1445.72" r="14.4" fill="#ff6347" fill-rule="evenodd" fill-opacity="1" stroke="#000000" stroke-opacity="1" stroke-width="3.2"></circle>
<circle clip-path="url(#clip082)" cx="262.919" cy="1445.72" r="14.4" fill="#ff6347" fill-rule="evenodd" fill-opacity="1" stroke="#000000" stroke-opacity="1" stroke-width="3.2"></circle>
<circle clip-path="url(#clip082)" cx="350.212" cy="1445.72" r="14.4" fill="#ff6347" fill-rule="evenodd" fill-opacity="1" stroke="#000000" stroke-opacity="1" stroke-width="3.2"></circle>
<circle clip-path="url(#clip082)" cx="437.693" cy="1445.72" r="14.4" fill="#ff6347" fill-rule="evenodd" fill-opacity="1" stroke="#000000" stroke-opacity="1" stroke-width="3.2"></circle>
<circle clip-path="url(#clip082)" cx="524.679" cy="1445.72" r="14.4" fill="#ff6347" fill-rule="evenodd" fill-opacity="1" stroke="#000000" stroke-opacity="1" stroke-width="3.2"></circle>
<circle clip-path="url(#clip082)" cx="610.235" cy="91.1735" r="14.4" fill="#ff6347" fill-rule="evenodd" fill-opacity="1" stroke="#000000" stroke-opacity="1" stroke-width="3.2"></circle>
<circle clip-path="url(#clip082)" cx="692.61" cy="90.6068" r="14.4" fill="#ff6347" fill-rule="evenodd" fill-opacity="1" stroke="#000000" stroke-opacity="1" stroke-width="3.2"></circle>
<circle clip-path="url(#clip082)" cx="772.642" cy="89.9821" r="14.4" fill="#ff6347" fill-rule="evenodd" fill-opacity="1" stroke="#000000" stroke-opacity="1" stroke-width="3.2"></circle>
<circle clip-path="url(#clip082)" cx="850.946" cy="91.2145" r="14.4" fill="#ff6347" fill-rule="evenodd" fill-opacity="1" stroke="#000000" stroke-opacity="1" stroke-width="3.2"></circle>
<circle clip-path="url(#clip082)" cx="927.838" cy="89.3121" r="14.4" fill="#ff6347" fill-rule="evenodd" fill-opacity="1" stroke="#000000" stroke-opacity="1" stroke-width="3.2"></circle>
<circle clip-path="url(#clip082)" cx="1004.09" cy="92.184" r="14.4" fill="#ff6347" fill-rule="evenodd" fill-opacity="1" stroke="#000000" stroke-opacity="1" stroke-width="3.2"></circle>
<circle clip-path="url(#clip082)" cx="1080.67" cy="87.9763" r="14.4" fill="#ff6347" fill-rule="evenodd" fill-opacity="1" stroke="#000000" stroke-opacity="1" stroke-width="3.2"></circle>
<circle clip-path="url(#clip082)" cx="1156.91" cy="92.9236" r="14.4" fill="#ff6347" fill-rule="evenodd" fill-opacity="1" stroke="#000000" stroke-opacity="1" stroke-width="3.2"></circle>
<circle clip-path="url(#clip082)" cx="1233.15" cy="88.0136" r="14.4" fill="#ff6347" fill-rule="evenodd" fill-opacity="1" stroke="#000000" stroke-opacity="1" stroke-width="3.2"></circle>
<circle clip-path="url(#clip082)" cx="1309.1" cy="92.8465" r="14.4" fill="#ff6347" fill-rule="evenodd" fill-opacity="1" stroke="#000000" stroke-opacity="1" stroke-width="3.2"></circle>
<circle clip-path="url(#clip082)" cx="1385.03" cy="87.9873" r="14.4" fill="#ff6347" fill-rule="evenodd" fill-opacity="1" stroke="#000000" stroke-opacity="1" stroke-width="3.2"></circle>
<circle clip-path="url(#clip082)" cx="1461.46" cy="92.3697" r="14.4" fill="#ff6347" fill-rule="evenodd" fill-opacity="1" stroke="#000000" stroke-opacity="1" stroke-width="3.2"></circle>
<circle clip-path="url(#clip082)" cx="1537.53" cy="88.9521" r="14.4" fill="#ff6347" fill-rule="evenodd" fill-opacity="1" stroke="#000000" stroke-opacity="1" stroke-width="3.2"></circle>
<circle clip-path="url(#clip082)" cx="1615.02" cy="91.6007" r="14.4" fill="#ff6347" fill-rule="evenodd" fill-opacity="1" stroke="#000000" stroke-opacity="1" stroke-width="3.2"></circle>
<circle clip-path="url(#clip082)" cx="1693.28" cy="89.7309" r="14.4" fill="#ff6347" fill-rule="evenodd" fill-opacity="1" stroke="#000000" stroke-opacity="1" stroke-width="3.2"></circle>
<circle clip-path="url(#clip082)" cx="1773.29" cy="90.7074" r="14.4" fill="#ff6347" fill-rule="evenodd" fill-opacity="1" stroke="#000000" stroke-opacity="1" stroke-width="3.2"></circle>
<circle clip-path="url(#clip082)" cx="1855.48" cy="91.1848" r="14.4" fill="#ff6347" fill-rule="evenodd" fill-opacity="1" stroke="#000000" stroke-opacity="1" stroke-width="3.2"></circle>
<circle clip-path="url(#clip082)" cx="1940.79" cy="1445.72" r="14.4" fill="#ff6347" fill-rule="evenodd" fill-opacity="1" stroke="#000000" stroke-opacity="1" stroke-width="3.2"></circle>
<circle clip-path="url(#clip082)" cx="2027.57" cy="1445.72" r="14.4" fill="#ff6347" fill-rule="evenodd" fill-opacity="1" stroke="#000000" stroke-opacity="1" stroke-width="3.2"></circle>
<circle clip-path="url(#clip082)" cx="2114.89" cy="1445.72" r="14.4" fill="#ff6347" fill-rule="evenodd" fill-opacity="1" stroke="#000000" stroke-opacity="1" stroke-width="3.2"></circle>
<circle clip-path="url(#clip082)" cx="2202.09" cy="1445.72" r="14.4" fill="#ff6347" fill-rule="evenodd" fill-opacity="1" stroke="#000000" stroke-opacity="1" stroke-width="3.2"></circle>
<circle clip-path="url(#clip082)" cx="2289.34" cy="1445.72" r="14.4" fill="#ff6347" fill-rule="evenodd" fill-opacity="1" stroke="#000000" stroke-opacity="1" stroke-width="3.2"></circle>
</svg>