<svg xmlns="http://www.w3.org/2000/svg" xmlns:xlink="http://www.w3.org/1999/xlink" width="600" height="400" viewBox="0 0 2400 1600">
<defs>
  <clipPath id="clip120">
    <rect x="0" y="0" width="2400" height="1600"></rect>
  </clipPath>
</defs>
<path clip-path="url(#clip120)" d="M0 1600 L2400 1600 L2400 0 L0 0  Z" fill="#ffffff" fill-rule="evenodd" fill-opacity="1"></path>
<defs>
  <clipPath id="clip121">
    <rect x="480" y="0" width="1681" height="1600"></rect>
  </clipPath>
</defs>
<path clip-path="url(#clip120)" d="M141.853 1486.45 L2352.76 1486.45 L2352.76 47.2441 L141.853 47.2441  Z" fill="#ffffff" fill-rule="evenodd" fill-opacity="1"></path>
<defs>
  <clipPath id="clip122">
    <rect x="141" y="47" width="2212" height="1440"></rect>
  </clipPath>
</defs>
<polyline clip-path="url(#clip122)" style="stroke:#000000; stroke-linecap:round; stroke-linejoin:round; stroke-width:2; stroke-opacity:0.1; fill:none" points="193.944,1486.45 193.944,47.2441 "></polyline>
<polyline clip-path="url(#clip122)" style="stroke:#000000; stroke-linecap:round; stroke-linejoin:round; stroke-width:2; stroke-opacity:0.1; fill:none" points="718.004,1486.45 718.004,47.2441 "></polyline>
<polyline clip-path="url(#clip122)" style="stroke:#000000; stroke-linecap:round; stroke-linejoin:round; stroke-width:2; stroke-opacity:0.1; fill:none" points="1242.06,1486.45 1242.06,47.2441 "></polyline>
<polyline clip-path="url(#clip122)" style="stroke:#000000; stroke-linecap:round; stroke-linejoin:round; stroke-width:2; stroke-opacity:0.1; fill:none" points="1766.12,1486.45 1766.12,47.2441 "></polyline>
<polyline clip-path="url(#clip122)" style="stroke:#000000; stroke-linecap:round; stroke-linejoin:round; stroke-width:2; stroke-opacity:0.1; fill:none" points="2290.18,1486.45 2290.18,47.2441 "></polyline>
<polyline clip-path="url(#clip120)" style="stroke:#000000; stroke-linecap:round; stroke-linejoin:round; stroke-width:4; stroke-opacity:1; fill:none" points="141.853,1486.45 2352.76,1486.45 "></polyline>
<polyline clip-path="url(#clip120)" style="stroke:#000000; stroke-linecap:round; stroke-linejoin:round; stroke-width:4; stroke-opacity:1; fill:none" points="193.944,1486.45 193.944,1467.55 "></polyline>
<polyline clip-path="url(#clip120)" style="stroke:#000000; stroke-linecap:round; stroke-linejoin:round; stroke-width:4; stroke-opacity:1; fill:none" points="718.004,1486.45 718.004,1467.55 "></polyline>
<polyline clip-path="url(#clip120)" style="stroke:#000000; stroke-linecap:round; stroke-linejoin:round; stroke-width:4; stroke-opacity:1; fill:none" points="1242.06,1486.45 1242.06,1467.55 "></polyline>
<polyline clip-path="url(#clip120)" style="stroke:#000000; stroke-linecap:round; stroke-linejoin:round; stroke-width:4; stroke-opacity:1; fill:none" points="1766.12,1486.45 1766.12,1467.55 "></polyline>
<polyline clip-path="url(#clip120)" style="stroke:#000000; stroke-linecap:round; stroke-linejoin:round; stroke-width:4; stroke-opacity:1; fill:none" points="2290.18,1486.45 2290.18,1467.55 "></polyline>
<path clip-path="url(#clip120)" d="M193.944 1517.37 Q190.333 1517.37 188.505 1520.93 Q186.699 1524.47 186.699 1531.6 Q186.699 1538.71 188.505 1542.27 Q190.333 1545.82 193.944 1545.82 Q197.579 1545.82 199.384 1542.27 Q201.213 1538.71 201.213 1531.6 Q201.213 1524.47 199.384 1520.93 Q197.579 1517.37 193.944 1517.37 M193.944 1513.66 Q199.755 1513.66 202.81 1518.27 Q205.889 1522.85 205.889 1531.6 Q205.889 1540.33 202.81 1544.94 Q199.755 1549.52 193.944 1549.52 Q188.134 1549.52 185.056 1544.94 Q182 1540.33 182 1531.6 Q182 1522.85 185.056 1518.27 Q188.134 1513.66 193.944 1513.66 Z" fill="#000000" fill-rule="nonzero" fill-opacity="1"></path><path clip-path="url(#clip120)" d="M692.703 1514.29 L711.06 1514.29 L711.06 1518.22 L696.986 1518.22 L696.986 1526.7 Q698.004 1526.35 699.023 1526.19 Q700.041 1526 701.06 1526 Q706.847 1526 710.226 1529.17 Q713.606 1532.34 713.606 1537.76 Q713.606 1543.34 710.134 1546.44 Q706.662 1549.52 700.342 1549.52 Q698.166 1549.52 695.898 1549.15 Q693.652 1548.78 691.245 1548.04 L691.245 1543.34 Q693.328 1544.47 695.551 1545.03 Q697.773 1545.58 700.25 1545.58 Q704.254 1545.58 706.592 1543.48 Q708.93 1541.37 708.93 1537.76 Q708.93 1534.15 706.592 1532.04 Q704.254 1529.94 700.25 1529.94 Q698.375 1529.94 696.5 1530.35 Q694.648 1530.77 692.703 1531.65 L692.703 1514.29 Z" fill="#000000" fill-rule="nonzero" fill-opacity="1"></path><path clip-path="url(#clip120)" d="M732.819 1517.37 Q729.208 1517.37 727.379 1520.93 Q725.574 1524.47 725.574 1531.6 Q725.574 1538.71 727.379 1542.27 Q729.208 1545.82 732.819 1545.82 Q736.453 1545.82 738.259 1542.27 Q740.087 1538.71 740.087 1531.6 Q740.087 1524.47 738.259 1520.93 Q736.453 1517.37 732.819 1517.37 M732.819 1513.66 Q738.629 1513.66 741.685 1518.27 Q744.763 1522.85 744.763 1531.6 Q744.763 1540.33 741.685 1544.94 Q738.629 1549.52 732.819 1549.52 Q727.009 1549.52 723.93 1544.94 Q720.875 1540.33 720.875 1531.6 Q720.875 1522.85 723.93 1518.27 Q727.009 1513.66 732.819 1513.66 Z" fill="#000000" fill-rule="nonzero" fill-opacity="1"></path><path clip-path="url(#clip120)" d="M1201.67 1544.91 L1209.31 1544.91 L1209.31 1518.55 L1201 1520.21 L1201 1515.95 L1209.26 1514.29 L1213.94 1514.29 L1213.94 1544.91 L1221.58 1544.91 L1221.58 1548.85 L1201.67 1548.85 L1201.67 1544.91 Z" fill="#000000" fill-rule="nonzero" fill-opacity="1"></path><path clip-path="url(#clip120)" d="M1241.02 1517.37 Q1237.41 1517.37 1235.58 1520.93 Q1233.78 1524.47 1233.78 1531.6 Q1233.78 1538.71 1235.58 1542.27 Q1237.41 1545.82 1241.02 1545.82 Q1244.66 1545.82 1246.46 1542.27 Q1248.29 1538.71 1248.29 1531.6 Q1248.29 1524.47 1246.46 1520.93 Q1244.66 1517.37 1241.02 1517.37 M1241.02 1513.66 Q1246.83 1513.66 1249.89 1518.27 Q1252.97 1522.85 1252.97 1531.6 Q1252.97 1540.33 1249.89 1544.94 Q1246.83 1549.52 1241.02 1549.52 Q1235.21 1549.52 1232.13 1544.94 Q1229.08 1540.33 1229.08 1531.6 Q1229.08 1522.85 1232.13 1518.27 Q1235.21 1513.66 1241.02 1513.66 Z" fill="#000000" fill-rule="nonzero" fill-opacity="1"></path><path clip-path="url(#clip120)" d="M1271.18 1517.37 Q1267.57 1517.37 1265.74 1520.93 Q1263.94 1524.47 1263.94 1531.6 Q1263.94 1538.71 1265.74 1542.27 Q1267.57 1545.82 1271.18 1545.82 Q1274.82 1545.82 1276.62 1542.27 Q1278.45 1538.71 1278.45 1531.6 Q1278.45 1524.47 1276.62 1520.93 Q1274.82 1517.37 1271.18 1517.37 M1271.18 1513.66 Q1276.99 1513.66 1280.05 1518.27 Q1283.13 1522.85 1283.13 1531.6 Q1283.13 1540.33 1280.05 1544.94 Q1276.99 1549.52 1271.18 1549.52 Q1265.37 1549.52 1262.3 1544.94 Q1259.24 1540.33 1259.24 1531.6 Q1259.24 1522.85 1262.3 1518.27 Q1265.37 1513.66 1271.18 1513.66 Z" fill="#000000" fill-rule="nonzero" fill-opacity="1"></path><path clip-path="url(#clip120)" d="M1725.73 1544.91 L1733.37 1544.91 L1733.37 1518.55 L1725.06 1520.21 L1725.06 1515.95 L1733.32 1514.29 L1738 1514.29 L1738 1544.91 L1745.64 1544.91 L1745.64 1548.85 L1725.73 1548.85 L1725.73 1544.91 Z" fill="#000000" fill-rule="nonzero" fill-opacity="1"></path><path clip-path="url(#clip120)" d="M1755.13 1514.29 L1773.48 1514.29 L1773.48 1518.22 L1759.41 1518.22 L1759.41 1526.7 Q1760.43 1526.35 1761.45 1526.19 Q1762.47 1526 1763.48 1526 Q1769.27 1526 1772.65 1529.17 Q1776.03 1532.34 1776.03 1537.76 Q1776.03 1543.34 1772.56 1546.44 Q1769.09 1549.52 1762.77 1549.52 Q1760.59 1549.52 1758.32 1549.15 Q1756.08 1548.78 1753.67 1548.04 L1753.67 1543.34 Q1755.75 1544.47 1757.98 1545.03 Q1760.2 1545.58 1762.67 1545.58 Q1766.68 1545.58 1769.02 1543.48 Q1771.35 1541.37 1771.35 1537.76 Q1771.35 1534.15 1769.02 1532.04 Q1766.68 1529.94 1762.67 1529.94 Q1760.8 1529.94 1758.92 1530.35 Q1757.07 1530.77 1755.13 1531.65 L1755.13 1514.29 Z" fill="#000000" fill-rule="nonzero" fill-opacity="1"></path><path clip-path="url(#clip120)" d="M1795.24 1517.37 Q1791.63 1517.37 1789.8 1520.93 Q1788 1524.47 1788 1531.6 Q1788 1538.71 1789.8 1542.27 Q1791.63 1545.82 1795.24 1545.82 Q1798.88 1545.82 1800.68 1542.27 Q1802.51 1538.71 1802.51 1531.6 Q1802.51 1524.47 1800.68 1520.93 Q1798.88 1517.37 1795.24 1517.37 M1795.24 1513.66 Q1801.05 1513.66 1804.11 1518.27 Q1807.19 1522.85 1807.19 1531.6 Q1807.19 1540.33 1804.11 1544.94 Q1801.05 1549.52 1795.24 1549.52 Q1789.43 1549.52 1786.35 1544.94 Q1783.3 1540.33 1783.3 1531.6 Q1783.3 1522.85 1786.35 1518.27 Q1789.43 1513.66 1795.24 1513.66 Z" fill="#000000" fill-rule="nonzero" fill-opacity="1"></path><path clip-path="url(#clip120)" d="M2253.88 1544.91 L2270.19 1544.91 L2270.19 1548.85 L2248.25 1548.85 L2248.25 1544.91 Q2250.91 1542.16 2255.5 1537.53 Q2260.1 1532.88 2261.28 1531.53 Q2263.53 1529.01 2264.41 1527.27 Q2265.31 1525.51 2265.31 1523.82 Q2265.31 1521.07 2263.37 1519.33 Q2261.44 1517.6 2258.34 1517.6 Q2256.14 1517.6 2253.69 1518.36 Q2251.26 1519.13 2248.48 1520.68 L2248.48 1515.95 Q2251.31 1514.82 2253.76 1514.24 Q2256.21 1513.66 2258.25 1513.66 Q2263.62 1513.66 2266.82 1516.35 Q2270.01 1519.03 2270.01 1523.52 Q2270.01 1525.65 2269.2 1527.57 Q2268.41 1529.47 2266.31 1532.07 Q2265.73 1532.74 2262.63 1535.95 Q2259.52 1539.15 2253.88 1544.91 Z" fill="#000000" fill-rule="nonzero" fill-opacity="1"></path><path clip-path="url(#clip120)" d="M2290.01 1517.37 Q2286.4 1517.37 2284.57 1520.93 Q2282.76 1524.47 2282.76 1531.6 Q2282.76 1538.71 2284.57 1542.27 Q2286.4 1545.82 2290.01 1545.82 Q2293.64 1545.82 2295.45 1542.27 Q2297.28 1538.71 2297.28 1531.6 Q2297.28 1524.47 2295.45 1520.93 Q2293.64 1517.37 2290.01 1517.37 M2290.01 1513.66 Q2295.82 1513.66 2298.88 1518.27 Q2301.95 1522.85 2301.95 1531.6 Q2301.95 1540.33 2298.88 1544.94 Q2295.82 1549.52 2290.01 1549.52 Q2284.2 1549.52 2281.12 1544.94 Q2278.07 1540.33 2278.07 1531.6 Q2278.07 1522.85 2281.12 1518.27 Q2284.2 1513.66 2290.01 1513.66 Z" fill="#000000" fill-rule="nonzero" fill-opacity="1"></path><path clip-path="url(#clip120)" d="M2320.17 1517.37 Q2316.56 1517.37 2314.73 1520.93 Q2312.93 1524.47 2312.93 1531.6 Q2312.93 1538.71 2314.73 1542.27 Q2316.56 1545.82 2320.17 1545.82 Q2323.81 1545.82 2325.61 1542.27 Q2327.44 1538.71 2327.44 1531.6 Q2327.44 1524.47 2325.61 1520.93 Q2323.81 1517.37 2320.17 1517.37 M2320.17 1513.66 Q2325.98 1513.66 2329.04 1518.27 Q2332.12 1522.85 2332.12 1531.6 Q2332.12 1540.33 2329.04 1544.94 Q2325.98 1549.52 2320.17 1549.52 Q2314.36 1549.52 2311.28 1544.94 Q2308.23 1540.33 2308.23 1531.6 Q2308.23 1522.85 2311.28 1518.27 Q2314.36 1513.66 2320.17 1513.66 Z" fill="#000000" fill-rule="nonzero" fill-opacity="1"></path><polyline clip-path="url(#clip122)" style="stroke:#000000; stroke-linecap:round; stroke-linejoin:round; stroke-width:2; stroke-opacity:0.1; fill:none" points="141.853,1427.85 2352.76,1427.85 "></polyline>
<polyline clip-path="url(#clip122)" style="stroke:#000000; stroke-linecap:round; stroke-linejoin:round; stroke-width:2; stroke-opacity:0.1; fill:none" points="141.853,1070.54 2352.76,1070.54 "></polyline>
<polyline clip-path="url(#clip122)" style="stroke:#000000; stroke-linecap:round; stroke-linejoin:round; stroke-width:2; stroke-opacity:0.1; fill:none" points="141.853,713.229 2352.76,713.229 "></polyline>
<polyline clip-path="url(#clip122)" style="stroke:#000000; stroke-linecap:round; stroke-linejoin:round; stroke-width:2; stroke-opacity:0.1; fill:none" points="141.853,355.917 2352.76,355.917 "></polyline>
<polyline clip-path="url(#clip120)" style="stroke:#000000; stroke-linecap:round; stroke-linejoin:round; stroke-width:4; stroke-opacity:1; fill:none" points="141.853,1486.45 141.853,47.2441 "></polyline>
<polyline clip-path="url(#clip120)" style="stroke:#000000; stroke-linecap:round; stroke-linejoin:round; stroke-width:4; stroke-opacity:1; fill:none" points="141.853,1427.85 160.751,1427.85 "></polyline>
<polyline clip-path="url(#clip120)" style="stroke:#000000; stroke-linecap:round; stroke-linejoin:round; stroke-width:4; stroke-opacity:1; fill:none" points="141.853,1070.54 160.751,1070.54 "></polyline>
<polyline clip-path="url(#clip120)" style="stroke:#000000; stroke-linecap:round; stroke-linejoin:round; stroke-width:4; stroke-opacity:1; fill:none" points="141.853,713.229 160.751,713.229 "></polyline>
<polyline clip-path="url(#clip120)" style="stroke:#000000; stroke-linecap:round; stroke-linejoin:round; stroke-width:4; stroke-opacity:1; fill:none" points="141.853,355.917 160.751,355.917 "></polyline>
<path clip-path="url(#clip120)" d="M93.9086 1413.65 Q90.2975 1413.65 88.4688 1417.22 Q86.6632 1420.76 86.6632 1427.89 Q86.6632 1435 88.4688 1438.56 Q90.2975 1442.1 93.9086 1442.1 Q97.5428 1442.1 99.3483 1438.56 Q101.177 1435 101.177 1427.89 Q101.177 1420.76 99.3483 1417.22 Q97.5428 1413.65 93.9086 1413.65 M93.9086 1409.95 Q99.7187 1409.95 102.774 1414.56 Q105.853 1419.14 105.853 1427.89 Q105.853 1436.62 102.774 1441.22 Q99.7187 1445.81 93.9086 1445.81 Q88.0984 1445.81 85.0197 1441.22 Q81.9642 1436.62 81.9642 1427.89 Q81.9642 1419.14 85.0197 1414.56 Q88.0984 1409.95 93.9086 1409.95 Z" fill="#000000" fill-rule="nonzero" fill-opacity="1"></path><path clip-path="url(#clip120)" d="M57.7745 1083.89 L74.0939 1083.89 L74.0939 1087.82 L52.1495 1087.82 L52.1495 1083.89 Q54.8115 1081.13 59.3949 1076.5 Q64.0013 1071.85 65.1819 1070.51 Q67.4272 1067.98 68.3068 1066.25 Q69.2096 1064.49 69.2096 1062.8 Q69.2096 1060.04 67.2652 1058.31 Q65.3439 1056.57 62.2421 1056.57 Q60.043 1056.57 57.5893 1057.34 Q55.1588 1058.1 52.381 1059.65 L52.381 1054.93 Q55.2051 1053.79 57.6588 1053.22 Q60.1124 1052.64 62.1495 1052.64 Q67.5198 1052.64 70.7142 1055.32 Q73.9087 1058.01 73.9087 1062.5 Q73.9087 1064.63 73.0985 1066.55 Q72.3115 1068.45 70.205 1071.04 Q69.6263 1071.71 66.5245 1074.93 Q63.4226 1078.12 57.7745 1083.89 Z" fill="#000000" fill-rule="nonzero" fill-opacity="1"></path><path clip-path="url(#clip120)" d="M93.9086 1056.34 Q90.2975 1056.34 88.4688 1059.91 Q86.6632 1063.45 86.6632 1070.58 Q86.6632 1077.68 88.4688 1081.25 Q90.2975 1084.79 93.9086 1084.79 Q97.5428 1084.79 99.3483 1081.25 Q101.177 1077.68 101.177 1070.58 Q101.177 1063.45 99.3483 1059.91 Q97.5428 1056.34 93.9086 1056.34 M93.9086 1052.64 Q99.7187 1052.64 102.774 1057.24 Q105.853 1061.83 105.853 1070.58 Q105.853 1079.3 102.774 1083.91 Q99.7187 1088.49 93.9086 1088.49 Q88.0984 1088.49 85.0197 1083.91 Q81.9642 1079.3 81.9642 1070.58 Q81.9642 1061.83 85.0197 1057.24 Q88.0984 1052.64 93.9086 1052.64 Z" fill="#000000" fill-rule="nonzero" fill-opacity="1"></path><path clip-path="url(#clip120)" d="M66.5939 700.023 L54.7884 718.472 L66.5939 718.472 L66.5939 700.023 M65.367 695.949 L71.2466 695.949 L71.2466 718.472 L76.1772 718.472 L76.1772 722.361 L71.2466 722.361 L71.2466 730.509 L66.5939 730.509 L66.5939 722.361 L50.9921 722.361 L50.9921 717.847 L65.367 695.949 Z" fill="#000000" fill-rule="nonzero" fill-opacity="1"></path><path clip-path="url(#clip120)" d="M93.9086 699.028 Q90.2975 699.028 88.4688 702.593 Q86.6632 706.134 86.6632 713.264 Q86.6632 720.37 88.4688 723.935 Q90.2975 727.477 93.9086 727.477 Q97.5428 727.477 99.3483 723.935 Q101.177 720.37 101.177 713.264 Q101.177 706.134 99.3483 702.593 Q97.5428 699.028 93.9086 699.028 M93.9086 695.324 Q99.7187 695.324 102.774 699.931 Q105.853 704.514 105.853 713.264 Q105.853 721.991 102.774 726.597 Q99.7187 731.181 93.9086 731.181 Q88.0984 731.181 85.0197 726.597 Q81.9642 721.991 81.9642 713.264 Q81.9642 704.514 85.0197 699.931 Q88.0984 695.324 93.9086 695.324 Z" fill="#000000" fill-rule="nonzero" fill-opacity="1"></path><path clip-path="url(#clip120)" d="M64.3254 354.053 Q61.1773 354.053 59.3254 356.206 Q57.4967 358.359 57.4967 362.109 Q57.4967 365.836 59.3254 368.012 Q61.1773 370.164 64.3254 370.164 Q67.4735 370.164 69.3022 368.012 Q71.1541 365.836 71.1541 362.109 Q71.1541 358.359 69.3022 356.206 Q67.4735 354.053 64.3254 354.053 M73.6077 339.401 L73.6077 343.66 Q71.8485 342.826 70.0429 342.387 Q68.2606 341.947 66.5013 341.947 Q61.8717 341.947 59.418 345.072 Q56.9875 348.197 56.6402 354.516 Q58.006 352.502 60.0662 351.438 Q62.1263 350.35 64.6032 350.35 Q69.8115 350.35 72.8207 353.521 Q75.8531 356.669 75.8531 362.109 Q75.8531 367.433 72.705 370.65 Q69.5568 373.868 64.3254 373.868 Q58.33 373.868 55.1588 369.285 Q51.9875 364.678 51.9875 355.951 Q51.9875 347.757 55.8764 342.896 Q59.7652 338.012 66.3161 338.012 Q68.0754 338.012 69.8578 338.359 Q71.6633 338.706 73.6077 339.401 Z" fill="#000000" fill-rule="nonzero" fill-opacity="1"></path><path clip-path="url(#clip120)" d="M93.9086 341.715 Q90.2975 341.715 88.4688 345.28 Q86.6632 348.822 86.6632 355.951 Q86.6632 363.058 88.4688 366.623 Q90.2975 370.164 93.9086 370.164 Q97.5428 370.164 99.3483 366.623 Q101.177 363.058 101.177 355.951 Q101.177 348.822 99.3483 345.28 Q97.5428 341.715 93.9086 341.715 M93.9086 338.012 Q99.7187 338.012 102.774 342.618 Q105.853 347.201 105.853 355.951 Q105.853 364.678 102.774 369.285 Q99.7187 373.868 93.9086 373.868 Q88.0984 373.868 85.0197 369.285 Q81.9642 364.678 81.9642 355.951 Q81.9642 347.201 85.0197 342.618 Q88.0984 338.012 93.9086 338.012 Z" fill="#000000" fill-rule="nonzero" fill-opacity="1"></path><polyline clip-path="url(#clip122)" style="stroke:#009af9; stroke-linecap:round; stroke-linejoin:round; stroke-width:4; stroke-opacity:1; fill:none" points="204.426,1435.77 214.907,1435.74 225.388,1435.73 235.869,1435.73 246.35,1435.73 256.832,1435.69 267.313,1435.67 277.794,1435.67 288.275,1435.68 298.756,1435.7 309.238,1435.68 319.719,1435.68 330.2,1435.68 340.681,1435.68 351.162,1435.68 361.644,1435.58 372.125,1435.58 382.606,1435.55 393.087,1435.51 403.568,1435.51 414.05,1435.52 424.531,1435.5 435.012,1435.46 445.493,1435.46 455.974,1435.46 466.456,1435.45 476.937,1435.47 487.418,1435.49 497.899,1435.49 508.38,1435.49 518.861,1435.49 529.343,1435.49 539.824,1435.49 550.305,1435.49 560.786,1435.49 571.267,1435.49 581.749,1435.49 592.23,1435.49 602.711,1435.49 613.192,1435.49 623.673,1435.49 634.155,1435.49 644.636,1435.49 655.117,1435.49 665.598,1435.49 676.079,1435.49 686.561,1435.49 697.042,1435.49 707.523,1435.49 718.004,1435.49 728.485,1435.49 738.967,1435.49 749.448,1435.49 759.929,1435.49 770.41,1435.49 780.891,1435.49 791.373,1435.49 801.854,1435.49 812.335,1435.49 822.816,1435.49 833.297,1435.49 843.778,1435.49 854.26,1435.49 864.741,1435.49 875.222,1435.49 885.703,1435.49 896.184,1435.49 906.666,1435.49 917.147,1435.49 927.628,1435.49 938.109,1435.49 948.59,1435.49 959.072,1435.49 969.553,1435.49 980.034,1435.49 990.515,1435.49 1001,1435.49 1011.48,1435.49 1021.96,1435.49 1032.44,1435.49 1042.92,1435.49 1053.4,1435.49 1063.88,1435.49 1074.36,1435.49 1084.85,1435.49 1095.33,1435.49 1105.81,1435.49 1116.29,1435.49 1126.77,1435.49 1137.25,1435.49 1147.73,1435.49 1158.21,1435.49 1168.7,1435.49 1179.18,1435.49 1189.66,1435.49 1200.14,1435.49 1210.62,1435.49 1221.1,1435.49 1231.58,1435.49 1242.06,1435.49 1252.55,1435.49 1263.03,1435.49 1273.51,1435.49 1283.99,1435.49 1294.47,1435.49 1304.95,1435.49 1315.43,1435.49 1325.91,1435.49 1336.39,1435.49 1346.88,1435.49 1357.36,1435.49 1367.84,1435.49 1378.32,1435.49 1388.8,1435.49 1399.28,1435.49 1409.76,1435.49 1420.24,1435.49 1430.73,1435.49 1441.21,1435.49 1451.69,1435.49 1462.17,1435.49 1472.65,1435.49 1483.13,1435.49 1493.61,1435.49 1504.09,1435.49 1514.57,1435.49 1525.06,1435.49 1535.54,1435.49 1546.02,1435.49 1556.5,1435.49 1566.98,1435.49 1577.46,1435.49 1587.94,1435.49 1598.42,1435.5 1608.91,1435.49 1619.39,1435.5 1629.87,1435.5 1640.35,1435.5 1650.83,1435.5 1661.31,1435.5 1671.79,1435.5 1682.27,1435.5 1692.76,1435.5 1703.24,1435.5 1713.72,1435.5 1724.2,1435.5 1734.68,1435.5 1745.16,1435.5 1755.64,1435.5 1766.12,1435.5 1776.6,1435.5 1787.09,1435.5 1797.57,1435.5 1808.05,1435.5 1818.53,1435.5 1829.01,1435.5 1839.49,1435.5 1849.97,1435.5 1860.45,1435.5 1870.94,1435.5 1881.42,1435.5 1891.9,1435.5 1902.38,1435.5 1912.86,1435.5 1923.34,1435.5 1933.82,1435.5 1944.3,1435.5 1954.78,1435.5 1965.27,1435.5 1975.75,1435.5 1986.23,1435.5 1996.71,1435.5 2007.19,1435.5 2017.67,1435.5 2028.15,1435.5 2038.63,1435.5 2049.12,1435.5 2059.6,1435.5 2070.08,1435.5 2080.56,1435.5 2091.04,1435.5 2101.52,1435.5 2112,1435.5 2122.48,1435.5 2132.97,1435.5 2143.45,1435.5 2153.93,1435.5 2164.41,1435.5 2174.89,1435.5 2185.37,1435.5 2195.85,1435.5 2206.33,1435.5 2216.81,1435.5 2227.3,1435.5 2237.78,1435.5 2248.26,1435.5 2258.74,1435.5 2269.22,1435.5 2279.7,1435.5 2290.18,1435.5 "></polyline>
<polyline clip-path="url(#clip122)" style="stroke:#e26f46; stroke-linecap:round; stroke-linejoin:round; stroke-width:4; stroke-opacity:1; fill:none" points="204.426,970.768 214.907,1395.14 225.388,87.9763 235.869,104.195 246.35,119.322 256.832,1133.03 267.313,1330.36 277.794,1333.84 288.275,1316.23 298.756,1352.38 309.238,1407.58 319.719,1431.78 330.2,1431.78 340.681,1435.58 351.162,1439.25 361.644,393.73 372.125,397.245 382.606,977.765 393.087,689.83 403.568,697.006 414.05,727.005 424.531,1089.07 435.012,1070.22 445.493,1073.47 455.974,1086.08 466.456,1163.35 476.937,1314.12 487.418,1410.12 497.899,1370.55 508.38,1424.21 518.861,1434.57 529.343,1435.35 539.824,1435.35 550.305,1437.57 560.786,1438.99 571.267,1439.12 581.749,1439.12 592.23,1440.1 602.711,1440.84 613.192,1440.94 623.673,1440.94 634.155,1441.52 644.636,1442 655.117,1442.08 665.598,1442.08 676.079,1442.46 686.561,1442.79 697.042,1442.86 707.523,1442.86 718.004,1443.13 728.485,1443.37 738.967,1443.43 749.448,1443.43 759.929,1443.63 770.41,1443.81 780.891,1443.86 791.373,1443.86 801.854,1444.01 812.335,1444.15 822.816,1444.19 833.297,1444.19 843.778,1444.31 854.26,1444.42 864.741,1444.45 875.222,1444.45 885.703,1444.55 896.184,1444.63 906.666,1444.66 917.147,1444.66 927.628,1444.74 938.109,1444.81 948.59,1444.83 959.072,1444.83 969.553,1444.89 980.034,1444.95 990.515,1444.97 1001,1444.97 1011.48,1445.02 1021.96,1445.07 1032.44,1445.09 1042.92,1445.09 1053.4,1445.13 1063.88,1445.16 1074.36,1445.18 1084.85,1445.18 1095.33,1445.21 1105.81,1445.24 1116.29,1445.26 1126.77,1445.26 1137.25,1445.29 1147.73,1445.31 1158.21,1445.32 1168.7,1445.32 1179.18,1445.35 1189.66,1445.37 1200.14,1445.38 1210.62,1445.38 1221.1,1445.4 1231.58,1445.42 1242.06,1445.42 1252.55,1445.42 1263.03,1445.44 1273.51,1445.46 1283.99,1445.46 1294.47,1445.46 1304.95,1445.48 1315.43,1445.49 1325.91,1445.5 1336.39,1445.5 1346.88,1445.51 1357.36,1445.52 1367.84,1445.52 1378.32,1445.52 1388.8,1445.53 1399.28,1445.54 1409.76,1445.55 1420.24,1445.55 1430.73,1445.56 1441.21,1445.56 1451.69,1445.58 1462.17,1445.58 1472.65,1445.59 1483.13,1445.59 1493.61,1445.61 1504.09,1445.61 1514.57,1445.61 1525.06,1445.62 1535.54,1445.63 1546.02,1445.63 1556.5,1445.64 1566.98,1445.65 1577.46,1445.66 1587.94,1445.66 1598.42,1445.66 1608.91,1445.66 1619.39,1445.67 1629.87,1445.67 1640.35,1445.67 1650.83,1445.68 1661.31,1445.68 1671.79,1445.68 1682.27,1445.69 1692.76,1445.69 1703.24,1445.69 1713.72,1445.69 1724.2,1445.69 1734.68,1445.69 1745.16,1445.69 1755.64,1445.69 1766.12,1445.7 1776.6,1445.69 1787.09,1445.7 1797.57,1445.7 1808.05,1445.69 1818.53,1445.7 1829.01,1445.7 1839.49,1445.7 1849.97,1445.7 1860.45,1445.7 1870.94,1445.7 1881.42,1445.7 1891.9,1445.7 1902.38,1445.7 1912.86,1445.71 1923.34,1445.71 1933.82,1445.71 1944.3,1445.7 1954.78,1445.71 1965.27,1445.71 1975.75,1445.7 1986.23,1445.71 1996.71,1445.71 2007.19,1445.71 2017.67,1445.71 2028.15,1445.71 2038.63,1445.71 2049.12,1445.71 2059.6,1445.71 2070.08,1445.71 2080.56,1445.71 2091.04,1445.71 2101.52,1445.71 2112,1445.71 2122.48,1445.71 2132.97,1445.71 2143.45,1445.71 2153.93,1445.71 2164.41,1445.71 2174.89,1445.71 2185.37,1445.71 2195.85,1445.71 2206.33,1445.7 2216.81,1445.7 2227.3,1445.71 2237.78,1445.71 2248.26,1445.71 2258.74,1445.71 2269.22,1445.71 2279.7,1445.72 2290.18,1445.72 "></polyline>
<polyline clip-path="url(#clip122)" style="stroke:#3da44d; stroke-linecap:round; stroke-linejoin:round; stroke-width:4; stroke-opacity:1; fill:none" points="204.426,1365.29 214.907,1360.93 225.388,1359 235.869,1358.93 246.35,1359.98 256.832,1353.08 267.313,1350.22 277.794,1350.25 288.275,1351.49 298.756,1359.24 309.238,1353.82 319.719,1354.93 330.2,1354.93 340.681,1353.31 351.162,1355.67 361.644,1336.91 372.125,1339.05 382.606,1333.64 393.087,1328.31 403.568,1328.27 414.05,1331.02 424.531,1326.55 435.012,1320.16 445.493,1320.14 455.974,1322.92 466.456,1321.88 476.937,1325.22 487.418,1331.3 497.899,1329.9 508.38,1331.54 518.861,1333.16 529.343,1333.11 539.824,1333.11 550.305,1333.01 560.786,1333.04 571.267,1333.04 581.749,1333.04 592.23,1333 602.711,1333 613.192,1333 623.673,1333 634.155,1332.99 644.636,1332.99 655.117,1333 665.598,1333 676.079,1333 686.561,1333 697.042,1333.01 707.523,1333.01 718.004,1333.01 728.485,1333.02 738.967,1333.02 749.448,1333.02 759.929,1333.03 770.41,1333.04 780.891,1333.05 791.373,1333.05 801.854,1333.06 812.335,1333.07 822.816,1333.08 833.297,1333.08 843.778,1333.09 854.26,1333.1 864.741,1333.11 875.222,1333.11 885.703,1333.12 896.184,1333.13 906.666,1333.14 917.147,1333.14 927.628,1333.15 938.109,1333.17 948.59,1333.18 959.072,1333.18 969.553,1333.19 980.034,1333.2 990.515,1333.21 1001,1333.21 1011.48,1333.23 1021.96,1333.24 1032.44,1333.25 1042.92,1333.25 1053.4,1333.26 1063.88,1333.28 1074.36,1333.29 1084.85,1333.29 1095.33,1333.3 1105.81,1333.31 1116.29,1333.33 1126.77,1333.33 1137.25,1333.34 1147.73,1333.35 1158.21,1333.36 1168.7,1333.36 1179.18,1333.38 1189.66,1333.39 1200.14,1333.4 1210.62,1333.4 1221.1,1333.41 1231.58,1333.43 1242.06,1333.44 1252.55,1333.44 1263.03,1333.45 1273.51,1333.47 1283.99,1333.48 1294.47,1333.48 1304.95,1333.49 1315.43,1333.5 1325.91,1333.51 1336.39,1333.51 1346.88,1333.53 1357.36,1333.54 1367.84,1333.55 1378.32,1333.55 1388.8,1333.56 1399.28,1333.58 1409.76,1333.59 1420.24,1333.59 1430.73,1333.6 1441.21,1333.61 1451.69,1333.65 1462.17,1333.65 1472.65,1333.66 1483.13,1333.67 1493.61,1333.71 1504.09,1333.71 1514.57,1333.72 1525.06,1333.74 1535.54,1333.77 1546.02,1333.77 1556.5,1333.81 1566.98,1333.86 1577.46,1333.88 1587.94,1333.88 1598.42,1333.94 1608.91,1333.93 1619.39,1333.97 1629.87,1333.97 1640.35,1334.01 1650.83,1334.05 1661.31,1334.08 1671.79,1334.08 1682.27,1334.12 1692.76,1334.14 1703.24,1334.21 1713.72,1334.21 1724.2,1334.2 1734.68,1334.23 1745.16,1334.27 1755.64,1334.27 1766.12,1334.28 1776.6,1334.37 1787.09,1334.32 1797.57,1334.32 1808.05,1334.41 1818.53,1334.39 1829.01,1334.41 1839.49,1334.41 1849.97,1334.46 1860.45,1334.46 1870.94,1334.5 1881.42,1334.5 1891.9,1334.51 1902.38,1334.59 1912.86,1334.56 1923.34,1334.56 1933.82,1334.61 1944.3,1334.6 1954.78,1334.66 1965.27,1334.66 1975.75,1334.63 1986.23,1334.68 1996.71,1334.72 2007.19,1334.72 2017.67,1334.73 2028.15,1334.8 2038.63,1334.78 2049.12,1334.78 2059.6,1334.83 2070.08,1334.82 2080.56,1334.87 2091.04,1334.87 2101.52,1334.86 2112,1334.9 2122.48,1334.94 2132.97,1334.94 2143.45,1334.95 2153.93,1335.02 2164.41,1335 2174.89,1335 2185.37,1335.04 2195.85,1335.05 2206.33,1335.16 2216.81,1335.16 2227.3,1335.11 2237.78,1335.13 2248.26,1335.18 2258.74,1335.18 2269.22,1335.16 2279.7,1335.2 2290.18,1335.24 "></polyline>
<path clip-path="url(#clip120)" d="M1394.08 302.578 L2279.06 302.578 L2279.06 95.2176 L1394.08 95.2176  Z" fill="#ffffff" fill-rule="evenodd" fill-opacity="1"></path>
<polyline clip-path="url(#clip120)" style="stroke:#000000; stroke-linecap:round; stroke-linejoin:round; stroke-width:4; stroke-opacity:1; fill:none" points="1394.08,302.578 2279.06,302.578 2279.06,95.2176 1394.08,95.2176 1394.08,302.578 "></polyline>
<polyline clip-path="url(#clip120)" style="stroke:#009af9; stroke-linecap:round; stroke-linejoin:round; stroke-width:4; stroke-opacity:1; fill:none" points="1418.65,147.058 1566.04,147.058 "></polyline>
<path clip-path="url(#clip120)" d="M1603.8 164.338 L1590.61 129.778 L1595.49 129.778 L1606.44 158.875 L1617.41 129.778 L1622.27 129.778 L1609.1 164.338 L1603.8 164.338 Z" fill="#000000" fill-rule="nonzero" fill-opacity="1"></path><path clip-path="url(#clip120)" d="M1633.5 141.398 Q1630.08 141.398 1628.08 144.083 Q1626.09 146.745 1626.09 151.398 Q1626.09 156.051 1628.06 158.736 Q1630.05 161.398 1633.5 161.398 Q1636.9 161.398 1638.89 158.713 Q1640.89 156.027 1640.89 151.398 Q1640.89 146.791 1638.89 144.106 Q1636.9 141.398 1633.5 141.398 M1633.5 137.787 Q1639.06 137.787 1642.23 141.398 Q1645.4 145.009 1645.4 151.398 Q1645.4 157.764 1642.23 161.398 Q1639.06 165.009 1633.5 165.009 Q1627.92 165.009 1624.75 161.398 Q1621.6 157.764 1621.6 151.398 Q1621.6 145.009 1624.75 141.398 Q1627.92 137.787 1633.5 137.787 Z" fill="#000000" fill-rule="nonzero" fill-opacity="1"></path><path clip-path="url(#clip120)" d="M1652.46 128.319 L1656.72 128.319 L1656.72 164.338 L1652.46 164.338 L1652.46 128.319 Z" fill="#000000" fill-rule="nonzero" fill-opacity="1"></path><path clip-path="url(#clip120)" d="M1665.19 154.106 L1665.19 138.412 L1669.45 138.412 L1669.45 153.944 Q1669.45 157.625 1670.89 159.476 Q1672.32 161.305 1675.19 161.305 Q1678.64 161.305 1680.63 159.106 Q1682.64 156.907 1682.64 153.111 L1682.64 138.412 L1686.9 138.412 L1686.9 164.338 L1682.64 164.338 L1682.64 160.356 Q1681.09 162.717 1679.03 163.875 Q1677 165.009 1674.29 165.009 Q1669.82 165.009 1667.51 162.231 Q1665.19 159.453 1665.19 154.106 M1675.91 137.787 L1675.91 137.787 Z" fill="#000000" fill-rule="nonzero" fill-opacity="1"></path><path clip-path="url(#clip120)" d="M1715.86 143.389 Q1717.46 140.518 1719.68 139.153 Q1721.9 137.787 1724.91 137.787 Q1728.96 137.787 1731.16 140.634 Q1733.36 143.458 1733.36 148.689 L1733.36 164.338 L1729.08 164.338 L1729.08 148.828 Q1729.08 145.102 1727.76 143.296 Q1726.44 141.49 1723.73 141.49 Q1720.42 141.49 1718.5 143.69 Q1716.58 145.889 1716.58 149.685 L1716.58 164.338 L1712.3 164.338 L1712.3 148.828 Q1712.3 145.078 1710.98 143.296 Q1709.66 141.49 1706.9 141.49 Q1703.64 141.49 1701.72 143.713 Q1699.8 145.912 1699.8 149.685 L1699.8 164.338 L1695.52 164.338 L1695.52 138.412 L1699.8 138.412 L1699.8 142.44 Q1701.26 140.055 1703.29 138.921 Q1705.33 137.787 1708.13 137.787 Q1710.95 137.787 1712.92 139.222 Q1714.91 140.657 1715.86 143.389 Z" fill="#000000" fill-rule="nonzero" fill-opacity="1"></path><path clip-path="url(#clip120)" d="M1764.03 150.31 L1764.03 152.393 L1744.45 152.393 Q1744.73 156.791 1747.09 159.106 Q1749.47 161.398 1753.71 161.398 Q1756.16 161.398 1758.45 160.796 Q1760.77 160.194 1763.04 158.99 L1763.04 163.018 Q1760.75 163.99 1758.34 164.5 Q1755.93 165.009 1753.45 165.009 Q1747.25 165.009 1743.62 161.398 Q1740.01 157.787 1740.01 151.629 Q1740.01 145.264 1743.43 141.537 Q1746.88 137.787 1752.71 137.787 Q1757.95 137.787 1760.98 141.166 Q1764.03 144.523 1764.03 150.31 M1759.77 149.06 Q1759.73 145.565 1757.81 143.481 Q1755.91 141.398 1752.76 141.398 Q1749.2 141.398 1747.04 143.412 Q1744.91 145.426 1744.59 149.083 L1759.77 149.06 Z" fill="#000000" fill-rule="nonzero" fill-opacity="1"></path><path clip-path="url(#clip120)" d="M1812.16 132.44 L1812.16 137.37 Q1809.8 135.171 1807.11 134.083 Q1804.45 132.995 1801.44 132.995 Q1795.51 132.995 1792.37 136.629 Q1789.22 140.24 1789.22 147.092 Q1789.22 153.921 1792.37 157.555 Q1795.51 161.166 1801.44 161.166 Q1804.45 161.166 1807.11 160.078 Q1809.8 158.99 1812.16 156.791 L1812.16 161.676 Q1809.7 163.342 1806.95 164.176 Q1804.22 165.009 1801.16 165.009 Q1793.32 165.009 1788.8 160.217 Q1784.29 155.402 1784.29 147.092 Q1784.29 138.759 1788.8 133.967 Q1793.32 129.153 1801.16 129.153 Q1804.26 129.153 1807 129.986 Q1809.75 130.796 1812.16 132.44 Z" fill="#000000" fill-rule="nonzero" fill-opacity="1"></path><path clip-path="url(#clip120)" d="M1829.24 141.398 Q1825.82 141.398 1823.82 144.083 Q1821.83 146.745 1821.83 151.398 Q1821.83 156.051 1823.8 158.736 Q1825.79 161.398 1829.24 161.398 Q1832.64 161.398 1834.63 158.713 Q1836.63 156.027 1836.63 151.398 Q1836.63 146.791 1834.63 144.106 Q1832.64 141.398 1829.24 141.398 M1829.24 137.787 Q1834.8 137.787 1837.97 141.398 Q1841.14 145.009 1841.14 151.398 Q1841.14 157.764 1837.97 161.398 Q1834.8 165.009 1829.24 165.009 Q1823.66 165.009 1820.49 161.398 Q1817.34 157.764 1817.34 151.398 Q1817.34 145.009 1820.49 141.398 Q1823.66 137.787 1829.24 137.787 Z" fill="#000000" fill-rule="nonzero" fill-opacity="1"></path><path clip-path="url(#clip120)" d="M1869.75 148.689 L1869.75 164.338 L1865.49 164.338 L1865.49 148.828 Q1865.49 145.148 1864.06 143.319 Q1862.62 141.49 1859.75 141.49 Q1856.3 141.49 1854.31 143.69 Q1852.32 145.889 1852.32 149.685 L1852.32 164.338 L1848.04 164.338 L1848.04 138.412 L1852.32 138.412 L1852.32 142.44 Q1853.85 140.102 1855.91 138.944 Q1857.99 137.787 1860.7 137.787 Q1865.17 137.787 1867.46 140.565 Q1869.75 143.319 1869.75 148.689 Z" fill="#000000" fill-rule="nonzero" fill-opacity="1"></path><path clip-path="url(#clip120)" d="M1894.77 139.176 L1894.77 143.203 Q1892.97 142.277 1891.02 141.815 Q1889.08 141.352 1887 141.352 Q1883.82 141.352 1882.23 142.324 Q1880.65 143.296 1880.65 145.24 Q1880.65 146.722 1881.79 147.578 Q1882.92 148.412 1886.35 149.176 L1887.81 149.5 Q1892.34 150.472 1894.24 152.254 Q1896.16 154.014 1896.16 157.185 Q1896.16 160.796 1893.29 162.902 Q1890.44 165.009 1885.44 165.009 Q1883.36 165.009 1881.09 164.592 Q1878.85 164.199 1876.35 163.388 L1876.35 158.99 Q1878.71 160.217 1881 160.842 Q1883.29 161.444 1885.54 161.444 Q1888.55 161.444 1890.17 160.426 Q1891.79 159.384 1891.79 157.509 Q1891.79 155.773 1890.61 154.847 Q1889.45 153.921 1885.49 153.064 L1884.01 152.717 Q1880.05 151.884 1878.29 150.171 Q1876.53 148.435 1876.53 145.426 Q1876.53 141.768 1879.13 139.778 Q1881.72 137.787 1886.49 137.787 Q1888.85 137.787 1890.93 138.134 Q1893.01 138.481 1894.77 139.176 Z" fill="#000000" fill-rule="nonzero" fill-opacity="1"></path><path clip-path="url(#clip120)" d="M1907.16 131.051 L1907.16 138.412 L1915.93 138.412 L1915.93 141.722 L1907.16 141.722 L1907.16 155.796 Q1907.16 158.967 1908.01 159.87 Q1908.89 160.773 1911.56 160.773 L1915.93 160.773 L1915.93 164.338 L1911.56 164.338 Q1906.63 164.338 1904.75 162.509 Q1902.88 160.657 1902.88 155.796 L1902.88 141.722 L1899.75 141.722 L1899.75 138.412 L1902.88 138.412 L1902.88 131.051 L1907.16 131.051 Z" fill="#000000" fill-rule="nonzero" fill-opacity="1"></path><path clip-path="url(#clip120)" d="M1936.56 142.393 Q1935.84 141.977 1934.98 141.791 Q1934.15 141.583 1933.13 141.583 Q1929.52 141.583 1927.57 143.944 Q1925.65 146.282 1925.65 150.68 L1925.65 164.338 L1921.37 164.338 L1921.37 138.412 L1925.65 138.412 L1925.65 142.44 Q1927 140.078 1929.15 138.944 Q1931.3 137.787 1934.38 137.787 Q1934.82 137.787 1935.35 137.856 Q1935.88 137.903 1936.53 138.018 L1936.56 142.393 Z" fill="#000000" fill-rule="nonzero" fill-opacity="1"></path><path clip-path="url(#clip120)" d="M1952.81 151.305 Q1947.64 151.305 1945.65 152.486 Q1943.66 153.666 1943.66 156.514 Q1943.66 158.782 1945.14 160.125 Q1946.65 161.444 1949.22 161.444 Q1952.76 161.444 1954.89 158.944 Q1957.04 156.421 1957.04 152.254 L1957.04 151.305 L1952.81 151.305 M1961.3 149.546 L1961.3 164.338 L1957.04 164.338 L1957.04 160.402 Q1955.58 162.763 1953.41 163.898 Q1951.23 165.009 1948.08 165.009 Q1944.1 165.009 1941.74 162.787 Q1939.4 160.541 1939.4 156.791 Q1939.4 152.416 1942.32 150.194 Q1945.26 147.972 1951.07 147.972 L1957.04 147.972 L1957.04 147.555 Q1957.04 144.615 1955.1 143.018 Q1953.18 141.398 1949.68 141.398 Q1947.46 141.398 1945.35 141.93 Q1943.25 142.463 1941.3 143.527 L1941.3 139.592 Q1943.64 138.69 1945.84 138.25 Q1948.04 137.787 1950.12 137.787 Q1955.75 137.787 1958.52 140.703 Q1961.3 143.62 1961.3 149.546 Z" fill="#000000" fill-rule="nonzero" fill-opacity="1"></path><path clip-path="url(#clip120)" d="M1970.07 138.412 L1974.33 138.412 L1974.33 164.338 L1970.07 164.338 L1970.07 138.412 M1970.07 128.319 L1974.33 128.319 L1974.33 133.713 L1970.07 133.713 L1970.07 128.319 Z" fill="#000000" fill-rule="nonzero" fill-opacity="1"></path><path clip-path="url(#clip120)" d="M2004.8 148.689 L2004.8 164.338 L2000.54 164.338 L2000.54 148.828 Q2000.54 145.148 1999.1 143.319 Q1997.67 141.49 1994.8 141.49 Q1991.35 141.49 1989.36 143.69 Q1987.37 145.889 1987.37 149.685 L1987.37 164.338 L1983.08 164.338 L1983.08 138.412 L1987.37 138.412 L1987.37 142.44 Q1988.89 140.102 1990.95 138.944 Q1993.04 137.787 1995.74 137.787 Q2000.21 137.787 2002.5 140.565 Q2004.8 143.319 2004.8 148.689 Z" fill="#000000" fill-rule="nonzero" fill-opacity="1"></path><path clip-path="url(#clip120)" d="M2017.5 131.051 L2017.5 138.412 L2026.28 138.412 L2026.28 141.722 L2017.5 141.722 L2017.5 155.796 Q2017.5 158.967 2018.36 159.87 Q2019.24 160.773 2021.9 160.773 L2026.28 160.773 L2026.28 164.338 L2021.9 164.338 Q2016.97 164.338 2015.1 162.509 Q2013.22 160.657 2013.22 155.796 L2013.22 141.722 L2010.1 141.722 L2010.1 138.412 L2013.22 138.412 L2013.22 131.051 L2017.5 131.051 Z" fill="#000000" fill-rule="nonzero" fill-opacity="1"></path><polyline clip-path="url(#clip120)" style="stroke:#e26f46; stroke-linecap:round; stroke-linejoin:round; stroke-width:4; stroke-opacity:1; fill:none" points="1418.65,198.898 1566.04,198.898 "></polyline>
<path clip-path="url(#clip120)" d="M1590.61 181.618 L1595.31 181.618 L1595.31 202.613 Q1595.31 208.168 1597.32 210.622 Q1599.34 213.053 1603.85 213.053 Q1608.34 213.053 1610.35 210.622 Q1612.37 208.168 1612.37 202.613 L1612.37 181.618 L1617.07 181.618 L1617.07 203.192 Q1617.07 209.951 1613.71 213.4 Q1610.38 216.849 1603.85 216.849 Q1597.3 216.849 1593.94 213.4 Q1590.61 209.951 1590.61 203.192 L1590.61 181.618 Z" fill="#000000" fill-rule="nonzero" fill-opacity="1"></path><path clip-path="url(#clip120)" d="M1647.21 200.529 L1647.21 216.178 L1642.95 216.178 L1642.95 200.668 Q1642.95 196.988 1641.51 195.159 Q1640.08 193.33 1637.21 193.33 Q1633.76 193.33 1631.77 195.53 Q1629.77 197.729 1629.77 201.525 L1629.77 216.178 L1625.49 216.178 L1625.49 190.252 L1629.77 190.252 L1629.77 194.28 Q1631.3 191.942 1633.36 190.784 Q1635.45 189.627 1638.15 189.627 Q1642.62 189.627 1644.91 192.405 Q1647.21 195.159 1647.21 200.529 Z" fill="#000000" fill-rule="nonzero" fill-opacity="1"></path><path clip-path="url(#clip120)" d="M1655.7 190.252 L1659.96 190.252 L1659.96 216.178 L1655.7 216.178 L1655.7 190.252 M1655.7 180.159 L1659.96 180.159 L1659.96 185.553 L1655.7 185.553 L1655.7 180.159 Z" fill="#000000" fill-rule="nonzero" fill-opacity="1"></path><path clip-path="url(#clip120)" d="M1682 180.159 L1682 183.701 L1677.92 183.701 Q1675.63 183.701 1674.73 184.627 Q1673.85 185.553 1673.85 187.96 L1673.85 190.252 L1680.86 190.252 L1680.86 193.562 L1673.85 193.562 L1673.85 216.178 L1669.57 216.178 L1669.57 193.562 L1665.49 193.562 L1665.49 190.252 L1669.57 190.252 L1669.57 188.446 Q1669.57 184.118 1671.58 182.15 Q1673.59 180.159 1677.97 180.159 L1682 180.159 Z" fill="#000000" fill-rule="nonzero" fill-opacity="1"></path><path clip-path="url(#clip120)" d="M1695.61 193.238 Q1692.18 193.238 1690.19 195.923 Q1688.2 198.585 1688.2 203.238 Q1688.2 207.891 1690.17 210.576 Q1692.16 213.238 1695.61 213.238 Q1699.01 213.238 1701 210.553 Q1702.99 207.867 1702.99 203.238 Q1702.99 198.631 1701 195.946 Q1699.01 193.238 1695.61 193.238 M1695.61 189.627 Q1701.16 189.627 1704.33 193.238 Q1707.51 196.849 1707.51 203.238 Q1707.51 209.604 1704.33 213.238 Q1701.16 216.849 1695.61 216.849 Q1690.03 216.849 1686.86 213.238 Q1683.71 209.604 1683.71 203.238 Q1683.71 196.849 1686.86 193.238 Q1690.03 189.627 1695.61 189.627 Z" fill="#000000" fill-rule="nonzero" fill-opacity="1"></path><path clip-path="url(#clip120)" d="M1729.59 194.233 Q1728.87 193.817 1728.01 193.631 Q1727.18 193.423 1726.16 193.423 Q1722.55 193.423 1720.61 195.784 Q1718.69 198.122 1718.69 202.52 L1718.69 216.178 L1714.4 216.178 L1714.4 190.252 L1718.69 190.252 L1718.69 194.28 Q1720.03 191.918 1722.18 190.784 Q1724.33 189.627 1727.41 189.627 Q1727.85 189.627 1728.39 189.696 Q1728.92 189.743 1729.57 189.858 L1729.59 194.233 Z" fill="#000000" fill-rule="nonzero" fill-opacity="1"></path><path clip-path="url(#clip120)" d="M1753.41 195.229 Q1755.01 192.358 1757.23 190.993 Q1759.45 189.627 1762.46 189.627 Q1766.51 189.627 1768.71 192.474 Q1770.91 195.298 1770.91 200.529 L1770.91 216.178 L1766.63 216.178 L1766.63 200.668 Q1766.63 196.942 1765.31 195.136 Q1763.99 193.33 1761.28 193.33 Q1757.97 193.33 1756.05 195.53 Q1754.13 197.729 1754.13 201.525 L1754.13 216.178 L1749.84 216.178 L1749.84 200.668 Q1749.84 196.918 1748.52 195.136 Q1747.2 193.33 1744.45 193.33 Q1741.19 193.33 1739.26 195.553 Q1737.34 197.752 1737.34 201.525 L1737.34 216.178 L1733.06 216.178 L1733.06 190.252 L1737.34 190.252 L1737.34 194.28 Q1738.8 191.895 1740.84 190.761 Q1742.88 189.627 1745.68 189.627 Q1748.5 189.627 1750.47 191.062 Q1752.46 192.497 1753.41 195.229 Z" fill="#000000" fill-rule="nonzero" fill-opacity="1"></path><path clip-path="url(#clip120)" d="M1798.59 212.289 L1798.59 226.039 L1794.31 226.039 L1794.31 190.252 L1798.59 190.252 L1798.59 194.187 Q1799.94 191.872 1801.97 190.761 Q1804.03 189.627 1806.88 189.627 Q1811.6 189.627 1814.54 193.377 Q1817.51 197.127 1817.51 203.238 Q1817.51 209.349 1814.54 213.099 Q1811.6 216.849 1806.88 216.849 Q1804.03 216.849 1801.97 215.738 Q1799.94 214.603 1798.59 212.289 M1813.08 203.238 Q1813.08 198.539 1811.14 195.877 Q1809.22 193.192 1805.84 193.192 Q1802.46 193.192 1800.51 195.877 Q1798.59 198.539 1798.59 203.238 Q1798.59 207.937 1800.51 210.622 Q1802.46 213.284 1805.84 213.284 Q1809.22 213.284 1811.14 210.622 Q1813.08 207.937 1813.08 203.238 Z" fill="#000000" fill-rule="nonzero" fill-opacity="1"></path><path clip-path="url(#clip120)" d="M1839.59 194.233 Q1838.87 193.817 1838.01 193.631 Q1837.18 193.423 1836.16 193.423 Q1832.55 193.423 1830.61 195.784 Q1828.69 198.122 1828.69 202.52 L1828.69 216.178 L1824.4 216.178 L1824.4 190.252 L1828.69 190.252 L1828.69 194.28 Q1830.03 191.918 1832.18 190.784 Q1834.33 189.627 1837.41 189.627 Q1837.85 189.627 1838.38 189.696 Q1838.92 189.743 1839.57 189.858 L1839.59 194.233 Z" fill="#000000" fill-rule="nonzero" fill-opacity="1"></path><path clip-path="url(#clip120)" d="M1865.19 202.15 L1865.19 204.233 L1845.61 204.233 Q1845.88 208.631 1848.25 210.946 Q1850.63 213.238 1854.87 213.238 Q1857.32 213.238 1859.61 212.636 Q1861.93 212.034 1864.19 210.83 L1864.19 214.858 Q1861.9 215.83 1859.5 216.34 Q1857.09 216.849 1854.61 216.849 Q1848.41 216.849 1844.77 213.238 Q1841.16 209.627 1841.16 203.469 Q1841.16 197.104 1844.59 193.377 Q1848.04 189.627 1853.87 189.627 Q1859.1 189.627 1862.13 193.006 Q1865.19 196.363 1865.19 202.15 M1860.93 200.9 Q1860.88 197.405 1858.96 195.321 Q1857.07 193.238 1853.92 193.238 Q1850.35 193.238 1848.2 195.252 Q1846.07 197.266 1845.75 200.923 L1860.93 200.9 Z" fill="#000000" fill-rule="nonzero" fill-opacity="1"></path><path clip-path="url(#clip120)" d="M1888.71 191.016 L1888.71 195.043 Q1886.9 194.117 1884.96 193.655 Q1883.01 193.192 1880.93 193.192 Q1877.76 193.192 1876.16 194.164 Q1874.59 195.136 1874.59 197.08 Q1874.59 198.562 1875.72 199.418 Q1876.86 200.252 1880.28 201.016 L1881.74 201.34 Q1886.28 202.312 1888.18 204.094 Q1890.1 205.854 1890.1 209.025 Q1890.1 212.636 1887.23 214.742 Q1884.38 216.849 1879.38 216.849 Q1877.3 216.849 1875.03 216.432 Q1872.78 216.039 1870.28 215.228 L1870.28 210.83 Q1872.64 212.057 1874.94 212.682 Q1877.23 213.284 1879.47 213.284 Q1882.48 213.284 1884.1 212.266 Q1885.72 211.224 1885.72 209.349 Q1885.72 207.613 1884.54 206.687 Q1883.38 205.761 1879.43 204.904 L1877.94 204.557 Q1873.99 203.724 1872.23 202.011 Q1870.47 200.275 1870.47 197.266 Q1870.47 193.608 1873.06 191.618 Q1875.65 189.627 1880.42 189.627 Q1882.78 189.627 1884.87 189.974 Q1886.95 190.321 1888.71 191.016 Z" fill="#000000" fill-rule="nonzero" fill-opacity="1"></path><path clip-path="url(#clip120)" d="M1913.41 191.016 L1913.41 195.043 Q1911.6 194.117 1909.66 193.655 Q1907.71 193.192 1905.63 193.192 Q1902.46 193.192 1900.86 194.164 Q1899.29 195.136 1899.29 197.08 Q1899.29 198.562 1900.42 199.418 Q1901.56 200.252 1904.98 201.016 L1906.44 201.34 Q1910.98 202.312 1912.88 204.094 Q1914.8 205.854 1914.8 209.025 Q1914.8 212.636 1911.93 214.742 Q1909.08 216.849 1904.08 216.849 Q1902 216.849 1899.73 216.432 Q1897.48 216.039 1894.98 215.228 L1894.98 210.83 Q1897.34 212.057 1899.63 212.682 Q1901.93 213.284 1904.17 213.284 Q1907.18 213.284 1908.8 212.266 Q1910.42 211.224 1910.42 209.349 Q1910.42 207.613 1909.24 206.687 Q1908.08 205.761 1904.13 204.904 L1902.64 204.557 Q1898.69 203.724 1896.93 202.011 Q1895.17 200.275 1895.17 197.266 Q1895.17 193.608 1897.76 191.618 Q1900.35 189.627 1905.12 189.627 Q1907.48 189.627 1909.56 189.974 Q1911.65 190.321 1913.41 191.016 Z" fill="#000000" fill-rule="nonzero" fill-opacity="1"></path><path clip-path="url(#clip120)" d="M1921.14 205.946 L1921.14 190.252 L1925.4 190.252 L1925.4 205.784 Q1925.4 209.465 1926.83 211.316 Q1928.27 213.145 1931.14 213.145 Q1934.59 213.145 1936.58 210.946 Q1938.59 208.747 1938.59 204.951 L1938.59 190.252 L1942.85 190.252 L1942.85 216.178 L1938.59 216.178 L1938.59 212.196 Q1937.04 214.557 1934.98 215.715 Q1932.94 216.849 1930.24 216.849 Q1925.77 216.849 1923.45 214.071 Q1921.14 211.293 1921.14 205.946 M1931.86 189.627 L1931.86 189.627 Z" fill="#000000" fill-rule="nonzero" fill-opacity="1"></path><path clip-path="url(#clip120)" d="M1966.65 194.233 Q1965.93 193.817 1965.07 193.631 Q1964.24 193.423 1963.22 193.423 Q1959.61 193.423 1957.67 195.784 Q1955.75 198.122 1955.75 202.52 L1955.75 216.178 L1951.46 216.178 L1951.46 190.252 L1955.75 190.252 L1955.75 194.28 Q1957.09 191.918 1959.24 190.784 Q1961.39 189.627 1964.47 189.627 Q1964.91 189.627 1965.44 189.696 Q1965.98 189.743 1966.62 189.858 L1966.65 194.233 Z" fill="#000000" fill-rule="nonzero" fill-opacity="1"></path><path clip-path="url(#clip120)" d="M1992.25 202.15 L1992.25 204.233 L1972.67 204.233 Q1972.94 208.631 1975.31 210.946 Q1977.69 213.238 1981.93 213.238 Q1984.38 213.238 1986.67 212.636 Q1988.99 212.034 1991.25 210.83 L1991.25 214.858 Q1988.96 215.83 1986.56 216.34 Q1984.15 216.849 1981.67 216.849 Q1975.47 216.849 1971.83 213.238 Q1968.22 209.627 1968.22 203.469 Q1968.22 197.104 1971.65 193.377 Q1975.1 189.627 1980.93 189.627 Q1986.16 189.627 1989.19 193.006 Q1992.25 196.363 1992.25 202.15 M1987.99 200.9 Q1987.94 197.405 1986.02 195.321 Q1984.12 193.238 1980.98 193.238 Q1977.41 193.238 1975.26 195.252 Q1973.13 197.266 1972.81 200.923 L1987.99 200.9 Z" fill="#000000" fill-rule="nonzero" fill-opacity="1"></path><path clip-path="url(#clip120)" d="M2040.37 184.28 L2040.37 189.21 Q2038.01 187.011 2035.33 185.923 Q2032.67 184.835 2029.66 184.835 Q2023.73 184.835 2020.58 188.469 Q2017.43 192.08 2017.43 198.932 Q2017.43 205.761 2020.58 209.395 Q2023.73 213.006 2029.66 213.006 Q2032.67 213.006 2035.33 211.918 Q2038.01 210.83 2040.37 208.631 L2040.37 213.516 Q2037.92 215.182 2035.17 216.016 Q2032.43 216.849 2029.38 216.849 Q2021.53 216.849 2017.02 212.057 Q2012.5 207.242 2012.5 198.932 Q2012.5 190.599 2017.02 185.807 Q2021.53 180.993 2029.38 180.993 Q2032.48 180.993 2035.21 181.826 Q2037.97 182.636 2040.37 184.28 Z" fill="#000000" fill-rule="nonzero" fill-opacity="1"></path><path clip-path="url(#clip120)" d="M2057.46 193.238 Q2054.03 193.238 2052.04 195.923 Q2050.05 198.585 2050.05 203.238 Q2050.05 207.891 2052.02 210.576 Q2054.01 213.238 2057.46 213.238 Q2060.86 213.238 2062.85 210.553 Q2064.84 207.867 2064.84 203.238 Q2064.84 198.631 2062.85 195.946 Q2060.86 193.238 2057.46 193.238 M2057.46 189.627 Q2063.01 189.627 2066.18 193.238 Q2069.36 196.849 2069.36 203.238 Q2069.36 209.604 2066.18 213.238 Q2063.01 216.849 2057.46 216.849 Q2051.88 216.849 2048.71 213.238 Q2045.56 209.604 2045.56 203.238 Q2045.56 196.849 2048.71 193.238 Q2051.88 189.627 2057.46 189.627 Z" fill="#000000" fill-rule="nonzero" fill-opacity="1"></path><path clip-path="url(#clip120)" d="M2097.97 200.529 L2097.97 216.178 L2093.71 216.178 L2093.71 200.668 Q2093.71 196.988 2092.27 195.159 Q2090.84 193.33 2087.97 193.33 Q2084.52 193.33 2082.53 195.53 Q2080.54 197.729 2080.54 201.525 L2080.54 216.178 L2076.25 216.178 L2076.25 190.252 L2080.54 190.252 L2080.54 194.28 Q2082.06 191.942 2084.12 190.784 Q2086.21 189.627 2088.92 189.627 Q2093.38 189.627 2095.67 192.405 Q2097.97 195.159 2097.97 200.529 Z" fill="#000000" fill-rule="nonzero" fill-opacity="1"></path><path clip-path="url(#clip120)" d="M2122.99 191.016 L2122.99 195.043 Q2121.18 194.117 2119.24 193.655 Q2117.3 193.192 2115.21 193.192 Q2112.04 193.192 2110.44 194.164 Q2108.87 195.136 2108.87 197.08 Q2108.87 198.562 2110 199.418 Q2111.14 200.252 2114.56 201.016 L2116.02 201.34 Q2120.56 202.312 2122.46 204.094 Q2124.38 205.854 2124.38 209.025 Q2124.38 212.636 2121.51 214.742 Q2118.66 216.849 2113.66 216.849 Q2111.58 216.849 2109.31 216.432 Q2107.06 216.039 2104.56 215.228 L2104.56 210.83 Q2106.92 212.057 2109.22 212.682 Q2111.51 213.284 2113.75 213.284 Q2116.76 213.284 2118.38 212.266 Q2120 211.224 2120 209.349 Q2120 207.613 2118.82 206.687 Q2117.67 205.761 2113.71 204.904 L2112.23 204.557 Q2108.27 203.724 2106.51 202.011 Q2104.75 200.275 2104.75 197.266 Q2104.75 193.608 2107.34 191.618 Q2109.93 189.627 2114.7 189.627 Q2117.06 189.627 2119.15 189.974 Q2121.23 190.321 2122.99 191.016 Z" fill="#000000" fill-rule="nonzero" fill-opacity="1"></path><path clip-path="url(#clip120)" d="M2135.37 182.891 L2135.37 190.252 L2144.15 190.252 L2144.15 193.562 L2135.37 193.562 L2135.37 207.636 Q2135.37 210.807 2136.23 211.71 Q2137.11 212.613 2139.77 212.613 L2144.15 212.613 L2144.15 216.178 L2139.77 216.178 Q2134.84 216.178 2132.97 214.349 Q2131.09 212.497 2131.09 207.636 L2131.09 193.562 L2127.97 193.562 L2127.97 190.252 L2131.09 190.252 L2131.09 182.891 L2135.37 182.891 Z" fill="#000000" fill-rule="nonzero" fill-opacity="1"></path><path clip-path="url(#clip120)" d="M2164.77 194.233 Q2164.05 193.817 2163.2 193.631 Q2162.36 193.423 2161.35 193.423 Q2157.73 193.423 2155.79 195.784 Q2153.87 198.122 2153.87 202.52 L2153.87 216.178 L2149.59 216.178 L2149.59 190.252 L2153.87 190.252 L2153.87 194.28 Q2155.21 191.918 2157.36 190.784 Q2159.52 189.627 2162.6 189.627 Q2163.04 189.627 2163.57 189.696 Q2164.1 189.743 2164.75 189.858 L2164.77 194.233 Z" fill="#000000" fill-rule="nonzero" fill-opacity="1"></path><path clip-path="url(#clip120)" d="M2181.02 203.145 Q2175.86 203.145 2173.87 204.326 Q2171.88 205.506 2171.88 208.354 Q2171.88 210.622 2173.36 211.965 Q2174.86 213.284 2177.43 213.284 Q2180.98 213.284 2183.11 210.784 Q2185.26 208.261 2185.26 204.094 L2185.26 203.145 L2181.02 203.145 M2189.52 201.386 L2189.52 216.178 L2185.26 216.178 L2185.26 212.242 Q2183.8 214.603 2181.62 215.738 Q2179.45 216.849 2176.3 216.849 Q2172.32 216.849 2169.96 214.627 Q2167.62 212.381 2167.62 208.631 Q2167.62 204.256 2170.54 202.034 Q2173.48 199.812 2179.29 199.812 L2185.26 199.812 L2185.26 199.395 Q2185.26 196.455 2183.31 194.858 Q2181.39 193.238 2177.9 193.238 Q2175.67 193.238 2173.57 193.77 Q2171.46 194.303 2169.52 195.367 L2169.52 191.432 Q2171.86 190.53 2174.05 190.09 Q2176.25 189.627 2178.34 189.627 Q2183.96 189.627 2186.74 192.543 Q2189.52 195.46 2189.52 201.386 Z" fill="#000000" fill-rule="nonzero" fill-opacity="1"></path><path clip-path="url(#clip120)" d="M2198.29 190.252 L2202.55 190.252 L2202.55 216.178 L2198.29 216.178 L2198.29 190.252 M2198.29 180.159 L2202.55 180.159 L2202.55 185.553 L2198.29 185.553 L2198.29 180.159 Z" fill="#000000" fill-rule="nonzero" fill-opacity="1"></path><path clip-path="url(#clip120)" d="M2233.01 200.529 L2233.01 216.178 L2228.75 216.178 L2228.75 200.668 Q2228.75 196.988 2227.32 195.159 Q2225.88 193.33 2223.01 193.33 Q2219.56 193.33 2217.57 195.53 Q2215.58 197.729 2215.58 201.525 L2215.58 216.178 L2211.3 216.178 L2211.3 190.252 L2215.58 190.252 L2215.58 194.28 Q2217.11 191.942 2219.17 190.784 Q2221.25 189.627 2223.96 189.627 Q2228.43 189.627 2230.72 192.405 Q2233.01 195.159 2233.01 200.529 Z" fill="#000000" fill-rule="nonzero" fill-opacity="1"></path><path clip-path="url(#clip120)" d="M2245.72 182.891 L2245.72 190.252 L2254.49 190.252 L2254.49 193.562 L2245.72 193.562 L2245.72 207.636 Q2245.72 210.807 2246.58 211.71 Q2247.46 212.613 2250.12 212.613 L2254.49 212.613 L2254.49 216.178 L2250.12 216.178 Q2245.19 216.178 2243.31 214.349 Q2241.44 212.497 2241.44 207.636 L2241.44 193.562 L2238.31 193.562 L2238.31 190.252 L2241.44 190.252 L2241.44 182.891 L2245.72 182.891 Z" fill="#000000" fill-rule="nonzero" fill-opacity="1"></path><polyline clip-path="url(#clip120)" style="stroke:#3da44d; stroke-linecap:round; stroke-linejoin:round; stroke-width:4; stroke-opacity:1; fill:none" points="1418.65,250.738 1566.04,250.738 "></polyline>
<path clip-path="url(#clip120)" d="M1606.63 236.629 Q1601.53 236.629 1598.52 240.425 Q1595.54 244.221 1595.54 250.772 Q1595.54 257.3 1598.52 261.096 Q1601.53 264.893 1606.63 264.893 Q1611.72 264.893 1614.68 261.096 Q1617.67 257.3 1617.67 250.772 Q1617.67 244.221 1614.68 240.425 Q1611.72 236.629 1606.63 236.629 M1606.63 232.833 Q1613.9 232.833 1618.25 237.717 Q1622.6 242.578 1622.6 250.772 Q1622.6 258.944 1618.25 263.828 Q1613.9 268.689 1606.63 268.689 Q1599.34 268.689 1594.96 263.828 Q1590.61 258.967 1590.61 250.772 Q1590.61 242.578 1594.96 237.717 Q1599.34 232.833 1606.63 232.833 Z" fill="#000000" fill-rule="nonzero" fill-opacity="1"></path><path clip-path="url(#clip120)" d="M1648.34 255.078 Q1648.34 250.379 1646.39 247.717 Q1644.47 245.032 1641.09 245.032 Q1637.71 245.032 1635.77 247.717 Q1633.85 250.379 1633.85 255.078 Q1633.85 259.777 1635.77 262.462 Q1637.71 265.124 1641.09 265.124 Q1644.47 265.124 1646.39 262.462 Q1648.34 259.777 1648.34 255.078 M1633.85 246.027 Q1635.19 243.712 1637.23 242.601 Q1639.29 241.467 1642.14 241.467 Q1646.86 241.467 1649.8 245.217 Q1652.76 248.967 1652.76 255.078 Q1652.76 261.189 1649.8 264.939 Q1646.86 268.689 1642.14 268.689 Q1639.29 268.689 1637.23 267.578 Q1635.19 266.443 1633.85 264.129 L1633.85 268.018 L1629.57 268.018 L1629.57 231.999 L1633.85 231.999 L1633.85 246.027 Z" fill="#000000" fill-rule="nonzero" fill-opacity="1"></path><path clip-path="url(#clip120)" d="M1659.82 242.092 L1664.08 242.092 L1664.08 268.481 Q1664.08 273.434 1662.18 275.656 Q1660.31 277.879 1656.12 277.879 L1654.5 277.879 L1654.5 274.268 L1655.63 274.268 Q1658.06 274.268 1658.94 273.133 Q1659.82 272.022 1659.82 268.481 L1659.82 242.092 M1659.82 231.999 L1664.08 231.999 L1664.08 237.393 L1659.82 237.393 L1659.82 231.999 Z" fill="#000000" fill-rule="nonzero" fill-opacity="1"></path><path clip-path="url(#clip120)" d="M1695.17 253.99 L1695.17 256.073 L1675.58 256.073 Q1675.86 260.471 1678.22 262.786 Q1680.61 265.078 1684.84 265.078 Q1687.3 265.078 1689.59 264.476 Q1691.9 263.874 1694.17 262.67 L1694.17 266.698 Q1691.88 267.67 1689.47 268.18 Q1687.07 268.689 1684.59 268.689 Q1678.39 268.689 1674.75 265.078 Q1671.14 261.467 1671.14 255.309 Q1671.14 248.944 1674.57 245.217 Q1678.02 241.467 1683.85 241.467 Q1689.08 241.467 1692.11 244.846 Q1695.17 248.203 1695.17 253.99 M1690.91 252.74 Q1690.86 249.245 1688.94 247.161 Q1687.04 245.078 1683.89 245.078 Q1680.33 245.078 1678.18 247.092 Q1676.05 249.106 1675.72 252.763 L1690.91 252.74 Z" fill="#000000" fill-rule="nonzero" fill-opacity="1"></path><path clip-path="url(#clip120)" d="M1720.82 243.087 L1720.82 247.069 Q1719.01 246.073 1717.18 245.587 Q1715.38 245.078 1713.52 245.078 Q1709.38 245.078 1707.09 247.717 Q1704.8 250.332 1704.8 255.078 Q1704.8 259.823 1707.09 262.462 Q1709.38 265.078 1713.52 265.078 Q1715.38 265.078 1717.18 264.592 Q1719.01 264.082 1720.82 263.087 L1720.82 267.022 Q1719.03 267.856 1717.11 268.272 Q1715.21 268.689 1713.06 268.689 Q1707.2 268.689 1703.76 265.008 Q1700.31 261.328 1700.31 255.078 Q1700.31 248.735 1703.78 245.101 Q1707.27 241.467 1713.34 241.467 Q1715.31 241.467 1717.18 241.883 Q1719.06 242.277 1720.82 243.087 Z" fill="#000000" fill-rule="nonzero" fill-opacity="1"></path><path clip-path="url(#clip120)" d="M1732.44 234.731 L1732.44 242.092 L1741.21 242.092 L1741.21 245.402 L1732.44 245.402 L1732.44 259.476 Q1732.44 262.647 1733.29 263.55 Q1734.17 264.453 1736.83 264.453 L1741.21 264.453 L1741.21 268.018 L1736.83 268.018 Q1731.9 268.018 1730.03 266.189 Q1728.15 264.337 1728.15 259.476 L1728.15 245.402 L1725.03 245.402 L1725.03 242.092 L1728.15 242.092 L1728.15 234.731 L1732.44 234.731 Z" fill="#000000" fill-rule="nonzero" fill-opacity="1"></path><path clip-path="url(#clip120)" d="M1746.81 242.092 L1751.07 242.092 L1751.07 268.018 L1746.81 268.018 L1746.81 242.092 M1746.81 231.999 L1751.07 231.999 L1751.07 237.393 L1746.81 237.393 L1746.81 231.999 Z" fill="#000000" fill-rule="nonzero" fill-opacity="1"></path><path clip-path="url(#clip120)" d="M1756.93 242.092 L1761.44 242.092 L1769.54 263.851 L1777.64 242.092 L1782.16 242.092 L1772.44 268.018 L1766.65 268.018 L1756.93 242.092 Z" fill="#000000" fill-rule="nonzero" fill-opacity="1"></path><path clip-path="url(#clip120)" d="M1810.21 253.99 L1810.21 256.073 L1790.63 256.073 Q1790.91 260.471 1793.27 262.786 Q1795.65 265.078 1799.89 265.078 Q1802.34 265.078 1804.63 264.476 Q1806.95 263.874 1809.22 262.67 L1809.22 266.698 Q1806.93 267.67 1804.52 268.18 Q1802.11 268.689 1799.63 268.689 Q1793.43 268.689 1789.8 265.078 Q1786.19 261.467 1786.19 255.309 Q1786.19 248.944 1789.61 245.217 Q1793.06 241.467 1798.89 241.467 Q1804.13 241.467 1807.16 244.846 Q1810.21 248.203 1810.21 253.99 M1805.95 252.74 Q1805.91 249.245 1803.99 247.161 Q1802.09 245.078 1798.94 245.078 Q1795.38 245.078 1793.22 247.092 Q1791.09 249.106 1790.77 252.763 L1805.95 252.74 Z" fill="#000000" fill-rule="nonzero" fill-opacity="1"></path></svg>