<svg xmlns="http://www.w3.org/2000/svg" xmlns:xlink="http://www.w3.org/1999/xlink" width="600" height="400" viewBox="0 0 2400 1600">
<defs>
  <clipPath id="clip600">
    <rect x="0" y="0" width="2400" height="1600"></rect>
  </clipPath>
</defs>
<path clip-path="url(#clip600)" d="M0 1600 L2400 1600 L2400 0 L0 0  Z" fill="#ffffff" fill-rule="evenodd" fill-opacity="1"></path>
<defs>
  <clipPath id="clip601">
    <rect x="480" y="0" width="1681" height="1600"></rect>
  </clipPath>
</defs>
<path clip-path="url(#clip600)" d="M186.76 1486.45 L2352.76 1486.45 L2352.76 47.2441 L186.76 47.2441  Z" fill="#ffffff" fill-rule="evenodd" fill-opacity="1"></path>
<defs>
  <clipPath id="clip602">
    <rect x="186" y="47" width="2167" height="1440"></rect>
  </clipPath>
</defs>
<polyline clip-path="url(#clip602)" style="stroke:#000000; stroke-linecap:round; stroke-linejoin:round; stroke-width:2; stroke-opacity:0.1; fill:none" points="248.062,1486.45 248.062,47.2441 "></polyline>
<polyline clip-path="url(#clip602)" style="stroke:#000000; stroke-linecap:round; stroke-linejoin:round; stroke-width:2; stroke-opacity:0.1; fill:none" points="758.91,1486.45 758.91,47.2441 "></polyline>
<polyline clip-path="url(#clip602)" style="stroke:#000000; stroke-linecap:round; stroke-linejoin:round; stroke-width:2; stroke-opacity:0.1; fill:none" points="1269.76,1486.45 1269.76,47.2441 "></polyline>
<polyline clip-path="url(#clip602)" style="stroke:#000000; stroke-linecap:round; stroke-linejoin:round; stroke-width:2; stroke-opacity:0.1; fill:none" points="1780.61,1486.45 1780.61,47.2441 "></polyline>
<polyline clip-path="url(#clip602)" style="stroke:#000000; stroke-linecap:round; stroke-linejoin:round; stroke-width:2; stroke-opacity:0.1; fill:none" points="2291.45,1486.45 2291.45,47.2441 "></polyline>
<polyline clip-path="url(#clip600)" style="stroke:#000000; stroke-linecap:round; stroke-linejoin:round; stroke-width:4; stroke-opacity:1; fill:none" points="186.76,1486.45 2352.76,1486.45 "></polyline>
<polyline clip-path="url(#clip600)" style="stroke:#000000; stroke-linecap:round; stroke-linejoin:round; stroke-width:4; stroke-opacity:1; fill:none" points="248.062,1486.45 248.062,1467.55 "></polyline>
<polyline clip-path="url(#clip600)" style="stroke:#000000; stroke-linecap:round; stroke-linejoin:round; stroke-width:4; stroke-opacity:1; fill:none" points="758.91,1486.45 758.91,1467.55 "></polyline>
<polyline clip-path="url(#clip600)" style="stroke:#000000; stroke-linecap:round; stroke-linejoin:round; stroke-width:4; stroke-opacity:1; fill:none" points="1269.76,1486.45 1269.76,1467.55 "></polyline>
<polyline clip-path="url(#clip600)" style="stroke:#000000; stroke-linecap:round; stroke-linejoin:round; stroke-width:4; stroke-opacity:1; fill:none" points="1780.61,1486.45 1780.61,1467.55 "></polyline>
<polyline clip-path="url(#clip600)" style="stroke:#000000; stroke-linecap:round; stroke-linejoin:round; stroke-width:4; stroke-opacity:1; fill:none" points="2291.45,1486.45 2291.45,1467.55 "></polyline>
<path clip-path="url(#clip600)" d="M210.365 1517.37 Q206.754 1517.37 204.926 1520.93 Q203.12 1524.47 203.12 1531.6 Q203.12 1538.71 204.926 1542.27 Q206.754 1545.82 210.365 1545.82 Q214 1545.82 215.805 1542.27 Q217.634 1538.71 217.634 1531.6 Q217.634 1524.47 215.805 1520.93 Q214 1517.37 210.365 1517.37 M210.365 1513.66 Q216.175 1513.66 219.231 1518.27 Q222.31 1522.85 222.31 1531.6 Q222.31 1540.33 219.231 1544.94 Q216.175 1549.52 210.365 1549.52 Q204.555 1549.52 201.476 1544.94 Q198.421 1540.33 198.421 1531.6 Q198.421 1522.85 201.476 1518.27 Q204.555 1513.66 210.365 1513.66 Z" fill="#000000" fill-rule="nonzero" fill-opacity="1"></path><path clip-path="url(#clip600)" d="M230.527 1542.97 L235.411 1542.97 L235.411 1548.85 L230.527 1548.85 L230.527 1542.97 Z" fill="#000000" fill-rule="nonzero" fill-opacity="1"></path><path clip-path="url(#clip600)" d="M255.597 1517.37 Q251.985 1517.37 250.157 1520.93 Q248.351 1524.47 248.351 1531.6 Q248.351 1538.71 250.157 1542.27 Q251.985 1545.82 255.597 1545.82 Q259.231 1545.82 261.036 1542.27 Q262.865 1538.71 262.865 1531.6 Q262.865 1524.47 261.036 1520.93 Q259.231 1517.37 255.597 1517.37 M255.597 1513.66 Q261.407 1513.66 264.462 1518.27 Q267.541 1522.85 267.541 1531.6 Q267.541 1540.33 264.462 1544.94 Q261.407 1549.52 255.597 1549.52 Q249.786 1549.52 246.708 1544.94 Q243.652 1540.33 243.652 1531.6 Q243.652 1522.85 246.708 1518.27 Q249.786 1513.66 255.597 1513.66 Z" fill="#000000" fill-rule="nonzero" fill-opacity="1"></path><path clip-path="url(#clip600)" d="M285.758 1517.37 Q282.147 1517.37 280.319 1520.93 Q278.513 1524.47 278.513 1531.6 Q278.513 1538.71 280.319 1542.27 Q282.147 1545.82 285.758 1545.82 Q289.393 1545.82 291.198 1542.27 Q293.027 1538.71 293.027 1531.6 Q293.027 1524.47 291.198 1520.93 Q289.393 1517.37 285.758 1517.37 M285.758 1513.66 Q291.569 1513.66 294.624 1518.27 Q297.703 1522.85 297.703 1531.6 Q297.703 1540.33 294.624 1544.94 Q291.569 1549.52 285.758 1549.52 Q279.948 1549.52 276.87 1544.94 Q273.814 1540.33 273.814 1531.6 Q273.814 1522.85 276.87 1518.27 Q279.948 1513.66 285.758 1513.66 Z" fill="#000000" fill-rule="nonzero" fill-opacity="1"></path><path clip-path="url(#clip600)" d="M721.711 1517.37 Q718.1 1517.37 716.271 1520.93 Q714.466 1524.47 714.466 1531.6 Q714.466 1538.71 716.271 1542.27 Q718.1 1545.82 721.711 1545.82 Q725.345 1545.82 727.151 1542.27 Q728.98 1538.71 728.98 1531.6 Q728.98 1524.47 727.151 1520.93 Q725.345 1517.37 721.711 1517.37 M721.711 1513.66 Q727.521 1513.66 730.577 1518.27 Q733.655 1522.85 733.655 1531.6 Q733.655 1540.33 730.577 1544.94 Q727.521 1549.52 721.711 1549.52 Q715.901 1549.52 712.822 1544.94 Q709.767 1540.33 709.767 1531.6 Q709.767 1522.85 712.822 1518.27 Q715.901 1513.66 721.711 1513.66 Z" fill="#000000" fill-rule="nonzero" fill-opacity="1"></path><path clip-path="url(#clip600)" d="M741.873 1542.97 L746.757 1542.97 L746.757 1548.85 L741.873 1548.85 L741.873 1542.97 Z" fill="#000000" fill-rule="nonzero" fill-opacity="1"></path><path clip-path="url(#clip600)" d="M760.97 1544.91 L777.289 1544.91 L777.289 1548.85 L755.345 1548.85 L755.345 1544.91 Q758.007 1542.16 762.59 1537.53 Q767.197 1532.88 768.377 1531.53 Q770.623 1529.01 771.502 1527.27 Q772.405 1525.51 772.405 1523.82 Q772.405 1521.07 770.461 1519.33 Q768.54 1517.6 765.438 1517.6 Q763.239 1517.6 760.785 1518.36 Q758.354 1519.13 755.577 1520.68 L755.577 1515.95 Q758.401 1514.82 760.854 1514.24 Q763.308 1513.66 765.345 1513.66 Q770.715 1513.66 773.91 1516.35 Q777.104 1519.03 777.104 1523.52 Q777.104 1525.65 776.294 1527.57 Q775.507 1529.47 773.401 1532.07 Q772.822 1532.74 769.72 1535.95 Q766.618 1539.15 760.97 1544.91 Z" fill="#000000" fill-rule="nonzero" fill-opacity="1"></path><path clip-path="url(#clip600)" d="M787.151 1514.29 L805.507 1514.29 L805.507 1518.22 L791.433 1518.22 L791.433 1526.7 Q792.451 1526.35 793.47 1526.19 Q794.488 1526 795.507 1526 Q801.294 1526 804.674 1529.17 Q808.053 1532.34 808.053 1537.76 Q808.053 1543.34 804.581 1546.44 Q801.109 1549.52 794.789 1549.52 Q792.613 1549.52 790.345 1549.15 Q788.1 1548.78 785.692 1548.04 L785.692 1543.34 Q787.776 1544.47 789.998 1545.03 Q792.22 1545.58 794.697 1545.58 Q798.701 1545.58 801.039 1543.48 Q803.377 1541.37 803.377 1537.76 Q803.377 1534.15 801.039 1532.04 Q798.701 1529.94 794.697 1529.94 Q792.822 1529.94 790.947 1530.35 Q789.095 1530.77 787.151 1531.65 L787.151 1514.29 Z" fill="#000000" fill-rule="nonzero" fill-opacity="1"></path><path clip-path="url(#clip600)" d="M1232.06 1517.37 Q1228.45 1517.37 1226.62 1520.93 Q1224.82 1524.47 1224.82 1531.6 Q1224.82 1538.71 1226.62 1542.27 Q1228.45 1545.82 1232.06 1545.82 Q1235.7 1545.82 1237.5 1542.27 Q1239.33 1538.71 1239.33 1531.6 Q1239.33 1524.47 1237.5 1520.93 Q1235.7 1517.37 1232.06 1517.37 M1232.06 1513.66 Q1237.87 1513.66 1240.93 1518.27 Q1244.01 1522.85 1244.01 1531.6 Q1244.01 1540.33 1240.93 1544.94 Q1237.87 1549.52 1232.06 1549.52 Q1226.25 1549.52 1223.17 1544.94 Q1220.12 1540.33 1220.12 1531.6 Q1220.12 1522.85 1223.17 1518.27 Q1226.25 1513.66 1232.06 1513.66 Z" fill="#000000" fill-rule="nonzero" fill-opacity="1"></path><path clip-path="url(#clip600)" d="M1252.22 1542.97 L1257.11 1542.97 L1257.11 1548.85 L1252.22 1548.85 L1252.22 1542.97 Z" fill="#000000" fill-rule="nonzero" fill-opacity="1"></path><path clip-path="url(#clip600)" d="M1267.34 1514.29 L1285.7 1514.29 L1285.7 1518.22 L1271.62 1518.22 L1271.62 1526.7 Q1272.64 1526.35 1273.66 1526.19 Q1274.68 1526 1275.7 1526 Q1281.48 1526 1284.86 1529.17 Q1288.24 1532.34 1288.24 1537.76 Q1288.24 1543.34 1284.77 1546.44 Q1281.3 1549.52 1274.98 1549.52 Q1272.8 1549.52 1270.53 1549.15 Q1268.29 1548.78 1265.88 1548.04 L1265.88 1543.34 Q1267.96 1544.47 1270.19 1545.03 Q1272.41 1545.58 1274.89 1545.58 Q1278.89 1545.58 1281.23 1543.48 Q1283.57 1541.37 1283.57 1537.76 Q1283.57 1534.15 1281.23 1532.04 Q1278.89 1529.94 1274.89 1529.94 Q1273.01 1529.94 1271.14 1530.35 Q1269.28 1530.77 1267.34 1531.65 L1267.34 1514.29 Z" fill="#000000" fill-rule="nonzero" fill-opacity="1"></path><path clip-path="url(#clip600)" d="M1307.45 1517.37 Q1303.84 1517.37 1302.01 1520.93 Q1300.21 1524.47 1300.21 1531.6 Q1300.21 1538.71 1302.01 1542.27 Q1303.84 1545.82 1307.45 1545.82 Q1311.09 1545.82 1312.89 1542.27 Q1314.72 1538.71 1314.72 1531.6 Q1314.72 1524.47 1312.89 1520.93 Q1311.09 1517.37 1307.45 1517.37 M1307.45 1513.66 Q1313.26 1513.66 1316.32 1518.27 Q1319.4 1522.85 1319.4 1531.6 Q1319.4 1540.33 1316.32 1544.94 Q1313.26 1549.52 1307.45 1549.52 Q1301.64 1549.52 1298.57 1544.94 Q1295.51 1540.33 1295.51 1531.6 Q1295.51 1522.85 1298.57 1518.27 Q1301.64 1513.66 1307.45 1513.66 Z" fill="#000000" fill-rule="nonzero" fill-opacity="1"></path><path clip-path="url(#clip600)" d="M1743.41 1517.37 Q1739.8 1517.37 1737.97 1520.93 Q1736.16 1524.47 1736.16 1531.6 Q1736.16 1538.71 1737.97 1542.27 Q1739.8 1545.82 1743.41 1545.82 Q1747.04 1545.82 1748.85 1542.27 Q1750.68 1538.71 1750.68 1531.6 Q1750.68 1524.47 1748.85 1520.93 Q1747.04 1517.37 1743.41 1517.37 M1743.41 1513.66 Q1749.22 1513.66 1752.27 1518.27 Q1755.35 1522.85 1755.35 1531.6 Q1755.35 1540.33 1752.27 1544.94 Q1749.22 1549.52 1743.41 1549.52 Q1737.6 1549.52 1734.52 1544.94 Q1731.46 1540.33 1731.46 1531.6 Q1731.46 1522.85 1734.52 1518.27 Q1737.6 1513.66 1743.41 1513.66 Z" fill="#000000" fill-rule="nonzero" fill-opacity="1"></path><path clip-path="url(#clip600)" d="M1763.57 1542.97 L1768.45 1542.97 L1768.45 1548.85 L1763.57 1548.85 L1763.57 1542.97 Z" fill="#000000" fill-rule="nonzero" fill-opacity="1"></path><path clip-path="url(#clip600)" d="M1777.46 1514.29 L1799.68 1514.29 L1799.68 1516.28 L1787.13 1548.85 L1782.25 1548.85 L1794.06 1518.22 L1777.46 1518.22 L1777.46 1514.29 Z" fill="#000000" fill-rule="nonzero" fill-opacity="1"></path><path clip-path="url(#clip600)" d="M1808.85 1514.29 L1827.2 1514.29 L1827.2 1518.22 L1813.13 1518.22 L1813.13 1526.7 Q1814.15 1526.35 1815.17 1526.19 Q1816.18 1526 1817.2 1526 Q1822.99 1526 1826.37 1529.17 Q1829.75 1532.34 1829.75 1537.76 Q1829.75 1543.34 1826.28 1546.44 Q1822.8 1549.52 1816.49 1549.52 Q1814.31 1549.52 1812.04 1549.15 Q1809.8 1548.78 1807.39 1548.04 L1807.39 1543.34 Q1809.47 1544.47 1811.69 1545.03 Q1813.92 1545.58 1816.39 1545.58 Q1820.4 1545.58 1822.74 1543.48 Q1825.07 1541.37 1825.07 1537.76 Q1825.07 1534.15 1822.74 1532.04 Q1820.4 1529.94 1816.39 1529.94 Q1814.52 1529.94 1812.64 1530.35 Q1810.79 1530.77 1808.85 1531.65 L1808.85 1514.29 Z" fill="#000000" fill-rule="nonzero" fill-opacity="1"></path><path clip-path="url(#clip600)" d="M2243.53 1544.91 L2251.17 1544.91 L2251.17 1518.55 L2242.85 1520.21 L2242.85 1515.95 L2251.12 1514.29 L2255.79 1514.29 L2255.79 1544.91 L2263.43 1544.91 L2263.43 1548.85 L2243.53 1548.85 L2243.53 1544.91 Z" fill="#000000" fill-rule="nonzero" fill-opacity="1"></path><path clip-path="url(#clip600)" d="M2272.88 1542.97 L2277.76 1542.97 L2277.76 1548.85 L2272.88 1548.85 L2272.88 1542.97 Z" fill="#000000" fill-rule="nonzero" fill-opacity="1"></path><path clip-path="url(#clip600)" d="M2297.95 1517.37 Q2294.34 1517.37 2292.51 1520.93 Q2290.7 1524.47 2290.7 1531.6 Q2290.7 1538.71 2292.51 1542.27 Q2294.34 1545.82 2297.95 1545.82 Q2301.58 1545.82 2303.39 1542.27 Q2305.22 1538.71 2305.22 1531.6 Q2305.22 1524.47 2303.39 1520.93 Q2301.58 1517.37 2297.95 1517.37 M2297.95 1513.66 Q2303.76 1513.66 2306.81 1518.27 Q2309.89 1522.85 2309.89 1531.6 Q2309.89 1540.33 2306.81 1544.94 Q2303.76 1549.52 2297.95 1549.52 Q2292.14 1549.52 2289.06 1544.94 Q2286 1540.33 2286 1531.6 Q2286 1522.85 2289.06 1518.27 Q2292.14 1513.66 2297.95 1513.66 Z" fill="#000000" fill-rule="nonzero" fill-opacity="1"></path><path clip-path="url(#clip600)" d="M2328.11 1517.37 Q2324.5 1517.37 2322.67 1520.93 Q2320.86 1524.47 2320.86 1531.6 Q2320.86 1538.71 2322.67 1542.27 Q2324.5 1545.82 2328.11 1545.82 Q2331.74 1545.82 2333.55 1542.27 Q2335.38 1538.71 2335.38 1531.6 Q2335.38 1524.47 2333.55 1520.93 Q2331.74 1517.37 2328.11 1517.37 M2328.11 1513.66 Q2333.92 1513.66 2336.97 1518.27 Q2340.05 1522.85 2340.05 1531.6 Q2340.05 1540.33 2336.97 1544.94 Q2333.92 1549.52 2328.11 1549.52 Q2322.3 1549.52 2319.22 1544.94 Q2316.16 1540.33 2316.16 1531.6 Q2316.16 1522.85 2319.22 1518.27 Q2322.3 1513.66 2328.11 1513.66 Z" fill="#000000" fill-rule="nonzero" fill-opacity="1"></path><polyline clip-path="url(#clip602)" style="stroke:#000000; stroke-linecap:round; stroke-linejoin:round; stroke-width:2; stroke-opacity:0.1; fill:none" points="186.76,1445.72 2352.76,1445.72 "></polyline>
<polyline clip-path="url(#clip602)" style="stroke:#000000; stroke-linecap:round; stroke-linejoin:round; stroke-width:2; stroke-opacity:0.1; fill:none" points="186.76,1153.63 2352.76,1153.63 "></polyline>
<polyline clip-path="url(#clip602)" style="stroke:#000000; stroke-linecap:round; stroke-linejoin:round; stroke-width:2; stroke-opacity:0.1; fill:none" points="186.76,861.545 2352.76,861.545 "></polyline>
<polyline clip-path="url(#clip602)" style="stroke:#000000; stroke-linecap:round; stroke-linejoin:round; stroke-width:2; stroke-opacity:0.1; fill:none" points="186.76,569.46 2352.76,569.46 "></polyline>
<polyline clip-path="url(#clip602)" style="stroke:#000000; stroke-linecap:round; stroke-linejoin:round; stroke-width:2; stroke-opacity:0.1; fill:none" points="186.76,277.374 2352.76,277.374 "></polyline>
<polyline clip-path="url(#clip600)" style="stroke:#000000; stroke-linecap:round; stroke-linejoin:round; stroke-width:4; stroke-opacity:1; fill:none" points="186.76,1486.45 186.76,47.2441 "></polyline>
<polyline clip-path="url(#clip600)" style="stroke:#000000; stroke-linecap:round; stroke-linejoin:round; stroke-width:4; stroke-opacity:1; fill:none" points="186.76,1445.72 205.658,1445.72 "></polyline>
<polyline clip-path="url(#clip600)" style="stroke:#000000; stroke-linecap:round; stroke-linejoin:round; stroke-width:4; stroke-opacity:1; fill:none" points="186.76,1153.63 205.658,1153.63 "></polyline>
<polyline clip-path="url(#clip600)" style="stroke:#000000; stroke-linecap:round; stroke-linejoin:round; stroke-width:4; stroke-opacity:1; fill:none" points="186.76,861.545 205.658,861.545 "></polyline>
<polyline clip-path="url(#clip600)" style="stroke:#000000; stroke-linecap:round; stroke-linejoin:round; stroke-width:4; stroke-opacity:1; fill:none" points="186.76,569.46 205.658,569.46 "></polyline>
<polyline clip-path="url(#clip600)" style="stroke:#000000; stroke-linecap:round; stroke-linejoin:round; stroke-width:4; stroke-opacity:1; fill:none" points="186.76,277.374 205.658,277.374 "></polyline>
<path clip-path="url(#clip600)" d="M63.4226 1431.51 Q59.8115 1431.51 57.9828 1435.08 Q56.1773 1438.62 56.1773 1445.75 Q56.1773 1452.86 57.9828 1456.42 Q59.8115 1459.96 63.4226 1459.96 Q67.0569 1459.96 68.8624 1456.42 Q70.6911 1452.86 70.6911 1445.75 Q70.6911 1438.62 68.8624 1435.08 Q67.0569 1431.51 63.4226 1431.51 M63.4226 1427.81 Q69.2328 1427.81 72.2883 1432.42 Q75.367 1437 75.367 1445.75 Q75.367 1454.48 72.2883 1459.08 Q69.2328 1463.67 63.4226 1463.67 Q57.6125 1463.67 54.5338 1459.08 Q51.4782 1454.48 51.4782 1445.75 Q51.4782 1437 54.5338 1432.42 Q57.6125 1427.81 63.4226 1427.81 Z" fill="#000000" fill-rule="nonzero" fill-opacity="1"></path><path clip-path="url(#clip600)" d="M83.5845 1457.12 L88.4688 1457.12 L88.4688 1463 L83.5845 1463 L83.5845 1457.12 Z" fill="#000000" fill-rule="nonzero" fill-opacity="1"></path><path clip-path="url(#clip600)" d="M108.654 1431.51 Q105.043 1431.51 103.214 1435.08 Q101.409 1438.62 101.409 1445.75 Q101.409 1452.86 103.214 1456.42 Q105.043 1459.96 108.654 1459.96 Q112.288 1459.96 114.094 1456.42 Q115.922 1452.86 115.922 1445.75 Q115.922 1438.62 114.094 1435.08 Q112.288 1431.51 108.654 1431.51 M108.654 1427.81 Q114.464 1427.81 117.52 1432.42 Q120.598 1437 120.598 1445.75 Q120.598 1454.48 117.52 1459.08 Q114.464 1463.67 108.654 1463.67 Q102.844 1463.67 99.765 1459.08 Q96.7095 1454.48 96.7095 1445.75 Q96.7095 1437 99.765 1432.42 Q102.844 1427.81 108.654 1427.81 Z" fill="#000000" fill-rule="nonzero" fill-opacity="1"></path><path clip-path="url(#clip600)" d="M138.816 1431.51 Q135.205 1431.51 133.376 1435.08 Q131.57 1438.62 131.57 1445.75 Q131.57 1452.86 133.376 1456.42 Q135.205 1459.96 138.816 1459.96 Q142.45 1459.96 144.256 1456.42 Q146.084 1452.86 146.084 1445.75 Q146.084 1438.62 144.256 1435.08 Q142.45 1431.51 138.816 1431.51 M138.816 1427.81 Q144.626 1427.81 147.681 1432.42 Q150.76 1437 150.76 1445.75 Q150.76 1454.48 147.681 1459.08 Q144.626 1463.67 138.816 1463.67 Q133.006 1463.67 129.927 1459.08 Q126.871 1454.48 126.871 1445.75 Q126.871 1437 129.927 1432.42 Q133.006 1427.81 138.816 1427.81 Z" fill="#000000" fill-rule="nonzero" fill-opacity="1"></path><path clip-path="url(#clip600)" d="M64.6495 1139.43 Q61.0384 1139.43 59.2097 1142.99 Q57.4041 1146.54 57.4041 1153.67 Q57.4041 1160.77 59.2097 1164.34 Q61.0384 1167.88 64.6495 1167.88 Q68.2837 1167.88 70.0892 1164.34 Q71.9179 1160.77 71.9179 1153.67 Q71.9179 1146.54 70.0892 1142.99 Q68.2837 1139.43 64.6495 1139.43 M64.6495 1135.73 Q70.4596 1135.73 73.5152 1140.33 Q76.5938 1144.92 76.5938 1153.67 Q76.5938 1162.39 73.5152 1167 Q70.4596 1171.58 64.6495 1171.58 Q58.8393 1171.58 55.7606 1167 Q52.7051 1162.39 52.7051 1153.67 Q52.7051 1144.92 55.7606 1140.33 Q58.8393 1135.73 64.6495 1135.73 Z" fill="#000000" fill-rule="nonzero" fill-opacity="1"></path><path clip-path="url(#clip600)" d="M84.8114 1165.03 L89.6956 1165.03 L89.6956 1170.91 L84.8114 1170.91 L84.8114 1165.03 Z" fill="#000000" fill-rule="nonzero" fill-opacity="1"></path><path clip-path="url(#clip600)" d="M109.881 1139.43 Q106.27 1139.43 104.441 1142.99 Q102.635 1146.54 102.635 1153.67 Q102.635 1160.77 104.441 1164.34 Q106.27 1167.88 109.881 1167.88 Q113.515 1167.88 115.32 1164.34 Q117.149 1160.77 117.149 1153.67 Q117.149 1146.54 115.32 1142.99 Q113.515 1139.43 109.881 1139.43 M109.881 1135.73 Q115.691 1135.73 118.746 1140.33 Q121.825 1144.92 121.825 1153.67 Q121.825 1162.39 118.746 1167 Q115.691 1171.58 109.881 1171.58 Q104.071 1171.58 100.992 1167 Q97.9363 1162.39 97.9363 1153.67 Q97.9363 1144.92 100.992 1140.33 Q104.071 1135.73 109.881 1135.73 Z" fill="#000000" fill-rule="nonzero" fill-opacity="1"></path><path clip-path="url(#clip600)" d="M130.853 1166.98 L138.492 1166.98 L138.492 1140.61 L130.182 1142.28 L130.182 1138.02 L138.445 1136.35 L143.121 1136.35 L143.121 1166.98 L150.76 1166.98 L150.76 1170.91 L130.853 1170.91 L130.853 1166.98 Z" fill="#000000" fill-rule="nonzero" fill-opacity="1"></path><path clip-path="url(#clip600)" d="M65.0198 847.344 Q61.4087 847.344 59.58 850.908 Q57.7745 854.45 57.7745 861.58 Q57.7745 868.686 59.58 872.251 Q61.4087 875.793 65.0198 875.793 Q68.6541 875.793 70.4596 872.251 Q72.2883 868.686 72.2883 861.58 Q72.2883 854.45 70.4596 850.908 Q68.6541 847.344 65.0198 847.344 M65.0198 843.64 Q70.83 843.64 73.8855 848.246 Q76.9642 852.83 76.9642 861.58 Q76.9642 870.306 73.8855 874.913 Q70.83 879.496 65.0198 879.496 Q59.2097 879.496 56.131 874.913 Q53.0754 870.306 53.0754 861.58 Q53.0754 852.83 56.131 848.246 Q59.2097 843.64 65.0198 843.64 Z" fill="#000000" fill-rule="nonzero" fill-opacity="1"></path><path clip-path="url(#clip600)" d="M85.1818 872.945 L90.066 872.945 L90.066 878.825 L85.1818 878.825 L85.1818 872.945 Z" fill="#000000" fill-rule="nonzero" fill-opacity="1"></path><path clip-path="url(#clip600)" d="M110.251 847.344 Q106.64 847.344 104.811 850.908 Q103.006 854.45 103.006 861.58 Q103.006 868.686 104.811 872.251 Q106.64 875.793 110.251 875.793 Q113.885 875.793 115.691 872.251 Q117.52 868.686 117.52 861.58 Q117.52 854.45 115.691 850.908 Q113.885 847.344 110.251 847.344 M110.251 843.64 Q116.061 843.64 119.117 848.246 Q122.195 852.83 122.195 861.58 Q122.195 870.306 119.117 874.913 Q116.061 879.496 110.251 879.496 Q104.441 879.496 101.362 874.913 Q98.3067 870.306 98.3067 861.58 Q98.3067 852.83 101.362 848.246 Q104.441 843.64 110.251 843.64 Z" fill="#000000" fill-rule="nonzero" fill-opacity="1"></path><path clip-path="url(#clip600)" d="M134.441 874.89 L150.76 874.89 L150.76 878.825 L128.816 878.825 L128.816 874.89 Q131.478 872.135 136.061 867.506 Q140.668 862.853 141.848 861.51 Q144.093 858.987 144.973 857.251 Q145.876 855.492 145.876 853.802 Q145.876 851.047 143.931 849.311 Q142.01 847.575 138.908 847.575 Q136.709 847.575 134.256 848.339 Q131.825 849.103 129.047 850.654 L129.047 845.932 Q131.871 844.797 134.325 844.219 Q136.779 843.64 138.816 843.64 Q144.186 843.64 147.38 846.325 Q150.575 849.01 150.575 853.501 Q150.575 855.631 149.765 857.552 Q148.978 859.45 146.871 862.043 Q146.293 862.714 143.191 865.931 Q140.089 869.126 134.441 874.89 Z" fill="#000000" fill-rule="nonzero" fill-opacity="1"></path><path clip-path="url(#clip600)" d="M64.0708 555.258 Q60.4597 555.258 58.631 558.823 Q56.8254 562.365 56.8254 569.494 Q56.8254 576.601 58.631 580.165 Q60.4597 583.707 64.0708 583.707 Q67.705 583.707 69.5105 580.165 Q71.3392 576.601 71.3392 569.494 Q71.3392 562.365 69.5105 558.823 Q67.705 555.258 64.0708 555.258 M64.0708 551.555 Q69.8809 551.555 72.9365 556.161 Q76.0151 560.744 76.0151 569.494 Q76.0151 578.221 72.9365 582.827 Q69.8809 587.411 64.0708 587.411 Q58.2606 587.411 55.1819 582.827 Q52.1264 578.221 52.1264 569.494 Q52.1264 560.744 55.1819 556.161 Q58.2606 551.555 64.0708 551.555 Z" fill="#000000" fill-rule="nonzero" fill-opacity="1"></path><path clip-path="url(#clip600)" d="M84.2327 580.86 L89.1169 580.86 L89.1169 586.74 L84.2327 586.74 L84.2327 580.86 Z" fill="#000000" fill-rule="nonzero" fill-opacity="1"></path><path clip-path="url(#clip600)" d="M109.302 555.258 Q105.691 555.258 103.862 558.823 Q102.057 562.365 102.057 569.494 Q102.057 576.601 103.862 580.165 Q105.691 583.707 109.302 583.707 Q112.936 583.707 114.742 580.165 Q116.57 576.601 116.57 569.494 Q116.57 562.365 114.742 558.823 Q112.936 555.258 109.302 555.258 M109.302 551.555 Q115.112 551.555 118.168 556.161 Q121.246 560.744 121.246 569.494 Q121.246 578.221 118.168 582.827 Q115.112 587.411 109.302 587.411 Q103.492 587.411 100.413 582.827 Q97.3576 578.221 97.3576 569.494 Q97.3576 560.744 100.413 556.161 Q103.492 551.555 109.302 551.555 Z" fill="#000000" fill-rule="nonzero" fill-opacity="1"></path><path clip-path="url(#clip600)" d="M143.631 568.105 Q146.987 568.823 148.862 571.091 Q150.76 573.36 150.76 576.693 Q150.76 581.809 147.242 584.61 Q143.723 587.411 137.242 587.411 Q135.066 587.411 132.751 586.971 Q130.459 586.554 128.006 585.698 L128.006 581.184 Q129.95 582.318 132.265 582.897 Q134.58 583.476 137.103 583.476 Q141.501 583.476 143.793 581.74 Q146.107 580.003 146.107 576.693 Q146.107 573.638 143.955 571.925 Q141.825 570.189 138.006 570.189 L133.978 570.189 L133.978 566.346 L138.191 566.346 Q141.64 566.346 143.468 564.98 Q145.297 563.591 145.297 560.999 Q145.297 558.337 143.399 556.925 Q141.524 555.49 138.006 555.49 Q136.084 555.49 133.885 555.906 Q131.686 556.323 129.047 557.203 L129.047 553.036 Q131.709 552.295 134.024 551.925 Q136.362 551.555 138.422 551.555 Q143.746 551.555 146.848 553.985 Q149.95 556.392 149.95 560.513 Q149.95 563.383 148.306 565.374 Q146.663 567.341 143.631 568.105 Z" fill="#000000" fill-rule="nonzero" fill-opacity="1"></path><path clip-path="url(#clip600)" d="M62.9365 263.173 Q59.3254 263.173 57.4967 266.738 Q55.6912 270.279 55.6912 277.409 Q55.6912 284.515 57.4967 288.08 Q59.3254 291.622 62.9365 291.622 Q66.5707 291.622 68.3763 288.08 Q70.205 284.515 70.205 277.409 Q70.205 270.279 68.3763 266.738 Q66.5707 263.173 62.9365 263.173 M62.9365 259.469 Q68.7467 259.469 71.8022 264.076 Q74.8809 268.659 74.8809 277.409 Q74.8809 286.136 71.8022 290.742 Q68.7467 295.325 62.9365 295.325 Q57.1264 295.325 54.0477 290.742 Q50.9921 286.136 50.9921 277.409 Q50.9921 268.659 54.0477 264.076 Q57.1264 259.469 62.9365 259.469 Z" fill="#000000" fill-rule="nonzero" fill-opacity="1"></path><path clip-path="url(#clip600)" d="M83.0984 288.775 L87.9827 288.775 L87.9827 294.654 L83.0984 294.654 L83.0984 288.775 Z" fill="#000000" fill-rule="nonzero" fill-opacity="1"></path><path clip-path="url(#clip600)" d="M108.168 263.173 Q104.557 263.173 102.728 266.738 Q100.922 270.279 100.922 277.409 Q100.922 284.515 102.728 288.08 Q104.557 291.622 108.168 291.622 Q111.802 291.622 113.608 288.08 Q115.436 284.515 115.436 277.409 Q115.436 270.279 113.608 266.738 Q111.802 263.173 108.168 263.173 M108.168 259.469 Q113.978 259.469 117.033 264.076 Q120.112 268.659 120.112 277.409 Q120.112 286.136 117.033 290.742 Q113.978 295.325 108.168 295.325 Q102.358 295.325 99.2789 290.742 Q96.2234 286.136 96.2234 277.409 Q96.2234 268.659 99.2789 264.076 Q102.358 259.469 108.168 259.469 Z" fill="#000000" fill-rule="nonzero" fill-opacity="1"></path><path clip-path="url(#clip600)" d="M141.177 264.168 L129.371 282.617 L141.177 282.617 L141.177 264.168 M139.95 260.094 L145.83 260.094 L145.83 282.617 L150.76 282.617 L150.76 286.506 L145.83 286.506 L145.83 294.654 L141.177 294.654 L141.177 286.506 L125.575 286.506 L125.575 281.992 L139.95 260.094 Z" fill="#000000" fill-rule="nonzero" fill-opacity="1"></path><polyline clip-path="url(#clip602)" style="stroke:#ff6347; stroke-linecap:round; stroke-linejoin:round; stroke-width:4; stroke-opacity:1; fill:none" points="248.062,1445.72 268.496,1445.72 288.93,1445.72 309.364,1445.72 329.798,1445.72 350.231,1445.72 370.665,1445.72 391.099,1445.72 411.533,1445.72 431.967,1445.72 452.401,1445.72 472.835,1445.72 493.269,1445.72 513.703,1445.72 534.137,1445.72 554.571,1445.72 575.005,1445.72 595.439,1445.72 615.872,1445.72 636.306,1445.72 656.74,1445.72 677.174,1445.72 697.608,1445.72 718.042,1445.72 738.476,1445.72 758.91,1445.72 779.344,1445.72 799.778,1445.72 820.212,1445.72 840.646,1445.72 861.08,1445.72 881.513,1445.72 901.947,1445.72 922.381,1445.72 942.815,1445.72 963.249,1445.72 983.683,1445.72 1004.12,1445.72 1024.55,1445.72 1044.98,1445.72 1065.42,1445.72 1085.85,1445.72 1106.29,1445.72 1126.72,1334.03 1147.15,950.133 1167.59,658.57 1188.02,437.9 1208.46,274.218 1228.89,164.162 1249.32,106.672 1269.76,87.9763 1290.19,114.987 1310.63,200.803 1331.06,344.356 1351.49,482.778 1371.93,628.597 1392.36,834.112 1412.8,1189.16 1433.23,1445.72 1453.66,1445.72 1474.1,1445.72 1494.53,1445.72 1514.97,1445.72 1535.4,1445.72 1555.83,1445.72 1576.27,1445.72 1596.7,1445.72 1617.13,1445.72 1637.57,1445.72 1658,1445.72 1678.44,1445.72 1698.87,1445.72 1719.3,1445.72 1739.74,1445.72 1760.17,1445.72 1780.61,1445.72 1801.04,1445.72 1821.47,1445.72 1841.91,1445.72 1862.34,1445.72 1882.78,1445.72 1903.21,1445.72 1923.64,1445.72 1944.08,1445.72 1964.51,1445.72 1984.95,1445.72 2005.38,1445.72 2025.81,1445.72 2046.25,1445.72 2066.68,1445.72 2087.11,1445.72 2107.55,1445.72 2127.98,1445.72 2148.42,1445.72 2168.85,1445.72 2189.28,1445.72 2209.72,1445.72 2230.15,1445.72 2250.59,1445.72 2271.02,1445.72 2291.45,1445.72 "></polyline>
<circle clip-path="url(#clip602)" cx="248.062" cy="1445.72" r="14.4" fill="#ff6347" fill-rule="evenodd" fill-opacity="1" stroke="#000000" stroke-opacity="1" stroke-width="3.2"></circle>
<circle clip-path="url(#clip602)" cx="268.496" cy="1445.72" r="14.4" fill="#ff6347" fill-rule="evenodd" fill-opacity="1" stroke="#000000" stroke-opacity="1" stroke-width="3.2"></circle>
<circle clip-path="url(#clip602)" cx="288.93" cy="1445.72" r="14.4" fill="#ff6347" fill-rule="evenodd" fill-opacity="1" stroke="#000000" stroke-opacity="1" stroke-width="3.2"></circle>
<circle clip-path="url(#clip602)" cx="309.364" cy="1445.72" r="14.4" fill="#ff6347" fill-rule="evenodd" fill-opacity="1" stroke="#000000" stroke-opacity="1" stroke-width="3.2"></circle>
<circle clip-path="url(#clip602)" cx="329.798" cy="1445.72" r="14.4" fill="#ff6347" fill-rule="evenodd" fill-opacity="1" stroke="#000000" stroke-opacity="1" stroke-width="3.2"></circle>
<circle clip-path="url(#clip602)" cx="350.231" cy="1445.72" r="14.4" fill="#ff6347" fill-rule="evenodd" fill-opacity="1" stroke="#000000" stroke-opacity="1" stroke-width="3.2"></circle>
<circle clip-path="url(#clip602)" cx="370.665" cy="1445.72" r="14.4" fill="#ff6347" fill-rule="evenodd" fill-opacity="1" stroke="#000000" stroke-opacity="1" stroke-width="3.2"></circle>
<circle clip-path="url(#clip602)" cx="391.099" cy="1445.72" r="14.4" fill="#ff6347" fill-rule="evenodd" fill-opacity="1" stroke="#000000" stroke-opacity="1" stroke-width="3.2"></circle>
<circle clip-path="url(#clip602)" cx="411.533" cy="1445.72" r="14.4" fill="#ff6347" fill-rule="evenodd" fill-opacity="1" stroke="#000000" stroke-opacity="1" stroke-width="3.2"></circle>
<circle clip-path="url(#clip602)" cx="431.967" cy="1445.72" r="14.4" fill="#ff6347" fill-rule="evenodd" fill-opacity="1" stroke="#000000" stroke-opacity="1" stroke-width="3.2"></circle>
<circle clip-path="url(#clip602)" cx="452.401" cy="1445.72" r="14.4" fill="#ff6347" fill-rule="evenodd" fill-opacity="1" stroke="#000000" stroke-opacity="1" stroke-width="3.2"></circle>
<circle clip-path="url(#clip602)" cx="472.835" cy="1445.72" r="14.4" fill="#ff6347" fill-rule="evenodd" fill-opacity="1" stroke="#000000" stroke-opacity="1" stroke-width="3.2"></circle>
<circle clip-path="url(#clip602)" cx="493.269" cy="1445.72" r="14.4" fill="#ff6347" fill-rule="evenodd" fill-opacity="1" stroke="#000000" stroke-opacity="1" stroke-width="3.2"></circle>
<circle clip-path="url(#clip602)" cx="513.703" cy="1445.72" r="14.4" fill="#ff6347" fill-rule="evenodd" fill-opacity="1" stroke="#000000" stroke-opacity="1" stroke-width="3.2"></circle>
<circle clip-path="url(#clip602)" cx="534.137" cy="1445.72" r="14.4" fill="#ff6347" fill-rule="evenodd" fill-opacity="1" stroke="#000000" stroke-opacity="1" stroke-width="3.2"></circle>
<circle clip-path="url(#clip602)" cx="554.571" cy="1445.72" r="14.4" fill="#ff6347" fill-rule="evenodd" fill-opacity="1" stroke="#000000" stroke-opacity="1" stroke-width="3.2"></circle>
<circle clip-path="url(#clip602)" cx="575.005" cy="1445.72" r="14.4" fill="#ff6347" fill-rule="evenodd" fill-opacity="1" stroke="#000000" stroke-opacity="1" stroke-width="3.2"></circle>
<circle clip-path="url(#clip602)" cx="595.439" cy="1445.72" r="14.4" fill="#ff6347" fill-rule="evenodd" fill-opacity="1" stroke="#000000" stroke-opacity="1" stroke-width="3.2"></circle>
<circle clip-path="url(#clip602)" cx="615.872" cy="1445.72" r="14.4" fill="#ff6347" fill-rule="evenodd" fill-opacity="1" stroke="#000000" stroke-opacity="1" stroke-width="3.2"></circle>
<circle clip-path="url(#clip602)" cx="636.306" cy="1445.72" r="14.4" fill="#ff6347" fill-rule="evenodd" fill-opacity="1" stroke="#000000" stroke-opacity="1" stroke-width="3.2"></circle>
<circle clip-path="url(#clip602)" cx="656.74" cy="1445.72" r="14.4" fill="#ff6347" fill-rule="evenodd" fill-opacity="1" stroke="#000000" stroke-opacity="1" stroke-width="3.2"></circle>
<circle clip-path="url(#clip602)" cx="677.174" cy="1445.72" r="14.4" fill="#ff6347" fill-rule="evenodd" fill-opacity="1" stroke="#000000" stroke-opacity="1" stroke-width="3.2"></circle>
<circle clip-path="url(#clip602)" cx="697.608" cy="1445.72" r="14.4" fill="#ff6347" fill-rule="evenodd" fill-opacity="1" stroke="#000000" stroke-opacity="1" stroke-width="3.2"></circle>
<circle clip-path="url(#clip602)" cx="718.042" cy="1445.72" r="14.4" fill="#ff6347" fill-rule="evenodd" fill-opacity="1" stroke="#000000" stroke-opacity="1" stroke-width="3.2"></circle>
<circle clip-path="url(#clip602)" cx="738.476" cy="1445.72" r="14.4" fill="#ff6347" fill-rule="evenodd" fill-opacity="1" stroke="#000000" stroke-opacity="1" stroke-width="3.2"></circle>
<circle clip-path="url(#clip602)" cx="758.91" cy="1445.72" r="14.4" fill="#ff6347" fill-rule="evenodd" fill-opacity="1" stroke="#000000" stroke-opacity="1" stroke-width="3.2"></circle>
<circle clip-path="url(#clip602)" cx="779.344" cy="1445.72" r="14.4" fill="#ff6347" fill-rule="evenodd" fill-opacity="1" stroke="#000000" stroke-opacity="1" stroke-width="3.2"></circle>
<circle clip-path="url(#clip602)" cx="799.778" cy="1445.72" r="14.4" fill="#ff6347" fill-rule="evenodd" fill-opacity="1" stroke="#000000" stroke-opacity="1" stroke-width="3.2"></circle>
<circle clip-path="url(#clip602)" cx="820.212" cy="1445.72" r="14.4" fill="#ff6347" fill-rule="evenodd" fill-opacity="1" stroke="#000000" stroke-opacity="1" stroke-width="3.2"></circle>
<circle clip-path="url(#clip602)" cx="840.646" cy="1445.72" r="14.4" fill="#ff6347" fill-rule="evenodd" fill-opacity="1" stroke="#000000" stroke-opacity="1" stroke-width="3.2"></circle>
<circle clip-path="url(#clip602)" cx="861.08" cy="1445.72" r="14.4" fill="#ff6347" fill-rule="evenodd" fill-opacity="1" stroke="#000000" stroke-opacity="1" stroke-width="3.2"></circle>
<circle clip-path="url(#clip602)" cx="881.513" cy="1445.72" r="14.4" fill="#ff6347" fill-rule="evenodd" fill-opacity="1" stroke="#000000" stroke-opacity="1" stroke-width="3.2"></circle>
<circle clip-path="url(#clip602)" cx="901.947" cy="1445.72" r="14.4" fill="#ff6347" fill-rule="evenodd" fill-opacity="1" stroke="#000000" stroke-opacity="1" stroke-width="3.2"></circle>
<circle clip-path="url(#clip602)" cx="922.381" cy="1445.72" r="14.4" fill="#ff6347" fill-rule="evenodd" fill-opacity="1" stroke="#000000" stroke-opacity="1" stroke-width="3.2"></circle>
<circle clip-path="url(#clip602)" cx="942.815" cy="1445.72" r="14.4" fill="#ff6347" fill-rule="evenodd" fill-opacity="1" stroke="#000000" stroke-opacity="1" stroke-width="3.2"></circle>
<circle clip-path="url(#clip602)" cx="963.249" cy="1445.72" r="14.4" fill="#ff6347" fill-rule="evenodd" fill-opacity="1" stroke="#000000" stroke-opacity="1" stroke-width="3.2"></circle>
<circle clip-path="url(#clip602)" cx="983.683" cy="1445.72" r="14.4" fill="#ff6347" fill-rule="evenodd" fill-opacity="1" stroke="#000000" stroke-opacity="1" stroke-width="3.2"></circle>
<circle clip-path="url(#clip602)" cx="1004.12" cy="1445.72" r="14.4" fill="#ff6347" fill-rule="evenodd" fill-opacity="1" stroke="#000000" stroke-opacity="1" stroke-width="3.2"></circle>
<circle clip-path="url(#clip602)" cx="1024.55" cy="1445.72" r="14.4" fill="#ff6347" fill-rule="evenodd" fill-opacity="1" stroke="#000000" stroke-opacity="1" stroke-width="3.2"></circle>
<circle clip-path="url(#clip602)" cx="1044.98" cy="1445.72" r="14.4" fill="#ff6347" fill-rule="evenodd" fill-opacity="1" stroke="#000000" stroke-opacity="1" stroke-width="3.2"></circle>
<circle clip-path="url(#clip602)" cx="1065.42" cy="1445.72" r="14.4" fill="#ff6347" fill-rule="evenodd" fill-opacity="1" stroke="#000000" stroke-opacity="1" stroke-width="3.2"></circle>
<circle clip-path="url(#clip602)" cx="1085.85" cy="1445.72" r="14.4" fill="#ff6347" fill-rule="evenodd" fill-opacity="1" stroke="#000000" stroke-opacity="1" stroke-width="3.2"></circle>
<circle clip-path="url(#clip602)" cx="1106.29" cy="1445.72" r="14.4" fill="#ff6347" fill-rule="evenodd" fill-opacity="1" stroke="#000000" stroke-opacity="1" stroke-width="3.2"></circle>
<circle clip-path="url(#clip602)" cx="1126.72" cy="1334.03" r="14.4" fill="#ff6347" fill-rule="evenodd" fill-opacity="1" stroke="#000000" stroke-opacity="1" stroke-width="3.2"></circle>
<circle clip-path="url(#clip602)" cx="1147.15" cy="950.133" r="14.4" fill="#ff6347" fill-rule="evenodd" fill-opacity="1" stroke="#000000" stroke-opacity="1" stroke-width="3.2"></circle>
<circle clip-path="url(#clip602)" cx="1167.59" cy="658.57" r="14.4" fill="#ff6347" fill-rule="evenodd" fill-opacity="1" stroke="#000000" stroke-opacity="1" stroke-width="3.2"></circle>
<circle clip-path="url(#clip602)" cx="1188.02" cy="437.9" r="14.4" fill="#ff6347" fill-rule="evenodd" fill-opacity="1" stroke="#000000" stroke-opacity="1" stroke-width="3.2"></circle>
<circle clip-path="url(#clip602)" cx="1208.46" cy="274.218" r="14.4" fill="#ff6347" fill-rule="evenodd" fill-opacity="1" stroke="#000000" stroke-opacity="1" stroke-width="3.2"></circle>
<circle clip-path="url(#clip602)" cx="1228.89" cy="164.162" r="14.4" fill="#ff6347" fill-rule="evenodd" fill-opacity="1" stroke="#000000" stroke-opacity="1" stroke-width="3.2"></circle>
<circle clip-path="url(#clip602)" cx="1249.32" cy="106.672" r="14.4" fill="#ff6347" fill-rule="evenodd" fill-opacity="1" stroke="#000000" stroke-opacity="1" stroke-width="3.2"></circle>
<circle clip-path="url(#clip602)" cx="1269.76" cy="87.9763" r="14.4" fill="#ff6347" fill-rule="evenodd" fill-opacity="1" stroke="#000000" stroke-opacity="1" stroke-width="3.2"></circle>
<circle clip-path="url(#clip602)" cx="1290.19" cy="114.987" r="14.4" fill="#ff6347" fill-rule="evenodd" fill-opacity="1" stroke="#000000" stroke-opacity="1" stroke-width="3.2"></circle>
<circle clip-path="url(#clip602)" cx="1310.63" cy="200.803" r="14.4" fill="#ff6347" fill-rule="evenodd" fill-opacity="1" stroke="#000000" stroke-opacity="1" stroke-width="3.2"></circle>
<circle clip-path="url(#clip602)" cx="1331.06" cy="344.356" r="14.4" fill="#ff6347" fill-rule="evenodd" fill-opacity="1" stroke="#000000" stroke-opacity="1" stroke-width="3.2"></circle>
<circle clip-path="url(#clip602)" cx="1351.49" cy="482.778" r="14.4" fill="#ff6347" fill-rule="evenodd" fill-opacity="1" stroke="#000000" stroke-opacity="1" stroke-width="3.2"></circle>
<circle clip-path="url(#clip602)" cx="1371.93" cy="628.597" r="14.4" fill="#ff6347" fill-rule="evenodd" fill-opacity="1" stroke="#000000" stroke-opacity="1" stroke-width="3.2"></circle>
<circle clip-path="url(#clip602)" cx="1392.36" cy="834.112" r="14.4" fill="#ff6347" fill-rule="evenodd" fill-opacity="1" stroke="#000000" stroke-opacity="1" stroke-width="3.2"></circle>
<circle clip-path="url(#clip602)" cx="1412.8" cy="1189.16" r="14.4" fill="#ff6347" fill-rule="evenodd" fill-opacity="1" stroke="#000000" stroke-opacity="1" stroke-width="3.2"></circle>
<circle clip-path="url(#clip602)" cx="1433.23" cy="1445.72" r="14.4" fill="#ff6347" fill-rule="evenodd" fill-opacity="1" stroke="#000000" stroke-opacity="1" stroke-width="3.2"></circle>
<circle clip-path="url(#clip602)" cx="1453.66" cy="1445.72" r="14.4" fill="#ff6347" fill-rule="evenodd" fill-opacity="1" stroke="#000000" stroke-opacity="1" stroke-width="3.2"></circle>
<circle clip-path="url(#clip602)" cx="1474.1" cy="1445.72" r="14.4" fill="#ff6347" fill-rule="evenodd" fill-opacity="1" stroke="#000000" stroke-opacity="1" stroke-width="3.2"></circle>
<circle clip-path="url(#clip602)" cx="1494.53" cy="1445.72" r="14.4" fill="#ff6347" fill-rule="evenodd" fill-opacity="1" stroke="#000000" stroke-opacity="1" stroke-width="3.2"></circle>
<circle clip-path="url(#clip602)" cx="1514.97" cy="1445.72" r="14.4" fill="#ff6347" fill-rule="evenodd" fill-opacity="1" stroke="#000000" stroke-opacity="1" stroke-width="3.2"></circle>
<circle clip-path="url(#clip602)" cx="1535.4" cy="1445.72" r="14.4" fill="#ff6347" fill-rule="evenodd" fill-opacity="1" stroke="#000000" stroke-opacity="1" stroke-width="3.2"></circle>
<circle clip-path="url(#clip602)" cx="1555.83" cy="1445.72" r="14.4" fill="#ff6347" fill-rule="evenodd" fill-opacity="1" stroke="#000000" stroke-opacity="1" stroke-width="3.2"></circle>
<circle clip-path="url(#clip602)" cx="1576.27" cy="1445.72" r="14.4" fill="#ff6347" fill-rule="evenodd" fill-opacity="1" stroke="#000000" stroke-opacity="1" stroke-width="3.2"></circle>
<circle clip-path="url(#clip602)" cx="1596.7" cy="1445.72" r="14.4" fill="#ff6347" fill-rule="evenodd" fill-opacity="1" stroke="#000000" stroke-opacity="1" stroke-width="3.2"></circle>
<circle clip-path="url(#clip602)" cx="1617.13" cy="1445.72" r="14.4" fill="#ff6347" fill-rule="evenodd" fill-opacity="1" stroke="#000000" stroke-opacity="1" stroke-width="3.2"></circle>
<circle clip-path="url(#clip602)" cx="1637.57" cy="1445.72" r="14.4" fill="#ff6347" fill-rule="evenodd" fill-opacity="1" stroke="#000000" stroke-opacity="1" stroke-width="3.2"></circle>
<circle clip-path="url(#clip602)" cx="1658" cy="1445.72" r="14.4" fill="#ff6347" fill-rule="evenodd" fill-opacity="1" stroke="#000000" stroke-opacity="1" stroke-width="3.2"></circle>
<circle clip-path="url(#clip602)" cx="1678.44" cy="1445.72" r="14.4" fill="#ff6347" fill-rule="evenodd" fill-opacity="1" stroke="#000000" stroke-opacity="1" stroke-width="3.2"></circle>
<circle clip-path="url(#clip602)" cx="1698.87" cy="1445.72" r="14.4" fill="#ff6347" fill-rule="evenodd" fill-opacity="1" stroke="#000000" stroke-opacity="1" stroke-width="3.2"></circle>
<circle clip-path="url(#clip602)" cx="1719.3" cy="1445.72" r="14.4" fill="#ff6347" fill-rule="evenodd" fill-opacity="1" stroke="#000000" stroke-opacity="1" stroke-width="3.2"></circle>
<circle clip-path="url(#clip602)" cx="1739.74" cy="1445.72" r="14.4" fill="#ff6347" fill-rule="evenodd" fill-opacity="1" stroke="#000000" stroke-opacity="1" stroke-width="3.2"></circle>
<circle clip-path="url(#clip602)" cx="1760.17" cy="1445.72" r="14.4" fill="#ff6347" fill-rule="evenodd" fill-opacity="1" stroke="#000000" stroke-opacity="1" stroke-width="3.2"></circle>
<circle clip-path="url(#clip602)" cx="1780.61" cy="1445.72" r="14.4" fill="#ff6347" fill-rule="evenodd" fill-opacity="1" stroke="#000000" stroke-opacity="1" stroke-width="3.2"></circle>
<circle clip-path="url(#clip602)" cx="1801.04" cy="1445.72" r="14.4" fill="#ff6347" fill-rule="evenodd" fill-opacity="1" stroke="#000000" stroke-opacity="1" stroke-width="3.2"></circle>
<circle clip-path="url(#clip602)" cx="1821.47" cy="1445.72" r="14.4" fill="#ff6347" fill-rule="evenodd" fill-opacity="1" stroke="#000000" stroke-opacity="1" stroke-width="3.2"></circle>
<circle clip-path="url(#clip602)" cx="1841.91" cy="1445.72" r="14.4" fill="#ff6347" fill-rule="evenodd" fill-opacity="1" stroke="#000000" stroke-opacity="1" stroke-width="3.2"></circle>
<circle clip-path="url(#clip602)" cx="1862.34" cy="1445.72" r="14.4" fill="#ff6347" fill-rule="evenodd" fill-opacity="1" stroke="#000000" stroke-opacity="1" stroke-width="3.2"></circle>
<circle clip-path="url(#clip602)" cx="1882.78" cy="1445.72" r="14.4" fill="#ff6347" fill-rule="evenodd" fill-opacity="1" stroke="#000000" stroke-opacity="1" stroke-width="3.2"></circle>
<circle clip-path="url(#clip602)" cx="1903.21" cy="1445.72" r="14.4" fill="#ff6347" fill-rule="evenodd" fill-opacity="1" stroke="#000000" stroke-opacity="1" stroke-width="3.2"></circle>
<circle clip-path="url(#clip602)" cx="1923.64" cy="1445.72" r="14.4" fill="#ff6347" fill-rule="evenodd" fill-opacity="1" stroke="#000000" stroke-opacity="1" stroke-width="3.2"></circle>
<circle clip-path="url(#clip602)" cx="1944.08" cy="1445.72" r="14.4" fill="#ff6347" fill-rule="evenodd" fill-opacity="1" stroke="#000000" stroke-opacity="1" stroke-width="3.2"></circle>
<circle clip-path="url(#clip602)" cx="1964.51" cy="1445.72" r="14.4" fill="#ff6347" fill-rule="evenodd" fill-opacity="1" stroke="#000000" stroke-opacity="1" stroke-width="3.2"></circle>
<circle clip-path="url(#clip602)" cx="1984.95" cy="1445.72" r="14.4" fill="#ff6347" fill-rule="evenodd" fill-opacity="1" stroke="#000000" stroke-opacity="1" stroke-width="3.2"></circle>
<circle clip-path="url(#clip602)" cx="2005.38" cy="1445.72" r="14.4" fill="#ff6347" fill-rule="evenodd" fill-opacity="1" stroke="#000000" stroke-opacity="1" stroke-width="3.2"></circle>
<circle clip-path="url(#clip602)" cx="2025.81" cy="1445.72" r="14.4" fill="#ff6347" fill-rule="evenodd" fill-opacity="1" stroke="#000000" stroke-opacity="1" stroke-width="3.2"></circle>
<circle clip-path="url(#clip602)" cx="2046.25" cy="1445.72" r="14.4" fill="#ff6347" fill-rule="evenodd" fill-opacity="1" stroke="#000000" stroke-opacity="1" stroke-width="3.2"></circle>
<circle clip-path="url(#clip602)" cx="2066.68" cy="1445.72" r="14.4" fill="#ff6347" fill-rule="evenodd" fill-opacity="1" stroke="#000000" stroke-opacity="1" stroke-width="3.2"></circle>
<circle clip-path="url(#clip602)" cx="2087.11" cy="1445.72" r="14.4" fill="#ff6347" fill-rule="evenodd" fill-opacity="1" stroke="#000000" stroke-opacity="1" stroke-width="3.2"></circle>
<circle clip-path="url(#clip602)" cx="2107.55" cy="1445.72" r="14.4" fill="#ff6347" fill-rule="evenodd" fill-opacity="1" stroke="#000000" stroke-opacity="1" stroke-width="3.2"></circle>
<circle clip-path="url(#clip602)" cx="2127.98" cy="1445.72" r="14.4" fill="#ff6347" fill-rule="evenodd" fill-opacity="1" stroke="#000000" stroke-opacity="1" stroke-width="3.2"></circle>
<circle clip-path="url(#clip602)" cx="2148.42" cy="1445.72" r="14.4" fill="#ff6347" fill-rule="evenodd" fill-opacity="1" stroke="#000000" stroke-opacity="1" stroke-width="3.2"></circle>
<circle clip-path="url(#clip602)" cx="2168.85" cy="1445.72" r="14.4" fill="#ff6347" fill-rule="evenodd" fill-opacity="1" stroke="#000000" stroke-opacity="1" stroke-width="3.2"></circle>
<circle clip-path="url(#clip602)" cx="2189.28" cy="1445.72" r="14.4" fill="#ff6347" fill-rule="evenodd" fill-opacity="1" stroke="#000000" stroke-opacity="1" stroke-width="3.2"></circle>
<circle clip-path="url(#clip602)" cx="2209.72" cy="1445.72" r="14.4" fill="#ff6347" fill-rule="evenodd" fill-opacity="1" stroke="#000000" stroke-opacity="1" stroke-width="3.2"></circle>
<circle clip-path="url(#clip602)" cx="2230.15" cy="1445.72" r="14.4" fill="#ff6347" fill-rule="evenodd" fill-opacity="1" stroke="#000000" stroke-opacity="1" stroke-width="3.2"></circle>
<circle clip-path="url(#clip602)" cx="2250.59" cy="1445.72" r="14.4" fill="#ff6347" fill-rule="evenodd" fill-opacity="1" stroke="#000000" stroke-opacity="1" stroke-width="3.2"></circle>
<circle clip-path="url(#clip602)" cx="2271.02" cy="1445.72" r="14.4" fill="#ff6347" fill-rule="evenodd" fill-opacity="1" stroke="#000000" stroke-opacity="1" stroke-width="3.2"></circle>
<circle clip-path="url(#clip602)" cx="2291.45" cy="1445.72" r="14.4" fill="#ff6347" fill-rule="evenodd" fill-opacity="1" stroke="#000000" stroke-opacity="1" stroke-width="3.2"></circle>
</svg>