<svg xmlns="http://www.w3.org/2000/svg" xmlns:xlink="http://www.w3.org/1999/xlink" width="600" height="400" viewBox="0 0 2400 1600">
<defs>
  <clipPath id="clip530">
    <rect x="0" y="0" width="2400" height="1600"></rect>
  </clipPath>
</defs>
<path clip-path="url(#clip530)" d="M0 1600 L2400 1600 L2400 0 L0 0  Z" fill="#ffffff" fill-rule="evenodd" fill-opacity="1"></path>
<defs>
  <clipPath id="clip531">
    <rect x="480" y="0" width="1681" height="1600"></rect>
  </clipPath>
</defs>
<path clip-path="url(#clip530)" d="M154.515 1486.45 L2352.76 1486.45 L2352.76 47.2441 L154.515 47.2441  Z" fill="#ffffff" fill-rule="evenodd" fill-opacity="1"></path>
<defs>
  <clipPath id="clip532">
    <rect x="154" y="47" width="2199" height="1440"></rect>
  </clipPath>
</defs>
<polyline clip-path="url(#clip532)" style="stroke:#000000; stroke-linecap:round; stroke-linejoin:round; stroke-width:2; stroke-opacity:0.1; fill:none" points="216.729,1486.45 216.729,47.2441 "></polyline>
<polyline clip-path="url(#clip532)" style="stroke:#000000; stroke-linecap:round; stroke-linejoin:round; stroke-width:2; stroke-opacity:0.1; fill:none" points="735.182,1486.45 735.182,47.2441 "></polyline>
<polyline clip-path="url(#clip532)" style="stroke:#000000; stroke-linecap:round; stroke-linejoin:round; stroke-width:2; stroke-opacity:0.1; fill:none" points="1253.64,1486.45 1253.64,47.2441 "></polyline>
<polyline clip-path="url(#clip532)" style="stroke:#000000; stroke-linecap:round; stroke-linejoin:round; stroke-width:2; stroke-opacity:0.1; fill:none" points="1772.09,1486.45 1772.09,47.2441 "></polyline>
<polyline clip-path="url(#clip532)" style="stroke:#000000; stroke-linecap:round; stroke-linejoin:round; stroke-width:2; stroke-opacity:0.1; fill:none" points="2290.54,1486.45 2290.54,47.2441 "></polyline>
<polyline clip-path="url(#clip530)" style="stroke:#000000; stroke-linecap:round; stroke-linejoin:round; stroke-width:4; stroke-opacity:1; fill:none" points="154.515,1486.45 2352.76,1486.45 "></polyline>
<polyline clip-path="url(#clip530)" style="stroke:#000000; stroke-linecap:round; stroke-linejoin:round; stroke-width:4; stroke-opacity:1; fill:none" points="216.729,1486.45 216.729,1467.55 "></polyline>
<polyline clip-path="url(#clip530)" style="stroke:#000000; stroke-linecap:round; stroke-linejoin:round; stroke-width:4; stroke-opacity:1; fill:none" points="735.182,1486.45 735.182,1467.55 "></polyline>
<polyline clip-path="url(#clip530)" style="stroke:#000000; stroke-linecap:round; stroke-linejoin:round; stroke-width:4; stroke-opacity:1; fill:none" points="1253.64,1486.45 1253.64,1467.55 "></polyline>
<polyline clip-path="url(#clip530)" style="stroke:#000000; stroke-linecap:round; stroke-linejoin:round; stroke-width:4; stroke-opacity:1; fill:none" points="1772.09,1486.45 1772.09,1467.55 "></polyline>
<polyline clip-path="url(#clip530)" style="stroke:#000000; stroke-linecap:round; stroke-linejoin:round; stroke-width:4; stroke-opacity:1; fill:none" points="2290.54,1486.45 2290.54,1467.55 "></polyline>
<path clip-path="url(#clip530)" d="M179.033 1517.37 Q175.422 1517.37 173.593 1520.93 Q171.787 1524.47 171.787 1531.6 Q171.787 1538.71 173.593 1542.27 Q175.422 1545.82 179.033 1545.82 Q182.667 1545.82 184.473 1542.27 Q186.301 1538.71 186.301 1531.6 Q186.301 1524.47 184.473 1520.93 Q182.667 1517.37 179.033 1517.37 M179.033 1513.66 Q184.843 1513.66 187.898 1518.27 Q190.977 1522.85 190.977 1531.6 Q190.977 1540.33 187.898 1544.94 Q184.843 1549.52 179.033 1549.52 Q173.223 1549.52 170.144 1544.94 Q167.088 1540.33 167.088 1531.6 Q167.088 1522.85 170.144 1518.27 Q173.223 1513.66 179.033 1513.66 Z" fill="#000000" fill-rule="nonzero" fill-opacity="1"></path><path clip-path="url(#clip530)" d="M199.195 1542.97 L204.079 1542.97 L204.079 1548.85 L199.195 1548.85 L199.195 1542.97 Z" fill="#000000" fill-rule="nonzero" fill-opacity="1"></path><path clip-path="url(#clip530)" d="M224.264 1517.37 Q220.653 1517.37 218.824 1520.93 Q217.019 1524.47 217.019 1531.6 Q217.019 1538.71 218.824 1542.27 Q220.653 1545.82 224.264 1545.82 Q227.898 1545.82 229.704 1542.27 Q231.532 1538.71 231.532 1531.6 Q231.532 1524.47 229.704 1520.93 Q227.898 1517.37 224.264 1517.37 M224.264 1513.66 Q230.074 1513.66 233.13 1518.27 Q236.208 1522.85 236.208 1531.6 Q236.208 1540.33 233.13 1544.94 Q230.074 1549.52 224.264 1549.52 Q218.454 1549.52 215.375 1544.94 Q212.32 1540.33 212.32 1531.6 Q212.32 1522.85 215.375 1518.27 Q218.454 1513.66 224.264 1513.66 Z" fill="#000000" fill-rule="nonzero" fill-opacity="1"></path><path clip-path="url(#clip530)" d="M254.426 1517.37 Q250.815 1517.37 248.986 1520.93 Q247.181 1524.47 247.181 1531.6 Q247.181 1538.71 248.986 1542.27 Q250.815 1545.82 254.426 1545.82 Q258.06 1545.82 259.866 1542.27 Q261.694 1538.71 261.694 1531.6 Q261.694 1524.47 259.866 1520.93 Q258.06 1517.37 254.426 1517.37 M254.426 1513.66 Q260.236 1513.66 263.292 1518.27 Q266.37 1522.85 266.37 1531.6 Q266.37 1540.33 263.292 1544.94 Q260.236 1549.52 254.426 1549.52 Q248.616 1549.52 245.537 1544.94 Q242.481 1540.33 242.481 1531.6 Q242.481 1522.85 245.537 1518.27 Q248.616 1513.66 254.426 1513.66 Z" fill="#000000" fill-rule="nonzero" fill-opacity="1"></path><path clip-path="url(#clip530)" d="M697.983 1517.37 Q694.372 1517.37 692.544 1520.93 Q690.738 1524.47 690.738 1531.6 Q690.738 1538.71 692.544 1542.27 Q694.372 1545.82 697.983 1545.82 Q701.618 1545.82 703.423 1542.27 Q705.252 1538.71 705.252 1531.6 Q705.252 1524.47 703.423 1520.93 Q701.618 1517.37 697.983 1517.37 M697.983 1513.66 Q703.794 1513.66 706.849 1518.27 Q709.928 1522.85 709.928 1531.6 Q709.928 1540.33 706.849 1544.94 Q703.794 1549.52 697.983 1549.52 Q692.173 1549.52 689.095 1544.94 Q686.039 1540.33 686.039 1531.6 Q686.039 1522.85 689.095 1518.27 Q692.173 1513.66 697.983 1513.66 Z" fill="#000000" fill-rule="nonzero" fill-opacity="1"></path><path clip-path="url(#clip530)" d="M718.145 1542.97 L723.03 1542.97 L723.03 1548.85 L718.145 1548.85 L718.145 1542.97 Z" fill="#000000" fill-rule="nonzero" fill-opacity="1"></path><path clip-path="url(#clip530)" d="M737.243 1544.91 L753.562 1544.91 L753.562 1548.85 L731.618 1548.85 L731.618 1544.91 Q734.28 1542.16 738.863 1537.53 Q743.469 1532.88 744.65 1531.53 Q746.895 1529.01 747.775 1527.27 Q748.678 1525.51 748.678 1523.82 Q748.678 1521.07 746.733 1519.33 Q744.812 1517.6 741.71 1517.6 Q739.511 1517.6 737.057 1518.36 Q734.627 1519.13 731.849 1520.68 L731.849 1515.95 Q734.673 1514.82 737.127 1514.24 Q739.58 1513.66 741.617 1513.66 Q746.988 1513.66 750.182 1516.35 Q753.377 1519.03 753.377 1523.52 Q753.377 1525.65 752.567 1527.57 Q751.779 1529.47 749.673 1532.07 Q749.094 1532.74 745.992 1535.95 Q742.891 1539.15 737.243 1544.91 Z" fill="#000000" fill-rule="nonzero" fill-opacity="1"></path><path clip-path="url(#clip530)" d="M763.423 1514.29 L781.779 1514.29 L781.779 1518.22 L767.705 1518.22 L767.705 1526.7 Q768.724 1526.35 769.742 1526.19 Q770.761 1526 771.779 1526 Q777.566 1526 780.946 1529.17 Q784.326 1532.34 784.326 1537.76 Q784.326 1543.34 780.853 1546.44 Q777.381 1549.52 771.062 1549.52 Q768.886 1549.52 766.617 1549.15 Q764.372 1548.78 761.965 1548.04 L761.965 1543.34 Q764.048 1544.47 766.27 1545.03 Q768.492 1545.58 770.969 1545.58 Q774.974 1545.58 777.312 1543.48 Q779.65 1541.37 779.65 1537.76 Q779.65 1534.15 777.312 1532.04 Q774.974 1529.94 770.969 1529.94 Q769.094 1529.94 767.219 1530.35 Q765.367 1530.77 763.423 1531.65 L763.423 1514.29 Z" fill="#000000" fill-rule="nonzero" fill-opacity="1"></path><path clip-path="url(#clip530)" d="M1215.94 1517.37 Q1212.33 1517.37 1210.5 1520.93 Q1208.69 1524.47 1208.69 1531.6 Q1208.69 1538.71 1210.5 1542.27 Q1212.33 1545.82 1215.94 1545.82 Q1219.57 1545.82 1221.38 1542.27 Q1223.21 1538.71 1223.21 1531.6 Q1223.21 1524.47 1221.38 1520.93 Q1219.57 1517.37 1215.94 1517.37 M1215.94 1513.66 Q1221.75 1513.66 1224.8 1518.27 Q1227.88 1522.85 1227.88 1531.6 Q1227.88 1540.33 1224.8 1544.94 Q1221.75 1549.52 1215.94 1549.52 Q1210.13 1549.52 1207.05 1544.94 Q1203.99 1540.33 1203.99 1531.6 Q1203.99 1522.85 1207.05 1518.27 Q1210.13 1513.66 1215.94 1513.66 Z" fill="#000000" fill-rule="nonzero" fill-opacity="1"></path><path clip-path="url(#clip530)" d="M1236.1 1542.97 L1240.99 1542.97 L1240.99 1548.85 L1236.1 1548.85 L1236.1 1542.97 Z" fill="#000000" fill-rule="nonzero" fill-opacity="1"></path><path clip-path="url(#clip530)" d="M1251.22 1514.29 L1269.57 1514.29 L1269.57 1518.22 L1255.5 1518.22 L1255.5 1526.7 Q1256.52 1526.35 1257.54 1526.19 Q1258.55 1526 1259.57 1526 Q1265.36 1526 1268.74 1529.17 Q1272.12 1532.34 1272.12 1537.76 Q1272.12 1543.34 1268.65 1546.44 Q1265.17 1549.52 1258.86 1549.52 Q1256.68 1549.52 1254.41 1549.15 Q1252.17 1548.78 1249.76 1548.04 L1249.76 1543.34 Q1251.84 1544.47 1254.06 1545.03 Q1256.29 1545.58 1258.76 1545.58 Q1262.77 1545.58 1265.11 1543.48 Q1267.44 1541.37 1267.44 1537.76 Q1267.44 1534.15 1265.11 1532.04 Q1262.77 1529.94 1258.76 1529.94 Q1256.89 1529.94 1255.01 1530.35 Q1253.16 1530.77 1251.22 1531.65 L1251.22 1514.29 Z" fill="#000000" fill-rule="nonzero" fill-opacity="1"></path><path clip-path="url(#clip530)" d="M1291.33 1517.37 Q1287.72 1517.37 1285.89 1520.93 Q1284.09 1524.47 1284.09 1531.6 Q1284.09 1538.71 1285.89 1542.27 Q1287.72 1545.82 1291.33 1545.82 Q1294.97 1545.82 1296.77 1542.27 Q1298.6 1538.71 1298.6 1531.6 Q1298.6 1524.47 1296.77 1520.93 Q1294.97 1517.37 1291.33 1517.37 M1291.33 1513.66 Q1297.14 1513.66 1300.2 1518.27 Q1303.28 1522.85 1303.28 1531.6 Q1303.28 1540.33 1300.2 1544.94 Q1297.14 1549.52 1291.33 1549.52 Q1285.52 1549.52 1282.44 1544.94 Q1279.39 1540.33 1279.39 1531.6 Q1279.39 1522.85 1282.44 1518.27 Q1285.52 1513.66 1291.33 1513.66 Z" fill="#000000" fill-rule="nonzero" fill-opacity="1"></path><path clip-path="url(#clip530)" d="M1734.89 1517.37 Q1731.28 1517.37 1729.45 1520.93 Q1727.64 1524.47 1727.64 1531.6 Q1727.64 1538.71 1729.45 1542.27 Q1731.28 1545.82 1734.89 1545.82 Q1738.52 1545.82 1740.33 1542.27 Q1742.16 1538.71 1742.16 1531.6 Q1742.16 1524.47 1740.33 1520.93 Q1738.52 1517.37 1734.89 1517.37 M1734.89 1513.66 Q1740.7 1513.66 1743.76 1518.27 Q1746.83 1522.85 1746.83 1531.6 Q1746.83 1540.33 1743.76 1544.94 Q1740.7 1549.52 1734.89 1549.52 Q1729.08 1549.52 1726 1544.94 Q1722.95 1540.33 1722.95 1531.6 Q1722.95 1522.85 1726 1518.27 Q1729.08 1513.66 1734.89 1513.66 Z" fill="#000000" fill-rule="nonzero" fill-opacity="1"></path><path clip-path="url(#clip530)" d="M1755.05 1542.97 L1759.94 1542.97 L1759.94 1548.85 L1755.05 1548.85 L1755.05 1542.97 Z" fill="#000000" fill-rule="nonzero" fill-opacity="1"></path><path clip-path="url(#clip530)" d="M1768.94 1514.29 L1791.16 1514.29 L1791.16 1516.28 L1778.62 1548.85 L1773.73 1548.85 L1785.54 1518.22 L1768.94 1518.22 L1768.94 1514.29 Z" fill="#000000" fill-rule="nonzero" fill-opacity="1"></path><path clip-path="url(#clip530)" d="M1800.33 1514.29 L1818.69 1514.29 L1818.69 1518.22 L1804.61 1518.22 L1804.61 1526.7 Q1805.63 1526.35 1806.65 1526.19 Q1807.67 1526 1808.69 1526 Q1814.47 1526 1817.85 1529.17 Q1821.23 1532.34 1821.23 1537.76 Q1821.23 1543.34 1817.76 1546.44 Q1814.29 1549.52 1807.97 1549.52 Q1805.79 1549.52 1803.52 1549.15 Q1801.28 1548.78 1798.87 1548.04 L1798.87 1543.34 Q1800.95 1544.47 1803.18 1545.03 Q1805.4 1545.58 1807.88 1545.58 Q1811.88 1545.58 1814.22 1543.48 Q1816.56 1541.37 1816.56 1537.76 Q1816.56 1534.15 1814.22 1532.04 Q1811.88 1529.94 1807.88 1529.94 Q1806 1529.94 1804.13 1530.35 Q1802.27 1530.77 1800.33 1531.65 L1800.33 1514.29 Z" fill="#000000" fill-rule="nonzero" fill-opacity="1"></path><path clip-path="url(#clip530)" d="M2242.61 1544.91 L2250.25 1544.91 L2250.25 1518.55 L2241.94 1520.21 L2241.94 1515.95 L2250.21 1514.29 L2254.88 1514.29 L2254.88 1544.91 L2262.52 1544.91 L2262.52 1548.85 L2242.61 1548.85 L2242.61 1544.91 Z" fill="#000000" fill-rule="nonzero" fill-opacity="1"></path><path clip-path="url(#clip530)" d="M2271.97 1542.97 L2276.85 1542.97 L2276.85 1548.85 L2271.97 1548.85 L2271.97 1542.97 Z" fill="#000000" fill-rule="nonzero" fill-opacity="1"></path><path clip-path="url(#clip530)" d="M2297.03 1517.37 Q2293.42 1517.37 2291.59 1520.93 Q2289.79 1524.47 2289.79 1531.6 Q2289.79 1538.71 2291.59 1542.27 Q2293.42 1545.82 2297.03 1545.82 Q2300.67 1545.82 2302.47 1542.27 Q2304.3 1538.71 2304.3 1531.6 Q2304.3 1524.47 2302.47 1520.93 Q2300.67 1517.37 2297.03 1517.37 M2297.03 1513.66 Q2302.84 1513.66 2305.9 1518.27 Q2308.98 1522.85 2308.98 1531.6 Q2308.98 1540.33 2305.9 1544.94 Q2302.84 1549.52 2297.03 1549.52 Q2291.22 1549.52 2288.15 1544.94 Q2285.09 1540.33 2285.09 1531.6 Q2285.09 1522.85 2288.15 1518.27 Q2291.22 1513.66 2297.03 1513.66 Z" fill="#000000" fill-rule="nonzero" fill-opacity="1"></path><path clip-path="url(#clip530)" d="M2327.2 1517.37 Q2323.59 1517.37 2321.76 1520.93 Q2319.95 1524.47 2319.95 1531.6 Q2319.95 1538.71 2321.76 1542.27 Q2323.59 1545.82 2327.2 1545.82 Q2330.83 1545.82 2332.64 1542.27 Q2334.46 1538.71 2334.46 1531.6 Q2334.46 1524.47 2332.64 1520.93 Q2330.83 1517.37 2327.2 1517.37 M2327.2 1513.66 Q2333.01 1513.66 2336.06 1518.27 Q2339.14 1522.85 2339.14 1531.6 Q2339.14 1540.33 2336.06 1544.94 Q2333.01 1549.52 2327.2 1549.52 Q2321.39 1549.52 2318.31 1544.94 Q2315.25 1540.33 2315.25 1531.6 Q2315.25 1522.85 2318.31 1518.27 Q2321.39 1513.66 2327.2 1513.66 Z" fill="#000000" fill-rule="nonzero" fill-opacity="1"></path><polyline clip-path="url(#clip532)" style="stroke:#000000; stroke-linecap:round; stroke-linejoin:round; stroke-width:2; stroke-opacity:0.1; fill:none" points="154.515,1460.08 2352.76,1460.08 "></polyline>
<polyline clip-path="url(#clip532)" style="stroke:#000000; stroke-linecap:round; stroke-linejoin:round; stroke-width:2; stroke-opacity:0.1; fill:none" points="154.515,1117.06 2352.76,1117.06 "></polyline>
<polyline clip-path="url(#clip532)" style="stroke:#000000; stroke-linecap:round; stroke-linejoin:round; stroke-width:2; stroke-opacity:0.1; fill:none" points="154.515,774.031 2352.76,774.031 "></polyline>
<polyline clip-path="url(#clip532)" style="stroke:#000000; stroke-linecap:round; stroke-linejoin:round; stroke-width:2; stroke-opacity:0.1; fill:none" points="154.515,431.003 2352.76,431.003 "></polyline>
<polyline clip-path="url(#clip532)" style="stroke:#000000; stroke-linecap:round; stroke-linejoin:round; stroke-width:2; stroke-opacity:0.1; fill:none" points="154.515,87.9763 2352.76,87.9763 "></polyline>
<polyline clip-path="url(#clip530)" style="stroke:#000000; stroke-linecap:round; stroke-linejoin:round; stroke-width:4; stroke-opacity:1; fill:none" points="154.515,1486.45 154.515,47.2441 "></polyline>
<polyline clip-path="url(#clip530)" style="stroke:#000000; stroke-linecap:round; stroke-linejoin:round; stroke-width:4; stroke-opacity:1; fill:none" points="154.515,1460.08 173.413,1460.08 "></polyline>
<polyline clip-path="url(#clip530)" style="stroke:#000000; stroke-linecap:round; stroke-linejoin:round; stroke-width:4; stroke-opacity:1; fill:none" points="154.515,1117.06 173.413,1117.06 "></polyline>
<polyline clip-path="url(#clip530)" style="stroke:#000000; stroke-linecap:round; stroke-linejoin:round; stroke-width:4; stroke-opacity:1; fill:none" points="154.515,774.031 173.413,774.031 "></polyline>
<polyline clip-path="url(#clip530)" style="stroke:#000000; stroke-linecap:round; stroke-linejoin:round; stroke-width:4; stroke-opacity:1; fill:none" points="154.515,431.003 173.413,431.003 "></polyline>
<polyline clip-path="url(#clip530)" style="stroke:#000000; stroke-linecap:round; stroke-linejoin:round; stroke-width:4; stroke-opacity:1; fill:none" points="154.515,87.9763 173.413,87.9763 "></polyline>
<path clip-path="url(#clip530)" d="M53.3764 1473.43 L61.0152 1473.43 L61.0152 1447.06 L52.7051 1448.73 L52.7051 1444.47 L60.9689 1442.8 L65.6448 1442.8 L65.6448 1473.43 L73.2837 1473.43 L73.2837 1477.36 L53.3764 1477.36 L53.3764 1473.43 Z" fill="#000000" fill-rule="nonzero" fill-opacity="1"></path><path clip-path="url(#clip530)" d="M82.7281 1471.49 L87.6123 1471.49 L87.6123 1477.36 L82.7281 1477.36 L82.7281 1471.49 Z" fill="#000000" fill-rule="nonzero" fill-opacity="1"></path><path clip-path="url(#clip530)" d="M98.6076 1473.43 L106.246 1473.43 L106.246 1447.06 L97.9363 1448.73 L97.9363 1444.47 L106.2 1442.8 L110.876 1442.8 L110.876 1473.43 L118.515 1473.43 L118.515 1477.36 L98.6076 1477.36 L98.6076 1473.43 Z" fill="#000000" fill-rule="nonzero" fill-opacity="1"></path><path clip-path="url(#clip530)" d="M53.7467 1130.4 L61.3856 1130.4 L61.3856 1104.04 L53.0754 1105.7 L53.0754 1101.44 L61.3393 1099.78 L66.0152 1099.78 L66.0152 1130.4 L73.654 1130.4 L73.654 1134.34 L53.7467 1134.34 L53.7467 1130.4 Z" fill="#000000" fill-rule="nonzero" fill-opacity="1"></path><path clip-path="url(#clip530)" d="M83.0984 1128.46 L87.9827 1128.46 L87.9827 1134.34 L83.0984 1134.34 L83.0984 1128.46 Z" fill="#000000" fill-rule="nonzero" fill-opacity="1"></path><path clip-path="url(#clip530)" d="M102.196 1130.4 L118.515 1130.4 L118.515 1134.34 L96.5706 1134.34 L96.5706 1130.4 Q99.2326 1127.65 103.816 1123.02 Q108.422 1118.37 109.603 1117.02 Q111.848 1114.5 112.728 1112.76 Q113.631 1111 113.631 1109.31 Q113.631 1106.56 111.686 1104.82 Q109.765 1103.09 106.663 1103.09 Q104.464 1103.09 102.01 1103.85 Q99.5798 1104.62 96.8021 1106.17 L96.8021 1101.44 Q99.6261 1100.31 102.08 1099.73 Q104.534 1099.15 106.571 1099.15 Q111.941 1099.15 115.135 1101.84 Q118.33 1104.52 118.33 1109.01 Q118.33 1111.14 117.52 1113.06 Q116.733 1114.96 114.626 1117.56 Q114.047 1118.23 110.946 1121.44 Q107.844 1124.64 102.196 1130.4 Z" fill="#000000" fill-rule="nonzero" fill-opacity="1"></path><path clip-path="url(#clip530)" d="M52.7977 787.375 L60.4365 787.375 L60.4365 761.01 L52.1264 762.676 L52.1264 758.417 L60.3902 756.751 L65.0661 756.751 L65.0661 787.375 L72.705 787.375 L72.705 791.311 L52.7977 791.311 L52.7977 787.375 Z" fill="#000000" fill-rule="nonzero" fill-opacity="1"></path><path clip-path="url(#clip530)" d="M82.1494 785.431 L87.0336 785.431 L87.0336 791.311 L82.1494 791.311 L82.1494 785.431 Z" fill="#000000" fill-rule="nonzero" fill-opacity="1"></path><path clip-path="url(#clip530)" d="M111.385 772.676 Q114.742 773.394 116.617 775.663 Q118.515 777.931 118.515 781.264 Q118.515 786.38 114.996 789.181 Q111.478 791.982 104.996 791.982 Q102.821 791.982 100.506 791.542 Q98.2141 791.125 95.7604 790.269 L95.7604 785.755 Q97.7048 786.889 100.02 787.468 Q102.334 788.047 104.858 788.047 Q109.256 788.047 111.547 786.311 Q113.862 784.574 113.862 781.264 Q113.862 778.209 111.709 776.496 Q109.58 774.76 105.76 774.76 L101.733 774.76 L101.733 770.917 L105.946 770.917 Q109.395 770.917 111.223 769.551 Q113.052 768.163 113.052 765.57 Q113.052 762.908 111.154 761.496 Q109.279 760.061 105.76 760.061 Q103.839 760.061 101.64 760.477 Q99.4409 760.894 96.8021 761.774 L96.8021 757.607 Q99.4641 756.866 101.779 756.496 Q104.117 756.126 106.177 756.126 Q111.501 756.126 114.603 758.556 Q117.705 760.964 117.705 765.084 Q117.705 767.954 116.061 769.945 Q114.418 771.913 111.385 772.676 Z" fill="#000000" fill-rule="nonzero" fill-opacity="1"></path><path clip-path="url(#clip530)" d="M51.6634 444.348 L59.3023 444.348 L59.3023 417.983 L50.9921 419.649 L50.9921 415.39 L59.256 413.723 L63.9319 413.723 L63.9319 444.348 L71.5707 444.348 L71.5707 448.283 L51.6634 448.283 L51.6634 444.348 Z" fill="#000000" fill-rule="nonzero" fill-opacity="1"></path><path clip-path="url(#clip530)" d="M81.0151 442.404 L85.8993 442.404 L85.8993 448.283 L81.0151 448.283 L81.0151 442.404 Z" fill="#000000" fill-rule="nonzero" fill-opacity="1"></path><path clip-path="url(#clip530)" d="M108.932 417.797 L97.1261 436.246 L108.932 436.246 L108.932 417.797 M107.705 413.723 L113.584 413.723 L113.584 436.246 L118.515 436.246 L118.515 440.135 L113.584 440.135 L113.584 448.283 L108.932 448.283 L108.932 440.135 L93.3299 440.135 L93.3299 435.621 L107.705 413.723 Z" fill="#000000" fill-rule="nonzero" fill-opacity="1"></path><path clip-path="url(#clip530)" d="M53.1449 101.321 L60.7837 101.321 L60.7837 74.9555 L52.4736 76.6222 L52.4736 72.3629 L60.7374 70.6963 L65.4133 70.6963 L65.4133 101.321 L73.0522 101.321 L73.0522 105.256 L53.1449 105.256 L53.1449 101.321 Z" fill="#000000" fill-rule="nonzero" fill-opacity="1"></path><path clip-path="url(#clip530)" d="M82.4966 99.3767 L87.3808 99.3767 L87.3808 105.256 L82.4966 105.256 L82.4966 99.3767 Z" fill="#000000" fill-rule="nonzero" fill-opacity="1"></path><path clip-path="url(#clip530)" d="M97.6122 70.6963 L115.969 70.6963 L115.969 74.6314 L101.895 74.6314 L101.895 83.1036 Q102.913 82.7564 103.932 82.5944 Q104.95 82.4092 105.969 82.4092 Q111.756 82.4092 115.135 85.5805 Q118.515 88.7517 118.515 94.1684 Q118.515 99.747 115.043 102.849 Q111.571 105.928 105.251 105.928 Q103.075 105.928 100.807 105.557 Q98.5613 105.187 96.1539 104.446 L96.1539 99.747 Q98.2372 100.881 100.459 101.437 Q102.682 101.992 105.159 101.992 Q109.163 101.992 111.501 99.8859 Q113.839 97.7795 113.839 94.1684 Q113.839 90.5573 111.501 88.4508 Q109.163 86.3443 105.159 86.3443 Q103.284 86.3443 101.409 86.761 Q99.5567 87.1777 97.6122 88.0573 L97.6122 70.6963 Z" fill="#000000" fill-rule="nonzero" fill-opacity="1"></path><circle clip-path="url(#clip532)" cx="2280.88" cy="450.626" r="14.4" fill="#009af9" fill-rule="evenodd" fill-opacity="1" stroke="#000000" stroke-opacity="1" stroke-width="3.2"></circle>
<circle clip-path="url(#clip532)" cx="682.616" cy="1370.77" r="14.4" fill="#009af9" fill-rule="evenodd" fill-opacity="1" stroke="#000000" stroke-opacity="1" stroke-width="3.2"></circle>
<circle clip-path="url(#clip532)" cx="1001.27" cy="1434.81" r="14.4" fill="#009af9" fill-rule="evenodd" fill-opacity="1" stroke="#000000" stroke-opacity="1" stroke-width="3.2"></circle>
<circle clip-path="url(#clip532)" cx="851.651" cy="1415.1" r="14.4" fill="#009af9" fill-rule="evenodd" fill-opacity="1" stroke="#000000" stroke-opacity="1" stroke-width="3.2"></circle>
<circle clip-path="url(#clip532)" cx="2284.69" cy="320.594" r="14.4" fill="#009af9" fill-rule="evenodd" fill-opacity="1" stroke="#000000" stroke-opacity="1" stroke-width="3.2"></circle>
<circle clip-path="url(#clip532)" cx="240.383" cy="599.412" r="14.4" fill="#009af9" fill-rule="evenodd" fill-opacity="1" stroke="#000000" stroke-opacity="1" stroke-width="3.2"></circle>
<circle clip-path="url(#clip532)" cx="2287.82" cy="189.668" r="14.4" fill="#009af9" fill-rule="evenodd" fill-opacity="1" stroke="#000000" stroke-opacity="1" stroke-width="3.2"></circle>
<circle clip-path="url(#clip532)" cx="2031.21" cy="1251.3" r="14.4" fill="#009af9" fill-rule="evenodd" fill-opacity="1" stroke="#000000" stroke-opacity="1" stroke-width="3.2"></circle>
<circle clip-path="url(#clip532)" cx="2082.67" cy="1177.34" r="14.4" fill="#009af9" fill-rule="evenodd" fill-opacity="1" stroke="#000000" stroke-opacity="1" stroke-width="3.2"></circle>
<circle clip-path="url(#clip532)" cx="1133.86" cy="1442.23" r="14.4" fill="#009af9" fill-rule="evenodd" fill-opacity="1" stroke="#000000" stroke-opacity="1" stroke-width="3.2"></circle>
<circle clip-path="url(#clip532)" cx="1439.46" cy="1438.81" r="14.4" fill="#009af9" fill-rule="evenodd" fill-opacity="1" stroke="#000000" stroke-opacity="1" stroke-width="3.2"></circle>
<circle clip-path="url(#clip532)" cx="377.288" cy="1094.32" r="14.4" fill="#009af9" fill-rule="evenodd" fill-opacity="1" stroke="#000000" stroke-opacity="1" stroke-width="3.2"></circle>
<circle clip-path="url(#clip532)" cx="295.496" cy="870.253" r="14.4" fill="#009af9" fill-rule="evenodd" fill-opacity="1" stroke="#000000" stroke-opacity="1" stroke-width="3.2"></circle>
<circle clip-path="url(#clip532)" cx="2131.45" cy="1092.77" r="14.4" fill="#009af9" fill-rule="evenodd" fill-opacity="1" stroke="#000000" stroke-opacity="1" stroke-width="3.2"></circle>
<circle clip-path="url(#clip532)" cx="634.833" cy="1350.67" r="14.4" fill="#009af9" fill-rule="evenodd" fill-opacity="1" stroke="#000000" stroke-opacity="1" stroke-width="3.2"></circle>
<circle clip-path="url(#clip532)" cx="477.742" cy="1251.51" r="14.4" fill="#009af9" fill-rule="evenodd" fill-opacity="1" stroke="#000000" stroke-opacity="1" stroke-width="3.2"></circle>
<circle clip-path="url(#clip532)" cx="2268.17" cy="597.777" r="14.4" fill="#009af9" fill-rule="evenodd" fill-opacity="1" stroke="#000000" stroke-opacity="1" stroke-width="3.2"></circle>
<circle clip-path="url(#clip532)" cx="1313.21" cy="1444.83" r="14.4" fill="#009af9" fill-rule="evenodd" fill-opacity="1" stroke="#000000" stroke-opacity="1" stroke-width="3.2"></circle>
<circle clip-path="url(#clip532)" cx="727.072" cy="1379.24" r="14.4" fill="#009af9" fill-rule="evenodd" fill-opacity="1" stroke="#000000" stroke-opacity="1" stroke-width="3.2"></circle>
<circle clip-path="url(#clip532)" cx="216.729" cy="87.9763" r="14.4" fill="#009af9" fill-rule="evenodd" fill-opacity="1" stroke="#000000" stroke-opacity="1" stroke-width="3.2"></circle>
<circle clip-path="url(#clip532)" cx="2272.33" cy="248.929" r="14.4" fill="#009af9" fill-rule="evenodd" fill-opacity="1" stroke="#000000" stroke-opacity="1" stroke-width="3.2"></circle>
<circle clip-path="url(#clip532)" cx="2173.71" cy="982.765" r="14.4" fill="#009af9" fill-rule="evenodd" fill-opacity="1" stroke="#000000" stroke-opacity="1" stroke-width="3.2"></circle>
<circle clip-path="url(#clip532)" cx="1781.63" cy="1380.8" r="14.4" fill="#009af9" fill-rule="evenodd" fill-opacity="1" stroke="#000000" stroke-opacity="1" stroke-width="3.2"></circle>
<circle clip-path="url(#clip532)" cx="1254.32" cy="1445.72" r="14.4" fill="#009af9" fill-rule="evenodd" fill-opacity="1" stroke="#000000" stroke-opacity="1" stroke-width="3.2"></circle>
<circle clip-path="url(#clip532)" cx="1195.44" cy="1444.84" r="14.4" fill="#009af9" fill-rule="evenodd" fill-opacity="1" stroke="#000000" stroke-opacity="1" stroke-width="3.2"></circle>
<circle clip-path="url(#clip532)" cx="334.38" cy="983.872" r="14.4" fill="#009af9" fill-rule="evenodd" fill-opacity="1" stroke="#000000" stroke-opacity="1" stroke-width="3.2"></circle>
<circle clip-path="url(#clip532)" cx="1873.96" cy="1350.78" r="14.4" fill="#009af9" fill-rule="evenodd" fill-opacity="1" stroke="#000000" stroke-opacity="1" stroke-width="3.2"></circle>
<circle clip-path="url(#clip532)" cx="1657.07" cy="1414.85" r="14.4" fill="#009af9" fill-rule="evenodd" fill-opacity="1" stroke="#000000" stroke-opacity="1" stroke-width="3.2"></circle>
<circle clip-path="url(#clip532)" cx="1738.69" cy="1393.71" r="14.4" fill="#009af9" fill-rule="evenodd" fill-opacity="1" stroke="#000000" stroke-opacity="1" stroke-width="3.2"></circle>
<circle clip-path="url(#clip532)" cx="251.449" cy="235.684" r="14.4" fill="#009af9" fill-rule="evenodd" fill-opacity="1" stroke="#000000" stroke-opacity="1" stroke-width="3.2"></circle>
<circle clip-path="url(#clip532)" cx="266.107" cy="738.811" r="14.4" fill="#009af9" fill-rule="evenodd" fill-opacity="1" stroke="#000000" stroke-opacity="1" stroke-width="3.2"></circle>
<circle clip-path="url(#clip532)" cx="2212.57" cy="869.844" r="14.4" fill="#009af9" fill-rule="evenodd" fill-opacity="1" stroke="#000000" stroke-opacity="1" stroke-width="3.2"></circle>
<circle clip-path="url(#clip532)" cx="928.681" cy="1428.73" r="14.4" fill="#009af9" fill-rule="evenodd" fill-opacity="1" stroke="#000000" stroke-opacity="1" stroke-width="3.2"></circle>
<circle clip-path="url(#clip532)" cx="1069.66" cy="1438.89" r="14.4" fill="#009af9" fill-rule="evenodd" fill-opacity="1" stroke="#000000" stroke-opacity="1" stroke-width="3.2"></circle>
<circle clip-path="url(#clip532)" cx="227.502" cy="453.859" r="14.4" fill="#009af9" fill-rule="evenodd" fill-opacity="1" stroke="#000000" stroke-opacity="1" stroke-width="3.2"></circle>
<circle clip-path="url(#clip532)" cx="1580.21" cy="1429.12" r="14.4" fill="#009af9" fill-rule="evenodd" fill-opacity="1" stroke="#000000" stroke-opacity="1" stroke-width="3.2"></circle>
<circle clip-path="url(#clip532)" cx="531.438" cy="1297.31" r="14.4" fill="#009af9" fill-rule="evenodd" fill-opacity="1" stroke="#000000" stroke-opacity="1" stroke-width="3.2"></circle>
<circle clip-path="url(#clip532)" cx="1374.63" cy="1442.59" r="14.4" fill="#009af9" fill-rule="evenodd" fill-opacity="1" stroke="#000000" stroke-opacity="1" stroke-width="3.2"></circle>
<circle clip-path="url(#clip532)" cx="2242.88" cy="737.276" r="14.4" fill="#009af9" fill-rule="evenodd" fill-opacity="1" stroke="#000000" stroke-opacity="1" stroke-width="3.2"></circle>
<circle clip-path="url(#clip532)" cx="1826.28" cy="1371.5" r="14.4" fill="#009af9" fill-rule="evenodd" fill-opacity="1" stroke="#000000" stroke-opacity="1" stroke-width="3.2"></circle>
<circle clip-path="url(#clip532)" cx="585.075" cy="1332.07" r="14.4" fill="#009af9" fill-rule="evenodd" fill-opacity="1" stroke="#000000" stroke-opacity="1" stroke-width="3.2"></circle>
<circle clip-path="url(#clip532)" cx="2290.54" cy="87.9763" r="14.4" fill="#009af9" fill-rule="evenodd" fill-opacity="1" stroke="#000000" stroke-opacity="1" stroke-width="3.2"></circle>
<circle clip-path="url(#clip532)" cx="1507.42" cy="1435.27" r="14.4" fill="#009af9" fill-rule="evenodd" fill-opacity="1" stroke="#000000" stroke-opacity="1" stroke-width="3.2"></circle>
<circle clip-path="url(#clip532)" cx="220.548" cy="194.507" r="14.4" fill="#009af9" fill-rule="evenodd" fill-opacity="1" stroke="#000000" stroke-opacity="1" stroke-width="3.2"></circle>
<circle clip-path="url(#clip532)" cx="1977.25" cy="1296.65" r="14.4" fill="#009af9" fill-rule="evenodd" fill-opacity="1" stroke="#000000" stroke-opacity="1" stroke-width="3.2"></circle>
<circle clip-path="url(#clip532)" cx="2288.98" cy="194.141" r="14.4" fill="#009af9" fill-rule="evenodd" fill-opacity="1" stroke="#000000" stroke-opacity="1" stroke-width="3.2"></circle>
<circle clip-path="url(#clip532)" cx="219.601" cy="198.838" r="14.4" fill="#009af9" fill-rule="evenodd" fill-opacity="1" stroke="#000000" stroke-opacity="1" stroke-width="3.2"></circle>
<circle clip-path="url(#clip532)" cx="769.925" cy="1392.95" r="14.4" fill="#009af9" fill-rule="evenodd" fill-opacity="1" stroke="#000000" stroke-opacity="1" stroke-width="3.2"></circle>
<circle clip-path="url(#clip532)" cx="426.071" cy="1178.37" r="14.4" fill="#009af9" fill-rule="evenodd" fill-opacity="1" stroke="#000000" stroke-opacity="1" stroke-width="3.2"></circle>
<circle clip-path="url(#clip532)" cx="223.656" cy="324.09" r="14.4" fill="#009af9" fill-rule="evenodd" fill-opacity="1" stroke="#000000" stroke-opacity="1" stroke-width="3.2"></circle>
<circle clip-path="url(#clip532)" cx="1924.03" cy="1331.93" r="14.4" fill="#009af9" fill-rule="evenodd" fill-opacity="1" stroke="#000000" stroke-opacity="1" stroke-width="3.2"></circle>
<path clip-path="url(#clip530)" d="M227.79 1438.47 L500.044 1438.47 L500.044 1334.79 L227.79 1334.79  Z" fill="#ffffff" fill-rule="evenodd" fill-opacity="1"></path>
<polyline clip-path="url(#clip530)" style="stroke:#000000; stroke-linecap:round; stroke-linejoin:round; stroke-width:4; stroke-opacity:1; fill:none" points="227.79,1438.47 500.044,1438.47 500.044,1334.79 227.79,1334.79 227.79,1438.47 "></polyline>
<circle clip-path="url(#clip530)" cx="325.489" cy="1386.63" r="20.48" fill="#009af9" fill-rule="evenodd" fill-opacity="1" stroke="#000000" stroke-opacity="1" stroke-width="4.55111"></circle>
<path clip-path="url(#clip530)" d="M437.031 1406.32 Q435.226 1410.95 433.513 1412.36 Q431.8 1413.78 428.93 1413.78 L425.527 1413.78 L425.527 1410.21 L428.027 1410.21 Q429.786 1410.21 430.758 1409.38 Q431.73 1408.54 432.911 1405.44 L433.675 1403.5 L423.189 1377.99 L427.703 1377.99 L435.804 1398.27 L443.906 1377.99 L448.42 1377.99 L437.031 1406.32 Z" fill="#000000" fill-rule="nonzero" fill-opacity="1"></path><path clip-path="url(#clip530)" d="M455.712 1399.98 L463.351 1399.98 L463.351 1373.61 L455.04 1375.28 L455.04 1371.02 L463.304 1369.35 L467.98 1369.35 L467.98 1399.98 L475.619 1399.98 L475.619 1403.91 L455.712 1403.91 L455.712 1399.98 Z" fill="#000000" fill-rule="nonzero" fill-opacity="1"></path></svg>