<svg xmlns="http://www.w3.org/2000/svg" xmlns:xlink="http://www.w3.org/1999/xlink" width="600" height="400" viewBox="0 0 2400 1600">
<defs>
  <clipPath id="clip450">
    <rect x="0" y="0" width="2400" height="1600"></rect>
  </clipPath>
</defs>
<path clip-path="url(#clip450)" d="M0 1600 L2400 1600 L2400 0 L0 0  Z" fill="#ffffff" fill-rule="evenodd" fill-opacity="1"></path>
<defs>
  <clipPath id="clip451">
    <rect x="480" y="0" width="1681" height="1600"></rect>
  </clipPath>
</defs>
<path clip-path="url(#clip450)" d="M193.936 1486.45 L2352.76 1486.45 L2352.76 47.2441 L193.936 47.2441  Z" fill="#ffffff" fill-rule="evenodd" fill-opacity="1"></path>
<defs>
  <clipPath id="clip452">
    <rect x="193" y="47" width="2160" height="1440"></rect>
  </clipPath>
</defs>
<polyline clip-path="url(#clip452)" style="stroke:#000000; stroke-linecap:round; stroke-linejoin:round; stroke-width:2; stroke-opacity:0.1; fill:none" points="272.165,1486.45 272.165,47.2441 "></polyline>
<polyline clip-path="url(#clip452)" style="stroke:#000000; stroke-linecap:round; stroke-linejoin:round; stroke-width:2; stroke-opacity:0.1; fill:none" points="772.16,1486.45 772.16,47.2441 "></polyline>
<polyline clip-path="url(#clip452)" style="stroke:#000000; stroke-linecap:round; stroke-linejoin:round; stroke-width:2; stroke-opacity:0.1; fill:none" points="1272.15,1486.45 1272.15,47.2441 "></polyline>
<polyline clip-path="url(#clip452)" style="stroke:#000000; stroke-linecap:round; stroke-linejoin:round; stroke-width:2; stroke-opacity:0.1; fill:none" points="1772.15,1486.45 1772.15,47.2441 "></polyline>
<polyline clip-path="url(#clip452)" style="stroke:#000000; stroke-linecap:round; stroke-linejoin:round; stroke-width:2; stroke-opacity:0.1; fill:none" points="2272.14,1486.45 2272.14,47.2441 "></polyline>
<polyline clip-path="url(#clip450)" style="stroke:#000000; stroke-linecap:round; stroke-linejoin:round; stroke-width:4; stroke-opacity:1; fill:none" points="193.936,1486.45 2352.76,1486.45 "></polyline>
<polyline clip-path="url(#clip450)" style="stroke:#000000; stroke-linecap:round; stroke-linejoin:round; stroke-width:4; stroke-opacity:1; fill:none" points="272.165,1486.45 272.165,1467.55 "></polyline>
<polyline clip-path="url(#clip450)" style="stroke:#000000; stroke-linecap:round; stroke-linejoin:round; stroke-width:4; stroke-opacity:1; fill:none" points="772.16,1486.45 772.16,1467.55 "></polyline>
<polyline clip-path="url(#clip450)" style="stroke:#000000; stroke-linecap:round; stroke-linejoin:round; stroke-width:4; stroke-opacity:1; fill:none" points="1272.15,1486.45 1272.15,1467.55 "></polyline>
<polyline clip-path="url(#clip450)" style="stroke:#000000; stroke-linecap:round; stroke-linejoin:round; stroke-width:4; stroke-opacity:1; fill:none" points="1772.15,1486.45 1772.15,1467.55 "></polyline>
<polyline clip-path="url(#clip450)" style="stroke:#000000; stroke-linecap:round; stroke-linejoin:round; stroke-width:4; stroke-opacity:1; fill:none" points="2272.14,1486.45 2272.14,1467.55 "></polyline>
<path clip-path="url(#clip450)" d="M234.469 1517.37 Q230.858 1517.37 229.029 1520.93 Q227.223 1524.47 227.223 1531.6 Q227.223 1538.71 229.029 1542.27 Q230.858 1545.82 234.469 1545.82 Q238.103 1545.82 239.908 1542.27 Q241.737 1538.71 241.737 1531.6 Q241.737 1524.47 239.908 1520.93 Q238.103 1517.37 234.469 1517.37 M234.469 1513.66 Q240.279 1513.66 243.334 1518.27 Q246.413 1522.85 246.413 1531.6 Q246.413 1540.33 243.334 1544.94 Q240.279 1549.52 234.469 1549.52 Q228.658 1549.52 225.58 1544.94 Q222.524 1540.33 222.524 1531.6 Q222.524 1522.85 225.58 1518.27 Q228.658 1513.66 234.469 1513.66 Z" fill="#000000" fill-rule="nonzero" fill-opacity="1"></path><path clip-path="url(#clip450)" d="M254.631 1542.97 L259.515 1542.97 L259.515 1548.85 L254.631 1548.85 L254.631 1542.97 Z" fill="#000000" fill-rule="nonzero" fill-opacity="1"></path><path clip-path="url(#clip450)" d="M279.7 1517.37 Q276.089 1517.37 274.26 1520.93 Q272.455 1524.47 272.455 1531.6 Q272.455 1538.71 274.26 1542.27 Q276.089 1545.82 279.7 1545.82 Q283.334 1545.82 285.14 1542.27 Q286.968 1538.71 286.968 1531.6 Q286.968 1524.47 285.14 1520.93 Q283.334 1517.37 279.7 1517.37 M279.7 1513.66 Q285.51 1513.66 288.566 1518.27 Q291.644 1522.85 291.644 1531.6 Q291.644 1540.33 288.566 1544.94 Q285.51 1549.52 279.7 1549.52 Q273.89 1549.52 270.811 1544.94 Q267.756 1540.33 267.756 1531.6 Q267.756 1522.85 270.811 1518.27 Q273.89 1513.66 279.7 1513.66 Z" fill="#000000" fill-rule="nonzero" fill-opacity="1"></path><path clip-path="url(#clip450)" d="M309.862 1517.37 Q306.251 1517.37 304.422 1520.93 Q302.616 1524.47 302.616 1531.6 Q302.616 1538.71 304.422 1542.27 Q306.251 1545.82 309.862 1545.82 Q313.496 1545.82 315.302 1542.27 Q317.13 1538.71 317.13 1531.6 Q317.13 1524.47 315.302 1520.93 Q313.496 1517.37 309.862 1517.37 M309.862 1513.66 Q315.672 1513.66 318.727 1518.27 Q321.806 1522.85 321.806 1531.6 Q321.806 1540.33 318.727 1544.94 Q315.672 1549.52 309.862 1549.52 Q304.052 1549.52 300.973 1544.94 Q297.917 1540.33 297.917 1531.6 Q297.917 1522.85 300.973 1518.27 Q304.052 1513.66 309.862 1513.66 Z" fill="#000000" fill-rule="nonzero" fill-opacity="1"></path><path clip-path="url(#clip450)" d="M734.961 1517.37 Q731.35 1517.37 729.521 1520.93 Q727.716 1524.47 727.716 1531.6 Q727.716 1538.71 729.521 1542.27 Q731.35 1545.82 734.961 1545.82 Q738.595 1545.82 740.401 1542.27 Q742.23 1538.71 742.23 1531.6 Q742.23 1524.47 740.401 1520.93 Q738.595 1517.37 734.961 1517.37 M734.961 1513.66 Q740.771 1513.66 743.827 1518.27 Q746.905 1522.85 746.905 1531.6 Q746.905 1540.33 743.827 1544.94 Q740.771 1549.52 734.961 1549.52 Q729.151 1549.52 726.072 1544.94 Q723.017 1540.33 723.017 1531.6 Q723.017 1522.85 726.072 1518.27 Q729.151 1513.66 734.961 1513.66 Z" fill="#000000" fill-rule="nonzero" fill-opacity="1"></path><path clip-path="url(#clip450)" d="M755.123 1542.97 L760.007 1542.97 L760.007 1548.85 L755.123 1548.85 L755.123 1542.97 Z" fill="#000000" fill-rule="nonzero" fill-opacity="1"></path><path clip-path="url(#clip450)" d="M774.22 1544.91 L790.539 1544.91 L790.539 1548.85 L768.595 1548.85 L768.595 1544.91 Q771.257 1542.16 775.84 1537.53 Q780.447 1532.88 781.627 1531.53 Q783.873 1529.01 784.752 1527.27 Q785.655 1525.51 785.655 1523.82 Q785.655 1521.07 783.711 1519.33 Q781.789 1517.6 778.688 1517.6 Q776.489 1517.6 774.035 1518.36 Q771.604 1519.13 768.827 1520.68 L768.827 1515.95 Q771.651 1514.82 774.104 1514.24 Q776.558 1513.66 778.595 1513.66 Q783.965 1513.66 787.16 1516.35 Q790.354 1519.03 790.354 1523.52 Q790.354 1525.65 789.544 1527.57 Q788.757 1529.47 786.651 1532.07 Q786.072 1532.74 782.97 1535.95 Q779.868 1539.15 774.22 1544.91 Z" fill="#000000" fill-rule="nonzero" fill-opacity="1"></path><path clip-path="url(#clip450)" d="M800.401 1514.29 L818.757 1514.29 L818.757 1518.22 L804.683 1518.22 L804.683 1526.7 Q805.701 1526.35 806.72 1526.19 Q807.738 1526 808.757 1526 Q814.544 1526 817.924 1529.17 Q821.303 1532.34 821.303 1537.76 Q821.303 1543.34 817.831 1546.44 Q814.359 1549.52 808.039 1549.52 Q805.863 1549.52 803.595 1549.15 Q801.35 1548.78 798.942 1548.04 L798.942 1543.34 Q801.026 1544.47 803.248 1545.03 Q805.47 1545.58 807.947 1545.58 Q811.951 1545.58 814.289 1543.48 Q816.627 1541.37 816.627 1537.76 Q816.627 1534.15 814.289 1532.04 Q811.951 1529.94 807.947 1529.94 Q806.072 1529.94 804.197 1530.35 Q802.345 1530.77 800.401 1531.65 L800.401 1514.29 Z" fill="#000000" fill-rule="nonzero" fill-opacity="1"></path><path clip-path="url(#clip450)" d="M1234.46 1517.37 Q1230.85 1517.37 1229.02 1520.93 Q1227.21 1524.47 1227.21 1531.6 Q1227.21 1538.71 1229.02 1542.27 Q1230.85 1545.82 1234.46 1545.82 Q1238.09 1545.82 1239.9 1542.27 Q1241.73 1538.71 1241.73 1531.6 Q1241.73 1524.47 1239.9 1520.93 Q1238.09 1517.37 1234.46 1517.37 M1234.46 1513.66 Q1240.27 1513.66 1243.32 1518.27 Q1246.4 1522.85 1246.4 1531.6 Q1246.4 1540.33 1243.32 1544.94 Q1240.27 1549.52 1234.46 1549.52 Q1228.65 1549.52 1225.57 1544.94 Q1222.51 1540.33 1222.51 1531.6 Q1222.51 1522.85 1225.57 1518.27 Q1228.65 1513.66 1234.46 1513.66 Z" fill="#000000" fill-rule="nonzero" fill-opacity="1"></path><path clip-path="url(#clip450)" d="M1254.62 1542.97 L1259.5 1542.97 L1259.5 1548.85 L1254.62 1548.85 L1254.62 1542.97 Z" fill="#000000" fill-rule="nonzero" fill-opacity="1"></path><path clip-path="url(#clip450)" d="M1269.74 1514.29 L1288.09 1514.29 L1288.09 1518.22 L1274.02 1518.22 L1274.02 1526.7 Q1275.04 1526.35 1276.06 1526.19 Q1277.07 1526 1278.09 1526 Q1283.88 1526 1287.26 1529.17 Q1290.64 1532.34 1290.64 1537.76 Q1290.64 1543.34 1287.17 1546.44 Q1283.69 1549.52 1277.37 1549.52 Q1275.2 1549.52 1272.93 1549.15 Q1270.68 1548.78 1268.28 1548.04 L1268.28 1543.34 Q1270.36 1544.47 1272.58 1545.03 Q1274.81 1545.58 1277.28 1545.58 Q1281.29 1545.58 1283.62 1543.48 Q1285.96 1541.37 1285.96 1537.76 Q1285.96 1534.15 1283.62 1532.04 Q1281.29 1529.94 1277.28 1529.94 Q1275.41 1529.94 1273.53 1530.35 Q1271.68 1530.77 1269.74 1531.65 L1269.74 1514.29 Z" fill="#000000" fill-rule="nonzero" fill-opacity="1"></path><path clip-path="url(#clip450)" d="M1309.85 1517.37 Q1306.24 1517.37 1304.41 1520.93 Q1302.61 1524.47 1302.61 1531.6 Q1302.61 1538.71 1304.41 1542.27 Q1306.24 1545.82 1309.85 1545.82 Q1313.49 1545.82 1315.29 1542.27 Q1317.12 1538.71 1317.12 1531.6 Q1317.12 1524.47 1315.29 1520.93 Q1313.49 1517.37 1309.85 1517.37 M1309.85 1513.66 Q1315.66 1513.66 1318.72 1518.27 Q1321.8 1522.85 1321.8 1531.6 Q1321.8 1540.33 1318.72 1544.94 Q1315.66 1549.52 1309.85 1549.52 Q1304.04 1549.52 1300.96 1544.94 Q1297.91 1540.33 1297.91 1531.6 Q1297.91 1522.85 1300.96 1518.27 Q1304.04 1513.66 1309.85 1513.66 Z" fill="#000000" fill-rule="nonzero" fill-opacity="1"></path><path clip-path="url(#clip450)" d="M1734.95 1517.37 Q1731.34 1517.37 1729.51 1520.93 Q1727.71 1524.47 1727.71 1531.6 Q1727.71 1538.71 1729.51 1542.27 Q1731.34 1545.82 1734.95 1545.82 Q1738.58 1545.82 1740.39 1542.27 Q1742.22 1538.71 1742.22 1531.6 Q1742.22 1524.47 1740.39 1520.93 Q1738.58 1517.37 1734.95 1517.37 M1734.95 1513.66 Q1740.76 1513.66 1743.82 1518.27 Q1746.89 1522.85 1746.89 1531.6 Q1746.89 1540.33 1743.82 1544.94 Q1740.76 1549.52 1734.95 1549.52 Q1729.14 1549.52 1726.06 1544.94 Q1723.01 1540.33 1723.01 1531.6 Q1723.01 1522.85 1726.06 1518.27 Q1729.14 1513.66 1734.95 1513.66 Z" fill="#000000" fill-rule="nonzero" fill-opacity="1"></path><path clip-path="url(#clip450)" d="M1755.11 1542.97 L1760 1542.97 L1760 1548.85 L1755.11 1548.85 L1755.11 1542.97 Z" fill="#000000" fill-rule="nonzero" fill-opacity="1"></path><path clip-path="url(#clip450)" d="M1769 1514.29 L1791.22 1514.29 L1791.22 1516.28 L1778.68 1548.85 L1773.79 1548.85 L1785.6 1518.22 L1769 1518.22 L1769 1514.29 Z" fill="#000000" fill-rule="nonzero" fill-opacity="1"></path><path clip-path="url(#clip450)" d="M1800.39 1514.29 L1818.75 1514.29 L1818.75 1518.22 L1804.67 1518.22 L1804.67 1526.7 Q1805.69 1526.35 1806.71 1526.19 Q1807.73 1526 1808.75 1526 Q1814.53 1526 1817.91 1529.17 Q1821.29 1532.34 1821.29 1537.76 Q1821.29 1543.34 1817.82 1546.44 Q1814.35 1549.52 1808.03 1549.52 Q1805.85 1549.52 1803.58 1549.15 Q1801.34 1548.78 1798.93 1548.04 L1798.93 1543.34 Q1801.01 1544.47 1803.24 1545.03 Q1805.46 1545.58 1807.94 1545.58 Q1811.94 1545.58 1814.28 1543.48 Q1816.62 1541.37 1816.62 1537.76 Q1816.62 1534.15 1814.28 1532.04 Q1811.94 1529.94 1807.94 1529.94 Q1806.06 1529.94 1804.19 1530.35 Q1802.33 1530.77 1800.39 1531.65 L1800.39 1514.29 Z" fill="#000000" fill-rule="nonzero" fill-opacity="1"></path><path clip-path="url(#clip450)" d="M2224.22 1544.91 L2231.85 1544.91 L2231.85 1518.55 L2223.54 1520.21 L2223.54 1515.95 L2231.81 1514.29 L2236.48 1514.29 L2236.48 1544.91 L2244.12 1544.91 L2244.12 1548.85 L2224.22 1548.85 L2224.22 1544.91 Z" fill="#000000" fill-rule="nonzero" fill-opacity="1"></path><path clip-path="url(#clip450)" d="M2253.57 1542.97 L2258.45 1542.97 L2258.45 1548.85 L2253.57 1548.85 L2253.57 1542.97 Z" fill="#000000" fill-rule="nonzero" fill-opacity="1"></path><path clip-path="url(#clip450)" d="M2278.64 1517.37 Q2275.03 1517.37 2273.2 1520.93 Q2271.39 1524.47 2271.39 1531.6 Q2271.39 1538.71 2273.2 1542.27 Q2275.03 1545.82 2278.64 1545.82 Q2282.27 1545.82 2284.08 1542.27 Q2285.91 1538.71 2285.91 1531.6 Q2285.91 1524.47 2284.08 1520.93 Q2282.27 1517.37 2278.64 1517.37 M2278.64 1513.66 Q2284.45 1513.66 2287.5 1518.27 Q2290.58 1522.85 2290.58 1531.6 Q2290.58 1540.33 2287.5 1544.94 Q2284.45 1549.52 2278.64 1549.52 Q2272.83 1549.52 2269.75 1544.94 Q2266.69 1540.33 2266.69 1531.6 Q2266.69 1522.85 2269.75 1518.27 Q2272.83 1513.66 2278.64 1513.66 Z" fill="#000000" fill-rule="nonzero" fill-opacity="1"></path><path clip-path="url(#clip450)" d="M2308.8 1517.37 Q2305.19 1517.37 2303.36 1520.93 Q2301.55 1524.47 2301.55 1531.6 Q2301.55 1538.71 2303.36 1542.27 Q2305.19 1545.82 2308.8 1545.82 Q2312.43 1545.82 2314.24 1542.27 Q2316.07 1538.71 2316.07 1531.6 Q2316.07 1524.47 2314.24 1520.93 Q2312.43 1517.37 2308.8 1517.37 M2308.8 1513.66 Q2314.61 1513.66 2317.66 1518.27 Q2320.74 1522.85 2320.74 1531.6 Q2320.74 1540.33 2317.66 1544.94 Q2314.61 1549.52 2308.8 1549.52 Q2302.99 1549.52 2299.91 1544.94 Q2296.85 1540.33 2296.85 1531.6 Q2296.85 1522.85 2299.91 1518.27 Q2302.99 1513.66 2308.8 1513.66 Z" fill="#000000" fill-rule="nonzero" fill-opacity="1"></path><polyline clip-path="url(#clip452)" style="stroke:#000000; stroke-linecap:round; stroke-linejoin:round; stroke-width:2; stroke-opacity:0.1; fill:none" points="193.936,1456.14 2352.76,1456.14 "></polyline>
<polyline clip-path="url(#clip452)" style="stroke:#000000; stroke-linecap:round; stroke-linejoin:round; stroke-width:2; stroke-opacity:0.1; fill:none" points="193.936,1066.79 2352.76,1066.79 "></polyline>
<polyline clip-path="url(#clip452)" style="stroke:#000000; stroke-linecap:round; stroke-linejoin:round; stroke-width:2; stroke-opacity:0.1; fill:none" points="193.936,677.437 2352.76,677.437 "></polyline>
<polyline clip-path="url(#clip452)" style="stroke:#000000; stroke-linecap:round; stroke-linejoin:round; stroke-width:2; stroke-opacity:0.1; fill:none" points="193.936,288.087 2352.76,288.087 "></polyline>
<polyline clip-path="url(#clip450)" style="stroke:#000000; stroke-linecap:round; stroke-linejoin:round; stroke-width:4; stroke-opacity:1; fill:none" points="193.936,1486.45 193.936,47.2441 "></polyline>
<polyline clip-path="url(#clip450)" style="stroke:#000000; stroke-linecap:round; stroke-linejoin:round; stroke-width:4; stroke-opacity:1; fill:none" points="193.936,1456.14 212.834,1456.14 "></polyline>
<polyline clip-path="url(#clip450)" style="stroke:#000000; stroke-linecap:round; stroke-linejoin:round; stroke-width:4; stroke-opacity:1; fill:none" points="193.936,1066.79 212.834,1066.79 "></polyline>
<polyline clip-path="url(#clip450)" style="stroke:#000000; stroke-linecap:round; stroke-linejoin:round; stroke-width:4; stroke-opacity:1; fill:none" points="193.936,677.437 212.834,677.437 "></polyline>
<polyline clip-path="url(#clip450)" style="stroke:#000000; stroke-linecap:round; stroke-linejoin:round; stroke-width:4; stroke-opacity:1; fill:none" points="193.936,288.087 212.834,288.087 "></polyline>
<path clip-path="url(#clip450)" d="M50.9921 1456.59 L80.6679 1456.59 L80.6679 1460.52 L50.9921 1460.52 L50.9921 1456.59 Z" fill="#000000" fill-rule="nonzero" fill-opacity="1"></path><path clip-path="url(#clip450)" d="M91.5706 1469.48 L99.2095 1469.48 L99.2095 1443.11 L90.8993 1444.78 L90.8993 1440.52 L99.1632 1438.86 L103.839 1438.86 L103.839 1469.48 L111.478 1469.48 L111.478 1473.42 L91.5706 1473.42 L91.5706 1469.48 Z" fill="#000000" fill-rule="nonzero" fill-opacity="1"></path><path clip-path="url(#clip450)" d="M120.922 1467.54 L125.807 1467.54 L125.807 1473.42 L120.922 1473.42 L120.922 1467.54 Z" fill="#000000" fill-rule="nonzero" fill-opacity="1"></path><path clip-path="url(#clip450)" d="M145.992 1441.93 Q142.381 1441.93 140.552 1445.5 Q138.746 1449.04 138.746 1456.17 Q138.746 1463.28 140.552 1466.84 Q142.381 1470.38 145.992 1470.38 Q149.626 1470.38 151.431 1466.84 Q153.26 1463.28 153.26 1456.17 Q153.26 1449.04 151.431 1445.5 Q149.626 1441.93 145.992 1441.93 M145.992 1438.23 Q151.802 1438.23 154.857 1442.84 Q157.936 1447.42 157.936 1456.17 Q157.936 1464.9 154.857 1469.5 Q151.802 1474.09 145.992 1474.09 Q140.181 1474.09 137.103 1469.5 Q134.047 1464.9 134.047 1456.17 Q134.047 1447.42 137.103 1442.84 Q140.181 1438.23 145.992 1438.23 Z" fill="#000000" fill-rule="nonzero" fill-opacity="1"></path><path clip-path="url(#clip450)" d="M51.9875 1067.24 L81.6633 1067.24 L81.6633 1071.17 L51.9875 1071.17 L51.9875 1067.24 Z" fill="#000000" fill-rule="nonzero" fill-opacity="1"></path><path clip-path="url(#clip450)" d="M101.756 1052.58 Q98.1447 1052.58 96.316 1056.15 Q94.5104 1059.69 94.5104 1066.82 Q94.5104 1073.93 96.316 1077.49 Q98.1447 1081.03 101.756 1081.03 Q105.39 1081.03 107.196 1077.49 Q109.024 1073.93 109.024 1066.82 Q109.024 1059.69 107.196 1056.15 Q105.39 1052.58 101.756 1052.58 M101.756 1048.88 Q107.566 1048.88 110.621 1053.49 Q113.7 1058.07 113.7 1066.82 Q113.7 1075.55 110.621 1080.15 Q107.566 1084.74 101.756 1084.74 Q95.9456 1084.74 92.8669 1080.15 Q89.8114 1075.55 89.8114 1066.82 Q89.8114 1058.07 92.8669 1053.49 Q95.9456 1048.88 101.756 1048.88 Z" fill="#000000" fill-rule="nonzero" fill-opacity="1"></path><path clip-path="url(#clip450)" d="M121.918 1078.19 L126.802 1078.19 L126.802 1084.07 L121.918 1084.07 L121.918 1078.19 Z" fill="#000000" fill-rule="nonzero" fill-opacity="1"></path><path clip-path="url(#clip450)" d="M137.033 1049.51 L155.39 1049.51 L155.39 1053.44 L141.316 1053.44 L141.316 1061.91 Q142.334 1061.57 143.353 1061.4 Q144.371 1061.22 145.39 1061.22 Q151.177 1061.22 154.556 1064.39 Q157.936 1067.56 157.936 1072.98 Q157.936 1078.56 154.464 1081.66 Q150.992 1084.74 144.672 1084.74 Q142.496 1084.74 140.228 1084.37 Q137.982 1084 135.575 1083.26 L135.575 1078.56 Q137.658 1079.69 139.881 1080.25 Q142.103 1080.8 144.58 1080.8 Q148.584 1080.8 150.922 1078.7 Q153.26 1076.59 153.26 1072.98 Q153.26 1069.37 150.922 1067.26 Q148.584 1065.15 144.58 1065.15 Q142.705 1065.15 140.83 1065.57 Q138.978 1065.99 137.033 1066.87 L137.033 1049.51 Z" fill="#000000" fill-rule="nonzero" fill-opacity="1"></path><path clip-path="url(#clip450)" d="M100.76 663.235 Q97.1493 663.235 95.3206 666.8 Q93.515 670.342 93.515 677.471 Q93.515 684.578 95.3206 688.143 Q97.1493 691.684 100.76 691.684 Q104.395 691.684 106.2 688.143 Q108.029 684.578 108.029 677.471 Q108.029 670.342 106.2 666.8 Q104.395 663.235 100.76 663.235 M100.76 659.532 Q106.571 659.532 109.626 664.138 Q112.705 668.721 112.705 677.471 Q112.705 686.198 109.626 690.805 Q106.571 695.388 100.76 695.388 Q94.9502 695.388 91.8715 690.805 Q88.816 686.198 88.816 677.471 Q88.816 668.721 91.8715 664.138 Q94.9502 659.532 100.76 659.532 Z" fill="#000000" fill-rule="nonzero" fill-opacity="1"></path><path clip-path="url(#clip450)" d="M120.922 688.837 L125.807 688.837 L125.807 694.717 L120.922 694.717 L120.922 688.837 Z" fill="#000000" fill-rule="nonzero" fill-opacity="1"></path><path clip-path="url(#clip450)" d="M145.992 663.235 Q142.381 663.235 140.552 666.8 Q138.746 670.342 138.746 677.471 Q138.746 684.578 140.552 688.143 Q142.381 691.684 145.992 691.684 Q149.626 691.684 151.431 688.143 Q153.26 684.578 153.26 677.471 Q153.26 670.342 151.431 666.8 Q149.626 663.235 145.992 663.235 M145.992 659.532 Q151.802 659.532 154.857 664.138 Q157.936 668.721 157.936 677.471 Q157.936 686.198 154.857 690.805 Q151.802 695.388 145.992 695.388 Q140.181 695.388 137.103 690.805 Q134.047 686.198 134.047 677.471 Q134.047 668.721 137.103 664.138 Q140.181 659.532 145.992 659.532 Z" fill="#000000" fill-rule="nonzero" fill-opacity="1"></path><path clip-path="url(#clip450)" d="M101.756 273.886 Q98.1447 273.886 96.316 277.451 Q94.5104 280.992 94.5104 288.122 Q94.5104 295.228 96.316 298.793 Q98.1447 302.335 101.756 302.335 Q105.39 302.335 107.196 298.793 Q109.024 295.228 109.024 288.122 Q109.024 280.992 107.196 277.451 Q105.39 273.886 101.756 273.886 M101.756 270.182 Q107.566 270.182 110.621 274.789 Q113.7 279.372 113.7 288.122 Q113.7 296.849 110.621 301.455 Q107.566 306.039 101.756 306.039 Q95.9456 306.039 92.8669 301.455 Q89.8114 296.849 89.8114 288.122 Q89.8114 279.372 92.8669 274.789 Q95.9456 270.182 101.756 270.182 Z" fill="#000000" fill-rule="nonzero" fill-opacity="1"></path><path clip-path="url(#clip450)" d="M121.918 299.488 L126.802 299.488 L126.802 305.367 L121.918 305.367 L121.918 299.488 Z" fill="#000000" fill-rule="nonzero" fill-opacity="1"></path><path clip-path="url(#clip450)" d="M137.033 270.807 L155.39 270.807 L155.39 274.742 L141.316 274.742 L141.316 283.215 Q142.334 282.867 143.353 282.705 Q144.371 282.52 145.39 282.52 Q151.177 282.52 154.556 285.691 Q157.936 288.863 157.936 294.279 Q157.936 299.858 154.464 302.96 Q150.992 306.039 144.672 306.039 Q142.496 306.039 140.228 305.668 Q137.982 305.298 135.575 304.557 L135.575 299.858 Q137.658 300.992 139.881 301.548 Q142.103 302.103 144.58 302.103 Q148.584 302.103 150.922 299.997 Q153.26 297.89 153.26 294.279 Q153.26 290.668 150.922 288.562 Q148.584 286.455 144.58 286.455 Q142.705 286.455 140.83 286.872 Q138.978 287.289 137.033 288.168 L137.033 270.807 Z" fill="#000000" fill-rule="nonzero" fill-opacity="1"></path><circle clip-path="url(#clip452)" cx="1475.43" cy="1445.72" r="14.4" fill="#009af9" fill-rule="evenodd" fill-opacity="1" stroke="#000000" stroke-opacity="1" stroke-width="3.2"></circle>
<circle clip-path="url(#clip452)" cx="2233.7" cy="713.271" r="14.4" fill="#009af9" fill-rule="evenodd" fill-opacity="1" stroke="#000000" stroke-opacity="1" stroke-width="3.2"></circle>
<circle clip-path="url(#clip452)" cx="2233.36" cy="667.883" r="14.4" fill="#009af9" fill-rule="evenodd" fill-opacity="1" stroke="#000000" stroke-opacity="1" stroke-width="3.2"></circle>
<circle clip-path="url(#clip452)" cx="706.937" cy="531.845" r="14.4" fill="#009af9" fill-rule="evenodd" fill-opacity="1" stroke="#000000" stroke-opacity="1" stroke-width="3.2"></circle>
<circle clip-path="url(#clip452)" cx="1664.17" cy="431.802" r="14.4" fill="#009af9" fill-rule="evenodd" fill-opacity="1" stroke="#000000" stroke-opacity="1" stroke-width="3.2"></circle>
<circle clip-path="url(#clip452)" cx="1145.77" cy="1054.76" r="14.4" fill="#009af9" fill-rule="evenodd" fill-opacity="1" stroke="#000000" stroke-opacity="1" stroke-width="3.2"></circle>
<circle clip-path="url(#clip452)" cx="1447.54" cy="135.733" r="14.4" fill="#009af9" fill-rule="evenodd" fill-opacity="1" stroke="#000000" stroke-opacity="1" stroke-width="3.2"></circle>
<circle clip-path="url(#clip452)" cx="1404.63" cy="1059.67" r="14.4" fill="#009af9" fill-rule="evenodd" fill-opacity="1" stroke="#000000" stroke-opacity="1" stroke-width="3.2"></circle>
<circle clip-path="url(#clip452)" cx="363.925" cy="718.809" r="14.4" fill="#009af9" fill-rule="evenodd" fill-opacity="1" stroke="#000000" stroke-opacity="1" stroke-width="3.2"></circle>
<circle clip-path="url(#clip452)" cx="997.895" cy="219.715" r="14.4" fill="#009af9" fill-rule="evenodd" fill-opacity="1" stroke="#000000" stroke-opacity="1" stroke-width="3.2"></circle>
<circle clip-path="url(#clip452)" cx="2185.8" cy="735.518" r="14.4" fill="#009af9" fill-rule="evenodd" fill-opacity="1" stroke="#000000" stroke-opacity="1" stroke-width="3.2"></circle>
<circle clip-path="url(#clip452)" cx="1496.7" cy="117.737" r="14.4" fill="#009af9" fill-rule="evenodd" fill-opacity="1" stroke="#000000" stroke-opacity="1" stroke-width="3.2"></circle>
<circle clip-path="url(#clip452)" cx="883.114" cy="413.184" r="14.4" fill="#009af9" fill-rule="evenodd" fill-opacity="1" stroke="#000000" stroke-opacity="1" stroke-width="3.2"></circle>
<circle clip-path="url(#clip452)" cx="2197.99" cy="661.641" r="14.4" fill="#009af9" fill-rule="evenodd" fill-opacity="1" stroke="#000000" stroke-opacity="1" stroke-width="3.2"></circle>
<circle clip-path="url(#clip452)" cx="263.654" cy="672.751" r="14.4" fill="#009af9" fill-rule="evenodd" fill-opacity="1" stroke="#000000" stroke-opacity="1" stroke-width="3.2"></circle>
<circle clip-path="url(#clip452)" cx="284.616" cy="667.204" r="14.4" fill="#009af9" fill-rule="evenodd" fill-opacity="1" stroke="#000000" stroke-opacity="1" stroke-width="3.2"></circle>
<circle clip-path="url(#clip452)" cx="1212.81" cy="682.512" r="14.4" fill="#009af9" fill-rule="evenodd" fill-opacity="1" stroke="#000000" stroke-opacity="1" stroke-width="3.2"></circle>
<circle clip-path="url(#clip452)" cx="2062.09" cy="628.777" r="14.4" fill="#009af9" fill-rule="evenodd" fill-opacity="1" stroke="#000000" stroke-opacity="1" stroke-width="3.2"></circle>
<circle clip-path="url(#clip452)" cx="941.005" cy="341.191" r="14.4" fill="#009af9" fill-rule="evenodd" fill-opacity="1" stroke="#000000" stroke-opacity="1" stroke-width="3.2"></circle>
<circle clip-path="url(#clip452)" cx="1722.9" cy="1020.96" r="14.4" fill="#009af9" fill-rule="evenodd" fill-opacity="1" stroke="#000000" stroke-opacity="1" stroke-width="3.2"></circle>
<circle clip-path="url(#clip452)" cx="282.742" cy="688.78" r="14.4" fill="#009af9" fill-rule="evenodd" fill-opacity="1" stroke="#000000" stroke-opacity="1" stroke-width="3.2"></circle>
<circle clip-path="url(#clip452)" cx="911.909" cy="1143.53" r="14.4" fill="#009af9" fill-rule="evenodd" fill-opacity="1" stroke="#000000" stroke-opacity="1" stroke-width="3.2"></circle>
<circle clip-path="url(#clip452)" cx="1977.59" cy="833.334" r="14.4" fill="#009af9" fill-rule="evenodd" fill-opacity="1" stroke="#000000" stroke-opacity="1" stroke-width="3.2"></circle>
<circle clip-path="url(#clip452)" cx="1050.64" cy="87.9763" r="14.4" fill="#009af9" fill-rule="evenodd" fill-opacity="1" stroke="#000000" stroke-opacity="1" stroke-width="3.2"></circle>
<circle clip-path="url(#clip452)" cx="1338.39" cy="682.405" r="14.4" fill="#009af9" fill-rule="evenodd" fill-opacity="1" stroke="#000000" stroke-opacity="1" stroke-width="3.2"></circle>
<circle clip-path="url(#clip452)" cx="2055.53" cy="793.998" r="14.4" fill="#009af9" fill-rule="evenodd" fill-opacity="1" stroke="#000000" stroke-opacity="1" stroke-width="3.2"></circle>
<circle clip-path="url(#clip452)" cx="653.208" cy="866.437" r="14.4" fill="#009af9" fill-rule="evenodd" fill-opacity="1" stroke="#000000" stroke-opacity="1" stroke-width="3.2"></circle>
<circle clip-path="url(#clip452)" cx="272.147" cy="679.34" r="14.4" fill="#009af9" fill-rule="evenodd" fill-opacity="1" stroke="#000000" stroke-opacity="1" stroke-width="3.2"></circle>
<circle clip-path="url(#clip452)" cx="2262.08" cy="672.204" r="14.4" fill="#009af9" fill-rule="evenodd" fill-opacity="1" stroke="#000000" stroke-opacity="1" stroke-width="3.2"></circle>
<circle clip-path="url(#clip452)" cx="1840.3" cy="545.717" r="14.4" fill="#009af9" fill-rule="evenodd" fill-opacity="1" stroke="#000000" stroke-opacity="1" stroke-width="3.2"></circle>
<circle clip-path="url(#clip452)" cx="1401.16" cy="367.578" r="14.4" fill="#009af9" fill-rule="evenodd" fill-opacity="1" stroke="#000000" stroke-opacity="1" stroke-width="3.2"></circle>
<circle clip-path="url(#clip452)" cx="995.362" cy="1344.75" r="14.4" fill="#009af9" fill-rule="evenodd" fill-opacity="1" stroke="#000000" stroke-opacity="1" stroke-width="3.2"></circle>
<circle clip-path="url(#clip452)" cx="537.302" cy="600.233" r="14.4" fill="#009af9" fill-rule="evenodd" fill-opacity="1" stroke="#000000" stroke-opacity="1" stroke-width="3.2"></circle>
<circle clip-path="url(#clip452)" cx="2279.22" cy="680.382" r="14.4" fill="#009af9" fill-rule="evenodd" fill-opacity="1" stroke="#000000" stroke-opacity="1" stroke-width="3.2"></circle>
<circle clip-path="url(#clip452)" cx="739.133" cy="929.445" r="14.4" fill="#009af9" fill-rule="evenodd" fill-opacity="1" stroke="#000000" stroke-opacity="1" stroke-width="3.2"></circle>
<circle clip-path="url(#clip452)" cx="570.332" cy="815.982" r="14.4" fill="#009af9" fill-rule="evenodd" fill-opacity="1" stroke="#000000" stroke-opacity="1" stroke-width="3.2"></circle>
<circle clip-path="url(#clip452)" cx="1898.14" cy="571.655" r="14.4" fill="#009af9" fill-rule="evenodd" fill-opacity="1" stroke="#000000" stroke-opacity="1" stroke-width="3.2"></circle>
<circle clip-path="url(#clip452)" cx="255.035" cy="676.677" r="14.4" fill="#009af9" fill-rule="evenodd" fill-opacity="1" stroke="#000000" stroke-opacity="1" stroke-width="3.2"></circle>
<circle clip-path="url(#clip452)" cx="1099.37" cy="142.418" r="14.4" fill="#009af9" fill-rule="evenodd" fill-opacity="1" stroke="#000000" stroke-opacity="1" stroke-width="3.2"></circle>
<circle clip-path="url(#clip452)" cx="2111.49" cy="642.143" r="14.4" fill="#009af9" fill-rule="evenodd" fill-opacity="1" stroke="#000000" stroke-opacity="1" stroke-width="3.2"></circle>
<circle clip-path="url(#clip452)" cx="1275.53" cy="667.374" r="14.4" fill="#009af9" fill-rule="evenodd" fill-opacity="1" stroke="#000000" stroke-opacity="1" stroke-width="3.2"></circle>
<circle clip-path="url(#clip452)" cx="1606.18" cy="365.233" r="14.4" fill="#009af9" fill-rule="evenodd" fill-opacity="1" stroke="#000000" stroke-opacity="1" stroke-width="3.2"></circle>
<circle clip-path="url(#clip452)" cx="423.936" cy="742.981" r="14.4" fill="#009af9" fill-rule="evenodd" fill-opacity="1" stroke="#000000" stroke-opacity="1" stroke-width="3.2"></circle>
<circle clip-path="url(#clip452)" cx="1636.64" cy="1144.53" r="14.4" fill="#009af9" fill-rule="evenodd" fill-opacity="1" stroke="#000000" stroke-opacity="1" stroke-width="3.2"></circle>
<circle clip-path="url(#clip452)" cx="2125.6" cy="761.721" r="14.4" fill="#009af9" fill-rule="evenodd" fill-opacity="1" stroke="#000000" stroke-opacity="1" stroke-width="3.2"></circle>
<circle clip-path="url(#clip452)" cx="1073.98" cy="1430.44" r="14.4" fill="#009af9" fill-rule="evenodd" fill-opacity="1" stroke="#000000" stroke-opacity="1" stroke-width="3.2"></circle>
<circle clip-path="url(#clip452)" cx="1314.03" cy="700.934" r="14.4" fill="#009af9" fill-rule="evenodd" fill-opacity="1" stroke="#000000" stroke-opacity="1" stroke-width="3.2"></circle>
<circle clip-path="url(#clip452)" cx="389.63" cy="643.332" r="14.4" fill="#009af9" fill-rule="evenodd" fill-opacity="1" stroke="#000000" stroke-opacity="1" stroke-width="3.2"></circle>
<circle clip-path="url(#clip452)" cx="313.042" cy="660.575" r="14.4" fill="#009af9" fill-rule="evenodd" fill-opacity="1" stroke="#000000" stroke-opacity="1" stroke-width="3.2"></circle>
<circle clip-path="url(#clip452)" cx="1954.79" cy="593.805" r="14.4" fill="#009af9" fill-rule="evenodd" fill-opacity="1" stroke="#000000" stroke-opacity="1" stroke-width="3.2"></circle>
<circle clip-path="url(#clip452)" cx="648.969" cy="558.085" r="14.4" fill="#009af9" fill-rule="evenodd" fill-opacity="1" stroke="#000000" stroke-opacity="1" stroke-width="3.2"></circle>
<circle clip-path="url(#clip452)" cx="592.226" cy="580.65" r="14.4" fill="#009af9" fill-rule="evenodd" fill-opacity="1" stroke="#000000" stroke-opacity="1" stroke-width="3.2"></circle>
<circle clip-path="url(#clip452)" cx="2291.66" cy="677.085" r="14.4" fill="#009af9" fill-rule="evenodd" fill-opacity="1" stroke="#000000" stroke-opacity="1" stroke-width="3.2"></circle>
<circle clip-path="url(#clip452)" cx="1356.72" cy="625.435" r="14.4" fill="#009af9" fill-rule="evenodd" fill-opacity="1" stroke="#000000" stroke-opacity="1" stroke-width="3.2"></circle>
<circle clip-path="url(#clip452)" cx="1781.8" cy="515.025" r="14.4" fill="#009af9" fill-rule="evenodd" fill-opacity="1" stroke="#000000" stroke-opacity="1" stroke-width="3.2"></circle>
<circle clip-path="url(#clip452)" cx="2282.69" cy="675.204" r="14.4" fill="#009af9" fill-rule="evenodd" fill-opacity="1" stroke="#000000" stroke-opacity="1" stroke-width="3.2"></circle>
<circle clip-path="url(#clip452)" cx="1553.25" cy="1348.2" r="14.4" fill="#009af9" fill-rule="evenodd" fill-opacity="1" stroke="#000000" stroke-opacity="1" stroke-width="3.2"></circle>
<circle clip-path="url(#clip452)" cx="484.714" cy="617.127" r="14.4" fill="#009af9" fill-rule="evenodd" fill-opacity="1" stroke="#000000" stroke-opacity="1" stroke-width="3.2"></circle>
<circle clip-path="url(#clip452)" cx="2157.07" cy="653.092" r="14.4" fill="#009af9" fill-rule="evenodd" fill-opacity="1" stroke="#000000" stroke-opacity="1" stroke-width="3.2"></circle>
<circle clip-path="url(#clip452)" cx="1231.51" cy="696.973" r="14.4" fill="#009af9" fill-rule="evenodd" fill-opacity="1" stroke="#000000" stroke-opacity="1" stroke-width="3.2"></circle>
<circle clip-path="url(#clip452)" cx="1894.59" cy="881.65" r="14.4" fill="#009af9" fill-rule="evenodd" fill-opacity="1" stroke="#000000" stroke-opacity="1" stroke-width="3.2"></circle>
<circle clip-path="url(#clip452)" cx="824.416" cy="462.52" r="14.4" fill="#009af9" fill-rule="evenodd" fill-opacity="1" stroke="#000000" stroke-opacity="1" stroke-width="3.2"></circle>
<circle clip-path="url(#clip452)" cx="435.264" cy="631.467" r="14.4" fill="#009af9" fill-rule="evenodd" fill-opacity="1" stroke="#000000" stroke-opacity="1" stroke-width="3.2"></circle>
<circle clip-path="url(#clip452)" cx="2266.49" cy="694.894" r="14.4" fill="#009af9" fill-rule="evenodd" fill-opacity="1" stroke="#000000" stroke-opacity="1" stroke-width="3.2"></circle>
<circle clip-path="url(#clip452)" cx="765.54" cy="500.688" r="14.4" fill="#009af9" fill-rule="evenodd" fill-opacity="1" stroke="#000000" stroke-opacity="1" stroke-width="3.2"></circle>
<circle clip-path="url(#clip452)" cx="1722.82" cy="478.292" r="14.4" fill="#009af9" fill-rule="evenodd" fill-opacity="1" stroke="#000000" stroke-opacity="1" stroke-width="3.2"></circle>
<circle clip-path="url(#clip452)" cx="1272.62" cy="659.404" r="14.4" fill="#009af9" fill-rule="evenodd" fill-opacity="1" stroke="#000000" stroke-opacity="1" stroke-width="3.2"></circle>
<circle clip-path="url(#clip452)" cx="2009.62" cy="612.777" r="14.4" fill="#009af9" fill-rule="evenodd" fill-opacity="1" stroke="#000000" stroke-opacity="1" stroke-width="3.2"></circle>
<circle clip-path="url(#clip452)" cx="1549.77" cy="253.968" r="14.4" fill="#009af9" fill-rule="evenodd" fill-opacity="1" stroke="#000000" stroke-opacity="1" stroke-width="3.2"></circle>
<circle clip-path="url(#clip452)" cx="825.829" cy="1013.38" r="14.4" fill="#009af9" fill-rule="evenodd" fill-opacity="1" stroke="#000000" stroke-opacity="1" stroke-width="3.2"></circle>
<circle clip-path="url(#clip452)" cx="315.723" cy="701.347" r="14.4" fill="#009af9" fill-rule="evenodd" fill-opacity="1" stroke="#000000" stroke-opacity="1" stroke-width="3.2"></circle>
<circle clip-path="url(#clip452)" cx="1188.77" cy="649.449" r="14.4" fill="#009af9" fill-rule="evenodd" fill-opacity="1" stroke="#000000" stroke-opacity="1" stroke-width="3.2"></circle>
<circle clip-path="url(#clip452)" cx="1144.69" cy="403.308" r="14.4" fill="#009af9" fill-rule="evenodd" fill-opacity="1" stroke="#000000" stroke-opacity="1" stroke-width="3.2"></circle>
<circle clip-path="url(#clip452)" cx="348.552" cy="652.828" r="14.4" fill="#009af9" fill-rule="evenodd" fill-opacity="1" stroke="#000000" stroke-opacity="1" stroke-width="3.2"></circle>
<circle clip-path="url(#clip452)" cx="1809.13" cy="942.328" r="14.4" fill="#009af9" fill-rule="evenodd" fill-opacity="1" stroke="#000000" stroke-opacity="1" stroke-width="3.2"></circle>
<circle clip-path="url(#clip452)" cx="493.401" cy="775.007" r="14.4" fill="#009af9" fill-rule="evenodd" fill-opacity="1" stroke="#000000" stroke-opacity="1" stroke-width="3.2"></circle>
<path clip-path="url(#clip450)" d="M2012.48 198.898 L2280.8 198.898 L2280.8 95.2176 L2012.48 95.2176  Z" fill="#ffffff" fill-rule="evenodd" fill-opacity="1"></path>
<polyline clip-path="url(#clip450)" style="stroke:#000000; stroke-linecap:round; stroke-linejoin:round; stroke-width:4; stroke-opacity:1; fill:none" points="2012.48,198.898 2280.8,198.898 2280.8,95.2176 2012.48,95.2176 2012.48,198.898 "></polyline>
<circle clip-path="url(#clip450)" cx="2108.43" cy="147.058" r="20.48" fill="#009af9" fill-rule="evenodd" fill-opacity="1" stroke="#000000" stroke-opacity="1" stroke-width="4.55111"></circle>
<path clip-path="url(#clip450)" d="M2218.22 166.745 Q2216.42 171.375 2214.7 172.787 Q2212.99 174.199 2210.12 174.199 L2206.72 174.199 L2206.72 170.634 L2209.22 170.634 Q2210.98 170.634 2211.95 169.8 Q2212.92 168.967 2214.1 165.865 L2214.86 163.921 L2204.38 138.412 L2208.89 138.412 L2216.99 158.689 L2225.1 138.412 L2229.61 138.412 L2218.22 166.745 Z" fill="#000000" fill-rule="nonzero" fill-opacity="1"></path><path clip-path="url(#clip450)" d="M2236.9 160.402 L2244.54 160.402 L2244.54 134.037 L2236.23 135.703 L2236.23 131.444 L2244.49 129.778 L2249.17 129.778 L2249.17 160.402 L2256.81 160.402 L2256.81 164.338 L2236.9 164.338 L2236.9 160.402 Z" fill="#000000" fill-rule="nonzero" fill-opacity="1"></path></svg>