<svg xmlns="http://www.w3.org/2000/svg" xmlns:xlink="http://www.w3.org/1999/xlink" width="600" height="400" viewBox="0 0 2400 1600">
<defs>
  <clipPath id="clip610">
    <rect x="0" y="0" width="2400" height="1600"></rect>
  </clipPath>
</defs>
<path clip-path="url(#clip610)" d="M0 1600 L2400 1600 L2400 0 L0 0  Z" fill="#ffffff" fill-rule="evenodd" fill-opacity="1"></path>
<defs>
  <clipPath id="clip611">
    <rect x="480" y="0" width="1681" height="1600"></rect>
  </clipPath>
</defs>
<path clip-path="url(#clip610)" d="M194.422 1486.45 L2352.76 1486.45 L2352.76 47.2441 L194.422 47.2441  Z" fill="#ffffff" fill-rule="evenodd" fill-opacity="1"></path>
<defs>
  <clipPath id="clip612">
    <rect x="194" y="47" width="2159" height="1440"></rect>
  </clipPath>
</defs>
<polyline clip-path="url(#clip612)" style="stroke:#000000; stroke-linecap:round; stroke-linejoin:round; stroke-width:2; stroke-opacity:0.1; fill:none" points="684.173,1486.45 684.173,47.2441 "></polyline>
<polyline clip-path="url(#clip612)" style="stroke:#000000; stroke-linecap:round; stroke-linejoin:round; stroke-width:2; stroke-opacity:0.1; fill:none" points="1220.01,1486.45 1220.01,47.2441 "></polyline>
<polyline clip-path="url(#clip612)" style="stroke:#000000; stroke-linecap:round; stroke-linejoin:round; stroke-width:2; stroke-opacity:0.1; fill:none" points="1755.84,1486.45 1755.84,47.2441 "></polyline>
<polyline clip-path="url(#clip612)" style="stroke:#000000; stroke-linecap:round; stroke-linejoin:round; stroke-width:2; stroke-opacity:0.1; fill:none" points="2291.67,1486.45 2291.67,47.2441 "></polyline>
<polyline clip-path="url(#clip610)" style="stroke:#000000; stroke-linecap:round; stroke-linejoin:round; stroke-width:4; stroke-opacity:1; fill:none" points="194.422,1486.45 2352.76,1486.45 "></polyline>
<polyline clip-path="url(#clip610)" style="stroke:#000000; stroke-linecap:round; stroke-linejoin:round; stroke-width:4; stroke-opacity:1; fill:none" points="684.173,1486.45 684.173,1467.55 "></polyline>
<polyline clip-path="url(#clip610)" style="stroke:#000000; stroke-linecap:round; stroke-linejoin:round; stroke-width:4; stroke-opacity:1; fill:none" points="1220.01,1486.45 1220.01,1467.55 "></polyline>
<polyline clip-path="url(#clip610)" style="stroke:#000000; stroke-linecap:round; stroke-linejoin:round; stroke-width:4; stroke-opacity:1; fill:none" points="1755.84,1486.45 1755.84,1467.55 "></polyline>
<polyline clip-path="url(#clip610)" style="stroke:#000000; stroke-linecap:round; stroke-linejoin:round; stroke-width:4; stroke-opacity:1; fill:none" points="2291.67,1486.45 2291.67,1467.55 "></polyline>
<path clip-path="url(#clip610)" d="M674.451 1514.29 L692.807 1514.29 L692.807 1518.22 L678.733 1518.22 L678.733 1526.7 Q679.752 1526.35 680.77 1526.19 Q681.789 1526 682.807 1526 Q688.594 1526 691.974 1529.17 Q695.354 1532.34 695.354 1537.76 Q695.354 1543.34 691.881 1546.44 Q688.409 1549.52 682.09 1549.52 Q679.914 1549.52 677.645 1549.15 Q675.4 1548.78 672.993 1548.04 L672.993 1543.34 Q675.076 1544.47 677.298 1545.03 Q679.52 1545.58 681.997 1545.58 Q686.002 1545.58 688.34 1543.48 Q690.678 1541.37 690.678 1537.76 Q690.678 1534.15 688.34 1532.04 Q686.002 1529.94 681.997 1529.94 Q680.122 1529.94 678.247 1530.35 Q676.395 1530.77 674.451 1531.65 L674.451 1514.29 Z" fill="#000000" fill-rule="nonzero" fill-opacity="1"></path><path clip-path="url(#clip610)" d="M1194.69 1544.91 L1202.33 1544.91 L1202.33 1518.55 L1194.02 1520.21 L1194.02 1515.95 L1202.29 1514.29 L1206.96 1514.29 L1206.96 1544.91 L1214.6 1544.91 L1214.6 1548.85 L1194.69 1548.85 L1194.69 1544.91 Z" fill="#000000" fill-rule="nonzero" fill-opacity="1"></path><path clip-path="url(#clip610)" d="M1234.05 1517.37 Q1230.43 1517.37 1228.61 1520.93 Q1226.8 1524.47 1226.8 1531.6 Q1226.8 1538.71 1228.61 1542.27 Q1230.43 1545.82 1234.05 1545.82 Q1237.68 1545.82 1239.48 1542.27 Q1241.31 1538.71 1241.31 1531.6 Q1241.31 1524.47 1239.48 1520.93 Q1237.68 1517.37 1234.05 1517.37 M1234.05 1513.66 Q1239.86 1513.66 1242.91 1518.27 Q1245.99 1522.85 1245.99 1531.6 Q1245.99 1540.33 1242.91 1544.94 Q1239.86 1549.52 1234.05 1549.52 Q1228.23 1549.52 1225.16 1544.94 Q1222.1 1540.33 1222.1 1531.6 Q1222.1 1522.85 1225.16 1518.27 Q1228.23 1513.66 1234.05 1513.66 Z" fill="#000000" fill-rule="nonzero" fill-opacity="1"></path><path clip-path="url(#clip610)" d="M1731.02 1544.91 L1738.66 1544.91 L1738.66 1518.55 L1730.35 1520.21 L1730.35 1515.95 L1738.62 1514.29 L1743.29 1514.29 L1743.29 1544.91 L1750.93 1544.91 L1750.93 1548.85 L1731.02 1548.85 L1731.02 1544.91 Z" fill="#000000" fill-rule="nonzero" fill-opacity="1"></path><path clip-path="url(#clip610)" d="M1760.42 1514.29 L1778.78 1514.29 L1778.78 1518.22 L1764.7 1518.22 L1764.7 1526.7 Q1765.72 1526.35 1766.74 1526.19 Q1767.76 1526 1768.78 1526 Q1774.57 1526 1777.94 1529.17 Q1781.32 1532.34 1781.32 1537.76 Q1781.32 1543.34 1777.85 1546.44 Q1774.38 1549.52 1768.06 1549.52 Q1765.88 1549.52 1763.62 1549.15 Q1761.37 1548.78 1758.96 1548.04 L1758.96 1543.34 Q1761.05 1544.47 1763.27 1545.03 Q1765.49 1545.58 1767.97 1545.58 Q1771.97 1545.58 1774.31 1543.48 Q1776.65 1541.37 1776.65 1537.76 Q1776.65 1534.15 1774.31 1532.04 Q1771.97 1529.94 1767.97 1529.94 Q1766.09 1529.94 1764.22 1530.35 Q1762.37 1530.77 1760.42 1531.65 L1760.42 1514.29 Z" fill="#000000" fill-rule="nonzero" fill-opacity="1"></path><path clip-path="url(#clip610)" d="M2270.44 1544.91 L2286.76 1544.91 L2286.76 1548.85 L2264.82 1548.85 L2264.82 1544.91 Q2267.48 1542.16 2272.06 1537.53 Q2276.67 1532.88 2277.85 1531.53 Q2280.1 1529.01 2280.98 1527.27 Q2281.88 1525.51 2281.88 1523.82 Q2281.88 1521.07 2279.93 1519.33 Q2278.01 1517.6 2274.91 1517.6 Q2272.71 1517.6 2270.26 1518.36 Q2267.83 1519.13 2265.05 1520.68 L2265.05 1515.95 Q2267.87 1514.82 2270.33 1514.24 Q2272.78 1513.66 2274.82 1513.66 Q2280.19 1513.66 2283.38 1516.35 Q2286.58 1519.03 2286.58 1523.52 Q2286.58 1525.65 2285.77 1527.57 Q2284.98 1529.47 2282.87 1532.07 Q2282.3 1532.74 2279.19 1535.95 Q2276.09 1539.15 2270.44 1544.91 Z" fill="#000000" fill-rule="nonzero" fill-opacity="1"></path><path clip-path="url(#clip610)" d="M2306.58 1517.37 Q2302.97 1517.37 2301.14 1520.93 Q2299.33 1524.47 2299.33 1531.6 Q2299.33 1538.71 2301.14 1542.27 Q2302.97 1545.82 2306.58 1545.82 Q2310.21 1545.82 2312.02 1542.27 Q2313.85 1538.71 2313.85 1531.6 Q2313.85 1524.47 2312.02 1520.93 Q2310.21 1517.37 2306.58 1517.37 M2306.58 1513.66 Q2312.39 1513.66 2315.44 1518.27 Q2318.52 1522.85 2318.52 1531.6 Q2318.52 1540.33 2315.44 1544.94 Q2312.39 1549.52 2306.58 1549.52 Q2300.77 1549.52 2297.69 1544.94 Q2294.63 1540.33 2294.63 1531.6 Q2294.63 1522.85 2297.69 1518.27 Q2300.77 1513.66 2306.58 1513.66 Z" fill="#000000" fill-rule="nonzero" fill-opacity="1"></path><polyline clip-path="url(#clip612)" style="stroke:#000000; stroke-linecap:round; stroke-linejoin:round; stroke-width:2; stroke-opacity:0.1; fill:none" points="194.422,1226.48 2352.76,1226.48 "></polyline>
<polyline clip-path="url(#clip612)" style="stroke:#000000; stroke-linecap:round; stroke-linejoin:round; stroke-width:2; stroke-opacity:0.1; fill:none" points="194.422,950.201 2352.76,950.201 "></polyline>
<polyline clip-path="url(#clip612)" style="stroke:#000000; stroke-linecap:round; stroke-linejoin:round; stroke-width:2; stroke-opacity:0.1; fill:none" points="194.422,673.924 2352.76,673.924 "></polyline>
<polyline clip-path="url(#clip612)" style="stroke:#000000; stroke-linecap:round; stroke-linejoin:round; stroke-width:2; stroke-opacity:0.1; fill:none" points="194.422,397.646 2352.76,397.646 "></polyline>
<polyline clip-path="url(#clip612)" style="stroke:#000000; stroke-linecap:round; stroke-linejoin:round; stroke-width:2; stroke-opacity:0.1; fill:none" points="194.422,121.369 2352.76,121.369 "></polyline>
<polyline clip-path="url(#clip610)" style="stroke:#000000; stroke-linecap:round; stroke-linejoin:round; stroke-width:4; stroke-opacity:1; fill:none" points="194.422,1486.45 194.422,47.2441 "></polyline>
<polyline clip-path="url(#clip610)" style="stroke:#000000; stroke-linecap:round; stroke-linejoin:round; stroke-width:4; stroke-opacity:1; fill:none" points="194.422,1226.48 213.32,1226.48 "></polyline>
<polyline clip-path="url(#clip610)" style="stroke:#000000; stroke-linecap:round; stroke-linejoin:round; stroke-width:4; stroke-opacity:1; fill:none" points="194.422,950.201 213.32,950.201 "></polyline>
<polyline clip-path="url(#clip610)" style="stroke:#000000; stroke-linecap:round; stroke-linejoin:round; stroke-width:4; stroke-opacity:1; fill:none" points="194.422,673.924 213.32,673.924 "></polyline>
<polyline clip-path="url(#clip610)" style="stroke:#000000; stroke-linecap:round; stroke-linejoin:round; stroke-width:4; stroke-opacity:1; fill:none" points="194.422,397.646 213.32,397.646 "></polyline>
<polyline clip-path="url(#clip610)" style="stroke:#000000; stroke-linecap:round; stroke-linejoin:round; stroke-width:4; stroke-opacity:1; fill:none" points="194.422,121.369 213.32,121.369 "></polyline>
<path clip-path="url(#clip610)" d="M52.4736 1226.93 L82.1494 1226.93 L82.1494 1230.87 L52.4736 1230.87 L52.4736 1226.93 Z" fill="#000000" fill-rule="nonzero" fill-opacity="1"></path><path clip-path="url(#clip610)" d="M102.242 1212.28 Q98.6308 1212.28 96.8021 1215.84 Q94.9965 1219.38 94.9965 1226.51 Q94.9965 1233.62 96.8021 1237.18 Q98.6308 1240.73 102.242 1240.73 Q105.876 1240.73 107.682 1237.18 Q109.51 1233.62 109.51 1226.51 Q109.51 1219.38 107.682 1215.84 Q105.876 1212.28 102.242 1212.28 M102.242 1208.57 Q108.052 1208.57 111.108 1213.18 Q114.186 1217.76 114.186 1226.51 Q114.186 1235.24 111.108 1239.85 Q108.052 1244.43 102.242 1244.43 Q96.4317 1244.43 93.353 1239.85 Q90.2975 1235.24 90.2975 1226.51 Q90.2975 1217.76 93.353 1213.18 Q96.4317 1208.57 102.242 1208.57 Z" fill="#000000" fill-rule="nonzero" fill-opacity="1"></path><path clip-path="url(#clip610)" d="M122.404 1237.88 L127.288 1237.88 L127.288 1243.76 L122.404 1243.76 L122.404 1237.88 Z" fill="#000000" fill-rule="nonzero" fill-opacity="1"></path><path clip-path="url(#clip610)" d="M137.519 1209.2 L155.876 1209.2 L155.876 1213.13 L141.802 1213.13 L141.802 1221.61 Q142.82 1221.26 143.839 1221.1 Q144.857 1220.91 145.876 1220.91 Q151.663 1220.91 155.042 1224.08 Q158.422 1227.25 158.422 1232.67 Q158.422 1238.25 154.95 1241.35 Q151.478 1244.43 145.158 1244.43 Q142.982 1244.43 140.714 1244.06 Q138.469 1243.69 136.061 1242.95 L136.061 1238.25 Q138.144 1239.38 140.367 1239.94 Q142.589 1240.49 145.066 1240.49 Q149.07 1240.49 151.408 1238.39 Q153.746 1236.28 153.746 1232.67 Q153.746 1229.06 151.408 1226.95 Q149.07 1224.85 145.066 1224.85 Q143.191 1224.85 141.316 1225.26 Q139.464 1225.68 137.519 1226.56 L137.519 1209.2 Z" fill="#000000" fill-rule="nonzero" fill-opacity="1"></path><path clip-path="url(#clip610)" d="M50.9921 950.653 L80.6679 950.653 L80.6679 954.588 L50.9921 954.588 L50.9921 950.653 Z" fill="#000000" fill-rule="nonzero" fill-opacity="1"></path><path clip-path="url(#clip610)" d="M100.76 936 Q97.1493 936 95.3206 939.565 Q93.515 943.106 93.515 950.236 Q93.515 957.342 95.3206 960.907 Q97.1493 964.449 100.76 964.449 Q104.395 964.449 106.2 960.907 Q108.029 957.342 108.029 950.236 Q108.029 943.106 106.2 939.565 Q104.395 936 100.76 936 M100.76 932.296 Q106.571 932.296 109.626 936.903 Q112.705 941.486 112.705 950.236 Q112.705 958.963 109.626 963.569 Q106.571 968.153 100.76 968.153 Q94.9502 968.153 91.8715 963.569 Q88.816 958.963 88.816 950.236 Q88.816 941.486 91.8715 936.903 Q94.9502 932.296 100.76 932.296 Z" fill="#000000" fill-rule="nonzero" fill-opacity="1"></path><path clip-path="url(#clip610)" d="M120.922 961.602 L125.807 961.602 L125.807 967.481 L120.922 967.481 L120.922 961.602 Z" fill="#000000" fill-rule="nonzero" fill-opacity="1"></path><path clip-path="url(#clip610)" d="M148.839 936.995 L137.033 955.444 L148.839 955.444 L148.839 936.995 M147.612 932.921 L153.492 932.921 L153.492 955.444 L158.422 955.444 L158.422 959.333 L153.492 959.333 L153.492 967.481 L148.839 967.481 L148.839 959.333 L133.237 959.333 L133.237 954.819 L147.612 932.921 Z" fill="#000000" fill-rule="nonzero" fill-opacity="1"></path><path clip-path="url(#clip610)" d="M52.1264 674.375 L81.8021 674.375 L81.8021 678.31 L52.1264 678.31 L52.1264 674.375 Z" fill="#000000" fill-rule="nonzero" fill-opacity="1"></path><path clip-path="url(#clip610)" d="M101.895 659.723 Q98.2835 659.723 96.4548 663.287 Q94.6493 666.829 94.6493 673.959 Q94.6493 681.065 96.4548 684.63 Q98.2835 688.171 101.895 688.171 Q105.529 688.171 107.334 684.63 Q109.163 681.065 109.163 673.959 Q109.163 666.829 107.334 663.287 Q105.529 659.723 101.895 659.723 M101.895 656.019 Q107.705 656.019 110.76 660.625 Q113.839 665.209 113.839 673.959 Q113.839 682.685 110.76 687.292 Q107.705 691.875 101.895 691.875 Q96.0845 691.875 93.0058 687.292 Q89.9503 682.685 89.9503 673.959 Q89.9503 665.209 93.0058 660.625 Q96.0845 656.019 101.895 656.019 Z" fill="#000000" fill-rule="nonzero" fill-opacity="1"></path><path clip-path="url(#clip610)" d="M122.057 685.324 L126.941 685.324 L126.941 691.204 L122.057 691.204 L122.057 685.324 Z" fill="#000000" fill-rule="nonzero" fill-opacity="1"></path><path clip-path="url(#clip610)" d="M151.293 672.57 Q154.649 673.287 156.524 675.556 Q158.422 677.824 158.422 681.158 Q158.422 686.273 154.904 689.074 Q151.385 691.875 144.904 691.875 Q142.728 691.875 140.413 691.435 Q138.121 691.019 135.668 690.162 L135.668 685.648 Q137.612 686.783 139.927 687.361 Q142.242 687.94 144.765 687.94 Q149.163 687.94 151.455 686.204 Q153.769 684.468 153.769 681.158 Q153.769 678.102 151.617 676.389 Q149.487 674.653 145.668 674.653 L141.64 674.653 L141.64 670.81 L145.853 670.81 Q149.302 670.81 151.13 669.445 Q152.959 668.056 152.959 665.463 Q152.959 662.801 151.061 661.389 Q149.186 659.954 145.668 659.954 Q143.746 659.954 141.547 660.371 Q139.348 660.787 136.709 661.667 L136.709 657.5 Q139.371 656.76 141.686 656.389 Q144.024 656.019 146.084 656.019 Q151.408 656.019 154.51 658.449 Q157.612 660.857 157.612 664.977 Q157.612 667.848 155.968 669.838 Q154.325 671.806 151.293 672.57 Z" fill="#000000" fill-rule="nonzero" fill-opacity="1"></path><path clip-path="url(#clip610)" d="M53.0754 398.098 L82.7512 398.098 L82.7512 402.033 L53.0754 402.033 L53.0754 398.098 Z" fill="#000000" fill-rule="nonzero" fill-opacity="1"></path><path clip-path="url(#clip610)" d="M102.844 383.445 Q99.2326 383.445 97.4039 387.01 Q95.5984 390.552 95.5984 397.681 Q95.5984 404.788 97.4039 408.352 Q99.2326 411.894 102.844 411.894 Q106.478 411.894 108.283 408.352 Q110.112 404.788 110.112 397.681 Q110.112 390.552 108.283 387.01 Q106.478 383.445 102.844 383.445 M102.844 379.741 Q108.654 379.741 111.709 384.348 Q114.788 388.931 114.788 397.681 Q114.788 406.408 111.709 411.014 Q108.654 415.598 102.844 415.598 Q97.0335 415.598 93.9549 411.014 Q90.8993 406.408 90.8993 397.681 Q90.8993 388.931 93.9549 384.348 Q97.0335 379.741 102.844 379.741 Z" fill="#000000" fill-rule="nonzero" fill-opacity="1"></path><path clip-path="url(#clip610)" d="M123.006 409.047 L127.89 409.047 L127.89 414.926 L123.006 414.926 L123.006 409.047 Z" fill="#000000" fill-rule="nonzero" fill-opacity="1"></path><path clip-path="url(#clip610)" d="M142.103 410.991 L158.422 410.991 L158.422 414.926 L136.478 414.926 L136.478 410.991 Q139.14 408.237 143.723 403.607 Q148.33 398.954 149.51 397.612 Q151.755 395.089 152.635 393.352 Q153.538 391.593 153.538 389.903 Q153.538 387.149 151.593 385.413 Q149.672 383.677 146.57 383.677 Q144.371 383.677 141.918 384.44 Q139.487 385.204 136.709 386.755 L136.709 382.033 Q139.533 380.899 141.987 380.32 Q144.441 379.741 146.478 379.741 Q151.848 379.741 155.042 382.427 Q158.237 385.112 158.237 389.602 Q158.237 391.732 157.427 393.653 Q156.64 395.552 154.533 398.144 Q153.955 398.815 150.853 402.033 Q147.751 405.227 142.103 410.991 Z" fill="#000000" fill-rule="nonzero" fill-opacity="1"></path><path clip-path="url(#clip610)" d="M52.7051 121.82 L82.3808 121.82 L82.3808 125.756 L52.7051 125.756 L52.7051 121.82 Z" fill="#000000" fill-rule="nonzero" fill-opacity="1"></path><path clip-path="url(#clip610)" d="M102.473 107.168 Q98.8622 107.168 97.0335 110.732 Q95.228 114.274 95.228 121.404 Q95.228 128.51 97.0335 132.075 Q98.8622 135.617 102.473 135.617 Q106.108 135.617 107.913 132.075 Q109.742 128.51 109.742 121.404 Q109.742 114.274 107.913 110.732 Q106.108 107.168 102.473 107.168 M102.473 103.464 Q108.283 103.464 111.339 108.07 Q114.418 112.654 114.418 121.404 Q114.418 130.131 111.339 134.737 Q108.283 139.32 102.473 139.32 Q96.6632 139.32 93.5845 134.737 Q90.529 130.131 90.529 121.404 Q90.529 112.654 93.5845 108.07 Q96.6632 103.464 102.473 103.464 Z" fill="#000000" fill-rule="nonzero" fill-opacity="1"></path><path clip-path="url(#clip610)" d="M122.635 132.769 L127.519 132.769 L127.519 138.649 L122.635 138.649 L122.635 132.769 Z" fill="#000000" fill-rule="nonzero" fill-opacity="1"></path><path clip-path="url(#clip610)" d="M138.515 134.714 L146.154 134.714 L146.154 108.348 L137.844 110.015 L137.844 105.756 L146.107 104.089 L150.783 104.089 L150.783 134.714 L158.422 134.714 L158.422 138.649 L138.515 138.649 L138.515 134.714 Z" fill="#000000" fill-rule="nonzero" fill-opacity="1"></path><circle clip-path="url(#clip612)" cx="255.507" cy="1445.72" r="14.4" fill="#009af9" fill-rule="evenodd" fill-opacity="1" stroke="#000000" stroke-opacity="1" stroke-width="3.2"></circle>
<circle clip-path="url(#clip612)" cx="362.674" cy="507.394" r="14.4" fill="#009af9" fill-rule="evenodd" fill-opacity="1" stroke="#000000" stroke-opacity="1" stroke-width="3.2"></circle>
<circle clip-path="url(#clip612)" cx="469.84" cy="501.214" r="14.4" fill="#009af9" fill-rule="evenodd" fill-opacity="1" stroke="#000000" stroke-opacity="1" stroke-width="3.2"></circle>
<circle clip-path="url(#clip612)" cx="577.007" cy="501.343" r="14.4" fill="#009af9" fill-rule="evenodd" fill-opacity="1" stroke="#000000" stroke-opacity="1" stroke-width="3.2"></circle>
<circle clip-path="url(#clip612)" cx="684.173" cy="457.401" r="14.4" fill="#009af9" fill-rule="evenodd" fill-opacity="1" stroke="#000000" stroke-opacity="1" stroke-width="3.2"></circle>
<circle clip-path="url(#clip612)" cx="791.34" cy="884.34" r="14.4" fill="#009af9" fill-rule="evenodd" fill-opacity="1" stroke="#000000" stroke-opacity="1" stroke-width="3.2"></circle>
<circle clip-path="url(#clip612)" cx="898.506" cy="855.393" r="14.4" fill="#009af9" fill-rule="evenodd" fill-opacity="1" stroke="#000000" stroke-opacity="1" stroke-width="3.2"></circle>
<circle clip-path="url(#clip612)" cx="1005.67" cy="851.485" r="14.4" fill="#009af9" fill-rule="evenodd" fill-opacity="1" stroke="#000000" stroke-opacity="1" stroke-width="3.2"></circle>
<circle clip-path="url(#clip612)" cx="1112.84" cy="810.248" r="14.4" fill="#009af9" fill-rule="evenodd" fill-opacity="1" stroke="#000000" stroke-opacity="1" stroke-width="3.2"></circle>
<circle clip-path="url(#clip612)" cx="1220.01" cy="97.4049" r="14.4" fill="#009af9" fill-rule="evenodd" fill-opacity="1" stroke="#000000" stroke-opacity="1" stroke-width="3.2"></circle>
<circle clip-path="url(#clip612)" cx="1327.17" cy="100.048" r="14.4" fill="#009af9" fill-rule="evenodd" fill-opacity="1" stroke="#000000" stroke-opacity="1" stroke-width="3.2"></circle>
<circle clip-path="url(#clip612)" cx="1434.34" cy="87.9763" r="14.4" fill="#009af9" fill-rule="evenodd" fill-opacity="1" stroke="#000000" stroke-opacity="1" stroke-width="3.2"></circle>
<circle clip-path="url(#clip612)" cx="1541.51" cy="645.649" r="14.4" fill="#009af9" fill-rule="evenodd" fill-opacity="1" stroke="#000000" stroke-opacity="1" stroke-width="3.2"></circle>
<circle clip-path="url(#clip612)" cx="1648.67" cy="1407.27" r="14.4" fill="#009af9" fill-rule="evenodd" fill-opacity="1" stroke="#000000" stroke-opacity="1" stroke-width="3.2"></circle>
<circle clip-path="url(#clip612)" cx="1755.84" cy="1384.61" r="14.4" fill="#009af9" fill-rule="evenodd" fill-opacity="1" stroke="#000000" stroke-opacity="1" stroke-width="3.2"></circle>
<circle clip-path="url(#clip612)" cx="1863" cy="1385.62" r="14.4" fill="#009af9" fill-rule="evenodd" fill-opacity="1" stroke="#000000" stroke-opacity="1" stroke-width="3.2"></circle>
<circle clip-path="url(#clip612)" cx="1970.17" cy="1389.83" r="14.4" fill="#009af9" fill-rule="evenodd" fill-opacity="1" stroke="#000000" stroke-opacity="1" stroke-width="3.2"></circle>
<circle clip-path="url(#clip612)" cx="2077.34" cy="377.517" r="14.4" fill="#009af9" fill-rule="evenodd" fill-opacity="1" stroke="#000000" stroke-opacity="1" stroke-width="3.2"></circle>
<circle clip-path="url(#clip612)" cx="2184.5" cy="376.488" r="14.4" fill="#009af9" fill-rule="evenodd" fill-opacity="1" stroke="#000000" stroke-opacity="1" stroke-width="3.2"></circle>
<circle clip-path="url(#clip612)" cx="2291.67" cy="376.462" r="14.4" fill="#009af9" fill-rule="evenodd" fill-opacity="1" stroke="#000000" stroke-opacity="1" stroke-width="3.2"></circle>
<path clip-path="url(#clip610)" d="M266.367 198.898 L534.63 198.898 L534.63 95.2176 L266.367 95.2176  Z" fill="#ffffff" fill-rule="evenodd" fill-opacity="1"></path>
<polyline clip-path="url(#clip610)" style="stroke:#000000; stroke-linecap:round; stroke-linejoin:round; stroke-width:4; stroke-opacity:1; fill:none" points="266.367,198.898 534.63,198.898 534.63,95.2176 266.367,95.2176 266.367,198.898 "></polyline>
<circle clip-path="url(#clip610)" cx="362.293" cy="147.058" r="20.48" fill="#009af9" fill-rule="evenodd" fill-opacity="1" stroke="#000000" stroke-opacity="1" stroke-width="4.55111"></circle>
<path clip-path="url(#clip610)" d="M472.061 166.745 Q470.255 171.375 468.542 172.787 Q466.83 174.199 463.959 174.199 L460.556 174.199 L460.556 170.634 L463.056 170.634 Q464.816 170.634 465.788 169.8 Q466.76 168.967 467.941 165.865 L468.705 163.921 L458.218 138.412 L462.732 138.412 L470.834 158.689 L478.936 138.412 L483.45 138.412 L472.061 166.745 Z" fill="#000000" fill-rule="nonzero" fill-opacity="1"></path><path clip-path="url(#clip610)" d="M490.741 160.402 L498.38 160.402 L498.38 134.037 L490.07 135.703 L490.07 131.444 L498.334 129.778 L503.01 129.778 L503.01 160.402 L510.649 160.402 L510.649 164.338 L490.741 164.338 L490.741 160.402 Z" fill="#000000" fill-rule="nonzero" fill-opacity="1"></path></svg>