<svg xmlns="http://www.w3.org/2000/svg" xmlns:xlink="http://www.w3.org/1999/xlink" width="600" height="400" viewBox="0 0 2400 1600">
<defs>
  <clipPath id="clip770">
    <rect x="0" y="0" width="2400" height="1600"></rect>
  </clipPath>
</defs>
<path clip-path="url(#clip770)" d="M0 1600 L2400 1600 L2400 0 L0 0  Z" fill="#ffffff" fill-rule="evenodd" fill-opacity="1"></path>
<defs>
  <clipPath id="clip771">
    <rect x="480" y="0" width="1681" height="1600"></rect>
  </clipPath>
</defs>
<path clip-path="url(#clip770)" d="M112.177 1486.45 L2352.76 1486.45 L2352.76 47.2441 L112.177 47.2441  Z" fill="#ffffff" fill-rule="evenodd" fill-opacity="1"></path>
<defs>
  <clipPath id="clip772">
    <rect x="112" y="47" width="2242" height="1440"></rect>
  </clipPath>
</defs>
<polyline clip-path="url(#clip772)" style="stroke:#000000; stroke-linecap:round; stroke-linejoin:round; stroke-width:2; stroke-opacity:0.1; fill:none" points="154.239,1486.45 154.239,47.2441 "></polyline>
<polyline clip-path="url(#clip772)" style="stroke:#000000; stroke-linecap:round; stroke-linejoin:round; stroke-width:2; stroke-opacity:0.1; fill:none" points="688.015,1486.45 688.015,47.2441 "></polyline>
<polyline clip-path="url(#clip772)" style="stroke:#000000; stroke-linecap:round; stroke-linejoin:round; stroke-width:2; stroke-opacity:0.1; fill:none" points="1221.79,1486.45 1221.79,47.2441 "></polyline>
<polyline clip-path="url(#clip772)" style="stroke:#000000; stroke-linecap:round; stroke-linejoin:round; stroke-width:2; stroke-opacity:0.1; fill:none" points="1755.57,1486.45 1755.57,47.2441 "></polyline>
<polyline clip-path="url(#clip772)" style="stroke:#000000; stroke-linecap:round; stroke-linejoin:round; stroke-width:2; stroke-opacity:0.1; fill:none" points="2289.34,1486.45 2289.34,47.2441 "></polyline>
<polyline clip-path="url(#clip770)" style="stroke:#000000; stroke-linecap:round; stroke-linejoin:round; stroke-width:4; stroke-opacity:1; fill:none" points="112.177,1486.45 2352.76,1486.45 "></polyline>
<polyline clip-path="url(#clip770)" style="stroke:#000000; stroke-linecap:round; stroke-linejoin:round; stroke-width:4; stroke-opacity:1; fill:none" points="154.239,1486.45 154.239,1467.55 "></polyline>
<polyline clip-path="url(#clip770)" style="stroke:#000000; stroke-linecap:round; stroke-linejoin:round; stroke-width:4; stroke-opacity:1; fill:none" points="688.015,1486.45 688.015,1467.55 "></polyline>
<polyline clip-path="url(#clip770)" style="stroke:#000000; stroke-linecap:round; stroke-linejoin:round; stroke-width:4; stroke-opacity:1; fill:none" points="1221.79,1486.45 1221.79,1467.55 "></polyline>
<polyline clip-path="url(#clip770)" style="stroke:#000000; stroke-linecap:round; stroke-linejoin:round; stroke-width:4; stroke-opacity:1; fill:none" points="1755.57,1486.45 1755.57,1467.55 "></polyline>
<polyline clip-path="url(#clip770)" style="stroke:#000000; stroke-linecap:round; stroke-linejoin:round; stroke-width:4; stroke-opacity:1; fill:none" points="2289.34,1486.45 2289.34,1467.55 "></polyline>
<path clip-path="url(#clip770)" d="M154.239 1517.37 Q150.628 1517.37 148.799 1520.93 Q146.993 1524.47 146.993 1531.6 Q146.993 1538.71 148.799 1542.27 Q150.628 1545.82 154.239 1545.82 Q157.873 1545.82 159.679 1542.27 Q161.507 1538.71 161.507 1531.6 Q161.507 1524.47 159.679 1520.93 Q157.873 1517.37 154.239 1517.37 M154.239 1513.66 Q160.049 1513.66 163.104 1518.27 Q166.183 1522.85 166.183 1531.6 Q166.183 1540.33 163.104 1544.94 Q160.049 1549.52 154.239 1549.52 Q148.429 1549.52 145.35 1544.94 Q142.294 1540.33 142.294 1531.6 Q142.294 1522.85 145.35 1518.27 Q148.429 1513.66 154.239 1513.66 Z" fill="#000000" fill-rule="nonzero" fill-opacity="1"></path><path clip-path="url(#clip770)" d="M667.286 1544.91 L683.605 1544.91 L683.605 1548.85 L661.661 1548.85 L661.661 1544.91 Q664.323 1542.16 668.906 1537.53 Q673.513 1532.88 674.693 1531.53 Q676.939 1529.01 677.818 1527.27 Q678.721 1525.51 678.721 1523.82 Q678.721 1521.07 676.777 1519.33 Q674.855 1517.6 671.753 1517.6 Q669.554 1517.6 667.101 1518.36 Q664.67 1519.13 661.892 1520.68 L661.892 1515.95 Q664.716 1514.82 667.17 1514.24 Q669.624 1513.66 671.661 1513.66 Q677.031 1513.66 680.226 1516.35 Q683.42 1519.03 683.42 1523.52 Q683.42 1525.65 682.61 1527.57 Q681.823 1529.47 679.716 1532.07 Q679.138 1532.74 676.036 1535.95 Q672.934 1539.15 667.286 1544.91 Z" fill="#000000" fill-rule="nonzero" fill-opacity="1"></path><path clip-path="url(#clip770)" d="M693.466 1514.29 L711.823 1514.29 L711.823 1518.22 L697.749 1518.22 L697.749 1526.7 Q698.767 1526.35 699.786 1526.19 Q700.804 1526 701.823 1526 Q707.61 1526 710.989 1529.17 Q714.369 1532.34 714.369 1537.76 Q714.369 1543.34 710.897 1546.44 Q707.424 1549.52 701.105 1549.52 Q698.929 1549.52 696.661 1549.15 Q694.415 1548.78 692.008 1548.04 L692.008 1543.34 Q694.091 1544.47 696.313 1545.03 Q698.536 1545.58 701.012 1545.58 Q705.017 1545.58 707.355 1543.48 Q709.693 1541.37 709.693 1537.76 Q709.693 1534.15 707.355 1532.04 Q705.017 1529.94 701.012 1529.94 Q699.138 1529.94 697.263 1530.35 Q695.411 1530.77 693.466 1531.65 L693.466 1514.29 Z" fill="#000000" fill-rule="nonzero" fill-opacity="1"></path><path clip-path="url(#clip770)" d="M1196.49 1514.29 L1214.85 1514.29 L1214.85 1518.22 L1200.77 1518.22 L1200.77 1526.7 Q1201.79 1526.35 1202.81 1526.19 Q1203.83 1526 1204.85 1526 Q1210.63 1526 1214.01 1529.17 Q1217.39 1532.34 1217.39 1537.76 Q1217.39 1543.34 1213.92 1546.44 Q1210.45 1549.52 1204.13 1549.52 Q1201.95 1549.52 1199.68 1549.15 Q1197.44 1548.78 1195.03 1548.04 L1195.03 1543.34 Q1197.12 1544.47 1199.34 1545.03 Q1201.56 1545.58 1204.04 1545.58 Q1208.04 1545.58 1210.38 1543.48 Q1212.72 1541.37 1212.72 1537.76 Q1212.72 1534.15 1210.38 1532.04 Q1208.04 1529.94 1204.04 1529.94 Q1202.16 1529.94 1200.29 1530.35 Q1198.43 1530.77 1196.49 1531.65 L1196.49 1514.29 Z" fill="#000000" fill-rule="nonzero" fill-opacity="1"></path><path clip-path="url(#clip770)" d="M1236.61 1517.37 Q1232.99 1517.37 1231.17 1520.93 Q1229.36 1524.47 1229.36 1531.6 Q1229.36 1538.71 1231.17 1542.27 Q1232.99 1545.82 1236.61 1545.82 Q1240.24 1545.82 1242.05 1542.27 Q1243.87 1538.71 1243.87 1531.6 Q1243.87 1524.47 1242.05 1520.93 Q1240.24 1517.37 1236.61 1517.37 M1236.61 1513.66 Q1242.42 1513.66 1245.47 1518.27 Q1248.55 1522.85 1248.55 1531.6 Q1248.55 1540.33 1245.47 1544.94 Q1242.42 1549.52 1236.61 1549.52 Q1230.8 1549.52 1227.72 1544.94 Q1224.66 1540.33 1224.66 1531.6 Q1224.66 1522.85 1227.72 1518.27 Q1230.8 1513.66 1236.61 1513.66 Z" fill="#000000" fill-rule="nonzero" fill-opacity="1"></path><path clip-path="url(#clip770)" d="M1729.42 1514.29 L1751.64 1514.29 L1751.64 1516.28 L1739.1 1548.85 L1734.21 1548.85 L1746.02 1518.22 L1729.42 1518.22 L1729.42 1514.29 Z" fill="#000000" fill-rule="nonzero" fill-opacity="1"></path><path clip-path="url(#clip770)" d="M1760.81 1514.29 L1779.17 1514.29 L1779.17 1518.22 L1765.09 1518.22 L1765.09 1526.7 Q1766.11 1526.35 1767.13 1526.19 Q1768.15 1526 1769.17 1526 Q1774.95 1526 1778.33 1529.17 Q1781.71 1532.34 1781.71 1537.76 Q1781.71 1543.34 1778.24 1546.44 Q1774.77 1549.52 1768.45 1549.52 Q1766.27 1549.52 1764 1549.15 Q1761.76 1548.78 1759.35 1548.04 L1759.35 1543.34 Q1761.44 1544.47 1763.66 1545.03 Q1765.88 1545.58 1768.36 1545.58 Q1772.36 1545.58 1774.7 1543.48 Q1777.04 1541.37 1777.04 1537.76 Q1777.04 1534.15 1774.7 1532.04 Q1772.36 1529.94 1768.36 1529.94 Q1766.48 1529.94 1764.61 1530.35 Q1762.75 1530.77 1760.81 1531.65 L1760.81 1514.29 Z" fill="#000000" fill-rule="nonzero" fill-opacity="1"></path><path clip-path="url(#clip770)" d="M2248.95 1544.91 L2256.59 1544.91 L2256.59 1518.55 L2248.28 1520.21 L2248.28 1515.95 L2256.54 1514.29 L2261.22 1514.29 L2261.22 1544.91 L2268.86 1544.91 L2268.86 1548.85 L2248.95 1548.85 L2248.95 1544.91 Z" fill="#000000" fill-rule="nonzero" fill-opacity="1"></path><path clip-path="url(#clip770)" d="M2288.3 1517.37 Q2284.69 1517.37 2282.86 1520.93 Q2281.06 1524.47 2281.06 1531.6 Q2281.06 1538.71 2282.86 1542.27 Q2284.69 1545.82 2288.3 1545.82 Q2291.94 1545.82 2293.74 1542.27 Q2295.57 1538.71 2295.57 1531.6 Q2295.57 1524.47 2293.74 1520.93 Q2291.94 1517.37 2288.3 1517.37 M2288.3 1513.66 Q2294.11 1513.66 2297.17 1518.27 Q2300.25 1522.85 2300.25 1531.6 Q2300.25 1540.33 2297.17 1544.94 Q2294.11 1549.52 2288.3 1549.52 Q2282.49 1549.52 2279.41 1544.94 Q2276.36 1540.33 2276.36 1531.6 Q2276.36 1522.85 2279.41 1518.27 Q2282.49 1513.66 2288.3 1513.66 Z" fill="#000000" fill-rule="nonzero" fill-opacity="1"></path><path clip-path="url(#clip770)" d="M2318.46 1517.37 Q2314.85 1517.37 2313.02 1520.93 Q2311.22 1524.47 2311.22 1531.6 Q2311.22 1538.71 2313.02 1542.27 Q2314.85 1545.82 2318.46 1545.82 Q2322.1 1545.82 2323.9 1542.27 Q2325.73 1538.71 2325.73 1531.6 Q2325.73 1524.47 2323.9 1520.93 Q2322.1 1517.37 2318.46 1517.37 M2318.46 1513.66 Q2324.27 1513.66 2327.33 1518.27 Q2330.41 1522.85 2330.41 1531.6 Q2330.41 1540.33 2327.33 1544.94 Q2324.27 1549.52 2318.46 1549.52 Q2312.65 1549.52 2309.57 1544.94 Q2306.52 1540.33 2306.52 1531.6 Q2306.52 1522.85 2309.57 1518.27 Q2312.65 1513.66 2318.46 1513.66 Z" fill="#000000" fill-rule="nonzero" fill-opacity="1"></path><polyline clip-path="url(#clip772)" style="stroke:#000000; stroke-linecap:round; stroke-linejoin:round; stroke-width:2; stroke-opacity:0.1; fill:none" points="112.177,1197.14 2352.76,1197.14 "></polyline>
<polyline clip-path="url(#clip772)" style="stroke:#000000; stroke-linecap:round; stroke-linejoin:round; stroke-width:2; stroke-opacity:0.1; fill:none" points="112.177,832.454 2352.76,832.454 "></polyline>
<polyline clip-path="url(#clip772)" style="stroke:#000000; stroke-linecap:round; stroke-linejoin:round; stroke-width:2; stroke-opacity:0.1; fill:none" points="112.177,467.766 2352.76,467.766 "></polyline>
<polyline clip-path="url(#clip772)" style="stroke:#000000; stroke-linecap:round; stroke-linejoin:round; stroke-width:2; stroke-opacity:0.1; fill:none" points="112.177,103.077 2352.76,103.077 "></polyline>
<polyline clip-path="url(#clip770)" style="stroke:#000000; stroke-linecap:round; stroke-linejoin:round; stroke-width:4; stroke-opacity:1; fill:none" points="112.177,1486.45 112.177,47.2441 "></polyline>
<polyline clip-path="url(#clip770)" style="stroke:#000000; stroke-linecap:round; stroke-linejoin:round; stroke-width:4; stroke-opacity:1; fill:none" points="112.177,1197.14 131.075,1197.14 "></polyline>
<polyline clip-path="url(#clip770)" style="stroke:#000000; stroke-linecap:round; stroke-linejoin:round; stroke-width:4; stroke-opacity:1; fill:none" points="112.177,832.454 131.075,832.454 "></polyline>
<polyline clip-path="url(#clip770)" style="stroke:#000000; stroke-linecap:round; stroke-linejoin:round; stroke-width:4; stroke-opacity:1; fill:none" points="112.177,467.766 131.075,467.766 "></polyline>
<polyline clip-path="url(#clip770)" style="stroke:#000000; stroke-linecap:round; stroke-linejoin:round; stroke-width:4; stroke-opacity:1; fill:none" points="112.177,103.077 131.075,103.077 "></polyline>
<path clip-path="url(#clip770)" d="M66.5939 1183.94 L54.7884 1202.39 L66.5939 1202.39 L66.5939 1183.94 M65.367 1179.86 L71.2466 1179.86 L71.2466 1202.39 L76.1772 1202.39 L76.1772 1206.27 L71.2466 1206.27 L71.2466 1214.42 L66.5939 1214.42 L66.5939 1206.27 L50.9921 1206.27 L50.9921 1201.76 L65.367 1179.86 Z" fill="#000000" fill-rule="nonzero" fill-opacity="1"></path><path clip-path="url(#clip770)" d="M55.2745 815.174 L73.6309 815.174 L73.6309 819.11 L59.5569 819.11 L59.5569 827.582 Q60.5754 827.234 61.5939 827.072 Q62.6124 826.887 63.6309 826.887 Q69.418 826.887 72.7976 830.059 Q76.1772 833.23 76.1772 838.646 Q76.1772 844.225 72.705 847.327 Q69.2328 850.406 62.9134 850.406 Q60.7374 850.406 58.4689 850.035 Q56.2236 849.665 53.8162 848.924 L53.8162 844.225 Q55.8995 845.359 58.1217 845.915 Q60.3439 846.47 62.8208 846.47 Q66.8254 846.47 69.1633 844.364 Q71.5013 842.258 71.5013 838.646 Q71.5013 835.035 69.1633 832.929 Q66.8254 830.822 62.8208 830.822 Q60.9458 830.822 59.0708 831.239 Q57.2189 831.656 55.2745 832.535 L55.2745 815.174 Z" fill="#000000" fill-rule="nonzero" fill-opacity="1"></path><path clip-path="url(#clip770)" d="M64.6495 465.902 Q61.5013 465.902 59.6495 468.055 Q57.8208 470.208 57.8208 473.958 Q57.8208 477.685 59.6495 479.861 Q61.5013 482.013 64.6495 482.013 Q67.7976 482.013 69.6263 479.861 Q71.4781 477.685 71.4781 473.958 Q71.4781 470.208 69.6263 468.055 Q67.7976 465.902 64.6495 465.902 M73.9318 451.25 L73.9318 455.509 Q72.1726 454.676 70.367 454.236 Q68.5846 453.796 66.8254 453.796 Q62.1958 453.796 59.7421 456.921 Q57.3115 460.046 56.9643 466.365 Q58.33 464.351 60.3902 463.287 Q62.4504 462.199 64.9272 462.199 Q70.1355 462.199 73.1448 465.37 Q76.1772 468.518 76.1772 473.958 Q76.1772 479.282 73.029 482.499 Q69.8809 485.717 64.6495 485.717 Q58.6541 485.717 55.4828 481.134 Q52.3116 476.527 52.3116 467.8 Q52.3116 459.606 56.2004 454.745 Q60.0893 449.861 66.6402 449.861 Q68.3994 449.861 70.1818 450.208 Q71.9874 450.555 73.9318 451.25 Z" fill="#000000" fill-rule="nonzero" fill-opacity="1"></path><path clip-path="url(#clip770)" d="M53.9551 85.7972 L76.1772 85.7972 L76.1772 87.7879 L63.6309 120.357 L58.7467 120.357 L70.5522 89.7323 L53.9551 89.7323 L53.9551 85.7972 Z" fill="#000000" fill-rule="nonzero" fill-opacity="1"></path><circle clip-path="url(#clip772)" cx="175.59" cy="1445.72" r="14.4" fill="#009af9" fill-rule="evenodd" fill-opacity="1" stroke="#000000" stroke-opacity="1" stroke-width="3.2"></circle>
<circle clip-path="url(#clip772)" cx="196.941" cy="1167.24" r="14.4" fill="#009af9" fill-rule="evenodd" fill-opacity="1" stroke="#000000" stroke-opacity="1" stroke-width="3.2"></circle>
<circle clip-path="url(#clip772)" cx="218.292" cy="1140.36" r="14.4" fill="#009af9" fill-rule="evenodd" fill-opacity="1" stroke="#000000" stroke-opacity="1" stroke-width="3.2"></circle>
<circle clip-path="url(#clip772)" cx="239.643" cy="1139.9" r="14.4" fill="#009af9" fill-rule="evenodd" fill-opacity="1" stroke="#000000" stroke-opacity="1" stroke-width="3.2"></circle>
<circle clip-path="url(#clip772)" cx="260.994" cy="1139.62" r="14.4" fill="#009af9" fill-rule="evenodd" fill-opacity="1" stroke="#000000" stroke-opacity="1" stroke-width="3.2"></circle>
<circle clip-path="url(#clip772)" cx="282.345" cy="1139.62" r="14.4" fill="#009af9" fill-rule="evenodd" fill-opacity="1" stroke="#000000" stroke-opacity="1" stroke-width="3.2"></circle>
<circle clip-path="url(#clip772)" cx="303.696" cy="1139.62" r="14.4" fill="#009af9" fill-rule="evenodd" fill-opacity="1" stroke="#000000" stroke-opacity="1" stroke-width="3.2"></circle>
<circle clip-path="url(#clip772)" cx="325.047" cy="1139.62" r="14.4" fill="#009af9" fill-rule="evenodd" fill-opacity="1" stroke="#000000" stroke-opacity="1" stroke-width="3.2"></circle>
<circle clip-path="url(#clip772)" cx="346.398" cy="1139.62" r="14.4" fill="#009af9" fill-rule="evenodd" fill-opacity="1" stroke="#000000" stroke-opacity="1" stroke-width="3.2"></circle>
<circle clip-path="url(#clip772)" cx="367.749" cy="1148.6" r="14.4" fill="#009af9" fill-rule="evenodd" fill-opacity="1" stroke="#000000" stroke-opacity="1" stroke-width="3.2"></circle>
<circle clip-path="url(#clip772)" cx="389.1" cy="989.213" r="14.4" fill="#009af9" fill-rule="evenodd" fill-opacity="1" stroke="#000000" stroke-opacity="1" stroke-width="3.2"></circle>
<circle clip-path="url(#clip772)" cx="410.451" cy="959.968" r="14.4" fill="#009af9" fill-rule="evenodd" fill-opacity="1" stroke="#000000" stroke-opacity="1" stroke-width="3.2"></circle>
<circle clip-path="url(#clip772)" cx="431.802" cy="958.542" r="14.4" fill="#009af9" fill-rule="evenodd" fill-opacity="1" stroke="#000000" stroke-opacity="1" stroke-width="3.2"></circle>
<circle clip-path="url(#clip772)" cx="453.153" cy="957.614" r="14.4" fill="#009af9" fill-rule="evenodd" fill-opacity="1" stroke="#000000" stroke-opacity="1" stroke-width="3.2"></circle>
<circle clip-path="url(#clip772)" cx="474.504" cy="957.506" r="14.4" fill="#009af9" fill-rule="evenodd" fill-opacity="1" stroke="#000000" stroke-opacity="1" stroke-width="3.2"></circle>
<circle clip-path="url(#clip772)" cx="495.855" cy="957.506" r="14.4" fill="#009af9" fill-rule="evenodd" fill-opacity="1" stroke="#000000" stroke-opacity="1" stroke-width="3.2"></circle>
<circle clip-path="url(#clip772)" cx="517.207" cy="957.506" r="14.4" fill="#009af9" fill-rule="evenodd" fill-opacity="1" stroke="#000000" stroke-opacity="1" stroke-width="3.2"></circle>
<circle clip-path="url(#clip772)" cx="538.558" cy="957.506" r="14.4" fill="#009af9" fill-rule="evenodd" fill-opacity="1" stroke="#000000" stroke-opacity="1" stroke-width="3.2"></circle>
<circle clip-path="url(#clip772)" cx="559.909" cy="970.325" r="14.4" fill="#009af9" fill-rule="evenodd" fill-opacity="1" stroke="#000000" stroke-opacity="1" stroke-width="3.2"></circle>
<circle clip-path="url(#clip772)" cx="581.26" cy="803.934" r="14.4" fill="#009af9" fill-rule="evenodd" fill-opacity="1" stroke="#000000" stroke-opacity="1" stroke-width="3.2"></circle>
<circle clip-path="url(#clip772)" cx="602.611" cy="790.399" r="14.4" fill="#009af9" fill-rule="evenodd" fill-opacity="1" stroke="#000000" stroke-opacity="1" stroke-width="3.2"></circle>
<circle clip-path="url(#clip772)" cx="623.962" cy="787.725" r="14.4" fill="#009af9" fill-rule="evenodd" fill-opacity="1" stroke="#000000" stroke-opacity="1" stroke-width="3.2"></circle>
<circle clip-path="url(#clip772)" cx="645.313" cy="786.336" r="14.4" fill="#009af9" fill-rule="evenodd" fill-opacity="1" stroke="#000000" stroke-opacity="1" stroke-width="3.2"></circle>
<circle clip-path="url(#clip772)" cx="666.664" cy="786.326" r="14.4" fill="#009af9" fill-rule="evenodd" fill-opacity="1" stroke="#000000" stroke-opacity="1" stroke-width="3.2"></circle>
<circle clip-path="url(#clip772)" cx="688.015" cy="786.3" r="14.4" fill="#009af9" fill-rule="evenodd" fill-opacity="1" stroke="#000000" stroke-opacity="1" stroke-width="3.2"></circle>
<circle clip-path="url(#clip772)" cx="709.366" cy="786.283" r="14.4" fill="#009af9" fill-rule="evenodd" fill-opacity="1" stroke="#000000" stroke-opacity="1" stroke-width="3.2"></circle>
<circle clip-path="url(#clip772)" cx="730.717" cy="786.275" r="14.4" fill="#009af9" fill-rule="evenodd" fill-opacity="1" stroke="#000000" stroke-opacity="1" stroke-width="3.2"></circle>
<circle clip-path="url(#clip772)" cx="752.068" cy="795.988" r="14.4" fill="#009af9" fill-rule="evenodd" fill-opacity="1" stroke="#000000" stroke-opacity="1" stroke-width="3.2"></circle>
<circle clip-path="url(#clip772)" cx="773.419" cy="669.501" r="14.4" fill="#009af9" fill-rule="evenodd" fill-opacity="1" stroke="#000000" stroke-opacity="1" stroke-width="3.2"></circle>
<circle clip-path="url(#clip772)" cx="794.77" cy="636.561" r="14.4" fill="#009af9" fill-rule="evenodd" fill-opacity="1" stroke="#000000" stroke-opacity="1" stroke-width="3.2"></circle>
<circle clip-path="url(#clip772)" cx="816.121" cy="634.579" r="14.4" fill="#009af9" fill-rule="evenodd" fill-opacity="1" stroke="#000000" stroke-opacity="1" stroke-width="3.2"></circle>
<circle clip-path="url(#clip772)" cx="837.472" cy="634.079" r="14.4" fill="#009af9" fill-rule="evenodd" fill-opacity="1" stroke="#000000" stroke-opacity="1" stroke-width="3.2"></circle>
<circle clip-path="url(#clip772)" cx="858.823" cy="634.123" r="14.4" fill="#009af9" fill-rule="evenodd" fill-opacity="1" stroke="#000000" stroke-opacity="1" stroke-width="3.2"></circle>
<circle clip-path="url(#clip772)" cx="880.174" cy="634.147" r="14.4" fill="#009af9" fill-rule="evenodd" fill-opacity="1" stroke="#000000" stroke-opacity="1" stroke-width="3.2"></circle>
<circle clip-path="url(#clip772)" cx="901.525" cy="633.868" r="14.4" fill="#009af9" fill-rule="evenodd" fill-opacity="1" stroke="#000000" stroke-opacity="1" stroke-width="3.2"></circle>
<circle clip-path="url(#clip772)" cx="922.876" cy="634.016" r="14.4" fill="#009af9" fill-rule="evenodd" fill-opacity="1" stroke="#000000" stroke-opacity="1" stroke-width="3.2"></circle>
<circle clip-path="url(#clip772)" cx="944.227" cy="654.708" r="14.4" fill="#009af9" fill-rule="evenodd" fill-opacity="1" stroke="#000000" stroke-opacity="1" stroke-width="3.2"></circle>
<circle clip-path="url(#clip772)" cx="965.578" cy="533.831" r="14.4" fill="#009af9" fill-rule="evenodd" fill-opacity="1" stroke="#000000" stroke-opacity="1" stroke-width="3.2"></circle>
<circle clip-path="url(#clip772)" cx="986.93" cy="522.293" r="14.4" fill="#009af9" fill-rule="evenodd" fill-opacity="1" stroke="#000000" stroke-opacity="1" stroke-width="3.2"></circle>
<circle clip-path="url(#clip772)" cx="1008.28" cy="520.971" r="14.4" fill="#009af9" fill-rule="evenodd" fill-opacity="1" stroke="#000000" stroke-opacity="1" stroke-width="3.2"></circle>
<circle clip-path="url(#clip772)" cx="1029.63" cy="520.197" r="14.4" fill="#009af9" fill-rule="evenodd" fill-opacity="1" stroke="#000000" stroke-opacity="1" stroke-width="3.2"></circle>
<circle clip-path="url(#clip772)" cx="1050.98" cy="520.197" r="14.4" fill="#009af9" fill-rule="evenodd" fill-opacity="1" stroke="#000000" stroke-opacity="1" stroke-width="3.2"></circle>
<circle clip-path="url(#clip772)" cx="1072.33" cy="520.197" r="14.4" fill="#009af9" fill-rule="evenodd" fill-opacity="1" stroke="#000000" stroke-opacity="1" stroke-width="3.2"></circle>
<circle clip-path="url(#clip772)" cx="1093.68" cy="520.197" r="14.4" fill="#009af9" fill-rule="evenodd" fill-opacity="1" stroke="#000000" stroke-opacity="1" stroke-width="3.2"></circle>
<circle clip-path="url(#clip772)" cx="1115.04" cy="520.197" r="14.4" fill="#009af9" fill-rule="evenodd" fill-opacity="1" stroke="#000000" stroke-opacity="1" stroke-width="3.2"></circle>
<circle clip-path="url(#clip772)" cx="1136.39" cy="534.352" r="14.4" fill="#009af9" fill-rule="evenodd" fill-opacity="1" stroke="#000000" stroke-opacity="1" stroke-width="3.2"></circle>
<circle clip-path="url(#clip772)" cx="1157.74" cy="450.129" r="14.4" fill="#009af9" fill-rule="evenodd" fill-opacity="1" stroke="#000000" stroke-opacity="1" stroke-width="3.2"></circle>
<circle clip-path="url(#clip772)" cx="1179.09" cy="436.895" r="14.4" fill="#009af9" fill-rule="evenodd" fill-opacity="1" stroke="#000000" stroke-opacity="1" stroke-width="3.2"></circle>
<circle clip-path="url(#clip772)" cx="1200.44" cy="434.508" r="14.4" fill="#009af9" fill-rule="evenodd" fill-opacity="1" stroke="#000000" stroke-opacity="1" stroke-width="3.2"></circle>
<circle clip-path="url(#clip772)" cx="1221.79" cy="433.412" r="14.4" fill="#009af9" fill-rule="evenodd" fill-opacity="1" stroke="#000000" stroke-opacity="1" stroke-width="3.2"></circle>
<circle clip-path="url(#clip772)" cx="1243.14" cy="433.351" r="14.4" fill="#009af9" fill-rule="evenodd" fill-opacity="1" stroke="#000000" stroke-opacity="1" stroke-width="3.2"></circle>
<circle clip-path="url(#clip772)" cx="1264.49" cy="433.243" r="14.4" fill="#009af9" fill-rule="evenodd" fill-opacity="1" stroke="#000000" stroke-opacity="1" stroke-width="3.2"></circle>
<circle clip-path="url(#clip772)" cx="1285.84" cy="433.199" r="14.4" fill="#009af9" fill-rule="evenodd" fill-opacity="1" stroke="#000000" stroke-opacity="1" stroke-width="3.2"></circle>
<circle clip-path="url(#clip772)" cx="1307.2" cy="433.13" r="14.4" fill="#009af9" fill-rule="evenodd" fill-opacity="1" stroke="#000000" stroke-opacity="1" stroke-width="3.2"></circle>
<circle clip-path="url(#clip772)" cx="1328.55" cy="451.488" r="14.4" fill="#009af9" fill-rule="evenodd" fill-opacity="1" stroke="#000000" stroke-opacity="1" stroke-width="3.2"></circle>
<circle clip-path="url(#clip772)" cx="1349.9" cy="351.523" r="14.4" fill="#009af9" fill-rule="evenodd" fill-opacity="1" stroke="#000000" stroke-opacity="1" stroke-width="3.2"></circle>
<circle clip-path="url(#clip772)" cx="1371.25" cy="318.823" r="14.4" fill="#009af9" fill-rule="evenodd" fill-opacity="1" stroke="#000000" stroke-opacity="1" stroke-width="3.2"></circle>
<circle clip-path="url(#clip772)" cx="1392.6" cy="304.849" r="14.4" fill="#009af9" fill-rule="evenodd" fill-opacity="1" stroke="#000000" stroke-opacity="1" stroke-width="3.2"></circle>
<circle clip-path="url(#clip772)" cx="1413.95" cy="297.236" r="14.4" fill="#009af9" fill-rule="evenodd" fill-opacity="1" stroke="#000000" stroke-opacity="1" stroke-width="3.2"></circle>
<circle clip-path="url(#clip772)" cx="1435.3" cy="297.042" r="14.4" fill="#009af9" fill-rule="evenodd" fill-opacity="1" stroke="#000000" stroke-opacity="1" stroke-width="3.2"></circle>
<circle clip-path="url(#clip772)" cx="1456.65" cy="297.021" r="14.4" fill="#009af9" fill-rule="evenodd" fill-opacity="1" stroke="#000000" stroke-opacity="1" stroke-width="3.2"></circle>
<circle clip-path="url(#clip772)" cx="1478" cy="297.018" r="14.4" fill="#009af9" fill-rule="evenodd" fill-opacity="1" stroke="#000000" stroke-opacity="1" stroke-width="3.2"></circle>
<circle clip-path="url(#clip772)" cx="1499.35" cy="297.018" r="14.4" fill="#009af9" fill-rule="evenodd" fill-opacity="1" stroke="#000000" stroke-opacity="1" stroke-width="3.2"></circle>
<circle clip-path="url(#clip772)" cx="1520.71" cy="313.644" r="14.4" fill="#009af9" fill-rule="evenodd" fill-opacity="1" stroke="#000000" stroke-opacity="1" stroke-width="3.2"></circle>
<circle clip-path="url(#clip772)" cx="1542.06" cy="234.394" r="14.4" fill="#009af9" fill-rule="evenodd" fill-opacity="1" stroke="#000000" stroke-opacity="1" stroke-width="3.2"></circle>
<circle clip-path="url(#clip772)" cx="1563.41" cy="215.025" r="14.4" fill="#009af9" fill-rule="evenodd" fill-opacity="1" stroke="#000000" stroke-opacity="1" stroke-width="3.2"></circle>
<circle clip-path="url(#clip772)" cx="1584.76" cy="208.992" r="14.4" fill="#009af9" fill-rule="evenodd" fill-opacity="1" stroke="#000000" stroke-opacity="1" stroke-width="3.2"></circle>
<circle clip-path="url(#clip772)" cx="1606.11" cy="205.586" r="14.4" fill="#009af9" fill-rule="evenodd" fill-opacity="1" stroke="#000000" stroke-opacity="1" stroke-width="3.2"></circle>
<circle clip-path="url(#clip772)" cx="1627.46" cy="205.643" r="14.4" fill="#009af9" fill-rule="evenodd" fill-opacity="1" stroke="#000000" stroke-opacity="1" stroke-width="3.2"></circle>
<circle clip-path="url(#clip772)" cx="1648.81" cy="205.582" r="14.4" fill="#009af9" fill-rule="evenodd" fill-opacity="1" stroke="#000000" stroke-opacity="1" stroke-width="3.2"></circle>
<circle clip-path="url(#clip772)" cx="1670.16" cy="205.407" r="14.4" fill="#009af9" fill-rule="evenodd" fill-opacity="1" stroke="#000000" stroke-opacity="1" stroke-width="3.2"></circle>
<circle clip-path="url(#clip772)" cx="1691.51" cy="205.353" r="14.4" fill="#009af9" fill-rule="evenodd" fill-opacity="1" stroke="#000000" stroke-opacity="1" stroke-width="3.2"></circle>
<circle clip-path="url(#clip772)" cx="1712.87" cy="228.006" r="14.4" fill="#009af9" fill-rule="evenodd" fill-opacity="1" stroke="#000000" stroke-opacity="1" stroke-width="3.2"></circle>
<circle clip-path="url(#clip772)" cx="1734.22" cy="149.51" r="14.4" fill="#009af9" fill-rule="evenodd" fill-opacity="1" stroke="#000000" stroke-opacity="1" stroke-width="3.2"></circle>
<circle clip-path="url(#clip772)" cx="1755.57" cy="150.39" r="14.4" fill="#009af9" fill-rule="evenodd" fill-opacity="1" stroke="#000000" stroke-opacity="1" stroke-width="3.2"></circle>
<circle clip-path="url(#clip772)" cx="1776.92" cy="207.551" r="14.4" fill="#009af9" fill-rule="evenodd" fill-opacity="1" stroke="#000000" stroke-opacity="1" stroke-width="3.2"></circle>
<circle clip-path="url(#clip772)" cx="1798.27" cy="151.839" r="14.4" fill="#009af9" fill-rule="evenodd" fill-opacity="1" stroke="#000000" stroke-opacity="1" stroke-width="3.2"></circle>
<circle clip-path="url(#clip772)" cx="1819.62" cy="164.261" r="14.4" fill="#009af9" fill-rule="evenodd" fill-opacity="1" stroke="#000000" stroke-opacity="1" stroke-width="3.2"></circle>
<circle clip-path="url(#clip772)" cx="1840.97" cy="168.296" r="14.4" fill="#009af9" fill-rule="evenodd" fill-opacity="1" stroke="#000000" stroke-opacity="1" stroke-width="3.2"></circle>
<circle clip-path="url(#clip772)" cx="1862.32" cy="169.907" r="14.4" fill="#009af9" fill-rule="evenodd" fill-opacity="1" stroke="#000000" stroke-opacity="1" stroke-width="3.2"></circle>
<circle clip-path="url(#clip772)" cx="1883.67" cy="158.238" r="14.4" fill="#009af9" fill-rule="evenodd" fill-opacity="1" stroke="#000000" stroke-opacity="1" stroke-width="3.2"></circle>
<circle clip-path="url(#clip772)" cx="1905.02" cy="169.41" r="14.4" fill="#009af9" fill-rule="evenodd" fill-opacity="1" stroke="#000000" stroke-opacity="1" stroke-width="3.2"></circle>
<circle clip-path="url(#clip772)" cx="1926.38" cy="138.365" r="14.4" fill="#009af9" fill-rule="evenodd" fill-opacity="1" stroke="#000000" stroke-opacity="1" stroke-width="3.2"></circle>
<circle clip-path="url(#clip772)" cx="1947.73" cy="150.661" r="14.4" fill="#009af9" fill-rule="evenodd" fill-opacity="1" stroke="#000000" stroke-opacity="1" stroke-width="3.2"></circle>
<circle clip-path="url(#clip772)" cx="1969.08" cy="135.372" r="14.4" fill="#009af9" fill-rule="evenodd" fill-opacity="1" stroke="#000000" stroke-opacity="1" stroke-width="3.2"></circle>
<circle clip-path="url(#clip772)" cx="1990.43" cy="138.514" r="14.4" fill="#009af9" fill-rule="evenodd" fill-opacity="1" stroke="#000000" stroke-opacity="1" stroke-width="3.2"></circle>
<circle clip-path="url(#clip772)" cx="2011.78" cy="129.555" r="14.4" fill="#009af9" fill-rule="evenodd" fill-opacity="1" stroke="#000000" stroke-opacity="1" stroke-width="3.2"></circle>
<circle clip-path="url(#clip772)" cx="2033.13" cy="129.335" r="14.4" fill="#009af9" fill-rule="evenodd" fill-opacity="1" stroke="#000000" stroke-opacity="1" stroke-width="3.2"></circle>
<circle clip-path="url(#clip772)" cx="2054.48" cy="125.294" r="14.4" fill="#009af9" fill-rule="evenodd" fill-opacity="1" stroke="#000000" stroke-opacity="1" stroke-width="3.2"></circle>
<circle clip-path="url(#clip772)" cx="2075.83" cy="118.083" r="14.4" fill="#009af9" fill-rule="evenodd" fill-opacity="1" stroke="#000000" stroke-opacity="1" stroke-width="3.2"></circle>
<circle clip-path="url(#clip772)" cx="2097.18" cy="127.433" r="14.4" fill="#009af9" fill-rule="evenodd" fill-opacity="1" stroke="#000000" stroke-opacity="1" stroke-width="3.2"></circle>
<circle clip-path="url(#clip772)" cx="2118.53" cy="152.516" r="14.4" fill="#009af9" fill-rule="evenodd" fill-opacity="1" stroke="#000000" stroke-opacity="1" stroke-width="3.2"></circle>
<circle clip-path="url(#clip772)" cx="2139.89" cy="128.981" r="14.4" fill="#009af9" fill-rule="evenodd" fill-opacity="1" stroke="#000000" stroke-opacity="1" stroke-width="3.2"></circle>
<circle clip-path="url(#clip772)" cx="2161.24" cy="116.374" r="14.4" fill="#009af9" fill-rule="evenodd" fill-opacity="1" stroke="#000000" stroke-opacity="1" stroke-width="3.2"></circle>
<circle clip-path="url(#clip772)" cx="2182.59" cy="99.2784" r="14.4" fill="#009af9" fill-rule="evenodd" fill-opacity="1" stroke="#000000" stroke-opacity="1" stroke-width="3.2"></circle>
<circle clip-path="url(#clip772)" cx="2203.94" cy="97.5981" r="14.4" fill="#009af9" fill-rule="evenodd" fill-opacity="1" stroke="#000000" stroke-opacity="1" stroke-width="3.2"></circle>
<circle clip-path="url(#clip772)" cx="2225.29" cy="107.38" r="14.4" fill="#009af9" fill-rule="evenodd" fill-opacity="1" stroke="#000000" stroke-opacity="1" stroke-width="3.2"></circle>
<circle clip-path="url(#clip772)" cx="2246.64" cy="87.9763" r="14.4" fill="#009af9" fill-rule="evenodd" fill-opacity="1" stroke="#000000" stroke-opacity="1" stroke-width="3.2"></circle>
<circle clip-path="url(#clip772)" cx="2267.99" cy="95.1088" r="14.4" fill="#009af9" fill-rule="evenodd" fill-opacity="1" stroke="#000000" stroke-opacity="1" stroke-width="3.2"></circle>
<circle clip-path="url(#clip772)" cx="2289.34" cy="101.964" r="14.4" fill="#009af9" fill-rule="evenodd" fill-opacity="1" stroke="#000000" stroke-opacity="1" stroke-width="3.2"></circle>
<path clip-path="url(#clip770)" d="M186.863 198.898 L463.351 198.898 L463.351 95.2176 L186.863 95.2176  Z" fill="#ffffff" fill-rule="evenodd" fill-opacity="1"></path>
<polyline clip-path="url(#clip770)" style="stroke:#000000; stroke-linecap:round; stroke-linejoin:round; stroke-width:4; stroke-opacity:1; fill:none" points="186.863,198.898 463.351,198.898 463.351,95.2176 186.863,95.2176 186.863,198.898 "></polyline>
<circle clip-path="url(#clip770)" cx="286.444" cy="147.058" r="20.48" fill="#009af9" fill-rule="evenodd" fill-opacity="1" stroke="#000000" stroke-opacity="1" stroke-width="4.55111"></circle>
<path clip-path="url(#clip770)" d="M399.868 166.745 Q398.063 171.375 396.35 172.787 Q394.637 174.199 391.766 174.199 L388.364 174.199 L388.364 170.634 L390.864 170.634 Q392.623 170.634 393.595 169.8 Q394.567 168.967 395.748 165.865 L396.512 163.921 L386.026 138.412 L390.54 138.412 L398.641 158.689 L406.743 138.412 L411.257 138.412 L399.868 166.745 Z" fill="#000000" fill-rule="nonzero" fill-opacity="1"></path><path clip-path="url(#clip770)" d="M418.549 160.402 L426.188 160.402 L426.188 134.037 L417.877 135.703 L417.877 131.444 L426.141 129.778 L430.817 129.778 L430.817 160.402 L438.456 160.402 L438.456 164.338 L418.549 164.338 L418.549 160.402 Z" fill="#000000" fill-rule="nonzero" fill-opacity="1"></path></svg>