<svg xmlns="http://www.w3.org/2000/svg" xmlns:xlink="http://www.w3.org/1999/xlink" width="600" height="400" viewBox="0 0 2400 1600">
<defs>
  <clipPath id="clip690">
    <rect x="0" y="0" width="2400" height="1600"></rect>
  </clipPath>
</defs>
<path clip-path="url(#clip690)" d="M0 1600 L2400 1600 L2400 0 L0 0  Z" fill="#ffffff" fill-rule="evenodd" fill-opacity="1"></path>
<defs>
  <clipPath id="clip691">
    <rect x="480" y="0" width="1681" height="1600"></rect>
  </clipPath>
</defs>
<path clip-path="url(#clip690)" d="M156.922 1486.45 L2352.76 1486.45 L2352.76 47.2441 L156.922 47.2441  Z" fill="#ffffff" fill-rule="evenodd" fill-opacity="1"></path>
<defs>
  <clipPath id="clip692">
    <rect x="156" y="47" width="2197" height="1440"></rect>
  </clipPath>
</defs>
<polyline clip-path="url(#clip692)" style="stroke:#000000; stroke-linecap:round; stroke-linejoin:round; stroke-width:2; stroke-opacity:0.1; fill:none" points="655.182,1486.45 655.182,47.2441 "></polyline>
<polyline clip-path="url(#clip692)" style="stroke:#000000; stroke-linecap:round; stroke-linejoin:round; stroke-width:2; stroke-opacity:0.1; fill:none" points="1200.32,1486.45 1200.32,47.2441 "></polyline>
<polyline clip-path="url(#clip692)" style="stroke:#000000; stroke-linecap:round; stroke-linejoin:round; stroke-width:2; stroke-opacity:0.1; fill:none" points="1745.47,1486.45 1745.47,47.2441 "></polyline>
<polyline clip-path="url(#clip692)" style="stroke:#000000; stroke-linecap:round; stroke-linejoin:round; stroke-width:2; stroke-opacity:0.1; fill:none" points="2290.61,1486.45 2290.61,47.2441 "></polyline>
<polyline clip-path="url(#clip690)" style="stroke:#000000; stroke-linecap:round; stroke-linejoin:round; stroke-width:4; stroke-opacity:1; fill:none" points="156.922,1486.45 2352.76,1486.45 "></polyline>
<polyline clip-path="url(#clip690)" style="stroke:#000000; stroke-linecap:round; stroke-linejoin:round; stroke-width:4; stroke-opacity:1; fill:none" points="655.182,1486.45 655.182,1467.55 "></polyline>
<polyline clip-path="url(#clip690)" style="stroke:#000000; stroke-linecap:round; stroke-linejoin:round; stroke-width:4; stroke-opacity:1; fill:none" points="1200.32,1486.45 1200.32,1467.55 "></polyline>
<polyline clip-path="url(#clip690)" style="stroke:#000000; stroke-linecap:round; stroke-linejoin:round; stroke-width:4; stroke-opacity:1; fill:none" points="1745.47,1486.45 1745.47,1467.55 "></polyline>
<polyline clip-path="url(#clip690)" style="stroke:#000000; stroke-linecap:round; stroke-linejoin:round; stroke-width:4; stroke-opacity:1; fill:none" points="2290.61,1486.45 2290.61,1467.55 "></polyline>
<path clip-path="url(#clip690)" d="M645.46 1514.29 L663.817 1514.29 L663.817 1518.22 L649.743 1518.22 L649.743 1526.7 Q650.761 1526.35 651.78 1526.19 Q652.798 1526 653.817 1526 Q659.604 1526 662.983 1529.17 Q666.363 1532.34 666.363 1537.76 Q666.363 1543.34 662.891 1546.44 Q659.419 1549.52 653.099 1549.52 Q650.923 1549.52 648.655 1549.15 Q646.409 1548.78 644.002 1548.04 L644.002 1543.34 Q646.085 1544.47 648.307 1545.03 Q650.53 1545.58 653.007 1545.58 Q657.011 1545.58 659.349 1543.48 Q661.687 1541.37 661.687 1537.76 Q661.687 1534.15 659.349 1532.04 Q657.011 1529.94 653.007 1529.94 Q651.132 1529.94 649.257 1530.35 Q647.405 1530.77 645.46 1531.65 L645.46 1514.29 Z" fill="#000000" fill-rule="nonzero" fill-opacity="1"></path><path clip-path="url(#clip690)" d="M1175.01 1544.91 L1182.65 1544.91 L1182.65 1518.55 L1174.34 1520.21 L1174.34 1515.95 L1182.61 1514.29 L1187.28 1514.29 L1187.28 1544.91 L1194.92 1544.91 L1194.92 1548.85 L1175.01 1548.85 L1175.01 1544.91 Z" fill="#000000" fill-rule="nonzero" fill-opacity="1"></path><path clip-path="url(#clip690)" d="M1214.36 1517.37 Q1210.75 1517.37 1208.92 1520.93 Q1207.12 1524.47 1207.12 1531.6 Q1207.12 1538.71 1208.92 1542.27 Q1210.75 1545.82 1214.36 1545.82 Q1218 1545.82 1219.8 1542.27 Q1221.63 1538.71 1221.63 1531.6 Q1221.63 1524.47 1219.8 1520.93 Q1218 1517.37 1214.36 1517.37 M1214.36 1513.66 Q1220.17 1513.66 1223.23 1518.27 Q1226.31 1522.85 1226.31 1531.6 Q1226.31 1540.33 1223.23 1544.94 Q1220.17 1549.52 1214.36 1549.52 Q1208.55 1549.52 1205.48 1544.94 Q1202.42 1540.33 1202.42 1531.6 Q1202.42 1522.85 1205.48 1518.27 Q1208.55 1513.66 1214.36 1513.66 Z" fill="#000000" fill-rule="nonzero" fill-opacity="1"></path><path clip-path="url(#clip690)" d="M1720.65 1544.91 L1728.29 1544.91 L1728.29 1518.55 L1719.98 1520.21 L1719.98 1515.95 L1728.25 1514.29 L1732.92 1514.29 L1732.92 1544.91 L1740.56 1544.91 L1740.56 1548.85 L1720.65 1548.85 L1720.65 1544.91 Z" fill="#000000" fill-rule="nonzero" fill-opacity="1"></path><path clip-path="url(#clip690)" d="M1750.05 1514.29 L1768.41 1514.29 L1768.41 1518.22 L1754.33 1518.22 L1754.33 1526.7 Q1755.35 1526.35 1756.37 1526.19 Q1757.39 1526 1758.41 1526 Q1764.19 1526 1767.57 1529.17 Q1770.95 1532.34 1770.95 1537.76 Q1770.95 1543.34 1767.48 1546.44 Q1764.01 1549.52 1757.69 1549.52 Q1755.51 1549.52 1753.25 1549.15 Q1751 1548.78 1748.59 1548.04 L1748.59 1543.34 Q1750.68 1544.47 1752.9 1545.03 Q1755.12 1545.58 1757.6 1545.58 Q1761.6 1545.58 1763.94 1543.48 Q1766.28 1541.37 1766.28 1537.76 Q1766.28 1534.15 1763.94 1532.04 Q1761.6 1529.94 1757.6 1529.94 Q1755.72 1529.94 1753.85 1530.35 Q1752 1530.77 1750.05 1531.65 L1750.05 1514.29 Z" fill="#000000" fill-rule="nonzero" fill-opacity="1"></path><path clip-path="url(#clip690)" d="M2269.38 1544.91 L2285.7 1544.91 L2285.7 1548.85 L2263.76 1548.85 L2263.76 1544.91 Q2266.42 1542.16 2271 1537.53 Q2275.61 1532.88 2276.79 1531.53 Q2279.04 1529.01 2279.92 1527.27 Q2280.82 1525.51 2280.82 1523.82 Q2280.82 1521.07 2278.87 1519.33 Q2276.95 1517.6 2273.85 1517.6 Q2271.65 1517.6 2269.2 1518.36 Q2266.77 1519.13 2263.99 1520.68 L2263.99 1515.95 Q2266.81 1514.82 2269.27 1514.24 Q2271.72 1513.66 2273.76 1513.66 Q2279.13 1513.66 2282.32 1516.35 Q2285.52 1519.03 2285.52 1523.52 Q2285.52 1525.65 2284.71 1527.57 Q2283.92 1529.47 2281.81 1532.07 Q2281.23 1532.74 2278.13 1535.95 Q2275.03 1539.15 2269.38 1544.91 Z" fill="#000000" fill-rule="nonzero" fill-opacity="1"></path><path clip-path="url(#clip690)" d="M2305.52 1517.37 Q2301.91 1517.37 2300.08 1520.93 Q2298.27 1524.47 2298.27 1531.6 Q2298.27 1538.71 2300.08 1542.27 Q2301.91 1545.82 2305.52 1545.82 Q2309.15 1545.82 2310.96 1542.27 Q2312.79 1538.71 2312.79 1531.6 Q2312.79 1524.47 2310.96 1520.93 Q2309.15 1517.37 2305.52 1517.37 M2305.52 1513.66 Q2311.33 1513.66 2314.38 1518.27 Q2317.46 1522.85 2317.46 1531.6 Q2317.46 1540.33 2314.38 1544.94 Q2311.33 1549.52 2305.52 1549.52 Q2299.71 1549.52 2296.63 1544.94 Q2293.57 1540.33 2293.57 1531.6 Q2293.57 1522.85 2296.63 1518.27 Q2299.71 1513.66 2305.52 1513.66 Z" fill="#000000" fill-rule="nonzero" fill-opacity="1"></path><polyline clip-path="url(#clip692)" style="stroke:#000000; stroke-linecap:round; stroke-linejoin:round; stroke-width:2; stroke-opacity:0.1; fill:none" points="156.922,1348.52 2352.76,1348.52 "></polyline>
<polyline clip-path="url(#clip692)" style="stroke:#000000; stroke-linecap:round; stroke-linejoin:round; stroke-width:2; stroke-opacity:0.1; fill:none" points="156.922,1080.91 2352.76,1080.91 "></polyline>
<polyline clip-path="url(#clip692)" style="stroke:#000000; stroke-linecap:round; stroke-linejoin:round; stroke-width:2; stroke-opacity:0.1; fill:none" points="156.922,813.297 2352.76,813.297 "></polyline>
<polyline clip-path="url(#clip692)" style="stroke:#000000; stroke-linecap:round; stroke-linejoin:round; stroke-width:2; stroke-opacity:0.1; fill:none" points="156.922,545.686 2352.76,545.686 "></polyline>
<polyline clip-path="url(#clip692)" style="stroke:#000000; stroke-linecap:round; stroke-linejoin:round; stroke-width:2; stroke-opacity:0.1; fill:none" points="156.922,278.075 2352.76,278.075 "></polyline>
<polyline clip-path="url(#clip690)" style="stroke:#000000; stroke-linecap:round; stroke-linejoin:round; stroke-width:4; stroke-opacity:1; fill:none" points="156.922,1486.45 156.922,47.2441 "></polyline>
<polyline clip-path="url(#clip690)" style="stroke:#000000; stroke-linecap:round; stroke-linejoin:round; stroke-width:4; stroke-opacity:1; fill:none" points="156.922,1348.52 175.82,1348.52 "></polyline>
<polyline clip-path="url(#clip690)" style="stroke:#000000; stroke-linecap:round; stroke-linejoin:round; stroke-width:4; stroke-opacity:1; fill:none" points="156.922,1080.91 175.82,1080.91 "></polyline>
<polyline clip-path="url(#clip690)" style="stroke:#000000; stroke-linecap:round; stroke-linejoin:round; stroke-width:4; stroke-opacity:1; fill:none" points="156.922,813.297 175.82,813.297 "></polyline>
<polyline clip-path="url(#clip690)" style="stroke:#000000; stroke-linecap:round; stroke-linejoin:round; stroke-width:4; stroke-opacity:1; fill:none" points="156.922,545.686 175.82,545.686 "></polyline>
<polyline clip-path="url(#clip690)" style="stroke:#000000; stroke-linecap:round; stroke-linejoin:round; stroke-width:4; stroke-opacity:1; fill:none" points="156.922,278.075 175.82,278.075 "></polyline>
<path clip-path="url(#clip690)" d="M68.9087 1347.16 Q72.2652 1347.88 74.1402 1350.15 Q76.0383 1352.42 76.0383 1355.75 Q76.0383 1360.87 72.5198 1363.67 Q69.0013 1366.47 62.5198 1366.47 Q60.3439 1366.47 58.0291 1366.03 Q55.7375 1365.61 53.2838 1364.76 L53.2838 1360.24 Q55.2282 1361.38 57.543 1361.96 Q59.8578 1362.53 62.381 1362.53 Q66.7791 1362.53 69.0707 1360.8 Q71.3855 1359.06 71.3855 1355.75 Q71.3855 1352.7 69.2328 1350.98 Q67.1032 1349.25 63.2837 1349.25 L59.256 1349.25 L59.256 1345.4 L63.4689 1345.4 Q66.918 1345.4 68.7467 1344.04 Q70.5754 1342.65 70.5754 1340.06 Q70.5754 1337.4 68.6772 1335.98 Q66.8022 1334.55 63.2837 1334.55 Q61.3624 1334.55 59.1634 1334.96 Q56.9643 1335.38 54.3254 1336.26 L54.3254 1332.09 Q56.9875 1331.35 59.3023 1330.98 Q61.6402 1330.61 63.7004 1330.61 Q69.0244 1330.61 72.1263 1333.04 Q75.2281 1335.45 75.2281 1339.57 Q75.2281 1342.44 73.5846 1344.43 Q71.9411 1346.4 68.9087 1347.16 Z" fill="#000000" fill-rule="nonzero" fill-opacity="1"></path><path clip-path="url(#clip690)" d="M84.904 1359.92 L89.7882 1359.92 L89.7882 1365.8 L84.904 1365.8 L84.904 1359.92 Z" fill="#000000" fill-rule="nonzero" fill-opacity="1"></path><path clip-path="url(#clip690)" d="M100.02 1331.24 L118.376 1331.24 L118.376 1335.17 L104.302 1335.17 L104.302 1343.65 Q105.321 1343.3 106.339 1343.14 Q107.358 1342.95 108.376 1342.95 Q114.163 1342.95 117.543 1346.12 Q120.922 1349.29 120.922 1354.71 Q120.922 1360.29 117.45 1363.39 Q113.978 1366.47 107.658 1366.47 Q105.483 1366.47 103.214 1366.1 Q100.969 1365.73 98.5613 1364.99 L98.5613 1360.29 Q100.645 1361.42 102.867 1361.98 Q105.089 1362.53 107.566 1362.53 Q111.571 1362.53 113.908 1360.43 Q116.246 1358.32 116.246 1354.71 Q116.246 1351.1 113.908 1348.99 Q111.571 1346.89 107.566 1346.89 Q105.691 1346.89 103.816 1347.3 Q101.964 1347.72 100.02 1348.6 L100.02 1331.24 Z" fill="#000000" fill-rule="nonzero" fill-opacity="1"></path><path clip-path="url(#clip690)" d="M66.5939 1067.7 L54.7884 1086.15 L66.5939 1086.15 L66.5939 1067.7 M65.367 1063.63 L71.2466 1063.63 L71.2466 1086.15 L76.1772 1086.15 L76.1772 1090.04 L71.2466 1090.04 L71.2466 1098.19 L66.5939 1098.19 L66.5939 1090.04 L50.9921 1090.04 L50.9921 1085.53 L65.367 1063.63 Z" fill="#000000" fill-rule="nonzero" fill-opacity="1"></path><path clip-path="url(#clip690)" d="M83.9086 1092.31 L88.7928 1092.31 L88.7928 1098.19 L83.9086 1098.19 L83.9086 1092.31 Z" fill="#000000" fill-rule="nonzero" fill-opacity="1"></path><path clip-path="url(#clip690)" d="M108.978 1066.71 Q105.367 1066.71 103.538 1070.27 Q101.733 1073.81 101.733 1080.94 Q101.733 1088.05 103.538 1091.61 Q105.367 1095.15 108.978 1095.15 Q112.612 1095.15 114.418 1091.61 Q116.246 1088.05 116.246 1080.94 Q116.246 1073.81 114.418 1070.27 Q112.612 1066.71 108.978 1066.71 M108.978 1063 Q114.788 1063 117.844 1067.61 Q120.922 1072.19 120.922 1080.94 Q120.922 1089.67 117.844 1094.28 Q114.788 1098.86 108.978 1098.86 Q103.168 1098.86 100.089 1094.28 Q97.0335 1089.67 97.0335 1080.94 Q97.0335 1072.19 100.089 1067.61 Q103.168 1063 108.978 1063 Z" fill="#000000" fill-rule="nonzero" fill-opacity="1"></path><path clip-path="url(#clip690)" d="M67.5893 800.091 L55.7838 818.54 L67.5893 818.54 L67.5893 800.091 M66.3624 796.017 L72.242 796.017 L72.242 818.54 L77.1725 818.54 L77.1725 822.429 L72.242 822.429 L72.242 830.577 L67.5893 830.577 L67.5893 822.429 L51.9875 822.429 L51.9875 817.915 L66.3624 796.017 Z" fill="#000000" fill-rule="nonzero" fill-opacity="1"></path><path clip-path="url(#clip690)" d="M84.904 824.697 L89.7882 824.697 L89.7882 830.577 L84.904 830.577 L84.904 824.697 Z" fill="#000000" fill-rule="nonzero" fill-opacity="1"></path><path clip-path="url(#clip690)" d="M100.02 796.017 L118.376 796.017 L118.376 799.952 L104.302 799.952 L104.302 808.424 Q105.321 808.077 106.339 807.915 Q107.358 807.73 108.376 807.73 Q114.163 807.73 117.543 810.901 Q120.922 814.072 120.922 819.489 Q120.922 825.067 117.45 828.169 Q113.978 831.248 107.658 831.248 Q105.483 831.248 103.214 830.878 Q100.969 830.507 98.5613 829.766 L98.5613 825.067 Q100.645 826.202 102.867 826.757 Q105.089 827.313 107.566 827.313 Q111.571 827.313 113.908 825.206 Q116.246 823.1 116.246 819.489 Q116.246 815.878 113.908 813.771 Q111.571 811.665 107.566 811.665 Q105.691 811.665 103.816 812.081 Q101.964 812.498 100.02 813.378 L100.02 796.017 Z" fill="#000000" fill-rule="nonzero" fill-opacity="1"></path><path clip-path="url(#clip690)" d="M53.793 528.406 L72.1494 528.406 L72.1494 532.341 L58.0754 532.341 L58.0754 540.813 Q59.0939 540.466 60.1124 540.304 Q61.131 540.119 62.1495 540.119 Q67.9365 540.119 71.3161 543.29 Q74.6957 546.461 74.6957 551.878 Q74.6957 557.457 71.2235 560.559 Q67.7513 563.637 61.4319 563.637 Q59.256 563.637 56.9875 563.267 Q54.7421 562.896 52.3347 562.156 L52.3347 557.457 Q54.418 558.591 56.6402 559.147 Q58.8625 559.702 61.3393 559.702 Q65.3439 559.702 67.6819 557.596 Q70.0198 555.489 70.0198 551.878 Q70.0198 548.267 67.6819 546.16 Q65.3439 544.054 61.3393 544.054 Q59.4643 544.054 57.5893 544.471 Q55.7375 544.887 53.793 545.767 L53.793 528.406 Z" fill="#000000" fill-rule="nonzero" fill-opacity="1"></path><path clip-path="url(#clip690)" d="M83.9086 557.086 L88.7928 557.086 L88.7928 562.966 L83.9086 562.966 L83.9086 557.086 Z" fill="#000000" fill-rule="nonzero" fill-opacity="1"></path><path clip-path="url(#clip690)" d="M108.978 531.485 Q105.367 531.485 103.538 535.049 Q101.733 538.591 101.733 545.721 Q101.733 552.827 103.538 556.392 Q105.367 559.934 108.978 559.934 Q112.612 559.934 114.418 556.392 Q116.246 552.827 116.246 545.721 Q116.246 538.591 114.418 535.049 Q112.612 531.485 108.978 531.485 M108.978 527.781 Q114.788 527.781 117.844 532.387 Q120.922 536.971 120.922 545.721 Q120.922 554.447 117.844 559.054 Q114.788 563.637 108.978 563.637 Q103.168 563.637 100.089 559.054 Q97.0335 554.447 97.0335 545.721 Q97.0335 536.971 100.089 532.387 Q103.168 527.781 108.978 527.781 Z" fill="#000000" fill-rule="nonzero" fill-opacity="1"></path><path clip-path="url(#clip690)" d="M54.7884 260.795 L73.1448 260.795 L73.1448 264.73 L59.0708 264.73 L59.0708 273.203 Q60.0893 272.855 61.1078 272.693 Q62.1263 272.508 63.1448 272.508 Q68.9318 272.508 72.3115 275.679 Q75.6911 278.851 75.6911 284.267 Q75.6911 289.846 72.2189 292.948 Q68.7467 296.027 62.4272 296.027 Q60.2513 296.027 57.9828 295.656 Q55.7375 295.286 53.3301 294.545 L53.3301 289.846 Q55.4134 290.98 57.6356 291.536 Q59.8578 292.091 62.3347 292.091 Q66.3393 292.091 68.6772 289.985 Q71.0152 287.878 71.0152 284.267 Q71.0152 280.656 68.6772 278.55 Q66.3393 276.443 62.3347 276.443 Q60.4597 276.443 58.5847 276.86 Q56.7328 277.277 54.7884 278.156 L54.7884 260.795 Z" fill="#000000" fill-rule="nonzero" fill-opacity="1"></path><path clip-path="url(#clip690)" d="M84.904 289.476 L89.7882 289.476 L89.7882 295.355 L84.904 295.355 L84.904 289.476 Z" fill="#000000" fill-rule="nonzero" fill-opacity="1"></path><path clip-path="url(#clip690)" d="M100.02 260.795 L118.376 260.795 L118.376 264.73 L104.302 264.73 L104.302 273.203 Q105.321 272.855 106.339 272.693 Q107.358 272.508 108.376 272.508 Q114.163 272.508 117.543 275.679 Q120.922 278.851 120.922 284.267 Q120.922 289.846 117.45 292.948 Q113.978 296.027 107.658 296.027 Q105.483 296.027 103.214 295.656 Q100.969 295.286 98.5613 294.545 L98.5613 289.846 Q100.645 290.98 102.867 291.536 Q105.089 292.091 107.566 292.091 Q111.571 292.091 113.908 289.985 Q116.246 287.878 116.246 284.267 Q116.246 280.656 113.908 278.55 Q111.571 276.443 107.566 276.443 Q105.691 276.443 103.816 276.86 Q101.964 277.277 100.02 278.156 L100.02 260.795 Z" fill="#000000" fill-rule="nonzero" fill-opacity="1"></path><circle clip-path="url(#clip692)" cx="219.069" cy="1445.72" r="14.4" fill="#009af9" fill-rule="evenodd" fill-opacity="1" stroke="#000000" stroke-opacity="1" stroke-width="3.2"></circle>
<circle clip-path="url(#clip692)" cx="328.097" cy="1037.02" r="14.4" fill="#009af9" fill-rule="evenodd" fill-opacity="1" stroke="#000000" stroke-opacity="1" stroke-width="3.2"></circle>
<circle clip-path="url(#clip692)" cx="437.126" cy="997.578" r="14.4" fill="#009af9" fill-rule="evenodd" fill-opacity="1" stroke="#000000" stroke-opacity="1" stroke-width="3.2"></circle>
<circle clip-path="url(#clip692)" cx="546.154" cy="996.894" r="14.4" fill="#009af9" fill-rule="evenodd" fill-opacity="1" stroke="#000000" stroke-opacity="1" stroke-width="3.2"></circle>
<circle clip-path="url(#clip692)" cx="655.182" cy="1010.51" r="14.4" fill="#009af9" fill-rule="evenodd" fill-opacity="1" stroke="#000000" stroke-opacity="1" stroke-width="3.2"></circle>
<circle clip-path="url(#clip692)" cx="764.211" cy="775.354" r="14.4" fill="#009af9" fill-rule="evenodd" fill-opacity="1" stroke="#000000" stroke-opacity="1" stroke-width="3.2"></circle>
<circle clip-path="url(#clip692)" cx="873.239" cy="732.434" r="14.4" fill="#009af9" fill-rule="evenodd" fill-opacity="1" stroke="#000000" stroke-opacity="1" stroke-width="3.2"></circle>
<circle clip-path="url(#clip692)" cx="982.268" cy="730.338" r="14.4" fill="#009af9" fill-rule="evenodd" fill-opacity="1" stroke="#000000" stroke-opacity="1" stroke-width="3.2"></circle>
<circle clip-path="url(#clip692)" cx="1091.3" cy="749.624" r="14.4" fill="#009af9" fill-rule="evenodd" fill-opacity="1" stroke="#000000" stroke-opacity="1" stroke-width="3.2"></circle>
<circle clip-path="url(#clip692)" cx="1200.32" cy="501.94" r="14.4" fill="#009af9" fill-rule="evenodd" fill-opacity="1" stroke="#000000" stroke-opacity="1" stroke-width="3.2"></circle>
<circle clip-path="url(#clip692)" cx="1309.35" cy="482.352" r="14.4" fill="#009af9" fill-rule="evenodd" fill-opacity="1" stroke="#000000" stroke-opacity="1" stroke-width="3.2"></circle>
<circle clip-path="url(#clip692)" cx="1418.38" cy="478.616" r="14.4" fill="#009af9" fill-rule="evenodd" fill-opacity="1" stroke="#000000" stroke-opacity="1" stroke-width="3.2"></circle>
<circle clip-path="url(#clip692)" cx="1527.41" cy="493.599" r="14.4" fill="#009af9" fill-rule="evenodd" fill-opacity="1" stroke="#000000" stroke-opacity="1" stroke-width="3.2"></circle>
<circle clip-path="url(#clip692)" cx="1636.44" cy="300.009" r="14.4" fill="#009af9" fill-rule="evenodd" fill-opacity="1" stroke="#000000" stroke-opacity="1" stroke-width="3.2"></circle>
<circle clip-path="url(#clip692)" cx="1745.47" cy="251.527" r="14.4" fill="#009af9" fill-rule="evenodd" fill-opacity="1" stroke="#000000" stroke-opacity="1" stroke-width="3.2"></circle>
<circle clip-path="url(#clip692)" cx="1854.5" cy="248.55" r="14.4" fill="#009af9" fill-rule="evenodd" fill-opacity="1" stroke="#000000" stroke-opacity="1" stroke-width="3.2"></circle>
<circle clip-path="url(#clip692)" cx="1963.52" cy="280.573" r="14.4" fill="#009af9" fill-rule="evenodd" fill-opacity="1" stroke="#000000" stroke-opacity="1" stroke-width="3.2"></circle>
<circle clip-path="url(#clip692)" cx="2072.55" cy="107.088" r="14.4" fill="#009af9" fill-rule="evenodd" fill-opacity="1" stroke="#000000" stroke-opacity="1" stroke-width="3.2"></circle>
<circle clip-path="url(#clip692)" cx="2181.58" cy="90.0931" r="14.4" fill="#009af9" fill-rule="evenodd" fill-opacity="1" stroke="#000000" stroke-opacity="1" stroke-width="3.2"></circle>
<circle clip-path="url(#clip692)" cx="2290.61" cy="87.9763" r="14.4" fill="#009af9" fill-rule="evenodd" fill-opacity="1" stroke="#000000" stroke-opacity="1" stroke-width="3.2"></circle>
<path clip-path="url(#clip690)" d="M230.117 198.898 L502.13 198.898 L502.13 95.2176 L230.117 95.2176  Z" fill="#ffffff" fill-rule="evenodd" fill-opacity="1"></path>
<polyline clip-path="url(#clip690)" style="stroke:#000000; stroke-linecap:round; stroke-linejoin:round; stroke-width:4; stroke-opacity:1; fill:none" points="230.117,198.898 502.13,198.898 502.13,95.2176 230.117,95.2176 230.117,198.898 "></polyline>
<circle clip-path="url(#clip690)" cx="327.709" cy="147.058" r="20.48" fill="#009af9" fill-rule="evenodd" fill-opacity="1" stroke="#000000" stroke-opacity="1" stroke-width="4.55111"></circle>
<path clip-path="url(#clip690)" d="M439.144 166.745 Q437.339 171.375 435.626 172.787 Q433.913 174.199 431.043 174.199 L427.64 174.199 L427.64 170.634 L430.14 170.634 Q431.899 170.634 432.871 169.8 Q433.844 168.967 435.024 165.865 L435.788 163.921 L425.302 138.412 L429.816 138.412 L437.918 158.689 L446.019 138.412 L450.533 138.412 L439.144 166.745 Z" fill="#000000" fill-rule="nonzero" fill-opacity="1"></path><path clip-path="url(#clip690)" d="M457.825 160.402 L465.464 160.402 L465.464 134.037 L457.154 135.703 L457.154 131.444 L465.417 129.778 L470.093 129.778 L470.093 160.402 L477.732 160.402 L477.732 164.338 L457.825 164.338 L457.825 160.402 Z" fill="#000000" fill-rule="nonzero" fill-opacity="1"></path></svg>