<svg xmlns="http://www.w3.org/2000/svg" xmlns:xlink="http://www.w3.org/1999/xlink" width="600" height="400" viewBox="0 0 2400 1600">
<defs>
  <clipPath id="clip170">
    <rect x="0" y="0" width="2400" height="1600"></rect>
  </clipPath>
</defs>
<path clip-path="url(#clip170)" d="M0 1600 L2400 1600 L2400 0 L0 0  Z" fill="#ffffff" fill-rule="evenodd" fill-opacity="1"></path>
<defs>
  <clipPath id="clip171">
    <rect x="480" y="0" width="1681" height="1600"></rect>
  </clipPath>
</defs>
<path clip-path="url(#clip170)" d="M178.867 1486.45 L2352.76 1486.45 L2352.76 47.2441 L178.867 47.2441  Z" fill="#ffffff" fill-rule="evenodd" fill-opacity="1"></path>
<defs>
  <clipPath id="clip172">
    <rect x="178" y="47" width="2175" height="1440"></rect>
  </clipPath>
</defs>
<polyline clip-path="url(#clip172)" style="stroke:#000000; stroke-linecap:round; stroke-linejoin:round; stroke-width:2; stroke-opacity:0.1; fill:none" points="228.184,1486.45 228.184,47.2441 "></polyline>
<polyline clip-path="url(#clip172)" style="stroke:#000000; stroke-linecap:round; stroke-linejoin:round; stroke-width:2; stroke-opacity:0.1; fill:none" points="838.553,1486.45 838.553,47.2441 "></polyline>
<polyline clip-path="url(#clip172)" style="stroke:#000000; stroke-linecap:round; stroke-linejoin:round; stroke-width:2; stroke-opacity:0.1; fill:none" points="1448.92,1486.45 1448.92,47.2441 "></polyline>
<polyline clip-path="url(#clip172)" style="stroke:#000000; stroke-linecap:round; stroke-linejoin:round; stroke-width:2; stroke-opacity:0.1; fill:none" points="2059.29,1486.45 2059.29,47.2441 "></polyline>
<polyline clip-path="url(#clip170)" style="stroke:#000000; stroke-linecap:round; stroke-linejoin:round; stroke-width:4; stroke-opacity:1; fill:none" points="178.867,1486.45 2352.76,1486.45 "></polyline>
<polyline clip-path="url(#clip170)" style="stroke:#000000; stroke-linecap:round; stroke-linejoin:round; stroke-width:4; stroke-opacity:1; fill:none" points="228.184,1486.45 228.184,1467.55 "></polyline>
<polyline clip-path="url(#clip170)" style="stroke:#000000; stroke-linecap:round; stroke-linejoin:round; stroke-width:4; stroke-opacity:1; fill:none" points="838.553,1486.45 838.553,1467.55 "></polyline>
<polyline clip-path="url(#clip170)" style="stroke:#000000; stroke-linecap:round; stroke-linejoin:round; stroke-width:4; stroke-opacity:1; fill:none" points="1448.92,1486.45 1448.92,1467.55 "></polyline>
<polyline clip-path="url(#clip170)" style="stroke:#000000; stroke-linecap:round; stroke-linejoin:round; stroke-width:4; stroke-opacity:1; fill:none" points="2059.29,1486.45 2059.29,1467.55 "></polyline>
<path clip-path="url(#clip170)" d="M228.184 1517.37 Q224.573 1517.37 222.745 1520.93 Q220.939 1524.47 220.939 1531.6 Q220.939 1538.71 222.745 1542.27 Q224.573 1545.82 228.184 1545.82 Q231.819 1545.82 233.624 1542.27 Q235.453 1538.71 235.453 1531.6 Q235.453 1524.47 233.624 1520.93 Q231.819 1517.37 228.184 1517.37 M228.184 1513.66 Q233.995 1513.66 237.05 1518.27 Q240.129 1522.85 240.129 1531.6 Q240.129 1540.33 237.05 1544.94 Q233.995 1549.52 228.184 1549.52 Q222.374 1549.52 219.296 1544.94 Q216.24 1540.33 216.24 1531.6 Q216.24 1522.85 219.296 1518.27 Q222.374 1513.66 228.184 1513.66 Z" fill="#000000" fill-rule="nonzero" fill-opacity="1"></path><path clip-path="url(#clip170)" d="M813.252 1514.29 L831.609 1514.29 L831.609 1518.22 L817.535 1518.22 L817.535 1526.7 Q818.553 1526.35 819.572 1526.19 Q820.59 1526 821.609 1526 Q827.396 1526 830.775 1529.17 Q834.155 1532.34 834.155 1537.76 Q834.155 1543.34 830.683 1546.44 Q827.211 1549.52 820.891 1549.52 Q818.715 1549.52 816.447 1549.15 Q814.201 1548.78 811.794 1548.04 L811.794 1543.34 Q813.877 1544.47 816.1 1545.03 Q818.322 1545.58 820.799 1545.58 Q824.803 1545.58 827.141 1543.48 Q829.479 1541.37 829.479 1537.76 Q829.479 1534.15 827.141 1532.04 Q824.803 1529.94 820.799 1529.94 Q818.924 1529.94 817.049 1530.35 Q815.197 1530.77 813.252 1531.65 L813.252 1514.29 Z" fill="#000000" fill-rule="nonzero" fill-opacity="1"></path><path clip-path="url(#clip170)" d="M853.368 1517.37 Q849.757 1517.37 847.928 1520.93 Q846.123 1524.47 846.123 1531.6 Q846.123 1538.71 847.928 1542.27 Q849.757 1545.82 853.368 1545.82 Q857.002 1545.82 858.808 1542.27 Q860.636 1538.71 860.636 1531.6 Q860.636 1524.47 858.808 1520.93 Q857.002 1517.37 853.368 1517.37 M853.368 1513.66 Q859.178 1513.66 862.234 1518.27 Q865.312 1522.85 865.312 1531.6 Q865.312 1540.33 862.234 1544.94 Q859.178 1549.52 853.368 1549.52 Q847.558 1549.52 844.479 1544.94 Q841.424 1540.33 841.424 1531.6 Q841.424 1522.85 844.479 1518.27 Q847.558 1513.66 853.368 1513.66 Z" fill="#000000" fill-rule="nonzero" fill-opacity="1"></path><path clip-path="url(#clip170)" d="M1408.53 1544.91 L1416.17 1544.91 L1416.17 1518.55 L1407.86 1520.21 L1407.86 1515.95 L1416.12 1514.29 L1420.8 1514.29 L1420.8 1544.91 L1428.44 1544.91 L1428.44 1548.85 L1408.53 1548.85 L1408.53 1544.91 Z" fill="#000000" fill-rule="nonzero" fill-opacity="1"></path><path clip-path="url(#clip170)" d="M1447.88 1517.37 Q1444.27 1517.37 1442.44 1520.93 Q1440.63 1524.47 1440.63 1531.6 Q1440.63 1538.71 1442.44 1542.27 Q1444.27 1545.82 1447.88 1545.82 Q1451.51 1545.82 1453.32 1542.27 Q1455.15 1538.71 1455.15 1531.6 Q1455.15 1524.47 1453.32 1520.93 Q1451.51 1517.37 1447.88 1517.37 M1447.88 1513.66 Q1453.69 1513.66 1456.75 1518.27 Q1459.82 1522.85 1459.82 1531.6 Q1459.82 1540.33 1456.75 1544.94 Q1453.69 1549.52 1447.88 1549.52 Q1442.07 1549.52 1438.99 1544.94 Q1435.94 1540.33 1435.94 1531.6 Q1435.94 1522.85 1438.99 1518.27 Q1442.07 1513.66 1447.88 1513.66 Z" fill="#000000" fill-rule="nonzero" fill-opacity="1"></path><path clip-path="url(#clip170)" d="M1478.04 1517.37 Q1474.43 1517.37 1472.6 1520.93 Q1470.8 1524.47 1470.8 1531.6 Q1470.8 1538.71 1472.6 1542.27 Q1474.43 1545.82 1478.04 1545.82 Q1481.68 1545.82 1483.48 1542.27 Q1485.31 1538.71 1485.31 1531.6 Q1485.31 1524.47 1483.48 1520.93 Q1481.68 1517.37 1478.04 1517.37 M1478.04 1513.66 Q1483.85 1513.66 1486.91 1518.27 Q1489.99 1522.85 1489.99 1531.6 Q1489.99 1540.33 1486.91 1544.94 Q1483.85 1549.52 1478.04 1549.52 Q1472.23 1549.52 1469.15 1544.94 Q1466.1 1540.33 1466.1 1531.6 Q1466.1 1522.85 1469.15 1518.27 Q1472.23 1513.66 1478.04 1513.66 Z" fill="#000000" fill-rule="nonzero" fill-opacity="1"></path><path clip-path="url(#clip170)" d="M2018.9 1544.91 L2026.54 1544.91 L2026.54 1518.55 L2018.23 1520.21 L2018.23 1515.95 L2026.49 1514.29 L2031.17 1514.29 L2031.17 1544.91 L2038.8 1544.91 L2038.8 1548.85 L2018.9 1548.85 L2018.9 1544.91 Z" fill="#000000" fill-rule="nonzero" fill-opacity="1"></path><path clip-path="url(#clip170)" d="M2048.3 1514.29 L2066.65 1514.29 L2066.65 1518.22 L2052.58 1518.22 L2052.58 1526.7 Q2053.6 1526.35 2054.61 1526.19 Q2055.63 1526 2056.65 1526 Q2062.44 1526 2065.82 1529.17 Q2069.2 1532.34 2069.2 1537.76 Q2069.2 1543.34 2065.73 1546.44 Q2062.25 1549.52 2055.93 1549.52 Q2053.76 1549.52 2051.49 1549.15 Q2049.24 1548.78 2046.84 1548.04 L2046.84 1543.34 Q2048.92 1544.47 2051.14 1545.03 Q2053.36 1545.58 2055.84 1545.58 Q2059.85 1545.58 2062.18 1543.48 Q2064.52 1541.37 2064.52 1537.76 Q2064.52 1534.15 2062.18 1532.04 Q2059.85 1529.94 2055.84 1529.94 Q2053.97 1529.94 2052.09 1530.35 Q2050.24 1530.77 2048.3 1531.65 L2048.3 1514.29 Z" fill="#000000" fill-rule="nonzero" fill-opacity="1"></path><path clip-path="url(#clip170)" d="M2088.41 1517.37 Q2084.8 1517.37 2082.97 1520.93 Q2081.17 1524.47 2081.17 1531.6 Q2081.17 1538.71 2082.97 1542.27 Q2084.8 1545.82 2088.41 1545.82 Q2092.05 1545.82 2093.85 1542.27 Q2095.68 1538.71 2095.68 1531.6 Q2095.68 1524.47 2093.85 1520.93 Q2092.05 1517.37 2088.41 1517.37 M2088.41 1513.66 Q2094.22 1513.66 2097.28 1518.27 Q2100.36 1522.85 2100.36 1531.6 Q2100.36 1540.33 2097.28 1544.94 Q2094.22 1549.52 2088.41 1549.52 Q2082.6 1549.52 2079.52 1544.94 Q2076.47 1540.33 2076.47 1531.6 Q2076.47 1522.85 2079.52 1518.27 Q2082.6 1513.66 2088.41 1513.66 Z" fill="#000000" fill-rule="nonzero" fill-opacity="1"></path><polyline clip-path="url(#clip172)" style="stroke:#000000; stroke-linecap:round; stroke-linejoin:round; stroke-width:2; stroke-opacity:0.1; fill:none" points="178.867,1335.94 2352.76,1335.94 "></polyline>
<polyline clip-path="url(#clip172)" style="stroke:#000000; stroke-linecap:round; stroke-linejoin:round; stroke-width:2; stroke-opacity:0.1; fill:none" points="178.867,914.544 2352.76,914.544 "></polyline>
<polyline clip-path="url(#clip172)" style="stroke:#000000; stroke-linecap:round; stroke-linejoin:round; stroke-width:2; stroke-opacity:0.1; fill:none" points="178.867,493.151 2352.76,493.151 "></polyline>
<polyline clip-path="url(#clip172)" style="stroke:#000000; stroke-linecap:round; stroke-linejoin:round; stroke-width:2; stroke-opacity:0.1; fill:none" points="178.867,71.7593 2352.76,71.7593 "></polyline>
<polyline clip-path="url(#clip170)" style="stroke:#000000; stroke-linecap:round; stroke-linejoin:round; stroke-width:4; stroke-opacity:1; fill:none" points="178.867,1486.45 178.867,47.2441 "></polyline>
<polyline clip-path="url(#clip170)" style="stroke:#000000; stroke-linecap:round; stroke-linejoin:round; stroke-width:4; stroke-opacity:1; fill:none" points="178.867,1335.94 197.764,1335.94 "></polyline>
<polyline clip-path="url(#clip170)" style="stroke:#000000; stroke-linecap:round; stroke-linejoin:round; stroke-width:4; stroke-opacity:1; fill:none" points="178.867,914.544 197.764,914.544 "></polyline>
<polyline clip-path="url(#clip170)" style="stroke:#000000; stroke-linecap:round; stroke-linejoin:round; stroke-width:4; stroke-opacity:1; fill:none" points="178.867,493.151 197.764,493.151 "></polyline>
<polyline clip-path="url(#clip170)" style="stroke:#000000; stroke-linecap:round; stroke-linejoin:round; stroke-width:4; stroke-opacity:1; fill:none" points="178.867,71.7593 197.764,71.7593 "></polyline>
<path clip-path="url(#clip170)" d="M50.9921 1336.39 L80.6679 1336.39 L80.6679 1340.32 L50.9921 1340.32 L50.9921 1336.39 Z" fill="#000000" fill-rule="nonzero" fill-opacity="1"></path><path clip-path="url(#clip170)" d="M91.5706 1349.28 L99.2095 1349.28 L99.2095 1322.91 L90.8993 1324.58 L90.8993 1320.32 L99.1632 1318.66 L103.839 1318.66 L103.839 1349.28 L111.478 1349.28 L111.478 1353.22 L91.5706 1353.22 L91.5706 1349.28 Z" fill="#000000" fill-rule="nonzero" fill-opacity="1"></path><path clip-path="url(#clip170)" d="M130.922 1321.73 Q127.311 1321.73 125.482 1325.3 Q123.677 1328.84 123.677 1335.97 Q123.677 1343.08 125.482 1346.64 Q127.311 1350.18 130.922 1350.18 Q134.556 1350.18 136.362 1346.64 Q138.191 1343.08 138.191 1335.97 Q138.191 1328.84 136.362 1325.3 Q134.556 1321.73 130.922 1321.73 M130.922 1318.03 Q136.732 1318.03 139.788 1322.64 Q142.867 1327.22 142.867 1335.97 Q142.867 1344.7 139.788 1349.3 Q136.732 1353.89 130.922 1353.89 Q125.112 1353.89 122.033 1349.3 Q118.978 1344.7 118.978 1335.97 Q118.978 1327.22 122.033 1322.64 Q125.112 1318.03 130.922 1318.03 Z" fill="#000000" fill-rule="nonzero" fill-opacity="1"></path><path clip-path="url(#clip170)" d="M130.922 900.342 Q127.311 900.342 125.482 903.907 Q123.677 907.449 123.677 914.578 Q123.677 921.685 125.482 925.249 Q127.311 928.791 130.922 928.791 Q134.556 928.791 136.362 925.249 Q138.191 921.685 138.191 914.578 Q138.191 907.449 136.362 903.907 Q134.556 900.342 130.922 900.342 M130.922 896.639 Q136.732 896.639 139.788 901.245 Q142.867 905.828 142.867 914.578 Q142.867 923.305 139.788 927.912 Q136.732 932.495 130.922 932.495 Q125.112 932.495 122.033 927.912 Q118.978 923.305 118.978 914.578 Q118.978 905.828 122.033 901.245 Q125.112 896.639 130.922 896.639 Z" fill="#000000" fill-rule="nonzero" fill-opacity="1"></path><path clip-path="url(#clip170)" d="M91.5706 506.496 L99.2095 506.496 L99.2095 480.131 L90.8993 481.797 L90.8993 477.538 L99.1632 475.871 L103.839 475.871 L103.839 506.496 L111.478 506.496 L111.478 510.431 L91.5706 510.431 L91.5706 506.496 Z" fill="#000000" fill-rule="nonzero" fill-opacity="1"></path><path clip-path="url(#clip170)" d="M130.922 478.95 Q127.311 478.95 125.482 482.515 Q123.677 486.057 123.677 493.186 Q123.677 500.293 125.482 503.857 Q127.311 507.399 130.922 507.399 Q134.556 507.399 136.362 503.857 Q138.191 500.293 138.191 493.186 Q138.191 486.057 136.362 482.515 Q134.556 478.95 130.922 478.95 M130.922 475.246 Q136.732 475.246 139.788 479.853 Q142.867 484.436 142.867 493.186 Q142.867 501.913 139.788 506.519 Q136.732 511.103 130.922 511.103 Q125.112 511.103 122.033 506.519 Q118.978 501.913 118.978 493.186 Q118.978 484.436 122.033 479.853 Q125.112 475.246 130.922 475.246 Z" fill="#000000" fill-rule="nonzero" fill-opacity="1"></path><path clip-path="url(#clip170)" d="M94.7882 85.1041 L111.108 85.1041 L111.108 89.0393 L89.1632 89.0393 L89.1632 85.1041 Q91.8252 82.3495 96.4085 77.7199 Q101.015 73.0672 102.196 71.7246 Q104.441 69.2014 105.321 67.4653 Q106.223 65.7061 106.223 64.0163 Q106.223 61.2617 104.279 59.5256 Q102.358 57.7895 99.2558 57.7895 Q97.0567 57.7895 94.603 58.5534 Q92.1725 59.3172 89.3947 60.8682 L89.3947 56.146 Q92.2188 55.0117 94.6724 54.433 Q97.1261 53.8543 99.1632 53.8543 Q104.534 53.8543 107.728 56.5395 Q110.922 59.2246 110.922 63.7154 Q110.922 65.845 110.112 67.7663 Q109.325 69.6644 107.219 72.257 Q106.64 72.9283 103.538 76.1458 Q100.436 79.3403 94.7882 85.1041 Z" fill="#000000" fill-rule="nonzero" fill-opacity="1"></path><path clip-path="url(#clip170)" d="M130.922 57.558 Q127.311 57.558 125.482 61.1228 Q123.677 64.6644 123.677 71.794 Q123.677 78.9005 125.482 82.4653 Q127.311 86.0069 130.922 86.0069 Q134.556 86.0069 136.362 82.4653 Q138.191 78.9005 138.191 71.794 Q138.191 64.6644 136.362 61.1228 Q134.556 57.558 130.922 57.558 M130.922 53.8543 Q136.732 53.8543 139.788 58.4608 Q142.867 63.0441 142.867 71.794 Q142.867 80.5208 139.788 85.1273 Q136.732 89.7106 130.922 89.7106 Q125.112 89.7106 122.033 85.1273 Q118.978 80.5208 118.978 71.794 Q118.978 63.0441 122.033 58.4608 Q125.112 53.8543 130.922 53.8543 Z" fill="#000000" fill-rule="nonzero" fill-opacity="1"></path><polyline clip-path="url(#clip172)" style="stroke:#009af9; stroke-linecap:round; stroke-linejoin:round; stroke-width:4; stroke-opacity:1; fill:none" points="240.392,1365.38 252.599,1306.33 264.807,1236.93 277.014,1165.68 289.221,1088.2 301.429,1002.66 313.636,997.829 325.843,992.915 338.051,1073.54 350.258,992.601 362.466,1073.1 374.673,993.565 386.88,1028.64 399.088,996.527 411.295,1022.32 423.502,997.655 435.71,994.52 447.917,993.266 460.125,992.685 472.332,1018.48 484.539,1028.52 496.747,1015.81 508.954,972.461 521.161,911.179 533.369,877.776 545.576,871.571 557.784,874.891 569.991,857.854 582.198,874.514 594.406,921.153 606.613,883.711 618.82,928.404 631.028,899.777 643.235,941.029 655.443,915.271 667.65,946.416 679.857,930.341 692.065,929.216 704.272,926.586 716.479,919.24 728.687,926.601 740.894,921.287 753.102,935.716 765.309,929.656 777.516,923.618 789.724,923.377 801.931,925.207 814.138,919.548 826.346,927.578 838.553,925.229 850.761,921.482 862.968,921.648 875.175,921.523 887.383,920.352 899.59,919.875 911.797,919.911 924.005,918.924 936.212,919.806 948.42,950.192 960.627,961.096 972.834,949.822 985.042,953.099 997.249,969.836 1009.46,917.062 1021.66,896.937 1033.87,907.57 1046.08,909.341 1058.29,893.36 1070.49,936.202 1082.7,935.279 1094.91,946.548 1107.12,934.977 1119.32,951.71 1131.53,943.094 1143.74,944.154 1155.94,939.268 1168.15,934.129 1180.36,965.534 1192.57,974.297 1204.77,970.343 1216.98,944.175 1229.19,938.736 1241.4,920.726 1253.6,897.465 1265.81,865.074 1278.02,864.967 1290.23,905.57 1302.43,896.117 1314.64,911.168 1326.85,900.105 1339.06,904.209 1351.26,910.293 1363.47,887.591 1375.68,920.078 1387.89,946.25 1400.09,916.631 1412.3,955.534 1424.51,943.35 1436.71,925.582 1448.92,905.066 1461.13,875.844 1473.34,871.052 1485.54,894.959 1497.75,909.804 1509.96,885.314 1522.17,921.39 1534.37,954.661 1546.58,944.033 1558.79,919.311 1571,917.646 1583.2,913.782 1595.41,931.454 1607.62,944.472 1619.83,928.918 1632.03,948.544 1644.24,952.402 1656.45,949.648 1668.65,947.566 1680.86,948.943 1693.07,946.771 1705.28,946.225 1717.48,943.809 1729.69,940.864 1741.9,938.82 1754.11,936.364 1766.31,934.418 1778.52,932.072 1790.73,929.364 1802.94,933.739 1815.14,948.442 1827.35,937.419 1839.56,951.408 1851.77,951.26 1863.97,944.477 1876.18,946.802 1888.39,986.575 1900.59,965.072 1912.8,931.336 1925.01,907.239 1937.22,893.422 1949.42,865.276 1961.63,843.484 1973.84,852.345 1986.05,897.849 1998.25,899.174 2010.46,894.034 2022.67,927.315 2034.88,928.941 2047.08,908.078 2059.29,951.341 2071.5,949.815 2083.71,920.757 2095.91,924.333 2108.12,923.683 2120.33,914.114 2132.53,921.259 2144.74,931.483 2156.95,956.592 2169.16,927.069 2181.36,954.28 2193.57,939.311 2205.78,934.404 2217.99,919.975 2230.19,909.196 2242.4,903.208 2254.61,899.709 2266.82,919.202 2279.02,915.603 2291.23,922.542 "></polyline>
<polyline clip-path="url(#clip172)" style="stroke:#e26f46; stroke-linecap:round; stroke-linejoin:round; stroke-width:4; stroke-opacity:1; fill:none" points="240.392,944.061 252.599,559.731 264.807,924.867 277.014,735.541 289.221,87.9763 301.429,920.843 313.636,931.907 325.843,936.689 338.051,466.222 350.258,935.555 362.466,470.368 374.673,936.565 386.88,800.157 399.088,933.037 411.295,823.175 423.502,934.879 435.71,940 447.917,939.476 460.125,938.805 472.332,866.914 484.539,909.907 496.747,651.579 508.954,479.602 521.161,613.884 533.369,500.431 545.576,760.955 557.784,835.22 569.991,817.022 582.198,828.78 594.406,749.43 606.613,835.771 618.82,743.625 631.028,847.79 643.235,709.717 655.443,864.985 667.65,741.829 679.857,874.347 692.065,897.853 704.272,910.963 716.479,906.332 728.687,910.082 740.894,908.5 753.102,885.135 765.309,913.452 777.516,913.506 789.724,914.411 801.931,915.952 814.138,911.921 826.346,914.572 838.553,917.575 850.761,914.616 862.968,915.444 875.175,915.569 887.383,914.609 899.59,914.51 911.797,914.907 924.005,914.343 936.212,915.372 948.42,872.446 960.627,913.299 972.834,889.748 985.042,908.513 997.249,939.944 1009.46,524.804 1021.66,861.118 1033.87,899.794 1046.08,892.614 1058.29,885.448 1070.49,868.916 1082.7,916.994 1094.91,909.691 1107.12,907.53 1119.32,908.879 1131.53,924.905 1143.74,933.677 1155.94,925.751 1168.15,917.544 1180.36,880.005 1192.57,915.243 1204.77,909.61 1216.98,826.383 1229.19,850.962 1241.4,847.797 1253.6,555.158 1265.81,441.931 1278.02,600.124 1290.23,626.51 1302.43,783.646 1314.64,853.977 1326.85,854.456 1339.06,883.613 1351.26,914.833 1363.47,897.065 1375.68,919.342 1387.89,930.037 1400.09,920.342 1412.3,909.311 1424.51,909.615 1436.71,918.179 1448.92,892.742 1461.13,861.757 1473.34,487.814 1485.54,623 1497.75,735.876 1509.96,644.594 1522.17,815.892 1534.37,893.344 1546.58,901.16 1558.79,839.76 1571,825.172 1583.2,810.787 1595.41,854.77 1607.62,862.885 1619.83,870.363 1632.03,902.859 1644.24,889.105 1656.45,916.175 1668.65,905.779 1680.86,922.101 1693.07,921.238 1705.28,920.732 1717.48,917.181 1729.69,912.187 1741.9,908.449 1754.11,903.392 1766.31,899.116 1778.52,893.71 1790.73,887.312 1802.94,897.856 1815.14,918.384 1827.35,903.562 1839.56,920.852 1851.77,923.702 1863.97,915.081 1876.18,918.85 1888.39,922.216 1900.59,910.89 1912.8,843.922 1925.01,846.555 1937.22,820.023 1949.42,744.696 1961.63,660.764 1973.84,667.82 1986.05,824.7 1998.25,850.528 2010.46,825.375 2022.67,904.396 2034.88,915.119 2047.08,904.264 2059.29,922.286 2071.5,925.991 2083.71,902.176 2095.91,892.156 2108.12,886.101 2120.33,885.087 2132.53,910.153 2144.74,909.913 2156.95,921.17 2169.16,911.686 2181.36,921.114 2193.57,925.549 2205.78,925.784 2217.99,915.831 2230.19,903.394 2242.4,894.183 2254.61,888.257 2266.82,912.721 2279.02,914.746 2291.23,920.163 "></polyline>
<polyline clip-path="url(#clip172)" style="stroke:#3da44d; stroke-linecap:round; stroke-linejoin:round; stroke-width:4; stroke-opacity:1; fill:none" points="240.392,1097.6 252.599,1133.37 264.807,1160.51 277.014,1195.94 289.221,1223.72 301.429,1259.58 313.636,1260.57 325.843,1261.57 338.051,1234.5 350.258,1261.52 362.466,1234.61 374.673,1260.9 386.88,1247.92 399.088,1260.04 411.295,1249.83 423.502,1259.45 435.71,1260.4 447.917,1260.95 460.125,1261.26 472.332,1220.98 484.539,1221.39 496.747,1231.58 508.954,1259.45 521.161,1293.38 533.369,1319.8 545.576,1339.74 557.784,1351.79 569.991,1357.84 582.198,1356.02 594.406,1334.15 606.613,1355.83 618.82,1333.66 631.028,1353.15 643.235,1329.1 655.443,1349.6 667.65,1329.31 679.857,1341.83 692.065,1340.11 704.272,1337.9 716.479,1340.53 728.687,1337.16 740.894,1340.35 753.102,1331.34 765.309,1335.24 777.516,1338.73 789.724,1338.81 801.931,1337.93 814.138,1339.85 826.346,1336.08 838.553,1337.13 850.761,1338.88 862.968,1338.74 875.175,1338.76 887.383,1339.12 899.59,1339.22 911.797,1339.16 924.005,1339.42 936.212,1339 948.42,1291.49 960.627,1291.61 972.834,1302.17 985.042,1307.76 997.249,1308.8 1009.46,1340.18 1021.66,1357.81 1033.87,1364 1046.08,1372.64 1058.29,1379.72 1070.49,1359.91 1082.7,1367.33 1094.91,1360.79 1107.12,1367.67 1119.32,1354.31 1131.53,1361.81 1143.74,1361.49 1155.94,1365.47 1168.15,1368.86 1180.36,1319.73 1192.57,1323.31 1204.77,1333.39 1216.98,1351.94 1229.19,1361.64 1241.4,1374.34 1253.6,1383.95 1265.81,1397.81 1278.02,1406.02 1290.23,1395.16 1302.43,1400.24 1314.64,1398.05 1326.85,1404.75 1339.06,1406.36 1351.26,1405.11 1363.47,1411.76 1375.68,1401.35 1387.89,1392.55 1400.09,1402.49 1412.3,1341.15 1424.51,1353.63 1436.71,1366.38 1448.92,1384.01 1461.13,1402.78 1473.34,1417.71 1485.54,1413.73 1497.75,1412.68 1509.96,1422.43 1522.17,1411.89 1534.37,1401.34 1546.58,1404.96 1558.79,1414.47 1571,1417.49 1583.2,1420.7 1595.41,1411.39 1607.62,1403.89 1619.83,1412.07 1632.03,1403.03 1644.24,1398.53 1656.45,1401.58 1668.65,1401.82 1680.86,1401.22 1693.07,1402.75 1705.28,1403.3 1717.48,1404.93 1729.69,1406.9 1741.9,1408.36 1754.11,1410.11 1766.31,1411.6 1778.52,1413.35 1790.73,1415.14 1802.94,1412.71 1815.14,1405.26 1827.35,1411.2 1839.56,1404 1851.77,1403.7 1863.97,1407.6 1876.18,1406.29 1888.39,1343.34 1900.59,1359.97 1912.8,1379.98 1925.01,1400.05 1937.22,1417.42 1949.42,1438.91 1961.63,1445.72 1973.84,1444.19 1986.05,1423.58 1998.25,1428.12 2010.46,1431.73 2022.67,1415.49 2034.88,1418.09 2047.08,1425.09 2059.29,1400.54 2071.5,1408.95 2083.71,1421.78 2095.91,1422 2108.12,1422.93 2120.33,1425.79 2132.53,1422.11 2144.74,1418.86 2156.95,1403.11 2169.16,1419.94 2181.36,1402.66 2193.57,1410.71 2205.78,1413.58 2217.99,1421.09 2230.19,1426.4 2242.4,1428.45 2254.61,1429.6 2266.82,1421.51 2279.02,1423.53 2291.23,1420.93 "></polyline>
<path clip-path="url(#clip170)" d="M1399.02 302.578 L2280.29 302.578 L2280.29 95.2176 L1399.02 95.2176  Z" fill="#ffffff" fill-rule="evenodd" fill-opacity="1"></path>
<polyline clip-path="url(#clip170)" style="stroke:#000000; stroke-linecap:round; stroke-linejoin:round; stroke-width:4; stroke-opacity:1; fill:none" points="1399.02,302.578 2280.29,302.578 2280.29,95.2176 1399.02,95.2176 1399.02,302.578 "></polyline>
<polyline clip-path="url(#clip170)" style="stroke:#009af9; stroke-linecap:round; stroke-linejoin:round; stroke-width:4; stroke-opacity:1; fill:none" points="1423.17,147.058 1568.1,147.058 "></polyline>
<path clip-path="url(#clip170)" d="M1605.45 164.338 L1592.25 129.778 L1597.14 129.778 L1608.09 158.875 L1619.06 129.778 L1623.92 129.778 L1610.75 164.338 L1605.45 164.338 Z" fill="#000000" fill-rule="nonzero" fill-opacity="1"></path><path clip-path="url(#clip170)" d="M1635.15 141.398 Q1631.72 141.398 1629.73 144.083 Q1627.74 146.745 1627.74 151.398 Q1627.74 156.051 1629.71 158.736 Q1631.7 161.398 1635.15 161.398 Q1638.55 161.398 1640.54 158.713 Q1642.53 156.027 1642.53 151.398 Q1642.53 146.791 1640.54 144.106 Q1638.55 141.398 1635.15 141.398 M1635.15 137.787 Q1640.7 137.787 1643.87 141.398 Q1647.04 145.009 1647.04 151.398 Q1647.04 157.764 1643.87 161.398 Q1640.7 165.009 1635.15 165.009 Q1629.57 165.009 1626.4 161.398 Q1623.25 157.764 1623.25 151.398 Q1623.25 145.009 1626.4 141.398 Q1629.57 137.787 1635.15 137.787 Z" fill="#000000" fill-rule="nonzero" fill-opacity="1"></path><path clip-path="url(#clip170)" d="M1654.1 128.319 L1658.36 128.319 L1658.36 164.338 L1654.1 164.338 L1654.1 128.319 Z" fill="#000000" fill-rule="nonzero" fill-opacity="1"></path><path clip-path="url(#clip170)" d="M1666.84 154.106 L1666.84 138.412 L1671.1 138.412 L1671.1 153.944 Q1671.1 157.625 1672.53 159.476 Q1673.97 161.305 1676.84 161.305 Q1680.29 161.305 1682.28 159.106 Q1684.29 156.907 1684.29 153.111 L1684.29 138.412 L1688.55 138.412 L1688.55 164.338 L1684.29 164.338 L1684.29 160.356 Q1682.74 162.717 1680.68 163.875 Q1678.64 165.009 1675.93 165.009 Q1671.47 165.009 1669.15 162.231 Q1666.84 159.453 1666.84 154.106 M1677.55 137.787 L1677.55 137.787 Z" fill="#000000" fill-rule="nonzero" fill-opacity="1"></path><path clip-path="url(#clip170)" d="M1717.51 143.389 Q1719.1 140.518 1721.33 139.153 Q1723.55 137.787 1726.56 137.787 Q1730.61 137.787 1732.81 140.634 Q1735.01 143.458 1735.01 148.689 L1735.01 164.338 L1730.72 164.338 L1730.72 148.828 Q1730.72 145.102 1729.41 143.296 Q1728.09 141.49 1725.38 141.49 Q1722.07 141.49 1720.15 143.69 Q1718.22 145.889 1718.22 149.685 L1718.22 164.338 L1713.94 164.338 L1713.94 148.828 Q1713.94 145.078 1712.62 143.296 Q1711.3 141.49 1708.55 141.49 Q1705.29 141.49 1703.36 143.713 Q1701.44 145.912 1701.44 149.685 L1701.44 164.338 L1697.16 164.338 L1697.16 138.412 L1701.44 138.412 L1701.44 142.44 Q1702.9 140.055 1704.94 138.921 Q1706.97 137.787 1709.78 137.787 Q1712.6 137.787 1714.57 139.222 Q1716.56 140.657 1717.51 143.389 Z" fill="#000000" fill-rule="nonzero" fill-opacity="1"></path><path clip-path="url(#clip170)" d="M1765.68 150.31 L1765.68 152.393 L1746.1 152.393 Q1746.37 156.791 1748.73 159.106 Q1751.12 161.398 1755.35 161.398 Q1757.81 161.398 1760.1 160.796 Q1762.41 160.194 1764.68 158.99 L1764.68 163.018 Q1762.39 163.99 1759.98 164.5 Q1757.58 165.009 1755.1 165.009 Q1748.9 165.009 1745.26 161.398 Q1741.65 157.787 1741.65 151.629 Q1741.65 145.264 1745.08 141.537 Q1748.53 137.787 1754.36 137.787 Q1759.59 137.787 1762.62 141.166 Q1765.68 144.523 1765.68 150.31 M1761.42 149.06 Q1761.37 145.565 1759.45 143.481 Q1757.55 141.398 1754.41 141.398 Q1750.84 141.398 1748.69 143.412 Q1746.56 145.426 1746.23 149.083 L1761.42 149.06 Z" fill="#000000" fill-rule="nonzero" fill-opacity="1"></path><path clip-path="url(#clip170)" d="M1813.8 132.44 L1813.8 137.37 Q1811.44 135.171 1808.76 134.083 Q1806.09 132.995 1803.09 132.995 Q1797.16 132.995 1794.01 136.629 Q1790.86 140.24 1790.86 147.092 Q1790.86 153.921 1794.01 157.555 Q1797.16 161.166 1803.09 161.166 Q1806.09 161.166 1808.76 160.078 Q1811.44 158.99 1813.8 156.791 L1813.8 161.676 Q1811.35 163.342 1808.59 164.176 Q1805.86 165.009 1802.81 165.009 Q1794.96 165.009 1790.45 160.217 Q1785.93 155.402 1785.93 147.092 Q1785.93 138.759 1790.45 133.967 Q1794.96 129.153 1802.81 129.153 Q1805.91 129.153 1808.64 129.986 Q1811.4 130.796 1813.8 132.44 Z" fill="#000000" fill-rule="nonzero" fill-opacity="1"></path><path clip-path="url(#clip170)" d="M1830.89 141.398 Q1827.46 141.398 1825.47 144.083 Q1823.48 146.745 1823.48 151.398 Q1823.48 156.051 1825.45 158.736 Q1827.44 161.398 1830.89 161.398 Q1834.29 161.398 1836.28 158.713 Q1838.27 156.027 1838.27 151.398 Q1838.27 146.791 1836.28 144.106 Q1834.29 141.398 1830.89 141.398 M1830.89 137.787 Q1836.44 137.787 1839.61 141.398 Q1842.78 145.009 1842.78 151.398 Q1842.78 157.764 1839.61 161.398 Q1836.44 165.009 1830.89 165.009 Q1825.31 165.009 1822.14 161.398 Q1818.99 157.764 1818.99 151.398 Q1818.99 145.009 1822.14 141.398 Q1825.31 137.787 1830.89 137.787 Z" fill="#000000" fill-rule="nonzero" fill-opacity="1"></path><path clip-path="url(#clip170)" d="M1871.4 148.689 L1871.4 164.338 L1867.14 164.338 L1867.14 148.828 Q1867.14 145.148 1865.7 143.319 Q1864.27 141.49 1861.4 141.49 Q1857.95 141.49 1855.96 143.69 Q1853.96 145.889 1853.96 149.685 L1853.96 164.338 L1849.68 164.338 L1849.68 138.412 L1853.96 138.412 L1853.96 142.44 Q1855.49 140.102 1857.55 138.944 Q1859.64 137.787 1862.34 137.787 Q1866.81 137.787 1869.1 140.565 Q1871.4 143.319 1871.4 148.689 Z" fill="#000000" fill-rule="nonzero" fill-opacity="1"></path><path clip-path="url(#clip170)" d="M1896.42 139.176 L1896.42 143.203 Q1894.61 142.277 1892.67 141.815 Q1890.72 141.352 1888.64 141.352 Q1885.47 141.352 1883.87 142.324 Q1882.3 143.296 1882.3 145.24 Q1882.3 146.722 1883.43 147.578 Q1884.57 148.412 1887.99 149.176 L1889.45 149.5 Q1893.99 150.472 1895.89 152.254 Q1897.81 154.014 1897.81 157.185 Q1897.81 160.796 1894.94 162.902 Q1892.09 165.009 1887.09 165.009 Q1885.01 165.009 1882.74 164.592 Q1880.49 164.199 1877.99 163.388 L1877.99 158.99 Q1880.35 160.217 1882.65 160.842 Q1884.94 161.444 1887.18 161.444 Q1890.19 161.444 1891.81 160.426 Q1893.43 159.384 1893.43 157.509 Q1893.43 155.773 1892.25 154.847 Q1891.09 153.921 1887.14 153.064 L1885.65 152.717 Q1881.7 151.884 1879.94 150.171 Q1878.18 148.435 1878.18 145.426 Q1878.18 141.768 1880.77 139.778 Q1883.36 137.787 1888.13 137.787 Q1890.49 137.787 1892.58 138.134 Q1894.66 138.481 1896.42 139.176 Z" fill="#000000" fill-rule="nonzero" fill-opacity="1"></path><path clip-path="url(#clip170)" d="M1908.8 131.051 L1908.8 138.412 L1917.58 138.412 L1917.58 141.722 L1908.8 141.722 L1908.8 155.796 Q1908.8 158.967 1909.66 159.87 Q1910.54 160.773 1913.2 160.773 L1917.58 160.773 L1917.58 164.338 L1913.2 164.338 Q1908.27 164.338 1906.4 162.509 Q1904.52 160.657 1904.52 155.796 L1904.52 141.722 L1901.4 141.722 L1901.4 138.412 L1904.52 138.412 L1904.52 131.051 L1908.8 131.051 Z" fill="#000000" fill-rule="nonzero" fill-opacity="1"></path><path clip-path="url(#clip170)" d="M1938.2 142.393 Q1937.48 141.977 1936.63 141.791 Q1935.79 141.583 1934.77 141.583 Q1931.16 141.583 1929.22 143.944 Q1927.3 146.282 1927.3 150.68 L1927.3 164.338 L1923.02 164.338 L1923.02 138.412 L1927.3 138.412 L1927.3 142.44 Q1928.64 140.078 1930.79 138.944 Q1932.95 137.787 1936.02 137.787 Q1936.46 137.787 1937 137.856 Q1937.53 137.903 1938.18 138.018 L1938.2 142.393 Z" fill="#000000" fill-rule="nonzero" fill-opacity="1"></path><path clip-path="url(#clip170)" d="M1954.45 151.305 Q1949.29 151.305 1947.3 152.486 Q1945.31 153.666 1945.31 156.514 Q1945.31 158.782 1946.79 160.125 Q1948.29 161.444 1950.86 161.444 Q1954.4 161.444 1956.53 158.944 Q1958.69 156.421 1958.69 152.254 L1958.69 151.305 L1954.45 151.305 M1962.95 149.546 L1962.95 164.338 L1958.69 164.338 L1958.69 160.402 Q1957.23 162.763 1955.05 163.898 Q1952.88 165.009 1949.73 165.009 Q1945.75 165.009 1943.39 162.787 Q1941.05 160.541 1941.05 156.791 Q1941.05 152.416 1943.96 150.194 Q1946.9 147.972 1952.71 147.972 L1958.69 147.972 L1958.69 147.555 Q1958.69 144.615 1956.74 143.018 Q1954.82 141.398 1951.33 141.398 Q1949.1 141.398 1947 141.93 Q1944.89 142.463 1942.95 143.527 L1942.95 139.592 Q1945.28 138.69 1947.48 138.25 Q1949.68 137.787 1951.77 137.787 Q1957.39 137.787 1960.17 140.703 Q1962.95 143.62 1962.95 149.546 Z" fill="#000000" fill-rule="nonzero" fill-opacity="1"></path><path clip-path="url(#clip170)" d="M1971.72 138.412 L1975.98 138.412 L1975.98 164.338 L1971.72 164.338 L1971.72 138.412 M1971.72 128.319 L1975.98 128.319 L1975.98 133.713 L1971.72 133.713 L1971.72 128.319 Z" fill="#000000" fill-rule="nonzero" fill-opacity="1"></path><path clip-path="url(#clip170)" d="M2006.44 148.689 L2006.44 164.338 L2002.18 164.338 L2002.18 148.828 Q2002.18 145.148 2000.75 143.319 Q1999.31 141.49 1996.44 141.49 Q1992.99 141.49 1991 143.69 Q1989.01 145.889 1989.01 149.685 L1989.01 164.338 L1984.73 164.338 L1984.73 138.412 L1989.01 138.412 L1989.01 142.44 Q1990.54 140.102 1992.6 138.944 Q1994.68 137.787 1997.39 137.787 Q2001.86 137.787 2004.15 140.565 Q2006.44 143.319 2006.44 148.689 Z" fill="#000000" fill-rule="nonzero" fill-opacity="1"></path><path clip-path="url(#clip170)" d="M2019.15 131.051 L2019.15 138.412 L2027.92 138.412 L2027.92 141.722 L2019.15 141.722 L2019.15 155.796 Q2019.15 158.967 2020.01 159.87 Q2020.89 160.773 2023.55 160.773 L2027.92 160.773 L2027.92 164.338 L2023.55 164.338 Q2018.62 164.338 2016.74 162.509 Q2014.87 160.657 2014.87 155.796 L2014.87 141.722 L2011.74 141.722 L2011.74 138.412 L2014.87 138.412 L2014.87 131.051 L2019.15 131.051 Z" fill="#000000" fill-rule="nonzero" fill-opacity="1"></path><polyline clip-path="url(#clip170)" style="stroke:#e26f46; stroke-linecap:round; stroke-linejoin:round; stroke-width:4; stroke-opacity:1; fill:none" points="1423.17,198.898 1568.1,198.898 "></polyline>
<path clip-path="url(#clip170)" d="M1592.25 181.618 L1596.95 181.618 L1596.95 202.613 Q1596.95 208.168 1598.97 210.622 Q1600.98 213.053 1605.49 213.053 Q1609.98 213.053 1612 210.622 Q1614.01 208.168 1614.01 202.613 L1614.01 181.618 L1618.71 181.618 L1618.71 203.192 Q1618.71 209.951 1615.36 213.4 Q1612.02 216.849 1605.49 216.849 Q1598.94 216.849 1595.59 213.4 Q1592.25 209.951 1592.25 203.192 L1592.25 181.618 Z" fill="#000000" fill-rule="nonzero" fill-opacity="1"></path><path clip-path="url(#clip170)" d="M1648.85 200.529 L1648.85 216.178 L1644.59 216.178 L1644.59 200.668 Q1644.59 196.988 1643.16 195.159 Q1641.72 193.33 1638.85 193.33 Q1635.4 193.33 1633.41 195.53 Q1631.42 197.729 1631.42 201.525 L1631.42 216.178 L1627.14 216.178 L1627.14 190.252 L1631.42 190.252 L1631.42 194.28 Q1632.95 191.942 1635.01 190.784 Q1637.09 189.627 1639.8 189.627 Q1644.27 189.627 1646.56 192.405 Q1648.85 195.159 1648.85 200.529 Z" fill="#000000" fill-rule="nonzero" fill-opacity="1"></path><path clip-path="url(#clip170)" d="M1657.35 190.252 L1661.6 190.252 L1661.6 216.178 L1657.35 216.178 L1657.35 190.252 M1657.35 180.159 L1661.6 180.159 L1661.6 185.553 L1657.35 185.553 L1657.35 180.159 Z" fill="#000000" fill-rule="nonzero" fill-opacity="1"></path><path clip-path="url(#clip170)" d="M1683.64 180.159 L1683.64 183.701 L1679.57 183.701 Q1677.28 183.701 1676.37 184.627 Q1675.49 185.553 1675.49 187.96 L1675.49 190.252 L1682.51 190.252 L1682.51 193.562 L1675.49 193.562 L1675.49 216.178 L1671.21 216.178 L1671.21 193.562 L1667.14 193.562 L1667.14 190.252 L1671.21 190.252 L1671.21 188.446 Q1671.21 184.118 1673.23 182.15 Q1675.24 180.159 1679.61 180.159 L1683.64 180.159 Z" fill="#000000" fill-rule="nonzero" fill-opacity="1"></path><path clip-path="url(#clip170)" d="M1697.25 193.238 Q1693.83 193.238 1691.84 195.923 Q1689.85 198.585 1689.85 203.238 Q1689.85 207.891 1691.81 210.576 Q1693.8 213.238 1697.25 213.238 Q1700.66 213.238 1702.65 210.553 Q1704.64 207.867 1704.64 203.238 Q1704.64 198.631 1702.65 195.946 Q1700.66 193.238 1697.25 193.238 M1697.25 189.627 Q1702.81 189.627 1705.98 193.238 Q1709.15 196.849 1709.15 203.238 Q1709.15 209.604 1705.98 213.238 Q1702.81 216.849 1697.25 216.849 Q1691.67 216.849 1688.5 213.238 Q1685.35 209.604 1685.35 203.238 Q1685.35 196.849 1688.5 193.238 Q1691.67 189.627 1697.25 189.627 Z" fill="#000000" fill-rule="nonzero" fill-opacity="1"></path><path clip-path="url(#clip170)" d="M1731.23 194.233 Q1730.52 193.817 1729.66 193.631 Q1728.83 193.423 1727.81 193.423 Q1724.2 193.423 1722.25 195.784 Q1720.33 198.122 1720.33 202.52 L1720.33 216.178 L1716.05 216.178 L1716.05 190.252 L1720.33 190.252 L1720.33 194.28 Q1721.67 191.918 1723.83 190.784 Q1725.98 189.627 1729.06 189.627 Q1729.5 189.627 1730.03 189.696 Q1730.56 189.743 1731.21 189.858 L1731.23 194.233 Z" fill="#000000" fill-rule="nonzero" fill-opacity="1"></path><path clip-path="url(#clip170)" d="M1755.05 195.229 Q1756.65 192.358 1758.87 190.993 Q1761.09 189.627 1764.1 189.627 Q1768.16 189.627 1770.35 192.474 Q1772.55 195.298 1772.55 200.529 L1772.55 216.178 L1768.27 216.178 L1768.27 200.668 Q1768.27 196.942 1766.95 195.136 Q1765.63 193.33 1762.92 193.33 Q1759.61 193.33 1757.69 195.53 Q1755.77 197.729 1755.77 201.525 L1755.77 216.178 L1751.49 216.178 L1751.49 200.668 Q1751.49 196.918 1750.17 195.136 Q1748.85 193.33 1746.1 193.33 Q1742.83 193.33 1740.91 195.553 Q1738.99 197.752 1738.99 201.525 L1738.99 216.178 L1734.71 216.178 L1734.71 190.252 L1738.99 190.252 L1738.99 194.28 Q1740.45 191.895 1742.48 190.761 Q1744.52 189.627 1747.32 189.627 Q1750.15 189.627 1752.11 191.062 Q1754.1 192.497 1755.05 195.229 Z" fill="#000000" fill-rule="nonzero" fill-opacity="1"></path><path clip-path="url(#clip170)" d="M1800.24 212.289 L1800.24 226.039 L1795.96 226.039 L1795.96 190.252 L1800.24 190.252 L1800.24 194.187 Q1801.58 191.872 1803.62 190.761 Q1805.68 189.627 1808.53 189.627 Q1813.25 189.627 1816.19 193.377 Q1819.15 197.127 1819.15 203.238 Q1819.15 209.349 1816.19 213.099 Q1813.25 216.849 1808.53 216.849 Q1805.68 216.849 1803.62 215.738 Q1801.58 214.603 1800.24 212.289 M1814.73 203.238 Q1814.73 198.539 1812.78 195.877 Q1810.86 193.192 1807.48 193.192 Q1804.1 193.192 1802.16 195.877 Q1800.24 198.539 1800.24 203.238 Q1800.24 207.937 1802.16 210.622 Q1804.1 213.284 1807.48 213.284 Q1810.86 213.284 1812.78 210.622 Q1814.73 207.937 1814.73 203.238 Z" fill="#000000" fill-rule="nonzero" fill-opacity="1"></path><path clip-path="url(#clip170)" d="M1841.23 194.233 Q1840.52 193.817 1839.66 193.631 Q1838.83 193.423 1837.81 193.423 Q1834.2 193.423 1832.25 195.784 Q1830.33 198.122 1830.33 202.52 L1830.33 216.178 L1826.05 216.178 L1826.05 190.252 L1830.33 190.252 L1830.33 194.28 Q1831.67 191.918 1833.83 190.784 Q1835.98 189.627 1839.06 189.627 Q1839.5 189.627 1840.03 189.696 Q1840.56 189.743 1841.21 189.858 L1841.23 194.233 Z" fill="#000000" fill-rule="nonzero" fill-opacity="1"></path><path clip-path="url(#clip170)" d="M1866.84 202.15 L1866.84 204.233 L1847.25 204.233 Q1847.53 208.631 1849.89 210.946 Q1852.28 213.238 1856.51 213.238 Q1858.96 213.238 1861.26 212.636 Q1863.57 212.034 1865.84 210.83 L1865.84 214.858 Q1863.55 215.83 1861.14 216.34 Q1858.73 216.849 1856.26 216.849 Q1850.05 216.849 1846.42 213.238 Q1842.81 209.627 1842.81 203.469 Q1842.81 197.104 1846.23 193.377 Q1849.68 189.627 1855.52 189.627 Q1860.75 189.627 1863.78 193.006 Q1866.84 196.363 1866.84 202.15 M1862.58 200.9 Q1862.53 197.405 1860.61 195.321 Q1858.71 193.238 1855.56 193.238 Q1852 193.238 1849.84 195.252 Q1847.71 197.266 1847.39 200.923 L1862.58 200.9 Z" fill="#000000" fill-rule="nonzero" fill-opacity="1"></path><path clip-path="url(#clip170)" d="M1890.35 191.016 L1890.35 195.043 Q1888.55 194.117 1886.6 193.655 Q1884.66 193.192 1882.58 193.192 Q1879.4 193.192 1877.81 194.164 Q1876.23 195.136 1876.23 197.08 Q1876.23 198.562 1877.37 199.418 Q1878.5 200.252 1881.93 201.016 L1883.39 201.34 Q1887.92 202.312 1889.82 204.094 Q1891.74 205.854 1891.74 209.025 Q1891.74 212.636 1888.87 214.742 Q1886.02 216.849 1881.02 216.849 Q1878.94 216.849 1876.67 216.432 Q1874.43 216.039 1871.93 215.228 L1871.93 210.83 Q1874.29 212.057 1876.58 212.682 Q1878.87 213.284 1881.12 213.284 Q1884.13 213.284 1885.75 212.266 Q1887.37 211.224 1887.37 209.349 Q1887.37 207.613 1886.19 206.687 Q1885.03 205.761 1881.07 204.904 L1879.59 204.557 Q1875.63 203.724 1873.87 202.011 Q1872.11 200.275 1872.11 197.266 Q1872.11 193.608 1874.71 191.618 Q1877.3 189.627 1882.07 189.627 Q1884.43 189.627 1886.51 189.974 Q1888.59 190.321 1890.35 191.016 Z" fill="#000000" fill-rule="nonzero" fill-opacity="1"></path><path clip-path="url(#clip170)" d="M1915.05 191.016 L1915.05 195.043 Q1913.25 194.117 1911.3 193.655 Q1909.36 193.192 1907.27 193.192 Q1904.1 193.192 1902.51 194.164 Q1900.93 195.136 1900.93 197.08 Q1900.93 198.562 1902.07 199.418 Q1903.2 200.252 1906.63 201.016 L1908.08 201.34 Q1912.62 202.312 1914.52 204.094 Q1916.44 205.854 1916.44 209.025 Q1916.44 212.636 1913.57 214.742 Q1910.72 216.849 1905.72 216.849 Q1903.64 216.849 1901.37 216.432 Q1899.13 216.039 1896.63 215.228 L1896.63 210.83 Q1898.99 212.057 1901.28 212.682 Q1903.57 213.284 1905.82 213.284 Q1908.83 213.284 1910.45 212.266 Q1912.07 211.224 1912.07 209.349 Q1912.07 207.613 1910.89 206.687 Q1909.73 205.761 1905.77 204.904 L1904.29 204.557 Q1900.33 203.724 1898.57 202.011 Q1896.81 200.275 1896.81 197.266 Q1896.81 193.608 1899.4 191.618 Q1902 189.627 1906.77 189.627 Q1909.13 189.627 1911.21 189.974 Q1913.29 190.321 1915.05 191.016 Z" fill="#000000" fill-rule="nonzero" fill-opacity="1"></path><path clip-path="url(#clip170)" d="M1922.78 205.946 L1922.78 190.252 L1927.04 190.252 L1927.04 205.784 Q1927.04 209.465 1928.48 211.316 Q1929.91 213.145 1932.78 213.145 Q1936.23 213.145 1938.22 210.946 Q1940.24 208.747 1940.24 204.951 L1940.24 190.252 L1944.5 190.252 L1944.5 216.178 L1940.24 216.178 L1940.24 212.196 Q1938.69 214.557 1936.63 215.715 Q1934.59 216.849 1931.88 216.849 Q1927.41 216.849 1925.1 214.071 Q1922.78 211.293 1922.78 205.946 M1933.5 189.627 L1933.5 189.627 Z" fill="#000000" fill-rule="nonzero" fill-opacity="1"></path><path clip-path="url(#clip170)" d="M1968.29 194.233 Q1967.58 193.817 1966.72 193.631 Q1965.89 193.423 1964.87 193.423 Q1961.26 193.423 1959.31 195.784 Q1957.39 198.122 1957.39 202.52 L1957.39 216.178 L1953.11 216.178 L1953.11 190.252 L1957.39 190.252 L1957.39 194.28 Q1958.73 191.918 1960.89 190.784 Q1963.04 189.627 1966.12 189.627 Q1966.56 189.627 1967.09 189.696 Q1967.62 189.743 1968.27 189.858 L1968.29 194.233 Z" fill="#000000" fill-rule="nonzero" fill-opacity="1"></path><path clip-path="url(#clip170)" d="M1993.89 202.15 L1993.89 204.233 L1974.31 204.233 Q1974.59 208.631 1976.95 210.946 Q1979.33 213.238 1983.57 213.238 Q1986.02 213.238 1988.32 212.636 Q1990.63 212.034 1992.9 210.83 L1992.9 214.858 Q1990.61 215.83 1988.2 216.34 Q1985.79 216.849 1983.32 216.849 Q1977.11 216.849 1973.48 213.238 Q1969.87 209.627 1969.87 203.469 Q1969.87 197.104 1973.29 193.377 Q1976.74 189.627 1982.58 189.627 Q1987.81 189.627 1990.84 193.006 Q1993.89 196.363 1993.89 202.15 M1989.64 200.9 Q1989.59 197.405 1987.67 195.321 Q1985.77 193.238 1982.62 193.238 Q1979.06 193.238 1976.9 195.252 Q1974.77 197.266 1974.45 200.923 L1989.64 200.9 Z" fill="#000000" fill-rule="nonzero" fill-opacity="1"></path><path clip-path="url(#clip170)" d="M2042.02 184.28 L2042.02 189.21 Q2039.66 187.011 2036.97 185.923 Q2034.31 184.835 2031.3 184.835 Q2025.38 184.835 2022.23 188.469 Q2019.08 192.08 2019.08 198.932 Q2019.08 205.761 2022.23 209.395 Q2025.38 213.006 2031.3 213.006 Q2034.31 213.006 2036.97 211.918 Q2039.66 210.83 2042.02 208.631 L2042.02 213.516 Q2039.57 215.182 2036.81 216.016 Q2034.08 216.849 2031.02 216.849 Q2023.18 216.849 2018.66 212.057 Q2014.15 207.242 2014.15 198.932 Q2014.15 190.599 2018.66 185.807 Q2023.18 180.993 2031.02 180.993 Q2034.13 180.993 2036.86 181.826 Q2039.61 182.636 2042.02 184.28 Z" fill="#000000" fill-rule="nonzero" fill-opacity="1"></path><path clip-path="url(#clip170)" d="M2059.1 193.238 Q2055.68 193.238 2053.69 195.923 Q2051.7 198.585 2051.7 203.238 Q2051.7 207.891 2053.66 210.576 Q2055.65 213.238 2059.1 213.238 Q2062.51 213.238 2064.5 210.553 Q2066.49 207.867 2066.49 203.238 Q2066.49 198.631 2064.5 195.946 Q2062.51 193.238 2059.1 193.238 M2059.1 189.627 Q2064.66 189.627 2067.83 193.238 Q2071 196.849 2071 203.238 Q2071 209.604 2067.83 213.238 Q2064.66 216.849 2059.1 216.849 Q2053.52 216.849 2050.35 213.238 Q2047.2 209.604 2047.2 203.238 Q2047.2 196.849 2050.35 193.238 Q2053.52 189.627 2059.1 189.627 Z" fill="#000000" fill-rule="nonzero" fill-opacity="1"></path><path clip-path="url(#clip170)" d="M2099.61 200.529 L2099.61 216.178 L2095.35 216.178 L2095.35 200.668 Q2095.35 196.988 2093.92 195.159 Q2092.48 193.33 2089.61 193.33 Q2086.16 193.33 2084.17 195.53 Q2082.18 197.729 2082.18 201.525 L2082.18 216.178 L2077.9 216.178 L2077.9 190.252 L2082.18 190.252 L2082.18 194.28 Q2083.71 191.942 2085.77 190.784 Q2087.85 189.627 2090.56 189.627 Q2095.03 189.627 2097.32 192.405 Q2099.61 195.159 2099.61 200.529 Z" fill="#000000" fill-rule="nonzero" fill-opacity="1"></path><path clip-path="url(#clip170)" d="M2124.63 191.016 L2124.63 195.043 Q2122.83 194.117 2120.88 193.655 Q2118.94 193.192 2116.86 193.192 Q2113.69 193.192 2112.09 194.164 Q2110.51 195.136 2110.51 197.08 Q2110.51 198.562 2111.65 199.418 Q2112.78 200.252 2116.21 201.016 L2117.67 201.34 Q2122.2 202.312 2124.1 204.094 Q2126.02 205.854 2126.02 209.025 Q2126.02 212.636 2123.15 214.742 Q2120.31 216.849 2115.31 216.849 Q2113.22 216.849 2110.95 216.432 Q2108.71 216.039 2106.21 215.228 L2106.21 210.83 Q2108.57 212.057 2110.86 212.682 Q2113.15 213.284 2115.4 213.284 Q2118.41 213.284 2120.03 212.266 Q2121.65 211.224 2121.65 209.349 Q2121.65 207.613 2120.47 206.687 Q2119.31 205.761 2115.35 204.904 L2113.87 204.557 Q2109.91 203.724 2108.15 202.011 Q2106.39 200.275 2106.39 197.266 Q2106.39 193.608 2108.99 191.618 Q2111.58 189.627 2116.35 189.627 Q2118.71 189.627 2120.79 189.974 Q2122.88 190.321 2124.63 191.016 Z" fill="#000000" fill-rule="nonzero" fill-opacity="1"></path><path clip-path="url(#clip170)" d="M2137.02 182.891 L2137.02 190.252 L2145.79 190.252 L2145.79 193.562 L2137.02 193.562 L2137.02 207.636 Q2137.02 210.807 2137.88 211.71 Q2138.75 212.613 2141.42 212.613 L2145.79 212.613 L2145.79 216.178 L2141.42 216.178 Q2136.49 216.178 2134.61 214.349 Q2132.74 212.497 2132.74 207.636 L2132.74 193.562 L2129.61 193.562 L2129.61 190.252 L2132.74 190.252 L2132.74 182.891 L2137.02 182.891 Z" fill="#000000" fill-rule="nonzero" fill-opacity="1"></path><path clip-path="url(#clip170)" d="M2166.42 194.233 Q2165.7 193.817 2164.84 193.631 Q2164.01 193.423 2162.99 193.423 Q2159.38 193.423 2157.44 195.784 Q2155.51 198.122 2155.51 202.52 L2155.51 216.178 L2151.23 216.178 L2151.23 190.252 L2155.51 190.252 L2155.51 194.28 Q2156.86 191.918 2159.01 190.784 Q2161.16 189.627 2164.24 189.627 Q2164.68 189.627 2165.21 189.696 Q2165.75 189.743 2166.39 189.858 L2166.42 194.233 Z" fill="#000000" fill-rule="nonzero" fill-opacity="1"></path><path clip-path="url(#clip170)" d="M2182.67 203.145 Q2177.5 203.145 2175.51 204.326 Q2173.52 205.506 2173.52 208.354 Q2173.52 210.622 2175 211.965 Q2176.51 213.284 2179.08 213.284 Q2182.62 213.284 2184.75 210.784 Q2186.9 208.261 2186.9 204.094 L2186.9 203.145 L2182.67 203.145 M2191.16 201.386 L2191.16 216.178 L2186.9 216.178 L2186.9 212.242 Q2185.44 214.603 2183.27 215.738 Q2181.09 216.849 2177.94 216.849 Q2173.96 216.849 2171.6 214.627 Q2169.26 212.381 2169.26 208.631 Q2169.26 204.256 2172.18 202.034 Q2175.12 199.812 2180.93 199.812 L2186.9 199.812 L2186.9 199.395 Q2186.9 196.455 2184.96 194.858 Q2183.04 193.238 2179.54 193.238 Q2177.32 193.238 2175.21 193.77 Q2173.11 194.303 2171.16 195.367 L2171.16 191.432 Q2173.5 190.53 2175.7 190.09 Q2177.9 189.627 2179.98 189.627 Q2185.61 189.627 2188.38 192.543 Q2191.16 195.46 2191.16 201.386 Z" fill="#000000" fill-rule="nonzero" fill-opacity="1"></path><path clip-path="url(#clip170)" d="M2199.94 190.252 L2204.19 190.252 L2204.19 216.178 L2199.94 216.178 L2199.94 190.252 M2199.94 180.159 L2204.19 180.159 L2204.19 185.553 L2199.94 185.553 L2199.94 180.159 Z" fill="#000000" fill-rule="nonzero" fill-opacity="1"></path><path clip-path="url(#clip170)" d="M2234.66 200.529 L2234.66 216.178 L2230.4 216.178 L2230.4 200.668 Q2230.4 196.988 2228.96 195.159 Q2227.53 193.33 2224.66 193.33 Q2221.21 193.33 2219.22 195.53 Q2217.23 197.729 2217.23 201.525 L2217.23 216.178 L2212.94 216.178 L2212.94 190.252 L2217.23 190.252 L2217.23 194.28 Q2218.75 191.942 2220.81 190.784 Q2222.9 189.627 2225.61 189.627 Q2230.07 189.627 2232.37 192.405 Q2234.66 195.159 2234.66 200.529 Z" fill="#000000" fill-rule="nonzero" fill-opacity="1"></path><path clip-path="url(#clip170)" d="M2247.37 182.891 L2247.37 190.252 L2256.14 190.252 L2256.14 193.562 L2247.37 193.562 L2247.37 207.636 Q2247.37 210.807 2248.22 211.71 Q2249.1 212.613 2251.76 212.613 L2256.14 212.613 L2256.14 216.178 L2251.76 216.178 Q2246.83 216.178 2244.96 214.349 Q2243.08 212.497 2243.08 207.636 L2243.08 193.562 L2239.96 193.562 L2239.96 190.252 L2243.08 190.252 L2243.08 182.891 L2247.37 182.891 Z" fill="#000000" fill-rule="nonzero" fill-opacity="1"></path><polyline clip-path="url(#clip170)" style="stroke:#3da44d; stroke-linecap:round; stroke-linejoin:round; stroke-width:4; stroke-opacity:1; fill:none" points="1423.17,250.738 1568.1,250.738 "></polyline>
<path clip-path="url(#clip170)" d="M1608.27 236.629 Q1603.18 236.629 1600.17 240.425 Q1597.18 244.221 1597.18 250.772 Q1597.18 257.3 1600.17 261.096 Q1603.18 264.893 1608.27 264.893 Q1613.36 264.893 1616.33 261.096 Q1619.31 257.3 1619.31 250.772 Q1619.31 244.221 1616.33 240.425 Q1613.36 236.629 1608.27 236.629 M1608.27 232.833 Q1615.54 232.833 1619.89 237.717 Q1624.24 242.578 1624.24 250.772 Q1624.24 258.944 1619.89 263.828 Q1615.54 268.689 1608.27 268.689 Q1600.98 268.689 1596.61 263.828 Q1592.25 258.967 1592.25 250.772 Q1592.25 242.578 1596.61 237.717 Q1600.98 232.833 1608.27 232.833 Z" fill="#000000" fill-rule="nonzero" fill-opacity="1"></path><path clip-path="url(#clip170)" d="M1649.98 255.078 Q1649.98 250.379 1648.04 247.717 Q1646.12 245.032 1642.74 245.032 Q1639.36 245.032 1637.42 247.717 Q1635.49 250.379 1635.49 255.078 Q1635.49 259.777 1637.42 262.462 Q1639.36 265.124 1642.74 265.124 Q1646.12 265.124 1648.04 262.462 Q1649.98 259.777 1649.98 255.078 M1635.49 246.027 Q1636.84 243.712 1638.87 242.601 Q1640.93 241.467 1643.78 241.467 Q1648.5 241.467 1651.44 245.217 Q1654.41 248.967 1654.41 255.078 Q1654.41 261.189 1651.44 264.939 Q1648.5 268.689 1643.78 268.689 Q1640.93 268.689 1638.87 267.578 Q1636.84 266.443 1635.49 264.129 L1635.49 268.018 L1631.21 268.018 L1631.21 231.999 L1635.49 231.999 L1635.49 246.027 Z" fill="#000000" fill-rule="nonzero" fill-opacity="1"></path><path clip-path="url(#clip170)" d="M1661.47 242.092 L1665.73 242.092 L1665.73 268.481 Q1665.73 273.434 1663.83 275.656 Q1661.95 277.879 1657.76 277.879 L1656.14 277.879 L1656.14 274.268 L1657.28 274.268 Q1659.71 274.268 1660.59 273.133 Q1661.47 272.022 1661.47 268.481 L1661.47 242.092 M1661.47 231.999 L1665.73 231.999 L1665.73 237.393 L1661.47 237.393 L1661.47 231.999 Z" fill="#000000" fill-rule="nonzero" fill-opacity="1"></path><path clip-path="url(#clip170)" d="M1696.81 253.99 L1696.81 256.073 L1677.23 256.073 Q1677.51 260.471 1679.87 262.786 Q1682.25 265.078 1686.49 265.078 Q1688.94 265.078 1691.23 264.476 Q1693.55 263.874 1695.82 262.67 L1695.82 266.698 Q1693.53 267.67 1691.12 268.18 Q1688.71 268.689 1686.23 268.689 Q1680.03 268.689 1676.4 265.078 Q1672.79 261.467 1672.79 255.309 Q1672.79 248.944 1676.21 245.217 Q1679.66 241.467 1685.49 241.467 Q1690.72 241.467 1693.76 244.846 Q1696.81 248.203 1696.81 253.99 M1692.55 252.74 Q1692.51 249.245 1690.59 247.161 Q1688.69 245.078 1685.54 245.078 Q1681.98 245.078 1679.82 247.092 Q1677.69 249.106 1677.37 252.763 L1692.55 252.74 Z" fill="#000000" fill-rule="nonzero" fill-opacity="1"></path><path clip-path="url(#clip170)" d="M1722.46 243.087 L1722.46 247.069 Q1720.66 246.073 1718.83 245.587 Q1717.02 245.078 1715.17 245.078 Q1711.03 245.078 1708.73 247.717 Q1706.44 250.332 1706.44 255.078 Q1706.44 259.823 1708.73 262.462 Q1711.03 265.078 1715.17 265.078 Q1717.02 265.078 1718.83 264.592 Q1720.66 264.082 1722.46 263.087 L1722.46 267.022 Q1720.68 267.856 1718.76 268.272 Q1716.86 268.689 1714.71 268.689 Q1708.85 268.689 1705.4 265.008 Q1701.95 261.328 1701.95 255.078 Q1701.95 248.735 1705.42 245.101 Q1708.92 241.467 1714.98 241.467 Q1716.95 241.467 1718.83 241.883 Q1720.7 242.277 1722.46 243.087 Z" fill="#000000" fill-rule="nonzero" fill-opacity="1"></path><path clip-path="url(#clip170)" d="M1734.08 234.731 L1734.08 242.092 L1742.85 242.092 L1742.85 245.402 L1734.08 245.402 L1734.08 259.476 Q1734.08 262.647 1734.94 263.55 Q1735.82 264.453 1738.48 264.453 L1742.85 264.453 L1742.85 268.018 L1738.48 268.018 Q1733.55 268.018 1731.67 266.189 Q1729.8 264.337 1729.8 259.476 L1729.8 245.402 L1726.67 245.402 L1726.67 242.092 L1729.8 242.092 L1729.8 234.731 L1734.08 234.731 Z" fill="#000000" fill-rule="nonzero" fill-opacity="1"></path><path clip-path="url(#clip170)" d="M1748.46 242.092 L1752.72 242.092 L1752.72 268.018 L1748.46 268.018 L1748.46 242.092 M1748.46 231.999 L1752.72 231.999 L1752.72 237.393 L1748.46 237.393 L1748.46 231.999 Z" fill="#000000" fill-rule="nonzero" fill-opacity="1"></path><path clip-path="url(#clip170)" d="M1758.57 242.092 L1763.09 242.092 L1771.19 263.851 L1779.29 242.092 L1783.8 242.092 L1774.08 268.018 L1768.29 268.018 L1758.57 242.092 Z" fill="#000000" fill-rule="nonzero" fill-opacity="1"></path><path clip-path="url(#clip170)" d="M1811.86 253.99 L1811.86 256.073 L1792.28 256.073 Q1792.55 260.471 1794.91 262.786 Q1797.3 265.078 1801.53 265.078 Q1803.99 265.078 1806.28 264.476 Q1808.59 263.874 1810.86 262.67 L1810.86 266.698 Q1808.57 267.67 1806.16 268.18 Q1803.76 268.689 1801.28 268.689 Q1795.08 268.689 1791.44 265.078 Q1787.83 261.467 1787.83 255.309 Q1787.83 248.944 1791.26 245.217 Q1794.71 241.467 1800.54 241.467 Q1805.77 241.467 1808.8 244.846 Q1811.86 248.203 1811.86 253.99 M1807.6 252.74 Q1807.55 249.245 1805.63 247.161 Q1803.73 245.078 1800.59 245.078 Q1797.02 245.078 1794.87 247.092 Q1792.74 249.106 1792.41 252.763 L1807.6 252.74 Z" fill="#000000" fill-rule="nonzero" fill-opacity="1"></path></svg>