<svg xmlns="http://www.w3.org/2000/svg" xmlns:xlink="http://www.w3.org/1999/xlink" width="600" height="400" viewBox="0 0 2400 1600">
<defs>
  <clipPath id="clip270">
    <rect x="0" y="0" width="2400" height="1600"></rect>
  </clipPath>
</defs>
<path clip-path="url(#clip270)" d="M0 1600 L2400 1600 L2400 0 L0 0  Z" fill="#ffffff" fill-rule="evenodd" fill-opacity="1"></path>
<defs>
  <clipPath id="clip271">
    <rect x="480" y="0" width="1681" height="1600"></rect>
  </clipPath>
</defs>
<path clip-path="url(#clip270)" d="M178.867 1486.45 L2352.76 1486.45 L2352.76 47.2441 L178.867 47.2441  Z" fill="#ffffff" fill-rule="evenodd" fill-opacity="1"></path>
<defs>
  <clipPath id="clip272">
    <rect x="178" y="47" width="2175" height="1440"></rect>
  </clipPath>
</defs>
<polyline clip-path="url(#clip272)" style="stroke:#000000; stroke-linecap:round; stroke-linejoin:round; stroke-width:2; stroke-opacity:0.1; fill:none" points="234.647,1486.45 234.647,47.2441 "></polyline>
<polyline clip-path="url(#clip272)" style="stroke:#000000; stroke-linecap:round; stroke-linejoin:round; stroke-width:2; stroke-opacity:0.1; fill:none" points="809.112,1486.45 809.112,47.2441 "></polyline>
<polyline clip-path="url(#clip272)" style="stroke:#000000; stroke-linecap:round; stroke-linejoin:round; stroke-width:2; stroke-opacity:0.1; fill:none" points="1383.58,1486.45 1383.58,47.2441 "></polyline>
<polyline clip-path="url(#clip272)" style="stroke:#000000; stroke-linecap:round; stroke-linejoin:round; stroke-width:2; stroke-opacity:0.1; fill:none" points="1958.04,1486.45 1958.04,47.2441 "></polyline>
<polyline clip-path="url(#clip270)" style="stroke:#000000; stroke-linecap:round; stroke-linejoin:round; stroke-width:4; stroke-opacity:1; fill:none" points="178.867,1486.45 2352.76,1486.45 "></polyline>
<polyline clip-path="url(#clip270)" style="stroke:#000000; stroke-linecap:round; stroke-linejoin:round; stroke-width:4; stroke-opacity:1; fill:none" points="234.647,1486.45 234.647,1467.55 "></polyline>
<polyline clip-path="url(#clip270)" style="stroke:#000000; stroke-linecap:round; stroke-linejoin:round; stroke-width:4; stroke-opacity:1; fill:none" points="809.112,1486.45 809.112,1467.55 "></polyline>
<polyline clip-path="url(#clip270)" style="stroke:#000000; stroke-linecap:round; stroke-linejoin:round; stroke-width:4; stroke-opacity:1; fill:none" points="1383.58,1486.45 1383.58,1467.55 "></polyline>
<polyline clip-path="url(#clip270)" style="stroke:#000000; stroke-linecap:round; stroke-linejoin:round; stroke-width:4; stroke-opacity:1; fill:none" points="1958.04,1486.45 1958.04,1467.55 "></polyline>
<path clip-path="url(#clip270)" d="M234.647 1517.37 Q231.036 1517.37 229.207 1520.93 Q227.402 1524.47 227.402 1531.6 Q227.402 1538.71 229.207 1542.27 Q231.036 1545.82 234.647 1545.82 Q238.281 1545.82 240.087 1542.27 Q241.916 1538.71 241.916 1531.6 Q241.916 1524.47 240.087 1520.93 Q238.281 1517.37 234.647 1517.37 M234.647 1513.66 Q240.457 1513.66 243.513 1518.27 Q246.592 1522.85 246.592 1531.6 Q246.592 1540.33 243.513 1544.94 Q240.457 1549.52 234.647 1549.52 Q228.837 1549.52 225.758 1544.94 Q222.703 1540.33 222.703 1531.6 Q222.703 1522.85 225.758 1518.27 Q228.837 1513.66 234.647 1513.66 Z" fill="#000000" fill-rule="nonzero" fill-opacity="1"></path><path clip-path="url(#clip270)" d="M768.719 1544.91 L776.357 1544.91 L776.357 1518.55 L768.047 1520.21 L768.047 1515.95 L776.311 1514.29 L780.987 1514.29 L780.987 1544.91 L788.626 1544.91 L788.626 1548.85 L768.719 1548.85 L768.719 1544.91 Z" fill="#000000" fill-rule="nonzero" fill-opacity="1"></path><path clip-path="url(#clip270)" d="M808.07 1517.37 Q804.459 1517.37 802.63 1520.93 Q800.825 1524.47 800.825 1531.6 Q800.825 1538.71 802.63 1542.27 Q804.459 1545.82 808.07 1545.82 Q811.704 1545.82 813.51 1542.27 Q815.339 1538.71 815.339 1531.6 Q815.339 1524.47 813.51 1520.93 Q811.704 1517.37 808.07 1517.37 M808.07 1513.66 Q813.88 1513.66 816.936 1518.27 Q820.015 1522.85 820.015 1531.6 Q820.015 1540.33 816.936 1544.94 Q813.88 1549.52 808.07 1549.52 Q802.26 1549.52 799.181 1544.94 Q796.126 1540.33 796.126 1531.6 Q796.126 1522.85 799.181 1518.27 Q802.26 1513.66 808.07 1513.66 Z" fill="#000000" fill-rule="nonzero" fill-opacity="1"></path><path clip-path="url(#clip270)" d="M838.232 1517.37 Q834.621 1517.37 832.792 1520.93 Q830.987 1524.47 830.987 1531.6 Q830.987 1538.71 832.792 1542.27 Q834.621 1545.82 838.232 1545.82 Q841.866 1545.82 843.672 1542.27 Q845.501 1538.71 845.501 1531.6 Q845.501 1524.47 843.672 1520.93 Q841.866 1517.37 838.232 1517.37 M838.232 1513.66 Q844.042 1513.66 847.098 1518.27 Q850.176 1522.85 850.176 1531.6 Q850.176 1540.33 847.098 1544.94 Q844.042 1549.52 838.232 1549.52 Q832.422 1549.52 829.343 1544.94 Q826.288 1540.33 826.288 1531.6 Q826.288 1522.85 829.343 1518.27 Q832.422 1513.66 838.232 1513.66 Z" fill="#000000" fill-rule="nonzero" fill-opacity="1"></path><path clip-path="url(#clip270)" d="M1347.27 1544.91 L1363.59 1544.91 L1363.59 1548.85 L1341.64 1548.85 L1341.64 1544.91 Q1344.31 1542.16 1348.89 1537.53 Q1353.5 1532.88 1354.68 1531.53 Q1356.92 1529.01 1357.8 1527.27 Q1358.7 1525.51 1358.7 1523.82 Q1358.7 1521.07 1356.76 1519.33 Q1354.84 1517.6 1351.74 1517.6 Q1349.54 1517.6 1347.08 1518.36 Q1344.65 1519.13 1341.88 1520.68 L1341.88 1515.95 Q1344.7 1514.82 1347.15 1514.24 Q1349.61 1513.66 1351.64 1513.66 Q1357.01 1513.66 1360.21 1516.35 Q1363.4 1519.03 1363.4 1523.52 Q1363.4 1525.65 1362.59 1527.57 Q1361.81 1529.47 1359.7 1532.07 Q1359.12 1532.74 1356.02 1535.95 Q1352.92 1539.15 1347.27 1544.91 Z" fill="#000000" fill-rule="nonzero" fill-opacity="1"></path><path clip-path="url(#clip270)" d="M1383.4 1517.37 Q1379.79 1517.37 1377.96 1520.93 Q1376.16 1524.47 1376.16 1531.6 Q1376.16 1538.71 1377.96 1542.27 Q1379.79 1545.82 1383.4 1545.82 Q1387.04 1545.82 1388.84 1542.27 Q1390.67 1538.71 1390.67 1531.6 Q1390.67 1524.47 1388.84 1520.93 Q1387.04 1517.37 1383.4 1517.37 M1383.4 1513.66 Q1389.21 1513.66 1392.27 1518.27 Q1395.35 1522.85 1395.35 1531.6 Q1395.35 1540.33 1392.27 1544.94 Q1389.21 1549.52 1383.4 1549.52 Q1377.59 1549.52 1374.51 1544.94 Q1371.46 1540.33 1371.46 1531.6 Q1371.46 1522.85 1374.51 1518.27 Q1377.59 1513.66 1383.4 1513.66 Z" fill="#000000" fill-rule="nonzero" fill-opacity="1"></path><path clip-path="url(#clip270)" d="M1413.56 1517.37 Q1409.95 1517.37 1408.13 1520.93 Q1406.32 1524.47 1406.32 1531.6 Q1406.32 1538.71 1408.13 1542.27 Q1409.95 1545.82 1413.56 1545.82 Q1417.2 1545.82 1419 1542.27 Q1420.83 1538.71 1420.83 1531.6 Q1420.83 1524.47 1419 1520.93 Q1417.2 1517.37 1413.56 1517.37 M1413.56 1513.66 Q1419.37 1513.66 1422.43 1518.27 Q1425.51 1522.85 1425.51 1531.6 Q1425.51 1540.33 1422.43 1544.94 Q1419.37 1549.52 1413.56 1549.52 Q1407.75 1549.52 1404.68 1544.94 Q1401.62 1540.33 1401.62 1531.6 Q1401.62 1522.85 1404.68 1518.27 Q1407.75 1513.66 1413.56 1513.66 Z" fill="#000000" fill-rule="nonzero" fill-opacity="1"></path><path clip-path="url(#clip270)" d="M1931.8 1530.21 Q1935.16 1530.93 1937.03 1533.2 Q1938.93 1535.47 1938.93 1538.8 Q1938.93 1543.92 1935.41 1546.72 Q1931.9 1549.52 1925.41 1549.52 Q1923.24 1549.52 1920.92 1549.08 Q1918.63 1548.66 1916.18 1547.81 L1916.18 1543.29 Q1918.12 1544.43 1920.44 1545.01 Q1922.75 1545.58 1925.28 1545.58 Q1929.67 1545.58 1931.96 1543.85 Q1934.28 1542.11 1934.28 1538.8 Q1934.28 1535.75 1932.13 1534.03 Q1930 1532.3 1926.18 1532.3 L1922.15 1532.3 L1922.15 1528.45 L1926.36 1528.45 Q1929.81 1528.45 1931.64 1527.09 Q1933.47 1525.7 1933.47 1523.11 Q1933.47 1520.45 1931.57 1519.03 Q1929.7 1517.6 1926.18 1517.6 Q1924.26 1517.6 1922.06 1518.01 Q1919.86 1518.43 1917.22 1519.31 L1917.22 1515.14 Q1919.88 1514.4 1922.2 1514.03 Q1924.53 1513.66 1926.59 1513.66 Q1931.92 1513.66 1935.02 1516.09 Q1938.12 1518.5 1938.12 1522.62 Q1938.12 1525.49 1936.48 1527.48 Q1934.84 1529.45 1931.8 1530.21 Z" fill="#000000" fill-rule="nonzero" fill-opacity="1"></path><path clip-path="url(#clip270)" d="M1957.8 1517.37 Q1954.19 1517.37 1952.36 1520.93 Q1950.55 1524.47 1950.55 1531.6 Q1950.55 1538.71 1952.36 1542.27 Q1954.19 1545.82 1957.8 1545.82 Q1961.43 1545.82 1963.24 1542.27 Q1965.07 1538.71 1965.07 1531.6 Q1965.07 1524.47 1963.24 1520.93 Q1961.43 1517.37 1957.8 1517.37 M1957.8 1513.66 Q1963.61 1513.66 1966.66 1518.27 Q1969.74 1522.85 1969.74 1531.6 Q1969.74 1540.33 1966.66 1544.94 Q1963.61 1549.52 1957.8 1549.52 Q1951.99 1549.52 1948.91 1544.94 Q1945.85 1540.33 1945.85 1531.6 Q1945.85 1522.85 1948.91 1518.27 Q1951.99 1513.66 1957.8 1513.66 Z" fill="#000000" fill-rule="nonzero" fill-opacity="1"></path><path clip-path="url(#clip270)" d="M1987.96 1517.37 Q1984.35 1517.37 1982.52 1520.93 Q1980.71 1524.47 1980.71 1531.6 Q1980.71 1538.71 1982.52 1542.27 Q1984.35 1545.82 1987.96 1545.82 Q1991.59 1545.82 1993.4 1542.27 Q1995.23 1538.71 1995.23 1531.6 Q1995.23 1524.47 1993.4 1520.93 Q1991.59 1517.37 1987.96 1517.37 M1987.96 1513.66 Q1993.77 1513.66 1996.83 1518.27 Q1999.9 1522.85 1999.9 1531.6 Q1999.9 1540.33 1996.83 1544.94 Q1993.77 1549.52 1987.96 1549.52 Q1982.15 1549.52 1979.07 1544.94 Q1976.02 1540.33 1976.02 1531.6 Q1976.02 1522.85 1979.07 1518.27 Q1982.15 1513.66 1987.96 1513.66 Z" fill="#000000" fill-rule="nonzero" fill-opacity="1"></path><polyline clip-path="url(#clip272)" style="stroke:#000000; stroke-linecap:round; stroke-linejoin:round; stroke-width:2; stroke-opacity:0.1; fill:none" points="178.867,1329.33 2352.76,1329.33 "></polyline>
<polyline clip-path="url(#clip272)" style="stroke:#000000; stroke-linecap:round; stroke-linejoin:round; stroke-width:2; stroke-opacity:0.1; fill:none" points="178.867,910.171 2352.76,910.171 "></polyline>
<polyline clip-path="url(#clip272)" style="stroke:#000000; stroke-linecap:round; stroke-linejoin:round; stroke-width:2; stroke-opacity:0.1; fill:none" points="178.867,491.008 2352.76,491.008 "></polyline>
<polyline clip-path="url(#clip272)" style="stroke:#000000; stroke-linecap:round; stroke-linejoin:round; stroke-width:2; stroke-opacity:0.1; fill:none" points="178.867,71.8451 2352.76,71.8451 "></polyline>
<polyline clip-path="url(#clip270)" style="stroke:#000000; stroke-linecap:round; stroke-linejoin:round; stroke-width:4; stroke-opacity:1; fill:none" points="178.867,1486.45 178.867,47.2441 "></polyline>
<polyline clip-path="url(#clip270)" style="stroke:#000000; stroke-linecap:round; stroke-linejoin:round; stroke-width:4; stroke-opacity:1; fill:none" points="178.867,1329.33 197.764,1329.33 "></polyline>
<polyline clip-path="url(#clip270)" style="stroke:#000000; stroke-linecap:round; stroke-linejoin:round; stroke-width:4; stroke-opacity:1; fill:none" points="178.867,910.171 197.764,910.171 "></polyline>
<polyline clip-path="url(#clip270)" style="stroke:#000000; stroke-linecap:round; stroke-linejoin:round; stroke-width:4; stroke-opacity:1; fill:none" points="178.867,491.008 197.764,491.008 "></polyline>
<polyline clip-path="url(#clip270)" style="stroke:#000000; stroke-linecap:round; stroke-linejoin:round; stroke-width:4; stroke-opacity:1; fill:none" points="178.867,71.8451 197.764,71.8451 "></polyline>
<path clip-path="url(#clip270)" d="M50.9921 1329.79 L80.6679 1329.79 L80.6679 1333.72 L50.9921 1333.72 L50.9921 1329.79 Z" fill="#000000" fill-rule="nonzero" fill-opacity="1"></path><path clip-path="url(#clip270)" d="M91.5706 1342.68 L99.2095 1342.68 L99.2095 1316.31 L90.8993 1317.98 L90.8993 1313.72 L99.1632 1312.05 L103.839 1312.05 L103.839 1342.68 L111.478 1342.68 L111.478 1346.61 L91.5706 1346.61 L91.5706 1342.68 Z" fill="#000000" fill-rule="nonzero" fill-opacity="1"></path><path clip-path="url(#clip270)" d="M130.922 1315.13 Q127.311 1315.13 125.482 1318.7 Q123.677 1322.24 123.677 1329.37 Q123.677 1336.47 125.482 1340.04 Q127.311 1343.58 130.922 1343.58 Q134.556 1343.58 136.362 1340.04 Q138.191 1336.47 138.191 1329.37 Q138.191 1322.24 136.362 1318.7 Q134.556 1315.13 130.922 1315.13 M130.922 1311.43 Q136.732 1311.43 139.788 1316.04 Q142.867 1320.62 142.867 1329.37 Q142.867 1338.1 139.788 1342.7 Q136.732 1347.29 130.922 1347.29 Q125.112 1347.29 122.033 1342.7 Q118.978 1338.1 118.978 1329.37 Q118.978 1320.62 122.033 1316.04 Q125.112 1311.43 130.922 1311.43 Z" fill="#000000" fill-rule="nonzero" fill-opacity="1"></path><path clip-path="url(#clip270)" d="M130.922 895.97 Q127.311 895.97 125.482 899.534 Q123.677 903.076 123.677 910.206 Q123.677 917.312 125.482 920.877 Q127.311 924.418 130.922 924.418 Q134.556 924.418 136.362 920.877 Q138.191 917.312 138.191 910.206 Q138.191 903.076 136.362 899.534 Q134.556 895.97 130.922 895.97 M130.922 892.266 Q136.732 892.266 139.788 896.872 Q142.867 901.456 142.867 910.206 Q142.867 918.932 139.788 923.539 Q136.732 928.122 130.922 928.122 Q125.112 928.122 122.033 923.539 Q118.978 918.932 118.978 910.206 Q118.978 901.456 122.033 896.872 Q125.112 892.266 130.922 892.266 Z" fill="#000000" fill-rule="nonzero" fill-opacity="1"></path><path clip-path="url(#clip270)" d="M91.5706 504.353 L99.2095 504.353 L99.2095 477.987 L90.8993 479.654 L90.8993 475.395 L99.1632 473.728 L103.839 473.728 L103.839 504.353 L111.478 504.353 L111.478 508.288 L91.5706 508.288 L91.5706 504.353 Z" fill="#000000" fill-rule="nonzero" fill-opacity="1"></path><path clip-path="url(#clip270)" d="M130.922 476.807 Q127.311 476.807 125.482 480.371 Q123.677 483.913 123.677 491.043 Q123.677 498.149 125.482 501.714 Q127.311 505.256 130.922 505.256 Q134.556 505.256 136.362 501.714 Q138.191 498.149 138.191 491.043 Q138.191 483.913 136.362 480.371 Q134.556 476.807 130.922 476.807 M130.922 473.103 Q136.732 473.103 139.788 477.709 Q142.867 482.293 142.867 491.043 Q142.867 499.769 139.788 504.376 Q136.732 508.959 130.922 508.959 Q125.112 508.959 122.033 504.376 Q118.978 499.769 118.978 491.043 Q118.978 482.293 122.033 477.709 Q125.112 473.103 130.922 473.103 Z" fill="#000000" fill-rule="nonzero" fill-opacity="1"></path><path clip-path="url(#clip270)" d="M94.7882 85.1899 L111.108 85.1899 L111.108 89.1251 L89.1632 89.1251 L89.1632 85.1899 Q91.8252 82.4353 96.4085 77.8057 Q101.015 73.153 102.196 71.8104 Q104.441 69.2872 105.321 67.5511 Q106.223 65.7919 106.223 64.1021 Q106.223 61.3475 104.279 59.6114 Q102.358 57.8753 99.2558 57.8753 Q97.0567 57.8753 94.603 58.6391 Q92.1725 59.403 89.3947 60.9539 L89.3947 56.2317 Q92.2188 55.0975 94.6724 54.5188 Q97.1261 53.9401 99.1632 53.9401 Q104.534 53.9401 107.728 56.6253 Q110.922 59.3104 110.922 63.8012 Q110.922 65.9308 110.112 67.8521 Q109.325 69.7502 107.219 72.3428 Q106.64 73.0141 103.538 76.2316 Q100.436 79.4261 94.7882 85.1899 Z" fill="#000000" fill-rule="nonzero" fill-opacity="1"></path><path clip-path="url(#clip270)" d="M130.922 57.6438 Q127.311 57.6438 125.482 61.2086 Q123.677 64.7502 123.677 71.8798 Q123.677 78.9863 125.482 82.5511 Q127.311 86.0927 130.922 86.0927 Q134.556 86.0927 136.362 82.5511 Q138.191 78.9863 138.191 71.8798 Q138.191 64.7502 136.362 61.2086 Q134.556 57.6438 130.922 57.6438 M130.922 53.9401 Q136.732 53.9401 139.788 58.5465 Q142.867 63.1299 142.867 71.8798 Q142.867 80.6066 139.788 85.2131 Q136.732 89.7964 130.922 89.7964 Q125.112 89.7964 122.033 85.2131 Q118.978 80.6066 118.978 71.8798 Q118.978 63.1299 122.033 58.5465 Q125.112 53.9401 130.922 53.9401 Z" fill="#000000" fill-rule="nonzero" fill-opacity="1"></path><polyline clip-path="url(#clip272)" style="stroke:#009af9; stroke-linecap:round; stroke-linejoin:round; stroke-width:4; stroke-opacity:1; fill:none" points="240.392,1358.63 246.136,1299.88 251.881,1230.86 257.626,1159.97 263.37,1082.91 269.115,997.824 274.86,993.016 280.604,988.127 286.349,1068.33 292.094,987.815 297.838,1067.89 303.583,988.774 309.328,1023.66 315.072,991.72 320.817,1017.38 326.562,992.843 332.306,989.724 338.051,988.477 343.795,987.899 349.54,1013.56 355.285,1023.55 361.029,1010.9 366.774,967.782 372.519,906.824 378.263,873.598 384.008,867.426 389.753,870.728 395.497,853.781 401.242,870.353 406.987,916.746 412.731,879.501 418.476,923.958 424.221,895.482 429.965,936.516 435.71,910.895 441.454,941.875 447.199,925.885 452.944,924.765 458.688,922.15 464.433,914.842 470.178,922.165 475.922,916.879 481.667,931.231 487.412,925.203 493.156,919.198 498.901,918.957 504.646,920.778 510.39,915.149 516.135,923.136 521.879,920.8 527.624,917.072 533.369,917.238 539.113,917.113 544.858,915.949 550.603,915.475 556.347,915.51 562.092,914.528 567.837,915.405 573.581,945.631 579.326,956.477 585.071,945.263 590.815,948.522 596.56,965.171 602.305,912.676 608.049,892.658 613.794,903.234 619.538,904.996 625.283,889.099 631.028,931.714 636.772,930.796 642.517,942.006 648.262,930.496 654.006,947.141 659.751,938.571 665.496,939.625 671.24,934.764 676.985,929.653 682.73,960.891 688.474,969.608 694.219,965.676 699.964,939.645 705.708,934.235 711.453,916.321 717.197,893.183 722.942,860.963 728.687,860.857 734.431,901.244 740.176,891.841 745.921,906.813 751.665,895.809 757.41,899.891 763.155,905.943 768.899,883.361 774.644,915.676 780.389,941.71 786.133,912.247 791.878,950.945 797.623,938.825 803.367,921.151 809.112,900.743 814.856,871.676 820.601,866.91 826.346,890.69 832.09,905.457 837.835,881.096 843.58,916.981 849.324,950.076 855.069,939.505 860.814,914.913 866.558,913.257 872.303,909.413 878.048,926.992 883.792,939.941 889.537,924.469 895.282,943.991 901.026,947.829 906.771,945.09 912.515,943.018 918.26,944.389 924.005,942.228 929.749,941.685 935.494,939.281 941.239,936.352 946.983,934.319 952.728,931.876 958.473,929.94 964.217,927.607 969.962,924.913 975.707,929.264 981.451,943.89 987.196,932.925 992.941,946.84 998.685,946.693 1004.43,939.946 1010.17,942.258 1015.92,981.822 1021.66,960.432 1027.41,926.874 1033.15,902.905 1038.9,889.162 1044.64,861.164 1050.39,839.487 1056.13,848.302 1061.88,893.565 1067.62,894.883 1073.37,889.77 1079.11,922.875 1084.85,924.492 1090.6,903.74 1096.34,946.774 1102.09,945.255 1107.83,916.351 1113.58,919.908 1119.32,919.262 1125.07,909.743 1130.81,916.85 1136.56,927.021 1142.3,951.997 1148.05,922.63 1153.79,949.697 1159.54,934.807 1165.28,929.926 1171.02,915.574 1176.77,904.852 1182.51,898.895 1188.26,895.414 1194,914.804 1199.75,911.225 1205.49,918.127 1211.24,913.572 1216.98,921.554 1222.73,917.459 1228.47,920.065 1234.22,915.847 1239.96,960.955 1245.71,926.186 1251.45,913.661 1257.19,894.407 1262.94,872.855 1268.68,854.802 1274.43,827.955 1280.17,842.31 1285.92,887.302 1291.66,886.439 1297.41,883.138 1303.15,923.19 1308.9,929.99 1314.64,892.648 1320.39,932.789 1326.13,948.862 1331.87,920.144 1337.62,915.551 1343.36,913.088 1349.11,900.772 1354.85,903.965 1360.6,934.174 1366.34,911.639 1372.09,940.222 1377.83,930.146 1383.58,921.053 1389.32,913.665 1395.07,904.528 1400.81,900.363 1406.56,909.425 1412.3,917.438 1418.04,906.575 1423.79,928.356 1429.53,920.917 1435.28,918.068 1441.02,910.853 1446.77,906.96 1452.51,905.521 1458.26,904.821 1464,906.029 1469.75,916.28 1475.49,909.174 1481.24,920.982 1486.98,916.534 1492.72,914.08 1498.47,909.901 1504.21,907.968 1509.96,906.827 1515.7,906.506 1521.45,911.12 1527.19,912.162 1532.94,908.749 1538.68,917.102 1544.43,914.279 1550.17,912.748 1555.92,909.877 1561.66,908.429 1567.41,907.901 1573.15,907.716 1578.89,910.715 1584.64,911.83 1590.38,908.721 1596.13,916.52 1601.87,913.846 1607.62,912.291 1613.36,910.116 1619.11,909.037 1624.85,908.504 1630.6,908.139 1636.34,908.057 1642.09,910.55 1647.83,911.637 1653.57,908.898 1659.32,915.985 1665.06,913.552 1670.81,912.111 1676.55,910.211 1682.3,909.213 1688.04,908.71 1693.79,908.473 1699.53,908.862 1705.28,911.876 1711.02,909.804 1716.77,913.354 1722.51,912.017 1728.26,911.313 1734,910.039 1739.74,909.423 1745.49,909.114 1751.23,909.057 1756.98,910.427 1762.72,910.861 1768.47,909.526 1774.21,912.953 1779.96,911.774 1785.7,911.114 1791.45,910.135 1797.19,909.628 1802.94,909.455 1808.68,909.266 1814.43,909.551 1820.17,910.921 1825.91,909.945 1831.66,911.923 1837.4,911.171 1843.15,910.797 1848.89,910.126 1854.64,909.75 1860.38,909.636 1866.13,909.541 1871.87,909.384 1877.62,909.661 1883.36,910.859 1889.11,909.936 1894.85,911.74 1900.59,911.062 1906.34,910.724 1912.08,910.126 1917.83,909.831 1923.57,909.677 1929.32,909.768 1935.06,910.798 1940.81,910.097 1946.55,911.071 1952.3,910.7 1958.04,910.516 1963.79,910.141 1969.53,909.946 1975.28,909.894 1981.02,909.786 1986.76,910.016 1992.51,910.976 1998.25,910.221 2004,910.757 2009.74,910.532 2015.49,910.415 2021.23,910.13 2026.98,910.015 2032.72,909.925 2038.47,910.02 2044.21,910.673 2049.96,910.219 2055.7,910.56 2061.44,910.419 2067.19,910.361 2072.93,910.143 2078.68,910.034 2084.42,910.013 2090.17,910.013 2095.91,910.243 2101.66,910.269 2107.4,910.108 2113.15,910.56 2118.89,910.408 2124.64,910.343 2130.38,910.148 2136.13,910.039 2141.87,910.072 2147.61,910.275 2153.36,955.876 2159.1,922.687 2164.85,912.977 2170.59,903.065 2176.34,866.42 2182.08,904.337 2187.83,955.029 2193.57,901.368 2199.32,946.098 2205.06,982.615 2210.81,924.362 2216.55,912.974 2222.29,898.702 2228.04,877.586 2233.78,870.708 2239.53,847.559 2245.27,869.106 2251.02,923.154 2256.76,953.57 2262.51,906.034 2268.25,954.665 2274,960.237 2279.74,932.91 2285.49,926.548 2291.23,902.302 "></polyline>
<polyline clip-path="url(#clip272)" style="stroke:#e26f46; stroke-linecap:round; stroke-linejoin:round; stroke-width:4; stroke-opacity:1; fill:none" points="240.392,939.532 246.136,557.235 251.881,920.44 257.626,732.115 263.37,87.9763 269.115,916.437 274.86,927.442 280.604,932.199 286.349,464.221 292.094,931.071 297.838,468.345 303.583,932.076 309.328,796.39 315.072,928.566 320.817,819.286 326.562,930.398 332.306,935.493 338.051,934.971 343.795,934.304 349.54,862.793 355.285,905.558 361.029,648.597 366.774,477.53 372.519,611.101 378.263,498.25 384.008,757.395 389.753,831.267 395.497,813.165 401.242,824.861 406.987,745.93 412.731,831.815 418.476,740.157 424.221,843.77 429.965,706.428 435.71,860.874 441.454,738.37 447.199,870.187 452.944,893.569 458.688,906.609 464.433,902.003 470.178,905.733 475.922,904.16 481.667,880.918 487.412,909.086 493.156,909.139 498.901,910.039 504.646,911.572 510.39,907.562 516.135,910.199 521.879,913.186 527.624,910.243 533.369,911.067 539.113,911.191 544.858,910.236 550.603,910.137 556.347,910.533 562.092,909.971 567.837,910.995 573.581,868.296 579.326,908.933 585.071,885.507 590.815,904.172 596.56,935.437 602.305,522.493 608.049,857.028 613.794,895.5 619.538,888.357 625.283,881.229 631.028,864.785 636.772,912.608 642.517,905.344 648.262,903.194 654.006,904.536 659.751,920.478 665.496,929.203 671.24,921.319 676.985,913.156 682.73,875.815 688.474,910.866 694.219,905.264 699.964,822.477 705.708,846.926 711.453,843.777 717.197,552.686 722.942,440.059 728.687,597.415 734.431,623.661 740.176,779.965 745.921,849.925 751.665,850.401 757.41,879.404 763.155,910.459 768.899,892.785 774.644,914.944 780.389,925.582 786.133,915.938 791.878,904.966 797.623,905.269 803.367,913.787 809.112,888.484 814.856,857.663 820.601,485.699 826.346,620.17 832.09,732.449 837.835,641.65 843.58,812.041 849.324,889.083 855.069,896.858 860.814,835.783 866.558,821.273 872.303,806.963 878.048,850.714 883.792,858.786 889.537,866.224 895.282,898.548 901.026,884.866 906.771,911.794 912.515,901.453 918.26,917.689 924.005,916.83 929.749,916.327 935.494,912.795 941.239,907.827 946.983,904.109 952.728,899.079 958.473,894.825 964.217,889.448 969.962,883.083 975.707,893.571 981.451,913.991 987.196,899.247 992.941,916.446 998.685,919.281 1004.43,910.705 1010.17,914.455 1015.92,917.803 1021.66,906.537 1027.41,839.922 1033.15,842.542 1038.9,816.15 1044.64,741.222 1050.39,657.734 1056.13,664.752 1061.88,820.803 1067.62,846.494 1073.37,821.474 1079.11,900.077 1084.85,910.744 1090.6,899.945 1096.34,917.872 1102.09,921.557 1107.83,897.869 1113.58,887.901 1119.32,881.879 1125.07,880.87 1130.81,905.804 1136.56,905.564 1142.3,916.763 1148.05,907.328 1153.79,916.706 1159.54,921.118 1165.28,921.352 1171.02,911.451 1176.77,899.08 1182.51,889.918 1188.26,884.023 1194,908.358 1199.75,910.372 1205.49,915.761 1211.24,913.193 1216.98,916.933 1222.73,911.922 1228.47,917.014 1234.22,913.156 1239.96,916.584 1245.71,912.336 1251.45,902.569 1257.19,878.428 1262.94,835.976 1268.68,784.467 1274.43,654.962 1280.17,647.807 1285.92,829.973 1291.66,849.332 1297.41,828.729 1303.15,905.646 1308.9,911.613 1314.64,872.22 1320.39,915.582 1326.13,912.589 1331.87,900.362 1337.62,895.076 1343.36,902.73 1349.11,895.624 1354.85,887.938 1360.6,915.859 1366.34,901 1372.09,914.163 1377.83,918.246 1383.58,914.212 1389.32,910.036 1395.07,900.369 1400.81,896.893 1406.56,909 1412.3,912.372 1418.04,906.133 1423.79,920.752 1429.53,915.396 1435.28,915.647 1441.02,910.704 1446.77,907.692 1452.51,906.536 1458.26,904.093 1464,905.737 1469.75,914.479 1475.49,909.323 1481.24,916.505 1486.98,913.936 1492.72,912.414 1498.47,909.425 1504.21,908.073 1509.96,907.149 1515.7,906.414 1521.45,910.036 1527.19,911.466 1532.94,908.47 1538.68,914.174 1544.43,912.425 1550.17,911.633 1555.92,909.69 1561.66,908.684 1567.41,908.151 1573.15,907.817 1578.89,910.063 1584.64,911.21 1590.38,908.8 1596.13,913.821 1601.87,912.336 1607.62,911.385 1613.36,909.917 1619.11,909.223 1624.85,908.775 1630.6,908.401 1636.34,908.165 1642.09,909.973 1647.83,911.048 1653.57,908.99 1659.32,913.48 1665.06,912.141 1670.81,911.284 1676.55,910.037 1682.3,909.406 1688.04,908.988 1693.79,908.726 1699.53,908.806 1705.28,911.311 1711.02,910.048 1716.77,912.22 1722.51,911.336 1728.26,910.935 1734,910.042 1739.74,909.641 1745.49,909.341 1751.23,909.254 1756.98,910.183 1762.72,910.668 1768.47,909.648 1774.21,912.068 1779.96,911.263 1785.7,910.834 1791.45,910.128 1797.19,909.771 1802.94,909.688 1808.68,909.488 1814.43,909.56 1820.17,910.701 1825.91,910.115 1831.66,911.363 1837.4,910.85 1843.15,910.637 1848.89,910.187 1854.64,909.867 1860.38,909.82 1866.13,909.769 1871.87,909.543 1877.62,909.686 1883.36,910.704 1889.11,910.12 1894.85,911.251 1900.59,910.79 1906.34,910.596 1912.08,910.166 1917.83,909.969 1923.57,909.809 1929.32,909.868 1935.06,910.659 1940.81,910.161 1946.55,910.823 1952.3,910.579 1958.04,910.457 1963.79,910.186 1969.53,910.049 1975.28,910.039 1981.02,909.894 1986.76,910.044 1992.51,910.773 1998.25,910.219 2004,910.648 2009.74,910.483 2015.49,910.369 2021.23,910.168 2026.98,910.111 2032.72,910.004 2038.47,910.115 2044.21,910.599 2049.96,910.225 2055.7,910.507 2061.44,910.401 2067.19,910.343 2072.93,910.173 2078.68,910.078 2084.42,910.071 2090.17,910.037 2095.91,910.257 2101.66,910.312 2107.4,910.133 2113.15,910.484 2118.89,910.39 2124.64,910.319 2130.38,910.175 2136.13,910.065 2141.87,910.153 2147.61,910.297 2153.36,914.199 2159.1,915.326 2164.85,914.717 2170.59,904.746 2176.34,864.225 2182.08,890.576 2187.83,910.817 2193.57,883.707 2199.32,922.761 2205.06,924.781 2210.81,898.065 2216.55,915.248 2222.29,897.402 2228.04,872.336 2233.78,853.664 2239.53,772.978 2245.27,768.325 2251.02,894.855 2256.76,918.185 2262.51,887.855 2268.25,921.931 2274,909.878 2279.74,919.483 2285.49,911.144 2291.23,884.563 "></polyline>
<polyline clip-path="url(#clip272)" style="stroke:#3da44d; stroke-linecap:round; stroke-linejoin:round; stroke-width:4; stroke-opacity:1; fill:none" points="240.392,1092.26 246.136,1127.84 251.881,1154.83 257.626,1190.08 263.37,1217.71 269.115,1253.38 274.86,1254.37 280.604,1255.36 286.349,1228.43 292.094,1255.31 297.838,1228.54 303.583,1254.7 309.328,1241.78 315.072,1253.84 320.817,1243.68 326.562,1253.25 332.306,1254.2 338.051,1254.75 343.795,1255.05 349.54,1214.99 355.285,1215.4 361.029,1225.53 366.774,1253.26 372.519,1287 378.263,1313.28 384.008,1333.12 389.753,1345.1 395.497,1351.13 401.242,1349.31 406.987,1327.56 412.731,1349.12 418.476,1327.07 424.221,1346.46 429.965,1322.53 435.71,1342.93 441.454,1322.74 447.199,1335.19 452.944,1333.49 458.688,1331.29 464.433,1333.91 470.178,1330.55 475.922,1333.72 481.667,1324.76 487.412,1328.64 493.156,1332.11 498.901,1332.19 504.646,1331.31 510.39,1333.22 516.135,1329.48 521.879,1330.52 527.624,1332.26 533.369,1332.13 539.113,1332.14 544.858,1332.5 550.603,1332.61 556.347,1332.54 562.092,1332.8 567.837,1332.38 573.581,1285.13 579.326,1285.24 585.071,1295.75 590.815,1301.31 596.56,1302.34 602.305,1333.56 608.049,1351.1 613.794,1357.25 619.538,1365.85 625.283,1372.88 631.028,1353.18 636.772,1360.57 642.517,1354.06 648.262,1360.9 654.006,1347.61 659.751,1355.07 665.496,1354.75 671.24,1358.71 676.985,1362.08 682.73,1313.21 688.474,1316.77 694.219,1326.8 699.964,1345.25 705.708,1354.91 711.453,1367.53 717.197,1377.1 722.942,1390.88 728.687,1399.05 734.431,1388.25 740.176,1393.3 745.921,1391.12 751.665,1397.78 757.41,1399.39 763.155,1398.14 768.899,1404.75 774.644,1394.4 780.389,1385.65 786.133,1395.54 791.878,1334.52 797.623,1346.93 803.367,1359.61 809.112,1377.15 814.856,1395.82 820.601,1410.67 826.346,1406.71 832.09,1405.67 837.835,1415.37 843.58,1404.89 849.324,1394.39 855.069,1397.99 860.814,1407.46 866.558,1410.46 872.303,1413.65 878.048,1404.39 883.792,1396.93 889.537,1405.07 895.282,1396.07 901.026,1391.6 906.771,1394.63 912.515,1394.87 918.26,1394.28 924.005,1395.79 929.749,1396.34 935.494,1397.96 941.239,1399.92 946.983,1401.37 952.728,1403.11 958.473,1404.6 964.217,1406.34 969.962,1408.12 975.707,1405.71 981.451,1398.29 987.196,1404.2 992.941,1397.03 998.685,1396.74 1004.43,1400.62 1010.17,1399.32 1015.92,1336.69 1021.66,1353.24 1027.41,1373.14 1033.15,1393.11 1038.9,1410.39 1044.64,1431.76 1050.39,1438.53 1056.13,1437.02 1061.88,1416.51 1067.62,1421.03 1073.37,1424.62 1079.11,1408.47 1084.85,1411.06 1090.6,1418.02 1096.34,1393.6 1102.09,1401.97 1107.83,1414.73 1113.58,1414.95 1119.32,1415.87 1125.07,1418.71 1130.81,1415.05 1136.56,1411.82 1142.3,1396.15 1148.05,1412.89 1153.79,1395.7 1159.54,1403.71 1165.28,1406.57 1171.02,1414.04 1176.77,1419.32 1182.51,1421.36 1188.26,1422.5 1194,1414.46 1199.75,1416.46 1205.49,1413.88 1211.24,1415.69 1216.98,1412.7 1222.73,1414.79 1228.47,1413.15 1234.22,1415.18 1239.96,1343.88 1245.71,1362.03 1251.45,1377.61 1257.19,1395.87 1262.94,1415.21 1268.68,1433.96 1274.43,1445.72 1280.17,1442.42 1285.92,1419.08 1291.66,1424.92 1297.41,1427.92 1303.15,1407.24 1308.9,1400.63 1314.64,1419.6 1320.39,1398.5 1326.13,1388.83 1331.87,1407.62 1337.62,1414.73 1343.36,1416.49 1349.11,1421.04 1354.85,1421.02 1360.6,1402.57 1366.34,1417.56 1372.09,1400.1 1377.83,1406.72 1383.58,1411.77 1389.32,1415.31 1395.07,1419.5 1400.81,1421.13 1406.56,1416.83 1412.3,1414.27 1418.04,1418.38 1423.79,1406.37 1429.53,1412.31 1435.28,1413.31 1441.02,1416.46 1446.77,1417.92 1452.51,1418.48 1458.26,1419.01 1464,1418.61 1469.75,1414.15 1475.49,1417.27 1481.24,1412.06 1486.98,1414.48 1492.72,1415.52 1498.47,1417.16 1504.21,1417.86 1509.96,1418.3 1515.7,1418.55 1521.45,1416.77 1527.19,1416.27 1532.94,1417.72 1538.68,1414.25 1544.43,1415.55 1550.17,1416.15 1555.92,1417.25 1561.66,1417.78 1567.41,1418.02 1573.15,1418.16 1578.89,1417.02 1584.64,1416.51 1590.38,1417.75 1596.13,1414.63 1601.87,1415.76 1607.62,1416.38 1613.36,1417.22 1619.11,1417.61 1624.85,1417.83 1630.6,1418 1636.34,1418.09 1642.09,1417.15 1647.83,1416.66 1653.57,1417.74 1659.32,1414.92 1665.06,1415.94 1670.81,1416.51 1676.55,1417.23 1682.3,1417.59 1688.04,1417.8 1693.79,1417.93 1699.53,1417.84 1705.28,1416.57 1711.02,1417.33 1716.77,1415.97 1722.51,1416.55 1728.26,1416.81 1734,1417.3 1739.74,1417.53 1745.49,1417.67 1751.23,1417.71 1756.98,1417.2 1762.72,1416.99 1768.47,1417.53 1774.21,1416.14 1779.96,1416.65 1785.7,1416.91 1791.45,1417.3 1797.19,1417.49 1802.94,1417.55 1808.68,1417.64 1814.43,1417.57 1820.17,1416.99 1825.91,1417.35 1831.66,1416.58 1837.4,1416.91 1843.15,1417.05 1848.89,1417.3 1854.64,1417.46 1860.38,1417.5 1866.13,1417.53 1871.87,1417.63 1877.62,1417.54 1883.36,1417.03 1889.11,1417.37 1894.85,1416.67 1900.59,1416.97 1906.34,1417.09 1912.08,1417.33 1917.83,1417.44 1923.57,1417.51 1929.32,1417.48 1935.06,1417.05 1940.81,1417.34 1946.55,1416.96 1952.3,1417.12 1958.04,1417.19 1963.79,1417.33 1969.53,1417.41 1975.28,1417.43 1981.02,1417.49 1986.76,1417.4 1992.51,1417 1998.25,1417.32 2004,1417.09 2009.74,1417.19 2015.49,1417.25 2021.23,1417.36 2026.98,1417.4 2032.72,1417.44 2038.47,1417.4 2044.21,1417.12 2049.96,1417.33 2055.7,1417.18 2061.44,1417.25 2067.19,1417.27 2072.93,1417.36 2078.68,1417.4 2084.42,1417.41 2090.17,1417.42 2095.91,1417.32 2101.66,1417.3 2107.4,1417.38 2113.15,1417.18 2118.89,1417.25 2124.64,1417.29 2130.38,1417.37 2136.13,1417.41 2141.87,1417.39 2147.61,1417.3 2153.36,1345.37 2159.1,1363.28 2164.85,1377.24 2170.59,1392.08 2176.34,1415.46 2182.08,1410.07 2187.83,1389.63 2193.57,1412.08 2199.32,1393.52 2205.06,1336.18 2210.81,1364.14 2216.55,1377.79 2222.29,1394.8 2228.04,1414.37 2233.78,1430.44 2239.53,1440.02 2245.27,1435.31 2251.02,1408.54 2256.76,1397.18 2262.51,1418.37 2268.25,1394.45 2274,1391.25 2279.74,1407.37 2285.49,1415.96 2291.23,1424.65 "></polyline>
<path clip-path="url(#clip270)" d="M1399.02 302.578 L2280.29 302.578 L2280.29 95.2176 L1399.02 95.2176  Z" fill="#ffffff" fill-rule="evenodd" fill-opacity="1"></path>
<polyline clip-path="url(#clip270)" style="stroke:#000000; stroke-linecap:round; stroke-linejoin:round; stroke-width:4; stroke-opacity:1; fill:none" points="1399.02,302.578 2280.29,302.578 2280.29,95.2176 1399.02,95.2176 1399.02,302.578 "></polyline>
<polyline clip-path="url(#clip270)" style="stroke:#009af9; stroke-linecap:round; stroke-linejoin:round; stroke-width:4; stroke-opacity:1; fill:none" points="1423.17,147.058 1568.1,147.058 "></polyline>
<path clip-path="url(#clip270)" d="M1605.45 164.338 L1592.25 129.778 L1597.14 129.778 L1608.09 158.875 L1619.06 129.778 L1623.92 129.778 L1610.75 164.338 L1605.45 164.338 Z" fill="#000000" fill-rule="nonzero" fill-opacity="1"></path><path clip-path="url(#clip270)" d="M1635.15 141.398 Q1631.72 141.398 1629.73 144.083 Q1627.74 146.745 1627.74 151.398 Q1627.74 156.051 1629.71 158.736 Q1631.7 161.398 1635.15 161.398 Q1638.55 161.398 1640.54 158.713 Q1642.53 156.027 1642.53 151.398 Q1642.53 146.791 1640.54 144.106 Q1638.55 141.398 1635.15 141.398 M1635.15 137.787 Q1640.7 137.787 1643.87 141.398 Q1647.04 145.009 1647.04 151.398 Q1647.04 157.764 1643.87 161.398 Q1640.7 165.009 1635.15 165.009 Q1629.57 165.009 1626.4 161.398 Q1623.25 157.764 1623.25 151.398 Q1623.25 145.009 1626.4 141.398 Q1629.57 137.787 1635.15 137.787 Z" fill="#000000" fill-rule="nonzero" fill-opacity="1"></path><path clip-path="url(#clip270)" d="M1654.1 128.319 L1658.36 128.319 L1658.36 164.338 L1654.1 164.338 L1654.1 128.319 Z" fill="#000000" fill-rule="nonzero" fill-opacity="1"></path><path clip-path="url(#clip270)" d="M1666.84 154.106 L1666.84 138.412 L1671.1 138.412 L1671.1 153.944 Q1671.1 157.625 1672.53 159.476 Q1673.97 161.305 1676.84 161.305 Q1680.29 161.305 1682.28 159.106 Q1684.29 156.907 1684.29 153.111 L1684.29 138.412 L1688.55 138.412 L1688.55 164.338 L1684.29 164.338 L1684.29 160.356 Q1682.74 162.717 1680.68 163.875 Q1678.64 165.009 1675.93 165.009 Q1671.47 165.009 1669.15 162.231 Q1666.84 159.453 1666.84 154.106 M1677.55 137.787 L1677.55 137.787 Z" fill="#000000" fill-rule="nonzero" fill-opacity="1"></path><path clip-path="url(#clip270)" d="M1717.51 143.389 Q1719.1 140.518 1721.33 139.153 Q1723.55 137.787 1726.56 137.787 Q1730.61 137.787 1732.81 140.634 Q1735.01 143.458 1735.01 148.689 L1735.01 164.338 L1730.72 164.338 L1730.72 148.828 Q1730.72 145.102 1729.41 143.296 Q1728.09 141.49 1725.38 141.49 Q1722.07 141.49 1720.15 143.69 Q1718.22 145.889 1718.22 149.685 L1718.22 164.338 L1713.94 164.338 L1713.94 148.828 Q1713.94 145.078 1712.62 143.296 Q1711.3 141.49 1708.55 141.49 Q1705.29 141.49 1703.36 143.713 Q1701.44 145.912 1701.44 149.685 L1701.44 164.338 L1697.16 164.338 L1697.16 138.412 L1701.44 138.412 L1701.44 142.44 Q1702.9 140.055 1704.94 138.921 Q1706.97 137.787 1709.78 137.787 Q1712.6 137.787 1714.57 139.222 Q1716.56 140.657 1717.51 143.389 Z" fill="#000000" fill-rule="nonzero" fill-opacity="1"></path><path clip-path="url(#clip270)" d="M1765.68 150.31 L1765.68 152.393 L1746.1 152.393 Q1746.37 156.791 1748.73 159.106 Q1751.12 161.398 1755.35 161.398 Q1757.81 161.398 1760.1 160.796 Q1762.41 160.194 1764.68 158.99 L1764.68 163.018 Q1762.39 163.99 1759.98 164.5 Q1757.58 165.009 1755.1 165.009 Q1748.9 165.009 1745.26 161.398 Q1741.65 157.787 1741.65 151.629 Q1741.65 145.264 1745.08 141.537 Q1748.53 137.787 1754.36 137.787 Q1759.59 137.787 1762.62 141.166 Q1765.68 144.523 1765.68 150.31 M1761.42 149.06 Q1761.37 145.565 1759.45 143.481 Q1757.55 141.398 1754.41 141.398 Q1750.84 141.398 1748.69 143.412 Q1746.56 145.426 1746.23 149.083 L1761.42 149.06 Z" fill="#000000" fill-rule="nonzero" fill-opacity="1"></path><path clip-path="url(#clip270)" d="M1813.8 132.44 L1813.8 137.37 Q1811.44 135.171 1808.76 134.083 Q1806.09 132.995 1803.09 132.995 Q1797.16 132.995 1794.01 136.629 Q1790.86 140.24 1790.86 147.092 Q1790.86 153.921 1794.01 157.555 Q1797.16 161.166 1803.09 161.166 Q1806.09 161.166 1808.76 160.078 Q1811.44 158.99 1813.8 156.791 L1813.8 161.676 Q1811.35 163.342 1808.59 164.176 Q1805.86 165.009 1802.81 165.009 Q1794.96 165.009 1790.45 160.217 Q1785.93 155.402 1785.93 147.092 Q1785.93 138.759 1790.45 133.967 Q1794.96 129.153 1802.81 129.153 Q1805.91 129.153 1808.64 129.986 Q1811.4 130.796 1813.8 132.44 Z" fill="#000000" fill-rule="nonzero" fill-opacity="1"></path><path clip-path="url(#clip270)" d="M1830.89 141.398 Q1827.46 141.398 1825.47 144.083 Q1823.48 146.745 1823.48 151.398 Q1823.48 156.051 1825.45 158.736 Q1827.44 161.398 1830.89 161.398 Q1834.29 161.398 1836.28 158.713 Q1838.27 156.027 1838.27 151.398 Q1838.27 146.791 1836.28 144.106 Q1834.29 141.398 1830.89 141.398 M1830.89 137.787 Q1836.44 137.787 1839.61 141.398 Q1842.78 145.009 1842.78 151.398 Q1842.78 157.764 1839.61 161.398 Q1836.44 165.009 1830.89 165.009 Q1825.31 165.009 1822.14 161.398 Q1818.99 157.764 1818.99 151.398 Q1818.99 145.009 1822.14 141.398 Q1825.31 137.787 1830.89 137.787 Z" fill="#000000" fill-rule="nonzero" fill-opacity="1"></path><path clip-path="url(#clip270)" d="M1871.4 148.689 L1871.4 164.338 L1867.14 164.338 L1867.14 148.828 Q1867.14 145.148 1865.7 143.319 Q1864.27 141.49 1861.4 141.49 Q1857.95 141.49 1855.96 143.69 Q1853.96 145.889 1853.96 149.685 L1853.96 164.338 L1849.68 164.338 L1849.68 138.412 L1853.96 138.412 L1853.96 142.44 Q1855.49 140.102 1857.55 138.944 Q1859.64 137.787 1862.34 137.787 Q1866.81 137.787 1869.1 140.565 Q1871.4 143.319 1871.4 148.689 Z" fill="#000000" fill-rule="nonzero" fill-opacity="1"></path><path clip-path="url(#clip270)" d="M1896.42 139.176 L1896.42 143.203 Q1894.61 142.277 1892.67 141.815 Q1890.72 141.352 1888.64 141.352 Q1885.47 141.352 1883.87 142.324 Q1882.3 143.296 1882.3 145.24 Q1882.3 146.722 1883.43 147.578 Q1884.57 148.412 1887.99 149.176 L1889.45 149.5 Q1893.99 150.472 1895.89 152.254 Q1897.81 154.014 1897.81 157.185 Q1897.81 160.796 1894.94 162.902 Q1892.09 165.009 1887.09 165.009 Q1885.01 165.009 1882.74 164.592 Q1880.49 164.199 1877.99 163.388 L1877.99 158.99 Q1880.35 160.217 1882.65 160.842 Q1884.94 161.444 1887.18 161.444 Q1890.19 161.444 1891.81 160.426 Q1893.43 159.384 1893.43 157.509 Q1893.43 155.773 1892.25 154.847 Q1891.09 153.921 1887.14 153.064 L1885.65 152.717 Q1881.7 151.884 1879.94 150.171 Q1878.18 148.435 1878.18 145.426 Q1878.18 141.768 1880.77 139.778 Q1883.36 137.787 1888.13 137.787 Q1890.49 137.787 1892.58 138.134 Q1894.66 138.481 1896.42 139.176 Z" fill="#000000" fill-rule="nonzero" fill-opacity="1"></path><path clip-path="url(#clip270)" d="M1908.8 131.051 L1908.8 138.412 L1917.58 138.412 L1917.58 141.722 L1908.8 141.722 L1908.8 155.796 Q1908.8 158.967 1909.66 159.87 Q1910.54 160.773 1913.2 160.773 L1917.58 160.773 L1917.58 164.338 L1913.2 164.338 Q1908.27 164.338 1906.4 162.509 Q1904.52 160.657 1904.52 155.796 L1904.52 141.722 L1901.4 141.722 L1901.4 138.412 L1904.52 138.412 L1904.52 131.051 L1908.8 131.051 Z" fill="#000000" fill-rule="nonzero" fill-opacity="1"></path><path clip-path="url(#clip270)" d="M1938.2 142.393 Q1937.48 141.977 1936.63 141.791 Q1935.79 141.583 1934.77 141.583 Q1931.16 141.583 1929.22 143.944 Q1927.3 146.282 1927.3 150.68 L1927.3 164.338 L1923.02 164.338 L1923.02 138.412 L1927.3 138.412 L1927.3 142.44 Q1928.64 140.078 1930.79 138.944 Q1932.95 137.787 1936.02 137.787 Q1936.46 137.787 1937 137.856 Q1937.53 137.903 1938.18 138.018 L1938.2 142.393 Z" fill="#000000" fill-rule="nonzero" fill-opacity="1"></path><path clip-path="url(#clip270)" d="M1954.45 151.305 Q1949.29 151.305 1947.3 152.486 Q1945.31 153.666 1945.31 156.514 Q1945.31 158.782 1946.79 160.125 Q1948.29 161.444 1950.86 161.444 Q1954.4 161.444 1956.53 158.944 Q1958.69 156.421 1958.69 152.254 L1958.69 151.305 L1954.45 151.305 M1962.95 149.546 L1962.95 164.338 L1958.69 164.338 L1958.69 160.402 Q1957.23 162.763 1955.05 163.898 Q1952.88 165.009 1949.73 165.009 Q1945.75 165.009 1943.39 162.787 Q1941.05 160.541 1941.05 156.791 Q1941.05 152.416 1943.96 150.194 Q1946.9 147.972 1952.71 147.972 L1958.69 147.972 L1958.69 147.555 Q1958.69 144.615 1956.74 143.018 Q1954.82 141.398 1951.33 141.398 Q1949.1 141.398 1947 141.93 Q1944.89 142.463 1942.95 143.527 L1942.95 139.592 Q1945.28 138.69 1947.48 138.25 Q1949.68 137.787 1951.77 137.787 Q1957.39 137.787 1960.17 140.703 Q1962.95 143.62 1962.95 149.546 Z" fill="#000000" fill-rule="nonzero" fill-opacity="1"></path><path clip-path="url(#clip270)" d="M1971.72 138.412 L1975.98 138.412 L1975.98 164.338 L1971.72 164.338 L1971.72 138.412 M1971.72 128.319 L1975.98 128.319 L1975.98 133.713 L1971.72 133.713 L1971.72 128.319 Z" fill="#000000" fill-rule="nonzero" fill-opacity="1"></path><path clip-path="url(#clip270)" d="M2006.44 148.689 L2006.44 164.338 L2002.18 164.338 L2002.18 148.828 Q2002.18 145.148 2000.75 143.319 Q1999.31 141.49 1996.44 141.49 Q1992.99 141.49 1991 143.69 Q1989.01 145.889 1989.01 149.685 L1989.01 164.338 L1984.73 164.338 L1984.73 138.412 L1989.01 138.412 L1989.01 142.44 Q1990.54 140.102 1992.6 138.944 Q1994.68 137.787 1997.39 137.787 Q2001.86 137.787 2004.15 140.565 Q2006.44 143.319 2006.44 148.689 Z" fill="#000000" fill-rule="nonzero" fill-opacity="1"></path><path clip-path="url(#clip270)" d="M2019.15 131.051 L2019.15 138.412 L2027.92 138.412 L2027.92 141.722 L2019.15 141.722 L2019.15 155.796 Q2019.15 158.967 2020.01 159.87 Q2020.89 160.773 2023.55 160.773 L2027.92 160.773 L2027.92 164.338 L2023.55 164.338 Q2018.62 164.338 2016.74 162.509 Q2014.87 160.657 2014.87 155.796 L2014.87 141.722 L2011.74 141.722 L2011.74 138.412 L2014.87 138.412 L2014.87 131.051 L2019.15 131.051 Z" fill="#000000" fill-rule="nonzero" fill-opacity="1"></path><polyline clip-path="url(#clip270)" style="stroke:#e26f46; stroke-linecap:round; stroke-linejoin:round; stroke-width:4; stroke-opacity:1; fill:none" points="1423.17,198.898 1568.1,198.898 "></polyline>
<path clip-path="url(#clip270)" d="M1592.25 181.618 L1596.95 181.618 L1596.95 202.613 Q1596.95 208.168 1598.97 210.622 Q1600.98 213.053 1605.49 213.053 Q1609.98 213.053 1612 210.622 Q1614.01 208.168 1614.01 202.613 L1614.01 181.618 L1618.71 181.618 L1618.71 203.192 Q1618.71 209.951 1615.36 213.4 Q1612.02 216.849 1605.49 216.849 Q1598.94 216.849 1595.59 213.4 Q1592.25 209.951 1592.25 203.192 L1592.25 181.618 Z" fill="#000000" fill-rule="nonzero" fill-opacity="1"></path><path clip-path="url(#clip270)" d="M1648.85 200.529 L1648.85 216.178 L1644.59 216.178 L1644.59 200.668 Q1644.59 196.988 1643.16 195.159 Q1641.72 193.33 1638.85 193.33 Q1635.4 193.33 1633.41 195.53 Q1631.42 197.729 1631.42 201.525 L1631.42 216.178 L1627.14 216.178 L1627.14 190.252 L1631.42 190.252 L1631.42 194.28 Q1632.95 191.942 1635.01 190.784 Q1637.09 189.627 1639.8 189.627 Q1644.27 189.627 1646.56 192.405 Q1648.85 195.159 1648.85 200.529 Z" fill="#000000" fill-rule="nonzero" fill-opacity="1"></path><path clip-path="url(#clip270)" d="M1657.35 190.252 L1661.6 190.252 L1661.6 216.178 L1657.35 216.178 L1657.35 190.252 M1657.35 180.159 L1661.6 180.159 L1661.6 185.553 L1657.35 185.553 L1657.35 180.159 Z" fill="#000000" fill-rule="nonzero" fill-opacity="1"></path><path clip-path="url(#clip270)" d="M1683.64 180.159 L1683.64 183.701 L1679.57 183.701 Q1677.28 183.701 1676.37 184.627 Q1675.49 185.553 1675.49 187.96 L1675.49 190.252 L1682.51 190.252 L1682.51 193.562 L1675.49 193.562 L1675.49 216.178 L1671.21 216.178 L1671.21 193.562 L1667.14 193.562 L1667.14 190.252 L1671.21 190.252 L1671.21 188.446 Q1671.21 184.118 1673.23 182.15 Q1675.24 180.159 1679.61 180.159 L1683.64 180.159 Z" fill="#000000" fill-rule="nonzero" fill-opacity="1"></path><path clip-path="url(#clip270)" d="M1697.25 193.238 Q1693.83 193.238 1691.84 195.923 Q1689.85 198.585 1689.85 203.238 Q1689.85 207.891 1691.81 210.576 Q1693.8 213.238 1697.25 213.238 Q1700.66 213.238 1702.65 210.553 Q1704.64 207.867 1704.64 203.238 Q1704.64 198.631 1702.65 195.946 Q1700.66 193.238 1697.25 193.238 M1697.25 189.627 Q1702.81 189.627 1705.98 193.238 Q1709.15 196.849 1709.15 203.238 Q1709.15 209.604 1705.98 213.238 Q1702.81 216.849 1697.25 216.849 Q1691.67 216.849 1688.5 213.238 Q1685.35 209.604 1685.35 203.238 Q1685.35 196.849 1688.5 193.238 Q1691.67 189.627 1697.25 189.627 Z" fill="#000000" fill-rule="nonzero" fill-opacity="1"></path><path clip-path="url(#clip270)" d="M1731.23 194.233 Q1730.52 193.817 1729.66 193.631 Q1728.83 193.423 1727.81 193.423 Q1724.2 193.423 1722.25 195.784 Q1720.33 198.122 1720.33 202.52 L1720.33 216.178 L1716.05 216.178 L1716.05 190.252 L1720.33 190.252 L1720.33 194.28 Q1721.67 191.918 1723.83 190.784 Q1725.98 189.627 1729.06 189.627 Q1729.5 189.627 1730.03 189.696 Q1730.56 189.743 1731.21 189.858 L1731.23 194.233 Z" fill="#000000" fill-rule="nonzero" fill-opacity="1"></path><path clip-path="url(#clip270)" d="M1755.05 195.229 Q1756.65 192.358 1758.87 190.993 Q1761.09 189.627 1764.1 189.627 Q1768.16 189.627 1770.35 192.474 Q1772.55 195.298 1772.55 200.529 L1772.55 216.178 L1768.27 216.178 L1768.27 200.668 Q1768.27 196.942 1766.95 195.136 Q1765.63 193.33 1762.92 193.33 Q1759.61 193.33 1757.69 195.53 Q1755.77 197.729 1755.77 201.525 L1755.77 216.178 L1751.49 216.178 L1751.49 200.668 Q1751.49 196.918 1750.17 195.136 Q1748.85 193.33 1746.1 193.33 Q1742.83 193.33 1740.91 195.553 Q1738.99 197.752 1738.99 201.525 L1738.99 216.178 L1734.71 216.178 L1734.71 190.252 L1738.99 190.252 L1738.99 194.28 Q1740.45 191.895 1742.48 190.761 Q1744.52 189.627 1747.32 189.627 Q1750.15 189.627 1752.11 191.062 Q1754.1 192.497 1755.05 195.229 Z" fill="#000000" fill-rule="nonzero" fill-opacity="1"></path><path clip-path="url(#clip270)" d="M1800.24 212.289 L1800.24 226.039 L1795.96 226.039 L1795.96 190.252 L1800.24 190.252 L1800.24 194.187 Q1801.58 191.872 1803.62 190.761 Q1805.68 189.627 1808.53 189.627 Q1813.25 189.627 1816.19 193.377 Q1819.15 197.127 1819.15 203.238 Q1819.15 209.349 1816.19 213.099 Q1813.25 216.849 1808.53 216.849 Q1805.68 216.849 1803.62 215.738 Q1801.58 214.603 1800.24 212.289 M1814.73 203.238 Q1814.73 198.539 1812.78 195.877 Q1810.86 193.192 1807.48 193.192 Q1804.1 193.192 1802.16 195.877 Q1800.24 198.539 1800.24 203.238 Q1800.24 207.937 1802.16 210.622 Q1804.1 213.284 1807.48 213.284 Q1810.86 213.284 1812.78 210.622 Q1814.73 207.937 1814.73 203.238 Z" fill="#000000" fill-rule="nonzero" fill-opacity="1"></path><path clip-path="url(#clip270)" d="M1841.23 194.233 Q1840.52 193.817 1839.66 193.631 Q1838.83 193.423 1837.81 193.423 Q1834.2 193.423 1832.25 195.784 Q1830.33 198.122 1830.33 202.52 L1830.33 216.178 L1826.05 216.178 L1826.05 190.252 L1830.33 190.252 L1830.33 194.28 Q1831.67 191.918 1833.83 190.784 Q1835.98 189.627 1839.06 189.627 Q1839.5 189.627 1840.03 189.696 Q1840.56 189.743 1841.21 189.858 L1841.23 194.233 Z" fill="#000000" fill-rule="nonzero" fill-opacity="1"></path><path clip-path="url(#clip270)" d="M1866.84 202.15 L1866.84 204.233 L1847.25 204.233 Q1847.53 208.631 1849.89 210.946 Q1852.28 213.238 1856.51 213.238 Q1858.96 213.238 1861.26 212.636 Q1863.57 212.034 1865.84 210.83 L1865.84 214.858 Q1863.55 215.83 1861.14 216.34 Q1858.73 216.849 1856.26 216.849 Q1850.05 216.849 1846.42 213.238 Q1842.81 209.627 1842.81 203.469 Q1842.81 197.104 1846.23 193.377 Q1849.68 189.627 1855.52 189.627 Q1860.75 189.627 1863.78 193.006 Q1866.84 196.363 1866.84 202.15 M1862.58 200.9 Q1862.53 197.405 1860.61 195.321 Q1858.71 193.238 1855.56 193.238 Q1852 193.238 1849.84 195.252 Q1847.71 197.266 1847.39 200.923 L1862.58 200.9 Z" fill="#000000" fill-rule="nonzero" fill-opacity="1"></path><path clip-path="url(#clip270)" d="M1890.35 191.016 L1890.35 195.043 Q1888.55 194.117 1886.6 193.655 Q1884.66 193.192 1882.58 193.192 Q1879.4 193.192 1877.81 194.164 Q1876.23 195.136 1876.23 197.08 Q1876.23 198.562 1877.37 199.418 Q1878.5 200.252 1881.93 201.016 L1883.39 201.34 Q1887.92 202.312 1889.82 204.094 Q1891.74 205.854 1891.74 209.025 Q1891.74 212.636 1888.87 214.742 Q1886.02 216.849 1881.02 216.849 Q1878.94 216.849 1876.67 216.432 Q1874.43 216.039 1871.93 215.228 L1871.93 210.83 Q1874.29 212.057 1876.58 212.682 Q1878.87 213.284 1881.12 213.284 Q1884.13 213.284 1885.75 212.266 Q1887.37 211.224 1887.37 209.349 Q1887.37 207.613 1886.19 206.687 Q1885.03 205.761 1881.07 204.904 L1879.59 204.557 Q1875.63 203.724 1873.87 202.011 Q1872.11 200.275 1872.11 197.266 Q1872.11 193.608 1874.71 191.618 Q1877.3 189.627 1882.07 189.627 Q1884.43 189.627 1886.51 189.974 Q1888.59 190.321 1890.35 191.016 Z" fill="#000000" fill-rule="nonzero" fill-opacity="1"></path><path clip-path="url(#clip270)" d="M1915.05 191.016 L1915.05 195.043 Q1913.25 194.117 1911.3 193.655 Q1909.36 193.192 1907.27 193.192 Q1904.1 193.192 1902.51 194.164 Q1900.93 195.136 1900.93 197.08 Q1900.93 198.562 1902.07 199.418 Q1903.2 200.252 1906.63 201.016 L1908.08 201.34 Q1912.62 202.312 1914.52 204.094 Q1916.44 205.854 1916.44 209.025 Q1916.44 212.636 1913.57 214.742 Q1910.72 216.849 1905.72 216.849 Q1903.64 216.849 1901.37 216.432 Q1899.13 216.039 1896.63 215.228 L1896.63 210.83 Q1898.99 212.057 1901.28 212.682 Q1903.57 213.284 1905.82 213.284 Q1908.83 213.284 1910.45 212.266 Q1912.07 211.224 1912.07 209.349 Q1912.07 207.613 1910.89 206.687 Q1909.73 205.761 1905.77 204.904 L1904.29 204.557 Q1900.33 203.724 1898.57 202.011 Q1896.81 200.275 1896.81 197.266 Q1896.81 193.608 1899.4 191.618 Q1902 189.627 1906.77 189.627 Q1909.13 189.627 1911.21 189.974 Q1913.29 190.321 1915.05 191.016 Z" fill="#000000" fill-rule="nonzero" fill-opacity="1"></path><path clip-path="url(#clip270)" d="M1922.78 205.946 L1922.78 190.252 L1927.04 190.252 L1927.04 205.784 Q1927.04 209.465 1928.48 211.316 Q1929.91 213.145 1932.78 213.145 Q1936.23 213.145 1938.22 210.946 Q1940.24 208.747 1940.24 204.951 L1940.24 190.252 L1944.5 190.252 L1944.5 216.178 L1940.24 216.178 L1940.24 212.196 Q1938.69 214.557 1936.63 215.715 Q1934.59 216.849 1931.88 216.849 Q1927.41 216.849 1925.1 214.071 Q1922.78 211.293 1922.78 205.946 M1933.5 189.627 L1933.5 189.627 Z" fill="#000000" fill-rule="nonzero" fill-opacity="1"></path><path clip-path="url(#clip270)" d="M1968.29 194.233 Q1967.58 193.817 1966.72 193.631 Q1965.89 193.423 1964.87 193.423 Q1961.26 193.423 1959.31 195.784 Q1957.39 198.122 1957.39 202.52 L1957.39 216.178 L1953.11 216.178 L1953.11 190.252 L1957.39 190.252 L1957.39 194.28 Q1958.73 191.918 1960.89 190.784 Q1963.04 189.627 1966.12 189.627 Q1966.56 189.627 1967.09 189.696 Q1967.62 189.743 1968.27 189.858 L1968.29 194.233 Z" fill="#000000" fill-rule="nonzero" fill-opacity="1"></path><path clip-path="url(#clip270)" d="M1993.89 202.15 L1993.89 204.233 L1974.31 204.233 Q1974.59 208.631 1976.95 210.946 Q1979.33 213.238 1983.57 213.238 Q1986.02 213.238 1988.32 212.636 Q1990.63 212.034 1992.9 210.83 L1992.9 214.858 Q1990.61 215.83 1988.2 216.34 Q1985.79 216.849 1983.32 216.849 Q1977.11 216.849 1973.48 213.238 Q1969.87 209.627 1969.87 203.469 Q1969.87 197.104 1973.29 193.377 Q1976.74 189.627 1982.58 189.627 Q1987.81 189.627 1990.84 193.006 Q1993.89 196.363 1993.89 202.15 M1989.64 200.9 Q1989.59 197.405 1987.67 195.321 Q1985.77 193.238 1982.62 193.238 Q1979.06 193.238 1976.9 195.252 Q1974.77 197.266 1974.45 200.923 L1989.64 200.9 Z" fill="#000000" fill-rule="nonzero" fill-opacity="1"></path><path clip-path="url(#clip270)" d="M2042.02 184.28 L2042.02 189.21 Q2039.66 187.011 2036.97 185.923 Q2034.31 184.835 2031.3 184.835 Q2025.38 184.835 2022.23 188.469 Q2019.08 192.08 2019.08 198.932 Q2019.08 205.761 2022.23 209.395 Q2025.38 213.006 2031.3 213.006 Q2034.31 213.006 2036.97 211.918 Q2039.66 210.83 2042.02 208.631 L2042.02 213.516 Q2039.57 215.182 2036.81 216.016 Q2034.08 216.849 2031.02 216.849 Q2023.18 216.849 2018.66 212.057 Q2014.15 207.242 2014.15 198.932 Q2014.15 190.599 2018.66 185.807 Q2023.18 180.993 2031.02 180.993 Q2034.13 180.993 2036.86 181.826 Q2039.61 182.636 2042.02 184.28 Z" fill="#000000" fill-rule="nonzero" fill-opacity="1"></path><path clip-path="url(#clip270)" d="M2059.1 193.238 Q2055.68 193.238 2053.69 195.923 Q2051.7 198.585 2051.7 203.238 Q2051.7 207.891 2053.66 210.576 Q2055.65 213.238 2059.1 213.238 Q2062.51 213.238 2064.5 210.553 Q2066.49 207.867 2066.49 203.238 Q2066.49 198.631 2064.5 195.946 Q2062.51 193.238 2059.1 193.238 M2059.1 189.627 Q2064.66 189.627 2067.83 193.238 Q2071 196.849 2071 203.238 Q2071 209.604 2067.83 213.238 Q2064.66 216.849 2059.1 216.849 Q2053.52 216.849 2050.35 213.238 Q2047.2 209.604 2047.2 203.238 Q2047.2 196.849 2050.35 193.238 Q2053.52 189.627 2059.1 189.627 Z" fill="#000000" fill-rule="nonzero" fill-opacity="1"></path><path clip-path="url(#clip270)" d="M2099.61 200.529 L2099.61 216.178 L2095.35 216.178 L2095.35 200.668 Q2095.35 196.988 2093.92 195.159 Q2092.48 193.33 2089.61 193.33 Q2086.16 193.33 2084.17 195.53 Q2082.18 197.729 2082.18 201.525 L2082.18 216.178 L2077.9 216.178 L2077.9 190.252 L2082.18 190.252 L2082.18 194.28 Q2083.71 191.942 2085.77 190.784 Q2087.85 189.627 2090.56 189.627 Q2095.03 189.627 2097.32 192.405 Q2099.61 195.159 2099.61 200.529 Z" fill="#000000" fill-rule="nonzero" fill-opacity="1"></path><path clip-path="url(#clip270)" d="M2124.63 191.016 L2124.63 195.043 Q2122.83 194.117 2120.88 193.655 Q2118.94 193.192 2116.86 193.192 Q2113.69 193.192 2112.09 194.164 Q2110.51 195.136 2110.51 197.08 Q2110.51 198.562 2111.65 199.418 Q2112.78 200.252 2116.21 201.016 L2117.67 201.34 Q2122.2 202.312 2124.1 204.094 Q2126.02 205.854 2126.02 209.025 Q2126.02 212.636 2123.15 214.742 Q2120.31 216.849 2115.31 216.849 Q2113.22 216.849 2110.95 216.432 Q2108.71 216.039 2106.21 215.228 L2106.21 210.83 Q2108.57 212.057 2110.86 212.682 Q2113.15 213.284 2115.4 213.284 Q2118.41 213.284 2120.03 212.266 Q2121.65 211.224 2121.65 209.349 Q2121.65 207.613 2120.47 206.687 Q2119.31 205.761 2115.35 204.904 L2113.87 204.557 Q2109.91 203.724 2108.15 202.011 Q2106.39 200.275 2106.39 197.266 Q2106.39 193.608 2108.99 191.618 Q2111.58 189.627 2116.35 189.627 Q2118.71 189.627 2120.79 189.974 Q2122.88 190.321 2124.63 191.016 Z" fill="#000000" fill-rule="nonzero" fill-opacity="1"></path><path clip-path="url(#clip270)" d="M2137.02 182.891 L2137.02 190.252 L2145.79 190.252 L2145.79 193.562 L2137.02 193.562 L2137.02 207.636 Q2137.02 210.807 2137.88 211.71 Q2138.75 212.613 2141.42 212.613 L2145.79 212.613 L2145.79 216.178 L2141.42 216.178 Q2136.49 216.178 2134.61 214.349 Q2132.74 212.497 2132.74 207.636 L2132.74 193.562 L2129.61 193.562 L2129.61 190.252 L2132.74 190.252 L2132.74 182.891 L2137.02 182.891 Z" fill="#000000" fill-rule="nonzero" fill-opacity="1"></path><path clip-path="url(#clip270)" d="M2166.42 194.233 Q2165.7 193.817 2164.84 193.631 Q2164.01 193.423 2162.99 193.423 Q2159.38 193.423 2157.44 195.784 Q2155.51 198.122 2155.51 202.52 L2155.51 216.178 L2151.23 216.178 L2151.23 190.252 L2155.51 190.252 L2155.51 194.28 Q2156.86 191.918 2159.01 190.784 Q2161.16 189.627 2164.24 189.627 Q2164.68 189.627 2165.21 189.696 Q2165.75 189.743 2166.39 189.858 L2166.42 194.233 Z" fill="#000000" fill-rule="nonzero" fill-opacity="1"></path><path clip-path="url(#clip270)" d="M2182.67 203.145 Q2177.5 203.145 2175.51 204.326 Q2173.52 205.506 2173.52 208.354 Q2173.52 210.622 2175 211.965 Q2176.51 213.284 2179.08 213.284 Q2182.62 213.284 2184.75 210.784 Q2186.9 208.261 2186.9 204.094 L2186.9 203.145 L2182.67 203.145 M2191.16 201.386 L2191.16 216.178 L2186.9 216.178 L2186.9 212.242 Q2185.44 214.603 2183.27 215.738 Q2181.09 216.849 2177.94 216.849 Q2173.96 216.849 2171.6 214.627 Q2169.26 212.381 2169.26 208.631 Q2169.26 204.256 2172.18 202.034 Q2175.12 199.812 2180.93 199.812 L2186.9 199.812 L2186.9 199.395 Q2186.9 196.455 2184.96 194.858 Q2183.04 193.238 2179.54 193.238 Q2177.32 193.238 2175.21 193.77 Q2173.11 194.303 2171.16 195.367 L2171.16 191.432 Q2173.5 190.53 2175.7 190.09 Q2177.9 189.627 2179.98 189.627 Q2185.61 189.627 2188.38 192.543 Q2191.16 195.46 2191.16 201.386 Z" fill="#000000" fill-rule="nonzero" fill-opacity="1"></path><path clip-path="url(#clip270)" d="M2199.94 190.252 L2204.19 190.252 L2204.19 216.178 L2199.94 216.178 L2199.94 190.252 M2199.94 180.159 L2204.19 180.159 L2204.19 185.553 L2199.94 185.553 L2199.94 180.159 Z" fill="#000000" fill-rule="nonzero" fill-opacity="1"></path><path clip-path="url(#clip270)" d="M2234.66 200.529 L2234.66 216.178 L2230.4 216.178 L2230.4 200.668 Q2230.4 196.988 2228.96 195.159 Q2227.53 193.33 2224.66 193.33 Q2221.21 193.33 2219.22 195.53 Q2217.23 197.729 2217.23 201.525 L2217.23 216.178 L2212.94 216.178 L2212.94 190.252 L2217.23 190.252 L2217.23 194.28 Q2218.75 191.942 2220.81 190.784 Q2222.9 189.627 2225.61 189.627 Q2230.07 189.627 2232.37 192.405 Q2234.66 195.159 2234.66 200.529 Z" fill="#000000" fill-rule="nonzero" fill-opacity="1"></path><path clip-path="url(#clip270)" d="M2247.37 182.891 L2247.37 190.252 L2256.14 190.252 L2256.14 193.562 L2247.37 193.562 L2247.37 207.636 Q2247.37 210.807 2248.22 211.71 Q2249.1 212.613 2251.76 212.613 L2256.14 212.613 L2256.14 216.178 L2251.76 216.178 Q2246.83 216.178 2244.96 214.349 Q2243.08 212.497 2243.08 207.636 L2243.08 193.562 L2239.96 193.562 L2239.96 190.252 L2243.08 190.252 L2243.08 182.891 L2247.37 182.891 Z" fill="#000000" fill-rule="nonzero" fill-opacity="1"></path><polyline clip-path="url(#clip270)" style="stroke:#3da44d; stroke-linecap:round; stroke-linejoin:round; stroke-width:4; stroke-opacity:1; fill:none" points="1423.17,250.738 1568.1,250.738 "></polyline>
<path clip-path="url(#clip270)" d="M1608.27 236.629 Q1603.18 236.629 1600.17 240.425 Q1597.18 244.221 1597.18 250.772 Q1597.18 257.3 1600.17 261.096 Q1603.18 264.893 1608.27 264.893 Q1613.36 264.893 1616.33 261.096 Q1619.31 257.3 1619.31 250.772 Q1619.31 244.221 1616.33 240.425 Q1613.36 236.629 1608.27 236.629 M1608.27 232.833 Q1615.54 232.833 1619.89 237.717 Q1624.24 242.578 1624.24 250.772 Q1624.24 258.944 1619.89 263.828 Q1615.54 268.689 1608.27 268.689 Q1600.98 268.689 1596.61 263.828 Q1592.25 258.967 1592.25 250.772 Q1592.25 242.578 1596.61 237.717 Q1600.98 232.833 1608.27 232.833 Z" fill="#000000" fill-rule="nonzero" fill-opacity="1"></path><path clip-path="url(#clip270)" d="M1649.98 255.078 Q1649.98 250.379 1648.04 247.717 Q1646.12 245.032 1642.74 245.032 Q1639.36 245.032 1637.42 247.717 Q1635.49 250.379 1635.49 255.078 Q1635.49 259.777 1637.42 262.462 Q1639.36 265.124 1642.74 265.124 Q1646.12 265.124 1648.04 262.462 Q1649.98 259.777 1649.98 255.078 M1635.49 246.027 Q1636.84 243.712 1638.87 242.601 Q1640.93 241.467 1643.78 241.467 Q1648.5 241.467 1651.44 245.217 Q1654.41 248.967 1654.41 255.078 Q1654.41 261.189 1651.44 264.939 Q1648.5 268.689 1643.78 268.689 Q1640.93 268.689 1638.87 267.578 Q1636.84 266.443 1635.49 264.129 L1635.49 268.018 L1631.21 268.018 L1631.21 231.999 L1635.49 231.999 L1635.49 246.027 Z" fill="#000000" fill-rule="nonzero" fill-opacity="1"></path><path clip-path="url(#clip270)" d="M1661.47 242.092 L1665.73 242.092 L1665.73 268.481 Q1665.73 273.434 1663.83 275.656 Q1661.95 277.879 1657.76 277.879 L1656.14 277.879 L1656.14 274.268 L1657.28 274.268 Q1659.71 274.268 1660.59 273.133 Q1661.47 272.022 1661.47 268.481 L1661.47 242.092 M1661.47 231.999 L1665.73 231.999 L1665.73 237.393 L1661.47 237.393 L1661.47 231.999 Z" fill="#000000" fill-rule="nonzero" fill-opacity="1"></path><path clip-path="url(#clip270)" d="M1696.81 253.99 L1696.81 256.073 L1677.23 256.073 Q1677.51 260.471 1679.87 262.786 Q1682.25 265.078 1686.49 265.078 Q1688.94 265.078 1691.23 264.476 Q1693.55 263.874 1695.82 262.67 L1695.82 266.698 Q1693.53 267.67 1691.12 268.18 Q1688.71 268.689 1686.23 268.689 Q1680.03 268.689 1676.4 265.078 Q1672.79 261.467 1672.79 255.309 Q1672.79 248.944 1676.21 245.217 Q1679.66 241.467 1685.49 241.467 Q1690.72 241.467 1693.76 244.846 Q1696.81 248.203 1696.81 253.99 M1692.55 252.74 Q1692.51 249.245 1690.59 247.161 Q1688.69 245.078 1685.54 245.078 Q1681.98 245.078 1679.82 247.092 Q1677.69 249.106 1677.37 252.763 L1692.55 252.74 Z" fill="#000000" fill-rule="nonzero" fill-opacity="1"></path><path clip-path="url(#clip270)" d="M1722.46 243.087 L1722.46 247.069 Q1720.66 246.073 1718.83 245.587 Q1717.02 245.078 1715.17 245.078 Q1711.03 245.078 1708.73 247.717 Q1706.44 250.332 1706.44 255.078 Q1706.44 259.823 1708.73 262.462 Q1711.03 265.078 1715.17 265.078 Q1717.02 265.078 1718.83 264.592 Q1720.66 264.082 1722.46 263.087 L1722.46 267.022 Q1720.68 267.856 1718.76 268.272 Q1716.86 268.689 1714.71 268.689 Q1708.85 268.689 1705.4 265.008 Q1701.95 261.328 1701.95 255.078 Q1701.95 248.735 1705.42 245.101 Q1708.92 241.467 1714.98 241.467 Q1716.95 241.467 1718.83 241.883 Q1720.7 242.277 1722.46 243.087 Z" fill="#000000" fill-rule="nonzero" fill-opacity="1"></path><path clip-path="url(#clip270)" d="M1734.08 234.731 L1734.08 242.092 L1742.85 242.092 L1742.85 245.402 L1734.08 245.402 L1734.08 259.476 Q1734.08 262.647 1734.94 263.55 Q1735.82 264.453 1738.48 264.453 L1742.85 264.453 L1742.85 268.018 L1738.48 268.018 Q1733.55 268.018 1731.67 266.189 Q1729.8 264.337 1729.8 259.476 L1729.8 245.402 L1726.67 245.402 L1726.67 242.092 L1729.8 242.092 L1729.8 234.731 L1734.08 234.731 Z" fill="#000000" fill-rule="nonzero" fill-opacity="1"></path><path clip-path="url(#clip270)" d="M1748.46 242.092 L1752.72 242.092 L1752.72 268.018 L1748.46 268.018 L1748.46 242.092 M1748.46 231.999 L1752.72 231.999 L1752.72 237.393 L1748.46 237.393 L1748.46 231.999 Z" fill="#000000" fill-rule="nonzero" fill-opacity="1"></path><path clip-path="url(#clip270)" d="M1758.57 242.092 L1763.09 242.092 L1771.19 263.851 L1779.29 242.092 L1783.8 242.092 L1774.08 268.018 L1768.29 268.018 L1758.57 242.092 Z" fill="#000000" fill-rule="nonzero" fill-opacity="1"></path><path clip-path="url(#clip270)" d="M1811.86 253.99 L1811.86 256.073 L1792.28 256.073 Q1792.55 260.471 1794.91 262.786 Q1797.3 265.078 1801.53 265.078 Q1803.99 265.078 1806.28 264.476 Q1808.59 263.874 1810.86 262.67 L1810.86 266.698 Q1808.57 267.67 1806.16 268.18 Q1803.76 268.689 1801.28 268.689 Q1795.08 268.689 1791.44 265.078 Q1787.83 261.467 1787.83 255.309 Q1787.83 248.944 1791.26 245.217 Q1794.71 241.467 1800.54 241.467 Q1805.77 241.467 1808.8 244.846 Q1811.86 248.203 1811.86 253.99 M1807.6 252.74 Q1807.55 249.245 1805.63 247.161 Q1803.73 245.078 1800.59 245.078 Q1797.02 245.078 1794.87 247.092 Q1792.74 249.106 1792.41 252.763 L1807.6 252.74 Z" fill="#000000" fill-rule="nonzero" fill-opacity="1"></path></svg>