<svg xmlns="http://www.w3.org/2000/svg" xmlns:xlink="http://www.w3.org/1999/xlink" width="600" height="400" viewBox="0 0 2400 1600">
<defs>
  <clipPath id="clip870">
    <rect x="0" y="0" width="2400" height="1600"></rect>
  </clipPath>
</defs>
<path clip-path="url(#clip870)" d="M0 1600 L2400 1600 L2400 0 L0 0  Z" fill="#ffffff" fill-rule="evenodd" fill-opacity="1"></path>
<defs>
  <clipPath id="clip871">
    <rect x="480" y="0" width="1681" height="1600"></rect>
  </clipPath>
</defs>
<path clip-path="url(#clip870)" d="M154.515 1486.45 L2352.76 1486.45 L2352.76 47.2441 L154.515 47.2441  Z" fill="#ffffff" fill-rule="evenodd" fill-opacity="1"></path>
<defs>
  <clipPath id="clip872">
    <rect x="154" y="47" width="2199" height="1440"></rect>
  </clipPath>
</defs>
<polyline clip-path="url(#clip872)" style="stroke:#000000; stroke-linecap:round; stroke-linejoin:round; stroke-width:2; stroke-opacity:0.1; fill:none" points="590.135,1486.45 590.135,47.2441 "></polyline>
<polyline clip-path="url(#clip872)" style="stroke:#000000; stroke-linecap:round; stroke-linejoin:round; stroke-width:2; stroke-opacity:0.1; fill:none" points="1033.96,1486.45 1033.96,47.2441 "></polyline>
<polyline clip-path="url(#clip872)" style="stroke:#000000; stroke-linecap:round; stroke-linejoin:round; stroke-width:2; stroke-opacity:0.1; fill:none" points="1477.79,1486.45 1477.79,47.2441 "></polyline>
<polyline clip-path="url(#clip872)" style="stroke:#000000; stroke-linecap:round; stroke-linejoin:round; stroke-width:2; stroke-opacity:0.1; fill:none" points="1921.61,1486.45 1921.61,47.2441 "></polyline>
<polyline clip-path="url(#clip870)" style="stroke:#000000; stroke-linecap:round; stroke-linejoin:round; stroke-width:4; stroke-opacity:1; fill:none" points="154.515,1486.45 2352.76,1486.45 "></polyline>
<polyline clip-path="url(#clip870)" style="stroke:#000000; stroke-linecap:round; stroke-linejoin:round; stroke-width:4; stroke-opacity:1; fill:none" points="590.135,1486.45 590.135,1467.55 "></polyline>
<polyline clip-path="url(#clip870)" style="stroke:#000000; stroke-linecap:round; stroke-linejoin:round; stroke-width:4; stroke-opacity:1; fill:none" points="1033.96,1486.45 1033.96,1467.55 "></polyline>
<polyline clip-path="url(#clip870)" style="stroke:#000000; stroke-linecap:round; stroke-linejoin:round; stroke-width:4; stroke-opacity:1; fill:none" points="1477.79,1486.45 1477.79,1467.55 "></polyline>
<polyline clip-path="url(#clip870)" style="stroke:#000000; stroke-linecap:round; stroke-linejoin:round; stroke-width:4; stroke-opacity:1; fill:none" points="1921.61,1486.45 1921.61,1467.55 "></polyline>
<path clip-path="url(#clip870)" d="M568.318 1517.37 Q564.707 1517.37 562.879 1520.93 Q561.073 1524.47 561.073 1531.6 Q561.073 1538.71 562.879 1542.27 Q564.707 1545.82 568.318 1545.82 Q571.953 1545.82 573.758 1542.27 Q575.587 1538.71 575.587 1531.6 Q575.587 1524.47 573.758 1520.93 Q571.953 1517.37 568.318 1517.37 M568.318 1513.66 Q574.129 1513.66 577.184 1518.27 Q580.263 1522.85 580.263 1531.6 Q580.263 1540.33 577.184 1544.94 Q574.129 1549.52 568.318 1549.52 Q562.508 1549.52 559.43 1544.94 Q556.374 1540.33 556.374 1531.6 Q556.374 1522.85 559.43 1518.27 Q562.508 1513.66 568.318 1513.66 Z" fill="#000000" fill-rule="nonzero" fill-opacity="1"></path><path clip-path="url(#clip870)" d="M588.48 1542.97 L593.365 1542.97 L593.365 1548.85 L588.48 1548.85 L588.48 1542.97 Z" fill="#000000" fill-rule="nonzero" fill-opacity="1"></path><path clip-path="url(#clip870)" d="M607.577 1544.91 L623.897 1544.91 L623.897 1548.85 L601.953 1548.85 L601.953 1544.91 Q604.615 1542.16 609.198 1537.53 Q613.804 1532.88 614.985 1531.53 Q617.23 1529.01 618.11 1527.27 Q619.013 1525.51 619.013 1523.82 Q619.013 1521.07 617.068 1519.33 Q615.147 1517.6 612.045 1517.6 Q609.846 1517.6 607.392 1518.36 Q604.962 1519.13 602.184 1520.68 L602.184 1515.95 Q605.008 1514.82 607.462 1514.24 Q609.915 1513.66 611.952 1513.66 Q617.323 1513.66 620.517 1516.35 Q623.712 1519.03 623.712 1523.52 Q623.712 1525.65 622.901 1527.57 Q622.114 1529.47 620.008 1532.07 Q619.429 1532.74 616.327 1535.95 Q613.226 1539.15 607.577 1544.91 Z" fill="#000000" fill-rule="nonzero" fill-opacity="1"></path><path clip-path="url(#clip870)" d="M1011.1 1517.37 Q1007.49 1517.37 1005.66 1520.93 Q1003.86 1524.47 1003.86 1531.6 Q1003.86 1538.71 1005.66 1542.27 Q1007.49 1545.82 1011.1 1545.82 Q1014.74 1545.82 1016.54 1542.27 Q1018.37 1538.71 1018.37 1531.6 Q1018.37 1524.47 1016.54 1520.93 Q1014.74 1517.37 1011.1 1517.37 M1011.1 1513.66 Q1016.91 1513.66 1019.97 1518.27 Q1023.05 1522.85 1023.05 1531.6 Q1023.05 1540.33 1019.97 1544.94 Q1016.91 1549.52 1011.1 1549.52 Q1005.29 1549.52 1002.21 1544.94 Q999.157 1540.33 999.157 1531.6 Q999.157 1522.85 1002.21 1518.27 Q1005.29 1513.66 1011.1 1513.66 Z" fill="#000000" fill-rule="nonzero" fill-opacity="1"></path><path clip-path="url(#clip870)" d="M1031.26 1542.97 L1036.15 1542.97 L1036.15 1548.85 L1031.26 1548.85 L1031.26 1542.97 Z" fill="#000000" fill-rule="nonzero" fill-opacity="1"></path><path clip-path="url(#clip870)" d="M1059.18 1518.36 L1047.37 1536.81 L1059.18 1536.81 L1059.18 1518.36 M1057.95 1514.29 L1063.83 1514.29 L1063.83 1536.81 L1068.76 1536.81 L1068.76 1540.7 L1063.83 1540.7 L1063.83 1548.85 L1059.18 1548.85 L1059.18 1540.7 L1043.58 1540.7 L1043.58 1536.19 L1057.95 1514.29 Z" fill="#000000" fill-rule="nonzero" fill-opacity="1"></path><path clip-path="url(#clip870)" d="M1455.09 1517.37 Q1451.48 1517.37 1449.65 1520.93 Q1447.84 1524.47 1447.84 1531.6 Q1447.84 1538.71 1449.65 1542.27 Q1451.48 1545.82 1455.09 1545.82 Q1458.72 1545.82 1460.53 1542.27 Q1462.36 1538.71 1462.36 1531.6 Q1462.36 1524.47 1460.53 1520.93 Q1458.72 1517.37 1455.09 1517.37 M1455.09 1513.66 Q1460.9 1513.66 1463.95 1518.27 Q1467.03 1522.85 1467.03 1531.6 Q1467.03 1540.33 1463.95 1544.94 Q1460.9 1549.52 1455.09 1549.52 Q1449.28 1549.52 1446.2 1544.94 Q1443.14 1540.33 1443.14 1531.6 Q1443.14 1522.85 1446.2 1518.27 Q1449.28 1513.66 1455.09 1513.66 Z" fill="#000000" fill-rule="nonzero" fill-opacity="1"></path><path clip-path="url(#clip870)" d="M1475.25 1542.97 L1480.13 1542.97 L1480.13 1548.85 L1475.25 1548.85 L1475.25 1542.97 Z" fill="#000000" fill-rule="nonzero" fill-opacity="1"></path><path clip-path="url(#clip870)" d="M1500.9 1529.7 Q1497.75 1529.7 1495.9 1531.86 Q1494.07 1534.01 1494.07 1537.76 Q1494.07 1541.49 1495.9 1543.66 Q1497.75 1545.82 1500.9 1545.82 Q1504.05 1545.82 1505.88 1543.66 Q1507.73 1541.49 1507.73 1537.76 Q1507.73 1534.01 1505.88 1531.86 Q1504.05 1529.7 1500.9 1529.7 M1510.18 1515.05 L1510.18 1519.31 Q1508.42 1518.48 1506.62 1518.04 Q1504.83 1517.6 1503.07 1517.6 Q1498.44 1517.6 1495.99 1520.72 Q1493.56 1523.85 1493.21 1530.17 Q1494.58 1528.15 1496.64 1527.09 Q1498.7 1526 1501.18 1526 Q1506.38 1526 1509.39 1529.17 Q1512.43 1532.32 1512.43 1537.76 Q1512.43 1543.08 1509.28 1546.3 Q1506.13 1549.52 1500.9 1549.52 Q1494.9 1549.52 1491.73 1544.94 Q1488.56 1540.33 1488.56 1531.6 Q1488.56 1523.41 1492.45 1518.55 Q1496.34 1513.66 1502.89 1513.66 Q1504.65 1513.66 1506.43 1514.01 Q1508.24 1514.36 1510.18 1515.05 Z" fill="#000000" fill-rule="nonzero" fill-opacity="1"></path><path clip-path="url(#clip870)" d="M1899.04 1517.37 Q1895.43 1517.37 1893.6 1520.93 Q1891.8 1524.47 1891.8 1531.6 Q1891.8 1538.71 1893.6 1542.27 Q1895.43 1545.82 1899.04 1545.82 Q1902.68 1545.82 1904.48 1542.27 Q1906.31 1538.71 1906.31 1531.6 Q1906.31 1524.47 1904.48 1520.93 Q1902.68 1517.37 1899.04 1517.37 M1899.04 1513.66 Q1904.85 1513.66 1907.91 1518.27 Q1910.99 1522.85 1910.99 1531.6 Q1910.99 1540.33 1907.91 1544.94 Q1904.85 1549.52 1899.04 1549.52 Q1893.23 1549.52 1890.15 1544.94 Q1887.1 1540.33 1887.1 1531.6 Q1887.1 1522.85 1890.15 1518.27 Q1893.23 1513.66 1899.04 1513.66 Z" fill="#000000" fill-rule="nonzero" fill-opacity="1"></path><path clip-path="url(#clip870)" d="M1919.2 1542.97 L1924.09 1542.97 L1924.09 1548.85 L1919.2 1548.85 L1919.2 1542.97 Z" fill="#000000" fill-rule="nonzero" fill-opacity="1"></path><path clip-path="url(#clip870)" d="M1944.27 1532.44 Q1940.94 1532.44 1939.02 1534.22 Q1937.12 1536 1937.12 1539.13 Q1937.12 1542.25 1939.02 1544.03 Q1940.94 1545.82 1944.27 1545.82 Q1947.61 1545.82 1949.53 1544.03 Q1951.45 1542.23 1951.45 1539.13 Q1951.45 1536 1949.53 1534.22 Q1947.63 1532.44 1944.27 1532.44 M1939.6 1530.45 Q1936.59 1529.7 1934.9 1527.64 Q1933.23 1525.58 1933.23 1522.62 Q1933.23 1518.48 1936.17 1516.07 Q1939.13 1513.66 1944.27 1513.66 Q1949.43 1513.66 1952.37 1516.07 Q1955.31 1518.48 1955.31 1522.62 Q1955.31 1525.58 1953.62 1527.64 Q1951.96 1529.7 1948.97 1530.45 Q1952.35 1531.23 1954.23 1533.52 Q1956.12 1535.82 1956.12 1539.13 Q1956.12 1544.15 1953.05 1546.83 Q1949.99 1549.52 1944.27 1549.52 Q1938.55 1549.52 1935.48 1546.83 Q1932.42 1544.15 1932.42 1539.13 Q1932.42 1535.82 1934.32 1533.52 Q1936.22 1531.23 1939.6 1530.45 M1937.88 1523.06 Q1937.88 1525.75 1939.55 1527.25 Q1941.24 1528.76 1944.27 1528.76 Q1947.28 1528.76 1948.97 1527.25 Q1950.68 1525.75 1950.68 1523.06 Q1950.68 1520.38 1948.97 1518.87 Q1947.28 1517.37 1944.27 1517.37 Q1941.24 1517.37 1939.55 1518.87 Q1937.88 1520.38 1937.88 1523.06 Z" fill="#000000" fill-rule="nonzero" fill-opacity="1"></path><polyline clip-path="url(#clip872)" style="stroke:#000000; stroke-linecap:round; stroke-linejoin:round; stroke-width:2; stroke-opacity:0.1; fill:none" points="154.515,1326.25 2352.76,1326.25 "></polyline>
<polyline clip-path="url(#clip872)" style="stroke:#000000; stroke-linecap:round; stroke-linejoin:round; stroke-width:2; stroke-opacity:0.1; fill:none" points="154.515,1078.6 2352.76,1078.6 "></polyline>
<polyline clip-path="url(#clip872)" style="stroke:#000000; stroke-linecap:round; stroke-linejoin:round; stroke-width:2; stroke-opacity:0.1; fill:none" points="154.515,830.942 2352.76,830.942 "></polyline>
<polyline clip-path="url(#clip872)" style="stroke:#000000; stroke-linecap:round; stroke-linejoin:round; stroke-width:2; stroke-opacity:0.1; fill:none" points="154.515,583.287 2352.76,583.287 "></polyline>
<polyline clip-path="url(#clip872)" style="stroke:#000000; stroke-linecap:round; stroke-linejoin:round; stroke-width:2; stroke-opacity:0.1; fill:none" points="154.515,335.632 2352.76,335.632 "></polyline>
<polyline clip-path="url(#clip872)" style="stroke:#000000; stroke-linecap:round; stroke-linejoin:round; stroke-width:2; stroke-opacity:0.1; fill:none" points="154.515,87.9763 2352.76,87.9763 "></polyline>
<polyline clip-path="url(#clip870)" style="stroke:#000000; stroke-linecap:round; stroke-linejoin:round; stroke-width:4; stroke-opacity:1; fill:none" points="154.515,1486.45 154.515,47.2441 "></polyline>
<polyline clip-path="url(#clip870)" style="stroke:#000000; stroke-linecap:round; stroke-linejoin:round; stroke-width:4; stroke-opacity:1; fill:none" points="154.515,1326.25 173.413,1326.25 "></polyline>
<polyline clip-path="url(#clip870)" style="stroke:#000000; stroke-linecap:round; stroke-linejoin:round; stroke-width:4; stroke-opacity:1; fill:none" points="154.515,1078.6 173.413,1078.6 "></polyline>
<polyline clip-path="url(#clip870)" style="stroke:#000000; stroke-linecap:round; stroke-linejoin:round; stroke-width:4; stroke-opacity:1; fill:none" points="154.515,830.942 173.413,830.942 "></polyline>
<polyline clip-path="url(#clip870)" style="stroke:#000000; stroke-linecap:round; stroke-linejoin:round; stroke-width:4; stroke-opacity:1; fill:none" points="154.515,583.287 173.413,583.287 "></polyline>
<polyline clip-path="url(#clip870)" style="stroke:#000000; stroke-linecap:round; stroke-linejoin:round; stroke-width:4; stroke-opacity:1; fill:none" points="154.515,335.632 173.413,335.632 "></polyline>
<polyline clip-path="url(#clip870)" style="stroke:#000000; stroke-linecap:round; stroke-linejoin:round; stroke-width:4; stroke-opacity:1; fill:none" points="154.515,87.9763 173.413,87.9763 "></polyline>
<path clip-path="url(#clip870)" d="M52.1495 1339.6 L59.7884 1339.6 L59.7884 1313.23 L51.4782 1314.9 L51.4782 1310.64 L59.7421 1308.97 L64.418 1308.97 L64.418 1339.6 L72.0568 1339.6 L72.0568 1343.53 L52.1495 1343.53 L52.1495 1339.6 Z" fill="#000000" fill-rule="nonzero" fill-opacity="1"></path><path clip-path="url(#clip870)" d="M81.5012 1337.65 L86.3855 1337.65 L86.3855 1343.53 L81.5012 1343.53 L81.5012 1337.65 Z" fill="#000000" fill-rule="nonzero" fill-opacity="1"></path><path clip-path="url(#clip870)" d="M106.571 1312.05 Q102.959 1312.05 101.131 1315.62 Q99.3252 1319.16 99.3252 1326.29 Q99.3252 1333.39 101.131 1336.96 Q102.959 1340.5 106.571 1340.5 Q110.205 1340.5 112.01 1336.96 Q113.839 1333.39 113.839 1326.29 Q113.839 1319.16 112.01 1315.62 Q110.205 1312.05 106.571 1312.05 M106.571 1308.35 Q112.381 1308.35 115.436 1312.95 Q118.515 1317.54 118.515 1326.29 Q118.515 1335.01 115.436 1339.62 Q112.381 1344.2 106.571 1344.2 Q100.76 1344.2 97.6817 1339.62 Q94.6262 1335.01 94.6262 1326.29 Q94.6262 1317.54 97.6817 1312.95 Q100.76 1308.35 106.571 1308.35 Z" fill="#000000" fill-rule="nonzero" fill-opacity="1"></path><path clip-path="url(#clip870)" d="M53.3764 1091.94 L61.0152 1091.94 L61.0152 1065.58 L52.7051 1067.24 L52.7051 1062.98 L60.9689 1061.32 L65.6448 1061.32 L65.6448 1091.94 L73.2837 1091.94 L73.2837 1095.88 L53.3764 1095.88 L53.3764 1091.94 Z" fill="#000000" fill-rule="nonzero" fill-opacity="1"></path><path clip-path="url(#clip870)" d="M82.7281 1090 L87.6123 1090 L87.6123 1095.88 L82.7281 1095.88 L82.7281 1090 Z" fill="#000000" fill-rule="nonzero" fill-opacity="1"></path><path clip-path="url(#clip870)" d="M98.6076 1091.94 L106.246 1091.94 L106.246 1065.58 L97.9363 1067.24 L97.9363 1062.98 L106.2 1061.32 L110.876 1061.32 L110.876 1091.94 L118.515 1091.94 L118.515 1095.88 L98.6076 1095.88 L98.6076 1091.94 Z" fill="#000000" fill-rule="nonzero" fill-opacity="1"></path><path clip-path="url(#clip870)" d="M53.7467 844.287 L61.3856 844.287 L61.3856 817.921 L53.0754 819.588 L53.0754 815.329 L61.3393 813.662 L66.0152 813.662 L66.0152 844.287 L73.654 844.287 L73.654 848.222 L53.7467 848.222 L53.7467 844.287 Z" fill="#000000" fill-rule="nonzero" fill-opacity="1"></path><path clip-path="url(#clip870)" d="M83.0984 842.343 L87.9827 842.343 L87.9827 848.222 L83.0984 848.222 L83.0984 842.343 Z" fill="#000000" fill-rule="nonzero" fill-opacity="1"></path><path clip-path="url(#clip870)" d="M102.196 844.287 L118.515 844.287 L118.515 848.222 L96.5706 848.222 L96.5706 844.287 Q99.2326 841.532 103.816 836.903 Q108.422 832.25 109.603 830.907 Q111.848 828.384 112.728 826.648 Q113.631 824.889 113.631 823.199 Q113.631 820.445 111.686 818.708 Q109.765 816.972 106.663 816.972 Q104.464 816.972 102.01 817.736 Q99.5798 818.5 96.8021 820.051 L96.8021 815.329 Q99.6261 814.195 102.08 813.616 Q104.534 813.037 106.571 813.037 Q111.941 813.037 115.135 815.722 Q118.33 818.408 118.33 822.898 Q118.33 825.028 117.52 826.949 Q116.733 828.847 114.626 831.44 Q114.047 832.111 110.946 835.329 Q107.844 838.523 102.196 844.287 Z" fill="#000000" fill-rule="nonzero" fill-opacity="1"></path><path clip-path="url(#clip870)" d="M52.7977 596.632 L60.4365 596.632 L60.4365 570.266 L52.1264 571.933 L52.1264 567.674 L60.3902 566.007 L65.0661 566.007 L65.0661 596.632 L72.705 596.632 L72.705 600.567 L52.7977 600.567 L52.7977 596.632 Z" fill="#000000" fill-rule="nonzero" fill-opacity="1"></path><path clip-path="url(#clip870)" d="M82.1494 594.687 L87.0336 594.687 L87.0336 600.567 L82.1494 600.567 L82.1494 594.687 Z" fill="#000000" fill-rule="nonzero" fill-opacity="1"></path><path clip-path="url(#clip870)" d="M111.385 581.933 Q114.742 582.65 116.617 584.919 Q118.515 587.187 118.515 590.521 Q118.515 595.636 114.996 598.437 Q111.478 601.238 104.996 601.238 Q102.821 601.238 100.506 600.798 Q98.2141 600.382 95.7604 599.525 L95.7604 595.011 Q97.7048 596.146 100.02 596.724 Q102.334 597.303 104.858 597.303 Q109.256 597.303 111.547 595.567 Q113.862 593.831 113.862 590.521 Q113.862 587.465 111.709 585.752 Q109.58 584.016 105.76 584.016 L101.733 584.016 L101.733 580.173 L105.946 580.173 Q109.395 580.173 111.223 578.808 Q113.052 577.419 113.052 574.826 Q113.052 572.164 111.154 570.752 Q109.279 569.317 105.76 569.317 Q103.839 569.317 101.64 569.734 Q99.4409 570.15 96.8021 571.03 L96.8021 566.863 Q99.4641 566.123 101.779 565.752 Q104.117 565.382 106.177 565.382 Q111.501 565.382 114.603 567.812 Q117.705 570.22 117.705 574.34 Q117.705 577.211 116.061 579.201 Q114.418 581.169 111.385 581.933 Z" fill="#000000" fill-rule="nonzero" fill-opacity="1"></path><path clip-path="url(#clip870)" d="M51.6634 348.976 L59.3023 348.976 L59.3023 322.611 L50.9921 324.277 L50.9921 320.018 L59.256 318.352 L63.9319 318.352 L63.9319 348.976 L71.5707 348.976 L71.5707 352.912 L51.6634 352.912 L51.6634 348.976 Z" fill="#000000" fill-rule="nonzero" fill-opacity="1"></path><path clip-path="url(#clip870)" d="M81.0151 347.032 L85.8993 347.032 L85.8993 352.912 L81.0151 352.912 L81.0151 347.032 Z" fill="#000000" fill-rule="nonzero" fill-opacity="1"></path><path clip-path="url(#clip870)" d="M108.932 322.426 L97.1261 340.875 L108.932 340.875 L108.932 322.426 M107.705 318.352 L113.584 318.352 L113.584 340.875 L118.515 340.875 L118.515 344.763 L113.584 344.763 L113.584 352.912 L108.932 352.912 L108.932 344.763 L93.3299 344.763 L93.3299 340.25 L107.705 318.352 Z" fill="#000000" fill-rule="nonzero" fill-opacity="1"></path><path clip-path="url(#clip870)" d="M53.1449 101.321 L60.7837 101.321 L60.7837 74.9555 L52.4736 76.6222 L52.4736 72.3629 L60.7374 70.6963 L65.4133 70.6963 L65.4133 101.321 L73.0522 101.321 L73.0522 105.256 L53.1449 105.256 L53.1449 101.321 Z" fill="#000000" fill-rule="nonzero" fill-opacity="1"></path><path clip-path="url(#clip870)" d="M82.4966 99.3767 L87.3808 99.3767 L87.3808 105.256 L82.4966 105.256 L82.4966 99.3767 Z" fill="#000000" fill-rule="nonzero" fill-opacity="1"></path><path clip-path="url(#clip870)" d="M97.6122 70.6963 L115.969 70.6963 L115.969 74.6314 L101.895 74.6314 L101.895 83.1036 Q102.913 82.7564 103.932 82.5944 Q104.95 82.4092 105.969 82.4092 Q111.756 82.4092 115.135 85.5805 Q118.515 88.7517 118.515 94.1684 Q118.515 99.747 115.043 102.849 Q111.571 105.928 105.251 105.928 Q103.075 105.928 100.807 105.557 Q98.5613 105.187 96.1539 104.446 L96.1539 99.747 Q98.2372 100.881 100.459 101.437 Q102.682 101.992 105.159 101.992 Q109.163 101.992 111.501 99.8859 Q113.839 97.7795 113.839 94.1684 Q113.839 90.5573 111.501 88.4508 Q109.163 86.3443 105.159 86.3443 Q103.284 86.3443 101.409 86.761 Q99.5567 87.1777 97.6122 88.0573 L97.6122 70.6963 Z" fill="#000000" fill-rule="nonzero" fill-opacity="1"></path><polyline clip-path="url(#clip872)" style="stroke:#009af9; stroke-linecap:round; stroke-linejoin:round; stroke-width:4; stroke-opacity:1; fill:none" points="216.729,353.117 217.596,274.443 220.499,438.957 221.977,203.077 228.288,139.045 230.36,532.191 233.432,87.9763 247.804,632.613 274.263,739.049 311.896,851.579 363.498,964.987 427.487,1072.19 503.71,1175.15 594.348,1265.87 693.816,1334.8 796.823,1380.07 896.568,1405.11 990.454,1423.29 1081.59,1436.15 1172.29,1443.9 1262.59,1445.72 1352.84,1441.21 1442.24,1430.85 1532.68,1417.29 1626.05,1398.58 1725.71,1373.67 1828.27,1327.2 1928.16,1256.33 2017.67,1164.62 2093.63,1057.79 2154.8,946.825 2202.93,833.069 2237.31,721.118 2260.65,617.734 2271.96,87.9763 2276.43,521.948 2276.85,137.504 2284.82,198.993 2286.22,432.683 2289.97,270.395 2290.54,348.609 "></polyline>
<path clip-path="url(#clip870)" d="M227.79 1438.47 L500.044 1438.47 L500.044 1334.79 L227.79 1334.79  Z" fill="#ffffff" fill-rule="evenodd" fill-opacity="1"></path>
<polyline clip-path="url(#clip870)" style="stroke:#000000; stroke-linecap:round; stroke-linejoin:round; stroke-width:4; stroke-opacity:1; fill:none" points="227.79,1438.47 500.044,1438.47 500.044,1334.79 227.79,1334.79 227.79,1438.47 "></polyline>
<polyline clip-path="url(#clip870)" style="stroke:#009af9; stroke-linecap:round; stroke-linejoin:round; stroke-width:4; stroke-opacity:1; fill:none" points="252.215,1386.63 398.764,1386.63 "></polyline>
<path clip-path="url(#clip870)" d="M437.031 1406.32 Q435.226 1410.95 433.513 1412.36 Q431.8 1413.78 428.93 1413.78 L425.527 1413.78 L425.527 1410.21 L428.027 1410.21 Q429.786 1410.21 430.758 1409.38 Q431.73 1408.54 432.911 1405.44 L433.675 1403.5 L423.189 1377.99 L427.703 1377.99 L435.804 1398.27 L443.906 1377.99 L448.42 1377.99 L437.031 1406.32 Z" fill="#000000" fill-rule="nonzero" fill-opacity="1"></path><path clip-path="url(#clip870)" d="M455.712 1399.98 L463.351 1399.98 L463.351 1373.61 L455.04 1375.28 L455.04 1371.02 L463.304 1369.35 L467.98 1369.35 L467.98 1399.98 L475.619 1399.98 L475.619 1403.91 L455.712 1403.91 L455.712 1399.98 Z" fill="#000000" fill-rule="nonzero" fill-opacity="1"></path></svg>