<svg xmlns="http://www.w3.org/2000/svg" xmlns:xlink="http://www.w3.org/1999/xlink" width="600" height="400" viewBox="0 0 2400 1600">
<defs>
  <clipPath id="clip660">
    <rect x="0" y="0" width="2400" height="1600"></rect>
  </clipPath>
</defs>
<path clip-path="url(#clip660)" d="M0 1600 L2400 1600 L2400 0 L0 0  Z" fill="#ffffff" fill-rule="evenodd" fill-opacity="1"></path>
<defs>
  <clipPath id="clip661">
    <rect x="480" y="0" width="1681" height="1600"></rect>
  </clipPath>
</defs>
<path clip-path="url(#clip660)" d="M177.269 1486.45 L2352.76 1486.45 L2352.76 47.2441 L177.269 47.2441  Z" fill="#ffffff" fill-rule="evenodd" fill-opacity="1"></path>
<defs>
  <clipPath id="clip662">
    <rect x="177" y="47" width="2176" height="1440"></rect>
  </clipPath>
</defs>
<polyline clip-path="url(#clip662)" style="stroke:#000000; stroke-linecap:round; stroke-linejoin:round; stroke-width:2; stroke-opacity:0.1; fill:none" points="221.878,1486.45 221.878,47.2441 "></polyline>
<polyline clip-path="url(#clip662)" style="stroke:#000000; stroke-linecap:round; stroke-linejoin:round; stroke-width:2; stroke-opacity:0.1; fill:none" points="561.109,1486.45 561.109,47.2441 "></polyline>
<polyline clip-path="url(#clip662)" style="stroke:#000000; stroke-linecap:round; stroke-linejoin:round; stroke-width:2; stroke-opacity:0.1; fill:none" points="900.34,1486.45 900.34,47.2441 "></polyline>
<polyline clip-path="url(#clip662)" style="stroke:#000000; stroke-linecap:round; stroke-linejoin:round; stroke-width:2; stroke-opacity:0.1; fill:none" points="1239.57,1486.45 1239.57,47.2441 "></polyline>
<polyline clip-path="url(#clip662)" style="stroke:#000000; stroke-linecap:round; stroke-linejoin:round; stroke-width:2; stroke-opacity:0.1; fill:none" points="1578.8,1486.45 1578.8,47.2441 "></polyline>
<polyline clip-path="url(#clip662)" style="stroke:#000000; stroke-linecap:round; stroke-linejoin:round; stroke-width:2; stroke-opacity:0.1; fill:none" points="1918.03,1486.45 1918.03,47.2441 "></polyline>
<polyline clip-path="url(#clip662)" style="stroke:#000000; stroke-linecap:round; stroke-linejoin:round; stroke-width:2; stroke-opacity:0.1; fill:none" points="2257.26,1486.45 2257.26,47.2441 "></polyline>
<polyline clip-path="url(#clip660)" style="stroke:#000000; stroke-linecap:round; stroke-linejoin:round; stroke-width:4; stroke-opacity:1; fill:none" points="177.269,1486.45 2352.76,1486.45 "></polyline>
<polyline clip-path="url(#clip660)" style="stroke:#000000; stroke-linecap:round; stroke-linejoin:round; stroke-width:4; stroke-opacity:1; fill:none" points="221.878,1486.45 221.878,1467.55 "></polyline>
<polyline clip-path="url(#clip660)" style="stroke:#000000; stroke-linecap:round; stroke-linejoin:round; stroke-width:4; stroke-opacity:1; fill:none" points="561.109,1486.45 561.109,1467.55 "></polyline>
<polyline clip-path="url(#clip660)" style="stroke:#000000; stroke-linecap:round; stroke-linejoin:round; stroke-width:4; stroke-opacity:1; fill:none" points="900.34,1486.45 900.34,1467.55 "></polyline>
<polyline clip-path="url(#clip660)" style="stroke:#000000; stroke-linecap:round; stroke-linejoin:round; stroke-width:4; stroke-opacity:1; fill:none" points="1239.57,1486.45 1239.57,1467.55 "></polyline>
<polyline clip-path="url(#clip660)" style="stroke:#000000; stroke-linecap:round; stroke-linejoin:round; stroke-width:4; stroke-opacity:1; fill:none" points="1578.8,1486.45 1578.8,1467.55 "></polyline>
<polyline clip-path="url(#clip660)" style="stroke:#000000; stroke-linecap:round; stroke-linejoin:round; stroke-width:4; stroke-opacity:1; fill:none" points="1918.03,1486.45 1918.03,1467.55 "></polyline>
<polyline clip-path="url(#clip660)" style="stroke:#000000; stroke-linecap:round; stroke-linejoin:round; stroke-width:4; stroke-opacity:1; fill:none" points="2257.26,1486.45 2257.26,1467.55 "></polyline>
<path clip-path="url(#clip660)" d="M221.878 1517.37 Q218.267 1517.37 216.438 1520.93 Q214.633 1524.47 214.633 1531.6 Q214.633 1538.71 216.438 1542.27 Q218.267 1545.82 221.878 1545.82 Q225.512 1545.82 227.318 1542.27 Q229.147 1538.71 229.147 1531.6 Q229.147 1524.47 227.318 1520.93 Q225.512 1517.37 221.878 1517.37 M221.878 1513.66 Q227.688 1513.66 230.744 1518.27 Q233.823 1522.85 233.823 1531.6 Q233.823 1540.33 230.744 1544.94 Q227.688 1549.52 221.878 1549.52 Q216.068 1549.52 212.989 1544.94 Q209.934 1540.33 209.934 1531.6 Q209.934 1522.85 212.989 1518.27 Q216.068 1513.66 221.878 1513.66 Z" fill="#000000" fill-rule="nonzero" fill-opacity="1"></path><path clip-path="url(#clip660)" d="M539.882 1544.91 L556.202 1544.91 L556.202 1548.85 L534.257 1548.85 L534.257 1544.91 Q536.919 1542.16 541.503 1537.53 Q546.109 1532.88 547.29 1531.53 Q549.535 1529.01 550.415 1527.27 Q551.317 1525.51 551.317 1523.82 Q551.317 1521.07 549.373 1519.33 Q547.452 1517.6 544.35 1517.6 Q542.151 1517.6 539.697 1518.36 Q537.266 1519.13 534.489 1520.68 L534.489 1515.95 Q537.313 1514.82 539.766 1514.24 Q542.22 1513.66 544.257 1513.66 Q549.628 1513.66 552.822 1516.35 Q556.016 1519.03 556.016 1523.52 Q556.016 1525.65 555.206 1527.57 Q554.419 1529.47 552.313 1532.07 Q551.734 1532.74 548.632 1535.95 Q545.53 1539.15 539.882 1544.91 Z" fill="#000000" fill-rule="nonzero" fill-opacity="1"></path><path clip-path="url(#clip660)" d="M576.016 1517.37 Q572.405 1517.37 570.577 1520.93 Q568.771 1524.47 568.771 1531.6 Q568.771 1538.71 570.577 1542.27 Q572.405 1545.82 576.016 1545.82 Q579.651 1545.82 581.456 1542.27 Q583.285 1538.71 583.285 1531.6 Q583.285 1524.47 581.456 1520.93 Q579.651 1517.37 576.016 1517.37 M576.016 1513.66 Q581.826 1513.66 584.882 1518.27 Q587.961 1522.85 587.961 1531.6 Q587.961 1540.33 584.882 1544.94 Q581.826 1549.52 576.016 1549.52 Q570.206 1549.52 567.127 1544.94 Q564.072 1540.33 564.072 1531.6 Q564.072 1522.85 567.127 1518.27 Q570.206 1513.66 576.016 1513.66 Z" fill="#000000" fill-rule="nonzero" fill-opacity="1"></path><path clip-path="url(#clip660)" d="M888.511 1518.36 L876.706 1536.81 L888.511 1536.81 L888.511 1518.36 M887.284 1514.29 L893.164 1514.29 L893.164 1536.81 L898.094 1536.81 L898.094 1540.7 L893.164 1540.7 L893.164 1548.85 L888.511 1548.85 L888.511 1540.7 L872.909 1540.7 L872.909 1536.19 L887.284 1514.29 Z" fill="#000000" fill-rule="nonzero" fill-opacity="1"></path><path clip-path="url(#clip660)" d="M915.826 1517.37 Q912.215 1517.37 910.386 1520.93 Q908.58 1524.47 908.58 1531.6 Q908.58 1538.71 910.386 1542.27 Q912.215 1545.82 915.826 1545.82 Q919.46 1545.82 921.265 1542.27 Q923.094 1538.71 923.094 1531.6 Q923.094 1524.47 921.265 1520.93 Q919.46 1517.37 915.826 1517.37 M915.826 1513.66 Q921.636 1513.66 924.691 1518.27 Q927.77 1522.85 927.77 1531.6 Q927.77 1540.33 924.691 1544.94 Q921.636 1549.52 915.826 1549.52 Q910.016 1549.52 906.937 1544.94 Q903.881 1540.33 903.881 1531.6 Q903.881 1522.85 906.937 1518.27 Q910.016 1513.66 915.826 1513.66 Z" fill="#000000" fill-rule="nonzero" fill-opacity="1"></path><path clip-path="url(#clip660)" d="M1224.98 1529.7 Q1221.83 1529.7 1219.98 1531.86 Q1218.15 1534.01 1218.15 1537.76 Q1218.15 1541.49 1219.98 1543.66 Q1221.83 1545.82 1224.98 1545.82 Q1228.12 1545.82 1229.95 1543.66 Q1231.8 1541.49 1231.8 1537.76 Q1231.8 1534.01 1229.95 1531.86 Q1228.12 1529.7 1224.98 1529.7 M1234.26 1515.05 L1234.26 1519.31 Q1232.5 1518.48 1230.69 1518.04 Q1228.91 1517.6 1227.15 1517.6 Q1222.52 1517.6 1220.07 1520.72 Q1217.64 1523.85 1217.29 1530.17 Q1218.66 1528.15 1220.72 1527.09 Q1222.78 1526 1225.25 1526 Q1230.46 1526 1233.47 1529.17 Q1236.5 1532.32 1236.5 1537.76 Q1236.5 1543.08 1233.36 1546.3 Q1230.21 1549.52 1224.98 1549.52 Q1218.98 1549.52 1215.81 1544.94 Q1212.64 1540.33 1212.64 1531.6 Q1212.64 1523.41 1216.53 1518.55 Q1220.42 1513.66 1226.97 1513.66 Q1228.73 1513.66 1230.51 1514.01 Q1232.31 1514.36 1234.26 1515.05 Z" fill="#000000" fill-rule="nonzero" fill-opacity="1"></path><path clip-path="url(#clip660)" d="M1254.56 1517.37 Q1250.95 1517.37 1249.12 1520.93 Q1247.31 1524.47 1247.31 1531.6 Q1247.31 1538.71 1249.12 1542.27 Q1250.95 1545.82 1254.56 1545.82 Q1258.19 1545.82 1260 1542.27 Q1261.83 1538.71 1261.83 1531.6 Q1261.83 1524.47 1260 1520.93 Q1258.19 1517.37 1254.56 1517.37 M1254.56 1513.66 Q1260.37 1513.66 1263.42 1518.27 Q1266.5 1522.85 1266.5 1531.6 Q1266.5 1540.33 1263.42 1544.94 Q1260.37 1549.52 1254.56 1549.52 Q1248.75 1549.52 1245.67 1544.94 Q1242.61 1540.33 1242.61 1531.6 Q1242.61 1522.85 1245.67 1518.27 Q1248.75 1513.66 1254.56 1513.66 Z" fill="#000000" fill-rule="nonzero" fill-opacity="1"></path><path clip-path="url(#clip660)" d="M1563.67 1532.44 Q1560.34 1532.44 1558.42 1534.22 Q1556.52 1536 1556.52 1539.13 Q1556.52 1542.25 1558.42 1544.03 Q1560.34 1545.82 1563.67 1545.82 Q1567.01 1545.82 1568.93 1544.03 Q1570.85 1542.23 1570.85 1539.13 Q1570.85 1536 1568.93 1534.22 Q1567.03 1532.44 1563.67 1532.44 M1559 1530.45 Q1555.99 1529.7 1554.3 1527.64 Q1552.63 1525.58 1552.63 1522.62 Q1552.63 1518.48 1555.57 1516.07 Q1558.53 1513.66 1563.67 1513.66 Q1568.84 1513.66 1571.78 1516.07 Q1574.72 1518.48 1574.72 1522.62 Q1574.72 1525.58 1573.03 1527.64 Q1571.36 1529.7 1568.37 1530.45 Q1571.75 1531.23 1573.63 1533.52 Q1575.53 1535.82 1575.53 1539.13 Q1575.53 1544.15 1572.45 1546.83 Q1569.39 1549.52 1563.67 1549.52 Q1557.96 1549.52 1554.88 1546.83 Q1551.82 1544.15 1551.82 1539.13 Q1551.82 1535.82 1553.72 1533.52 Q1555.62 1531.23 1559 1530.45 M1557.28 1523.06 Q1557.28 1525.75 1558.95 1527.25 Q1560.64 1528.76 1563.67 1528.76 Q1566.68 1528.76 1568.37 1527.25 Q1570.09 1525.75 1570.09 1523.06 Q1570.09 1520.38 1568.37 1518.87 Q1566.68 1517.37 1563.67 1517.37 Q1560.64 1517.37 1558.95 1518.87 Q1557.28 1520.38 1557.28 1523.06 Z" fill="#000000" fill-rule="nonzero" fill-opacity="1"></path><path clip-path="url(#clip660)" d="M1593.84 1517.37 Q1590.22 1517.37 1588.4 1520.93 Q1586.59 1524.47 1586.59 1531.6 Q1586.59 1538.71 1588.4 1542.27 Q1590.22 1545.82 1593.84 1545.82 Q1597.47 1545.82 1599.28 1542.27 Q1601.1 1538.71 1601.1 1531.6 Q1601.1 1524.47 1599.28 1520.93 Q1597.47 1517.37 1593.84 1517.37 M1593.84 1513.66 Q1599.65 1513.66 1602.7 1518.27 Q1605.78 1522.85 1605.78 1531.6 Q1605.78 1540.33 1602.7 1544.94 Q1599.65 1549.52 1593.84 1549.52 Q1588.03 1549.52 1584.95 1544.94 Q1581.89 1540.33 1581.89 1531.6 Q1581.89 1522.85 1584.95 1518.27 Q1588.03 1513.66 1593.84 1513.66 Z" fill="#000000" fill-rule="nonzero" fill-opacity="1"></path><path clip-path="url(#clip660)" d="M1877.64 1544.91 L1885.28 1544.91 L1885.28 1518.55 L1876.97 1520.21 L1876.97 1515.95 L1885.23 1514.29 L1889.91 1514.29 L1889.91 1544.91 L1897.55 1544.91 L1897.55 1548.85 L1877.64 1548.85 L1877.64 1544.91 Z" fill="#000000" fill-rule="nonzero" fill-opacity="1"></path><path clip-path="url(#clip660)" d="M1916.99 1517.37 Q1913.38 1517.37 1911.55 1520.93 Q1909.74 1524.47 1909.74 1531.6 Q1909.74 1538.71 1911.55 1542.27 Q1913.38 1545.82 1916.99 1545.82 Q1920.62 1545.82 1922.43 1542.27 Q1924.26 1538.71 1924.26 1531.6 Q1924.26 1524.47 1922.43 1520.93 Q1920.62 1517.37 1916.99 1517.37 M1916.99 1513.66 Q1922.8 1513.66 1925.86 1518.27 Q1928.93 1522.85 1928.93 1531.6 Q1928.93 1540.33 1925.86 1544.94 Q1922.8 1549.52 1916.99 1549.52 Q1911.18 1549.52 1908.1 1544.94 Q1905.05 1540.33 1905.05 1531.6 Q1905.05 1522.85 1908.1 1518.27 Q1911.18 1513.66 1916.99 1513.66 Z" fill="#000000" fill-rule="nonzero" fill-opacity="1"></path><path clip-path="url(#clip660)" d="M1947.15 1517.37 Q1943.54 1517.37 1941.71 1520.93 Q1939.91 1524.47 1939.91 1531.6 Q1939.91 1538.71 1941.71 1542.27 Q1943.54 1545.82 1947.15 1545.82 Q1950.79 1545.82 1952.59 1542.27 Q1954.42 1538.71 1954.42 1531.6 Q1954.42 1524.47 1952.59 1520.93 Q1950.79 1517.37 1947.15 1517.37 M1947.15 1513.66 Q1952.96 1513.66 1956.02 1518.27 Q1959.1 1522.85 1959.1 1531.6 Q1959.1 1540.33 1956.02 1544.94 Q1952.96 1549.52 1947.15 1549.52 Q1941.34 1549.52 1938.26 1544.94 Q1935.21 1540.33 1935.21 1531.6 Q1935.21 1522.85 1938.26 1518.27 Q1941.34 1513.66 1947.15 1513.66 Z" fill="#000000" fill-rule="nonzero" fill-opacity="1"></path><path clip-path="url(#clip660)" d="M2216.87 1544.91 L2224.51 1544.91 L2224.51 1518.55 L2216.2 1520.21 L2216.2 1515.95 L2224.46 1514.29 L2229.14 1514.29 L2229.14 1544.91 L2236.78 1544.91 L2236.78 1548.85 L2216.87 1548.85 L2216.87 1544.91 Z" fill="#000000" fill-rule="nonzero" fill-opacity="1"></path><path clip-path="url(#clip660)" d="M2250.25 1544.91 L2266.57 1544.91 L2266.57 1548.85 L2244.62 1548.85 L2244.62 1544.91 Q2247.29 1542.16 2251.87 1537.53 Q2256.48 1532.88 2257.66 1531.53 Q2259.9 1529.01 2260.78 1527.27 Q2261.68 1525.51 2261.68 1523.82 Q2261.68 1521.07 2259.74 1519.33 Q2257.82 1517.6 2254.72 1517.6 Q2252.52 1517.6 2250.06 1518.36 Q2247.63 1519.13 2244.86 1520.68 L2244.86 1515.95 Q2247.68 1514.82 2250.13 1514.24 Q2252.59 1513.66 2254.62 1513.66 Q2259.99 1513.66 2263.19 1516.35 Q2266.38 1519.03 2266.38 1523.52 Q2266.38 1525.65 2265.57 1527.57 Q2264.79 1529.47 2262.68 1532.07 Q2262.1 1532.74 2259 1535.95 Q2255.9 1539.15 2250.25 1544.91 Z" fill="#000000" fill-rule="nonzero" fill-opacity="1"></path><path clip-path="url(#clip660)" d="M2286.38 1517.37 Q2282.77 1517.37 2280.94 1520.93 Q2279.14 1524.47 2279.14 1531.6 Q2279.14 1538.71 2280.94 1542.27 Q2282.77 1545.82 2286.38 1545.82 Q2290.02 1545.82 2291.82 1542.27 Q2293.65 1538.71 2293.65 1531.6 Q2293.65 1524.47 2291.82 1520.93 Q2290.02 1517.37 2286.38 1517.37 M2286.38 1513.66 Q2292.19 1513.66 2295.25 1518.27 Q2298.33 1522.85 2298.33 1531.6 Q2298.33 1540.33 2295.25 1544.94 Q2292.19 1549.52 2286.38 1549.52 Q2280.57 1549.52 2277.49 1544.94 Q2274.44 1540.33 2274.44 1531.6 Q2274.44 1522.85 2277.49 1518.27 Q2280.57 1513.66 2286.38 1513.66 Z" fill="#000000" fill-rule="nonzero" fill-opacity="1"></path><polyline clip-path="url(#clip662)" style="stroke:#000000; stroke-linecap:round; stroke-linejoin:round; stroke-width:2; stroke-opacity:0.1; fill:none" points="177.269,1264.16 2352.76,1264.16 "></polyline>
<polyline clip-path="url(#clip662)" style="stroke:#000000; stroke-linecap:round; stroke-linejoin:round; stroke-width:2; stroke-opacity:0.1; fill:none" points="177.269,981.991 2352.76,981.991 "></polyline>
<polyline clip-path="url(#clip662)" style="stroke:#000000; stroke-linecap:round; stroke-linejoin:round; stroke-width:2; stroke-opacity:0.1; fill:none" points="177.269,699.818 2352.76,699.818 "></polyline>
<polyline clip-path="url(#clip662)" style="stroke:#000000; stroke-linecap:round; stroke-linejoin:round; stroke-width:2; stroke-opacity:0.1; fill:none" points="177.269,417.646 2352.76,417.646 "></polyline>
<polyline clip-path="url(#clip662)" style="stroke:#000000; stroke-linecap:round; stroke-linejoin:round; stroke-width:2; stroke-opacity:0.1; fill:none" points="177.269,135.473 2352.76,135.473 "></polyline>
<polyline clip-path="url(#clip660)" style="stroke:#000000; stroke-linecap:round; stroke-linejoin:round; stroke-width:4; stroke-opacity:1; fill:none" points="177.269,1486.45 177.269,47.2441 "></polyline>
<polyline clip-path="url(#clip660)" style="stroke:#000000; stroke-linecap:round; stroke-linejoin:round; stroke-width:4; stroke-opacity:1; fill:none" points="177.269,1264.16 196.167,1264.16 "></polyline>
<polyline clip-path="url(#clip660)" style="stroke:#000000; stroke-linecap:round; stroke-linejoin:round; stroke-width:4; stroke-opacity:1; fill:none" points="177.269,981.991 196.167,981.991 "></polyline>
<polyline clip-path="url(#clip660)" style="stroke:#000000; stroke-linecap:round; stroke-linejoin:round; stroke-width:4; stroke-opacity:1; fill:none" points="177.269,699.818 196.167,699.818 "></polyline>
<polyline clip-path="url(#clip660)" style="stroke:#000000; stroke-linecap:round; stroke-linejoin:round; stroke-width:4; stroke-opacity:1; fill:none" points="177.269,417.646 196.167,417.646 "></polyline>
<polyline clip-path="url(#clip660)" style="stroke:#000000; stroke-linecap:round; stroke-linejoin:round; stroke-width:4; stroke-opacity:1; fill:none" points="177.269,135.473 196.167,135.473 "></polyline>
<path clip-path="url(#clip660)" d="M50.9921 1264.62 L80.6679 1264.62 L80.6679 1268.55 L50.9921 1268.55 L50.9921 1264.62 Z" fill="#000000" fill-rule="nonzero" fill-opacity="1"></path><path clip-path="url(#clip660)" d="M91.5706 1277.51 L99.2095 1277.51 L99.2095 1251.14 L90.8993 1252.81 L90.8993 1248.55 L99.1632 1246.88 L103.839 1246.88 L103.839 1277.51 L111.478 1277.51 L111.478 1281.44 L91.5706 1281.44 L91.5706 1277.51 Z" fill="#000000" fill-rule="nonzero" fill-opacity="1"></path><path clip-path="url(#clip660)" d="M124.95 1277.51 L141.269 1277.51 L141.269 1281.44 L119.325 1281.44 L119.325 1277.51 Q121.987 1274.75 126.57 1270.12 Q131.177 1265.47 132.357 1264.13 Q134.603 1261.61 135.482 1259.87 Q136.385 1258.11 136.385 1256.42 Q136.385 1253.67 134.441 1251.93 Q132.519 1250.19 129.418 1250.19 Q127.219 1250.19 124.765 1250.96 Q122.334 1251.72 119.557 1253.27 L119.557 1248.55 Q122.381 1247.42 124.834 1246.84 Q127.288 1246.26 129.325 1246.26 Q134.695 1246.26 137.89 1248.94 Q141.084 1251.63 141.084 1256.12 Q141.084 1258.25 140.274 1260.17 Q139.487 1262.07 137.381 1264.66 Q136.802 1265.33 133.7 1268.55 Q130.598 1271.74 124.95 1277.51 Z" fill="#000000" fill-rule="nonzero" fill-opacity="1"></path><path clip-path="url(#clip660)" d="M79.742 982.443 L109.418 982.443 L109.418 986.378 L79.742 986.378 L79.742 982.443 Z" fill="#000000" fill-rule="nonzero" fill-opacity="1"></path><path clip-path="url(#clip660)" d="M119.649 998.554 L119.649 994.294 Q121.408 995.128 123.214 995.567 Q125.02 996.007 126.756 996.007 Q131.385 996.007 133.816 992.905 Q136.269 989.78 136.617 983.438 Q135.274 985.429 133.214 986.493 Q131.154 987.558 128.654 987.558 Q123.469 987.558 120.436 984.433 Q117.427 981.285 117.427 975.845 Q117.427 970.521 120.575 967.304 Q123.723 964.086 128.955 964.086 Q134.95 964.086 138.098 968.693 Q141.269 973.276 141.269 982.026 Q141.269 990.197 137.381 995.081 Q133.515 999.942 126.964 999.942 Q125.205 999.942 123.399 999.595 Q121.594 999.248 119.649 998.554 M128.955 983.901 Q132.103 983.901 133.931 981.748 Q135.783 979.595 135.783 975.845 Q135.783 972.119 133.931 969.966 Q132.103 967.79 128.955 967.79 Q125.807 967.79 123.955 969.966 Q122.126 972.119 122.126 975.845 Q122.126 979.595 123.955 981.748 Q125.807 983.901 128.955 983.901 Z" fill="#000000" fill-rule="nonzero" fill-opacity="1"></path><path clip-path="url(#clip660)" d="M79.3948 700.27 L109.071 700.27 L109.071 704.205 L79.3948 704.205 L79.3948 700.27 Z" fill="#000000" fill-rule="nonzero" fill-opacity="1"></path><path clip-path="url(#clip660)" d="M129.742 697.955 Q126.594 697.955 124.742 700.108 Q122.913 702.26 122.913 706.01 Q122.913 709.737 124.742 711.913 Q126.594 714.066 129.742 714.066 Q132.89 714.066 134.719 711.913 Q136.57 709.737 136.57 706.01 Q136.57 702.26 134.719 700.108 Q132.89 697.955 129.742 697.955 M139.024 683.302 L139.024 687.561 Q137.265 686.728 135.459 686.288 Q133.677 685.849 131.918 685.849 Q127.288 685.849 124.834 688.974 Q122.404 692.098 122.057 698.418 Q123.422 696.404 125.482 695.339 Q127.543 694.251 130.019 694.251 Q135.228 694.251 138.237 697.423 Q141.269 700.571 141.269 706.01 Q141.269 711.335 138.121 714.552 Q134.973 717.77 129.742 717.77 Q123.746 717.77 120.575 713.186 Q117.404 708.58 117.404 699.853 Q117.404 691.659 121.293 686.798 Q125.182 681.913 131.732 681.913 Q133.492 681.913 135.274 682.261 Q137.08 682.608 139.024 683.302 Z" fill="#000000" fill-rule="nonzero" fill-opacity="1"></path><path clip-path="url(#clip660)" d="M80.2049 418.097 L109.881 418.097 L109.881 422.032 L80.2049 422.032 L80.2049 418.097 Z" fill="#000000" fill-rule="nonzero" fill-opacity="1"></path><path clip-path="url(#clip660)" d="M134.14 416.291 Q137.496 417.009 139.371 419.278 Q141.269 421.546 141.269 424.879 Q141.269 429.995 137.751 432.796 Q134.232 435.597 127.751 435.597 Q125.575 435.597 123.26 435.157 Q120.969 434.74 118.515 433.884 L118.515 429.37 Q120.459 430.504 122.774 431.083 Q125.089 431.662 127.612 431.662 Q132.01 431.662 134.302 429.926 Q136.617 428.189 136.617 424.879 Q136.617 421.824 134.464 420.111 Q132.334 418.375 128.515 418.375 L124.487 418.375 L124.487 414.532 L128.7 414.532 Q132.149 414.532 133.978 413.166 Q135.806 411.778 135.806 409.185 Q135.806 406.523 133.908 405.111 Q132.033 403.676 128.515 403.676 Q126.594 403.676 124.395 404.092 Q122.195 404.509 119.557 405.389 L119.557 401.222 Q122.219 400.481 124.533 400.111 Q126.871 399.741 128.932 399.741 Q134.256 399.741 137.357 402.171 Q140.459 404.579 140.459 408.699 Q140.459 411.569 138.816 413.56 Q137.172 415.528 134.14 416.291 Z" fill="#000000" fill-rule="nonzero" fill-opacity="1"></path><path clip-path="url(#clip660)" d="M129.325 121.271 Q125.714 121.271 123.885 124.836 Q122.08 128.378 122.08 135.508 Q122.08 142.614 123.885 146.179 Q125.714 149.72 129.325 149.72 Q132.959 149.72 134.765 146.179 Q136.594 142.614 136.594 135.508 Q136.594 128.378 134.765 124.836 Q132.959 121.271 129.325 121.271 M129.325 117.568 Q135.135 117.568 138.191 122.174 Q141.269 126.758 141.269 135.508 Q141.269 144.234 138.191 148.841 Q135.135 153.424 129.325 153.424 Q123.515 153.424 120.436 148.841 Q117.381 144.234 117.381 135.508 Q117.381 126.758 120.436 122.174 Q123.515 117.568 129.325 117.568 Z" fill="#000000" fill-rule="nonzero" fill-opacity="1"></path><polyline clip-path="url(#clip662)" style="stroke:#009af9; stroke-linecap:round; stroke-linejoin:round; stroke-width:4; stroke-opacity:1; fill:none" points="238.84,135.473 255.801,135.37 272.763,135.535 289.724,135.29 306.686,135.057 323.647,134.823 340.609,134.587 357.571,134.353 374.532,134.436 391.494,134.347 408.455,134.677 425.417,135.019 442.378,135.022 459.34,134.822 476.301,134.671 493.263,134.474 510.224,133.991 527.186,133.527 544.147,133.429 561.109,134.114 578.07,134.859 595.032,134.51 611.994,133.903 628.955,132.77 645.917,131.587 662.878,130.334 679.84,129.053 696.801,128.87 713.763,130.481 730.724,132.077 747.686,131.31 764.647,129.777 781.609,127.091 798.57,124.729 815.532,122.061 832.494,119.402 849.455,118.952 866.417,120.472 883.378,122.013 900.34,119.853 917.301,117.53 934.263,115.14 951.224,112.662 968.186,110.101 985.147,107.704 1002.11,107.185 1019.07,108.751 1036.03,110.327 1052.99,109.232 1069.96,107.24 1086.92,104.789 1103.88,102.199 1120.84,99.685 1137.8,97.2856 1154.76,96.7325 1171.72,98.3188 1188.69,99.8501 1205.65,99.4472 1222.61,98.3082 1239.57,97.8694 1256.53,95.5224 1273.49,91.5731 1290.45,92.2852 1307.42,91.7342 1324.38,93.3194 1341.34,94.9434 1358.3,96.0318 1375.26,96.1337 1392.22,97.0162 1409.19,96.0021 1426.15,94.8105 1443.11,90.375 1460.07,89.8948 1477.03,91.5943 1493.99,93.7815 1510.95,94.3286 1527.92,93.3775 1544.88,89.7332 1561.84,91.1932 1578.8,89.4176 1595.76,88.7572 1612.72,88.2658 1629.69,89.9119 1646.65,92.1236 1663.61,92.9138 1680.57,92.6669 1697.53,89.2557 1714.49,91.0986 1731.45,88.9545 1748.42,88.4923 1765.38,87.9763 1782.34,89.5364 1799.3,91.633 1816.26,92.895 1833.22,94.5643 1850.19,93.0326 1867.15,95.1755 1884.11,98.3766 1901.07,100.188 1918.03,99.7734 1934.99,101.383 1951.95,103.412 1968.92,104.557 1985.88,106.51 2002.84,107.951 2019.8,109.126 2036.76,109.398 2053.72,108.092 2070.69,107.663 2087.65,109.15 2104.61,111.175 2121.57,112.353 2138.53,114.886 2155.49,116.797 2172.45,119.105 2189.42,115.65 2206.38,116.813 2223.34,116.386 2240.3,117.689 2257.26,119.861 2274.22,122.155 2291.19,124.915 "></polyline>
<polyline clip-path="url(#clip662)" style="stroke:#e26f46; stroke-linecap:round; stroke-linejoin:round; stroke-width:4; stroke-opacity:1; fill:none" points="238.84,979.471 255.801,983.892 272.763,987.746 289.724,992.094 306.686,996.455 323.647,1000.83 340.609,1005.2 357.571,1008.95 374.532,1012.5 391.494,987.419 408.455,996.827 425.417,1004.25 442.378,1011.09 459.34,1017.13 476.301,1024.64 493.263,1030.09 510.224,1035.53 527.186,1041.03 544.147,1014.54 561.109,1029.7 578.07,1041.67 595.032,1053.08 611.994,1064.65 628.955,1076.37 645.917,1088.14 662.878,1099.93 679.84,1111.71 696.801,1056.06 713.763,1084.41 730.724,1105.57 747.686,1128.94 764.647,1152.42 781.609,1175.93 798.57,1198.78 815.532,1222.22 832.494,1245.61 849.455,1105.43 866.417,1165.87 883.378,1180.25 900.34,1204.87 917.301,1228.33 934.263,1251.68 951.224,1274.99 968.186,1298.24 985.147,1319.9 1002.11,1155.23 1019.07,1223.22 1036.03,1236.39 1052.99,1260.36 1069.96,1283.51 1086.92,1306.68 1103.88,1329.82 1120.84,1351.32 1137.8,1370.07 1154.76,1190.72 1171.72,1267.97 1188.69,1284.19 1205.65,1303.84 1222.61,1322.99 1239.57,1345.87 1256.53,1366.57 1273.49,1386.11 1290.45,1400.36 1307.42,1217.3 1324.38,1294.87 1341.34,1305.53 1358.3,1322.65 1375.26,1343.21 1392.22,1359.3 1409.19,1381.88 1426.15,1397.52 1443.11,1415.11 1460.07,1243.11 1477.03,1301.68 1493.99,1295.85 1510.95,1338.08 1527.92,1359.83 1544.88,1374.09 1561.84,1392.06 1578.8,1412.06 1595.76,1429.62 1612.72,1254.97 1629.69,1323.53 1646.65,1315.98 1663.61,1359.39 1680.57,1377.65 1697.53,1397.03 1714.49,1406.49 1731.45,1428.89 1748.42,1445.72 1765.38,1264.79 1782.34,1342.92 1799.3,1323.98 1816.26,1373.83 1833.22,1374.71 1850.19,1389.13 1867.15,1395.21 1884.11,1414.48 1901.07,1425.73 1918.03,1269.24 1934.99,1330.37 1951.95,1330.03 1968.92,1366.11 1985.88,1350.35 2002.84,1395.33 2019.8,1406.46 2036.76,1416.92 2053.72,1435.76 2070.69,1273.1 2087.65,1334.59 2104.61,1334.78 2121.57,1371.66 2138.53,1347.92 2155.49,1392.09 2172.45,1394.43 2189.42,1409.6 2206.38,1419.43 2223.34,1265.91 2240.3,1349.69 2257.26,1312.86 2274.22,1377.05 2291.19,1377.24 "></polyline>
<path clip-path="url(#clip660)" d="M249.786 1438.47 L903.003 1438.47 L903.003 1282.95 L249.786 1282.95  Z" fill="#ffffff" fill-rule="evenodd" fill-opacity="1"></path>
<polyline clip-path="url(#clip660)" style="stroke:#000000; stroke-linecap:round; stroke-linejoin:round; stroke-width:4; stroke-opacity:1; fill:none" points="249.786,1438.47 903.003,1438.47 903.003,1282.95 249.786,1282.95 249.786,1438.47 "></polyline>
<polyline clip-path="url(#clip660)" style="stroke:#009af9; stroke-linecap:round; stroke-linejoin:round; stroke-width:4; stroke-opacity:1; fill:none" points="273.958,1334.79 418.99,1334.79 "></polyline>
<path clip-path="url(#clip660)" d="M456.357 1352.07 L443.162 1317.51 L448.046 1317.51 L458.995 1346.61 L469.968 1317.51 L474.829 1317.51 L461.657 1352.07 L456.357 1352.07 Z" fill="#000000" fill-rule="nonzero" fill-opacity="1"></path><path clip-path="url(#clip660)" d="M486.056 1329.13 Q482.63 1329.13 480.639 1331.82 Q478.648 1334.48 478.648 1339.13 Q478.648 1343.79 480.616 1346.47 Q482.606 1349.13 486.056 1349.13 Q489.458 1349.13 491.449 1346.45 Q493.44 1343.76 493.44 1339.13 Q493.44 1334.53 491.449 1331.84 Q489.458 1329.13 486.056 1329.13 M486.056 1325.52 Q491.611 1325.52 494.782 1329.13 Q497.954 1332.75 497.954 1339.13 Q497.954 1345.5 494.782 1349.13 Q491.611 1352.75 486.056 1352.75 Q480.477 1352.75 477.306 1349.13 Q474.157 1345.5 474.157 1339.13 Q474.157 1332.75 477.306 1329.13 Q480.477 1325.52 486.056 1325.52 Z" fill="#000000" fill-rule="nonzero" fill-opacity="1"></path><path clip-path="url(#clip660)" d="M505.014 1316.06 L509.273 1316.06 L509.273 1352.07 L505.014 1352.07 L505.014 1316.06 Z" fill="#000000" fill-rule="nonzero" fill-opacity="1"></path><path clip-path="url(#clip660)" d="M517.745 1341.84 L517.745 1326.15 L522.004 1326.15 L522.004 1341.68 Q522.004 1345.36 523.44 1347.21 Q524.875 1349.04 527.745 1349.04 Q531.194 1349.04 533.185 1346.84 Q535.199 1344.64 535.199 1340.85 L535.199 1326.15 L539.458 1326.15 L539.458 1352.07 L535.199 1352.07 L535.199 1348.09 Q533.648 1350.45 531.588 1351.61 Q529.551 1352.75 526.842 1352.75 Q522.375 1352.75 520.06 1349.97 Q517.745 1347.19 517.745 1341.84 M528.463 1325.52 L528.463 1325.52 Z" fill="#000000" fill-rule="nonzero" fill-opacity="1"></path><path clip-path="url(#clip660)" d="M568.416 1331.13 Q570.013 1328.26 572.236 1326.89 Q574.458 1325.52 577.467 1325.52 Q581.518 1325.52 583.717 1328.37 Q585.916 1331.19 585.916 1336.43 L585.916 1352.07 L581.634 1352.07 L581.634 1336.57 Q581.634 1332.84 580.314 1331.03 Q578.995 1329.23 576.286 1329.23 Q572.976 1329.23 571.055 1331.43 Q569.134 1333.63 569.134 1337.42 L569.134 1352.07 L564.851 1352.07 L564.851 1336.57 Q564.851 1332.82 563.532 1331.03 Q562.213 1329.23 559.458 1329.23 Q556.194 1329.23 554.273 1331.45 Q552.351 1333.65 552.351 1337.42 L552.351 1352.07 L548.069 1352.07 L548.069 1326.15 L552.351 1326.15 L552.351 1330.18 Q553.81 1327.79 555.847 1326.66 Q557.884 1325.52 560.685 1325.52 Q563.509 1325.52 565.476 1326.96 Q567.467 1328.39 568.416 1331.13 Z" fill="#000000" fill-rule="nonzero" fill-opacity="1"></path><path clip-path="url(#clip660)" d="M616.587 1338.05 L616.587 1340.13 L597.004 1340.13 Q597.282 1344.53 599.643 1346.84 Q602.027 1349.13 606.263 1349.13 Q608.717 1349.13 611.009 1348.53 Q613.323 1347.93 615.592 1346.73 L615.592 1350.75 Q613.3 1351.73 610.893 1352.24 Q608.485 1352.75 606.009 1352.75 Q599.805 1352.75 596.171 1349.13 Q592.56 1345.52 592.56 1339.37 Q592.56 1333 595.985 1329.27 Q599.435 1325.52 605.268 1325.52 Q610.499 1325.52 613.532 1328.9 Q616.587 1332.26 616.587 1338.05 M612.328 1336.8 Q612.282 1333.3 610.36 1331.22 Q608.462 1329.13 605.314 1329.13 Q601.749 1329.13 599.597 1331.15 Q597.467 1333.16 597.143 1336.82 L612.328 1336.8 Z" fill="#000000" fill-rule="nonzero" fill-opacity="1"></path><path clip-path="url(#clip660)" d="M664.712 1320.18 L664.712 1325.11 Q662.351 1322.91 659.666 1321.82 Q657.004 1320.73 653.994 1320.73 Q648.069 1320.73 644.92 1324.37 Q641.772 1327.98 641.772 1334.83 Q641.772 1341.66 644.92 1345.29 Q648.069 1348.9 653.994 1348.9 Q657.004 1348.9 659.666 1347.82 Q662.351 1346.73 664.712 1344.53 L664.712 1349.41 Q662.258 1351.08 659.504 1351.91 Q656.772 1352.75 653.717 1352.75 Q645.869 1352.75 641.356 1347.95 Q636.842 1343.14 636.842 1334.83 Q636.842 1326.5 641.356 1321.7 Q645.869 1316.89 653.717 1316.89 Q656.818 1316.89 659.55 1317.72 Q662.305 1318.53 664.712 1320.18 Z" fill="#000000" fill-rule="nonzero" fill-opacity="1"></path><path clip-path="url(#clip660)" d="M681.795 1329.13 Q678.369 1329.13 676.379 1331.82 Q674.388 1334.48 674.388 1339.13 Q674.388 1343.79 676.355 1346.47 Q678.346 1349.13 681.795 1349.13 Q685.198 1349.13 687.189 1346.45 Q689.179 1343.76 689.179 1339.13 Q689.179 1334.53 687.189 1331.84 Q685.198 1329.13 681.795 1329.13 M681.795 1325.52 Q687.351 1325.52 690.522 1329.13 Q693.693 1332.75 693.693 1339.13 Q693.693 1345.5 690.522 1349.13 Q687.351 1352.75 681.795 1352.75 Q676.217 1352.75 673.045 1349.13 Q669.897 1345.5 669.897 1339.13 Q669.897 1332.75 673.045 1329.13 Q676.217 1325.52 681.795 1325.52 Z" fill="#000000" fill-rule="nonzero" fill-opacity="1"></path><path clip-path="url(#clip660)" d="M722.304 1336.43 L722.304 1352.07 L718.045 1352.07 L718.045 1336.57 Q718.045 1332.88 716.61 1331.06 Q715.175 1329.23 712.304 1329.23 Q708.855 1329.23 706.865 1331.43 Q704.874 1333.63 704.874 1337.42 L704.874 1352.07 L700.591 1352.07 L700.591 1326.15 L704.874 1326.15 L704.874 1330.18 Q706.402 1327.84 708.462 1326.68 Q710.545 1325.52 713.253 1325.52 Q717.721 1325.52 720.013 1328.3 Q722.304 1331.06 722.304 1336.43 Z" fill="#000000" fill-rule="nonzero" fill-opacity="1"></path><path clip-path="url(#clip660)" d="M747.327 1326.91 L747.327 1330.94 Q745.522 1330.01 743.577 1329.55 Q741.633 1329.09 739.55 1329.09 Q736.378 1329.09 734.781 1330.06 Q733.207 1331.03 733.207 1332.98 Q733.207 1334.46 734.341 1335.32 Q735.475 1336.15 738.901 1336.91 L740.36 1337.24 Q744.897 1338.21 746.795 1339.99 Q748.716 1341.75 748.716 1344.92 Q748.716 1348.53 745.846 1350.64 Q742.999 1352.75 737.999 1352.75 Q735.915 1352.75 733.647 1352.33 Q731.401 1351.94 728.901 1351.13 L728.901 1346.73 Q731.263 1347.95 733.554 1348.58 Q735.846 1349.18 738.091 1349.18 Q741.1 1349.18 742.721 1348.16 Q744.341 1347.12 744.341 1345.25 Q744.341 1343.51 743.161 1342.58 Q742.003 1341.66 738.045 1340.8 L736.563 1340.45 Q732.605 1339.62 730.846 1337.91 Q729.087 1336.17 729.087 1333.16 Q729.087 1329.51 731.679 1327.51 Q734.272 1325.52 739.04 1325.52 Q741.401 1325.52 743.485 1325.87 Q745.568 1326.22 747.327 1326.91 Z" fill="#000000" fill-rule="nonzero" fill-opacity="1"></path><path clip-path="url(#clip660)" d="M759.711 1318.79 L759.711 1326.15 L768.485 1326.15 L768.485 1329.46 L759.711 1329.46 L759.711 1343.53 Q759.711 1346.7 760.568 1347.61 Q761.448 1348.51 764.11 1348.51 L768.485 1348.51 L768.485 1352.07 L764.11 1352.07 Q759.179 1352.07 757.304 1350.25 Q755.429 1348.39 755.429 1343.53 L755.429 1329.46 L752.304 1329.46 L752.304 1326.15 L755.429 1326.15 L755.429 1318.79 L759.711 1318.79 Z" fill="#000000" fill-rule="nonzero" fill-opacity="1"></path><path clip-path="url(#clip660)" d="M789.109 1330.13 Q788.392 1329.71 787.535 1329.53 Q786.702 1329.32 785.684 1329.32 Q782.072 1329.32 780.128 1331.68 Q778.207 1334.02 778.207 1338.42 L778.207 1352.07 L773.924 1352.07 L773.924 1326.15 L778.207 1326.15 L778.207 1330.18 Q779.549 1327.82 781.702 1326.68 Q783.855 1325.52 786.934 1325.52 Q787.373 1325.52 787.906 1325.59 Q788.438 1325.64 789.086 1325.76 L789.109 1330.13 Z" fill="#000000" fill-rule="nonzero" fill-opacity="1"></path><path clip-path="url(#clip660)" d="M805.359 1339.04 Q800.197 1339.04 798.207 1340.22 Q796.216 1341.4 796.216 1344.25 Q796.216 1346.52 797.697 1347.86 Q799.202 1349.18 801.771 1349.18 Q805.313 1349.18 807.443 1346.68 Q809.595 1344.16 809.595 1339.99 L809.595 1339.04 L805.359 1339.04 M813.855 1337.28 L813.855 1352.07 L809.595 1352.07 L809.595 1348.14 Q808.137 1350.5 805.961 1351.63 Q803.785 1352.75 800.637 1352.75 Q796.656 1352.75 794.295 1350.52 Q791.957 1348.28 791.957 1344.53 Q791.957 1340.15 794.873 1337.93 Q797.813 1335.71 803.623 1335.71 L809.595 1335.71 L809.595 1335.29 Q809.595 1332.35 807.651 1330.76 Q805.73 1329.13 802.234 1329.13 Q800.012 1329.13 797.906 1329.67 Q795.799 1330.2 793.855 1331.26 L793.855 1327.33 Q796.193 1326.43 798.392 1325.99 Q800.591 1325.52 802.674 1325.52 Q808.299 1325.52 811.077 1328.44 Q813.855 1331.36 813.855 1337.28 Z" fill="#000000" fill-rule="nonzero" fill-opacity="1"></path><path clip-path="url(#clip660)" d="M822.628 1326.15 L826.887 1326.15 L826.887 1352.07 L822.628 1352.07 L822.628 1326.15 M822.628 1316.06 L826.887 1316.06 L826.887 1321.45 L822.628 1321.45 L822.628 1316.06 Z" fill="#000000" fill-rule="nonzero" fill-opacity="1"></path><path clip-path="url(#clip660)" d="M857.35 1336.43 L857.35 1352.07 L853.091 1352.07 L853.091 1336.57 Q853.091 1332.88 851.655 1331.06 Q850.22 1329.23 847.35 1329.23 Q843.901 1329.23 841.91 1331.43 Q839.919 1333.63 839.919 1337.42 L839.919 1352.07 L835.637 1352.07 L835.637 1326.15 L839.919 1326.15 L839.919 1330.18 Q841.447 1327.84 843.507 1326.68 Q845.591 1325.52 848.299 1325.52 Q852.766 1325.52 855.058 1328.3 Q857.35 1331.06 857.35 1336.43 Z" fill="#000000" fill-rule="nonzero" fill-opacity="1"></path><path clip-path="url(#clip660)" d="M870.058 1318.79 L870.058 1326.15 L878.831 1326.15 L878.831 1329.46 L870.058 1329.46 L870.058 1343.53 Q870.058 1346.7 870.915 1347.61 Q871.794 1348.51 874.456 1348.51 L878.831 1348.51 L878.831 1352.07 L874.456 1352.07 Q869.526 1352.07 867.651 1350.25 Q865.776 1348.39 865.776 1343.53 L865.776 1329.46 L862.651 1329.46 L862.651 1326.15 L865.776 1326.15 L865.776 1318.79 L870.058 1318.79 Z" fill="#000000" fill-rule="nonzero" fill-opacity="1"></path><polyline clip-path="url(#clip660)" style="stroke:#e26f46; stroke-linecap:round; stroke-linejoin:round; stroke-width:4; stroke-opacity:1; fill:none" points="273.958,1386.63 418.99,1386.63 "></polyline>
<path clip-path="url(#clip660)" d="M459.181 1372.53 Q454.088 1372.53 451.079 1376.32 Q448.093 1380.12 448.093 1386.67 Q448.093 1393.2 451.079 1396.99 Q454.088 1400.79 459.181 1400.79 Q464.273 1400.79 467.236 1396.99 Q470.222 1393.2 470.222 1386.67 Q470.222 1380.12 467.236 1376.32 Q464.273 1372.53 459.181 1372.53 M459.181 1368.73 Q466.449 1368.73 470.801 1373.61 Q475.153 1378.47 475.153 1386.67 Q475.153 1394.84 470.801 1399.72 Q466.449 1404.59 459.181 1404.59 Q451.889 1404.59 447.514 1399.72 Q443.162 1394.86 443.162 1386.67 Q443.162 1378.47 447.514 1373.61 Q451.889 1368.73 459.181 1368.73 Z" fill="#000000" fill-rule="nonzero" fill-opacity="1"></path><path clip-path="url(#clip660)" d="M500.893 1390.97 Q500.893 1386.28 498.949 1383.61 Q497.028 1380.93 493.648 1380.93 Q490.268 1380.93 488.324 1383.61 Q486.403 1386.28 486.403 1390.97 Q486.403 1395.67 488.324 1398.36 Q490.268 1401.02 493.648 1401.02 Q497.028 1401.02 498.949 1398.36 Q500.893 1395.67 500.893 1390.97 M486.403 1381.92 Q487.745 1379.61 489.782 1378.5 Q491.843 1377.36 494.69 1377.36 Q499.412 1377.36 502.352 1381.11 Q505.315 1384.86 505.315 1390.97 Q505.315 1397.09 502.352 1400.84 Q499.412 1404.59 494.69 1404.59 Q491.843 1404.59 489.782 1403.47 Q487.745 1402.34 486.403 1400.03 L486.403 1403.91 L482.12 1403.91 L482.12 1367.9 L486.403 1367.9 L486.403 1381.92 Z" fill="#000000" fill-rule="nonzero" fill-opacity="1"></path><path clip-path="url(#clip660)" d="M512.375 1377.99 L516.634 1377.99 L516.634 1404.38 Q516.634 1409.33 514.736 1411.55 Q512.861 1413.78 508.671 1413.78 L507.051 1413.78 L507.051 1410.16 L508.185 1410.16 Q510.616 1410.16 511.495 1409.03 Q512.375 1407.92 512.375 1404.38 L512.375 1377.99 M512.375 1367.9 L516.634 1367.9 L516.634 1373.29 L512.375 1373.29 L512.375 1367.9 Z" fill="#000000" fill-rule="nonzero" fill-opacity="1"></path><path clip-path="url(#clip660)" d="M547.722 1389.89 L547.722 1391.97 L528.139 1391.97 Q528.416 1396.37 530.777 1398.68 Q533.162 1400.97 537.398 1400.97 Q539.852 1400.97 542.143 1400.37 Q544.458 1399.77 546.726 1398.57 L546.726 1402.59 Q544.435 1403.57 542.027 1404.08 Q539.62 1404.59 537.143 1404.59 Q530.94 1404.59 527.305 1400.97 Q523.694 1397.36 523.694 1391.21 Q523.694 1384.84 527.12 1381.11 Q530.569 1377.36 536.402 1377.36 Q541.634 1377.36 544.666 1380.74 Q547.722 1384.1 547.722 1389.89 M543.463 1388.64 Q543.416 1385.14 541.495 1383.06 Q539.597 1380.97 536.449 1380.97 Q532.884 1380.97 530.731 1382.99 Q528.602 1385 528.277 1388.66 L543.463 1388.64 Z" fill="#000000" fill-rule="nonzero" fill-opacity="1"></path><path clip-path="url(#clip660)" d="M573.37 1378.98 L573.37 1382.97 Q571.564 1381.97 569.736 1381.48 Q567.93 1380.97 566.078 1380.97 Q561.935 1380.97 559.643 1383.61 Q557.351 1386.23 557.351 1390.97 Q557.351 1395.72 559.643 1398.36 Q561.935 1400.97 566.078 1400.97 Q567.93 1400.97 569.736 1400.49 Q571.564 1399.98 573.37 1398.98 L573.37 1402.92 Q571.587 1403.75 569.666 1404.17 Q567.768 1404.59 565.615 1404.59 Q559.759 1404.59 556.31 1400.91 Q552.861 1397.22 552.861 1390.97 Q552.861 1384.63 556.333 1381 Q559.828 1377.36 565.893 1377.36 Q567.861 1377.36 569.736 1377.78 Q571.611 1378.17 573.37 1378.98 Z" fill="#000000" fill-rule="nonzero" fill-opacity="1"></path><path clip-path="url(#clip660)" d="M584.99 1370.63 L584.99 1377.99 L593.763 1377.99 L593.763 1381.3 L584.99 1381.3 L584.99 1395.37 Q584.99 1398.54 585.847 1399.45 Q586.726 1400.35 589.388 1400.35 L593.763 1400.35 L593.763 1403.91 L589.388 1403.91 Q584.458 1403.91 582.583 1402.09 Q580.708 1400.23 580.708 1395.37 L580.708 1381.3 L577.583 1381.3 L577.583 1377.99 L580.708 1377.99 L580.708 1370.63 L584.99 1370.63 Z" fill="#000000" fill-rule="nonzero" fill-opacity="1"></path><path clip-path="url(#clip660)" d="M599.365 1377.99 L603.624 1377.99 L603.624 1403.91 L599.365 1403.91 L599.365 1377.99 M599.365 1367.9 L603.624 1367.9 L603.624 1373.29 L599.365 1373.29 L599.365 1367.9 Z" fill="#000000" fill-rule="nonzero" fill-opacity="1"></path><path clip-path="url(#clip660)" d="M609.481 1377.99 L613.995 1377.99 L622.096 1399.75 L630.198 1377.99 L634.712 1377.99 L624.99 1403.91 L619.203 1403.91 L609.481 1377.99 Z" fill="#000000" fill-rule="nonzero" fill-opacity="1"></path><path clip-path="url(#clip660)" d="M662.768 1389.89 L662.768 1391.97 L643.184 1391.97 Q643.462 1396.37 645.823 1398.68 Q648.207 1400.97 652.443 1400.97 Q654.897 1400.97 657.189 1400.37 Q659.504 1399.77 661.772 1398.57 L661.772 1402.59 Q659.48 1403.57 657.073 1404.08 Q654.666 1404.59 652.189 1404.59 Q645.985 1404.59 642.351 1400.97 Q638.74 1397.36 638.74 1391.21 Q638.74 1384.84 642.166 1381.11 Q645.615 1377.36 651.448 1377.36 Q656.68 1377.36 659.712 1380.74 Q662.768 1384.1 662.768 1389.89 M658.508 1388.64 Q658.462 1385.14 656.541 1383.06 Q654.643 1380.97 651.494 1380.97 Q647.93 1380.97 645.777 1382.99 Q643.647 1385 643.323 1388.66 L658.508 1388.64 Z" fill="#000000" fill-rule="nonzero" fill-opacity="1"></path></svg>