<svg xmlns="http://www.w3.org/2000/svg" xmlns:xlink="http://www.w3.org/1999/xlink" width="600" height="400" viewBox="0 0 2400 1600">
<defs>
  <clipPath id="clip370">
    <rect x="0" y="0" width="2400" height="1600"></rect>
  </clipPath>
</defs>
<path clip-path="url(#clip370)" d="M0 1600 L2400 1600 L2400 0 L0 0  Z" fill="#ffffff" fill-rule="evenodd" fill-opacity="1"></path>
<defs>
  <clipPath id="clip371">
    <rect x="480" y="0" width="1681" height="1600"></rect>
  </clipPath>
</defs>
<path clip-path="url(#clip370)" d="M193.936 1486.45 L2352.76 1486.45 L2352.76 47.2441 L193.936 47.2441  Z" fill="#ffffff" fill-rule="evenodd" fill-opacity="1"></path>
<defs>
  <clipPath id="clip372">
    <rect x="193" y="47" width="2160" height="1440"></rect>
  </clipPath>
</defs>
<polyline clip-path="url(#clip372)" style="stroke:#000000; stroke-linecap:round; stroke-linejoin:round; stroke-width:2; stroke-opacity:0.1; fill:none" points="284.834,1486.45 284.834,47.2441 "></polyline>
<polyline clip-path="url(#clip372)" style="stroke:#000000; stroke-linecap:round; stroke-linejoin:round; stroke-width:2; stroke-opacity:0.1; fill:none" points="780.685,1486.45 780.685,47.2441 "></polyline>
<polyline clip-path="url(#clip372)" style="stroke:#000000; stroke-linecap:round; stroke-linejoin:round; stroke-width:2; stroke-opacity:0.1; fill:none" points="1276.54,1486.45 1276.54,47.2441 "></polyline>
<polyline clip-path="url(#clip372)" style="stroke:#000000; stroke-linecap:round; stroke-linejoin:round; stroke-width:2; stroke-opacity:0.1; fill:none" points="1772.39,1486.45 1772.39,47.2441 "></polyline>
<polyline clip-path="url(#clip372)" style="stroke:#000000; stroke-linecap:round; stroke-linejoin:round; stroke-width:2; stroke-opacity:0.1; fill:none" points="2268.24,1486.45 2268.24,47.2441 "></polyline>
<polyline clip-path="url(#clip370)" style="stroke:#000000; stroke-linecap:round; stroke-linejoin:round; stroke-width:4; stroke-opacity:1; fill:none" points="193.936,1486.45 2352.76,1486.45 "></polyline>
<polyline clip-path="url(#clip370)" style="stroke:#000000; stroke-linecap:round; stroke-linejoin:round; stroke-width:4; stroke-opacity:1; fill:none" points="284.834,1486.45 284.834,1467.55 "></polyline>
<polyline clip-path="url(#clip370)" style="stroke:#000000; stroke-linecap:round; stroke-linejoin:round; stroke-width:4; stroke-opacity:1; fill:none" points="780.685,1486.45 780.685,1467.55 "></polyline>
<polyline clip-path="url(#clip370)" style="stroke:#000000; stroke-linecap:round; stroke-linejoin:round; stroke-width:4; stroke-opacity:1; fill:none" points="1276.54,1486.45 1276.54,1467.55 "></polyline>
<polyline clip-path="url(#clip370)" style="stroke:#000000; stroke-linecap:round; stroke-linejoin:round; stroke-width:4; stroke-opacity:1; fill:none" points="1772.39,1486.45 1772.39,1467.55 "></polyline>
<polyline clip-path="url(#clip370)" style="stroke:#000000; stroke-linecap:round; stroke-linejoin:round; stroke-width:4; stroke-opacity:1; fill:none" points="2268.24,1486.45 2268.24,1467.55 "></polyline>
<path clip-path="url(#clip370)" d="M247.138 1517.37 Q243.526 1517.37 241.698 1520.93 Q239.892 1524.47 239.892 1531.6 Q239.892 1538.71 241.698 1542.27 Q243.526 1545.82 247.138 1545.82 Q250.772 1545.82 252.577 1542.27 Q254.406 1538.71 254.406 1531.6 Q254.406 1524.47 252.577 1520.93 Q250.772 1517.37 247.138 1517.37 M247.138 1513.66 Q252.948 1513.66 256.003 1518.27 Q259.082 1522.85 259.082 1531.6 Q259.082 1540.33 256.003 1544.94 Q252.948 1549.52 247.138 1549.52 Q241.327 1549.52 238.249 1544.94 Q235.193 1540.33 235.193 1531.6 Q235.193 1522.85 238.249 1518.27 Q241.327 1513.66 247.138 1513.66 Z" fill="#000000" fill-rule="nonzero" fill-opacity="1"></path><path clip-path="url(#clip370)" d="M267.299 1542.97 L272.184 1542.97 L272.184 1548.85 L267.299 1548.85 L267.299 1542.97 Z" fill="#000000" fill-rule="nonzero" fill-opacity="1"></path><path clip-path="url(#clip370)" d="M292.369 1517.37 Q288.758 1517.37 286.929 1520.93 Q285.123 1524.47 285.123 1531.6 Q285.123 1538.71 286.929 1542.27 Q288.758 1545.82 292.369 1545.82 Q296.003 1545.82 297.809 1542.27 Q299.637 1538.71 299.637 1531.6 Q299.637 1524.47 297.809 1520.93 Q296.003 1517.37 292.369 1517.37 M292.369 1513.66 Q298.179 1513.66 301.234 1518.27 Q304.313 1522.85 304.313 1531.6 Q304.313 1540.33 301.234 1544.94 Q298.179 1549.52 292.369 1549.52 Q286.559 1549.52 283.48 1544.94 Q280.424 1540.33 280.424 1531.6 Q280.424 1522.85 283.48 1518.27 Q286.559 1513.66 292.369 1513.66 Z" fill="#000000" fill-rule="nonzero" fill-opacity="1"></path><path clip-path="url(#clip370)" d="M322.531 1517.37 Q318.92 1517.37 317.091 1520.93 Q315.285 1524.47 315.285 1531.6 Q315.285 1538.71 317.091 1542.27 Q318.92 1545.82 322.531 1545.82 Q326.165 1545.82 327.97 1542.27 Q329.799 1538.71 329.799 1531.6 Q329.799 1524.47 327.97 1520.93 Q326.165 1517.37 322.531 1517.37 M322.531 1513.66 Q328.341 1513.66 331.396 1518.27 Q334.475 1522.85 334.475 1531.6 Q334.475 1540.33 331.396 1544.94 Q328.341 1549.52 322.531 1549.52 Q316.721 1549.52 313.642 1544.94 Q310.586 1540.33 310.586 1531.6 Q310.586 1522.85 313.642 1518.27 Q316.721 1513.66 322.531 1513.66 Z" fill="#000000" fill-rule="nonzero" fill-opacity="1"></path><path clip-path="url(#clip370)" d="M743.486 1517.37 Q739.875 1517.37 738.046 1520.93 Q736.24 1524.47 736.24 1531.6 Q736.24 1538.71 738.046 1542.27 Q739.875 1545.82 743.486 1545.82 Q747.12 1545.82 748.926 1542.27 Q750.754 1538.71 750.754 1531.6 Q750.754 1524.47 748.926 1520.93 Q747.12 1517.37 743.486 1517.37 M743.486 1513.66 Q749.296 1513.66 752.351 1518.27 Q755.43 1522.85 755.43 1531.6 Q755.43 1540.33 752.351 1544.94 Q749.296 1549.52 743.486 1549.52 Q737.676 1549.52 734.597 1544.94 Q731.541 1540.33 731.541 1531.6 Q731.541 1522.85 734.597 1518.27 Q737.676 1513.66 743.486 1513.66 Z" fill="#000000" fill-rule="nonzero" fill-opacity="1"></path><path clip-path="url(#clip370)" d="M763.648 1542.97 L768.532 1542.97 L768.532 1548.85 L763.648 1548.85 L763.648 1542.97 Z" fill="#000000" fill-rule="nonzero" fill-opacity="1"></path><path clip-path="url(#clip370)" d="M782.745 1544.91 L799.064 1544.91 L799.064 1548.85 L777.12 1548.85 L777.12 1544.91 Q779.782 1542.16 784.365 1537.53 Q788.972 1532.88 790.152 1531.53 Q792.398 1529.01 793.277 1527.27 Q794.18 1525.51 794.18 1523.82 Q794.18 1521.07 792.236 1519.33 Q790.314 1517.6 787.212 1517.6 Q785.013 1517.6 782.56 1518.36 Q780.129 1519.13 777.351 1520.68 L777.351 1515.95 Q780.175 1514.82 782.629 1514.24 Q785.083 1513.66 787.12 1513.66 Q792.49 1513.66 795.685 1516.35 Q798.879 1519.03 798.879 1523.52 Q798.879 1525.65 798.069 1527.57 Q797.282 1529.47 795.175 1532.07 Q794.597 1532.74 791.495 1535.95 Q788.393 1539.15 782.745 1544.91 Z" fill="#000000" fill-rule="nonzero" fill-opacity="1"></path><path clip-path="url(#clip370)" d="M808.925 1514.29 L827.282 1514.29 L827.282 1518.22 L813.208 1518.22 L813.208 1526.7 Q814.226 1526.35 815.245 1526.19 Q816.263 1526 817.282 1526 Q823.069 1526 826.448 1529.17 Q829.828 1532.34 829.828 1537.76 Q829.828 1543.34 826.356 1546.44 Q822.884 1549.52 816.564 1549.52 Q814.388 1549.52 812.12 1549.15 Q809.874 1548.78 807.467 1548.04 L807.467 1543.34 Q809.55 1544.47 811.772 1545.03 Q813.995 1545.58 816.471 1545.58 Q820.476 1545.58 822.814 1543.48 Q825.152 1541.37 825.152 1537.76 Q825.152 1534.15 822.814 1532.04 Q820.476 1529.94 816.471 1529.94 Q814.597 1529.94 812.722 1530.35 Q810.87 1530.77 808.925 1531.65 L808.925 1514.29 Z" fill="#000000" fill-rule="nonzero" fill-opacity="1"></path><path clip-path="url(#clip370)" d="M1238.84 1517.37 Q1235.23 1517.37 1233.4 1520.93 Q1231.59 1524.47 1231.59 1531.6 Q1231.59 1538.71 1233.4 1542.27 Q1235.23 1545.82 1238.84 1545.82 Q1242.47 1545.82 1244.28 1542.27 Q1246.11 1538.71 1246.11 1531.6 Q1246.11 1524.47 1244.28 1520.93 Q1242.47 1517.37 1238.84 1517.37 M1238.84 1513.66 Q1244.65 1513.66 1247.7 1518.27 Q1250.78 1522.85 1250.78 1531.6 Q1250.78 1540.33 1247.7 1544.94 Q1244.65 1549.52 1238.84 1549.52 Q1233.03 1549.52 1229.95 1544.94 Q1226.89 1540.33 1226.89 1531.6 Q1226.89 1522.85 1229.95 1518.27 Q1233.03 1513.66 1238.84 1513.66 Z" fill="#000000" fill-rule="nonzero" fill-opacity="1"></path><path clip-path="url(#clip370)" d="M1259 1542.97 L1263.88 1542.97 L1263.88 1548.85 L1259 1548.85 L1259 1542.97 Z" fill="#000000" fill-rule="nonzero" fill-opacity="1"></path><path clip-path="url(#clip370)" d="M1274.12 1514.29 L1292.47 1514.29 L1292.47 1518.22 L1278.4 1518.22 L1278.4 1526.7 Q1279.42 1526.35 1280.44 1526.19 Q1281.45 1526 1282.47 1526 Q1288.26 1526 1291.64 1529.17 Q1295.02 1532.34 1295.02 1537.76 Q1295.02 1543.34 1291.55 1546.44 Q1288.07 1549.52 1281.76 1549.52 Q1279.58 1549.52 1277.31 1549.15 Q1275.07 1548.78 1272.66 1548.04 L1272.66 1543.34 Q1274.74 1544.47 1276.96 1545.03 Q1279.19 1545.58 1281.66 1545.58 Q1285.67 1545.58 1288.01 1543.48 Q1290.34 1541.37 1290.34 1537.76 Q1290.34 1534.15 1288.01 1532.04 Q1285.67 1529.94 1281.66 1529.94 Q1279.79 1529.94 1277.91 1530.35 Q1276.06 1530.77 1274.12 1531.65 L1274.12 1514.29 Z" fill="#000000" fill-rule="nonzero" fill-opacity="1"></path><path clip-path="url(#clip370)" d="M1314.23 1517.37 Q1310.62 1517.37 1308.79 1520.93 Q1306.99 1524.47 1306.99 1531.6 Q1306.99 1538.71 1308.79 1542.27 Q1310.62 1545.82 1314.23 1545.82 Q1317.87 1545.82 1319.67 1542.27 Q1321.5 1538.71 1321.5 1531.6 Q1321.5 1524.47 1319.67 1520.93 Q1317.87 1517.37 1314.23 1517.37 M1314.23 1513.66 Q1320.04 1513.66 1323.1 1518.27 Q1326.18 1522.85 1326.18 1531.6 Q1326.18 1540.33 1323.1 1544.94 Q1320.04 1549.52 1314.23 1549.52 Q1308.42 1549.52 1305.34 1544.94 Q1302.29 1540.33 1302.29 1531.6 Q1302.29 1522.85 1305.34 1518.27 Q1308.42 1513.66 1314.23 1513.66 Z" fill="#000000" fill-rule="nonzero" fill-opacity="1"></path><path clip-path="url(#clip370)" d="M1735.19 1517.37 Q1731.58 1517.37 1729.75 1520.93 Q1727.94 1524.47 1727.94 1531.6 Q1727.94 1538.71 1729.75 1542.27 Q1731.58 1545.82 1735.19 1545.82 Q1738.82 1545.82 1740.63 1542.27 Q1742.46 1538.71 1742.46 1531.6 Q1742.46 1524.47 1740.63 1520.93 Q1738.82 1517.37 1735.19 1517.37 M1735.19 1513.66 Q1741 1513.66 1744.05 1518.27 Q1747.13 1522.85 1747.13 1531.6 Q1747.13 1540.33 1744.05 1544.94 Q1741 1549.52 1735.19 1549.52 Q1729.38 1549.52 1726.3 1544.94 Q1723.24 1540.33 1723.24 1531.6 Q1723.24 1522.85 1726.3 1518.27 Q1729.38 1513.66 1735.19 1513.66 Z" fill="#000000" fill-rule="nonzero" fill-opacity="1"></path><path clip-path="url(#clip370)" d="M1755.35 1542.97 L1760.23 1542.97 L1760.23 1548.85 L1755.35 1548.85 L1755.35 1542.97 Z" fill="#000000" fill-rule="nonzero" fill-opacity="1"></path><path clip-path="url(#clip370)" d="M1769.24 1514.29 L1791.46 1514.29 L1791.46 1516.28 L1778.91 1548.85 L1774.03 1548.85 L1785.83 1518.22 L1769.24 1518.22 L1769.24 1514.29 Z" fill="#000000" fill-rule="nonzero" fill-opacity="1"></path><path clip-path="url(#clip370)" d="M1800.63 1514.29 L1818.98 1514.29 L1818.98 1518.22 L1804.91 1518.22 L1804.91 1526.7 Q1805.93 1526.35 1806.95 1526.19 Q1807.96 1526 1808.98 1526 Q1814.77 1526 1818.15 1529.17 Q1821.53 1532.34 1821.53 1537.76 Q1821.53 1543.34 1818.06 1546.44 Q1814.58 1549.52 1808.27 1549.52 Q1806.09 1549.52 1803.82 1549.15 Q1801.58 1548.78 1799.17 1548.04 L1799.17 1543.34 Q1801.25 1544.47 1803.47 1545.03 Q1805.7 1545.58 1808.17 1545.58 Q1812.18 1545.58 1814.52 1543.48 Q1816.85 1541.37 1816.85 1537.76 Q1816.85 1534.15 1814.52 1532.04 Q1812.18 1529.94 1808.17 1529.94 Q1806.3 1529.94 1804.42 1530.35 Q1802.57 1530.77 1800.63 1531.65 L1800.63 1514.29 Z" fill="#000000" fill-rule="nonzero" fill-opacity="1"></path><path clip-path="url(#clip370)" d="M2220.31 1544.91 L2227.95 1544.91 L2227.95 1518.55 L2219.64 1520.21 L2219.64 1515.95 L2227.9 1514.29 L2232.58 1514.29 L2232.58 1544.91 L2240.22 1544.91 L2240.22 1548.85 L2220.31 1548.85 L2220.31 1544.91 Z" fill="#000000" fill-rule="nonzero" fill-opacity="1"></path><path clip-path="url(#clip370)" d="M2249.66 1542.97 L2254.54 1542.97 L2254.54 1548.85 L2249.66 1548.85 L2249.66 1542.97 Z" fill="#000000" fill-rule="nonzero" fill-opacity="1"></path><path clip-path="url(#clip370)" d="M2274.73 1517.37 Q2271.12 1517.37 2269.29 1520.93 Q2267.48 1524.47 2267.48 1531.6 Q2267.48 1538.71 2269.29 1542.27 Q2271.12 1545.82 2274.73 1545.82 Q2278.36 1545.82 2280.17 1542.27 Q2282 1538.71 2282 1531.6 Q2282 1524.47 2280.17 1520.93 Q2278.36 1517.37 2274.73 1517.37 M2274.73 1513.66 Q2280.54 1513.66 2283.59 1518.27 Q2286.67 1522.85 2286.67 1531.6 Q2286.67 1540.33 2283.59 1544.94 Q2280.54 1549.52 2274.73 1549.52 Q2268.92 1549.52 2265.84 1544.94 Q2262.78 1540.33 2262.78 1531.6 Q2262.78 1522.85 2265.84 1518.27 Q2268.92 1513.66 2274.73 1513.66 Z" fill="#000000" fill-rule="nonzero" fill-opacity="1"></path><path clip-path="url(#clip370)" d="M2304.89 1517.37 Q2301.28 1517.37 2299.45 1520.93 Q2297.65 1524.47 2297.65 1531.6 Q2297.65 1538.71 2299.45 1542.27 Q2301.28 1545.82 2304.89 1545.82 Q2308.53 1545.82 2310.33 1542.27 Q2312.16 1538.71 2312.16 1531.6 Q2312.16 1524.47 2310.33 1520.93 Q2308.53 1517.37 2304.89 1517.37 M2304.89 1513.66 Q2310.7 1513.66 2313.76 1518.27 Q2316.84 1522.85 2316.84 1531.6 Q2316.84 1540.33 2313.76 1544.94 Q2310.7 1549.52 2304.89 1549.52 Q2299.08 1549.52 2296 1544.94 Q2292.95 1540.33 2292.95 1531.6 Q2292.95 1522.85 2296 1518.27 Q2299.08 1513.66 2304.89 1513.66 Z" fill="#000000" fill-rule="nonzero" fill-opacity="1"></path><polyline clip-path="url(#clip372)" style="stroke:#000000; stroke-linecap:round; stroke-linejoin:round; stroke-width:2; stroke-opacity:0.1; fill:none" points="193.936,1456.14 2352.76,1456.14 "></polyline>
<polyline clip-path="url(#clip372)" style="stroke:#000000; stroke-linecap:round; stroke-linejoin:round; stroke-width:2; stroke-opacity:0.1; fill:none" points="193.936,1066.79 2352.76,1066.79 "></polyline>
<polyline clip-path="url(#clip372)" style="stroke:#000000; stroke-linecap:round; stroke-linejoin:round; stroke-width:2; stroke-opacity:0.1; fill:none" points="193.936,677.437 2352.76,677.437 "></polyline>
<polyline clip-path="url(#clip372)" style="stroke:#000000; stroke-linecap:round; stroke-linejoin:round; stroke-width:2; stroke-opacity:0.1; fill:none" points="193.936,288.087 2352.76,288.087 "></polyline>
<polyline clip-path="url(#clip370)" style="stroke:#000000; stroke-linecap:round; stroke-linejoin:round; stroke-width:4; stroke-opacity:1; fill:none" points="193.936,1486.45 193.936,47.2441 "></polyline>
<polyline clip-path="url(#clip370)" style="stroke:#000000; stroke-linecap:round; stroke-linejoin:round; stroke-width:4; stroke-opacity:1; fill:none" points="193.936,1456.14 212.834,1456.14 "></polyline>
<polyline clip-path="url(#clip370)" style="stroke:#000000; stroke-linecap:round; stroke-linejoin:round; stroke-width:4; stroke-opacity:1; fill:none" points="193.936,1066.79 212.834,1066.79 "></polyline>
<polyline clip-path="url(#clip370)" style="stroke:#000000; stroke-linecap:round; stroke-linejoin:round; stroke-width:4; stroke-opacity:1; fill:none" points="193.936,677.437 212.834,677.437 "></polyline>
<polyline clip-path="url(#clip370)" style="stroke:#000000; stroke-linecap:round; stroke-linejoin:round; stroke-width:4; stroke-opacity:1; fill:none" points="193.936,288.087 212.834,288.087 "></polyline>
<path clip-path="url(#clip370)" d="M50.9921 1456.59 L80.6679 1456.59 L80.6679 1460.52 L50.9921 1460.52 L50.9921 1456.59 Z" fill="#000000" fill-rule="nonzero" fill-opacity="1"></path><path clip-path="url(#clip370)" d="M91.5706 1469.48 L99.2095 1469.48 L99.2095 1443.11 L90.8993 1444.78 L90.8993 1440.52 L99.1632 1438.86 L103.839 1438.86 L103.839 1469.48 L111.478 1469.48 L111.478 1473.42 L91.5706 1473.42 L91.5706 1469.48 Z" fill="#000000" fill-rule="nonzero" fill-opacity="1"></path><path clip-path="url(#clip370)" d="M120.922 1467.54 L125.807 1467.54 L125.807 1473.42 L120.922 1473.42 L120.922 1467.54 Z" fill="#000000" fill-rule="nonzero" fill-opacity="1"></path><path clip-path="url(#clip370)" d="M145.992 1441.93 Q142.381 1441.93 140.552 1445.5 Q138.746 1449.04 138.746 1456.17 Q138.746 1463.28 140.552 1466.84 Q142.381 1470.38 145.992 1470.38 Q149.626 1470.38 151.431 1466.84 Q153.26 1463.28 153.26 1456.17 Q153.26 1449.04 151.431 1445.5 Q149.626 1441.93 145.992 1441.93 M145.992 1438.23 Q151.802 1438.23 154.857 1442.84 Q157.936 1447.42 157.936 1456.17 Q157.936 1464.9 154.857 1469.5 Q151.802 1474.09 145.992 1474.09 Q140.181 1474.09 137.103 1469.5 Q134.047 1464.9 134.047 1456.17 Q134.047 1447.42 137.103 1442.84 Q140.181 1438.23 145.992 1438.23 Z" fill="#000000" fill-rule="nonzero" fill-opacity="1"></path><path clip-path="url(#clip370)" d="M51.9875 1067.24 L81.6633 1067.24 L81.6633 1071.17 L51.9875 1071.17 L51.9875 1067.24 Z" fill="#000000" fill-rule="nonzero" fill-opacity="1"></path><path clip-path="url(#clip370)" d="M101.756 1052.58 Q98.1447 1052.58 96.316 1056.15 Q94.5104 1059.69 94.5104 1066.82 Q94.5104 1073.93 96.316 1077.49 Q98.1447 1081.03 101.756 1081.03 Q105.39 1081.03 107.196 1077.49 Q109.024 1073.93 109.024 1066.82 Q109.024 1059.69 107.196 1056.15 Q105.39 1052.58 101.756 1052.58 M101.756 1048.88 Q107.566 1048.88 110.621 1053.49 Q113.7 1058.07 113.7 1066.82 Q113.7 1075.55 110.621 1080.15 Q107.566 1084.74 101.756 1084.74 Q95.9456 1084.74 92.8669 1080.15 Q89.8114 1075.55 89.8114 1066.82 Q89.8114 1058.07 92.8669 1053.49 Q95.9456 1048.88 101.756 1048.88 Z" fill="#000000" fill-rule="nonzero" fill-opacity="1"></path><path clip-path="url(#clip370)" d="M121.918 1078.19 L126.802 1078.19 L126.802 1084.07 L121.918 1084.07 L121.918 1078.19 Z" fill="#000000" fill-rule="nonzero" fill-opacity="1"></path><path clip-path="url(#clip370)" d="M137.033 1049.51 L155.39 1049.51 L155.39 1053.44 L141.316 1053.44 L141.316 1061.91 Q142.334 1061.57 143.353 1061.4 Q144.371 1061.22 145.39 1061.22 Q151.177 1061.22 154.556 1064.39 Q157.936 1067.56 157.936 1072.98 Q157.936 1078.56 154.464 1081.66 Q150.992 1084.74 144.672 1084.74 Q142.496 1084.74 140.228 1084.37 Q137.982 1084 135.575 1083.26 L135.575 1078.56 Q137.658 1079.69 139.881 1080.25 Q142.103 1080.8 144.58 1080.8 Q148.584 1080.8 150.922 1078.7 Q153.26 1076.59 153.26 1072.98 Q153.26 1069.37 150.922 1067.26 Q148.584 1065.15 144.58 1065.15 Q142.705 1065.15 140.83 1065.57 Q138.978 1065.99 137.033 1066.87 L137.033 1049.51 Z" fill="#000000" fill-rule="nonzero" fill-opacity="1"></path><path clip-path="url(#clip370)" d="M100.76 663.235 Q97.1493 663.235 95.3206 666.8 Q93.515 670.342 93.515 677.471 Q93.515 684.578 95.3206 688.143 Q97.1493 691.684 100.76 691.684 Q104.395 691.684 106.2 688.143 Q108.029 684.578 108.029 677.471 Q108.029 670.342 106.2 666.8 Q104.395 663.235 100.76 663.235 M100.76 659.532 Q106.571 659.532 109.626 664.138 Q112.705 668.721 112.705 677.471 Q112.705 686.198 109.626 690.805 Q106.571 695.388 100.76 695.388 Q94.9502 695.388 91.8715 690.805 Q88.816 686.198 88.816 677.471 Q88.816 668.721 91.8715 664.138 Q94.9502 659.532 100.76 659.532 Z" fill="#000000" fill-rule="nonzero" fill-opacity="1"></path><path clip-path="url(#clip370)" d="M120.922 688.837 L125.807 688.837 L125.807 694.717 L120.922 694.717 L120.922 688.837 Z" fill="#000000" fill-rule="nonzero" fill-opacity="1"></path><path clip-path="url(#clip370)" d="M145.992 663.235 Q142.381 663.235 140.552 666.8 Q138.746 670.342 138.746 677.471 Q138.746 684.578 140.552 688.143 Q142.381 691.684 145.992 691.684 Q149.626 691.684 151.431 688.143 Q153.26 684.578 153.26 677.471 Q153.26 670.342 151.431 666.8 Q149.626 663.235 145.992 663.235 M145.992 659.532 Q151.802 659.532 154.857 664.138 Q157.936 668.721 157.936 677.471 Q157.936 686.198 154.857 690.805 Q151.802 695.388 145.992 695.388 Q140.181 695.388 137.103 690.805 Q134.047 686.198 134.047 677.471 Q134.047 668.721 137.103 664.138 Q140.181 659.532 145.992 659.532 Z" fill="#000000" fill-rule="nonzero" fill-opacity="1"></path><path clip-path="url(#clip370)" d="M101.756 273.886 Q98.1447 273.886 96.316 277.451 Q94.5104 280.992 94.5104 288.122 Q94.5104 295.228 96.316 298.793 Q98.1447 302.335 101.756 302.335 Q105.39 302.335 107.196 298.793 Q109.024 295.228 109.024 288.122 Q109.024 280.992 107.196 277.451 Q105.39 273.886 101.756 273.886 M101.756 270.182 Q107.566 270.182 110.621 274.789 Q113.7 279.372 113.7 288.122 Q113.7 296.849 110.621 301.455 Q107.566 306.039 101.756 306.039 Q95.9456 306.039 92.8669 301.455 Q89.8114 296.849 89.8114 288.122 Q89.8114 279.372 92.8669 274.789 Q95.9456 270.182 101.756 270.182 Z" fill="#000000" fill-rule="nonzero" fill-opacity="1"></path><path clip-path="url(#clip370)" d="M121.918 299.488 L126.802 299.488 L126.802 305.367 L121.918 305.367 L121.918 299.488 Z" fill="#000000" fill-rule="nonzero" fill-opacity="1"></path><path clip-path="url(#clip370)" d="M137.033 270.807 L155.39 270.807 L155.39 274.742 L141.316 274.742 L141.316 283.215 Q142.334 282.867 143.353 282.705 Q144.371 282.52 145.39 282.52 Q151.177 282.52 154.556 285.691 Q157.936 288.863 157.936 294.279 Q157.936 299.858 154.464 302.96 Q150.992 306.039 144.672 306.039 Q142.496 306.039 140.228 305.668 Q137.982 305.298 135.575 304.557 L135.575 299.858 Q137.658 300.992 139.881 301.548 Q142.103 302.103 144.58 302.103 Q148.584 302.103 150.922 299.997 Q153.26 297.89 153.26 294.279 Q153.26 290.668 150.922 288.562 Q148.584 286.455 144.58 286.455 Q142.705 286.455 140.83 286.872 Q138.978 287.289 137.033 288.168 L137.033 270.807 Z" fill="#000000" fill-rule="nonzero" fill-opacity="1"></path><circle clip-path="url(#clip372)" cx="1488" cy="1445.72" r="14.4" fill="#009af9" fill-rule="evenodd" fill-opacity="1" stroke="#000000" stroke-opacity="1" stroke-width="3.2"></circle>
<circle clip-path="url(#clip372)" cx="2246.47" cy="713.271" r="14.4" fill="#009af9" fill-rule="evenodd" fill-opacity="1" stroke="#000000" stroke-opacity="1" stroke-width="3.2"></circle>
<circle clip-path="url(#clip372)" cx="2215.37" cy="667.883" r="14.4" fill="#009af9" fill-rule="evenodd" fill-opacity="1" stroke="#000000" stroke-opacity="1" stroke-width="3.2"></circle>
<circle clip-path="url(#clip372)" cx="704.677" cy="531.845" r="14.4" fill="#009af9" fill-rule="evenodd" fill-opacity="1" stroke="#000000" stroke-opacity="1" stroke-width="3.2"></circle>
<circle clip-path="url(#clip372)" cx="1640.68" cy="431.802" r="14.4" fill="#009af9" fill-rule="evenodd" fill-opacity="1" stroke="#000000" stroke-opacity="1" stroke-width="3.2"></circle>
<circle clip-path="url(#clip372)" cx="1174.43" cy="1054.76" r="14.4" fill="#009af9" fill-rule="evenodd" fill-opacity="1" stroke="#000000" stroke-opacity="1" stroke-width="3.2"></circle>
<circle clip-path="url(#clip372)" cx="1433.15" cy="135.733" r="14.4" fill="#009af9" fill-rule="evenodd" fill-opacity="1" stroke="#000000" stroke-opacity="1" stroke-width="3.2"></circle>
<circle clip-path="url(#clip372)" cx="1420.57" cy="1059.67" r="14.4" fill="#009af9" fill-rule="evenodd" fill-opacity="1" stroke="#000000" stroke-opacity="1" stroke-width="3.2"></circle>
<circle clip-path="url(#clip372)" cx="391.396" cy="718.809" r="14.4" fill="#009af9" fill-rule="evenodd" fill-opacity="1" stroke="#000000" stroke-opacity="1" stroke-width="3.2"></circle>
<circle clip-path="url(#clip372)" cx="997.18" cy="219.715" r="14.4" fill="#009af9" fill-rule="evenodd" fill-opacity="1" stroke="#000000" stroke-opacity="1" stroke-width="3.2"></circle>
<circle clip-path="url(#clip372)" cx="2197.27" cy="735.518" r="14.4" fill="#009af9" fill-rule="evenodd" fill-opacity="1" stroke="#000000" stroke-opacity="1" stroke-width="3.2"></circle>
<circle clip-path="url(#clip372)" cx="1480.01" cy="117.737" r="14.4" fill="#009af9" fill-rule="evenodd" fill-opacity="1" stroke="#000000" stroke-opacity="1" stroke-width="3.2"></circle>
<circle clip-path="url(#clip372)" cx="884.859" cy="413.184" r="14.4" fill="#009af9" fill-rule="evenodd" fill-opacity="1" stroke="#000000" stroke-opacity="1" stroke-width="3.2"></circle>
<circle clip-path="url(#clip372)" cx="2182.66" cy="661.641" r="14.4" fill="#009af9" fill-rule="evenodd" fill-opacity="1" stroke="#000000" stroke-opacity="1" stroke-width="3.2"></circle>
<circle clip-path="url(#clip372)" cx="263.061" cy="672.751" r="14.4" fill="#009af9" fill-rule="evenodd" fill-opacity="1" stroke="#000000" stroke-opacity="1" stroke-width="3.2"></circle>
<circle clip-path="url(#clip372)" cx="282.882" cy="667.204" r="14.4" fill="#009af9" fill-rule="evenodd" fill-opacity="1" stroke="#000000" stroke-opacity="1" stroke-width="3.2"></circle>
<circle clip-path="url(#clip372)" cx="1237.5" cy="682.512" r="14.4" fill="#009af9" fill-rule="evenodd" fill-opacity="1" stroke="#000000" stroke-opacity="1" stroke-width="3.2"></circle>
<circle clip-path="url(#clip372)" cx="2051.97" cy="628.777" r="14.4" fill="#009af9" fill-rule="evenodd" fill-opacity="1" stroke="#000000" stroke-opacity="1" stroke-width="3.2"></circle>
<circle clip-path="url(#clip372)" cx="942.958" cy="341.191" r="14.4" fill="#009af9" fill-rule="evenodd" fill-opacity="1" stroke="#000000" stroke-opacity="1" stroke-width="3.2"></circle>
<circle clip-path="url(#clip372)" cx="1725.99" cy="1020.96" r="14.4" fill="#009af9" fill-rule="evenodd" fill-opacity="1" stroke="#000000" stroke-opacity="1" stroke-width="3.2"></circle>
<circle clip-path="url(#clip372)" cx="314.969" cy="688.78" r="14.4" fill="#009af9" fill-rule="evenodd" fill-opacity="1" stroke="#000000" stroke-opacity="1" stroke-width="3.2"></circle>
<circle clip-path="url(#clip372)" cx="953.695" cy="1143.53" r="14.4" fill="#009af9" fill-rule="evenodd" fill-opacity="1" stroke="#000000" stroke-opacity="1" stroke-width="3.2"></circle>
<circle clip-path="url(#clip372)" cx="1983.9" cy="833.334" r="14.4" fill="#009af9" fill-rule="evenodd" fill-opacity="1" stroke="#000000" stroke-opacity="1" stroke-width="3.2"></circle>
<circle clip-path="url(#clip372)" cx="1046.21" cy="87.9763" r="14.4" fill="#009af9" fill-rule="evenodd" fill-opacity="1" stroke="#000000" stroke-opacity="1" stroke-width="3.2"></circle>
<circle clip-path="url(#clip372)" cx="1356.84" cy="682.405" r="14.4" fill="#009af9" fill-rule="evenodd" fill-opacity="1" stroke="#000000" stroke-opacity="1" stroke-width="3.2"></circle>
<circle clip-path="url(#clip372)" cx="2063.06" cy="793.998" r="14.4" fill="#009af9" fill-rule="evenodd" fill-opacity="1" stroke="#000000" stroke-opacity="1" stroke-width="3.2"></circle>
<circle clip-path="url(#clip372)" cx="690.474" cy="866.437" r="14.4" fill="#009af9" fill-rule="evenodd" fill-opacity="1" stroke="#000000" stroke-opacity="1" stroke-width="3.2"></circle>
<circle clip-path="url(#clip372)" cx="304.655" cy="679.34" r="14.4" fill="#009af9" fill-rule="evenodd" fill-opacity="1" stroke="#000000" stroke-opacity="1" stroke-width="3.2"></circle>
<circle clip-path="url(#clip372)" cx="2241.19" cy="672.204" r="14.4" fill="#009af9" fill-rule="evenodd" fill-opacity="1" stroke="#000000" stroke-opacity="1" stroke-width="3.2"></circle>
<circle clip-path="url(#clip372)" cx="1823.3" cy="545.717" r="14.4" fill="#009af9" fill-rule="evenodd" fill-opacity="1" stroke="#000000" stroke-opacity="1" stroke-width="3.2"></circle>
<circle clip-path="url(#clip372)" cx="1388.59" cy="367.578" r="14.4" fill="#009af9" fill-rule="evenodd" fill-opacity="1" stroke="#000000" stroke-opacity="1" stroke-width="3.2"></circle>
<circle clip-path="url(#clip372)" cx="1034.03" cy="1344.75" r="14.4" fill="#009af9" fill-rule="evenodd" fill-opacity="1" stroke="#000000" stroke-opacity="1" stroke-width="3.2"></circle>
<circle clip-path="url(#clip372)" cx="533.004" cy="600.233" r="14.4" fill="#009af9" fill-rule="evenodd" fill-opacity="1" stroke="#000000" stroke-opacity="1" stroke-width="3.2"></circle>
<circle clip-path="url(#clip372)" cx="2291.66" cy="680.382" r="14.4" fill="#009af9" fill-rule="evenodd" fill-opacity="1" stroke="#000000" stroke-opacity="1" stroke-width="3.2"></circle>
<circle clip-path="url(#clip372)" cx="778.993" cy="929.445" r="14.4" fill="#009af9" fill-rule="evenodd" fill-opacity="1" stroke="#000000" stroke-opacity="1" stroke-width="3.2"></circle>
<circle clip-path="url(#clip372)" cx="605.328" cy="815.982" r="14.4" fill="#009af9" fill-rule="evenodd" fill-opacity="1" stroke="#000000" stroke-opacity="1" stroke-width="3.2"></circle>
<circle clip-path="url(#clip372)" cx="1883.83" cy="571.655" r="14.4" fill="#009af9" fill-rule="evenodd" fill-opacity="1" stroke="#000000" stroke-opacity="1" stroke-width="3.2"></circle>
<circle clip-path="url(#clip372)" cx="255.035" cy="676.677" r="14.4" fill="#009af9" fill-rule="evenodd" fill-opacity="1" stroke="#000000" stroke-opacity="1" stroke-width="3.2"></circle>
<circle clip-path="url(#clip372)" cx="1093.09" cy="142.418" r="14.4" fill="#009af9" fill-rule="evenodd" fill-opacity="1" stroke="#000000" stroke-opacity="1" stroke-width="3.2"></circle>
<circle clip-path="url(#clip372)" cx="2100.36" cy="642.143" r="14.4" fill="#009af9" fill-rule="evenodd" fill-opacity="1" stroke="#000000" stroke-opacity="1" stroke-width="3.2"></circle>
<circle clip-path="url(#clip372)" cx="1296.81" cy="667.374" r="14.4" fill="#009af9" fill-rule="evenodd" fill-opacity="1" stroke="#000000" stroke-opacity="1" stroke-width="3.2"></circle>
<circle clip-path="url(#clip372)" cx="1583.21" cy="365.233" r="14.4" fill="#009af9" fill-rule="evenodd" fill-opacity="1" stroke="#000000" stroke-opacity="1" stroke-width="3.2"></circle>
<circle clip-path="url(#clip372)" cx="452.695" cy="742.981" r="14.4" fill="#009af9" fill-rule="evenodd" fill-opacity="1" stroke="#000000" stroke-opacity="1" stroke-width="3.2"></circle>
<circle clip-path="url(#clip372)" cx="1639.91" cy="1144.53" r="14.4" fill="#009af9" fill-rule="evenodd" fill-opacity="1" stroke="#000000" stroke-opacity="1" stroke-width="3.2"></circle>
<circle clip-path="url(#clip372)" cx="2134.89" cy="761.721" r="14.4" fill="#009af9" fill-rule="evenodd" fill-opacity="1" stroke="#000000" stroke-opacity="1" stroke-width="3.2"></circle>
<circle clip-path="url(#clip372)" cx="1107.56" cy="1430.44" r="14.4" fill="#009af9" fill-rule="evenodd" fill-opacity="1" stroke="#000000" stroke-opacity="1" stroke-width="3.2"></circle>
<circle clip-path="url(#clip372)" cx="1304.24" cy="700.934" r="14.4" fill="#009af9" fill-rule="evenodd" fill-opacity="1" stroke="#000000" stroke-opacity="1" stroke-width="3.2"></circle>
<circle clip-path="url(#clip372)" cx="385.659" cy="643.332" r="14.4" fill="#009af9" fill-rule="evenodd" fill-opacity="1" stroke="#000000" stroke-opacity="1" stroke-width="3.2"></circle>
<circle clip-path="url(#clip372)" cx="310.252" cy="660.575" r="14.4" fill="#009af9" fill-rule="evenodd" fill-opacity="1" stroke="#000000" stroke-opacity="1" stroke-width="3.2"></circle>
<circle clip-path="url(#clip372)" cx="1942.72" cy="593.805" r="14.4" fill="#009af9" fill-rule="evenodd" fill-opacity="1" stroke="#000000" stroke-opacity="1" stroke-width="3.2"></circle>
<circle clip-path="url(#clip372)" cx="645.613" cy="558.085" r="14.4" fill="#009af9" fill-rule="evenodd" fill-opacity="1" stroke="#000000" stroke-opacity="1" stroke-width="3.2"></circle>
<circle clip-path="url(#clip372)" cx="588.252" cy="580.65" r="14.4" fill="#009af9" fill-rule="evenodd" fill-opacity="1" stroke="#000000" stroke-opacity="1" stroke-width="3.2"></circle>
<circle clip-path="url(#clip372)" cx="2265.63" cy="677.085" r="14.4" fill="#009af9" fill-rule="evenodd" fill-opacity="1" stroke="#000000" stroke-opacity="1" stroke-width="3.2"></circle>
<circle clip-path="url(#clip372)" cx="1345.65" cy="625.435" r="14.4" fill="#009af9" fill-rule="evenodd" fill-opacity="1" stroke="#000000" stroke-opacity="1" stroke-width="3.2"></circle>
<circle clip-path="url(#clip372)" cx="1762.29" cy="515.025" r="14.4" fill="#009af9" fill-rule="evenodd" fill-opacity="1" stroke="#000000" stroke-opacity="1" stroke-width="3.2"></circle>
<circle clip-path="url(#clip372)" cx="2258.69" cy="675.204" r="14.4" fill="#009af9" fill-rule="evenodd" fill-opacity="1" stroke="#000000" stroke-opacity="1" stroke-width="3.2"></circle>
<circle clip-path="url(#clip372)" cx="1560.25" cy="1348.2" r="14.4" fill="#009af9" fill-rule="evenodd" fill-opacity="1" stroke="#000000" stroke-opacity="1" stroke-width="3.2"></circle>
<circle clip-path="url(#clip372)" cx="480.372" cy="617.127" r="14.4" fill="#009af9" fill-rule="evenodd" fill-opacity="1" stroke="#000000" stroke-opacity="1" stroke-width="3.2"></circle>
<circle clip-path="url(#clip372)" cx="2144.04" cy="653.092" r="14.4" fill="#009af9" fill-rule="evenodd" fill-opacity="1" stroke="#000000" stroke-opacity="1" stroke-width="3.2"></circle>
<circle clip-path="url(#clip372)" cx="1223.11" cy="696.973" r="14.4" fill="#009af9" fill-rule="evenodd" fill-opacity="1" stroke="#000000" stroke-opacity="1" stroke-width="3.2"></circle>
<circle clip-path="url(#clip372)" cx="1899.54" cy="881.65" r="14.4" fill="#009af9" fill-rule="evenodd" fill-opacity="1" stroke="#000000" stroke-opacity="1" stroke-width="3.2"></circle>
<circle clip-path="url(#clip372)" cx="825.038" cy="462.52" r="14.4" fill="#009af9" fill-rule="evenodd" fill-opacity="1" stroke="#000000" stroke-opacity="1" stroke-width="3.2"></circle>
<circle clip-path="url(#clip372)" cx="431.052" cy="631.467" r="14.4" fill="#009af9" fill-rule="evenodd" fill-opacity="1" stroke="#000000" stroke-opacity="1" stroke-width="3.2"></circle>
<circle clip-path="url(#clip372)" cx="2279.41" cy="694.894" r="14.4" fill="#009af9" fill-rule="evenodd" fill-opacity="1" stroke="#000000" stroke-opacity="1" stroke-width="3.2"></circle>
<circle clip-path="url(#clip372)" cx="764.727" cy="500.688" r="14.4" fill="#009af9" fill-rule="evenodd" fill-opacity="1" stroke="#000000" stroke-opacity="1" stroke-width="3.2"></circle>
<circle clip-path="url(#clip372)" cx="1700.79" cy="478.292" r="14.4" fill="#009af9" fill-rule="evenodd" fill-opacity="1" stroke="#000000" stroke-opacity="1" stroke-width="3.2"></circle>
<circle clip-path="url(#clip372)" cx="1263.62" cy="659.404" r="14.4" fill="#009af9" fill-rule="evenodd" fill-opacity="1" stroke="#000000" stroke-opacity="1" stroke-width="3.2"></circle>
<circle clip-path="url(#clip372)" cx="1999.08" cy="612.777" r="14.4" fill="#009af9" fill-rule="evenodd" fill-opacity="1" stroke="#000000" stroke-opacity="1" stroke-width="3.2"></circle>
<circle clip-path="url(#clip372)" cx="1529.84" cy="253.968" r="14.4" fill="#009af9" fill-rule="evenodd" fill-opacity="1" stroke="#000000" stroke-opacity="1" stroke-width="3.2"></circle>
<circle clip-path="url(#clip372)" cx="867.491" cy="1013.38" r="14.4" fill="#009af9" fill-rule="evenodd" fill-opacity="1" stroke="#000000" stroke-opacity="1" stroke-width="3.2"></circle>
<circle clip-path="url(#clip372)" cx="344.741" cy="701.347" r="14.4" fill="#009af9" fill-rule="evenodd" fill-opacity="1" stroke="#000000" stroke-opacity="1" stroke-width="3.2"></circle>
<circle clip-path="url(#clip372)" cx="1181.16" cy="649.449" r="14.4" fill="#009af9" fill-rule="evenodd" fill-opacity="1" stroke="#000000" stroke-opacity="1" stroke-width="3.2"></circle>
<circle clip-path="url(#clip372)" cx="1137.83" cy="403.308" r="14.4" fill="#009af9" fill-rule="evenodd" fill-opacity="1" stroke="#000000" stroke-opacity="1" stroke-width="3.2"></circle>
<circle clip-path="url(#clip372)" cx="344.955" cy="652.828" r="14.4" fill="#009af9" fill-rule="evenodd" fill-opacity="1" stroke="#000000" stroke-opacity="1" stroke-width="3.2"></circle>
<circle clip-path="url(#clip372)" cx="1812.9" cy="942.328" r="14.4" fill="#009af9" fill-rule="evenodd" fill-opacity="1" stroke="#000000" stroke-opacity="1" stroke-width="3.2"></circle>
<circle clip-path="url(#clip372)" cx="525.425" cy="775.007" r="14.4" fill="#009af9" fill-rule="evenodd" fill-opacity="1" stroke="#000000" stroke-opacity="1" stroke-width="3.2"></circle>
<path clip-path="url(#clip370)" d="M2012.48 198.898 L2280.8 198.898 L2280.8 95.2176 L2012.48 95.2176  Z" fill="#ffffff" fill-rule="evenodd" fill-opacity="1"></path>
<polyline clip-path="url(#clip370)" style="stroke:#000000; stroke-linecap:round; stroke-linejoin:round; stroke-width:4; stroke-opacity:1; fill:none" points="2012.48,198.898 2280.8,198.898 2280.8,95.2176 2012.48,95.2176 2012.48,198.898 "></polyline>
<circle clip-path="url(#clip370)" cx="2108.43" cy="147.058" r="20.48" fill="#009af9" fill-rule="evenodd" fill-opacity="1" stroke="#000000" stroke-opacity="1" stroke-width="4.55111"></circle>
<path clip-path="url(#clip370)" d="M2218.22 166.745 Q2216.42 171.375 2214.7 172.787 Q2212.99 174.199 2210.12 174.199 L2206.72 174.199 L2206.72 170.634 L2209.22 170.634 Q2210.98 170.634 2211.95 169.8 Q2212.92 168.967 2214.1 165.865 L2214.86 163.921 L2204.38 138.412 L2208.89 138.412 L2216.99 158.689 L2225.1 138.412 L2229.61 138.412 L2218.22 166.745 Z" fill="#000000" fill-rule="nonzero" fill-opacity="1"></path><path clip-path="url(#clip370)" d="M2236.9 160.402 L2244.54 160.402 L2244.54 134.037 L2236.23 135.703 L2236.23 131.444 L2244.49 129.778 L2249.17 129.778 L2249.17 160.402 L2256.81 160.402 L2256.81 164.338 L2236.9 164.338 L2236.9 160.402 Z" fill="#000000" fill-rule="nonzero" fill-opacity="1"></path></svg>