<svg xmlns="http://www.w3.org/2000/svg" xmlns:xlink="http://www.w3.org/1999/xlink" width="600" height="400" viewBox="0 0 2400 1600">
<defs>
  <clipPath id="clip550">
    <rect x="0" y="0" width="2400" height="1600"></rect>
  </clipPath>
</defs>
<path clip-path="url(#clip550)" d="M0 1600 L2400 1600 L2400 0 L0 0  Z" fill="#ffffff" fill-rule="evenodd" fill-opacity="1"></path>
<defs>
  <clipPath id="clip551">
    <rect x="480" y="0" width="1681" height="1600"></rect>
  </clipPath>
</defs>
<path clip-path="url(#clip550)" d="M148.867 1486.45 L2352.76 1486.45 L2352.76 47.2441 L148.867 47.2441  Z" fill="#ffffff" fill-rule="evenodd" fill-opacity="1"></path>
<defs>
  <clipPath id="clip552">
    <rect x="148" y="47" width="2205" height="1440"></rect>
  </clipPath>
</defs>
<polyline clip-path="url(#clip552)" style="stroke:#000000; stroke-linecap:round; stroke-linejoin:round; stroke-width:2; stroke-opacity:0.1; fill:none" points="160.53,1486.45 160.53,47.2441 "></polyline>
<polyline clip-path="url(#clip552)" style="stroke:#000000; stroke-linecap:round; stroke-linejoin:round; stroke-width:2; stroke-opacity:0.1; fill:none" points="667.638,1486.45 667.638,47.2441 "></polyline>
<polyline clip-path="url(#clip552)" style="stroke:#000000; stroke-linecap:round; stroke-linejoin:round; stroke-width:2; stroke-opacity:0.1; fill:none" points="1174.75,1486.45 1174.75,47.2441 "></polyline>
<polyline clip-path="url(#clip552)" style="stroke:#000000; stroke-linecap:round; stroke-linejoin:round; stroke-width:2; stroke-opacity:0.1; fill:none" points="1681.85,1486.45 1681.85,47.2441 "></polyline>
<polyline clip-path="url(#clip552)" style="stroke:#000000; stroke-linecap:round; stroke-linejoin:round; stroke-width:2; stroke-opacity:0.1; fill:none" points="2188.96,1486.45 2188.96,47.2441 "></polyline>
<polyline clip-path="url(#clip550)" style="stroke:#000000; stroke-linecap:round; stroke-linejoin:round; stroke-width:4; stroke-opacity:1; fill:none" points="148.867,1486.45 2352.76,1486.45 "></polyline>
<polyline clip-path="url(#clip550)" style="stroke:#000000; stroke-linecap:round; stroke-linejoin:round; stroke-width:4; stroke-opacity:1; fill:none" points="160.53,1486.45 160.53,1467.55 "></polyline>
<polyline clip-path="url(#clip550)" style="stroke:#000000; stroke-linecap:round; stroke-linejoin:round; stroke-width:4; stroke-opacity:1; fill:none" points="667.638,1486.45 667.638,1467.55 "></polyline>
<polyline clip-path="url(#clip550)" style="stroke:#000000; stroke-linecap:round; stroke-linejoin:round; stroke-width:4; stroke-opacity:1; fill:none" points="1174.75,1486.45 1174.75,1467.55 "></polyline>
<polyline clip-path="url(#clip550)" style="stroke:#000000; stroke-linecap:round; stroke-linejoin:round; stroke-width:4; stroke-opacity:1; fill:none" points="1681.85,1486.45 1681.85,1467.55 "></polyline>
<polyline clip-path="url(#clip550)" style="stroke:#000000; stroke-linecap:round; stroke-linejoin:round; stroke-width:4; stroke-opacity:1; fill:none" points="2188.96,1486.45 2188.96,1467.55 "></polyline>
<path clip-path="url(#clip550)" d="M160.53 1517.37 Q156.919 1517.37 155.09 1520.93 Q153.285 1524.47 153.285 1531.6 Q153.285 1538.71 155.09 1542.27 Q156.919 1545.82 160.53 1545.82 Q164.165 1545.82 165.97 1542.27 Q167.799 1538.71 167.799 1531.6 Q167.799 1524.47 165.97 1520.93 Q164.165 1517.37 160.53 1517.37 M160.53 1513.66 Q166.34 1513.66 169.396 1518.27 Q172.475 1522.85 172.475 1531.6 Q172.475 1540.33 169.396 1544.94 Q166.34 1549.52 160.53 1549.52 Q154.72 1549.52 151.641 1544.94 Q148.586 1540.33 148.586 1531.6 Q148.586 1522.85 151.641 1518.27 Q154.72 1513.66 160.53 1513.66 Z" fill="#000000" fill-rule="nonzero" fill-opacity="1"></path><path clip-path="url(#clip550)" d="M642.325 1544.91 L649.964 1544.91 L649.964 1518.55 L641.654 1520.21 L641.654 1515.95 L649.918 1514.29 L654.594 1514.29 L654.594 1544.91 L662.233 1544.91 L662.233 1548.85 L642.325 1548.85 L642.325 1544.91 Z" fill="#000000" fill-rule="nonzero" fill-opacity="1"></path><path clip-path="url(#clip550)" d="M681.677 1517.37 Q678.066 1517.37 676.237 1520.93 Q674.432 1524.47 674.432 1531.6 Q674.432 1538.71 676.237 1542.27 Q678.066 1545.82 681.677 1545.82 Q685.311 1545.82 687.117 1542.27 Q688.946 1538.71 688.946 1531.6 Q688.946 1524.47 687.117 1520.93 Q685.311 1517.37 681.677 1517.37 M681.677 1513.66 Q687.487 1513.66 690.543 1518.27 Q693.621 1522.85 693.621 1531.6 Q693.621 1540.33 690.543 1544.94 Q687.487 1549.52 681.677 1549.52 Q675.867 1549.52 672.788 1544.94 Q669.733 1540.33 669.733 1531.6 Q669.733 1522.85 672.788 1518.27 Q675.867 1513.66 681.677 1513.66 Z" fill="#000000" fill-rule="nonzero" fill-opacity="1"></path><path clip-path="url(#clip550)" d="M1153.52 1544.91 L1169.84 1544.91 L1169.84 1548.85 L1147.89 1548.85 L1147.89 1544.91 Q1150.56 1542.16 1155.14 1537.53 Q1159.75 1532.88 1160.93 1531.53 Q1163.17 1529.01 1164.05 1527.27 Q1164.95 1525.51 1164.95 1523.82 Q1164.95 1521.07 1163.01 1519.33 Q1161.09 1517.6 1157.99 1517.6 Q1155.79 1517.6 1153.33 1518.36 Q1150.9 1519.13 1148.13 1520.68 L1148.13 1515.95 Q1150.95 1514.82 1153.4 1514.24 Q1155.86 1513.66 1157.89 1513.66 Q1163.26 1513.66 1166.46 1516.35 Q1169.65 1519.03 1169.65 1523.52 Q1169.65 1525.65 1168.84 1527.57 Q1168.06 1529.47 1165.95 1532.07 Q1165.37 1532.74 1162.27 1535.95 Q1159.17 1539.15 1153.52 1544.91 Z" fill="#000000" fill-rule="nonzero" fill-opacity="1"></path><path clip-path="url(#clip550)" d="M1189.65 1517.37 Q1186.04 1517.37 1184.21 1520.93 Q1182.41 1524.47 1182.41 1531.6 Q1182.41 1538.71 1184.21 1542.27 Q1186.04 1545.82 1189.65 1545.82 Q1193.29 1545.82 1195.09 1542.27 Q1196.92 1538.71 1196.92 1531.6 Q1196.92 1524.47 1195.09 1520.93 Q1193.29 1517.37 1189.65 1517.37 M1189.65 1513.66 Q1195.46 1513.66 1198.52 1518.27 Q1201.6 1522.85 1201.6 1531.6 Q1201.6 1540.33 1198.52 1544.94 Q1195.46 1549.52 1189.65 1549.52 Q1183.84 1549.52 1180.76 1544.94 Q1177.71 1540.33 1177.71 1531.6 Q1177.71 1522.85 1180.76 1518.27 Q1183.84 1513.66 1189.65 1513.66 Z" fill="#000000" fill-rule="nonzero" fill-opacity="1"></path><path clip-path="url(#clip550)" d="M1670.7 1530.21 Q1674.05 1530.93 1675.93 1533.2 Q1677.82 1535.47 1677.82 1538.8 Q1677.82 1543.92 1674.31 1546.72 Q1670.79 1549.52 1664.31 1549.52 Q1662.13 1549.52 1659.82 1549.08 Q1657.52 1548.66 1655.07 1547.81 L1655.07 1543.29 Q1657.01 1544.43 1659.33 1545.01 Q1661.64 1545.58 1664.17 1545.58 Q1668.57 1545.58 1670.86 1543.85 Q1673.17 1542.11 1673.17 1538.8 Q1673.17 1535.75 1671.02 1534.03 Q1668.89 1532.3 1665.07 1532.3 L1661.04 1532.3 L1661.04 1528.45 L1665.26 1528.45 Q1668.7 1528.45 1670.53 1527.09 Q1672.36 1525.7 1672.36 1523.11 Q1672.36 1520.45 1670.46 1519.03 Q1668.59 1517.6 1665.07 1517.6 Q1663.15 1517.6 1660.95 1518.01 Q1658.75 1518.43 1656.11 1519.31 L1656.11 1515.14 Q1658.77 1514.4 1661.09 1514.03 Q1663.43 1513.66 1665.49 1513.66 Q1670.81 1513.66 1673.91 1516.09 Q1677.01 1518.5 1677.01 1522.62 Q1677.01 1525.49 1675.37 1527.48 Q1673.73 1529.45 1670.7 1530.21 Z" fill="#000000" fill-rule="nonzero" fill-opacity="1"></path><path clip-path="url(#clip550)" d="M1696.69 1517.37 Q1693.08 1517.37 1691.25 1520.93 Q1689.45 1524.47 1689.45 1531.6 Q1689.45 1538.71 1691.25 1542.27 Q1693.08 1545.82 1696.69 1545.82 Q1700.32 1545.82 1702.13 1542.27 Q1703.96 1538.71 1703.96 1531.6 Q1703.96 1524.47 1702.13 1520.93 Q1700.32 1517.37 1696.69 1517.37 M1696.69 1513.66 Q1702.5 1513.66 1705.56 1518.27 Q1708.63 1522.85 1708.63 1531.6 Q1708.63 1540.33 1705.56 1544.94 Q1702.5 1549.52 1696.69 1549.52 Q1690.88 1549.52 1687.8 1544.94 Q1684.75 1540.33 1684.75 1531.6 Q1684.75 1522.85 1687.8 1518.27 Q1690.88 1513.66 1696.69 1513.66 Z" fill="#000000" fill-rule="nonzero" fill-opacity="1"></path><path clip-path="url(#clip550)" d="M2177.13 1518.36 L2165.33 1536.81 L2177.13 1536.81 L2177.13 1518.36 M2175.9 1514.29 L2181.78 1514.29 L2181.78 1536.81 L2186.71 1536.81 L2186.71 1540.7 L2181.78 1540.7 L2181.78 1548.85 L2177.13 1548.85 L2177.13 1540.7 L2161.53 1540.7 L2161.53 1536.19 L2175.9 1514.29 Z" fill="#000000" fill-rule="nonzero" fill-opacity="1"></path><path clip-path="url(#clip550)" d="M2204.45 1517.37 Q2200.84 1517.37 2199.01 1520.93 Q2197.2 1524.47 2197.2 1531.6 Q2197.2 1538.71 2199.01 1542.27 Q2200.84 1545.82 2204.45 1545.82 Q2208.08 1545.82 2209.89 1542.27 Q2211.71 1538.71 2211.71 1531.6 Q2211.71 1524.47 2209.89 1520.93 Q2208.08 1517.37 2204.45 1517.37 M2204.45 1513.66 Q2210.26 1513.66 2213.31 1518.27 Q2216.39 1522.85 2216.39 1531.6 Q2216.39 1540.33 2213.31 1544.94 Q2210.26 1549.52 2204.45 1549.52 Q2198.64 1549.52 2195.56 1544.94 Q2192.5 1540.33 2192.5 1531.6 Q2192.5 1522.85 2195.56 1518.27 Q2198.64 1513.66 2204.45 1513.66 Z" fill="#000000" fill-rule="nonzero" fill-opacity="1"></path><polyline clip-path="url(#clip552)" style="stroke:#000000; stroke-linecap:round; stroke-linejoin:round; stroke-width:2; stroke-opacity:0.1; fill:none" points="148.867,1273.71 2352.76,1273.71 "></polyline>
<polyline clip-path="url(#clip552)" style="stroke:#000000; stroke-linecap:round; stroke-linejoin:round; stroke-width:2; stroke-opacity:0.1; fill:none" points="148.867,962.913 2352.76,962.913 "></polyline>
<polyline clip-path="url(#clip552)" style="stroke:#000000; stroke-linecap:round; stroke-linejoin:round; stroke-width:2; stroke-opacity:0.1; fill:none" points="148.867,652.115 2352.76,652.115 "></polyline>
<polyline clip-path="url(#clip552)" style="stroke:#000000; stroke-linecap:round; stroke-linejoin:round; stroke-width:2; stroke-opacity:0.1; fill:none" points="148.867,341.317 2352.76,341.317 "></polyline>
<polyline clip-path="url(#clip550)" style="stroke:#000000; stroke-linecap:round; stroke-linejoin:round; stroke-width:4; stroke-opacity:1; fill:none" points="148.867,1486.45 148.867,47.2441 "></polyline>
<polyline clip-path="url(#clip550)" style="stroke:#000000; stroke-linecap:round; stroke-linejoin:round; stroke-width:4; stroke-opacity:1; fill:none" points="148.867,1273.71 167.764,1273.71 "></polyline>
<polyline clip-path="url(#clip550)" style="stroke:#000000; stroke-linecap:round; stroke-linejoin:round; stroke-width:4; stroke-opacity:1; fill:none" points="148.867,962.913 167.764,962.913 "></polyline>
<polyline clip-path="url(#clip550)" style="stroke:#000000; stroke-linecap:round; stroke-linejoin:round; stroke-width:4; stroke-opacity:1; fill:none" points="148.867,652.115 167.764,652.115 "></polyline>
<polyline clip-path="url(#clip550)" style="stroke:#000000; stroke-linecap:round; stroke-linejoin:round; stroke-width:4; stroke-opacity:1; fill:none" points="148.867,341.317 167.764,341.317 "></polyline>
<path clip-path="url(#clip550)" d="M51.3393 1274.16 L81.0151 1274.16 L81.0151 1278.1 L51.3393 1278.1 L51.3393 1274.16 Z" fill="#000000" fill-rule="nonzero" fill-opacity="1"></path><path clip-path="url(#clip550)" d="M91.2465 1290.27 L91.2465 1286.01 Q93.0058 1286.85 94.8113 1287.29 Q96.6169 1287.73 98.353 1287.73 Q102.983 1287.73 105.413 1284.63 Q107.867 1281.5 108.214 1275.16 Q106.871 1277.15 104.811 1278.21 Q102.751 1279.28 100.251 1279.28 Q95.066 1279.28 92.0336 1276.15 Q89.0243 1273.01 89.0243 1267.57 Q89.0243 1262.24 92.1725 1259.02 Q95.3206 1255.81 100.552 1255.81 Q106.547 1255.81 109.696 1260.41 Q112.867 1265 112.867 1273.75 Q112.867 1281.92 108.978 1286.8 Q105.112 1291.66 98.5613 1291.66 Q96.8021 1291.66 94.9965 1291.32 Q93.191 1290.97 91.2465 1290.27 M100.552 1275.62 Q103.7 1275.62 105.529 1273.47 Q107.381 1271.32 107.381 1267.57 Q107.381 1263.84 105.529 1261.69 Q103.7 1259.51 100.552 1259.51 Q97.4039 1259.51 95.5521 1261.69 Q93.7234 1263.84 93.7234 1267.57 Q93.7234 1271.32 95.5521 1273.47 Q97.4039 1275.62 100.552 1275.62 Z" fill="#000000" fill-rule="nonzero" fill-opacity="1"></path><path clip-path="url(#clip550)" d="M50.9921 963.365 L80.6679 963.365 L80.6679 967.3 L50.9921 967.3 L50.9921 963.365 Z" fill="#000000" fill-rule="nonzero" fill-opacity="1"></path><path clip-path="url(#clip550)" d="M101.339 961.05 Q98.1909 961.05 96.3391 963.203 Q94.5104 965.355 94.5104 969.105 Q94.5104 972.832 96.3391 975.008 Q98.1909 977.161 101.339 977.161 Q104.487 977.161 106.316 975.008 Q108.168 972.832 108.168 969.105 Q108.168 965.355 106.316 963.203 Q104.487 961.05 101.339 961.05 M110.621 946.397 L110.621 950.656 Q108.862 949.823 107.057 949.383 Q105.274 948.944 103.515 948.944 Q98.8854 948.944 96.4317 952.068 Q94.0012 955.193 93.6539 961.513 Q95.0197 959.499 97.0798 958.434 Q99.14 957.346 101.617 957.346 Q106.825 957.346 109.834 960.518 Q112.867 963.666 112.867 969.105 Q112.867 974.429 109.719 977.647 Q106.571 980.865 101.339 980.865 Q95.3437 980.865 92.1725 976.281 Q89.0012 971.675 89.0012 962.948 Q89.0012 954.754 92.89 949.893 Q96.7789 945.008 103.33 945.008 Q105.089 945.008 106.871 945.356 Q108.677 945.703 110.621 946.397 Z" fill="#000000" fill-rule="nonzero" fill-opacity="1"></path><path clip-path="url(#clip550)" d="M51.8023 652.566 L81.4781 652.566 L81.4781 656.502 L51.8023 656.502 L51.8023 652.566 Z" fill="#000000" fill-rule="nonzero" fill-opacity="1"></path><path clip-path="url(#clip550)" d="M105.737 650.761 Q109.094 651.478 110.969 653.747 Q112.867 656.016 112.867 659.349 Q112.867 664.465 109.348 667.265 Q105.83 670.066 99.3483 670.066 Q97.1724 670.066 94.8576 669.627 Q92.566 669.21 90.1123 668.353 L90.1123 663.84 Q92.0567 664.974 94.3715 665.552 Q96.6863 666.131 99.2095 666.131 Q103.608 666.131 105.899 664.395 Q108.214 662.659 108.214 659.349 Q108.214 656.293 106.061 654.58 Q103.932 652.844 100.112 652.844 L96.0845 652.844 L96.0845 649.002 L100.297 649.002 Q103.746 649.002 105.575 647.636 Q107.404 646.247 107.404 643.654 Q107.404 640.992 105.506 639.58 Q103.631 638.145 100.112 638.145 Q98.1909 638.145 95.9919 638.562 Q93.7928 638.979 91.1539 639.858 L91.1539 635.692 Q93.816 634.951 96.1308 634.58 Q98.4687 634.21 100.529 634.21 Q105.853 634.21 108.955 636.641 Q112.057 639.048 112.057 643.168 Q112.057 646.039 110.413 648.029 Q108.77 649.997 105.737 650.761 Z" fill="#000000" fill-rule="nonzero" fill-opacity="1"></path><path clip-path="url(#clip550)" d="M100.922 327.115 Q97.3113 327.115 95.4826 330.68 Q93.6771 334.222 93.6771 341.352 Q93.6771 348.458 95.4826 352.023 Q97.3113 355.564 100.922 355.564 Q104.557 355.564 106.362 352.023 Q108.191 348.458 108.191 341.352 Q108.191 334.222 106.362 330.68 Q104.557 327.115 100.922 327.115 M100.922 323.412 Q106.733 323.412 109.788 328.018 Q112.867 332.602 112.867 341.352 Q112.867 350.078 109.788 354.685 Q106.733 359.268 100.922 359.268 Q95.1123 359.268 92.0336 354.685 Q88.978 350.078 88.978 341.352 Q88.978 332.602 92.0336 328.018 Q95.1123 323.412 100.922 323.412 Z" fill="#000000" fill-rule="nonzero" fill-opacity="1"></path><polyline clip-path="url(#clip552)" style="stroke:#009af9; stroke-linecap:round; stroke-linejoin:round; stroke-width:4; stroke-opacity:1; fill:none" points="211.241,1445.72 261.952,1288.36 312.663,1107.77 363.373,925.143 414.084,737.43 464.795,544.648 515.506,524.873 566.216,505.517 616.927,700.567 667.638,507.776 718.348,701.581 769.059,638.174 819.77,531.282 870.481,499.453 921.191,494.805 971.902,490.195 1022.61,486.633 1073.32,483.086 1124.03,480.266 1174.75,493.277 1225.46,389.451 1276.17,359.796 1326.88,281.916 1377.59,231.278 1428.3,164.525 1479.01,122.082 1529.72,87.9763 1580.43,105.497 1631.14,223.462 1681.85,113.848 1732.56,229.855 1783.27,346.074 1833.98,235.867 1884.7,351.014 1935.41,469.204 1986.12,347.476 2036.83,452.899 2087.54,426 2138.25,442.703 2188.96,379.59 2239.67,364.489 2290.38,267.26 "></polyline>
<polyline clip-path="url(#clip552)" style="stroke:#e26f46; stroke-linecap:round; stroke-linejoin:round; stroke-width:4; stroke-opacity:1; fill:none" points="211.241,341.317 261.952,341.317 312.663,341.317 363.373,341.317 414.084,341.317 464.795,341.317 515.506,341.317 566.216,341.317 616.927,341.317 667.638,341.317 718.348,341.317 769.059,341.317 819.77,341.317 870.481,341.317 921.191,341.317 971.902,341.317 1022.61,341.317 1073.32,341.317 1124.03,341.317 1174.75,341.317 1225.46,341.317 1276.17,341.317 1326.88,341.317 1377.59,341.317 1428.3,341.317 1479.01,341.317 1529.72,341.317 1580.43,341.317 1631.14,341.317 1681.85,341.317 1732.56,341.317 1783.27,341.317 1833.98,341.317 1884.7,341.317 1935.41,341.317 1986.12,341.317 2036.83,341.317 2087.54,341.317 2138.25,341.317 2188.96,341.317 2239.67,341.317 2290.38,341.317 "></polyline>
<polyline clip-path="url(#clip552)" style="stroke:#3da44d; stroke-linecap:round; stroke-linejoin:round; stroke-width:4; stroke-opacity:1; fill:none" points="211.241,785.485 261.952,862.94 312.663,927.982 363.373,990.424 414.084,1051.79 464.795,1112.34 515.506,1118.97 566.216,1125.14 616.927,1067.49 667.638,1124.4 718.348,1068.02 769.059,1111.11 819.77,1125.36 870.481,1130.32 921.191,1133.29 971.902,1136.24 1022.61,1138.67 1073.32,1141.13 1124.03,1142.89 1174.75,1122.77 1225.46,1172 1276.17,1208.83 1326.88,1253.79 1377.59,1296.74 1428.3,1343.71 1479.01,1358.46 1529.72,1369.05 1580.43,1372.3 1631.14,1329.58 1681.85,1374.11 1732.56,1330.02 1783.27,1283.03 1833.98,1329.18 1884.7,1282.97 1935.41,1233.05 1986.12,1282.12 2036.83,1250.82 2087.54,1273.71 2138.25,1248.17 2188.96,1296.45 2239.67,1333.32 2290.38,1367.6 "></polyline>
<path clip-path="url(#clip550)" d="M222.33 1438.47 L1106.6 1438.47 L1106.6 1231.11 L222.33 1231.11  Z" fill="#ffffff" fill-rule="evenodd" fill-opacity="1"></path>
<polyline clip-path="url(#clip550)" style="stroke:#000000; stroke-linecap:round; stroke-linejoin:round; stroke-width:4; stroke-opacity:1; fill:none" points="222.33,1438.47 1106.6,1438.47 1106.6,1231.11 222.33,1231.11 222.33,1438.47 "></polyline>
<polyline clip-path="url(#clip550)" style="stroke:#009af9; stroke-linecap:round; stroke-linejoin:round; stroke-width:4; stroke-opacity:1; fill:none" points="246.817,1282.95 393.743,1282.95 "></polyline>
<path clip-path="url(#clip550)" d="M431.425 1300.23 L418.231 1265.67 L423.115 1265.67 L434.064 1294.77 L445.036 1265.67 L449.898 1265.67 L436.726 1300.23 L431.425 1300.23 Z" fill="#000000" fill-rule="nonzero" fill-opacity="1"></path><path clip-path="url(#clip550)" d="M461.124 1277.29 Q457.698 1277.29 455.708 1279.98 Q453.717 1282.64 453.717 1287.29 Q453.717 1291.95 455.685 1294.63 Q457.675 1297.29 461.124 1297.29 Q464.527 1297.29 466.518 1294.61 Q468.509 1291.92 468.509 1287.29 Q468.509 1282.69 466.518 1280 Q464.527 1277.29 461.124 1277.29 M461.124 1273.68 Q466.68 1273.68 469.851 1277.29 Q473.022 1280.91 473.022 1287.29 Q473.022 1293.66 469.851 1297.29 Q466.68 1300.91 461.124 1300.91 Q455.546 1300.91 452.374 1297.29 Q449.226 1293.66 449.226 1287.29 Q449.226 1280.91 452.374 1277.29 Q455.546 1273.68 461.124 1273.68 Z" fill="#000000" fill-rule="nonzero" fill-opacity="1"></path><path clip-path="url(#clip550)" d="M480.083 1264.22 L484.342 1264.22 L484.342 1300.23 L480.083 1300.23 L480.083 1264.22 Z" fill="#000000" fill-rule="nonzero" fill-opacity="1"></path><path clip-path="url(#clip550)" d="M492.814 1290 L492.814 1274.31 L497.073 1274.31 L497.073 1289.84 Q497.073 1293.52 498.508 1295.37 Q499.944 1297.2 502.814 1297.2 Q506.263 1297.2 508.254 1295 Q510.268 1292.8 510.268 1289.01 L510.268 1274.31 L514.527 1274.31 L514.527 1300.23 L510.268 1300.23 L510.268 1296.25 Q508.717 1298.61 506.656 1299.77 Q504.619 1300.91 501.911 1300.91 Q497.444 1300.91 495.129 1298.13 Q492.814 1295.35 492.814 1290 M503.531 1273.68 L503.531 1273.68 Z" fill="#000000" fill-rule="nonzero" fill-opacity="1"></path><path clip-path="url(#clip550)" d="M543.485 1279.29 Q545.082 1276.42 547.304 1275.05 Q549.527 1273.68 552.536 1273.68 Q556.587 1273.68 558.786 1276.53 Q560.985 1279.35 560.985 1284.59 L560.985 1300.23 L556.702 1300.23 L556.702 1284.73 Q556.702 1281 555.383 1279.19 Q554.064 1277.39 551.355 1277.39 Q548.045 1277.39 546.124 1279.59 Q544.203 1281.79 544.203 1285.58 L544.203 1300.23 L539.92 1300.23 L539.92 1284.73 Q539.92 1280.98 538.601 1279.19 Q537.281 1277.39 534.527 1277.39 Q531.263 1277.39 529.342 1279.61 Q527.42 1281.81 527.42 1285.58 L527.42 1300.23 L523.138 1300.23 L523.138 1274.31 L527.42 1274.31 L527.42 1278.34 Q528.879 1275.95 530.916 1274.82 Q532.953 1273.68 535.754 1273.68 Q538.578 1273.68 540.545 1275.12 Q542.536 1276.55 543.485 1279.29 Z" fill="#000000" fill-rule="nonzero" fill-opacity="1"></path><path clip-path="url(#clip550)" d="M591.656 1286.21 L591.656 1288.29 L572.073 1288.29 Q572.351 1292.69 574.712 1295 Q577.096 1297.29 581.332 1297.29 Q583.786 1297.29 586.077 1296.69 Q588.392 1296.09 590.661 1294.89 L590.661 1298.91 Q588.369 1299.89 585.962 1300.4 Q583.554 1300.91 581.077 1300.91 Q574.874 1300.91 571.239 1297.29 Q567.628 1293.68 567.628 1287.53 Q567.628 1281.16 571.054 1277.43 Q574.503 1273.68 580.337 1273.68 Q585.568 1273.68 588.6 1277.06 Q591.656 1280.42 591.656 1286.21 M587.397 1284.96 Q587.35 1281.46 585.429 1279.38 Q583.531 1277.29 580.383 1277.29 Q576.818 1277.29 574.665 1279.31 Q572.536 1281.32 572.212 1284.98 L587.397 1284.96 Z" fill="#000000" fill-rule="nonzero" fill-opacity="1"></path><path clip-path="url(#clip550)" d="M639.781 1268.34 L639.781 1273.27 Q637.42 1271.07 634.734 1269.98 Q632.072 1268.89 629.063 1268.89 Q623.137 1268.89 619.989 1272.53 Q616.841 1276.14 616.841 1282.99 Q616.841 1289.82 619.989 1293.45 Q623.137 1297.06 629.063 1297.06 Q632.072 1297.06 634.734 1295.98 Q637.42 1294.89 639.781 1292.69 L639.781 1297.57 Q637.327 1299.24 634.572 1300.07 Q631.841 1300.91 628.785 1300.91 Q620.938 1300.91 616.424 1296.11 Q611.911 1291.3 611.911 1282.99 Q611.911 1274.66 616.424 1269.86 Q620.938 1265.05 628.785 1265.05 Q631.887 1265.05 634.619 1265.88 Q637.373 1266.69 639.781 1268.34 Z" fill="#000000" fill-rule="nonzero" fill-opacity="1"></path><path clip-path="url(#clip550)" d="M656.864 1277.29 Q653.438 1277.29 651.447 1279.98 Q649.457 1282.64 649.457 1287.29 Q649.457 1291.95 651.424 1294.63 Q653.415 1297.29 656.864 1297.29 Q660.267 1297.29 662.257 1294.61 Q664.248 1291.92 664.248 1287.29 Q664.248 1282.69 662.257 1280 Q660.267 1277.29 656.864 1277.29 M656.864 1273.68 Q662.42 1273.68 665.591 1277.29 Q668.762 1280.91 668.762 1287.29 Q668.762 1293.66 665.591 1297.29 Q662.42 1300.91 656.864 1300.91 Q651.285 1300.91 648.114 1297.29 Q644.966 1293.66 644.966 1287.29 Q644.966 1280.91 648.114 1277.29 Q651.285 1273.68 656.864 1273.68 Z" fill="#000000" fill-rule="nonzero" fill-opacity="1"></path><path clip-path="url(#clip550)" d="M697.373 1284.59 L697.373 1300.23 L693.114 1300.23 L693.114 1284.73 Q693.114 1281.04 691.679 1279.22 Q690.243 1277.39 687.373 1277.39 Q683.924 1277.39 681.933 1279.59 Q679.943 1281.79 679.943 1285.58 L679.943 1300.23 L675.66 1300.23 L675.66 1274.31 L679.943 1274.31 L679.943 1278.34 Q681.47 1276 683.531 1274.84 Q685.614 1273.68 688.322 1273.68 Q692.79 1273.68 695.081 1276.46 Q697.373 1279.22 697.373 1284.59 Z" fill="#000000" fill-rule="nonzero" fill-opacity="1"></path><path clip-path="url(#clip550)" d="M722.396 1275.07 L722.396 1279.1 Q720.591 1278.17 718.646 1277.71 Q716.702 1277.25 714.618 1277.25 Q711.447 1277.25 709.85 1278.22 Q708.276 1279.19 708.276 1281.14 Q708.276 1282.62 709.41 1283.48 Q710.544 1284.31 713.97 1285.07 L715.429 1285.4 Q719.966 1286.37 721.864 1288.15 Q723.785 1289.91 723.785 1293.08 Q723.785 1296.69 720.915 1298.8 Q718.067 1300.91 713.067 1300.91 Q710.984 1300.91 708.716 1300.49 Q706.47 1300.1 703.97 1299.29 L703.97 1294.89 Q706.331 1296.11 708.623 1296.74 Q710.915 1297.34 713.16 1297.34 Q716.169 1297.34 717.79 1296.32 Q719.41 1295.28 719.41 1293.41 Q719.41 1291.67 718.229 1290.74 Q717.072 1289.82 713.114 1288.96 L711.632 1288.61 Q707.674 1287.78 705.915 1286.07 Q704.155 1284.33 704.155 1281.32 Q704.155 1277.67 706.748 1275.67 Q709.341 1273.68 714.109 1273.68 Q716.47 1273.68 718.553 1274.03 Q720.637 1274.38 722.396 1275.07 Z" fill="#000000" fill-rule="nonzero" fill-opacity="1"></path><path clip-path="url(#clip550)" d="M734.78 1266.95 L734.78 1274.31 L743.553 1274.31 L743.553 1277.62 L734.78 1277.62 L734.78 1291.69 Q734.78 1294.86 735.637 1295.77 Q736.516 1296.67 739.178 1296.67 L743.553 1296.67 L743.553 1300.23 L739.178 1300.23 Q734.248 1300.23 732.373 1298.41 Q730.498 1296.55 730.498 1291.69 L730.498 1277.62 L727.373 1277.62 L727.373 1274.31 L730.498 1274.31 L730.498 1266.95 L734.78 1266.95 Z" fill="#000000" fill-rule="nonzero" fill-opacity="1"></path><path clip-path="url(#clip550)" d="M764.178 1278.29 Q763.461 1277.87 762.604 1277.69 Q761.771 1277.48 760.752 1277.48 Q757.141 1277.48 755.197 1279.84 Q753.276 1282.18 753.276 1286.58 L753.276 1300.23 L748.993 1300.23 L748.993 1274.31 L753.276 1274.31 L753.276 1278.34 Q754.618 1275.98 756.771 1274.84 Q758.924 1273.68 762.002 1273.68 Q762.442 1273.68 762.975 1273.75 Q763.507 1273.8 764.155 1273.92 L764.178 1278.29 Z" fill="#000000" fill-rule="nonzero" fill-opacity="1"></path><path clip-path="url(#clip550)" d="M780.428 1287.2 Q775.266 1287.2 773.275 1288.38 Q771.285 1289.56 771.285 1292.41 Q771.285 1294.68 772.766 1296.02 Q774.271 1297.34 776.84 1297.34 Q780.382 1297.34 782.511 1294.84 Q784.664 1292.32 784.664 1288.15 L784.664 1287.2 L780.428 1287.2 M788.923 1285.44 L788.923 1300.23 L784.664 1300.23 L784.664 1296.3 Q783.206 1298.66 781.03 1299.79 Q778.854 1300.91 775.706 1300.91 Q771.724 1300.91 769.363 1298.68 Q767.025 1296.44 767.025 1292.69 Q767.025 1288.31 769.942 1286.09 Q772.882 1283.87 778.692 1283.87 L784.664 1283.87 L784.664 1283.45 Q784.664 1280.51 782.72 1278.92 Q780.799 1277.29 777.303 1277.29 Q775.081 1277.29 772.974 1277.83 Q770.868 1278.36 768.924 1279.42 L768.924 1275.49 Q771.262 1274.59 773.461 1274.15 Q775.66 1273.68 777.743 1273.68 Q783.368 1273.68 786.146 1276.6 Q788.923 1279.52 788.923 1285.44 Z" fill="#000000" fill-rule="nonzero" fill-opacity="1"></path><path clip-path="url(#clip550)" d="M797.697 1274.31 L801.956 1274.31 L801.956 1300.23 L797.697 1300.23 L797.697 1274.31 M797.697 1264.22 L801.956 1264.22 L801.956 1269.61 L797.697 1269.61 L797.697 1264.22 Z" fill="#000000" fill-rule="nonzero" fill-opacity="1"></path><path clip-path="url(#clip550)" d="M832.419 1284.59 L832.419 1300.23 L828.159 1300.23 L828.159 1284.73 Q828.159 1281.04 826.724 1279.22 Q825.289 1277.39 822.419 1277.39 Q818.97 1277.39 816.979 1279.59 Q814.988 1281.79 814.988 1285.58 L814.988 1300.23 L810.706 1300.23 L810.706 1274.31 L814.988 1274.31 L814.988 1278.34 Q816.516 1276 818.576 1274.84 Q820.659 1273.68 823.368 1273.68 Q827.835 1273.68 830.127 1276.46 Q832.419 1279.22 832.419 1284.59 Z" fill="#000000" fill-rule="nonzero" fill-opacity="1"></path><path clip-path="url(#clip550)" d="M845.127 1266.95 L845.127 1274.31 L853.9 1274.31 L853.9 1277.62 L845.127 1277.62 L845.127 1291.69 Q845.127 1294.86 845.983 1295.77 Q846.863 1296.67 849.525 1296.67 L853.9 1296.67 L853.9 1300.23 L849.525 1300.23 Q844.594 1300.23 842.719 1298.41 Q840.844 1296.55 840.844 1291.69 L840.844 1277.62 L837.72 1277.62 L837.72 1274.31 L840.844 1274.31 L840.844 1266.95 L845.127 1266.95 Z" fill="#000000" fill-rule="nonzero" fill-opacity="1"></path><polyline clip-path="url(#clip550)" style="stroke:#e26f46; stroke-linecap:round; stroke-linejoin:round; stroke-width:4; stroke-opacity:1; fill:none" points="246.817,1334.79 393.743,1334.79 "></polyline>
<path clip-path="url(#clip550)" d="M418.231 1317.51 L422.93 1317.51 L422.93 1338.51 Q422.93 1344.07 424.944 1346.52 Q426.958 1348.95 431.472 1348.95 Q435.962 1348.95 437.976 1346.52 Q439.99 1344.07 439.99 1338.51 L439.99 1317.51 L444.689 1317.51 L444.689 1339.09 Q444.689 1345.85 441.333 1349.3 Q437.999 1352.75 431.472 1352.75 Q424.921 1352.75 421.564 1349.3 Q418.231 1345.85 418.231 1339.09 L418.231 1317.51 Z" fill="#000000" fill-rule="nonzero" fill-opacity="1"></path><path clip-path="url(#clip550)" d="M474.828 1336.43 L474.828 1352.07 L470.569 1352.07 L470.569 1336.57 Q470.569 1332.88 469.134 1331.06 Q467.698 1329.23 464.828 1329.23 Q461.379 1329.23 459.388 1331.43 Q457.397 1333.63 457.397 1337.42 L457.397 1352.07 L453.115 1352.07 L453.115 1326.15 L457.397 1326.15 L457.397 1330.18 Q458.925 1327.84 460.985 1326.68 Q463.069 1325.52 465.777 1325.52 Q470.245 1325.52 472.536 1328.3 Q474.828 1331.06 474.828 1336.43 Z" fill="#000000" fill-rule="nonzero" fill-opacity="1"></path><path clip-path="url(#clip550)" d="M483.323 1326.15 L487.582 1326.15 L487.582 1352.07 L483.323 1352.07 L483.323 1326.15 M483.323 1316.06 L487.582 1316.06 L487.582 1321.45 L483.323 1321.45 L483.323 1316.06 Z" fill="#000000" fill-rule="nonzero" fill-opacity="1"></path><path clip-path="url(#clip550)" d="M509.619 1316.06 L509.619 1319.6 L505.545 1319.6 Q503.254 1319.6 502.351 1320.52 Q501.471 1321.45 501.471 1323.86 L501.471 1326.15 L508.485 1326.15 L508.485 1329.46 L501.471 1329.46 L501.471 1352.07 L497.189 1352.07 L497.189 1329.46 L493.115 1329.46 L493.115 1326.15 L497.189 1326.15 L497.189 1324.34 Q497.189 1320.01 499.203 1318.05 Q501.217 1316.06 505.592 1316.06 L509.619 1316.06 Z" fill="#000000" fill-rule="nonzero" fill-opacity="1"></path><path clip-path="url(#clip550)" d="M523.23 1329.13 Q519.805 1329.13 517.814 1331.82 Q515.823 1334.48 515.823 1339.13 Q515.823 1343.79 517.791 1346.47 Q519.781 1349.13 523.23 1349.13 Q526.633 1349.13 528.624 1346.45 Q530.615 1343.76 530.615 1339.13 Q530.615 1334.53 528.624 1331.84 Q526.633 1329.13 523.23 1329.13 M523.23 1325.52 Q528.786 1325.52 531.957 1329.13 Q535.129 1332.75 535.129 1339.13 Q535.129 1345.5 531.957 1349.13 Q528.786 1352.75 523.23 1352.75 Q517.652 1352.75 514.481 1349.13 Q511.332 1345.5 511.332 1339.13 Q511.332 1332.75 514.481 1329.13 Q517.652 1325.52 523.23 1325.52 Z" fill="#000000" fill-rule="nonzero" fill-opacity="1"></path><path clip-path="url(#clip550)" d="M557.212 1330.13 Q556.494 1329.71 555.638 1329.53 Q554.804 1329.32 553.786 1329.32 Q550.175 1329.32 548.23 1331.68 Q546.309 1334.02 546.309 1338.42 L546.309 1352.07 L542.027 1352.07 L542.027 1326.15 L546.309 1326.15 L546.309 1330.18 Q547.652 1327.82 549.804 1326.68 Q551.957 1325.52 555.036 1325.52 Q555.476 1325.52 556.008 1325.59 Q556.54 1325.64 557.189 1325.76 L557.212 1330.13 Z" fill="#000000" fill-rule="nonzero" fill-opacity="1"></path><path clip-path="url(#clip550)" d="M581.031 1331.13 Q582.628 1328.26 584.85 1326.89 Q587.073 1325.52 590.082 1325.52 Q594.133 1325.52 596.332 1328.37 Q598.531 1331.19 598.531 1336.43 L598.531 1352.07 L594.249 1352.07 L594.249 1336.57 Q594.249 1332.84 592.929 1331.03 Q591.61 1329.23 588.901 1329.23 Q585.591 1329.23 583.67 1331.43 Q581.749 1333.63 581.749 1337.42 L581.749 1352.07 L577.466 1352.07 L577.466 1336.57 Q577.466 1332.82 576.147 1331.03 Q574.827 1329.23 572.073 1329.23 Q568.809 1329.23 566.888 1331.45 Q564.966 1333.65 564.966 1337.42 L564.966 1352.07 L560.684 1352.07 L560.684 1326.15 L564.966 1326.15 L564.966 1330.18 Q566.425 1327.79 568.462 1326.66 Q570.499 1325.52 573.3 1325.52 Q576.124 1325.52 578.091 1326.96 Q580.082 1328.39 581.031 1331.13 Z" fill="#000000" fill-rule="nonzero" fill-opacity="1"></path><path clip-path="url(#clip550)" d="M626.216 1348.19 L626.216 1361.94 L621.934 1361.94 L621.934 1326.15 L626.216 1326.15 L626.216 1330.08 Q627.559 1327.77 629.596 1326.66 Q631.656 1325.52 634.503 1325.52 Q639.225 1325.52 642.165 1329.27 Q645.128 1333.02 645.128 1339.13 Q645.128 1345.25 642.165 1349 Q639.225 1352.75 634.503 1352.75 Q631.656 1352.75 629.596 1351.63 Q627.559 1350.5 626.216 1348.19 M640.707 1339.13 Q640.707 1334.44 638.762 1331.77 Q636.841 1329.09 633.461 1329.09 Q630.082 1329.09 628.137 1331.77 Q626.216 1334.44 626.216 1339.13 Q626.216 1343.83 628.137 1346.52 Q630.082 1349.18 633.461 1349.18 Q636.841 1349.18 638.762 1346.52 Q640.707 1343.83 640.707 1339.13 Z" fill="#000000" fill-rule="nonzero" fill-opacity="1"></path><path clip-path="url(#clip550)" d="M667.211 1330.13 Q666.494 1329.71 665.637 1329.53 Q664.804 1329.32 663.785 1329.32 Q660.174 1329.32 658.23 1331.68 Q656.308 1334.02 656.308 1338.42 L656.308 1352.07 L652.026 1352.07 L652.026 1326.15 L656.308 1326.15 L656.308 1330.18 Q657.651 1327.82 659.804 1326.68 Q661.957 1325.52 665.035 1325.52 Q665.475 1325.52 666.007 1325.59 Q666.54 1325.64 667.188 1325.76 L667.211 1330.13 Z" fill="#000000" fill-rule="nonzero" fill-opacity="1"></path><path clip-path="url(#clip550)" d="M692.813 1338.05 L692.813 1340.13 L673.23 1340.13 Q673.507 1344.53 675.869 1346.84 Q678.253 1349.13 682.489 1349.13 Q684.943 1349.13 687.234 1348.53 Q689.549 1347.93 691.818 1346.73 L691.818 1350.75 Q689.526 1351.73 687.118 1352.24 Q684.711 1352.75 682.234 1352.75 Q676.031 1352.75 672.396 1349.13 Q668.785 1345.52 668.785 1339.37 Q668.785 1333 672.211 1329.27 Q675.66 1325.52 681.493 1325.52 Q686.725 1325.52 689.757 1328.9 Q692.813 1332.26 692.813 1338.05 M688.554 1336.8 Q688.507 1333.3 686.586 1331.22 Q684.688 1329.13 681.54 1329.13 Q677.975 1329.13 675.822 1331.15 Q673.693 1333.16 673.369 1336.82 L688.554 1336.8 Z" fill="#000000" fill-rule="nonzero" fill-opacity="1"></path><path clip-path="url(#clip550)" d="M716.331 1326.91 L716.331 1330.94 Q714.526 1330.01 712.581 1329.55 Q710.637 1329.09 708.554 1329.09 Q705.382 1329.09 703.785 1330.06 Q702.211 1331.03 702.211 1332.98 Q702.211 1334.46 703.345 1335.32 Q704.479 1336.15 707.905 1336.91 L709.364 1337.24 Q713.901 1338.21 715.799 1339.99 Q717.72 1341.75 717.72 1344.92 Q717.72 1348.53 714.85 1350.64 Q712.003 1352.75 707.003 1352.75 Q704.919 1352.75 702.651 1352.33 Q700.405 1351.94 697.905 1351.13 L697.905 1346.73 Q700.267 1347.95 702.558 1348.58 Q704.85 1349.18 707.095 1349.18 Q710.104 1349.18 711.725 1348.16 Q713.345 1347.12 713.345 1345.25 Q713.345 1343.51 712.165 1342.58 Q711.007 1341.66 707.049 1340.8 L705.567 1340.45 Q701.609 1339.62 699.85 1337.91 Q698.091 1336.17 698.091 1333.16 Q698.091 1329.51 700.683 1327.51 Q703.276 1325.52 708.044 1325.52 Q710.405 1325.52 712.489 1325.87 Q714.572 1326.22 716.331 1326.91 Z" fill="#000000" fill-rule="nonzero" fill-opacity="1"></path><path clip-path="url(#clip550)" d="M741.03 1326.91 L741.03 1330.94 Q739.225 1330.01 737.28 1329.55 Q735.336 1329.09 733.252 1329.09 Q730.081 1329.09 728.484 1330.06 Q726.91 1331.03 726.91 1332.98 Q726.91 1334.46 728.044 1335.32 Q729.178 1336.15 732.604 1336.91 L734.063 1337.24 Q738.6 1338.21 740.498 1339.99 Q742.419 1341.75 742.419 1344.92 Q742.419 1348.53 739.549 1350.64 Q736.702 1352.75 731.702 1352.75 Q729.618 1352.75 727.35 1352.33 Q725.104 1351.94 722.604 1351.13 L722.604 1346.73 Q724.965 1347.95 727.257 1348.58 Q729.549 1349.18 731.794 1349.18 Q734.803 1349.18 736.424 1348.16 Q738.044 1347.12 738.044 1345.25 Q738.044 1343.51 736.864 1342.58 Q735.706 1341.66 731.748 1340.8 L730.266 1340.45 Q726.308 1339.62 724.549 1337.91 Q722.79 1336.17 722.79 1333.16 Q722.79 1329.51 725.382 1327.51 Q727.975 1325.52 732.743 1325.52 Q735.104 1325.52 737.188 1325.87 Q739.271 1326.22 741.03 1326.91 Z" fill="#000000" fill-rule="nonzero" fill-opacity="1"></path><path clip-path="url(#clip550)" d="M748.762 1341.84 L748.762 1326.15 L753.021 1326.15 L753.021 1341.68 Q753.021 1345.36 754.456 1347.21 Q755.891 1349.04 758.762 1349.04 Q762.211 1349.04 764.201 1346.84 Q766.215 1344.64 766.215 1340.85 L766.215 1326.15 L770.475 1326.15 L770.475 1352.07 L766.215 1352.07 L766.215 1348.09 Q764.664 1350.45 762.604 1351.61 Q760.567 1352.75 757.859 1352.75 Q753.391 1352.75 751.076 1349.97 Q748.762 1347.19 748.762 1341.84 M759.479 1325.52 L759.479 1325.52 Z" fill="#000000" fill-rule="nonzero" fill-opacity="1"></path><path clip-path="url(#clip550)" d="M794.271 1330.13 Q793.553 1329.71 792.697 1329.53 Q791.863 1329.32 790.845 1329.32 Q787.234 1329.32 785.289 1331.68 Q783.368 1334.02 783.368 1338.42 L783.368 1352.07 L779.086 1352.07 L779.086 1326.15 L783.368 1326.15 L783.368 1330.18 Q784.711 1327.82 786.863 1326.68 Q789.016 1325.52 792.095 1325.52 Q792.535 1325.52 793.067 1325.59 Q793.599 1325.64 794.248 1325.76 L794.271 1330.13 Z" fill="#000000" fill-rule="nonzero" fill-opacity="1"></path><path clip-path="url(#clip550)" d="M819.872 1338.05 L819.872 1340.13 L800.289 1340.13 Q800.567 1344.53 802.928 1346.84 Q805.312 1349.13 809.548 1349.13 Q812.002 1349.13 814.294 1348.53 Q816.609 1347.93 818.877 1346.73 L818.877 1350.75 Q816.585 1351.73 814.178 1352.24 Q811.771 1352.75 809.294 1352.75 Q803.09 1352.75 799.456 1349.13 Q795.845 1345.52 795.845 1339.37 Q795.845 1333 799.271 1329.27 Q802.72 1325.52 808.553 1325.52 Q813.784 1325.52 816.817 1328.9 Q819.872 1332.26 819.872 1338.05 M815.613 1336.8 Q815.567 1333.3 813.646 1331.22 Q811.747 1329.13 808.599 1329.13 Q805.035 1329.13 802.882 1331.15 Q800.752 1333.16 800.428 1336.82 L815.613 1336.8 Z" fill="#000000" fill-rule="nonzero" fill-opacity="1"></path><path clip-path="url(#clip550)" d="M867.997 1320.18 L867.997 1325.11 Q865.636 1322.91 862.951 1321.82 Q860.289 1320.73 857.28 1320.73 Q851.354 1320.73 848.206 1324.37 Q845.057 1327.98 845.057 1334.83 Q845.057 1341.66 848.206 1345.29 Q851.354 1348.9 857.28 1348.9 Q860.289 1348.9 862.951 1347.82 Q865.636 1346.73 867.997 1344.53 L867.997 1349.41 Q865.543 1351.08 862.789 1351.91 Q860.057 1352.75 857.002 1352.75 Q849.155 1352.75 844.641 1347.95 Q840.127 1343.14 840.127 1334.83 Q840.127 1326.5 844.641 1321.7 Q849.155 1316.89 857.002 1316.89 Q860.104 1316.89 862.835 1317.72 Q865.59 1318.53 867.997 1320.18 Z" fill="#000000" fill-rule="nonzero" fill-opacity="1"></path><path clip-path="url(#clip550)" d="M885.08 1329.13 Q881.654 1329.13 879.664 1331.82 Q877.673 1334.48 877.673 1339.13 Q877.673 1343.79 879.641 1346.47 Q881.631 1349.13 885.08 1349.13 Q888.483 1349.13 890.474 1346.45 Q892.465 1343.76 892.465 1339.13 Q892.465 1334.53 890.474 1331.84 Q888.483 1329.13 885.08 1329.13 M885.08 1325.52 Q890.636 1325.52 893.807 1329.13 Q896.978 1332.75 896.978 1339.13 Q896.978 1345.5 893.807 1349.13 Q890.636 1352.75 885.08 1352.75 Q879.502 1352.75 876.33 1349.13 Q873.182 1345.5 873.182 1339.13 Q873.182 1332.75 876.33 1329.13 Q879.502 1325.52 885.08 1325.52 Z" fill="#000000" fill-rule="nonzero" fill-opacity="1"></path><path clip-path="url(#clip550)" d="M925.589 1336.43 L925.589 1352.07 L921.33 1352.07 L921.33 1336.57 Q921.33 1332.88 919.895 1331.06 Q918.46 1329.23 915.589 1329.23 Q912.14 1329.23 910.15 1331.43 Q908.159 1333.63 908.159 1337.42 L908.159 1352.07 L903.877 1352.07 L903.877 1326.15 L908.159 1326.15 L908.159 1330.18 Q909.687 1327.84 911.747 1326.68 Q913.83 1325.52 916.539 1325.52 Q921.006 1325.52 923.298 1328.3 Q925.589 1331.06 925.589 1336.43 Z" fill="#000000" fill-rule="nonzero" fill-opacity="1"></path><path clip-path="url(#clip550)" d="M950.612 1326.91 L950.612 1330.94 Q948.807 1330.01 946.862 1329.55 Q944.918 1329.09 942.835 1329.09 Q939.663 1329.09 938.066 1330.06 Q936.492 1331.03 936.492 1332.98 Q936.492 1334.46 937.626 1335.32 Q938.761 1336.15 942.187 1336.91 L943.645 1337.24 Q948.182 1338.21 950.08 1339.99 Q952.001 1341.75 952.001 1344.92 Q952.001 1348.53 949.131 1350.64 Q946.284 1352.75 941.284 1352.75 Q939.2 1352.75 936.932 1352.33 Q934.687 1351.94 932.187 1351.13 L932.187 1346.73 Q934.548 1347.95 936.839 1348.58 Q939.131 1349.18 941.376 1349.18 Q944.386 1349.18 946.006 1348.16 Q947.626 1347.12 947.626 1345.25 Q947.626 1343.51 946.446 1342.58 Q945.288 1341.66 941.33 1340.8 L939.849 1340.45 Q935.89 1339.62 934.131 1337.91 Q932.372 1336.17 932.372 1333.16 Q932.372 1329.51 934.964 1327.51 Q937.557 1325.52 942.325 1325.52 Q944.687 1325.52 946.77 1325.87 Q948.853 1326.22 950.612 1326.91 Z" fill="#000000" fill-rule="nonzero" fill-opacity="1"></path><path clip-path="url(#clip550)" d="M962.997 1318.79 L962.997 1326.15 L971.77 1326.15 L971.77 1329.46 L962.997 1329.46 L962.997 1343.53 Q962.997 1346.7 963.853 1347.61 Q964.733 1348.51 967.395 1348.51 L971.77 1348.51 L971.77 1352.07 L967.395 1352.07 Q962.464 1352.07 960.589 1350.25 Q958.714 1348.39 958.714 1343.53 L958.714 1329.46 L955.589 1329.46 L955.589 1326.15 L958.714 1326.15 L958.714 1318.79 L962.997 1318.79 Z" fill="#000000" fill-rule="nonzero" fill-opacity="1"></path><path clip-path="url(#clip550)" d="M992.395 1330.13 Q991.677 1329.71 990.821 1329.53 Q989.987 1329.32 988.969 1329.32 Q985.358 1329.32 983.413 1331.68 Q981.492 1334.02 981.492 1338.42 L981.492 1352.07 L977.21 1352.07 L977.21 1326.15 L981.492 1326.15 L981.492 1330.18 Q982.834 1327.82 984.987 1326.68 Q987.14 1325.52 990.219 1325.52 Q990.659 1325.52 991.191 1325.59 Q991.723 1325.64 992.371 1325.76 L992.395 1330.13 Z" fill="#000000" fill-rule="nonzero" fill-opacity="1"></path><path clip-path="url(#clip550)" d="M1008.64 1339.04 Q1003.48 1339.04 1001.49 1340.22 Q999.501 1341.4 999.501 1344.25 Q999.501 1346.52 1000.98 1347.86 Q1002.49 1349.18 1005.06 1349.18 Q1008.6 1349.18 1010.73 1346.68 Q1012.88 1344.16 1012.88 1339.99 L1012.88 1339.04 L1008.64 1339.04 M1017.14 1337.28 L1017.14 1352.07 L1012.88 1352.07 L1012.88 1348.14 Q1011.42 1350.5 1009.25 1351.63 Q1007.07 1352.75 1003.92 1352.75 Q999.941 1352.75 997.58 1350.52 Q995.242 1348.28 995.242 1344.53 Q995.242 1340.15 998.158 1337.93 Q1001.1 1335.71 1006.91 1335.71 L1012.88 1335.71 L1012.88 1335.29 Q1012.88 1332.35 1010.94 1330.76 Q1009.01 1329.13 1005.52 1329.13 Q1003.3 1329.13 1001.19 1329.67 Q999.084 1330.2 997.14 1331.26 L997.14 1327.33 Q999.478 1326.43 1001.68 1325.99 Q1003.88 1325.52 1005.96 1325.52 Q1011.58 1325.52 1014.36 1328.44 Q1017.14 1331.36 1017.14 1337.28 Z" fill="#000000" fill-rule="nonzero" fill-opacity="1"></path><path clip-path="url(#clip550)" d="M1025.91 1326.15 L1030.17 1326.15 L1030.17 1352.07 L1025.91 1352.07 L1025.91 1326.15 M1025.91 1316.06 L1030.17 1316.06 L1030.17 1321.45 L1025.91 1321.45 L1025.91 1316.06 Z" fill="#000000" fill-rule="nonzero" fill-opacity="1"></path><path clip-path="url(#clip550)" d="M1060.63 1336.43 L1060.63 1352.07 L1056.38 1352.07 L1056.38 1336.57 Q1056.38 1332.88 1054.94 1331.06 Q1053.51 1329.23 1050.64 1329.23 Q1047.19 1329.23 1045.2 1331.43 Q1043.2 1333.63 1043.2 1337.42 L1043.2 1352.07 L1038.92 1352.07 L1038.92 1326.15 L1043.2 1326.15 L1043.2 1330.18 Q1044.73 1327.84 1046.79 1326.68 Q1048.88 1325.52 1051.58 1325.52 Q1056.05 1325.52 1058.34 1328.3 Q1060.63 1331.06 1060.63 1336.43 Z" fill="#000000" fill-rule="nonzero" fill-opacity="1"></path><path clip-path="url(#clip550)" d="M1073.34 1318.79 L1073.34 1326.15 L1082.12 1326.15 L1082.12 1329.46 L1073.34 1329.46 L1073.34 1343.53 Q1073.34 1346.7 1074.2 1347.61 Q1075.08 1348.51 1077.74 1348.51 L1082.12 1348.51 L1082.12 1352.07 L1077.74 1352.07 Q1072.81 1352.07 1070.94 1350.25 Q1069.06 1348.39 1069.06 1343.53 L1069.06 1329.46 L1065.94 1329.46 L1065.94 1326.15 L1069.06 1326.15 L1069.06 1318.79 L1073.34 1318.79 Z" fill="#000000" fill-rule="nonzero" fill-opacity="1"></path><polyline clip-path="url(#clip550)" style="stroke:#3da44d; stroke-linecap:round; stroke-linejoin:round; stroke-width:4; stroke-opacity:1; fill:none" points="246.817,1386.63 393.743,1386.63 "></polyline>
<path clip-path="url(#clip550)" d="M434.249 1372.53 Q429.157 1372.53 426.148 1376.32 Q423.162 1380.12 423.162 1386.67 Q423.162 1393.2 426.148 1396.99 Q429.157 1400.79 434.249 1400.79 Q439.342 1400.79 442.305 1396.99 Q445.291 1393.2 445.291 1386.67 Q445.291 1380.12 442.305 1376.32 Q439.342 1372.53 434.249 1372.53 M434.249 1368.73 Q441.518 1368.73 445.87 1373.61 Q450.222 1378.47 450.222 1386.67 Q450.222 1394.84 445.87 1399.72 Q441.518 1404.59 434.249 1404.59 Q426.958 1404.59 422.583 1399.72 Q418.231 1394.86 418.231 1386.67 Q418.231 1378.47 422.583 1373.61 Q426.958 1368.73 434.249 1368.73 Z" fill="#000000" fill-rule="nonzero" fill-opacity="1"></path><path clip-path="url(#clip550)" d="M475.962 1390.97 Q475.962 1386.28 474.018 1383.61 Q472.096 1380.93 468.717 1380.93 Q465.337 1380.93 463.393 1383.61 Q461.472 1386.28 461.472 1390.97 Q461.472 1395.67 463.393 1398.36 Q465.337 1401.02 468.717 1401.02 Q472.096 1401.02 474.018 1398.36 Q475.962 1395.67 475.962 1390.97 M461.472 1381.92 Q462.814 1379.61 464.851 1378.5 Q466.911 1377.36 469.759 1377.36 Q474.481 1377.36 477.421 1381.11 Q480.383 1384.86 480.383 1390.97 Q480.383 1397.09 477.421 1400.84 Q474.481 1404.59 469.759 1404.59 Q466.911 1404.59 464.851 1403.47 Q462.814 1402.34 461.472 1400.03 L461.472 1403.91 L457.189 1403.91 L457.189 1367.9 L461.472 1367.9 L461.472 1381.92 Z" fill="#000000" fill-rule="nonzero" fill-opacity="1"></path><path clip-path="url(#clip550)" d="M487.444 1377.99 L491.703 1377.99 L491.703 1404.38 Q491.703 1409.33 489.805 1411.55 Q487.93 1413.78 483.74 1413.78 L482.12 1413.78 L482.12 1410.16 L483.254 1410.16 Q485.684 1410.16 486.564 1409.03 Q487.444 1407.92 487.444 1404.38 L487.444 1377.99 M487.444 1367.9 L491.703 1367.9 L491.703 1373.29 L487.444 1373.29 L487.444 1367.9 Z" fill="#000000" fill-rule="nonzero" fill-opacity="1"></path><path clip-path="url(#clip550)" d="M522.791 1389.89 L522.791 1391.97 L503.207 1391.97 Q503.485 1396.37 505.846 1398.68 Q508.231 1400.97 512.467 1400.97 Q514.92 1400.97 517.212 1400.37 Q519.527 1399.77 521.795 1398.57 L521.795 1402.59 Q519.504 1403.57 517.096 1404.08 Q514.689 1404.59 512.212 1404.59 Q506.008 1404.59 502.374 1400.97 Q498.763 1397.36 498.763 1391.21 Q498.763 1384.84 502.189 1381.11 Q505.638 1377.36 511.471 1377.36 Q516.703 1377.36 519.735 1380.74 Q522.791 1384.1 522.791 1389.89 M518.531 1388.64 Q518.485 1385.14 516.564 1383.06 Q514.666 1380.97 511.518 1380.97 Q507.953 1380.97 505.8 1382.99 Q503.67 1385 503.346 1388.66 L518.531 1388.64 Z" fill="#000000" fill-rule="nonzero" fill-opacity="1"></path><path clip-path="url(#clip550)" d="M548.439 1378.98 L548.439 1382.97 Q546.633 1381.97 544.804 1381.48 Q542.999 1380.97 541.147 1380.97 Q537.004 1380.97 534.712 1383.61 Q532.42 1386.23 532.42 1390.97 Q532.42 1395.72 534.712 1398.36 Q537.004 1400.97 541.147 1400.97 Q542.999 1400.97 544.804 1400.49 Q546.633 1399.98 548.439 1398.98 L548.439 1402.92 Q546.656 1403.75 544.735 1404.17 Q542.837 1404.59 540.684 1404.59 Q534.828 1404.59 531.379 1400.91 Q527.93 1397.22 527.93 1390.97 Q527.93 1384.63 531.402 1381 Q534.897 1377.36 540.962 1377.36 Q542.929 1377.36 544.804 1377.78 Q546.679 1378.17 548.439 1378.98 Z" fill="#000000" fill-rule="nonzero" fill-opacity="1"></path><path clip-path="url(#clip550)" d="M560.059 1370.63 L560.059 1377.99 L568.832 1377.99 L568.832 1381.3 L560.059 1381.3 L560.059 1395.37 Q560.059 1398.54 560.915 1399.45 Q561.795 1400.35 564.457 1400.35 L568.832 1400.35 L568.832 1403.91 L564.457 1403.91 Q559.527 1403.91 557.652 1402.09 Q555.777 1400.23 555.777 1395.37 L555.777 1381.3 L552.652 1381.3 L552.652 1377.99 L555.777 1377.99 L555.777 1370.63 L560.059 1370.63 Z" fill="#000000" fill-rule="nonzero" fill-opacity="1"></path><path clip-path="url(#clip550)" d="M574.434 1377.99 L578.693 1377.99 L578.693 1403.91 L574.434 1403.91 L574.434 1377.99 M574.434 1367.9 L578.693 1367.9 L578.693 1373.29 L574.434 1373.29 L574.434 1367.9 Z" fill="#000000" fill-rule="nonzero" fill-opacity="1"></path><path clip-path="url(#clip550)" d="M584.55 1377.99 L589.063 1377.99 L597.165 1399.75 L605.267 1377.99 L609.781 1377.99 L600.059 1403.91 L594.272 1403.91 L584.55 1377.99 Z" fill="#000000" fill-rule="nonzero" fill-opacity="1"></path><path clip-path="url(#clip550)" d="M637.836 1389.89 L637.836 1391.97 L618.253 1391.97 Q618.531 1396.37 620.892 1398.68 Q623.276 1400.97 627.512 1400.97 Q629.966 1400.97 632.258 1400.37 Q634.572 1399.77 636.841 1398.57 L636.841 1402.59 Q634.549 1403.57 632.142 1404.08 Q629.735 1404.59 627.258 1404.59 Q621.054 1404.59 617.42 1400.97 Q613.809 1397.36 613.809 1391.21 Q613.809 1384.84 617.235 1381.11 Q620.684 1377.36 626.517 1377.36 Q631.748 1377.36 634.781 1380.74 Q637.836 1384.1 637.836 1389.89 M633.577 1388.64 Q633.531 1385.14 631.61 1383.06 Q629.711 1380.97 626.563 1380.97 Q622.998 1380.97 620.846 1382.99 Q618.716 1385 618.392 1388.66 L633.577 1388.64 Z" fill="#000000" fill-rule="nonzero" fill-opacity="1"></path></svg>