<svg xmlns="http://www.w3.org/2000/svg" xmlns:xlink="http://www.w3.org/1999/xlink" width="600" height="400" viewBox="0 0 2400 1600">
<defs>
  <clipPath id="clip570">
    <rect x="0" y="0" width="2400" height="1600"></rect>
  </clipPath>
</defs>
<path clip-path="url(#clip570)" d="M0 1600 L2400 1600 L2400 0 L0 0  Z" fill="#ffffff" fill-rule="evenodd" fill-opacity="1"></path>
<defs>
  <clipPath id="clip571">
    <rect x="480" y="0" width="1681" height="1600"></rect>
  </clipPath>
</defs>
<path clip-path="url(#clip570)" d="M186.76 1486.45 L2352.76 1486.45 L2352.76 47.2441 L186.76 47.2441  Z" fill="#ffffff" fill-rule="evenodd" fill-opacity="1"></path>
<defs>
  <clipPath id="clip572">
    <rect x="186" y="47" width="2167" height="1440"></rect>
  </clipPath>
</defs>
<polyline clip-path="url(#clip572)" style="stroke:#000000; stroke-linecap:round; stroke-linejoin:round; stroke-width:2; stroke-opacity:0.1; fill:none" points="519.994,1486.45 519.994,47.2441 "></polyline>
<polyline clip-path="url(#clip572)" style="stroke:#000000; stroke-linecap:round; stroke-linejoin:round; stroke-width:2; stroke-opacity:0.1; fill:none" points="1032.48,1486.45 1032.48,47.2441 "></polyline>
<polyline clip-path="url(#clip572)" style="stroke:#000000; stroke-linecap:round; stroke-linejoin:round; stroke-width:2; stroke-opacity:0.1; fill:none" points="1544.97,1486.45 1544.97,47.2441 "></polyline>
<polyline clip-path="url(#clip572)" style="stroke:#000000; stroke-linecap:round; stroke-linejoin:round; stroke-width:2; stroke-opacity:0.1; fill:none" points="2057.45,1486.45 2057.45,47.2441 "></polyline>
<polyline clip-path="url(#clip570)" style="stroke:#000000; stroke-linecap:round; stroke-linejoin:round; stroke-width:4; stroke-opacity:1; fill:none" points="186.76,1486.45 2352.76,1486.45 "></polyline>
<polyline clip-path="url(#clip570)" style="stroke:#000000; stroke-linecap:round; stroke-linejoin:round; stroke-width:4; stroke-opacity:1; fill:none" points="519.994,1486.45 519.994,1467.55 "></polyline>
<polyline clip-path="url(#clip570)" style="stroke:#000000; stroke-linecap:round; stroke-linejoin:round; stroke-width:4; stroke-opacity:1; fill:none" points="1032.48,1486.45 1032.48,1467.55 "></polyline>
<polyline clip-path="url(#clip570)" style="stroke:#000000; stroke-linecap:round; stroke-linejoin:round; stroke-width:4; stroke-opacity:1; fill:none" points="1544.97,1486.45 1544.97,1467.55 "></polyline>
<polyline clip-path="url(#clip570)" style="stroke:#000000; stroke-linecap:round; stroke-linejoin:round; stroke-width:4; stroke-opacity:1; fill:none" points="2057.45,1486.45 2057.45,1467.55 "></polyline>
<path clip-path="url(#clip570)" d="M467.714 1517.37 Q464.103 1517.37 462.274 1520.93 Q460.469 1524.47 460.469 1531.6 Q460.469 1538.71 462.274 1542.27 Q464.103 1545.82 467.714 1545.82 Q471.348 1545.82 473.154 1542.27 Q474.982 1538.71 474.982 1531.6 Q474.982 1524.47 473.154 1520.93 Q471.348 1517.37 467.714 1517.37 M467.714 1513.66 Q473.524 1513.66 476.58 1518.27 Q479.658 1522.85 479.658 1531.6 Q479.658 1540.33 476.58 1544.94 Q473.524 1549.52 467.714 1549.52 Q461.904 1549.52 458.825 1544.94 Q455.77 1540.33 455.77 1531.6 Q455.77 1522.85 458.825 1518.27 Q461.904 1513.66 467.714 1513.66 Z" fill="#000000" fill-rule="nonzero" fill-opacity="1"></path><path clip-path="url(#clip570)" d="M487.876 1542.97 L492.76 1542.97 L492.76 1548.85 L487.876 1548.85 L487.876 1542.97 Z" fill="#000000" fill-rule="nonzero" fill-opacity="1"></path><path clip-path="url(#clip570)" d="M501.765 1514.29 L523.987 1514.29 L523.987 1516.28 L511.441 1548.85 L506.556 1548.85 L518.362 1518.22 L501.765 1518.22 L501.765 1514.29 Z" fill="#000000" fill-rule="nonzero" fill-opacity="1"></path><path clip-path="url(#clip570)" d="M543.686 1529.7 Q540.538 1529.7 538.686 1531.86 Q536.857 1534.01 536.857 1537.76 Q536.857 1541.49 538.686 1543.66 Q540.538 1545.82 543.686 1545.82 Q546.834 1545.82 548.663 1543.66 Q550.514 1541.49 550.514 1537.76 Q550.514 1534.01 548.663 1531.86 Q546.834 1529.7 543.686 1529.7 M552.968 1515.05 L552.968 1519.31 Q551.209 1518.48 549.403 1518.04 Q547.621 1517.6 545.862 1517.6 Q541.232 1517.6 538.778 1520.72 Q536.348 1523.85 536.001 1530.17 Q537.366 1528.15 539.427 1527.09 Q541.487 1526 543.964 1526 Q549.172 1526 552.181 1529.17 Q555.213 1532.32 555.213 1537.76 Q555.213 1543.08 552.065 1546.3 Q548.917 1549.52 543.686 1549.52 Q537.69 1549.52 534.519 1544.94 Q531.348 1540.33 531.348 1531.6 Q531.348 1523.41 535.237 1518.55 Q539.126 1513.66 545.676 1513.66 Q547.436 1513.66 549.218 1514.01 Q551.024 1514.36 552.968 1515.05 Z" fill="#000000" fill-rule="nonzero" fill-opacity="1"></path><path clip-path="url(#clip570)" d="M563.315 1514.29 L581.672 1514.29 L581.672 1518.22 L567.598 1518.22 L567.598 1526.7 Q568.616 1526.35 569.635 1526.19 Q570.653 1526 571.672 1526 Q577.459 1526 580.838 1529.17 Q584.218 1532.34 584.218 1537.76 Q584.218 1543.34 580.746 1546.44 Q577.274 1549.52 570.954 1549.52 Q568.778 1549.52 566.51 1549.15 Q564.264 1548.78 561.857 1548.04 L561.857 1543.34 Q563.94 1544.47 566.162 1545.03 Q568.385 1545.58 570.862 1545.58 Q574.866 1545.58 577.204 1543.48 Q579.542 1541.37 579.542 1537.76 Q579.542 1534.15 577.204 1532.04 Q574.866 1529.94 570.862 1529.94 Q568.987 1529.94 567.112 1530.35 Q565.26 1530.77 563.315 1531.65 L563.315 1514.29 Z" fill="#000000" fill-rule="nonzero" fill-opacity="1"></path><path clip-path="url(#clip570)" d="M979.702 1517.37 Q976.091 1517.37 974.263 1520.93 Q972.457 1524.47 972.457 1531.6 Q972.457 1538.71 974.263 1542.27 Q976.091 1545.82 979.702 1545.82 Q983.337 1545.82 985.142 1542.27 Q986.971 1538.71 986.971 1531.6 Q986.971 1524.47 985.142 1520.93 Q983.337 1517.37 979.702 1517.37 M979.702 1513.66 Q985.512 1513.66 988.568 1518.27 Q991.647 1522.85 991.647 1531.6 Q991.647 1540.33 988.568 1544.94 Q985.512 1549.52 979.702 1549.52 Q973.892 1549.52 970.813 1544.94 Q967.758 1540.33 967.758 1531.6 Q967.758 1522.85 970.813 1518.27 Q973.892 1513.66 979.702 1513.66 Z" fill="#000000" fill-rule="nonzero" fill-opacity="1"></path><path clip-path="url(#clip570)" d="M999.864 1542.97 L1004.75 1542.97 L1004.75 1548.85 L999.864 1548.85 L999.864 1542.97 Z" fill="#000000" fill-rule="nonzero" fill-opacity="1"></path><path clip-path="url(#clip570)" d="M1013.75 1514.29 L1035.98 1514.29 L1035.98 1516.28 L1023.43 1548.85 L1018.54 1548.85 L1030.35 1518.22 L1013.75 1518.22 L1013.75 1514.29 Z" fill="#000000" fill-rule="nonzero" fill-opacity="1"></path><path clip-path="url(#clip570)" d="M1043.91 1514.29 L1066.14 1514.29 L1066.14 1516.28 L1053.59 1548.85 L1048.71 1548.85 L1060.51 1518.22 L1043.91 1518.22 L1043.91 1514.29 Z" fill="#000000" fill-rule="nonzero" fill-opacity="1"></path><path clip-path="url(#clip570)" d="M1085.26 1517.37 Q1081.65 1517.37 1079.82 1520.93 Q1078.01 1524.47 1078.01 1531.6 Q1078.01 1538.71 1079.82 1542.27 Q1081.65 1545.82 1085.26 1545.82 Q1088.89 1545.82 1090.7 1542.27 Q1092.53 1538.71 1092.53 1531.6 Q1092.53 1524.47 1090.7 1520.93 Q1088.89 1517.37 1085.26 1517.37 M1085.26 1513.66 Q1091.07 1513.66 1094.12 1518.27 Q1097.2 1522.85 1097.2 1531.6 Q1097.2 1540.33 1094.12 1544.94 Q1091.07 1549.52 1085.26 1549.52 Q1079.45 1549.52 1076.37 1544.94 Q1073.31 1540.33 1073.31 1531.6 Q1073.31 1522.85 1076.37 1518.27 Q1079.45 1513.66 1085.26 1513.66 Z" fill="#000000" fill-rule="nonzero" fill-opacity="1"></path><path clip-path="url(#clip570)" d="M1492.69 1517.37 Q1489.07 1517.37 1487.25 1520.93 Q1485.44 1524.47 1485.44 1531.6 Q1485.44 1538.71 1487.25 1542.27 Q1489.07 1545.82 1492.69 1545.82 Q1496.32 1545.82 1498.13 1542.27 Q1499.95 1538.71 1499.95 1531.6 Q1499.95 1524.47 1498.13 1520.93 Q1496.32 1517.37 1492.69 1517.37 M1492.69 1513.66 Q1498.5 1513.66 1501.55 1518.27 Q1504.63 1522.85 1504.63 1531.6 Q1504.63 1540.33 1501.55 1544.94 Q1498.5 1549.52 1492.69 1549.52 Q1486.88 1549.52 1483.8 1544.94 Q1480.74 1540.33 1480.74 1531.6 Q1480.74 1522.85 1483.8 1518.27 Q1486.88 1513.66 1492.69 1513.66 Z" fill="#000000" fill-rule="nonzero" fill-opacity="1"></path><path clip-path="url(#clip570)" d="M1512.85 1542.97 L1517.73 1542.97 L1517.73 1548.85 L1512.85 1548.85 L1512.85 1542.97 Z" fill="#000000" fill-rule="nonzero" fill-opacity="1"></path><path clip-path="url(#clip570)" d="M1526.74 1514.29 L1548.96 1514.29 L1548.96 1516.28 L1536.41 1548.85 L1531.53 1548.85 L1543.33 1518.22 L1526.74 1518.22 L1526.74 1514.29 Z" fill="#000000" fill-rule="nonzero" fill-opacity="1"></path><path clip-path="url(#clip570)" d="M1556.9 1514.29 L1579.12 1514.29 L1579.12 1516.28 L1566.57 1548.85 L1561.69 1548.85 L1573.5 1518.22 L1556.9 1518.22 L1556.9 1514.29 Z" fill="#000000" fill-rule="nonzero" fill-opacity="1"></path><path clip-path="url(#clip570)" d="M1588.29 1514.29 L1606.64 1514.29 L1606.64 1518.22 L1592.57 1518.22 L1592.57 1526.7 Q1593.59 1526.35 1594.61 1526.19 Q1595.63 1526 1596.64 1526 Q1602.43 1526 1605.81 1529.17 Q1609.19 1532.34 1609.19 1537.76 Q1609.19 1543.34 1605.72 1546.44 Q1602.25 1549.52 1595.93 1549.52 Q1593.75 1549.52 1591.48 1549.15 Q1589.24 1548.78 1586.83 1548.04 L1586.83 1543.34 Q1588.91 1544.47 1591.13 1545.03 Q1593.36 1545.58 1595.83 1545.58 Q1599.84 1545.58 1602.18 1543.48 Q1604.51 1541.37 1604.51 1537.76 Q1604.51 1534.15 1602.18 1532.04 Q1599.84 1529.94 1595.83 1529.94 Q1593.96 1529.94 1592.08 1530.35 Q1590.23 1530.77 1588.29 1531.65 L1588.29 1514.29 Z" fill="#000000" fill-rule="nonzero" fill-opacity="1"></path><path clip-path="url(#clip570)" d="M2004.67 1517.37 Q2001.06 1517.37 1999.23 1520.93 Q1997.43 1524.47 1997.43 1531.6 Q1997.43 1538.71 1999.23 1542.27 Q2001.06 1545.82 2004.67 1545.82 Q2008.31 1545.82 2010.11 1542.27 Q2011.94 1538.71 2011.94 1531.6 Q2011.94 1524.47 2010.11 1520.93 Q2008.31 1517.37 2004.67 1517.37 M2004.67 1513.66 Q2010.48 1513.66 2013.54 1518.27 Q2016.62 1522.85 2016.62 1531.6 Q2016.62 1540.33 2013.54 1544.94 Q2010.48 1549.52 2004.67 1549.52 Q1998.86 1549.52 1995.79 1544.94 Q1992.73 1540.33 1992.73 1531.6 Q1992.73 1522.85 1995.79 1518.27 Q1998.86 1513.66 2004.67 1513.66 Z" fill="#000000" fill-rule="nonzero" fill-opacity="1"></path><path clip-path="url(#clip570)" d="M2024.84 1542.97 L2029.72 1542.97 L2029.72 1548.85 L2024.84 1548.85 L2024.84 1542.97 Z" fill="#000000" fill-rule="nonzero" fill-opacity="1"></path><path clip-path="url(#clip570)" d="M2038.73 1514.29 L2060.95 1514.29 L2060.95 1516.28 L2048.4 1548.85 L2043.52 1548.85 L2055.32 1518.22 L2038.73 1518.22 L2038.73 1514.29 Z" fill="#000000" fill-rule="nonzero" fill-opacity="1"></path><path clip-path="url(#clip570)" d="M2080.07 1532.44 Q2076.73 1532.44 2074.81 1534.22 Q2072.91 1536 2072.91 1539.13 Q2072.91 1542.25 2074.81 1544.03 Q2076.73 1545.82 2080.07 1545.82 Q2083.4 1545.82 2085.32 1544.03 Q2087.24 1542.23 2087.24 1539.13 Q2087.24 1536 2085.32 1534.22 Q2083.42 1532.44 2080.07 1532.44 M2075.39 1530.45 Q2072.38 1529.7 2070.69 1527.64 Q2069.03 1525.58 2069.03 1522.62 Q2069.03 1518.48 2071.97 1516.07 Q2074.93 1513.66 2080.07 1513.66 Q2085.23 1513.66 2088.17 1516.07 Q2091.11 1518.48 2091.11 1522.62 Q2091.11 1525.58 2089.42 1527.64 Q2087.75 1529.7 2084.77 1530.45 Q2088.15 1531.23 2090.02 1533.52 Q2091.92 1535.82 2091.92 1539.13 Q2091.92 1544.15 2088.84 1546.83 Q2085.79 1549.52 2080.07 1549.52 Q2074.35 1549.52 2071.27 1546.83 Q2068.22 1544.15 2068.22 1539.13 Q2068.22 1535.82 2070.11 1533.52 Q2072.01 1531.23 2075.39 1530.45 M2073.68 1523.06 Q2073.68 1525.75 2075.35 1527.25 Q2077.04 1528.76 2080.07 1528.76 Q2083.08 1528.76 2084.77 1527.25 Q2086.48 1525.75 2086.48 1523.06 Q2086.48 1520.38 2084.77 1518.87 Q2083.08 1517.37 2080.07 1517.37 Q2077.04 1517.37 2075.35 1518.87 Q2073.68 1520.38 2073.68 1523.06 Z" fill="#000000" fill-rule="nonzero" fill-opacity="1"></path><path clip-path="url(#clip570)" d="M2110.23 1517.37 Q2106.62 1517.37 2104.79 1520.93 Q2102.98 1524.47 2102.98 1531.6 Q2102.98 1538.71 2104.79 1542.27 Q2106.62 1545.82 2110.23 1545.82 Q2113.86 1545.82 2115.67 1542.27 Q2117.5 1538.71 2117.5 1531.6 Q2117.5 1524.47 2115.67 1520.93 Q2113.86 1517.37 2110.23 1517.37 M2110.23 1513.66 Q2116.04 1513.66 2119.1 1518.27 Q2122.17 1522.85 2122.17 1531.6 Q2122.17 1540.33 2119.1 1544.94 Q2116.04 1549.52 2110.23 1549.52 Q2104.42 1549.52 2101.34 1544.94 Q2098.29 1540.33 2098.29 1531.6 Q2098.29 1522.85 2101.34 1518.27 Q2104.42 1513.66 2110.23 1513.66 Z" fill="#000000" fill-rule="nonzero" fill-opacity="1"></path><polyline clip-path="url(#clip572)" style="stroke:#000000; stroke-linecap:round; stroke-linejoin:round; stroke-width:2; stroke-opacity:0.1; fill:none" points="186.76,1268.88 2352.76,1268.88 "></polyline>
<polyline clip-path="url(#clip572)" style="stroke:#000000; stroke-linecap:round; stroke-linejoin:round; stroke-width:2; stroke-opacity:0.1; fill:none" points="186.76,1023.47 2352.76,1023.47 "></polyline>
<polyline clip-path="url(#clip572)" style="stroke:#000000; stroke-linecap:round; stroke-linejoin:round; stroke-width:2; stroke-opacity:0.1; fill:none" points="186.76,778.071 2352.76,778.071 "></polyline>
<polyline clip-path="url(#clip572)" style="stroke:#000000; stroke-linecap:round; stroke-linejoin:round; stroke-width:2; stroke-opacity:0.1; fill:none" points="186.76,532.668 2352.76,532.668 "></polyline>
<polyline clip-path="url(#clip572)" style="stroke:#000000; stroke-linecap:round; stroke-linejoin:round; stroke-width:2; stroke-opacity:0.1; fill:none" points="186.76,287.265 2352.76,287.265 "></polyline>
<polyline clip-path="url(#clip570)" style="stroke:#000000; stroke-linecap:round; stroke-linejoin:round; stroke-width:4; stroke-opacity:1; fill:none" points="186.76,1486.45 186.76,47.2441 "></polyline>
<polyline clip-path="url(#clip570)" style="stroke:#000000; stroke-linecap:round; stroke-linejoin:round; stroke-width:4; stroke-opacity:1; fill:none" points="186.76,1268.88 205.658,1268.88 "></polyline>
<polyline clip-path="url(#clip570)" style="stroke:#000000; stroke-linecap:round; stroke-linejoin:round; stroke-width:4; stroke-opacity:1; fill:none" points="186.76,1023.47 205.658,1023.47 "></polyline>
<polyline clip-path="url(#clip570)" style="stroke:#000000; stroke-linecap:round; stroke-linejoin:round; stroke-width:4; stroke-opacity:1; fill:none" points="186.76,778.071 205.658,778.071 "></polyline>
<polyline clip-path="url(#clip570)" style="stroke:#000000; stroke-linecap:round; stroke-linejoin:round; stroke-width:4; stroke-opacity:1; fill:none" points="186.76,532.668 205.658,532.668 "></polyline>
<polyline clip-path="url(#clip570)" style="stroke:#000000; stroke-linecap:round; stroke-linejoin:round; stroke-width:4; stroke-opacity:1; fill:none" points="186.76,287.265 205.658,287.265 "></polyline>
<path clip-path="url(#clip570)" d="M65.0198 1254.68 Q61.4087 1254.68 59.58 1258.24 Q57.7745 1261.78 57.7745 1268.91 Q57.7745 1276.02 59.58 1279.58 Q61.4087 1283.12 65.0198 1283.12 Q68.6541 1283.12 70.4596 1279.58 Q72.2883 1276.02 72.2883 1268.91 Q72.2883 1261.78 70.4596 1258.24 Q68.6541 1254.68 65.0198 1254.68 M65.0198 1250.97 Q70.83 1250.97 73.8855 1255.58 Q76.9642 1260.16 76.9642 1268.91 Q76.9642 1277.64 73.8855 1282.25 Q70.83 1286.83 65.0198 1286.83 Q59.2097 1286.83 56.131 1282.25 Q53.0754 1277.64 53.0754 1268.91 Q53.0754 1260.16 56.131 1255.58 Q59.2097 1250.97 65.0198 1250.97 Z" fill="#000000" fill-rule="nonzero" fill-opacity="1"></path><path clip-path="url(#clip570)" d="M85.1818 1280.28 L90.066 1280.28 L90.066 1286.16 L85.1818 1286.16 L85.1818 1280.28 Z" fill="#000000" fill-rule="nonzero" fill-opacity="1"></path><path clip-path="url(#clip570)" d="M100.39 1285.44 L100.39 1281.18 Q102.149 1282.01 103.955 1282.45 Q105.76 1282.89 107.496 1282.89 Q112.126 1282.89 114.557 1279.79 Q117.01 1276.67 117.358 1270.32 Q116.015 1272.31 113.955 1273.38 Q111.895 1274.44 109.395 1274.44 Q104.209 1274.44 101.177 1271.32 Q98.1678 1268.17 98.1678 1262.73 Q98.1678 1257.41 101.316 1254.19 Q104.464 1250.97 109.696 1250.97 Q115.691 1250.97 118.839 1255.58 Q122.01 1260.16 122.01 1268.91 Q122.01 1277.08 118.121 1281.97 Q114.256 1286.83 107.705 1286.83 Q105.946 1286.83 104.14 1286.48 Q102.334 1286.13 100.39 1285.44 M109.696 1270.79 Q112.844 1270.79 114.672 1268.63 Q116.524 1266.48 116.524 1262.73 Q116.524 1259 114.672 1256.85 Q112.844 1254.68 109.696 1254.68 Q106.547 1254.68 104.696 1256.85 Q102.867 1259 102.867 1262.73 Q102.867 1266.48 104.696 1268.63 Q106.547 1270.79 109.696 1270.79 Z" fill="#000000" fill-rule="nonzero" fill-opacity="1"></path><path clip-path="url(#clip570)" d="M134.441 1282.22 L150.76 1282.22 L150.76 1286.16 L128.816 1286.16 L128.816 1282.22 Q131.478 1279.47 136.061 1274.84 Q140.668 1270.19 141.848 1268.84 Q144.093 1266.32 144.973 1264.58 Q145.876 1262.82 145.876 1261.13 Q145.876 1258.38 143.931 1256.64 Q142.01 1254.91 138.908 1254.91 Q136.709 1254.91 134.256 1255.67 Q131.825 1256.44 129.047 1257.99 L129.047 1253.26 Q131.871 1252.13 134.325 1251.55 Q136.779 1250.97 138.816 1250.97 Q144.186 1250.97 147.38 1253.66 Q150.575 1256.34 150.575 1260.83 Q150.575 1262.96 149.765 1264.88 Q148.978 1266.78 146.871 1269.37 Q146.293 1270.05 143.191 1273.26 Q140.089 1276.46 134.441 1282.22 Z" fill="#000000" fill-rule="nonzero" fill-opacity="1"></path><path clip-path="url(#clip570)" d="M64.0708 1009.27 Q60.4597 1009.27 58.631 1012.84 Q56.8254 1016.38 56.8254 1023.51 Q56.8254 1030.62 58.631 1034.18 Q60.4597 1037.72 64.0708 1037.72 Q67.705 1037.72 69.5105 1034.18 Q71.3392 1030.62 71.3392 1023.51 Q71.3392 1016.38 69.5105 1012.84 Q67.705 1009.27 64.0708 1009.27 M64.0708 1005.57 Q69.8809 1005.57 72.9365 1010.18 Q76.0151 1014.76 76.0151 1023.51 Q76.0151 1032.24 72.9365 1036.84 Q69.8809 1041.43 64.0708 1041.43 Q58.2606 1041.43 55.1819 1036.84 Q52.1264 1032.24 52.1264 1023.51 Q52.1264 1014.76 55.1819 1010.18 Q58.2606 1005.57 64.0708 1005.57 Z" fill="#000000" fill-rule="nonzero" fill-opacity="1"></path><path clip-path="url(#clip570)" d="M84.2327 1034.87 L89.1169 1034.87 L89.1169 1040.75 L84.2327 1040.75 L84.2327 1034.87 Z" fill="#000000" fill-rule="nonzero" fill-opacity="1"></path><path clip-path="url(#clip570)" d="M99.4409 1040.04 L99.4409 1035.78 Q101.2 1036.61 103.006 1037.05 Q104.811 1037.49 106.547 1037.49 Q111.177 1037.49 113.608 1034.39 Q116.061 1031.26 116.408 1024.92 Q115.066 1026.91 113.006 1027.98 Q110.946 1029.04 108.446 1029.04 Q103.26 1029.04 100.228 1025.92 Q97.2187 1022.77 97.2187 1017.33 Q97.2187 1012 100.367 1008.79 Q103.515 1005.57 108.746 1005.57 Q114.742 1005.57 117.89 1010.18 Q121.061 1014.76 121.061 1023.51 Q121.061 1031.68 117.172 1036.56 Q113.307 1041.43 106.756 1041.43 Q104.996 1041.43 103.191 1041.08 Q101.385 1040.73 99.4409 1040.04 M108.746 1025.38 Q111.895 1025.38 113.723 1023.23 Q115.575 1021.08 115.575 1017.33 Q115.575 1013.6 113.723 1011.45 Q111.895 1009.27 108.746 1009.27 Q105.598 1009.27 103.746 1011.45 Q101.918 1013.6 101.918 1017.33 Q101.918 1021.08 103.746 1023.23 Q105.598 1025.38 108.746 1025.38 Z" fill="#000000" fill-rule="nonzero" fill-opacity="1"></path><path clip-path="url(#clip570)" d="M143.631 1022.12 Q146.987 1022.84 148.862 1025.11 Q150.76 1027.37 150.76 1030.71 Q150.76 1035.82 147.242 1038.62 Q143.723 1041.43 137.242 1041.43 Q135.066 1041.43 132.751 1040.99 Q130.459 1040.57 128.006 1039.71 L128.006 1035.2 Q129.95 1036.33 132.265 1036.91 Q134.58 1037.49 137.103 1037.49 Q141.501 1037.49 143.793 1035.75 Q146.107 1034.02 146.107 1030.71 Q146.107 1027.65 143.955 1025.94 Q141.825 1024.2 138.006 1024.2 L133.978 1024.2 L133.978 1020.36 L138.191 1020.36 Q141.64 1020.36 143.468 1018.99 Q145.297 1017.61 145.297 1015.01 Q145.297 1012.35 143.399 1010.94 Q141.524 1009.5 138.006 1009.5 Q136.084 1009.5 133.885 1009.92 Q131.686 1010.34 129.047 1011.22 L129.047 1007.05 Q131.709 1006.31 134.024 1005.94 Q136.362 1005.57 138.422 1005.57 Q143.746 1005.57 146.848 1008 Q149.95 1010.41 149.95 1014.53 Q149.95 1017.4 148.306 1019.39 Q146.663 1021.36 143.631 1022.12 Z" fill="#000000" fill-rule="nonzero" fill-opacity="1"></path><path clip-path="url(#clip570)" d="M62.9365 763.87 Q59.3254 763.87 57.4967 767.435 Q55.6912 770.976 55.6912 778.106 Q55.6912 785.212 57.4967 788.777 Q59.3254 792.319 62.9365 792.319 Q66.5707 792.319 68.3763 788.777 Q70.205 785.212 70.205 778.106 Q70.205 770.976 68.3763 767.435 Q66.5707 763.87 62.9365 763.87 M62.9365 760.166 Q68.7467 760.166 71.8022 764.773 Q74.8809 769.356 74.8809 778.106 Q74.8809 786.833 71.8022 791.439 Q68.7467 796.022 62.9365 796.022 Q57.1264 796.022 54.0477 791.439 Q50.9921 786.833 50.9921 778.106 Q50.9921 769.356 54.0477 764.773 Q57.1264 760.166 62.9365 760.166 Z" fill="#000000" fill-rule="nonzero" fill-opacity="1"></path><path clip-path="url(#clip570)" d="M83.0984 789.471 L87.9827 789.471 L87.9827 795.351 L83.0984 795.351 L83.0984 789.471 Z" fill="#000000" fill-rule="nonzero" fill-opacity="1"></path><path clip-path="url(#clip570)" d="M98.3067 794.633 L98.3067 790.374 Q100.066 791.208 101.871 791.647 Q103.677 792.087 105.413 792.087 Q110.043 792.087 112.473 788.985 Q114.927 785.86 115.274 779.518 Q113.932 781.509 111.871 782.573 Q109.811 783.638 107.311 783.638 Q102.126 783.638 99.0937 780.513 Q96.0845 777.365 96.0845 771.925 Q96.0845 766.601 99.2326 763.384 Q102.381 760.166 107.612 760.166 Q113.608 760.166 116.756 764.773 Q119.927 769.356 119.927 778.106 Q119.927 786.277 116.038 791.161 Q112.172 796.022 105.621 796.022 Q103.862 796.022 102.057 795.675 Q100.251 795.328 98.3067 794.633 M107.612 779.981 Q110.76 779.981 112.589 777.828 Q114.441 775.675 114.441 771.925 Q114.441 768.198 112.589 766.046 Q110.76 763.87 107.612 763.87 Q104.464 763.87 102.612 766.046 Q100.784 768.198 100.784 771.925 Q100.784 775.675 102.612 777.828 Q104.464 779.981 107.612 779.981 Z" fill="#000000" fill-rule="nonzero" fill-opacity="1"></path><path clip-path="url(#clip570)" d="M141.177 764.865 L129.371 783.314 L141.177 783.314 L141.177 764.865 M139.95 760.791 L145.83 760.791 L145.83 783.314 L150.76 783.314 L150.76 787.203 L145.83 787.203 L145.83 795.351 L141.177 795.351 L141.177 787.203 L125.575 787.203 L125.575 782.689 L139.95 760.791 Z" fill="#000000" fill-rule="nonzero" fill-opacity="1"></path><path clip-path="url(#clip570)" d="M64.418 518.467 Q60.8069 518.467 58.9782 522.032 Q57.1726 525.573 57.1726 532.703 Q57.1726 539.809 58.9782 543.374 Q60.8069 546.916 64.418 546.916 Q68.0522 546.916 69.8578 543.374 Q71.6865 539.809 71.6865 532.703 Q71.6865 525.573 69.8578 522.032 Q68.0522 518.467 64.418 518.467 M64.418 514.763 Q70.2281 514.763 73.2837 519.369 Q76.3624 523.953 76.3624 532.703 Q76.3624 541.43 73.2837 546.036 Q70.2281 550.619 64.418 550.619 Q58.6078 550.619 55.5291 546.036 Q52.4736 541.43 52.4736 532.703 Q52.4736 523.953 55.5291 519.369 Q58.6078 514.763 64.418 514.763 Z" fill="#000000" fill-rule="nonzero" fill-opacity="1"></path><path clip-path="url(#clip570)" d="M84.5799 544.068 L89.4641 544.068 L89.4641 549.948 L84.5799 549.948 L84.5799 544.068 Z" fill="#000000" fill-rule="nonzero" fill-opacity="1"></path><path clip-path="url(#clip570)" d="M99.7882 549.23 L99.7882 544.971 Q101.547 545.805 103.353 546.244 Q105.159 546.684 106.895 546.684 Q111.524 546.684 113.955 543.582 Q116.408 540.457 116.756 534.115 Q115.413 536.106 113.353 537.17 Q111.293 538.235 108.793 538.235 Q103.608 538.235 100.575 535.11 Q97.566 531.962 97.566 526.522 Q97.566 521.198 100.714 517.981 Q103.862 514.763 109.094 514.763 Q115.089 514.763 118.237 519.369 Q121.408 523.953 121.408 532.703 Q121.408 540.874 117.52 545.758 Q113.654 550.619 107.103 550.619 Q105.344 550.619 103.538 550.272 Q101.733 549.925 99.7882 549.23 M109.094 534.578 Q112.242 534.578 114.07 532.425 Q115.922 530.272 115.922 526.522 Q115.922 522.795 114.07 520.643 Q112.242 518.467 109.094 518.467 Q105.946 518.467 104.094 520.643 Q102.265 522.795 102.265 526.522 Q102.265 530.272 104.094 532.425 Q105.946 534.578 109.094 534.578 Z" fill="#000000" fill-rule="nonzero" fill-opacity="1"></path><path clip-path="url(#clip570)" d="M129.857 515.388 L148.214 515.388 L148.214 519.323 L134.14 519.323 L134.14 527.795 Q135.158 527.448 136.177 527.286 Q137.195 527.101 138.214 527.101 Q144.001 527.101 147.38 530.272 Q150.76 533.443 150.76 538.86 Q150.76 544.439 147.288 547.541 Q143.816 550.619 137.496 550.619 Q135.32 550.619 133.052 550.249 Q130.807 549.879 128.399 549.138 L128.399 544.439 Q130.482 545.573 132.705 546.129 Q134.927 546.684 137.404 546.684 Q141.408 546.684 143.746 544.578 Q146.084 542.471 146.084 538.86 Q146.084 535.249 143.746 533.143 Q141.408 531.036 137.404 531.036 Q135.529 531.036 133.654 531.453 Q131.802 531.869 129.857 532.749 L129.857 515.388 Z" fill="#000000" fill-rule="nonzero" fill-opacity="1"></path><path clip-path="url(#clip570)" d="M63.2606 273.064 Q59.6495 273.064 57.8208 276.628 Q56.0152 280.17 56.0152 287.3 Q56.0152 294.406 57.8208 297.971 Q59.6495 301.513 63.2606 301.513 Q66.8948 301.513 68.7004 297.971 Q70.5291 294.406 70.5291 287.3 Q70.5291 280.17 68.7004 276.628 Q66.8948 273.064 63.2606 273.064 M63.2606 269.36 Q69.0707 269.36 72.1263 273.966 Q75.205 278.55 75.205 287.3 Q75.205 296.026 72.1263 300.633 Q69.0707 305.216 63.2606 305.216 Q57.4504 305.216 54.3717 300.633 Q51.3162 296.026 51.3162 287.3 Q51.3162 278.55 54.3717 273.966 Q57.4504 269.36 63.2606 269.36 Z" fill="#000000" fill-rule="nonzero" fill-opacity="1"></path><path clip-path="url(#clip570)" d="M83.4225 298.665 L88.3067 298.665 L88.3067 304.545 L83.4225 304.545 L83.4225 298.665 Z" fill="#000000" fill-rule="nonzero" fill-opacity="1"></path><path clip-path="url(#clip570)" d="M98.6308 303.827 L98.6308 299.568 Q100.39 300.401 102.196 300.841 Q104.001 301.281 105.737 301.281 Q110.367 301.281 112.797 298.179 Q115.251 295.054 115.598 288.712 Q114.256 290.702 112.196 291.767 Q110.135 292.832 107.635 292.832 Q102.45 292.832 99.4178 289.707 Q96.4085 286.559 96.4085 281.119 Q96.4085 275.795 99.5567 272.578 Q102.705 269.36 107.936 269.36 Q113.932 269.36 117.08 273.966 Q120.251 278.55 120.251 287.3 Q120.251 295.471 116.362 300.355 Q112.496 305.216 105.946 305.216 Q104.186 305.216 102.381 304.869 Q100.575 304.522 98.6308 303.827 M107.936 289.175 Q111.084 289.175 112.913 287.022 Q114.765 284.869 114.765 281.119 Q114.765 277.392 112.913 275.24 Q111.084 273.064 107.936 273.064 Q104.788 273.064 102.936 275.24 Q101.108 277.392 101.108 281.119 Q101.108 284.869 102.936 287.022 Q104.788 289.175 107.936 289.175 Z" fill="#000000" fill-rule="nonzero" fill-opacity="1"></path><path clip-path="url(#clip570)" d="M139.232 285.402 Q136.084 285.402 134.232 287.554 Q132.404 289.707 132.404 293.457 Q132.404 297.184 134.232 299.36 Q136.084 301.513 139.232 301.513 Q142.381 301.513 144.209 299.36 Q146.061 297.184 146.061 293.457 Q146.061 289.707 144.209 287.554 Q142.381 285.402 139.232 285.402 M148.515 270.749 L148.515 275.008 Q146.756 274.175 144.95 273.735 Q143.168 273.295 141.408 273.295 Q136.779 273.295 134.325 276.42 Q131.894 279.545 131.547 285.865 Q132.913 283.851 134.973 282.786 Q137.033 281.698 139.51 281.698 Q144.718 281.698 147.728 284.869 Q150.76 288.017 150.76 293.457 Q150.76 298.781 147.612 301.999 Q144.464 305.216 139.232 305.216 Q133.237 305.216 130.066 300.633 Q126.894 296.026 126.894 287.3 Q126.894 279.105 130.783 274.244 Q134.672 269.36 141.223 269.36 Q142.982 269.36 144.765 269.707 Q146.57 270.054 148.515 270.749 Z" fill="#000000" fill-rule="nonzero" fill-opacity="1"></path><circle clip-path="url(#clip572)" cx="2291.45" cy="1445.72" r="14.4" fill="#009af9" fill-rule="evenodd" fill-opacity="1" stroke="#000000" stroke-opacity="1" stroke-width="3.2"></circle>
<circle clip-path="url(#clip572)" cx="1919.24" cy="1162.44" r="14.4" fill="#009af9" fill-rule="evenodd" fill-opacity="1" stroke="#000000" stroke-opacity="1" stroke-width="3.2"></circle>
<circle clip-path="url(#clip572)" cx="1884.6" cy="1125.57" r="14.4" fill="#009af9" fill-rule="evenodd" fill-opacity="1" stroke="#000000" stroke-opacity="1" stroke-width="3.2"></circle>
<circle clip-path="url(#clip572)" cx="1888.14" cy="1122.31" r="14.4" fill="#009af9" fill-rule="evenodd" fill-opacity="1" stroke="#000000" stroke-opacity="1" stroke-width="3.2"></circle>
<circle clip-path="url(#clip572)" cx="1887.01" cy="1123.12" r="14.4" fill="#009af9" fill-rule="evenodd" fill-opacity="1" stroke="#000000" stroke-opacity="1" stroke-width="3.2"></circle>
<circle clip-path="url(#clip572)" cx="1480.19" cy="836.905" r="14.4" fill="#009af9" fill-rule="evenodd" fill-opacity="1" stroke="#000000" stroke-opacity="1" stroke-width="3.2"></circle>
<circle clip-path="url(#clip572)" cx="1432.47" cy="806.452" r="14.4" fill="#009af9" fill-rule="evenodd" fill-opacity="1" stroke="#000000" stroke-opacity="1" stroke-width="3.2"></circle>
<circle clip-path="url(#clip572)" cx="1415.74" cy="819.076" r="14.4" fill="#009af9" fill-rule="evenodd" fill-opacity="1" stroke="#000000" stroke-opacity="1" stroke-width="3.2"></circle>
<circle clip-path="url(#clip572)" cx="1413.78" cy="820.349" r="14.4" fill="#009af9" fill-rule="evenodd" fill-opacity="1" stroke="#000000" stroke-opacity="1" stroke-width="3.2"></circle>
<circle clip-path="url(#clip572)" cx="931.53" cy="554.344" r="14.4" fill="#009af9" fill-rule="evenodd" fill-opacity="1" stroke="#000000" stroke-opacity="1" stroke-width="3.2"></circle>
<circle clip-path="url(#clip572)" cx="1236.18" cy="587.519" r="14.4" fill="#009af9" fill-rule="evenodd" fill-opacity="1" stroke="#000000" stroke-opacity="1" stroke-width="3.2"></circle>
<circle clip-path="url(#clip572)" cx="1581.56" cy="604.24" r="14.4" fill="#009af9" fill-rule="evenodd" fill-opacity="1" stroke="#000000" stroke-opacity="1" stroke-width="3.2"></circle>
<circle clip-path="url(#clip572)" cx="1579.32" cy="605.295" r="14.4" fill="#009af9" fill-rule="evenodd" fill-opacity="1" stroke="#000000" stroke-opacity="1" stroke-width="3.2"></circle>
<circle clip-path="url(#clip572)" cx="1024.6" cy="332.976" r="14.4" fill="#009af9" fill-rule="evenodd" fill-opacity="1" stroke="#000000" stroke-opacity="1" stroke-width="3.2"></circle>
<circle clip-path="url(#clip572)" cx="921.94" cy="319.452" r="14.4" fill="#009af9" fill-rule="evenodd" fill-opacity="1" stroke="#000000" stroke-opacity="1" stroke-width="3.2"></circle>
<circle clip-path="url(#clip572)" cx="877.628" cy="330.826" r="14.4" fill="#009af9" fill-rule="evenodd" fill-opacity="1" stroke="#000000" stroke-opacity="1" stroke-width="3.2"></circle>
<circle clip-path="url(#clip572)" cx="871.883" cy="333.251" r="14.4" fill="#009af9" fill-rule="evenodd" fill-opacity="1" stroke="#000000" stroke-opacity="1" stroke-width="3.2"></circle>
<circle clip-path="url(#clip572)" cx="248.062" cy="91.864" r="14.4" fill="#009af9" fill-rule="evenodd" fill-opacity="1" stroke="#000000" stroke-opacity="1" stroke-width="3.2"></circle>
<circle clip-path="url(#clip572)" cx="396.167" cy="87.9763" r="14.4" fill="#009af9" fill-rule="evenodd" fill-opacity="1" stroke="#000000" stroke-opacity="1" stroke-width="3.2"></circle>
<circle clip-path="url(#clip572)" cx="529.067" cy="102.004" r="14.4" fill="#009af9" fill-rule="evenodd" fill-opacity="1" stroke="#000000" stroke-opacity="1" stroke-width="3.2"></circle>
<path clip-path="url(#clip570)" d="M2011.53 198.898 L2280.56 198.898 L2280.56 95.2176 L2011.53 95.2176  Z" fill="#ffffff" fill-rule="evenodd" fill-opacity="1"></path>
<polyline clip-path="url(#clip570)" style="stroke:#000000; stroke-linecap:round; stroke-linejoin:round; stroke-width:4; stroke-opacity:1; fill:none" points="2011.53,198.898 2280.56,198.898 2280.56,95.2176 2011.53,95.2176 2011.53,198.898 "></polyline>
<circle clip-path="url(#clip570)" cx="2107.79" cy="147.058" r="20.48" fill="#009af9" fill-rule="evenodd" fill-opacity="1" stroke="#000000" stroke-opacity="1" stroke-width="4.55111"></circle>
<path clip-path="url(#clip570)" d="M2217.9 166.745 Q2216.1 171.375 2214.38 172.787 Q2212.67 174.199 2209.8 174.199 L2206.4 174.199 L2206.4 170.634 L2208.9 170.634 Q2210.66 170.634 2211.63 169.8 Q2212.6 168.967 2213.78 165.865 L2214.55 163.921 L2204.06 138.412 L2208.57 138.412 L2216.67 158.689 L2224.78 138.412 L2229.29 138.412 L2217.9 166.745 Z" fill="#000000" fill-rule="nonzero" fill-opacity="1"></path><path clip-path="url(#clip570)" d="M2236.58 160.402 L2244.22 160.402 L2244.22 134.037 L2235.91 135.703 L2235.91 131.444 L2244.17 129.778 L2248.85 129.778 L2248.85 160.402 L2256.49 160.402 L2256.49 164.338 L2236.58 164.338 L2236.58 160.402 Z" fill="#000000" fill-rule="nonzero" fill-opacity="1"></path></svg>