<svg xmlns="http://www.w3.org/2000/svg" xmlns:xlink="http://www.w3.org/1999/xlink" width="600" height="400" viewBox="0 0 2400 1600">
<defs>
  <clipPath id="clip030">
    <rect x="0" y="0" width="2400" height="1600"></rect>
  </clipPath>
</defs>
<path clip-path="url(#clip030)" d="M0 1600 L2400 1600 L2400 0 L0 0  Z" fill="#ffffff" fill-rule="evenodd" fill-opacity="1"></path>
<defs>
  <clipPath id="clip031">
    <rect x="480" y="0" width="1681" height="1600"></rect>
  </clipPath>
</defs>
<path clip-path="url(#clip030)" d="M186.76 1486.45 L2352.76 1486.45 L2352.76 47.2441 L186.76 47.2441  Z" fill="#ffffff" fill-rule="evenodd" fill-opacity="1"></path>
<defs>
  <clipPath id="clip032">
    <rect x="186" y="47" width="2167" height="1440"></rect>
  </clipPath>
</defs>
<polyline clip-path="url(#clip032)" style="stroke:#000000; stroke-linecap:round; stroke-linejoin:round; stroke-width:2; stroke-opacity:0.1; fill:none" points="248.062,1486.45 248.062,47.2441 "></polyline>
<polyline clip-path="url(#clip032)" style="stroke:#000000; stroke-linecap:round; stroke-linejoin:round; stroke-width:2; stroke-opacity:0.1; fill:none" points="758.91,1486.45 758.91,47.2441 "></polyline>
<polyline clip-path="url(#clip032)" style="stroke:#000000; stroke-linecap:round; stroke-linejoin:round; stroke-width:2; stroke-opacity:0.1; fill:none" points="1269.76,1486.45 1269.76,47.2441 "></polyline>
<polyline clip-path="url(#clip032)" style="stroke:#000000; stroke-linecap:round; stroke-linejoin:round; stroke-width:2; stroke-opacity:0.1; fill:none" points="1780.61,1486.45 1780.61,47.2441 "></polyline>
<polyline clip-path="url(#clip032)" style="stroke:#000000; stroke-linecap:round; stroke-linejoin:round; stroke-width:2; stroke-opacity:0.1; fill:none" points="2291.45,1486.45 2291.45,47.2441 "></polyline>
<polyline clip-path="url(#clip030)" style="stroke:#000000; stroke-linecap:round; stroke-linejoin:round; stroke-width:4; stroke-opacity:1; fill:none" points="186.76,1486.45 2352.76,1486.45 "></polyline>
<polyline clip-path="url(#clip030)" style="stroke:#000000; stroke-linecap:round; stroke-linejoin:round; stroke-width:4; stroke-opacity:1; fill:none" points="248.062,1486.45 248.062,1467.55 "></polyline>
<polyline clip-path="url(#clip030)" style="stroke:#000000; stroke-linecap:round; stroke-linejoin:round; stroke-width:4; stroke-opacity:1; fill:none" points="758.91,1486.45 758.91,1467.55 "></polyline>
<polyline clip-path="url(#clip030)" style="stroke:#000000; stroke-linecap:round; stroke-linejoin:round; stroke-width:4; stroke-opacity:1; fill:none" points="1269.76,1486.45 1269.76,1467.55 "></polyline>
<polyline clip-path="url(#clip030)" style="stroke:#000000; stroke-linecap:round; stroke-linejoin:round; stroke-width:4; stroke-opacity:1; fill:none" points="1780.61,1486.45 1780.61,1467.55 "></polyline>
<polyline clip-path="url(#clip030)" style="stroke:#000000; stroke-linecap:round; stroke-linejoin:round; stroke-width:4; stroke-opacity:1; fill:none" points="2291.45,1486.45 2291.45,1467.55 "></polyline>
<path clip-path="url(#clip030)" d="M210.365 1517.37 Q206.754 1517.37 204.926 1520.93 Q203.12 1524.47 203.12 1531.6 Q203.12 1538.71 204.926 1542.27 Q206.754 1545.82 210.365 1545.82 Q214 1545.82 215.805 1542.27 Q217.634 1538.71 217.634 1531.6 Q217.634 1524.47 215.805 1520.93 Q214 1517.37 210.365 1517.37 M210.365 1513.66 Q216.175 1513.66 219.231 1518.27 Q222.31 1522.85 222.31 1531.6 Q222.31 1540.33 219.231 1544.94 Q216.175 1549.52 210.365 1549.52 Q204.555 1549.52 201.476 1544.94 Q198.421 1540.33 198.421 1531.6 Q198.421 1522.85 201.476 1518.27 Q204.555 1513.66 210.365 1513.66 Z" fill="#000000" fill-rule="nonzero" fill-opacity="1"></path><path clip-path="url(#clip030)" d="M230.527 1542.97 L235.411 1542.97 L235.411 1548.85 L230.527 1548.85 L230.527 1542.97 Z" fill="#000000" fill-rule="nonzero" fill-opacity="1"></path><path clip-path="url(#clip030)" d="M255.597 1517.37 Q251.985 1517.37 250.157 1520.93 Q248.351 1524.47 248.351 1531.6 Q248.351 1538.71 250.157 1542.27 Q251.985 1545.82 255.597 1545.82 Q259.231 1545.82 261.036 1542.27 Q262.865 1538.71 262.865 1531.6 Q262.865 1524.47 261.036 1520.93 Q259.231 1517.37 255.597 1517.37 M255.597 1513.66 Q261.407 1513.66 264.462 1518.27 Q267.541 1522.85 267.541 1531.6 Q267.541 1540.33 264.462 1544.94 Q261.407 1549.52 255.597 1549.52 Q249.786 1549.52 246.708 1544.94 Q243.652 1540.33 243.652 1531.6 Q243.652 1522.85 246.708 1518.27 Q249.786 1513.66 255.597 1513.66 Z" fill="#000000" fill-rule="nonzero" fill-opacity="1"></path><path clip-path="url(#clip030)" d="M285.758 1517.37 Q282.147 1517.37 280.319 1520.93 Q278.513 1524.47 278.513 1531.6 Q278.513 1538.71 280.319 1542.27 Q282.147 1545.82 285.758 1545.82 Q289.393 1545.82 291.198 1542.27 Q293.027 1538.71 293.027 1531.6 Q293.027 1524.47 291.198 1520.93 Q289.393 1517.37 285.758 1517.37 M285.758 1513.66 Q291.569 1513.66 294.624 1518.27 Q297.703 1522.85 297.703 1531.6 Q297.703 1540.33 294.624 1544.94 Q291.569 1549.52 285.758 1549.52 Q279.948 1549.52 276.87 1544.94 Q273.814 1540.33 273.814 1531.6 Q273.814 1522.85 276.87 1518.27 Q279.948 1513.66 285.758 1513.66 Z" fill="#000000" fill-rule="nonzero" fill-opacity="1"></path><path clip-path="url(#clip030)" d="M721.711 1517.37 Q718.1 1517.37 716.271 1520.93 Q714.466 1524.47 714.466 1531.6 Q714.466 1538.71 716.271 1542.27 Q718.1 1545.82 721.711 1545.82 Q725.345 1545.82 727.151 1542.27 Q728.98 1538.71 728.98 1531.6 Q728.98 1524.47 727.151 1520.93 Q725.345 1517.37 721.711 1517.37 M721.711 1513.66 Q727.521 1513.66 730.577 1518.27 Q733.655 1522.85 733.655 1531.6 Q733.655 1540.33 730.577 1544.94 Q727.521 1549.52 721.711 1549.52 Q715.901 1549.52 712.822 1544.94 Q709.767 1540.33 709.767 1531.6 Q709.767 1522.85 712.822 1518.27 Q715.901 1513.66 721.711 1513.66 Z" fill="#000000" fill-rule="nonzero" fill-opacity="1"></path><path clip-path="url(#clip030)" d="M741.873 1542.97 L746.757 1542.97 L746.757 1548.85 L741.873 1548.85 L741.873 1542.97 Z" fill="#000000" fill-rule="nonzero" fill-opacity="1"></path><path clip-path="url(#clip030)" d="M760.97 1544.91 L777.289 1544.91 L777.289 1548.85 L755.345 1548.85 L755.345 1544.91 Q758.007 1542.16 762.59 1537.53 Q767.197 1532.88 768.377 1531.53 Q770.623 1529.01 771.502 1527.27 Q772.405 1525.51 772.405 1523.82 Q772.405 1521.07 770.461 1519.33 Q768.54 1517.6 765.438 1517.6 Q763.239 1517.6 760.785 1518.36 Q758.354 1519.13 755.577 1520.68 L755.577 1515.95 Q758.401 1514.82 760.854 1514.24 Q763.308 1513.66 765.345 1513.66 Q770.715 1513.66 773.91 1516.35 Q777.104 1519.03 777.104 1523.52 Q777.104 1525.65 776.294 1527.57 Q775.507 1529.47 773.401 1532.07 Q772.822 1532.74 769.72 1535.95 Q766.618 1539.15 760.97 1544.91 Z" fill="#000000" fill-rule="nonzero" fill-opacity="1"></path><path clip-path="url(#clip030)" d="M787.151 1514.29 L805.507 1514.29 L805.507 1518.22 L791.433 1518.22 L791.433 1526.7 Q792.451 1526.35 793.47 1526.19 Q794.488 1526 795.507 1526 Q801.294 1526 804.674 1529.17 Q808.053 1532.34 808.053 1537.76 Q808.053 1543.34 804.581 1546.44 Q801.109 1549.52 794.789 1549.52 Q792.613 1549.52 790.345 1549.15 Q788.1 1548.78 785.692 1548.04 L785.692 1543.34 Q787.776 1544.47 789.998 1545.03 Q792.22 1545.58 794.697 1545.58 Q798.701 1545.58 801.039 1543.48 Q803.377 1541.37 803.377 1537.76 Q803.377 1534.15 801.039 1532.04 Q798.701 1529.94 794.697 1529.94 Q792.822 1529.94 790.947 1530.35 Q789.095 1530.77 787.151 1531.65 L787.151 1514.29 Z" fill="#000000" fill-rule="nonzero" fill-opacity="1"></path><path clip-path="url(#clip030)" d="M1232.06 1517.37 Q1228.45 1517.37 1226.62 1520.93 Q1224.82 1524.47 1224.82 1531.6 Q1224.82 1538.71 1226.62 1542.27 Q1228.45 1545.82 1232.06 1545.82 Q1235.7 1545.82 1237.5 1542.27 Q1239.33 1538.71 1239.33 1531.6 Q1239.33 1524.47 1237.5 1520.93 Q1235.7 1517.37 1232.06 1517.37 M1232.06 1513.66 Q1237.87 1513.66 1240.93 1518.27 Q1244.01 1522.85 1244.01 1531.6 Q1244.01 1540.33 1240.93 1544.94 Q1237.87 1549.52 1232.06 1549.52 Q1226.25 1549.52 1223.17 1544.94 Q1220.12 1540.33 1220.12 1531.6 Q1220.12 1522.85 1223.17 1518.27 Q1226.25 1513.66 1232.06 1513.66 Z" fill="#000000" fill-rule="nonzero" fill-opacity="1"></path><path clip-path="url(#clip030)" d="M1252.22 1542.97 L1257.11 1542.97 L1257.11 1548.85 L1252.22 1548.85 L1252.22 1542.97 Z" fill="#000000" fill-rule="nonzero" fill-opacity="1"></path><path clip-path="url(#clip030)" d="M1267.34 1514.29 L1285.7 1514.29 L1285.7 1518.22 L1271.62 1518.22 L1271.62 1526.7 Q1272.64 1526.35 1273.66 1526.19 Q1274.68 1526 1275.7 1526 Q1281.48 1526 1284.86 1529.17 Q1288.24 1532.34 1288.24 1537.76 Q1288.24 1543.34 1284.77 1546.44 Q1281.3 1549.52 1274.98 1549.52 Q1272.8 1549.52 1270.53 1549.15 Q1268.29 1548.78 1265.88 1548.04 L1265.88 1543.34 Q1267.96 1544.47 1270.19 1545.03 Q1272.41 1545.58 1274.89 1545.58 Q1278.89 1545.58 1281.23 1543.48 Q1283.57 1541.37 1283.57 1537.76 Q1283.57 1534.15 1281.23 1532.04 Q1278.89 1529.94 1274.89 1529.94 Q1273.01 1529.94 1271.14 1530.35 Q1269.28 1530.77 1267.34 1531.65 L1267.34 1514.29 Z" fill="#000000" fill-rule="nonzero" fill-opacity="1"></path><path clip-path="url(#clip030)" d="M1307.45 1517.37 Q1303.84 1517.37 1302.01 1520.93 Q1300.21 1524.47 1300.21 1531.6 Q1300.21 1538.71 1302.01 1542.27 Q1303.84 1545.82 1307.45 1545.82 Q1311.09 1545.82 1312.89 1542.27 Q1314.72 1538.71 1314.72 1531.6 Q1314.72 1524.47 1312.89 1520.93 Q1311.09 1517.37 1307.45 1517.37 M1307.45 1513.66 Q1313.26 1513.66 1316.32 1518.27 Q1319.4 1522.85 1319.4 1531.6 Q1319.4 1540.33 1316.32 1544.94 Q1313.26 1549.52 1307.45 1549.52 Q1301.64 1549.52 1298.57 1544.94 Q1295.51 1540.33 1295.51 1531.6 Q1295.51 1522.85 1298.57 1518.27 Q1301.64 1513.66 1307.45 1513.66 Z" fill="#000000" fill-rule="nonzero" fill-opacity="1"></path><path clip-path="url(#clip030)" d="M1743.41 1517.37 Q1739.8 1517.37 1737.97 1520.93 Q1736.16 1524.47 1736.16 1531.6 Q1736.16 1538.71 1737.97 1542.27 Q1739.8 1545.82 1743.41 1545.82 Q1747.04 1545.82 1748.85 1542.27 Q1750.68 1538.71 1750.68 1531.6 Q1750.68 1524.47 1748.85 1520.93 Q1747.04 1517.37 1743.41 1517.37 M1743.41 1513.66 Q1749.22 1513.66 1752.27 1518.27 Q1755.35 1522.85 1755.35 1531.6 Q1755.35 1540.33 1752.27 1544.94 Q1749.22 1549.52 1743.41 1549.52 Q1737.6 1549.52 1734.52 1544.94 Q1731.46 1540.33 1731.46 1531.6 Q1731.46 1522.85 1734.52 1518.27 Q1737.6 1513.66 1743.41 1513.66 Z" fill="#000000" fill-rule="nonzero" fill-opacity="1"></path><path clip-path="url(#clip030)" d="M1763.57 1542.97 L1768.45 1542.97 L1768.45 1548.85 L1763.57 1548.85 L1763.57 1542.97 Z" fill="#000000" fill-rule="nonzero" fill-opacity="1"></path><path clip-path="url(#clip030)" d="M1777.46 1514.29 L1799.68 1514.29 L1799.68 1516.28 L1787.13 1548.85 L1782.25 1548.85 L1794.06 1518.22 L1777.46 1518.22 L1777.46 1514.29 Z" fill="#000000" fill-rule="nonzero" fill-opacity="1"></path><path clip-path="url(#clip030)" d="M1808.85 1514.29 L1827.2 1514.29 L1827.2 1518.22 L1813.13 1518.22 L1813.13 1526.7 Q1814.15 1526.35 1815.17 1526.19 Q1816.18 1526 1817.2 1526 Q1822.99 1526 1826.37 1529.17 Q1829.75 1532.34 1829.75 1537.76 Q1829.75 1543.34 1826.28 1546.44 Q1822.8 1549.52 1816.49 1549.52 Q1814.31 1549.52 1812.04 1549.15 Q1809.8 1548.78 1807.39 1548.04 L1807.39 1543.34 Q1809.47 1544.47 1811.69 1545.03 Q1813.92 1545.58 1816.39 1545.58 Q1820.4 1545.58 1822.74 1543.48 Q1825.07 1541.37 1825.07 1537.76 Q1825.07 1534.15 1822.74 1532.04 Q1820.4 1529.94 1816.39 1529.94 Q1814.52 1529.94 1812.64 1530.35 Q1810.79 1530.77 1808.85 1531.65 L1808.85 1514.29 Z" fill="#000000" fill-rule="nonzero" fill-opacity="1"></path><path clip-path="url(#clip030)" d="M2243.53 1544.91 L2251.17 1544.91 L2251.17 1518.55 L2242.85 1520.21 L2242.85 1515.95 L2251.12 1514.29 L2255.79 1514.29 L2255.79 1544.91 L2263.43 1544.91 L2263.43 1548.85 L2243.53 1548.85 L2243.53 1544.91 Z" fill="#000000" fill-rule="nonzero" fill-opacity="1"></path><path clip-path="url(#clip030)" d="M2272.88 1542.97 L2277.76 1542.97 L2277.76 1548.85 L2272.88 1548.85 L2272.88 1542.97 Z" fill="#000000" fill-rule="nonzero" fill-opacity="1"></path><path clip-path="url(#clip030)" d="M2297.95 1517.37 Q2294.34 1517.37 2292.51 1520.93 Q2290.7 1524.47 2290.7 1531.6 Q2290.7 1538.71 2292.51 1542.27 Q2294.34 1545.82 2297.95 1545.82 Q2301.58 1545.82 2303.39 1542.27 Q2305.22 1538.71 2305.22 1531.6 Q2305.22 1524.47 2303.39 1520.93 Q2301.58 1517.37 2297.95 1517.37 M2297.95 1513.66 Q2303.76 1513.66 2306.81 1518.27 Q2309.89 1522.85 2309.89 1531.6 Q2309.89 1540.33 2306.81 1544.94 Q2303.76 1549.52 2297.95 1549.52 Q2292.14 1549.52 2289.06 1544.94 Q2286 1540.33 2286 1531.6 Q2286 1522.85 2289.06 1518.27 Q2292.14 1513.66 2297.95 1513.66 Z" fill="#000000" fill-rule="nonzero" fill-opacity="1"></path><path clip-path="url(#clip030)" d="M2328.11 1517.37 Q2324.5 1517.37 2322.67 1520.93 Q2320.86 1524.47 2320.86 1531.6 Q2320.86 1538.71 2322.67 1542.27 Q2324.5 1545.82 2328.11 1545.82 Q2331.74 1545.82 2333.55 1542.27 Q2335.38 1538.71 2335.38 1531.6 Q2335.38 1524.47 2333.55 1520.93 Q2331.74 1517.37 2328.11 1517.37 M2328.11 1513.66 Q2333.92 1513.66 2336.97 1518.27 Q2340.05 1522.85 2340.05 1531.6 Q2340.05 1540.33 2336.97 1544.94 Q2333.92 1549.52 2328.11 1549.52 Q2322.3 1549.52 2319.22 1544.94 Q2316.16 1540.33 2316.16 1531.6 Q2316.16 1522.85 2319.22 1518.27 Q2322.3 1513.66 2328.11 1513.66 Z" fill="#000000" fill-rule="nonzero" fill-opacity="1"></path><polyline clip-path="url(#clip032)" style="stroke:#000000; stroke-linecap:round; stroke-linejoin:round; stroke-width:2; stroke-opacity:0.1; fill:none" points="186.76,1423.33 2352.76,1423.33 "></polyline>
<polyline clip-path="url(#clip032)" style="stroke:#000000; stroke-linecap:round; stroke-linejoin:round; stroke-width:2; stroke-opacity:0.1; fill:none" points="186.76,1078.25 2352.76,1078.25 "></polyline>
<polyline clip-path="url(#clip032)" style="stroke:#000000; stroke-linecap:round; stroke-linejoin:round; stroke-width:2; stroke-opacity:0.1; fill:none" points="186.76,733.164 2352.76,733.164 "></polyline>
<polyline clip-path="url(#clip032)" style="stroke:#000000; stroke-linecap:round; stroke-linejoin:round; stroke-width:2; stroke-opacity:0.1; fill:none" points="186.76,388.082 2352.76,388.082 "></polyline>
<polyline clip-path="url(#clip030)" style="stroke:#000000; stroke-linecap:round; stroke-linejoin:round; stroke-width:4; stroke-opacity:1; fill:none" points="186.76,1486.45 186.76,47.2441 "></polyline>
<polyline clip-path="url(#clip030)" style="stroke:#000000; stroke-linecap:round; stroke-linejoin:round; stroke-width:4; stroke-opacity:1; fill:none" points="186.76,1423.33 205.658,1423.33 "></polyline>
<polyline clip-path="url(#clip030)" style="stroke:#000000; stroke-linecap:round; stroke-linejoin:round; stroke-width:4; stroke-opacity:1; fill:none" points="186.76,1078.25 205.658,1078.25 "></polyline>
<polyline clip-path="url(#clip030)" style="stroke:#000000; stroke-linecap:round; stroke-linejoin:round; stroke-width:4; stroke-opacity:1; fill:none" points="186.76,733.164 205.658,733.164 "></polyline>
<polyline clip-path="url(#clip030)" style="stroke:#000000; stroke-linecap:round; stroke-linejoin:round; stroke-width:4; stroke-opacity:1; fill:none" points="186.76,388.082 205.658,388.082 "></polyline>
<path clip-path="url(#clip030)" d="M62.9365 1409.13 Q59.3254 1409.13 57.4967 1412.69 Q55.6912 1416.23 55.6912 1423.36 Q55.6912 1430.47 57.4967 1434.03 Q59.3254 1437.58 62.9365 1437.58 Q66.5707 1437.58 68.3763 1434.03 Q70.205 1430.47 70.205 1423.36 Q70.205 1416.23 68.3763 1412.69 Q66.5707 1409.13 62.9365 1409.13 M62.9365 1405.42 Q68.7467 1405.42 71.8022 1410.03 Q74.8809 1414.61 74.8809 1423.36 Q74.8809 1432.09 71.8022 1436.7 Q68.7467 1441.28 62.9365 1441.28 Q57.1264 1441.28 54.0477 1436.7 Q50.9921 1432.09 50.9921 1423.36 Q50.9921 1414.61 54.0477 1410.03 Q57.1264 1405.42 62.9365 1405.42 Z" fill="#000000" fill-rule="nonzero" fill-opacity="1"></path><path clip-path="url(#clip030)" d="M83.0984 1434.73 L87.9827 1434.73 L87.9827 1440.61 L83.0984 1440.61 L83.0984 1434.73 Z" fill="#000000" fill-rule="nonzero" fill-opacity="1"></path><path clip-path="url(#clip030)" d="M108.168 1409.13 Q104.557 1409.13 102.728 1412.69 Q100.922 1416.23 100.922 1423.36 Q100.922 1430.47 102.728 1434.03 Q104.557 1437.58 108.168 1437.58 Q111.802 1437.58 113.608 1434.03 Q115.436 1430.47 115.436 1423.36 Q115.436 1416.23 113.608 1412.69 Q111.802 1409.13 108.168 1409.13 M108.168 1405.42 Q113.978 1405.42 117.033 1410.03 Q120.112 1414.61 120.112 1423.36 Q120.112 1432.09 117.033 1436.7 Q113.978 1441.28 108.168 1441.28 Q102.358 1441.28 99.2789 1436.7 Q96.2234 1432.09 96.2234 1423.36 Q96.2234 1414.61 99.2789 1410.03 Q102.358 1405.42 108.168 1405.42 Z" fill="#000000" fill-rule="nonzero" fill-opacity="1"></path><path clip-path="url(#clip030)" d="M141.177 1410.12 L129.371 1428.57 L141.177 1428.57 L141.177 1410.12 M139.95 1406.05 L145.83 1406.05 L145.83 1428.57 L150.76 1428.57 L150.76 1432.46 L145.83 1432.46 L145.83 1440.61 L141.177 1440.61 L141.177 1432.46 L125.575 1432.46 L125.575 1427.95 L139.95 1406.05 Z" fill="#000000" fill-rule="nonzero" fill-opacity="1"></path><path clip-path="url(#clip030)" d="M63.2606 1064.04 Q59.6495 1064.04 57.8208 1067.61 Q56.0152 1071.15 56.0152 1078.28 Q56.0152 1085.39 57.8208 1088.95 Q59.6495 1092.49 63.2606 1092.49 Q66.8948 1092.49 68.7004 1088.95 Q70.5291 1085.39 70.5291 1078.28 Q70.5291 1071.15 68.7004 1067.61 Q66.8948 1064.04 63.2606 1064.04 M63.2606 1060.34 Q69.0707 1060.34 72.1263 1064.95 Q75.205 1069.53 75.205 1078.28 Q75.205 1087.01 72.1263 1091.61 Q69.0707 1096.2 63.2606 1096.2 Q57.4504 1096.2 54.3717 1091.61 Q51.3162 1087.01 51.3162 1078.28 Q51.3162 1069.53 54.3717 1064.95 Q57.4504 1060.34 63.2606 1060.34 Z" fill="#000000" fill-rule="nonzero" fill-opacity="1"></path><path clip-path="url(#clip030)" d="M83.4225 1089.65 L88.3067 1089.65 L88.3067 1095.53 L83.4225 1095.53 L83.4225 1089.65 Z" fill="#000000" fill-rule="nonzero" fill-opacity="1"></path><path clip-path="url(#clip030)" d="M108.492 1064.04 Q104.881 1064.04 103.052 1067.61 Q101.246 1071.15 101.246 1078.28 Q101.246 1085.39 103.052 1088.95 Q104.881 1092.49 108.492 1092.49 Q112.126 1092.49 113.932 1088.95 Q115.76 1085.39 115.76 1078.28 Q115.76 1071.15 113.932 1067.61 Q112.126 1064.04 108.492 1064.04 M108.492 1060.34 Q114.302 1060.34 117.358 1064.95 Q120.436 1069.53 120.436 1078.28 Q120.436 1087.01 117.358 1091.61 Q114.302 1096.2 108.492 1096.2 Q102.682 1096.2 99.603 1091.61 Q96.5474 1087.01 96.5474 1078.28 Q96.5474 1069.53 99.603 1064.95 Q102.682 1060.34 108.492 1060.34 Z" fill="#000000" fill-rule="nonzero" fill-opacity="1"></path><path clip-path="url(#clip030)" d="M139.232 1076.38 Q136.084 1076.38 134.232 1078.54 Q132.404 1080.69 132.404 1084.44 Q132.404 1088.16 134.232 1090.34 Q136.084 1092.49 139.232 1092.49 Q142.381 1092.49 144.209 1090.34 Q146.061 1088.16 146.061 1084.44 Q146.061 1080.69 144.209 1078.54 Q142.381 1076.38 139.232 1076.38 M148.515 1061.73 L148.515 1065.99 Q146.756 1065.16 144.95 1064.72 Q143.168 1064.28 141.408 1064.28 Q136.779 1064.28 134.325 1067.4 Q131.894 1070.53 131.547 1076.85 Q132.913 1074.83 134.973 1073.77 Q137.033 1072.68 139.51 1072.68 Q144.718 1072.68 147.728 1075.85 Q150.76 1079 150.76 1084.44 Q150.76 1089.76 147.612 1092.98 Q144.464 1096.2 139.232 1096.2 Q133.237 1096.2 130.066 1091.61 Q126.894 1087.01 126.894 1078.28 Q126.894 1070.09 130.783 1065.23 Q134.672 1060.34 141.223 1060.34 Q142.982 1060.34 144.765 1060.69 Q146.57 1061.04 148.515 1061.73 Z" fill="#000000" fill-rule="nonzero" fill-opacity="1"></path><path clip-path="url(#clip030)" d="M63.5152 718.963 Q59.9041 718.963 58.0754 722.527 Q56.2699 726.069 56.2699 733.199 Q56.2699 740.305 58.0754 743.87 Q59.9041 747.412 63.5152 747.412 Q67.1494 747.412 68.955 743.87 Q70.7837 740.305 70.7837 733.199 Q70.7837 726.069 68.955 722.527 Q67.1494 718.963 63.5152 718.963 M63.5152 715.259 Q69.3254 715.259 72.3809 719.865 Q75.4596 724.449 75.4596 733.199 Q75.4596 741.925 72.3809 746.532 Q69.3254 751.115 63.5152 751.115 Q57.7051 751.115 54.6264 746.532 Q51.5708 741.925 51.5708 733.199 Q51.5708 724.449 54.6264 719.865 Q57.7051 715.259 63.5152 715.259 Z" fill="#000000" fill-rule="nonzero" fill-opacity="1"></path><path clip-path="url(#clip030)" d="M83.6771 744.564 L88.5614 744.564 L88.5614 750.444 L83.6771 750.444 L83.6771 744.564 Z" fill="#000000" fill-rule="nonzero" fill-opacity="1"></path><path clip-path="url(#clip030)" d="M108.746 718.963 Q105.135 718.963 103.307 722.527 Q101.501 726.069 101.501 733.199 Q101.501 740.305 103.307 743.87 Q105.135 747.412 108.746 747.412 Q112.381 747.412 114.186 743.87 Q116.015 740.305 116.015 733.199 Q116.015 726.069 114.186 722.527 Q112.381 718.963 108.746 718.963 M108.746 715.259 Q114.557 715.259 117.612 719.865 Q120.691 724.449 120.691 733.199 Q120.691 741.925 117.612 746.532 Q114.557 751.115 108.746 751.115 Q102.936 751.115 99.8576 746.532 Q96.8021 741.925 96.8021 733.199 Q96.8021 724.449 99.8576 719.865 Q102.936 715.259 108.746 715.259 Z" fill="#000000" fill-rule="nonzero" fill-opacity="1"></path><path clip-path="url(#clip030)" d="M138.908 734.032 Q135.575 734.032 133.654 735.814 Q131.756 737.597 131.756 740.722 Q131.756 743.847 133.654 745.629 Q135.575 747.412 138.908 747.412 Q142.242 747.412 144.163 745.629 Q146.084 743.824 146.084 740.722 Q146.084 737.597 144.163 735.814 Q142.265 734.032 138.908 734.032 M134.232 732.041 Q131.223 731.301 129.533 729.24 Q127.867 727.18 127.867 724.217 Q127.867 720.074 130.807 717.666 Q133.769 715.259 138.908 715.259 Q144.07 715.259 147.01 717.666 Q149.95 720.074 149.95 724.217 Q149.95 727.18 148.26 729.24 Q146.593 731.301 143.607 732.041 Q146.987 732.828 148.862 735.12 Q150.76 737.412 150.76 740.722 Q150.76 745.745 147.681 748.43 Q144.626 751.115 138.908 751.115 Q133.191 751.115 130.112 748.43 Q127.057 745.745 127.057 740.722 Q127.057 737.412 128.955 735.12 Q130.853 732.828 134.232 732.041 M132.519 724.657 Q132.519 727.342 134.186 728.847 Q135.876 730.351 138.908 730.351 Q141.918 730.351 143.607 728.847 Q145.32 727.342 145.32 724.657 Q145.32 721.972 143.607 720.467 Q141.918 718.963 138.908 718.963 Q135.876 718.963 134.186 720.467 Q132.519 721.972 132.519 724.657 Z" fill="#000000" fill-rule="nonzero" fill-opacity="1"></path><path clip-path="url(#clip030)" d="M63.4226 373.881 Q59.8115 373.881 57.9828 377.445 Q56.1773 380.987 56.1773 388.117 Q56.1773 395.223 57.9828 398.788 Q59.8115 402.33 63.4226 402.33 Q67.0569 402.33 68.8624 398.788 Q70.6911 395.223 70.6911 388.117 Q70.6911 380.987 68.8624 377.445 Q67.0569 373.881 63.4226 373.881 M63.4226 370.177 Q69.2328 370.177 72.2883 374.783 Q75.367 379.367 75.367 388.117 Q75.367 396.844 72.2883 401.45 Q69.2328 406.033 63.4226 406.033 Q57.6125 406.033 54.5338 401.45 Q51.4782 396.844 51.4782 388.117 Q51.4782 379.367 54.5338 374.783 Q57.6125 370.177 63.4226 370.177 Z" fill="#000000" fill-rule="nonzero" fill-opacity="1"></path><path clip-path="url(#clip030)" d="M83.5845 399.482 L88.4688 399.482 L88.4688 405.362 L83.5845 405.362 L83.5845 399.482 Z" fill="#000000" fill-rule="nonzero" fill-opacity="1"></path><path clip-path="url(#clip030)" d="M99.4641 401.427 L107.103 401.427 L107.103 375.061 L98.7928 376.728 L98.7928 372.469 L107.057 370.802 L111.733 370.802 L111.733 401.427 L119.371 401.427 L119.371 405.362 L99.4641 405.362 L99.4641 401.427 Z" fill="#000000" fill-rule="nonzero" fill-opacity="1"></path><path clip-path="url(#clip030)" d="M138.816 373.881 Q135.205 373.881 133.376 377.445 Q131.57 380.987 131.57 388.117 Q131.57 395.223 133.376 398.788 Q135.205 402.33 138.816 402.33 Q142.45 402.33 144.256 398.788 Q146.084 395.223 146.084 388.117 Q146.084 380.987 144.256 377.445 Q142.45 373.881 138.816 373.881 M138.816 370.177 Q144.626 370.177 147.681 374.783 Q150.76 379.367 150.76 388.117 Q150.76 396.844 147.681 401.45 Q144.626 406.033 138.816 406.033 Q133.006 406.033 129.927 401.45 Q126.871 396.844 126.871 388.117 Q126.871 379.367 129.927 374.783 Q133.006 370.177 138.816 370.177 Z" fill="#000000" fill-rule="nonzero" fill-opacity="1"></path><polyline clip-path="url(#clip032)" style="stroke:#ff6347; stroke-linecap:round; stroke-linejoin:round; stroke-width:4; stroke-opacity:1; fill:none" points="248.062,1445.72 308.162,629.658 368.261,543.971 428.361,488.92 488.461,451.104 548.561,445.071 608.661,387.439 668.76,346.635 728.86,352.182 788.96,319.943 849.06,271.185 909.159,229.079 969.259,194.384 1029.36,170.798 1089.46,133.101 1149.56,92.4949 1209.66,87.9763 1269.76,105.752 1329.86,132.63 1389.96,156.958 1450.06,153.559 1510.16,161.089 1570.26,182.725 1630.36,210.884 1690.46,250.412 1750.56,284.964 1810.66,312.45 1870.76,349.995 1930.86,403.911 1990.96,459.333 2051.06,490.851 2111.15,527.793 2171.25,548.116 2231.35,587.525 2291.45,1360.74 "></polyline>
<circle clip-path="url(#clip032)" cx="248.062" cy="1445.72" r="14.4" fill="#ff6347" fill-rule="evenodd" fill-opacity="1" stroke="#000000" stroke-opacity="1" stroke-width="3.2"></circle>
<circle clip-path="url(#clip032)" cx="308.162" cy="629.658" r="14.4" fill="#ff6347" fill-rule="evenodd" fill-opacity="1" stroke="#000000" stroke-opacity="1" stroke-width="3.2"></circle>
<circle clip-path="url(#clip032)" cx="368.261" cy="543.971" r="14.4" fill="#ff6347" fill-rule="evenodd" fill-opacity="1" stroke="#000000" stroke-opacity="1" stroke-width="3.2"></circle>
<circle clip-path="url(#clip032)" cx="428.361" cy="488.92" r="14.4" fill="#ff6347" fill-rule="evenodd" fill-opacity="1" stroke="#000000" stroke-opacity="1" stroke-width="3.2"></circle>
<circle clip-path="url(#clip032)" cx="488.461" cy="451.104" r="14.4" fill="#ff6347" fill-rule="evenodd" fill-opacity="1" stroke="#000000" stroke-opacity="1" stroke-width="3.2"></circle>
<circle clip-path="url(#clip032)" cx="548.561" cy="445.071" r="14.4" fill="#ff6347" fill-rule="evenodd" fill-opacity="1" stroke="#000000" stroke-opacity="1" stroke-width="3.2"></circle>
<circle clip-path="url(#clip032)" cx="608.661" cy="387.439" r="14.4" fill="#ff6347" fill-rule="evenodd" fill-opacity="1" stroke="#000000" stroke-opacity="1" stroke-width="3.2"></circle>
<circle clip-path="url(#clip032)" cx="668.76" cy="346.635" r="14.4" fill="#ff6347" fill-rule="evenodd" fill-opacity="1" stroke="#000000" stroke-opacity="1" stroke-width="3.2"></circle>
<circle clip-path="url(#clip032)" cx="728.86" cy="352.182" r="14.4" fill="#ff6347" fill-rule="evenodd" fill-opacity="1" stroke="#000000" stroke-opacity="1" stroke-width="3.2"></circle>
<circle clip-path="url(#clip032)" cx="788.96" cy="319.943" r="14.4" fill="#ff6347" fill-rule="evenodd" fill-opacity="1" stroke="#000000" stroke-opacity="1" stroke-width="3.2"></circle>
<circle clip-path="url(#clip032)" cx="849.06" cy="271.185" r="14.4" fill="#ff6347" fill-rule="evenodd" fill-opacity="1" stroke="#000000" stroke-opacity="1" stroke-width="3.2"></circle>
<circle clip-path="url(#clip032)" cx="909.159" cy="229.079" r="14.4" fill="#ff6347" fill-rule="evenodd" fill-opacity="1" stroke="#000000" stroke-opacity="1" stroke-width="3.2"></circle>
<circle clip-path="url(#clip032)" cx="969.259" cy="194.384" r="14.4" fill="#ff6347" fill-rule="evenodd" fill-opacity="1" stroke="#000000" stroke-opacity="1" stroke-width="3.2"></circle>
<circle clip-path="url(#clip032)" cx="1029.36" cy="170.798" r="14.4" fill="#ff6347" fill-rule="evenodd" fill-opacity="1" stroke="#000000" stroke-opacity="1" stroke-width="3.2"></circle>
<circle clip-path="url(#clip032)" cx="1089.46" cy="133.101" r="14.4" fill="#ff6347" fill-rule="evenodd" fill-opacity="1" stroke="#000000" stroke-opacity="1" stroke-width="3.2"></circle>
<circle clip-path="url(#clip032)" cx="1149.56" cy="92.4949" r="14.4" fill="#ff6347" fill-rule="evenodd" fill-opacity="1" stroke="#000000" stroke-opacity="1" stroke-width="3.2"></circle>
<circle clip-path="url(#clip032)" cx="1209.66" cy="87.9763" r="14.4" fill="#ff6347" fill-rule="evenodd" fill-opacity="1" stroke="#000000" stroke-opacity="1" stroke-width="3.2"></circle>
<circle clip-path="url(#clip032)" cx="1269.76" cy="105.752" r="14.4" fill="#ff6347" fill-rule="evenodd" fill-opacity="1" stroke="#000000" stroke-opacity="1" stroke-width="3.2"></circle>
<circle clip-path="url(#clip032)" cx="1329.86" cy="132.63" r="14.4" fill="#ff6347" fill-rule="evenodd" fill-opacity="1" stroke="#000000" stroke-opacity="1" stroke-width="3.2"></circle>
<circle clip-path="url(#clip032)" cx="1389.96" cy="156.958" r="14.4" fill="#ff6347" fill-rule="evenodd" fill-opacity="1" stroke="#000000" stroke-opacity="1" stroke-width="3.2"></circle>
<circle clip-path="url(#clip032)" cx="1450.06" cy="153.559" r="14.4" fill="#ff6347" fill-rule="evenodd" fill-opacity="1" stroke="#000000" stroke-opacity="1" stroke-width="3.2"></circle>
<circle clip-path="url(#clip032)" cx="1510.16" cy="161.089" r="14.4" fill="#ff6347" fill-rule="evenodd" fill-opacity="1" stroke="#000000" stroke-opacity="1" stroke-width="3.2"></circle>
<circle clip-path="url(#clip032)" cx="1570.26" cy="182.725" r="14.4" fill="#ff6347" fill-rule="evenodd" fill-opacity="1" stroke="#000000" stroke-opacity="1" stroke-width="3.2"></circle>
<circle clip-path="url(#clip032)" cx="1630.36" cy="210.884" r="14.4" fill="#ff6347" fill-rule="evenodd" fill-opacity="1" stroke="#000000" stroke-opacity="1" stroke-width="3.2"></circle>
<circle clip-path="url(#clip032)" cx="1690.46" cy="250.412" r="14.4" fill="#ff6347" fill-rule="evenodd" fill-opacity="1" stroke="#000000" stroke-opacity="1" stroke-width="3.2"></circle>
<circle clip-path="url(#clip032)" cx="1750.56" cy="284.964" r="14.4" fill="#ff6347" fill-rule="evenodd" fill-opacity="1" stroke="#000000" stroke-opacity="1" stroke-width="3.2"></circle>
<circle clip-path="url(#clip032)" cx="1810.66" cy="312.45" r="14.4" fill="#ff6347" fill-rule="evenodd" fill-opacity="1" stroke="#000000" stroke-opacity="1" stroke-width="3.2"></circle>
<circle clip-path="url(#clip032)" cx="1870.76" cy="349.995" r="14.4" fill="#ff6347" fill-rule="evenodd" fill-opacity="1" stroke="#000000" stroke-opacity="1" stroke-width="3.2"></circle>
<circle clip-path="url(#clip032)" cx="1930.86" cy="403.911" r="14.4" fill="#ff6347" fill-rule="evenodd" fill-opacity="1" stroke="#000000" stroke-opacity="1" stroke-width="3.2"></circle>
<circle clip-path="url(#clip032)" cx="1990.96" cy="459.333" r="14.4" fill="#ff6347" fill-rule="evenodd" fill-opacity="1" stroke="#000000" stroke-opacity="1" stroke-width="3.2"></circle>
<circle clip-path="url(#clip032)" cx="2051.06" cy="490.851" r="14.4" fill="#ff6347" fill-rule="evenodd" fill-opacity="1" stroke="#000000" stroke-opacity="1" stroke-width="3.2"></circle>
<circle clip-path="url(#clip032)" cx="2111.15" cy="527.793" r="14.4" fill="#ff6347" fill-rule="evenodd" fill-opacity="1" stroke="#000000" stroke-opacity="1" stroke-width="3.2"></circle>
<circle clip-path="url(#clip032)" cx="2171.25" cy="548.116" r="14.4" fill="#ff6347" fill-rule="evenodd" fill-opacity="1" stroke="#000000" stroke-opacity="1" stroke-width="3.2"></circle>
<circle clip-path="url(#clip032)" cx="2231.35" cy="587.525" r="14.4" fill="#ff6347" fill-rule="evenodd" fill-opacity="1" stroke="#000000" stroke-opacity="1" stroke-width="3.2"></circle>
<circle clip-path="url(#clip032)" cx="2291.45" cy="1360.74" r="14.4" fill="#ff6347" fill-rule="evenodd" fill-opacity="1" stroke="#000000" stroke-opacity="1" stroke-width="3.2"></circle>
</svg>