<svg xmlns="http://www.w3.org/2000/svg" xmlns:xlink="http://www.w3.org/1999/xlink" width="600" height="400" viewBox="0 0 2400 1600">
<defs>
  <clipPath id="clip510">
    <rect x="0" y="0" width="2400" height="1600"></rect>
  </clipPath>
</defs>
<path clip-path="url(#clip510)" d="M0 1600 L2400 1600 L2400 0 L0 0  Z" fill="#ffffff" fill-rule="evenodd" fill-opacity="1"></path>
<defs>
  <clipPath id="clip511">
    <rect x="480" y="0" width="1681" height="1600"></rect>
  </clipPath>
</defs>
<path clip-path="url(#clip510)" d="M140.696 1486.45 L2352.76 1486.45 L2352.76 47.2441 L140.696 47.2441  Z" fill="#ffffff" fill-rule="evenodd" fill-opacity="1"></path>
<defs>
  <clipPath id="clip512">
    <rect x="140" y="47" width="2213" height="1440"></rect>
  </clipPath>
</defs>
<polyline clip-path="url(#clip512)" style="stroke:#000000; stroke-linecap:round; stroke-linejoin:round; stroke-width:2; stroke-opacity:0.1; fill:none" points="203.301,1486.45 203.301,47.2441 "></polyline>
<polyline clip-path="url(#clip512)" style="stroke:#000000; stroke-linecap:round; stroke-linejoin:round; stroke-width:2; stroke-opacity:0.1; fill:none" points="725.013,1486.45 725.013,47.2441 "></polyline>
<polyline clip-path="url(#clip512)" style="stroke:#000000; stroke-linecap:round; stroke-linejoin:round; stroke-width:2; stroke-opacity:0.1; fill:none" points="1246.73,1486.45 1246.73,47.2441 "></polyline>
<polyline clip-path="url(#clip512)" style="stroke:#000000; stroke-linecap:round; stroke-linejoin:round; stroke-width:2; stroke-opacity:0.1; fill:none" points="1768.44,1486.45 1768.44,47.2441 "></polyline>
<polyline clip-path="url(#clip512)" style="stroke:#000000; stroke-linecap:round; stroke-linejoin:round; stroke-width:2; stroke-opacity:0.1; fill:none" points="2290.15,1486.45 2290.15,47.2441 "></polyline>
<polyline clip-path="url(#clip510)" style="stroke:#000000; stroke-linecap:round; stroke-linejoin:round; stroke-width:4; stroke-opacity:1; fill:none" points="140.696,1486.45 2352.76,1486.45 "></polyline>
<polyline clip-path="url(#clip510)" style="stroke:#000000; stroke-linecap:round; stroke-linejoin:round; stroke-width:4; stroke-opacity:1; fill:none" points="203.301,1486.45 203.301,1467.55 "></polyline>
<polyline clip-path="url(#clip510)" style="stroke:#000000; stroke-linecap:round; stroke-linejoin:round; stroke-width:4; stroke-opacity:1; fill:none" points="725.013,1486.45 725.013,1467.55 "></polyline>
<polyline clip-path="url(#clip510)" style="stroke:#000000; stroke-linecap:round; stroke-linejoin:round; stroke-width:4; stroke-opacity:1; fill:none" points="1246.73,1486.45 1246.73,1467.55 "></polyline>
<polyline clip-path="url(#clip510)" style="stroke:#000000; stroke-linecap:round; stroke-linejoin:round; stroke-width:4; stroke-opacity:1; fill:none" points="1768.44,1486.45 1768.44,1467.55 "></polyline>
<polyline clip-path="url(#clip510)" style="stroke:#000000; stroke-linecap:round; stroke-linejoin:round; stroke-width:4; stroke-opacity:1; fill:none" points="2290.15,1486.45 2290.15,1467.55 "></polyline>
<path clip-path="url(#clip510)" d="M165.604 1517.37 Q161.993 1517.37 160.165 1520.93 Q158.359 1524.47 158.359 1531.6 Q158.359 1538.71 160.165 1542.27 Q161.993 1545.82 165.604 1545.82 Q169.239 1545.82 171.044 1542.27 Q172.873 1538.71 172.873 1531.6 Q172.873 1524.47 171.044 1520.93 Q169.239 1517.37 165.604 1517.37 M165.604 1513.66 Q171.415 1513.66 174.47 1518.27 Q177.549 1522.85 177.549 1531.6 Q177.549 1540.33 174.47 1544.94 Q171.415 1549.52 165.604 1549.52 Q159.794 1549.52 156.716 1544.94 Q153.66 1540.33 153.66 1531.6 Q153.66 1522.85 156.716 1518.27 Q159.794 1513.66 165.604 1513.66 Z" fill="#000000" fill-rule="nonzero" fill-opacity="1"></path><path clip-path="url(#clip510)" d="M185.766 1542.97 L190.651 1542.97 L190.651 1548.85 L185.766 1548.85 L185.766 1542.97 Z" fill="#000000" fill-rule="nonzero" fill-opacity="1"></path><path clip-path="url(#clip510)" d="M210.836 1517.37 Q207.225 1517.37 205.396 1520.93 Q203.59 1524.47 203.59 1531.6 Q203.59 1538.71 205.396 1542.27 Q207.225 1545.82 210.836 1545.82 Q214.47 1545.82 216.275 1542.27 Q218.104 1538.71 218.104 1531.6 Q218.104 1524.47 216.275 1520.93 Q214.47 1517.37 210.836 1517.37 M210.836 1513.66 Q216.646 1513.66 219.701 1518.27 Q222.78 1522.85 222.78 1531.6 Q222.78 1540.33 219.701 1544.94 Q216.646 1549.52 210.836 1549.52 Q205.026 1549.52 201.947 1544.94 Q198.891 1540.33 198.891 1531.6 Q198.891 1522.85 201.947 1518.27 Q205.026 1513.66 210.836 1513.66 Z" fill="#000000" fill-rule="nonzero" fill-opacity="1"></path><path clip-path="url(#clip510)" d="M240.998 1517.37 Q237.386 1517.37 235.558 1520.93 Q233.752 1524.47 233.752 1531.6 Q233.752 1538.71 235.558 1542.27 Q237.386 1545.82 240.998 1545.82 Q244.632 1545.82 246.437 1542.27 Q248.266 1538.71 248.266 1531.6 Q248.266 1524.47 246.437 1520.93 Q244.632 1517.37 240.998 1517.37 M240.998 1513.66 Q246.808 1513.66 249.863 1518.27 Q252.942 1522.85 252.942 1531.6 Q252.942 1540.33 249.863 1544.94 Q246.808 1549.52 240.998 1549.52 Q235.187 1549.52 232.109 1544.94 Q229.053 1540.33 229.053 1531.6 Q229.053 1522.85 232.109 1518.27 Q235.187 1513.66 240.998 1513.66 Z" fill="#000000" fill-rule="nonzero" fill-opacity="1"></path><path clip-path="url(#clip510)" d="M687.814 1517.37 Q684.203 1517.37 682.375 1520.93 Q680.569 1524.47 680.569 1531.6 Q680.569 1538.71 682.375 1542.27 Q684.203 1545.82 687.814 1545.82 Q691.449 1545.82 693.254 1542.27 Q695.083 1538.71 695.083 1531.6 Q695.083 1524.47 693.254 1520.93 Q691.449 1517.37 687.814 1517.37 M687.814 1513.66 Q693.625 1513.66 696.68 1518.27 Q699.759 1522.85 699.759 1531.6 Q699.759 1540.33 696.68 1544.94 Q693.625 1549.52 687.814 1549.52 Q682.004 1549.52 678.926 1544.94 Q675.87 1540.33 675.87 1531.6 Q675.87 1522.85 678.926 1518.27 Q682.004 1513.66 687.814 1513.66 Z" fill="#000000" fill-rule="nonzero" fill-opacity="1"></path><path clip-path="url(#clip510)" d="M707.976 1542.97 L712.861 1542.97 L712.861 1548.85 L707.976 1548.85 L707.976 1542.97 Z" fill="#000000" fill-rule="nonzero" fill-opacity="1"></path><path clip-path="url(#clip510)" d="M727.074 1544.91 L743.393 1544.91 L743.393 1548.85 L721.449 1548.85 L721.449 1544.91 Q724.111 1542.16 728.694 1537.53 Q733.3 1532.88 734.481 1531.53 Q736.726 1529.01 737.606 1527.27 Q738.509 1525.51 738.509 1523.82 Q738.509 1521.07 736.564 1519.33 Q734.643 1517.6 731.541 1517.6 Q729.342 1517.6 726.888 1518.36 Q724.458 1519.13 721.68 1520.68 L721.68 1515.95 Q724.504 1514.82 726.958 1514.24 Q729.411 1513.66 731.449 1513.66 Q736.819 1513.66 740.013 1516.35 Q743.208 1519.03 743.208 1523.52 Q743.208 1525.65 742.398 1527.57 Q741.611 1529.47 739.504 1532.07 Q738.925 1532.74 735.824 1535.95 Q732.722 1539.15 727.074 1544.91 Z" fill="#000000" fill-rule="nonzero" fill-opacity="1"></path><path clip-path="url(#clip510)" d="M753.254 1514.29 L771.61 1514.29 L771.61 1518.22 L757.536 1518.22 L757.536 1526.7 Q758.555 1526.35 759.573 1526.19 Q760.592 1526 761.61 1526 Q767.397 1526 770.777 1529.17 Q774.157 1532.34 774.157 1537.76 Q774.157 1543.34 770.684 1546.44 Q767.212 1549.52 760.893 1549.52 Q758.717 1549.52 756.448 1549.15 Q754.203 1548.78 751.796 1548.04 L751.796 1543.34 Q753.879 1544.47 756.101 1545.03 Q758.323 1545.58 760.8 1545.58 Q764.805 1545.58 767.143 1543.48 Q769.481 1541.37 769.481 1537.76 Q769.481 1534.15 767.143 1532.04 Q764.805 1529.94 760.8 1529.94 Q758.925 1529.94 757.05 1530.35 Q755.198 1530.77 753.254 1531.65 L753.254 1514.29 Z" fill="#000000" fill-rule="nonzero" fill-opacity="1"></path><path clip-path="url(#clip510)" d="M1209.03 1517.37 Q1205.42 1517.37 1203.59 1520.93 Q1201.78 1524.47 1201.78 1531.6 Q1201.78 1538.71 1203.59 1542.27 Q1205.42 1545.82 1209.03 1545.82 Q1212.66 1545.82 1214.47 1542.27 Q1216.3 1538.71 1216.3 1531.6 Q1216.3 1524.47 1214.47 1520.93 Q1212.66 1517.37 1209.03 1517.37 M1209.03 1513.66 Q1214.84 1513.66 1217.89 1518.27 Q1220.97 1522.85 1220.97 1531.6 Q1220.97 1540.33 1217.89 1544.94 Q1214.84 1549.52 1209.03 1549.52 Q1203.22 1549.52 1200.14 1544.94 Q1197.08 1540.33 1197.08 1531.6 Q1197.08 1522.85 1200.14 1518.27 Q1203.22 1513.66 1209.03 1513.66 Z" fill="#000000" fill-rule="nonzero" fill-opacity="1"></path><path clip-path="url(#clip510)" d="M1229.19 1542.97 L1234.08 1542.97 L1234.08 1548.85 L1229.19 1548.85 L1229.19 1542.97 Z" fill="#000000" fill-rule="nonzero" fill-opacity="1"></path><path clip-path="url(#clip510)" d="M1244.31 1514.29 L1262.66 1514.29 L1262.66 1518.22 L1248.59 1518.22 L1248.59 1526.7 Q1249.61 1526.35 1250.63 1526.19 Q1251.64 1526 1252.66 1526 Q1258.45 1526 1261.83 1529.17 Q1265.21 1532.34 1265.21 1537.76 Q1265.21 1543.34 1261.74 1546.44 Q1258.27 1549.52 1251.95 1549.52 Q1249.77 1549.52 1247.5 1549.15 Q1245.26 1548.78 1242.85 1548.04 L1242.85 1543.34 Q1244.93 1544.47 1247.15 1545.03 Q1249.38 1545.58 1251.85 1545.58 Q1255.86 1545.58 1258.2 1543.48 Q1260.53 1541.37 1260.53 1537.76 Q1260.53 1534.15 1258.2 1532.04 Q1255.86 1529.94 1251.85 1529.94 Q1249.98 1529.94 1248.1 1530.35 Q1246.25 1530.77 1244.31 1531.65 L1244.31 1514.29 Z" fill="#000000" fill-rule="nonzero" fill-opacity="1"></path><path clip-path="url(#clip510)" d="M1284.42 1517.37 Q1280.81 1517.37 1278.98 1520.93 Q1277.18 1524.47 1277.18 1531.6 Q1277.18 1538.71 1278.98 1542.27 Q1280.81 1545.82 1284.42 1545.82 Q1288.06 1545.82 1289.86 1542.27 Q1291.69 1538.71 1291.69 1531.6 Q1291.69 1524.47 1289.86 1520.93 Q1288.06 1517.37 1284.42 1517.37 M1284.42 1513.66 Q1290.23 1513.66 1293.29 1518.27 Q1296.37 1522.85 1296.37 1531.6 Q1296.37 1540.33 1293.29 1544.94 Q1290.23 1549.52 1284.42 1549.52 Q1278.61 1549.52 1275.53 1544.94 Q1272.48 1540.33 1272.48 1531.6 Q1272.48 1522.85 1275.53 1518.27 Q1278.61 1513.66 1284.42 1513.66 Z" fill="#000000" fill-rule="nonzero" fill-opacity="1"></path><path clip-path="url(#clip510)" d="M1731.24 1517.37 Q1727.63 1517.37 1725.8 1520.93 Q1723.99 1524.47 1723.99 1531.6 Q1723.99 1538.71 1725.8 1542.27 Q1727.63 1545.82 1731.24 1545.82 Q1734.87 1545.82 1736.68 1542.27 Q1738.51 1538.71 1738.51 1531.6 Q1738.51 1524.47 1736.68 1520.93 Q1734.87 1517.37 1731.24 1517.37 M1731.24 1513.66 Q1737.05 1513.66 1740.1 1518.27 Q1743.18 1522.85 1743.18 1531.6 Q1743.18 1540.33 1740.1 1544.94 Q1737.05 1549.52 1731.24 1549.52 Q1725.43 1549.52 1722.35 1544.94 Q1719.29 1540.33 1719.29 1531.6 Q1719.29 1522.85 1722.35 1518.27 Q1725.43 1513.66 1731.24 1513.66 Z" fill="#000000" fill-rule="nonzero" fill-opacity="1"></path><path clip-path="url(#clip510)" d="M1751.4 1542.97 L1756.29 1542.97 L1756.29 1548.85 L1751.4 1548.85 L1751.4 1542.97 Z" fill="#000000" fill-rule="nonzero" fill-opacity="1"></path><path clip-path="url(#clip510)" d="M1765.29 1514.29 L1787.51 1514.29 L1787.51 1516.28 L1774.97 1548.85 L1770.08 1548.85 L1781.89 1518.22 L1765.29 1518.22 L1765.29 1514.29 Z" fill="#000000" fill-rule="nonzero" fill-opacity="1"></path><path clip-path="url(#clip510)" d="M1796.68 1514.29 L1815.04 1514.29 L1815.04 1518.22 L1800.96 1518.22 L1800.96 1526.7 Q1801.98 1526.35 1803 1526.19 Q1804.02 1526 1805.04 1526 Q1810.82 1526 1814.2 1529.17 Q1817.58 1532.34 1817.58 1537.76 Q1817.58 1543.34 1814.11 1546.44 Q1810.64 1549.52 1804.32 1549.52 Q1802.14 1549.52 1799.87 1549.15 Q1797.63 1548.78 1795.22 1548.04 L1795.22 1543.34 Q1797.3 1544.47 1799.53 1545.03 Q1801.75 1545.58 1804.22 1545.58 Q1808.23 1545.58 1810.57 1543.48 Q1812.91 1541.37 1812.91 1537.76 Q1812.91 1534.15 1810.57 1532.04 Q1808.23 1529.94 1804.22 1529.94 Q1802.35 1529.94 1800.47 1530.35 Q1798.62 1530.77 1796.68 1531.65 L1796.68 1514.29 Z" fill="#000000" fill-rule="nonzero" fill-opacity="1"></path><path clip-path="url(#clip510)" d="M2242.22 1544.91 L2249.86 1544.91 L2249.86 1518.55 L2241.55 1520.21 L2241.55 1515.95 L2249.81 1514.29 L2254.49 1514.29 L2254.49 1544.91 L2262.13 1544.91 L2262.13 1548.85 L2242.22 1548.85 L2242.22 1544.91 Z" fill="#000000" fill-rule="nonzero" fill-opacity="1"></path><path clip-path="url(#clip510)" d="M2271.57 1542.97 L2276.46 1542.97 L2276.46 1548.85 L2271.57 1548.85 L2271.57 1542.97 Z" fill="#000000" fill-rule="nonzero" fill-opacity="1"></path><path clip-path="url(#clip510)" d="M2296.64 1517.37 Q2293.03 1517.37 2291.2 1520.93 Q2289.4 1524.47 2289.4 1531.6 Q2289.4 1538.71 2291.2 1542.27 Q2293.03 1545.82 2296.64 1545.82 Q2300.28 1545.82 2302.08 1542.27 Q2303.91 1538.71 2303.91 1531.6 Q2303.91 1524.47 2302.08 1520.93 Q2300.28 1517.37 2296.64 1517.37 M2296.64 1513.66 Q2302.45 1513.66 2305.51 1518.27 Q2308.59 1522.85 2308.59 1531.6 Q2308.59 1540.33 2305.51 1544.94 Q2302.45 1549.52 2296.64 1549.52 Q2290.83 1549.52 2287.75 1544.94 Q2284.7 1540.33 2284.7 1531.6 Q2284.7 1522.85 2287.75 1518.27 Q2290.83 1513.66 2296.64 1513.66 Z" fill="#000000" fill-rule="nonzero" fill-opacity="1"></path><path clip-path="url(#clip510)" d="M2326.81 1517.37 Q2323.19 1517.37 2321.37 1520.93 Q2319.56 1524.47 2319.56 1531.6 Q2319.56 1538.71 2321.37 1542.27 Q2323.19 1545.82 2326.81 1545.82 Q2330.44 1545.82 2332.25 1542.27 Q2334.07 1538.71 2334.07 1531.6 Q2334.07 1524.47 2332.25 1520.93 Q2330.44 1517.37 2326.81 1517.37 M2326.81 1513.66 Q2332.62 1513.66 2335.67 1518.27 Q2338.75 1522.85 2338.75 1531.6 Q2338.75 1540.33 2335.67 1544.94 Q2332.62 1549.52 2326.81 1549.52 Q2321 1549.52 2317.92 1544.94 Q2314.86 1540.33 2314.86 1531.6 Q2314.86 1522.85 2317.92 1518.27 Q2321 1513.66 2326.81 1513.66 Z" fill="#000000" fill-rule="nonzero" fill-opacity="1"></path><polyline clip-path="url(#clip512)" style="stroke:#000000; stroke-linecap:round; stroke-linejoin:round; stroke-width:2; stroke-opacity:0.1; fill:none" points="140.696,1445.72 2352.76,1445.72 "></polyline>
<polyline clip-path="url(#clip512)" style="stroke:#000000; stroke-linecap:round; stroke-linejoin:round; stroke-width:2; stroke-opacity:0.1; fill:none" points="140.696,1178.88 2352.76,1178.88 "></polyline>
<polyline clip-path="url(#clip512)" style="stroke:#000000; stroke-linecap:round; stroke-linejoin:round; stroke-width:2; stroke-opacity:0.1; fill:none" points="140.696,912.042 2352.76,912.042 "></polyline>
<polyline clip-path="url(#clip512)" style="stroke:#000000; stroke-linecap:round; stroke-linejoin:round; stroke-width:2; stroke-opacity:0.1; fill:none" points="140.696,645.205 2352.76,645.205 "></polyline>
<polyline clip-path="url(#clip512)" style="stroke:#000000; stroke-linecap:round; stroke-linejoin:round; stroke-width:2; stroke-opacity:0.1; fill:none" points="140.696,378.368 2352.76,378.368 "></polyline>
<polyline clip-path="url(#clip512)" style="stroke:#000000; stroke-linecap:round; stroke-linejoin:round; stroke-width:2; stroke-opacity:0.1; fill:none" points="140.696,111.532 2352.76,111.532 "></polyline>
<polyline clip-path="url(#clip510)" style="stroke:#000000; stroke-linecap:round; stroke-linejoin:round; stroke-width:4; stroke-opacity:1; fill:none" points="140.696,1486.45 140.696,47.2441 "></polyline>
<polyline clip-path="url(#clip510)" style="stroke:#000000; stroke-linecap:round; stroke-linejoin:round; stroke-width:4; stroke-opacity:1; fill:none" points="140.696,1445.72 159.593,1445.72 "></polyline>
<polyline clip-path="url(#clip510)" style="stroke:#000000; stroke-linecap:round; stroke-linejoin:round; stroke-width:4; stroke-opacity:1; fill:none" points="140.696,1178.88 159.593,1178.88 "></polyline>
<polyline clip-path="url(#clip510)" style="stroke:#000000; stroke-linecap:round; stroke-linejoin:round; stroke-width:4; stroke-opacity:1; fill:none" points="140.696,912.042 159.593,912.042 "></polyline>
<polyline clip-path="url(#clip510)" style="stroke:#000000; stroke-linecap:round; stroke-linejoin:round; stroke-width:4; stroke-opacity:1; fill:none" points="140.696,645.205 159.593,645.205 "></polyline>
<polyline clip-path="url(#clip510)" style="stroke:#000000; stroke-linecap:round; stroke-linejoin:round; stroke-width:4; stroke-opacity:1; fill:none" points="140.696,378.368 159.593,378.368 "></polyline>
<polyline clip-path="url(#clip510)" style="stroke:#000000; stroke-linecap:round; stroke-linejoin:round; stroke-width:4; stroke-opacity:1; fill:none" points="140.696,111.532 159.593,111.532 "></polyline>
<path clip-path="url(#clip510)" d="M92.7512 1431.51 Q89.1401 1431.51 87.3114 1435.08 Q85.5058 1438.62 85.5058 1445.75 Q85.5058 1452.86 87.3114 1456.42 Q89.1401 1459.96 92.7512 1459.96 Q96.3854 1459.96 98.1909 1456.42 Q100.02 1452.86 100.02 1445.75 Q100.02 1438.62 98.1909 1435.08 Q96.3854 1431.51 92.7512 1431.51 M92.7512 1427.81 Q98.5613 1427.81 101.617 1432.42 Q104.696 1437 104.696 1445.75 Q104.696 1454.48 101.617 1459.08 Q98.5613 1463.67 92.7512 1463.67 Q86.941 1463.67 83.8623 1459.08 Q80.8068 1454.48 80.8068 1445.75 Q80.8068 1437 83.8623 1432.42 Q86.941 1427.81 92.7512 1427.81 Z" fill="#000000" fill-rule="nonzero" fill-opacity="1"></path><path clip-path="url(#clip510)" d="M83.7929 1161.6 L102.149 1161.6 L102.149 1165.53 L88.0753 1165.53 L88.0753 1174.01 Q89.0938 1173.66 90.1123 1173.5 Q91.1308 1173.31 92.1493 1173.31 Q97.9363 1173.31 101.316 1176.48 Q104.696 1179.65 104.696 1185.07 Q104.696 1190.65 101.223 1193.75 Q97.7511 1196.83 91.4317 1196.83 Q89.2558 1196.83 86.9873 1196.46 Q84.7419 1196.09 82.3346 1195.35 L82.3346 1190.65 Q84.4179 1191.78 86.6401 1192.34 Q88.8623 1192.9 91.3391 1192.9 Q95.3437 1192.9 97.6817 1190.79 Q100.02 1188.68 100.02 1185.07 Q100.02 1181.46 97.6817 1179.35 Q95.3437 1177.25 91.3391 1177.25 Q89.4641 1177.25 87.5892 1177.66 Q85.7373 1178.08 83.7929 1178.96 L83.7929 1161.6 Z" fill="#000000" fill-rule="nonzero" fill-opacity="1"></path><path clip-path="url(#clip510)" d="M53.3995 925.387 L61.0384 925.387 L61.0384 899.021 L52.7282 900.688 L52.7282 896.429 L60.9921 894.762 L65.668 894.762 L65.668 925.387 L73.3068 925.387 L73.3068 929.322 L53.3995 929.322 L53.3995 925.387 Z" fill="#000000" fill-rule="nonzero" fill-opacity="1"></path><path clip-path="url(#clip510)" d="M92.7512 897.841 Q89.1401 897.841 87.3114 901.406 Q85.5058 904.947 85.5058 912.077 Q85.5058 919.183 87.3114 922.748 Q89.1401 926.29 92.7512 926.29 Q96.3854 926.29 98.1909 922.748 Q100.02 919.183 100.02 912.077 Q100.02 904.947 98.1909 901.406 Q96.3854 897.841 92.7512 897.841 M92.7512 894.137 Q98.5613 894.137 101.617 898.744 Q104.696 903.327 104.696 912.077 Q104.696 920.804 101.617 925.41 Q98.5613 929.993 92.7512 929.993 Q86.941 929.993 83.8623 925.41 Q80.8068 920.804 80.8068 912.077 Q80.8068 903.327 83.8623 898.744 Q86.941 894.137 92.7512 894.137 Z" fill="#000000" fill-rule="nonzero" fill-opacity="1"></path><path clip-path="url(#clip510)" d="M54.3949 658.55 L62.0337 658.55 L62.0337 632.185 L53.7236 633.851 L53.7236 629.592 L61.9874 627.925 L66.6633 627.925 L66.6633 658.55 L74.3022 658.55 L74.3022 662.485 L54.3949 662.485 L54.3949 658.55 Z" fill="#000000" fill-rule="nonzero" fill-opacity="1"></path><path clip-path="url(#clip510)" d="M83.7929 627.925 L102.149 627.925 L102.149 631.86 L88.0753 631.86 L88.0753 640.333 Q89.0938 639.985 90.1123 639.823 Q91.1308 639.638 92.1493 639.638 Q97.9363 639.638 101.316 642.809 Q104.696 645.981 104.696 651.397 Q104.696 656.976 101.223 660.078 Q97.7511 663.157 91.4317 663.157 Q89.2558 663.157 86.9873 662.786 Q84.7419 662.416 82.3346 661.675 L82.3346 656.976 Q84.4179 658.11 86.6401 658.666 Q88.8623 659.221 91.3391 659.221 Q95.3437 659.221 97.6817 657.115 Q100.02 655.008 100.02 651.397 Q100.02 647.786 97.6817 645.68 Q95.3437 643.573 91.3391 643.573 Q89.4641 643.573 87.5892 643.99 Q85.7373 644.407 83.7929 645.286 L83.7929 627.925 Z" fill="#000000" fill-rule="nonzero" fill-opacity="1"></path><path clip-path="url(#clip510)" d="M56.6171 391.713 L72.9365 391.713 L72.9365 395.648 L50.9921 395.648 L50.9921 391.713 Q53.6541 388.959 58.2375 384.329 Q62.8439 379.676 64.0245 378.334 Q66.2698 375.811 67.1494 374.075 Q68.0522 372.315 68.0522 370.625 Q68.0522 367.871 66.1078 366.135 Q64.1865 364.399 61.0847 364.399 Q58.8856 364.399 56.4319 365.163 Q54.0014 365.926 51.2236 367.477 L51.2236 362.755 Q54.0477 361.621 56.5014 361.042 Q58.955 360.463 60.9921 360.463 Q66.3624 360.463 69.5568 363.149 Q72.7513 365.834 72.7513 370.325 Q72.7513 372.454 71.9411 374.375 Q71.1541 376.274 69.0476 378.866 Q68.4689 379.537 65.367 382.755 Q62.2652 385.949 56.6171 391.713 Z" fill="#000000" fill-rule="nonzero" fill-opacity="1"></path><path clip-path="url(#clip510)" d="M92.7512 364.167 Q89.1401 364.167 87.3114 367.732 Q85.5058 371.274 85.5058 378.403 Q85.5058 385.51 87.3114 389.074 Q89.1401 392.616 92.7512 392.616 Q96.3854 392.616 98.1909 389.074 Q100.02 385.51 100.02 378.403 Q100.02 371.274 98.1909 367.732 Q96.3854 364.167 92.7512 364.167 M92.7512 360.463 Q98.5613 360.463 101.617 365.07 Q104.696 369.653 104.696 378.403 Q104.696 387.13 101.617 391.736 Q98.5613 396.32 92.7512 396.32 Q86.941 396.32 83.8623 391.736 Q80.8068 387.13 80.8068 378.403 Q80.8068 369.653 83.8623 365.07 Q86.941 360.463 92.7512 360.463 Z" fill="#000000" fill-rule="nonzero" fill-opacity="1"></path><path clip-path="url(#clip510)" d="M57.6125 124.877 L73.9318 124.877 L73.9318 128.812 L51.9875 128.812 L51.9875 124.877 Q54.6495 122.122 59.2328 117.492 Q63.8393 112.84 65.0198 111.497 Q67.2652 108.974 68.1448 107.238 Q69.0476 105.478 69.0476 103.789 Q69.0476 101.034 67.1032 99.2979 Q65.1819 97.5618 62.08 97.5618 Q59.881 97.5618 57.4273 98.3257 Q54.9967 99.0896 52.219 100.641 L52.219 95.9183 Q55.043 94.7841 57.4967 94.2054 Q59.9504 93.6267 61.9874 93.6267 Q67.3578 93.6267 70.5522 96.3118 Q73.7466 98.997 73.7466 103.488 Q73.7466 105.617 72.9365 107.539 Q72.1494 109.437 70.0429 112.029 Q69.4642 112.701 66.3624 115.918 Q63.2606 119.113 57.6125 124.877 Z" fill="#000000" fill-rule="nonzero" fill-opacity="1"></path><path clip-path="url(#clip510)" d="M83.7929 94.2517 L102.149 94.2517 L102.149 98.1868 L88.0753 98.1868 L88.0753 106.659 Q89.0938 106.312 90.1123 106.15 Q91.1308 105.965 92.1493 105.965 Q97.9363 105.965 101.316 109.136 Q104.696 112.307 104.696 117.724 Q104.696 123.302 101.223 126.404 Q97.7511 129.483 91.4317 129.483 Q89.2558 129.483 86.9873 129.113 Q84.7419 128.742 82.3346 128.001 L82.3346 123.302 Q84.4179 124.437 86.6401 124.992 Q88.8623 125.548 91.3391 125.548 Q95.3437 125.548 97.6817 123.441 Q100.02 121.335 100.02 117.724 Q100.02 114.113 97.6817 112.006 Q95.3437 109.9 91.3391 109.9 Q89.4641 109.9 87.5892 110.316 Q85.7373 110.733 83.7929 111.613 L83.7929 94.2517 Z" fill="#000000" fill-rule="nonzero" fill-opacity="1"></path><polyline clip-path="url(#clip512)" style="stroke:#ff6347; stroke-linecap:round; stroke-linejoin:round; stroke-width:4; stroke-opacity:1; fill:none" points="203.301,1445.72 307.643,1445.72 411.986,1445.72 516.328,1445.72 620.671,1445.72 725.013,1445.72 829.356,1006.05 933.698,488.418 1038.04,255.982 1142.38,130.33 1246.73,87.9763 1351.07,130.485 1455.41,257.376 1559.75,490.15 1664.1,1002.88 1768.44,1445.72 1872.78,1445.72 1977.12,1445.72 2081.47,1445.72 2185.81,1445.72 2290.15,1445.72 "></polyline>
<circle clip-path="url(#clip512)" cx="203.301" cy="1445.72" r="14.4" fill="#ff6347" fill-rule="evenodd" fill-opacity="1" stroke="#000000" stroke-opacity="1" stroke-width="3.2"></circle>
<circle clip-path="url(#clip512)" cx="307.643" cy="1445.72" r="14.4" fill="#ff6347" fill-rule="evenodd" fill-opacity="1" stroke="#000000" stroke-opacity="1" stroke-width="3.2"></circle>
<circle clip-path="url(#clip512)" cx="411.986" cy="1445.72" r="14.4" fill="#ff6347" fill-rule="evenodd" fill-opacity="1" stroke="#000000" stroke-opacity="1" stroke-width="3.2"></circle>
<circle clip-path="url(#clip512)" cx="516.328" cy="1445.72" r="14.4" fill="#ff6347" fill-rule="evenodd" fill-opacity="1" stroke="#000000" stroke-opacity="1" stroke-width="3.2"></circle>
<circle clip-path="url(#clip512)" cx="620.671" cy="1445.72" r="14.4" fill="#ff6347" fill-rule="evenodd" fill-opacity="1" stroke="#000000" stroke-opacity="1" stroke-width="3.2"></circle>
<circle clip-path="url(#clip512)" cx="725.013" cy="1445.72" r="14.4" fill="#ff6347" fill-rule="evenodd" fill-opacity="1" stroke="#000000" stroke-opacity="1" stroke-width="3.2"></circle>
<circle clip-path="url(#clip512)" cx="829.356" cy="1006.05" r="14.4" fill="#ff6347" fill-rule="evenodd" fill-opacity="1" stroke="#000000" stroke-opacity="1" stroke-width="3.2"></circle>
<circle clip-path="url(#clip512)" cx="933.698" cy="488.418" r="14.4" fill="#ff6347" fill-rule="evenodd" fill-opacity="1" stroke="#000000" stroke-opacity="1" stroke-width="3.2"></circle>
<circle clip-path="url(#clip512)" cx="1038.04" cy="255.982" r="14.4" fill="#ff6347" fill-rule="evenodd" fill-opacity="1" stroke="#000000" stroke-opacity="1" stroke-width="3.2"></circle>
<circle clip-path="url(#clip512)" cx="1142.38" cy="130.33" r="14.4" fill="#ff6347" fill-rule="evenodd" fill-opacity="1" stroke="#000000" stroke-opacity="1" stroke-width="3.2"></circle>
<circle clip-path="url(#clip512)" cx="1246.73" cy="87.9763" r="14.4" fill="#ff6347" fill-rule="evenodd" fill-opacity="1" stroke="#000000" stroke-opacity="1" stroke-width="3.2"></circle>
<circle clip-path="url(#clip512)" cx="1351.07" cy="130.485" r="14.4" fill="#ff6347" fill-rule="evenodd" fill-opacity="1" stroke="#000000" stroke-opacity="1" stroke-width="3.2"></circle>
<circle clip-path="url(#clip512)" cx="1455.41" cy="257.376" r="14.4" fill="#ff6347" fill-rule="evenodd" fill-opacity="1" stroke="#000000" stroke-opacity="1" stroke-width="3.2"></circle>
<circle clip-path="url(#clip512)" cx="1559.75" cy="490.15" r="14.4" fill="#ff6347" fill-rule="evenodd" fill-opacity="1" stroke="#000000" stroke-opacity="1" stroke-width="3.2"></circle>
<circle clip-path="url(#clip512)" cx="1664.1" cy="1002.88" r="14.4" fill="#ff6347" fill-rule="evenodd" fill-opacity="1" stroke="#000000" stroke-opacity="1" stroke-width="3.2"></circle>
<circle clip-path="url(#clip512)" cx="1768.44" cy="1445.72" r="14.4" fill="#ff6347" fill-rule="evenodd" fill-opacity="1" stroke="#000000" stroke-opacity="1" stroke-width="3.2"></circle>
<circle clip-path="url(#clip512)" cx="1872.78" cy="1445.72" r="14.4" fill="#ff6347" fill-rule="evenodd" fill-opacity="1" stroke="#000000" stroke-opacity="1" stroke-width="3.2"></circle>
<circle clip-path="url(#clip512)" cx="1977.12" cy="1445.72" r="14.4" fill="#ff6347" fill-rule="evenodd" fill-opacity="1" stroke="#000000" stroke-opacity="1" stroke-width="3.2"></circle>
<circle clip-path="url(#clip512)" cx="2081.47" cy="1445.72" r="14.4" fill="#ff6347" fill-rule="evenodd" fill-opacity="1" stroke="#000000" stroke-opacity="1" stroke-width="3.2"></circle>
<circle clip-path="url(#clip512)" cx="2185.81" cy="1445.72" r="14.4" fill="#ff6347" fill-rule="evenodd" fill-opacity="1" stroke="#000000" stroke-opacity="1" stroke-width="3.2"></circle>
<circle clip-path="url(#clip512)" cx="2290.15" cy="1445.72" r="14.4" fill="#ff6347" fill-rule="evenodd" fill-opacity="1" stroke="#000000" stroke-opacity="1" stroke-width="3.2"></circle>
</svg>